<?xml version="1.0" standalone="no"?>
<!DOCTYPE svg PUBLIC "-//W3C//DTD SVG 1.1//EN" "http://www.w3.org/Graphics/SVG/1.1/DTD/svg11.dtd" >
<svg xmlns="http://www.w3.org/2000/svg">
<metadata>
Created by FontPrep 20130207 at Thu Dec 31 15:26:19 2015
 By James Campbell
Digitized data copyright (c) 2010-2012 Google Corporation.
</metadata>
<defs>
<font id="ed712769ea77496e07203dbdc9cd7027" horiz-adv-x='1024' >
  <font-face 
    font-family="Cousine"
    font-weight="400"
    font-stretch="normal"
    units-per-em="2048"
    panose-1="2 7 4 9 2 2 5 2 4 4"
    ascent="1638"
    descent="-410"
    x-height="1082"
    cap-height="1349"
    bbox="-987 -615 1521 2009"
    underline-thickness="84"
    underline-position="-435"
    unicode-range="U+0020-FE23"
  />
<missing-glyph 
d="M768 621h-512v-492h512v492zM127 0v750h770v-750h-770z" />
    <glyph glyph-name=".notdef" 
d="M768 621h-512v-492h512v492zM127 0v750h770v-750h-770z" />
    <glyph glyph-name=".null" horiz-adv-x="0" 
 />
    <glyph glyph-name="nonmarkingreturn" 
 />
    <glyph glyph-name="space" unicode=" " 
 />
    <glyph glyph-name="space" unicode="&#xa0;" 
 />
    <glyph glyph-name="exclam" unicode="!" 
d="M515 0v201h194v-201h-194zM689 397h-148l-24 951h196z" />
    <glyph glyph-name="quotedbl" unicode="&#x22;" 
d="M459 845h-141l-41 639h224zM908 845h-142l-40 639h224z" />
    <glyph glyph-name="numbersign" unicode="#" 
d="M459 833l-69 -317h362l67 317h-360zM1123 516v-108h-283l-88 -408h-110l86 408h-363l-84 -408h-110l84 408h-201v108h225l67 317h-241v108h263l89 408h110l-88 -408h363l88 408h110l-88 -408h211v-108h-233l-67 -317h260z" />
    <glyph glyph-name="dollar" unicode="$" 
d="M686 156q292 18 292 237q0 111 -77.5 155t-214.5 79v-471zM558 1215q-256 -10 -256 -205q0 -99 68.5 -138t187.5 -70v413zM686 -141h-128v161q-422 14 -492 359l170 37q50 -244 322 -258v489l-30 8q-168 41 -283 112t-115 256q0 149 109.5 232.5t318.5 90.5v130h128v-130
q186 -7 287 -79.5t146 -241.5l-174 -33q-43 207 -259 221v-426q172 -42 249 -78t146 -105.5t69 -227.5t-120 -252.5t-344 -103.5v-161z" />
    <glyph glyph-name="percent" unicode="%" 
d="M1083 330q0 118 -31.5 172.5t-107.5 54.5t-108.5 -53t-32.5 -172t32.5 -175t106.5 -56t107.5 55.5t33.5 173.5zM947 665q283 0 283 -336q0 -167 -73 -254t-214 -87t-214 86t-73 254t70 252.5t221 84.5zM427 1026q0 118 -31.5 172.5t-107.5 54.5t-108.5 -53t-32.5 -172
t32.5 -175t106.5 -56t107.5 55.5t33.5 173.5zM291 1361q283 0 283 -336q0 -167 -73 -254t-214 -87t-214 86t-73 254t70 252.5t221 84.5zM221 0h-145l932 1353h147z" />
    <glyph glyph-name="ampersand" unicode="&#x26;" 
d="M211 362q0 -115 69 -183t198 -68t228 106q-180 203 -316 441q-179 -97 -179 -296zM780 1096q0 58 -48 99t-130 41t-138 -49t-56 -145t61 -210q161 68 210 99.5t75 69t26 95.5zM910 234q84 -105 189 -105q49 0 86 16v-135q-48 -22 -117 -22t-139.5 35t-120.5 94
q-154 -137 -350 -137t-305.5 100t-109.5 278q0 268 292 419q-75 141 -75 279q0 139 92.5 220t248.5 81t243.5 -72t87.5 -203t-114 -208t-293 -152q132 -231 277 -389q88 182 125 406l145 -43q-44 -236 -162 -462z" />
    <glyph glyph-name="quotesingle" unicode="'" 
d="M684 845h-141l-41 639h224z" />
    <glyph glyph-name="parenleft" unicode="(" 
d="M529 529q0 -274 85 -496t277 -458h-190q-192 236 -275.5 457.5t-83.5 497.5t82 495t277 459h190q-192 -236 -277 -458.5t-85 -496.5z" />
    <glyph glyph-name="parenright" unicode=")" 
d="M885 530q0 -278 -82.5 -498.5t-274.5 -456.5h-192q196 241 280 464t84 491t-84 490.5t-280 463.5h192q195 -240 276 -458t81 -496z" />
    <glyph glyph-name="asterisk" unicode="*" 
d="M671 1188l264 103l45 -132l-282 -73l185 -250l-119 -72l-150 258l-156 -256l-119 72l189 248l-280 73l45 134l267 -107l-12 297h136z" />
    <glyph glyph-name="plus" unicode="+" 
d="M687 608v-428h-147v428h-424v146h424v428h147v-428h424v-146h-424z" />
    <glyph glyph-name="comma" unicode="," 
d="M259 -363l169 662h265l-311 -662h-123z" />
    <glyph glyph-name="hyphen" unicode="-" 
d="M334 464v160h560v-160h-560z" />
    <glyph glyph-name="hyphen" unicode="&#xad;" 
d="M334 464v160h560v-160h-560z" />
    <glyph glyph-name="period" unicode="." 
d="M496 0v299h235v-299h-235z" />
    <glyph glyph-name="slash" unicode="/" 
d="M114 -20l821 1504h178l-817 -1504h-182z" />
    <glyph glyph-name="zero" unicode="0" 
d="M496 555v249h235v-249h-235zM920 681q0 284 -70.5 413.5t-234.5 129.5t-236.5 -128t-72.5 -417t73 -420.5t233 -131.5t234 135t74 419zM1103 679q0 -342 -124.5 -520.5t-367.5 -178.5t-365 178t-122 522t119 517t371 173t370.5 -174.5t118.5 -516.5z" />
    <glyph glyph-name="one" unicode="1" 
d="M157 0v145h439v1021q-37 -78 -175.5 -136t-272.5 -58v148q148 0 279.5 65t183.5 164h166v-1204h353v-145h-973z" />
    <glyph glyph-name="two" unicode="2" 
d="M144 0v117q49 109 152.5 220t271.5 245t238.5 228t70.5 193t-69 159t-190 60t-191.5 -62.5t-83.5 -175.5l-184 17q20 170 138.5 269.5t322.5 99.5t323 -96t119 -272q0 -223 -303 -464q-206 -164 -285.5 -241.5t-112.5 -150.5h723v-146h-940z" />
    <glyph glyph-name="three" unicode="3" 
d="M1099 370q0 -186 -126 -288t-346 -102t-348 97t-151 285l186 17q36 -250 307 -250q136 0 213.5 63t77.5 184q0 146 -123.5 189.5t-220.5 43.5h-102v156h98q86 0 157.5 28.5t112.5 80.5t41 140t-66.5 148t-191.5 60t-198.5 -61t-85.5 -172l-181 14q20 173 143.5 270
t326.5 97t320.5 -93.5t117.5 -260.5q0 -119 -79 -207t-216 -116v-4q151 -17 242.5 -106t91.5 -213z" />
    <glyph glyph-name="four" unicode="4" 
d="M757 461v693l-500 -693h500zM937 319v-319h-180v319h-654v140l635 890h199v-888h188v-142h-188z" />
    <glyph glyph-name="five" unicode="5" 
d="M603 722q-143 0 -258 -101h-176l47 728h801v-145h-635l-29 -425q117 90 306 90t314.5 -117.5t125.5 -307.5q0 -139 -59 -244t-172.5 -162.5t-289.5 -57.5t-297 86t-153 249l182 21q57 -209 293 -209q141 0 225 84.5t84 218.5t-83 213t-226 79z" />
    <glyph glyph-name="six" unicode="6" 
d="M913 438q0 144 -76.5 224t-207.5 80q-74 0 -140 -33.5t-103.5 -93t-37.5 -134.5q0 -152 81 -254t207 -102t201.5 84.5t75.5 228.5zM1096 439q0 -205 -121.5 -332t-345.5 -127t-351 173t-127 505t132 522t372 190q319 0 402 -287l-172 -31q-53 172 -232 172
q-153 0 -238 -139t-85 -390q49 91 138 138.5t204 47.5q192 0 308 -118.5t116 -323.5z" />
    <glyph glyph-name="seven" unicode="7" 
d="M408 0q0 536 487 1204h-737v145h911v-139q-473 -680 -473 -1210h-188z" />
    <glyph glyph-name="eight" unicode="8" 
d="M616 115q291 0 291 280q0 120 -78.5 184.5t-216.5 64.5t-215.5 -70t-77.5 -194t75.5 -194.5t221.5 -70.5zM872 1012q0 111 -67.5 167.5t-192.5 56.5t-193.5 -57t-68.5 -167t69 -171.5t193 -61.5q260 0 260 233zM1094 378q0 -184 -125 -291t-353 -107t-355.5 105
t-127.5 291q0 129 79 219.5t202 111.5v4q-112 27 -180 114t-68 192t55.5 185t156.5 124t235 44t236 -44.5t156 -123.5t54 -186t-69 -194t-181 -109v-4q130 -21 207.5 -109.5t77.5 -221.5z" />
    <glyph glyph-name="nine" unicode="9" 
d="M891 862q0 161 -80.5 261.5t-208.5 100.5t-203 -87t-75 -228t75 -228.5t203 -87.5q76 0 143.5 34.5t106.5 96t39 138.5zM1087 703q0 -346 -133 -534.5t-377 -188.5q-165 0 -264.5 69.5t-142.5 224.5l172 27q54 -176 238 -176q154 0 240.5 139.5t88.5 385.5
q-40 -90 -137 -144.5t-213 -54.5q-189 0 -303.5 127.5t-114.5 335.5t125.5 332t343.5 124q477 0 477 -667z" />
    <glyph glyph-name="colon" unicode=":" 
d="M496 783v299h235v-299h-235zM496 0v299h235v-299h-235z" />
    <glyph glyph-name="semicolon" unicode=";" 
d="M352 -363l169 662h265l-311 -662h-123zM496 783v299h235v-299h-235z" />
    <glyph glyph-name="semicolon" unicode="&#x37e;" 
d="M352 -363l169 662h265l-311 -662h-123zM496 783v299h235v-299h-235z" />
    <glyph glyph-name="less" unicode="&#x3c;" 
d="M116 571v205l995 418v-154l-858 -366l858 -367v-153z" />
    <glyph glyph-name="equal" unicode="=" 
d="M116 344v148h995v-148h-995zM116 856v148h995v-148h-995z" />
    <glyph glyph-name="greater" unicode="&#x3e;" 
d="M116 154v153l858 367l-858 366v154l995 -418v-205z" />
    <glyph glyph-name="question" unicode="?" 
d="M448 0v201h195v-201h-195zM1073 1002q0 -136 -63.5 -210t-164.5 -147t-156.5 -131t-57.5 -157h-175q4 130 65 202.5t162 146.5t154.5 133t53.5 162q0 102 -79.5 160.5t-215.5 58.5t-220 -73t-98 -199l-184 12q26 197 159.5 303.5t348.5 106.5t343 -96.5t128 -271.5z" />
    <glyph glyph-name="at" unicode="@" 
d="M775 802q0 88 -35 142.5t-96 54.5t-114 -66.5t-85.5 -188t-32.5 -253.5q0 -281 114 -281q74 0 133 95t87.5 252t28.5 245zM594 -283q-165 0 -290.5 97t-192.5 279.5t-67 444.5t77 483.5t220 342t316 120.5t289.5 -90.5t179.5 -256t63 -423.5t-82.5 -434t-224.5 -176
t-141 157v8l2 30h-6q-34 -88 -95.5 -141.5t-139.5 -53.5q-106 0 -165.5 100t-59.5 273t48.5 316t132 225.5t186.5 82.5q142 0 184 -173h5l32 151h116l-99 -507q-40 -210 -40 -288t49 -78q78 0 127.5 149t49.5 411t-109 432t-289 170q-148 0 -262 -107.5t-176 -302.5
t-62 -474t116 -464t318 -185q94 0 181 35t188 123l71 -87q-220 -189 -450 -189z" />
    <glyph glyph-name="A" unicode="A" 
d="M616 1205l-81 -251l-151 -423h463zM1034 0l-138 382h-563l-137 -382h-196l510 1349h217l501 -1349h-194z" />
    <glyph glyph-name="B" unicode="B" 
d="M619 153q340 0 340 239t-354 239h-252v-478h266zM878 998q0 107 -75.5 152.5t-226.5 45.5h-223v-416h225q300 0 300 218zM1152 380q0 -180 -137 -280t-381 -100h-472v1349h412q496 0 496 -327q0 -122 -72 -204t-196 -107q167 -18 258.5 -107t91.5 -224z" />
    <glyph glyph-name="C" unicode="C" 
d="M661 135q211 0 322 282l159 -65q-149 -372 -483 -372q-263 0 -404.5 181t-141.5 520q0 689 536 689q339 0 466 -335l-168 -65q-37 113 -115.5 178.5t-181.5 65.5q-171 0 -253.5 -129t-82.5 -404q0 -546 347 -546z" />
    <glyph glyph-name="D" unicode="D" 
d="M515 156q418 0 418 532q0 264 -110 384.5t-349 120.5h-121v-1037h162zM1125 688q0 -332 -153.5 -510t-439.5 -178h-370v1349h311q329 0 490.5 -164.5t161.5 -496.5z" />
    <glyph glyph-name="E" unicode="E" 
d="M162 0v1349h919v-156h-728v-422h668v-154h-668v-461h769v-156h-960z" />
    <glyph glyph-name="F" unicode="F" 
d="M385 1193v-494h676v-158h-676v-541h-191v1349h891v-156h-700z" />
    <glyph glyph-name="G" unicode="G" 
d="M113 681q0 689 529 689q346 0 461 -331l-171 -56q-80 231 -288 231q-169 0 -249.5 -126t-80.5 -407q0 -546 341 -546q68 0 141 21t119 53v336h-293v160h479v-572q-229 -153 -471 -153t-379.5 185.5t-137.5 515.5z" />
    <glyph glyph-name="H" unicode="H" 
d="M875 0v623h-522v-623h-191v1349h191v-566h522v566h191v-1349h-191z" />
    <glyph glyph-name="I" unicode="I" 
d="M202 1349h823v-156h-316v-1037h316v-156h-823v156h316v1037h-316v156z" />
    <glyph glyph-name="J" unicode="J" 
d="M986 420q0 -209 -105 -324.5t-285 -115.5t-282.5 89t-137.5 281l187 31q18 -118 76.5 -182t147.5 -64q209 0 209 281v777h-311v156h501v-929z" />
    <glyph glyph-name="K" unicode="K" 
d="M353 0h-191v1349h191v-673l572 673h225l-504 -572l581 -777h-224l-487 638l-163 -169v-469z" />
    <glyph glyph-name="L" unicode="L" 
d="M237 0v1349h191v-1193h672v-156h-863z" />
    <glyph glyph-name="M" unicode="M" 
d="M937 0v868q0 135 3 201l3 100q-64 -206 -95 -291l-164 -438h-137l-166 438q-18 46 -96 291l4 -301v-868h-160v1349h237l185 -489q21 -53 68 -231l70 230l185 490h225v-1349h-162z" />
    <glyph glyph-name="N" unicode="N" 
d="M332 876v-876h-170v1349h222l528 -1138q-18 144 -18 274v864h172v-1349h-230l-520 1130q16 -172 16 -254z" />
    <glyph glyph-name="O" unicode="O" 
d="M614 1214q-311 0 -311 -540t316 -539q306 -1 306 539t-311 540zM1126 684q0 -340 -133 -522t-381 -182t-379 179t-131 519t130 516t380 176t382 -173t132 -513z" />
    <glyph glyph-name="P" unicode="P" 
d="M927 942q0 254 -328 254h-246v-531h254q149 0 234.5 73t85.5 204zM1119 945q0 -125 -59.5 -223t-170 -153t-255.5 -55h-281v-514h-191v1349h460q238 0 367.5 -106.5t129.5 -297.5z" />
    <glyph glyph-name="Q" unicode="Q" 
d="M614 1214q-311 0 -311 -540t316 -539q306 -1 306 539t-311 540zM1126 707q0 -316 -98.5 -491.5t-281.5 -219.5q41 -126 108 -183t168 -57q55 0 115 13v-134q-93 -22 -178 -22q-150 0 -247.5 84.5t-160.5 286.5q-219 22 -334 200t-115 506t130 504t380 176t382 -173.5
t132 -489.5z" />
    <glyph glyph-name="R" unicode="R" 
d="M929 973q0 223 -304 223h-272v-470h280q143 0 219.5 64t76.5 183zM353 575v-575h-191v1349h482q233 0 355 -96.5t122 -260.5t-93.5 -266.5t-250.5 -128.5l400 -597h-220l-366 575h-238z" />
    <glyph glyph-name="S" unicode="S" 
d="M1128 370q0 -184 -134.5 -287t-383.5 -103q-457 0 -531 358l185 37q28 -129 116 -187.5t241 -58.5t235.5 62t82.5 181q0 164 -152.5 204t-266.5 70q-212 55 -293.5 139.5t-81.5 224.5q0 173 121.5 266.5t341.5 93.5t331.5 -74t155.5 -250l-188 -33q-24 112 -96 162.5
t-197 50.5q-283 0 -283 -213q0 -106 72 -145t132.5 -55.5t164.5 -42.5t198 -62.5t162 -118t68 -219.5z" />
    <glyph glyph-name="T" unicode="T" 
d="M709 1193v-1193h-190v1193h-443v156h1076v-156h-443z" />
    <glyph glyph-name="U" unicode="U" 
d="M1085 490q0 -267 -114 -388.5t-362 -121.5t-357.5 117.5t-109.5 374.5v877h191v-851q0 -204 58.5 -283.5t216.5 -79.5t222.5 82t64.5 294v838h190v-859z" />
    <glyph glyph-name="V" unicode="V" 
d="M713 0h-198l-505 1349h201l320 -902q31 -86 84 -279q40 149 84 279l318 902h201z" />
    <glyph glyph-name="W" unicode="W" 
d="M331 168q67 288 197 763h175q69 -253 108.5 -398t88.5 -365l35 346l104 835h189l-210 -1349h-208q-150 559 -194 756q-65 -280 -197 -756h-208l-211 1349h189l109 -835q16 -131 33 -346z" />
    <glyph glyph-name="X" unicode="X" 
d="M614 836l333 513h205l-435 -644l476 -705h-205l-374 573l-373 -573h-205l476 705l-435 644h205z" />
    <glyph glyph-name="Y" unicode="Y" 
d="M708 0h-188v584l-484 765h205l374 -611l372 611h205l-484 -765v-584z" />
    <glyph glyph-name="Z" unicode="Z" 
d="M1155 0h-1082v143l818 1050h-745v156h962v-139l-818 -1054h865v-156z" />
    <glyph glyph-name="bracketleft" unicode="[" 
d="M410 -425v1909h547v-139h-367v-1631h367v-139h-547z" />
    <glyph glyph-name="backslash" unicode="\" 
d="M932 -20l-817 1504h178l821 -1504h-182z" />
    <glyph glyph-name="bracketright" unicode="]" 
d="M270 -425v139h367v1631h-367v139h547v-1909h-547z" />
    <glyph glyph-name="asciicircum" unicode="^" 
d="M940 442l-329 803l-326 -803h-152l378 907h203l380 -907h-154z" />
    <glyph glyph-name="underscore" unicode="_" 
d="M-5 -220v96h1238v-96h-1238z" />
    <glyph glyph-name="grave" unicode="`" 
d="M402 1460h197l227 -239v-20h-124l-300 230v29z" />
    <glyph glyph-name="a" unicode="a" 
d="M497 117q91 0 165 46t115 123t41 159v89l-190 -4q-118 -2 -180 -26t-96.5 -73.5t-34.5 -131.5t44.5 -132t135.5 -50zM1101 111q26 0 59 7v-112q-68 -16 -154 -16q-171 0 -182 217h-6q-65 -121 -153.5 -174t-232.5 -53t-224 86t-80 236q0 349 454 354l236 4v59
q0 131 -53 188.5t-170 57.5t-169 -42t-62 -130l-188 17q46 292 423 292q200 0 300.5 -93.5t100.5 -270.5v-466q0 -80 21 -120.5t80 -40.5z" />
    <glyph glyph-name="b" unicode="b" 
d="M904 543q0 221 -61.5 321.5t-201.5 100.5q-276 0 -276 -441q0 -209 66 -310t209 -101t203.5 104.5t60.5 325.5zM362 164q0 -110 -9 -164h-174q6 54 6 223v1261h180v-423q0 -65 -4 -157h4q91 200 334 200q391 0 391 -558q0 -284 -101.5 -425t-290.5 -141q-244 0 -334 184
h-2z" />
    <glyph glyph-name="c" unicode="c" 
d="M130 540q0 272 129 417t373 145q182 0 300 -87.5t146 -235.5l-192 -14q-16 91 -80 143.5t-182 52.5q-158 0 -231.5 -98.5t-73.5 -318.5t73.5 -322.5t230.5 -102.5q108 0 179 53t88 162l190 -12q-13 -96 -72.5 -174.5t-157.5 -123t-219 -44.5q-245 0 -373 144t-128 416z
" />
    <glyph glyph-name="d" unicode="d" 
d="M583 113q280 -1 280 433q0 222 -67.5 320.5t-209.5 98.5t-202 -102.5t-60 -324.5t59.5 -323.5t199.5 -101.5zM867 174h-5q-49 -105 -130 -152.5t-202 -47.5q-202 0 -297 139t-95 419q0 566 392 566q121 0 202.5 -43t130.5 -141h2l-2 151v419h180v-1261q0 -169 6 -223
h-172q-10 38 -10 174z" />
    <glyph glyph-name="e" unicode="e" 
d="M619 969q-134 0 -212 -87.5t-83 -240.5h584q-28 328 -289 328zM738 1102q356 0 356 -575v-24h-772q0 -182 80.5 -285t220.5 -103q103 0 180.5 44.5t103.5 121.5l158 -45q-44 -124 -161.5 -190t-280.5 -66q-236 0 -363 147t-127 417t124.5 414t480.5 144z" />
    <glyph glyph-name="f" unicode="f" 
d="M1099 1318q-103 17 -289 17q-76 0 -153 -33.5t-77 -209.5v-10h491v-142h-491v-940h-180v940h-262v142h262v25q0 205 96.5 291t294.5 86t308 -21v-145z" />
    <glyph glyph-name="g" unicode="g" 
d="M869 551q0 193 -75 303.5t-209 110.5t-195 -95.5t-61 -282.5t25.5 -274.5t79.5 -127.5t145 -40t190.5 73.5t99.5 332.5zM143 552q0 280 98 413.5t302 133.5q113 0 196.5 -52.5t128.5 -149.5h3q0 30 4 101.5t8 83.5h171q-6 -54 -6 -224v-826q0 -227 -106 -341.5
t-327 -114.5q-168 0 -270 69t-130 198l184 25q35 -156 222 -156q248 0 248 315v194h-2q-99 -209 -343 -209q-198 0 -289.5 130t-91.5 410z" />
    <glyph glyph-name="h" unicode="h" 
d="M185 1484h181v-390q0 -59 -9 -197h3q105 205 339 205q350 0 350 -381v-721h-181v695q0 136 -52 202t-172 66t-199.5 -90.5t-79.5 -245.5v-627h-180v1484z" />
    <glyph glyph-name="i" unicode="i" 
d="M545 1292v192h200v-192h-200zM745 142h380v-142h-982v142h422v798h-319v142h499v-940z" />
    <glyph glyph-name="j" unicode="j" 
d="M636 1292v192h200v-192h-200zM421 -425q-191 0 -304 43v140q149 -34 275 -34t195 66t69 185v965h-407v142h587v-1110q0 -187 -112 -292t-303 -105z" />
    <glyph glyph-name="k" unicode="k" 
d="M416 0h-180v1484h180v-927l475 525h211l-439 -465l462 -617h-211l-366 499l-132 -98v-401z" />
    <glyph glyph-name="l" unicode="l" 
d="M736 142h380v-142h-982v142h422v1200h-289v142h469v-1342z" />
    <glyph glyph-name="m" unicode="m" 
d="M531 0v686q0 154 -24.5 215.5t-88.5 61.5t-104 -96t-40 -260v-607h-169v851q0 189 -6 231h149l6 -127v-48h2q34 102 86 148.5t135 46.5t126.5 -48t62.5 -148h2q40 106 95.5 151t140.5 45q118 0 169 -86t51 -295v-721h-168v686q0 154 -24 215.5t-90 61.5t-104.5 -84
t-38.5 -252v-627h-168z" />
    <glyph glyph-name="n" unicode="n" 
d="M706 1102q173 0 258 -93.5t85 -287.5v-721h-181v695q0 136 -52 202t-172 66t-199.5 -90.5t-79.5 -245.5v-627h-180v851q0 189 -6 231h170q4 -19 8 -185h3q105 205 346 205z" />
    <glyph glyph-name="o" unicode="o" 
d="M319 542q0 -429 288 -429q159 0 230 107t71 322t-68.5 321t-222.5 106t-226 -108t-72 -319zM615 1102q482 0 482 -556q0 -278 -125.5 -422t-359.5 -144t-358 146t-124 420t126.5 415t358.5 141z" />
    <glyph glyph-name="p" unicode="p" 
d="M904 544q0 228 -61 324.5t-202 96.5t-208 -109.5t-67 -327.5t67 -316.5t208 -98.5t202 101.5t61 329.5zM1090 546q0 -566 -392 -566q-246 0 -331 184h-5q4 -8 4 -166v-423h-181v1283q0 170 -6 224h175q3 -11 6.5 -82.5t3.5 -95.5h4q50 105 127.5 152.5t202.5 47.5
q198 0 295 -136.5t97 -421.5z" />
    <glyph glyph-name="q" unicode="q" 
d="M585 113q278 -1 278 435q0 218 -68 317.5t-209 99.5t-201.5 -102t-60.5 -324t61 -324t200 -102zM863 914q0 140 12 169h175q-6 -54 -6 -282v-1226h-181v439l4 168h-2q-53 -107 -132 -157.5t-203 -50.5q-202 0 -297 140.5t-95 417.5q0 566 391 566q129 0 206 -44.5
t126 -139.5h2z" />
    <glyph glyph-name="r" unicode="r" 
d="M294 701q0 175 -52 381h171q40 -138 48 -250h5q50 112 122 191t251 79q104 0 206 -17v-167q-112 19 -212 19q-161 0 -260 -121t-99 -308v-508h-180v701z" />
    <glyph glyph-name="s" unicode="s" 
d="M378 814q0 -60 41.5 -96t133.5 -58l119 -31q163 -40 275.5 -101.5t112.5 -216.5q0 -156 -116.5 -243.5t-322.5 -87.5t-313.5 64.5t-140.5 203.5l159 31q19 -86 81.5 -125.5t213.5 -39.5q270 0 270 171q0 64 -49 103.5t-150 64.5q-264 65 -373 122t-109 207q0 151 106 234
t294 83q371 0 425 -260l-162 -20q-22 146 -259 146q-236 0 -236 -151z" />
    <glyph glyph-name="t" unicode="t" 
d="M190 940v142h170l58 282h120v-282h432v-142h-432v-652q0 -79 42 -117t158 -38t279 34v-137q-169 -46 -333 -46t-245 68.5t-81 216.5v671h-168z" />
    <glyph glyph-name="u" unicode="u" 
d="M528 -20q-178 0 -260.5 88.5t-82.5 292.5v721h180v-686q0 -156 48.5 -216.5t176.5 -60.5t203 88t75 248v627h181v-851q0 -189 6 -231h-170q-4 19 -8 185h-3q-62 -112 -143.5 -158.5t-202.5 -46.5z" />
    <glyph glyph-name="v" unicode="v" 
d="M715 0h-213l-433 1082h202l268 -704l69 -237l74 235l276 706h201z" />
    <glyph glyph-name="w" unicode="w" 
d="M1018 0h-204l-143 471l-57 202l-39 -139l-168 -534h-203l-183 1082h178l93 -607q33 -264 33 -326q39 160 58 214l135 424h193l130 -425q32 -105 55 -213q0 72 16 186.5t19 139.5l101 607h176z" />
    <glyph glyph-name="x" unicode="x" 
d="M932 0l-321 444l-323 -444h-194l415 556l-397 526h199l300 -421l298 421h201l-397 -524l420 -558h-201z" />
    <glyph glyph-name="y" unicode="y" 
d="M292 -425q-74 0 -124 11v135q38 -6 84 -6q79 0 148.5 59t117.5 188l18 49l-470 1071h192l264 -642q91 -224 98 -254l41 110l310 786h190l-456 -1082q-89 -235 -184.5 -330t-228.5 -95z" />
    <glyph glyph-name="z" unicode="z" 
d="M147 0v137l681 806h-641v139h844v-137l-682 -806h719v-139h-921z" />
    <glyph glyph-name="braceleft" unicode="{" 
d="M796 -425q-130 0 -212 84.5t-82 218.5v351q0 107 -73 167t-202 65v137q130 5 202.5 66t72.5 165v352q0 137 81 220t213 83h265v-139h-213q-91 0 -131 -44t-40 -151v-346q0 -98 -64 -172.5t-167 -99.5v-2q102 -24 166.5 -97.5t64.5 -176.5v-347q0 -106 40 -150.5
t131 -44.5h213v-139h-265z" />
    <glyph glyph-name="bar" unicode="|" 
d="M531 -425v1909h166v-1909h-166z" />
    <glyph glyph-name="braceright" unicode="}" 
d="M167 -425v139h213q91 0 131.5 44.5t40.5 150.5v347q0 102 64 176t166 98v2q-102 25 -166 100t-64 172v346q0 105 -40 150t-132 45h-213v139h265q133 0 213.5 -83t80.5 -220v-352q0 -105 73 -165.5t202 -65.5v-137q-130 -5 -202.5 -65.5t-72.5 -166.5v-351
q0 -135 -82 -219t-212 -84h-265z" />
    <glyph glyph-name="asciitilde" unicode="~" 
d="M1120 633q-114 -80 -252 -80q-77 0 -149.5 21.5t-173.5 57.5t-189 36q-126 0 -248 -88v143q111 84 263 84q102 -1 242 -49t183.5 -58t79.5 -10q130 0 244 92v-149z" />
    <glyph glyph-name="exclamdown" unicode="&#xa1;" 
d="M713 1082v-201h-194v201h194zM539 685h148l24 -951h-196z" />
    <glyph glyph-name="cent" unicode="&#xa2;" 
d="M635 269q113 0 186.5 56t90.5 161l182 -12q-21 -142 -128 -234t-268 -106v-195h-128v195q-208 15 -322.5 152.5t-114.5 373.5t116 376.5t321 158.5v184h128v-184q157 -13 259 -97.5t131 -224.5l-185 -14q-17 91 -82.5 145t-204.5 54t-219.5 -100t-80.5 -294t84 -294.5
t235 -100.5z" />
    <glyph glyph-name="sterling" unicode="&#xa3;" 
d="M890 1083q-44 127 -239 127q-100 0 -160 -57.5t-60 -182.5v-216h408v-142h-408v-139q0 -128 -36 -199.5t-119 -115.5h600q59 0 87.5 26.5t39.5 79.5l168 -24q-50 -240 -234 -240h-881v154q87 44 141 103.5t54 213.5v141h-186v142h186v220q0 194 108.5 295t313.5 101
q153 0 255 -60.5t136 -169.5z" />
    <glyph glyph-name="currency" unicode="&#xa4;" 
d="M336 686q0 -114 82 -197t198 -83t198.5 81t82.5 198t-82.5 199.5t-198.5 82.5t-198 -83.5t-82 -197.5zM182 684q0 138 78 252l-100 100l104 103l99 -101q115 82 253 82t252 -80l97 97l104 -105l-96 -96q80 -118 80 -254t-82 -250l100 -100l-102 -105l-101 101
q-114 -78 -254 -78t-249 80l-105 -105l-102 105l102 102q-78 114 -78 252z" />
    <glyph glyph-name="yen" unicode="&#xa5;" 
d="M1085 679v-142h-383v-137h383v-144h-383v-256h-178v256h-381v144h381l2 137h-383v142h320l-411 670h199l361 -617l365 617h199l-412 -670h321z" />
    <glyph glyph-name="brokenbar" unicode="&#xa6;" 
d="M531 -455v779h166v-779h-166zM531 676v778h166v-778h-166z" />
    <glyph glyph-name="section" unicode="&#xa7;" 
d="M910 656q0 78 -69.5 130.5t-245.5 93.5q-109 -6 -173.5 -59t-64.5 -142t85 -130t214 -74q119 2 186.5 52.5t67.5 128.5zM378 1216q0 -60 30 -95t86 -61t194 -59t259 -97.5t121 -217.5q0 -99 -59.5 -174t-159.5 -99q112 -48 162.5 -112.5t50.5 -155.5q0 -148 -115 -232.5
t-325 -84.5t-319.5 66.5t-143.5 205.5l161 31q20 -93 92 -138t206 -45t209 48t75 142t-90.5 137.5t-267.5 85.5q-347 82 -347 310q0 89 61.5 163t166.5 104q-96 32 -151.5 99t-55.5 153q0 139 105.5 216.5t293.5 77.5q373 0 428 -260l-161 -20q-28 160 -252 160
q-125 0 -189.5 -44t-64.5 -104z" />
    <glyph glyph-name="dieresis" unicode="&#xa8;" 
d="M335 1219v184h165v-184h-165zM729 1219v184h163v-184h-163z" />
    <glyph glyph-name="copyright" unicode="&#xa9;" 
d="M1105 761q0 301 -130 464.5t-361 163.5q-310 0 -399 -214t-89 -414q0 -299 127.5 -464t360.5 -165t362 164t129 465zM1197 762q0 -228 -71 -391.5t-203 -248t-309 -84.5t-308.5 85.5t-203 248.5t-71.5 389t71 389t203.5 248.5t308.5 85.5t308.5 -85t203.5 -247t71 -390z
M398 766q0 -156 59 -242.5t165 -86.5q129 0 196 156l115 -35q-52 -118 -128.5 -171.5t-182.5 -53.5q-168 0 -260.5 113.5t-92.5 315.5t89 313.5t257 111.5q217 0 303 -209l-114 -33q-53 137 -187 137q-107 0 -163 -80t-56 -236z" />
    <glyph glyph-name="ordfeminine" unicode="&#xaa;" 
d="M353 893q0 -67 40.5 -104t110.5 -37t127.5 34t90.5 88.5t33 108.5v51l-154 -4q-130 -3 -189 -36.5t-59 -100.5zM898 874q0 -118 65 -118q34 0 58 8v-94q-50 -13 -102 -13q-154 0 -160 160h-4q-93 -166 -291 -166q-121 0 -189.5 57t-68.5 168t90 172.5t268 63.5l191 4v43
q0 182 -180 182q-84 0 -130 -34t-57 -111l-149 10q18 106 105.5 166t237.5 60t233 -67t83 -200v-291z" />
    <glyph glyph-name="guillemotleft" unicode="&#xab;" 
d="M640 940v-31l-335 -372l337 -367v-29h-179l-336 365v63l336 371h177zM1118 940v-31l-338 -372l340 -367v-29h-180l-338 365v63l338 371h178z" />
    <glyph glyph-name="logicalnot" unicode="&#xac;" 
d="M966 180v428h-850v146h995v-574h-145z" />
    <glyph glyph-name="registered" unicode="&#xae;" 
d="M801 932q0 72 -47.5 108t-128.5 36h-170v-301h182q80 0 122 42.5t42 114.5zM455 679v-336h-127v831h307q142 0 217.5 -63t75.5 -169t-52 -168t-137 -81l221 -350h-145l-199 336h-161zM1105 761q0 301 -130 464.5t-361 163.5q-310 0 -399 -214t-89 -414q0 -299 127.5 -464
t360.5 -165t362 164t129 465zM1197 762q0 -228 -71 -391.5t-203 -248t-309 -84.5t-308.5 85.5t-203 248.5t-71.5 389t71 389t203.5 248.5t308.5 85.5t308.5 -85t203.5 -247t71 -390z" />
    <glyph glyph-name="overscore" unicode="&#xaf;" 
d="M-5 1522v96h1238v-96h-1238z" />
    <glyph glyph-name="degree" unicode="&#xb0;" 
d="M792 1086q0 76 -51.5 127.5t-126.5 51.5t-126.5 -53t-51.5 -127t52 -127t126 -53t126 52.5t52 128.5zM901 1085q0 -119 -84.5 -202t-202.5 -83t-202.5 84t-84.5 201t83.5 201t203.5 84t203.5 -83t83.5 -202z" />
    <glyph glyph-name="plusminus" unicode="&#xb1;" 
d="M116 0v145h995v-145h-995zM687 680v-395h-147v395h-424v145h424v394h147v-394h424v-145h-424z" />
    <glyph glyph-name="twosuperior" unicode="&#xb2;" 
d="M764 1179q0 61 -35.5 98.5t-106.5 37.5t-115 -36.5t-52 -104.5l-133 8q13 108 95.5 173.5t210.5 65.5t200.5 -63.5t72.5 -175.5q0 -142 -190 -277q-132 -93 -182 -139t-74 -96h459l2 -107h-602l-2 103q58 128 262 268q102 70 146 127t44 118z" />
    <glyph glyph-name="threesuperior" unicode="&#xb3;" 
d="M921 781q0 -102 -77.5 -166t-219.5 -64q-286 0 -318 227l136 13q18 -136 180 -136t162 148q0 137 -189 137h-61v109h57q80 0 126 36.5t46 98.5t-36.5 96.5t-106.5 34.5t-112 -35t-48 -100l-135 12q13 109 92 169t207 60t202 -59.5t74 -145.5q0 -177 -176 -217v-2
q91 -9 144 -61.5t53 -154.5z" />
    <glyph glyph-name="acute" unicode="&#xb4;" 
d="M402 1201v20l227 239h197v-29l-300 -230h-124z" />
    <glyph glyph-name="mu1" unicode="&#xb5;" 
d="M906 199h-4q-106 -219 -334 -219q-82 0 -146 32t-96 90h-4q4 -43 4 -122v-373h-182v1475h182v-644q0 -317 264 -317q131 0 219 96.5t88 247.5v617h181v-849q0 -191 6 -233h-168q-2 11 -6 92t-4 107z" />
    <glyph glyph-name="paragraph" unicode="&#xb6;" 
d="M951 1227v-1551h-132v1551h-197v-1551h-133v958q-168 0 -265 92t-97 262t98.5 265.5t271.5 95.5h583v-122h-129z" />
    <glyph glyph-name="middot.001" unicode="&#xb7;" 
d="M496 420v299h235v-299h-235z" />
    <glyph glyph-name="cedilla" unicode="&#xb8;" 
d="M205 -348q147 0 147 84t-133 84q-43 0 -57 -2l65 182h107l-39 -100q94 -3 141 -44.5t47 -113.5q0 -186 -274 -186q-57 0 -90 4v98q50 -6 86 -6z" />
    <glyph glyph-name="onesuperior" unicode="&#xb9;" 
d="M291 563v107h265v610q-25 -50 -104 -82.5t-167 -32.5v109q99 0 173.5 36.5t107.5 99.5h121v-740h236v-107h-632z" />
    <glyph glyph-name="ordmasculine" unicode="&#xba;" 
d="M609 756q244 0 244 285q0 152 -60 219t-174 67q-241 0 -241 -285q0 -140 59 -213t172 -73zM1002 1045q0 -186 -102.5 -290t-286.5 -104t-285.5 106.5t-101.5 286.5t103 284t289 104t285 -100.5t99 -286.5z" />
    <glyph glyph-name="guillemotright" unicode="&#xbb;" 
d="M107 141v29l338 367l-336 372v31h178l335 -371v-63l-335 -365h-180zM584 141v29l338 367l-336 372v31h176l338 -371v-63l-338 -365h-178z" />
    <glyph glyph-name="onequarter" unicode="&#xbc;" 
d="M63 589v107h135v513q-20 -39 -73 -67t-98 -28v119q50 -1 102 31t79 85h121v-653h116v-107h-382zM322 0h-118l703 1349h115zM980 263v321l1 51q-34 -51 -266 -372h265zM1107 162v-161h-127v161h-375v99l361 502h141v-500h122v-101h-122z" />
    <glyph glyph-name="onehalf" unicode="&#xbd;" 
d="M53 589v107h135v513q-20 -39 -73 -67t-98 -28v119q50 -1 102 31t79 85h121v-653h116v-107h-382zM306 0h-118l703 1349h115zM678 1v97q49 111 224 244q82 61 117 109t35 101q0 121 -111 121q-61 0 -91 -31t-37 -92l-130 5q13 102 83 160t184 58q116 0 176 -56t61 -159
q0 -131 -160 -251q-117 -89 -155 -125t-54 -74h380v-107h-522z" />
    <glyph glyph-name="threequarters" unicode="&#xbe;" 
d="M368 1146q0 110 -97 109q-43 1 -76 -31t-39 -89l-135 12q13 100 80 157t174 57t169 -55t61 -147q0 -126 -136 -177v-2q157 -34 157 -186q0 -101 -69 -162t-182 -61t-181 56t-83 156l136 13q18 -121 125 -121q51 0 84 30t33 95q0 120 -149 120h-41v109h37q132 1 132 117z
M347 0h-118l703 1349h115zM980 263v321l1 51q-34 -51 -266 -372h265zM1107 162v-161h-127v161h-375v99l361 502h141v-500h122v-101h-122z" />
    <glyph glyph-name="questiondown" unicode="&#xbf;" 
d="M778 1081v-201h-195v201h195zM153 79q0 136 63.5 210t164.5 147t156.5 131t57.5 157h175q-4 -130 -65 -202t-162 -146t-154.5 -133.5t-53.5 -162.5q0 -102 79.5 -160.5t215.5 -58.5t220 73t98 199l184 -12q-26 -197 -159.5 -303.5t-348.5 -106.5t-343 96.5t-128 271.5z
" />
    <glyph glyph-name="Agrave" unicode="&#xc0;" 
d="M616 1205l-81 -251l-151 -423h463zM1034 0l-138 382h-563l-137 -382h-196l510 1349h217l501 -1349h-194zM309 1703h197l227 -239v-20h-124l-300 230v29z" />
    <glyph glyph-name="Aacute" unicode="&#xc1;" 
d="M616 1205l-81 -251l-151 -423h463zM1034 0l-138 382h-563l-137 -382h-196l510 1349h217l501 -1349h-194zM495 1445v20l227 239h197v-29l-300 -230h-124z" />
    <glyph glyph-name="Acircumflex" unicode="&#xc2;" 
d="M616 1205l-81 -251l-151 -423h463zM1034 0l-138 382h-563l-137 -382h-196l510 1349h217l501 -1349h-194zM945 1445h-105l-219 138h-2l-232 -138h-104v20l254 239h164l244 -239v-20z" />
    <glyph glyph-name="Atilde" unicode="&#xc3;" 
d="M616 1205l-81 -251l-151 -423h463zM1034 0l-138 382h-563l-137 -382h-196l510 1349h217l501 -1349h-194zM463 1564q-36 0 -51 -10t-25 -27q-10 -18 -21 -82h-111q11 96 35 145q49 103 168 103q62 1 168 -59q40 -22 77 -42q37 -18 72 -18t55 24t30 95h112
q-16 -138 -66 -193t-123 -55q-74 -1 -179 59t-141 60z" />
    <glyph glyph-name="Adieresis" unicode="&#xc4;" 
d="M616 1205l-81 -251l-151 -423h463zM1034 0l-138 382h-563l-137 -382h-196l510 1349h217l501 -1349h-194zM335 1445v184h165v-184h-165zM729 1445v184h163v-184h-163z" />
    <glyph glyph-name="Aring" unicode="&#xc5;" 
d="M616 1205l-81 -251l-151 -423h463zM375 1433q1 89 67 144t176 55t176 -56t65 -155q0 -100 -101 -156l470 -1265h-194l-138 382h-563l-137 -382h-196l478 1264q-103 55 -103 169zM738 1432q0 38 -32 61t-88 23t-90 -23t-33 -61q-1 -38 33 -60q34 -23 90 -23t88 23
q32 22 32 60z" />
    <glyph glyph-name="AE" unicode="&#xc6;" 
d="M646 1202h-73q-41 -163 -211 -641h284v641zM646 412h-335l-142 -412h-168l486 1349h667v-152h-337v-430h327v-150h-327v-465h378v-152h-549v412z" />
    <glyph glyph-name="Ccedilla" unicode="&#xc7;" 
d="M559 -348q147 0 147 84t-133 84q-43 0 -57 -2l60 167q-204 25 -322 176q-142 181 -141 520q0 689 536 689q339 0 466 -335l-168 -65q-37 112 -115 178t-182 66q-172 0 -254 -129t-82 -404q0 -546 347 -546q211 0 322 282l159 -65q-144 -360 -462 -372l-31 -80
q94 -2 141 -44t47 -114q0 -186 -274 -186q-57 0 -90 4v98q50 -6 86 -6z" />
    <glyph glyph-name="Egrave" unicode="&#xc8;" 
d="M162 0v1349h919v-156h-728v-422h668v-154h-668v-461h769v-156h-960zM331 1704h197l227 -239v-20h-124l-300 230v29z" />
    <glyph glyph-name="Eacute" unicode="&#xc9;" 
d="M162 0v1349h919v-156h-728v-422h668v-154h-668v-461h769v-156h-960zM493 1445v20l227 239h197v-29l-300 -230h-124z" />
    <glyph glyph-name="Ecircumflex" unicode="&#xca;" 
d="M162 0v1349h919v-156h-728v-422h668v-154h-668v-461h769v-156h-960zM945 1445h-105l-219 138h-2l-232 -138h-104v20l254 239h164l244 -239v-20z" />
    <glyph glyph-name="Edieresis" unicode="&#xcb;" 
d="M162 0v1349h919v-156h-728v-422h668v-154h-668v-461h769v-156h-960zM355 1445v184h165v-184h-165zM749 1445v184h163v-184h-163z" />
    <glyph glyph-name="Igrave" unicode="&#xcc;" 
d="M202 1349h823v-156h-316v-1037h316v-156h-823v156h316v1037h-316v156zM321 1704h197l227 -239v-20h-124l-300 230v29z" />
    <glyph glyph-name="Iacute" unicode="&#xcd;" 
d="M202 1349h823v-156h-316v-1037h316v-156h-823v156h316v1037h-316v156zM505 1445v20l227 239h197v-29l-300 -230h-124z" />
    <glyph glyph-name="Icircumflex" unicode="&#xce;" 
d="M202 1349h823v-156h-316v-1037h316v-156h-823v156h316v1037h-316v156zM945 1445h-105l-219 138h-2l-232 -138h-104v20l254 239h164l244 -239v-20z" />
    <glyph glyph-name="Idieresis" unicode="&#xcf;" 
d="M202 1349h823v-156h-316v-1037h316v-156h-823v156h316v1037h-316v156zM335 1445v184h165v-184h-165zM729 1445v184h163v-184h-163z" />
    <glyph glyph-name="Eth" unicode="&#xd0;" 
d="M515 156q418 0 418 532q0 264 -110 384.5t-349 120.5h-121v-447h289v-149h-289v-441h162zM1125 688q0 -332 -153.5 -510t-439.5 -178h-370v597h-135v149h135v603h311q329 0 490.5 -164.5t161.5 -496.5z" />
    <glyph glyph-name="Ntilde" unicode="&#xd1;" 
d="M332 876v-876h-170v1349h222l528 -1138q-18 144 -18 274v864h172v-1349h-230l-520 1130q16 -172 16 -254zM463 1565q-36 1 -51 -9t-25 -28t-21 -82h-111q11 96 35 145q49 103 168 103q62 0 168 -60q40 -22 77 -40t72 -19t55 23t30 96h112q-16 -138 -66 -193t-123 -55
q-74 0 -179 60t-141 59z" />
    <glyph glyph-name="Ograve" unicode="&#xd2;" 
d="M614 1214q-311 0 -311 -540t316 -539q306 -1 306 539t-311 540zM1126 684q0 -340 -132 -522t-382 -182q-248 0 -379 179t-131 519t130 516t380 176t382 -174q132 -172 132 -512zM316 1704h197l227 -239v-20h-124l-300 230v29z" />
    <glyph glyph-name="Oacute" unicode="&#xd3;" 
d="M614 1214q-311 0 -311 -540t316 -539q306 -1 306 539t-311 540zM1126 684q0 -340 -132 -522t-382 -182q-248 0 -379 179t-131 519t130 516t380 176t382 -174q132 -172 132 -512zM500 1445v20l227 239h197v-29l-300 -230h-124z" />
    <glyph glyph-name="Ocircumflex" unicode="&#xd4;" 
d="M614 1214q-311 0 -311 -540t316 -539q306 -1 306 539t-311 540zM1126 684q0 -340 -132 -522t-382 -182q-248 0 -379 179t-131 519t130 516t380 176t382 -174q132 -172 132 -512zM945 1445h-105l-219 138h-2l-232 -138h-104v20l254 239h164l244 -239v-20z" />
    <glyph glyph-name="Otilde" unicode="&#xd5;" 
d="M614 1214q-311 0 -311 -540t316 -539q306 -1 306 539t-311 540zM1126 684q0 -340 -132 -522t-382 -182q-248 0 -379 179t-131 519t130 516t380 176t382 -174q132 -172 132 -512zM463 1564q-36 0 -51 -10t-25 -27q-10 -18 -21 -82h-111q11 96 35 145q49 103 168 103
q62 1 168 -59q40 -22 77 -42q37 -18 72 -18t55 24t30 95h112q-16 -138 -66 -193t-123 -55q-74 -1 -179 59t-141 60z" />
    <glyph glyph-name="Odieresis" unicode="&#xd6;" 
d="M614 1214q-311 0 -311 -540t316 -539q306 -1 306 539t-311 540zM1126 684q0 -340 -132 -522t-382 -182q-248 0 -379 179t-131 519t130 516t380 176t382 -174q132 -172 132 -512zM338 1445v184h165v-184h-165zM732 1445v184h163v-184h-163z" />
    <glyph glyph-name="multiply" unicode="&#xd7;" 
d="M157 330l354 354l-352 352l104 103l350 -353l350 351l105 -105l-350 -348l352 -352l-102 -105l-353 353l-356 -355z" />
    <glyph glyph-name="Oslash" unicode="&#xd8;" 
d="M303 681q0 -166 30 -282l512 684q-77 131 -230 131q-312 0 -312 -533zM925 681q0 164 -30 278l-512 -686q79 -138 237 -138q306 0 305 546zM1126 657q0 -313 -132.5 -495t-365.5 -182t-361 138l-117 -156l-94 65l141 189q-95 174 -95 488t130 490t383 176q217 0 345 -134
l116 156l94 -65l-140 -187q96 -170 96 -483z" />
    <glyph glyph-name="Ugrave" unicode="&#xd9;" 
d="M1085 490q0 -266 -114 -388t-362 -122q-247 0 -357 118t-110 374v877h191v-851q1 -204 59 -284t216 -79q158 0 222 82q65 82 65 294v838h190v-859zM305 1704h197l227 -239v-20h-124l-300 230v29z" />
    <glyph glyph-name="Uacute" unicode="&#xda;" 
d="M1085 490q0 -266 -114 -388t-362 -122q-247 0 -357 118t-110 374v877h191v-851q1 -204 59 -284t216 -79q158 0 222 82q65 82 65 294v838h190v-859zM488 1445v20l227 239h197v-29l-300 -230h-124z" />
    <glyph glyph-name="Ucircumflex" unicode="&#xdb;" 
d="M1085 490q0 -266 -114 -388t-362 -122q-247 0 -357 118t-110 374v877h191v-851q1 -204 59 -284t216 -79q158 0 222 82q65 82 65 294v838h190v-859zM945 1445h-105l-219 138h-2l-232 -138h-104v20l254 239h164l244 -239v-20z" />
    <glyph glyph-name="Udieresis" unicode="&#xdc;" 
d="M1085 490q0 -266 -114 -388t-362 -122q-247 0 -357 118t-110 374v877h191v-851q1 -204 59 -284t216 -79q158 0 222 82q65 82 65 294v838h190v-859zM335 1445v184h165v-184h-165zM729 1445v184h163v-184h-163z" />
    <glyph glyph-name="Yacute" unicode="&#xdd;" 
d="M708 0h-188v584l-484 765h205l374 -611l372 611h205l-484 -765v-584zM503 1445v20l227 239h197v-29l-300 -230h-124z" />
    <glyph glyph-name="Thorn" unicode="&#xde;" 
d="M927 686q0 136 -82 210.5t-246 74.5h-246v-576h254q153 0 236.5 77.5t83.5 213.5zM1119 692q0 -128 -58 -227.5t-167.5 -155t-259.5 -55.5h-281v-254h-191v1349h191v-235h269q239 0 368 -111t129 -311z" />
    <glyph glyph-name="germandbls" unicode="&#xdf;" 
d="M142 1027q0 457 467 457q190 0 302.5 -80.5t112.5 -217.5t-113 -238q-71 -63 -92 -93t-21 -68t33 -72.5t137 -104.5t151.5 -145t47.5 -170q0 -152 -94.5 -238t-264.5 -86t-282 49l-2 164q121 -69 281 -69q92 0 141 47.5t49 120.5t-41 125.5t-137 110.5t-141.5 120.5
t-45.5 134.5t28.5 122t84.5 96q109 91 109 175q0 83 -67 129.5t-195 46.5t-198 -80t-70 -242v-1021h-180v1027z" />
    <glyph glyph-name="agrave" unicode="&#xe0;" 
d="M497 117q91 0 165 46t115 123t41 159v89l-190 -4q-118 -2 -180 -26t-96 -74t-35 -131q1 -82 45 -132t135 -50zM1101 111q26 0 59 7v-112q-68 -16 -154 -16q-171 0 -182 217h-6q-66 -121 -154 -174t-232 -53t-224 86t-80 236q0 349 454 354l236 4v59q0 131 -53 189
t-170 57q-117 0 -169 -42t-62 -130l-188 17q46 292 423 292q201 0 301 -94t100 -270v-466q0 -80 21 -120t80 -41zM288 1460h197l227 -239v-20h-124l-300 230v29z" />
    <glyph glyph-name="aacute" unicode="&#xe1;" 
d="M497 117q91 0 165 46t115 123t41 159v89l-190 -4q-118 -2 -180 -26t-96 -74t-35 -131q1 -82 45 -132t135 -50zM1101 111q26 0 59 7v-112q-68 -16 -154 -16q-171 0 -182 217h-6q-66 -121 -154 -174t-232 -53t-224 86t-80 236q0 349 454 354l236 4v59q0 131 -53 189
t-170 57q-117 0 -169 -42t-62 -130l-188 17q46 292 423 292q201 0 301 -94t100 -270v-466q0 -80 21 -120t80 -41zM479 1201v20l227 239h197v-29l-300 -230h-124z" />
    <glyph glyph-name="acircumflex" unicode="&#xe2;" 
d="M497 117q91 0 165 46t115 123t41 159v89l-190 -4q-118 -2 -180 -26t-96 -74t-35 -131q1 -82 45 -132t135 -50zM1101 111q26 0 59 7v-112q-68 -16 -154 -16q-171 0 -182 217h-6q-66 -121 -154 -174t-232 -53t-224 86t-80 236q0 349 454 354l236 4v59q0 131 -53 189
t-170 57q-117 0 -169 -42t-62 -130l-188 17q46 292 423 292q201 0 301 -94t100 -270v-466q0 -80 21 -120t80 -41zM927 1201h-105l-219 138h-2l-232 -138h-104v20l254 239h164l244 -239v-20z" />
    <glyph glyph-name="atilde" unicode="&#xe3;" 
d="M497 117q91 0 165 46t115 123t41 159v89l-190 -4q-118 -2 -180 -26t-96 -74t-35 -131q1 -82 45 -132t135 -50zM1101 111q26 0 59 7v-112q-68 -16 -154 -16q-171 0 -182 217h-6q-66 -121 -154 -174t-232 -53t-224 86t-80 236q0 349 454 354l236 4v59q0 131 -53 189
t-170 57q-117 0 -169 -42t-62 -130l-188 17q46 292 423 292q201 0 301 -94t100 -270v-466q0 -80 21 -120t80 -41zM455 1320q-36 0 -51 -10t-25 -27q-10 -18 -21 -82h-111q11 96 35 145q49 103 168 103q62 1 168 -59q40 -22 77 -42q37 -18 72 -18t55 24t30 95h112
q-16 -138 -66 -193t-123 -55q-74 -1 -179 59t-141 60z" />
    <glyph glyph-name="adieresis" unicode="&#xe4;" 
d="M497 117q91 0 165 46t115 123t41 159v89l-190 -4q-118 -2 -180 -26t-96 -74t-35 -131q1 -82 45 -132t135 -50zM1101 111q26 0 59 7v-112q-68 -16 -154 -16q-171 0 -182 217h-6q-66 -121 -154 -174t-232 -53t-224 86t-80 236q0 349 454 354l236 4v59q0 131 -53 189
t-170 57q-117 0 -169 -42t-62 -130l-188 17q46 292 423 292q201 0 301 -94t100 -270v-466q0 -80 21 -120t80 -41zM319 1219v184h165v-184h-165zM713 1219v184h163v-184h-163z" />
    <glyph glyph-name="aring" unicode="&#xe5;" 
d="M497 117q91 0 165 46t115 123t41 159v89l-190 -4q-118 -2 -180 -26t-96 -74t-35 -131q1 -82 45 -132t135 -50zM1101 111q26 0 59 7v-112q-68 -16 -154 -16q-171 0 -182 217h-6q-66 -121 -154 -174t-232 -53t-224 86t-80 236q0 349 454 354l236 4v59q0 131 -53 189
t-170 57q-117 0 -169 -42t-62 -130l-188 17q46 292 423 292q201 0 301 -94t100 -270v-466q0 -80 21 -120t80 -41zM727 1348q-1 38 -33 60q-32 23 -88 23t-88 -23q-34 -22 -34 -60t34 -61t88 -23q56 0 88 23t33 61zM848 1348q0 -88 -66 -144t-176 -56q-112 0 -177 56t-65 145
q0 88 66 143t177 55q109 1 175 -55t66 -144z" />
    <glyph glyph-name="ae" unicode="&#xe6;" 
d="M861 969q-84 0 -130.5 -87t-49.5 -241h361q-9 171 -53 249.5t-128 78.5zM189 298q-1 -182 117 -181q60 0 108.5 44.5t75.5 120t27 163.5v89l-122 -4q-79 -2 -142.5 -40t-63.5 -192zM873 1102q335 0 335 -575v-24h-529v-17q5 -371 185 -371q75 0 119.5 47t60.5 119
l138 -45q-68 -256 -314 -256q-121 0 -189.5 55t-102.5 177q-99 -232 -298 -232q-258 0 -258 322q0 349 330 354l167 4v59q0 135 -32 190.5t-105 55.5t-106.5 -40.5t-40.5 -131.5l-168 17q19 151 96.5 221.5t218.5 70.5q176 0 247 -139q85 139 246 139z" />
    <glyph glyph-name="ccedilla" unicode="&#xe7;" 
d="M542 -348q147 0 147 84t-133 84q-43 0 -57 -2l59 165q-192 19 -300 141q-128 144 -128 416t129 417t373 145q182 0 300 -88t146 -235l-192 -14q-16 91 -80 143t-182 53q-158 0 -232 -98q-74 -99 -73 -319q-1 -220 73 -322t231 -103q108 0 179 53t88 162l190 -12
q-12 -96 -72 -174t-151 -120q-91 -41 -193 -47l-32 -81q94 -2 141 -44t47 -114q0 -186 -274 -186q-57 0 -90 4v98q50 -6 86 -6z" />
    <glyph glyph-name="egrave" unicode="&#xe8;" 
d="M619 969q-134 1 -212 -87t-83 -241h584q-28 328 -289 328zM617 1102q477 0 477 -575v-24h-772q0 -182 80 -285t221 -103q103 1 181 45t103 121l158 -45q-43 -124 -161 -190t-281 -66q-236 0 -363 147t-127 417q1 270 125 414t359 144zM323 1460h197l227 -239v-20h-124
l-300 230v29z" />
    <glyph glyph-name="eacute" unicode="&#xe9;" 
d="M619 969q-134 1 -212 -87t-83 -241h584q-28 328 -289 328zM617 1102q477 0 477 -575v-24h-772q0 -182 80 -285t221 -103q103 1 181 45t103 121l158 -45q-43 -124 -161 -190t-281 -66q-236 0 -363 147t-127 417q1 270 125 414t359 144zM513 1201v20l227 239h197v-29
l-300 -230h-124z" />
    <glyph glyph-name="ecircumflex" unicode="&#xea;" 
d="M619 969q-134 1 -212 -87t-83 -241h584q-28 328 -289 328zM617 1102q477 0 477 -575v-24h-772q0 -182 80 -285t221 -103q103 1 181 45t103 121l158 -45q-43 -124 -161 -190t-281 -66q-236 0 -363 147t-127 417q1 270 125 414t359 144zM952 1201h-105l-219 138h-2
l-232 -138h-104v20l254 239h164l244 -239v-20z" />
    <glyph glyph-name="edieresis" unicode="&#xeb;" 
d="M619 969q-134 1 -212 -87t-83 -241h584q-28 328 -289 328zM617 1102q477 0 477 -575v-24h-772q0 -182 80 -285t221 -103q103 1 181 45t103 121l158 -45q-43 -124 -161 -190t-281 -66q-236 0 -363 147t-127 417q1 270 125 414t359 144zM343 1219v184h165v-184h-165z
M737 1219v184h163v-184h-163z" />
    <glyph glyph-name="igrave" unicode="&#xec;" 
d="M745 142h380v-142h-982v142h422v798h-319v142h499v-940zM335 1460h197l227 -239v-20h-124l-300 230v29z" />
    <glyph glyph-name="iacute" unicode="&#xed;" 
d="M745 142h380v-142h-982v142h422v798h-319v142h499v-940zM506 1201v20l227 239h197v-29l-300 -230h-124z" />
    <glyph glyph-name="icircumflex" unicode="&#xee;" 
d="M745 142h380v-142h-982v142h422v798h-319v142h499v-940zM955 1201h-105l-219 138h-2l-232 -138h-104v20l254 239h164l244 -239v-20z" />
    <glyph glyph-name="idieresis" unicode="&#xef;" 
d="M745 142h380v-142h-982v142h422v798h-319v142h499v-940zM376 1219v184h165v-184h-165zM770 1219v184h163v-184h-163z" />
    <glyph glyph-name="eth" unicode="&#xf0;" 
d="M913 480q0 192 -70.5 279t-226.5 87t-229 -87t-73 -277t72 -279.5t225 -89.5t227.5 87.5t74.5 279.5zM612 979q137 0 231 -59q-85 195 -220 317l-260 -115l-55 110l218 94q-109 87 -242 158h209q80 -36 170 -102l264 114l55 -108l-211 -92q331 -301 331 -780v-6
q0 -261 -125.5 -395.5t-364.5 -134.5t-363 129t-124 373t124 370.5t363 126.5z" />
    <glyph glyph-name="ntilde" unicode="&#xf1;" 
d="M706 1102q173 0 258 -94t85 -287v-721h-181v695q0 136 -52 202t-172 66q-120 -1 -200 -91t-79 -245v-627h-180v851q0 189 -6 231h170q4 -19 8 -185h3q105 205 346 205zM473 1320q-36 0 -51 -10t-25 -27q-10 -18 -21 -82h-111q11 96 35 145q49 103 168 103q62 1 168 -59
q40 -22 77 -42q37 -18 72 -18t55 24t30 95h112q-16 -138 -66 -193t-123 -55q-74 -1 -179 59t-141 60z" />
    <glyph glyph-name="ograve" unicode="&#xf2;" 
d="M319 542q0 -429 288 -429q159 0 230 107t71 322t-68 321t-223 106q-154 0 -226 -108t-72 -319zM615 1102q482 0 482 -556q1 -278 -125 -422t-360 -144t-358 146t-124 420t126 416q126 140 359 140zM332 1460h197l227 -239v-20h-124l-300 230v29z" />
    <glyph glyph-name="oacute" unicode="&#xf3;" 
d="M319 542q0 -429 288 -429q159 0 230 107t71 322t-68 321t-223 106q-154 0 -226 -108t-72 -319zM615 1102q482 0 482 -556q1 -278 -125 -422t-360 -144t-358 146t-124 420t126 416q126 140 359 140zM503 1201v20l227 239h197v-29l-300 -230h-124z" />
    <glyph glyph-name="ocircumflex" unicode="&#xf4;" 
d="M319 542q0 -429 288 -429q159 0 230 107t71 322t-68 321t-223 106q-154 0 -226 -108t-72 -319zM615 1102q482 0 482 -556q1 -278 -125 -422t-360 -144t-358 146t-124 420t126 416q126 140 359 140zM945 1201h-105l-219 138h-2l-232 -138h-104v20l254 239h164l244 -239
v-20z" />
    <glyph glyph-name="otilde" unicode="&#xf5;" 
d="M319 542q0 -429 288 -429q159 0 230 107t71 322t-68 321t-223 106q-154 0 -226 -108t-72 -319zM615 1102q482 0 482 -556q1 -278 -125 -422t-360 -144t-358 146t-124 420t126 416q126 140 359 140zM463 1320q-36 0 -51 -10t-25 -27q-10 -18 -21 -82h-111q11 96 35 145
q49 103 168 103q62 1 168 -59q40 -22 77 -42q37 -18 72 -18t55 24t30 95h112q-16 -138 -66 -193t-123 -55q-74 -1 -179 59t-141 60z" />
    <glyph glyph-name="odieresis" unicode="&#xf6;" 
d="M319 542q0 -429 288 -429q159 0 230 107t71 322t-68 321t-223 106q-154 0 -226 -108t-72 -319zM615 1102q482 0 482 -556q1 -278 -125 -422t-360 -144t-358 146t-124 420t126 416q126 140 359 140zM335 1219v184h165v-184h-165zM729 1219v184h163v-184h-163z" />
    <glyph glyph-name="divide" unicode="&#xf7;" 
d="M529 223v183h168v-183h-168zM116 608v146h995v-146h-995zM529 958v183h168v-183h-168z" />
    <glyph glyph-name="oslash" unicode="&#xf8;" 
d="M299 542q0 -146 34 -238l509 576q-76 89 -232 89q-312 0 -311 -427zM928 542q0 147 -33 242l-509 -576q77 -95 233 -95q309 0 309 429zM1117 530q0 -260 -130 -405t-378 -145q-204 0 -331 107l-77 -87l-76 68l84 95q-99 143 -99 397t129 398t359 144t352 -100l72 82
l78 -68l-80 -90q97 -136 97 -396z" />
    <glyph glyph-name="ugrave" unicode="&#xf9;" 
d="M528 -20q-178 0 -260 88t-83 293v721h180v-686q0 -156 49 -216q48 -60 176 -61q128 0 203 88t75 248v627h181v-851q0 -189 6 -231h-170q-4 19 -8 185h-3q-62 -113 -144 -159t-202 -46zM308 1460h197l227 -239v-20h-124l-300 230v29z" />
    <glyph glyph-name="uacute" unicode="&#xfa;" 
d="M528 -20q-178 0 -260 88t-83 293v721h180v-686q0 -156 49 -216q48 -60 176 -61q128 0 203 88t75 248v627h181v-851q0 -189 6 -231h-170q-4 19 -8 185h-3q-62 -113 -144 -159t-202 -46zM492 1201v20l227 239h197v-29l-300 -230h-124z" />
    <glyph glyph-name="ucircumflex" unicode="&#xfb;" 
d="M528 -20q-178 0 -260 88t-83 293v721h180v-686q0 -156 49 -216q48 -60 176 -61q128 0 203 88t75 248v627h181v-851q0 -189 6 -231h-170q-4 19 -8 185h-3q-62 -113 -144 -159t-202 -46zM945 1201h-105l-219 138h-2l-232 -138h-104v20l254 239h164l244 -239v-20z" />
    <glyph glyph-name="udieresis" unicode="&#xfc;" 
d="M528 -20q-178 0 -260 88t-83 293v721h180v-686q0 -156 49 -216q48 -60 176 -61q128 0 203 88t75 248v627h181v-851q0 -189 6 -231h-170q-4 19 -8 185h-3q-62 -113 -144 -159t-202 -46zM335 1219v184h165v-184h-165zM729 1219v184h163v-184h-163z" />
    <glyph glyph-name="yacute" unicode="&#xfd;" 
d="M292 -425q-74 0 -124 11v135q38 -6 84 -6q78 0 148 59t118 188l18 49l-470 1071h192l264 -642q91 -224 98 -254l41 110l310 786h190l-456 -1082q-89 -235 -185 -330t-228 -95zM509 1201v20l227 239h197v-29l-300 -230h-124z" />
    <glyph glyph-name="thorn" unicode="&#xfe;" 
d="M698 1104q198 0 295 -136.5t97 -421.5q0 -566 -392 -566q-246 0 -331 184h-5q4 -8 4 -166v-423h-181v1909h180v-423q0 -65 -4 -157h7q50 105 127.5 152.5t202.5 47.5zM904 544q0 228 -61 324.5t-202 96.5t-208 -109.5t-67 -327.5t67 -316.5t208 -98.5t202 101.5t61 329.5
z" />
    <glyph glyph-name="ydieresis" unicode="&#xff;" 
d="M292 -425q-74 0 -124 11v135q38 -6 84 -6q78 0 148 59t118 188l18 49l-470 1071h192l264 -642q91 -224 98 -254l41 110l310 786h190l-456 -1082q-89 -235 -185 -330t-228 -95zM340 1219v184h165v-184h-165zM734 1219v184h163v-184h-163z" />
    <glyph glyph-name="Amacron" unicode="&#x100;" 
d="M616 1205l-81 -251l-151 -423h463zM1034 0l-138 382h-563l-137 -382h-196l510 1349h217l501 -1349h-194zM890 1503h-551v127h551v-127z" />
    <glyph glyph-name="amacron" unicode="&#x101;" 
d="M497 117q91 0 165 46t115 123t41 159v89l-190 -4q-118 -2 -180 -26t-96 -74t-35 -131q1 -82 45 -132t135 -50zM1101 111q26 0 59 7v-112q-68 -16 -154 -16q-171 0 -182 217h-6q-66 -121 -154 -174t-232 -53t-224 86t-80 236q0 349 454 354l236 4v59q0 131 -53 189
t-170 57q-117 0 -169 -42t-62 -130l-188 17q46 292 423 292q201 0 301 -94t100 -270v-466q0 -80 21 -120t80 -41zM851 1236h-551v127h551v-127z" />
    <glyph glyph-name="Abreve" unicode="&#x102;" 
d="M616 1205l-81 -251l-151 -423h463zM1034 0l-138 382h-563l-137 -382h-196l510 1349h217l501 -1349h-194zM613 1572q85 0 127 35t60 98h127q-25 -119 -107 -189t-206 -70t-208 71t-105 188h127q36 -133 185 -133z" />
    <glyph glyph-name="abreve" unicode="&#x103;" 
d="M497 117q91 0 165 46t115 123t41 159v89l-190 -4q-118 -2 -180 -26t-96 -74t-35 -131q1 -82 45 -132t135 -50zM1101 111q26 0 59 7v-112q-68 -16 -154 -16q-171 0 -182 217h-6q-66 -121 -154 -174t-232 -53t-224 86t-80 236q0 349 454 354l236 4v59q0 131 -53 189
t-170 57q-117 0 -169 -42t-62 -130l-188 17q46 292 423 292q201 0 301 -94t100 -270v-466q0 -80 21 -120t80 -41zM594 1327q86 0 128 35t59 98h127q-24 -119 -106 -189t-208 -70q-124 0 -208 71t-104 188h127q36 -133 185 -133z" />
    <glyph glyph-name="Aogonek" unicode="&#x104;" 
d="M616 1205l-81 -251l-151 -423h463zM1094 -416q-90 0 -144 51q-53 51 -53 127t39 138q39 61 98 100l-138 382h-563l-137 -382h-196l510 1349h217l501 -1349h-61q-52 -34 -91 -92q-38 -58 -38 -112q0 -102 94 -102q54 0 115 24v-107q-63 -27 -153 -27z" />
    <glyph glyph-name="aogonek" unicode="&#x105;" 
d="M497 117q91 0 165 46t115 123t41 159v89l-190 -4q-118 -2 -180 -26t-96 -74t-35 -131q1 -82 45 -132t135 -50zM1101 111q26 0 59 7v-112q-36 -8 -73 -12q-57 -35 -96 -95q-40 -60 -40 -114q0 -102 94 -102q54 0 115 24v-107q-64 -27 -154 -27t-143 51q-53 52 -53 128
t41 140t108 104q-53 12 -91 56q-38 43 -44 155h-6q-66 -121 -154 -174t-232 -53t-224 86t-80 236q0 349 454 354l236 4v59q0 131 -53 189t-170 57q-117 0 -169 -42t-62 -130l-188 17q46 292 423 292q201 0 301 -94t100 -270v-466q0 -80 21 -120t80 -41z" />
    <glyph glyph-name="Cacute" unicode="&#x106;" 
d="M661 135q211 0 322 282l159 -65q-149 -372 -483 -372q-263 0 -405 181t-141 520q0 689 536 689q339 0 466 -335l-168 -65q-37 112 -115 178t-182 66q-172 0 -254 -129t-82 -404q0 -546 347 -546zM534 1445v20l227 239h197v-29l-300 -230h-124z" />
    <glyph glyph-name="cacute" unicode="&#x107;" 
d="M130 540q0 272 129 417t373 145q182 0 300 -88t146 -235l-192 -14q-16 91 -80 143t-182 53q-158 0 -232 -98q-74 -99 -73 -319q-1 -220 73 -322t231 -103q108 0 179 53t88 162l190 -12q-12 -96 -72 -174t-158 -124q-98 -44 -219 -44q-245 0 -373 144t-128 416zM504 1201
v20l227 239h197v-29l-300 -230h-124z" />
    <glyph glyph-name="Ccircumflex" unicode="&#x108;" 
d="M661 135q211 0 322 282l159 -65q-149 -372 -483 -372q-263 0 -405 181t-141 520q0 689 536 689q339 0 466 -335l-168 -65q-37 112 -115 178t-182 66q-172 0 -254 -129t-82 -404q0 -546 347 -546zM965 1446h-105l-219 138h-2l-232 -138h-104v20l254 239h164l244 -239v-20z
" />
    <glyph glyph-name="ccircumflex" unicode="&#x109;" 
d="M130 540q0 272 129 417t373 145q182 0 300 -88t146 -235l-192 -14q-16 91 -80 143t-182 53q-158 0 -232 -98q-74 -99 -73 -319q-1 -220 73 -322t231 -103q108 0 179 53t88 162l190 -12q-12 -96 -72 -174t-158 -124q-98 -44 -219 -44q-245 0 -373 144t-128 416zM945 1201
h-105l-219 138h-2l-232 -138h-104v20l254 239h164l244 -239v-20z" />
    <glyph glyph-name="Cdotaccent" unicode="&#x10a;" 
d="M661 135q211 0 322 282l159 -65q-149 -372 -483 -372q-263 0 -405 181t-141 520q0 689 536 689q339 0 466 -335l-168 -65q-37 112 -115 178t-182 66q-172 0 -254 -129t-82 -404q0 -546 347 -546zM545 1446v192h200v-192h-200z" />
    <glyph glyph-name="cdotaccent" unicode="&#x10b;" 
d="M130 540q0 272 129 417t373 145q182 0 300 -88t146 -235l-192 -14q-16 91 -80 143t-182 53q-158 0 -232 -98q-74 -99 -73 -319q-1 -220 73 -322t231 -103q108 0 179 53t88 162l190 -12q-12 -96 -72 -174t-158 -124q-98 -44 -219 -44q-245 0 -373 144t-128 416zM535 1292
v192h200v-192h-200z" />
    <glyph glyph-name="Ccaron" unicode="&#x10c;" 
d="M661 135q211 0 322 282l159 -65q-149 -372 -483 -372q-263 0 -405 181t-141 520q0 689 536 689q339 0 466 -335l-168 -65q-37 112 -115 178t-182 66q-172 0 -254 -129t-82 -404q0 -546 347 -546zM300 1705h104l232 -138h2l219 138h105v-20l-244 -239h-164l-254 239v20z
" />
    <glyph glyph-name="ccaron" unicode="&#x10d;" 
d="M130 540q0 272 129 417t373 145q182 0 300 -88t146 -235l-192 -14q-16 91 -80 143t-182 53q-158 0 -232 -98q-74 -99 -73 -319q-1 -220 73 -322t231 -103q108 0 179 53t88 162l190 -12q-12 -96 -72 -174t-158 -124q-98 -44 -219 -44q-245 0 -373 144t-128 416zM279 1460
h104l232 -138h2l219 138h105v-20l-244 -239h-164l-254 239v20z" />
    <glyph glyph-name="Dcaron" unicode="&#x10e;" 
d="M515 156q418 0 418 532q0 264 -110 384t-349 121h-121v-1037h162zM1125 688q1 -332 -153 -510t-440 -178h-370v1349h311q329 -1 491 -165t161 -496zM254 1705h104l232 -138h2l219 138h105v-20l-244 -239h-164l-254 239v20z" />
    <glyph glyph-name="dcaron" unicode="&#x10f;" 
d="M955 1159v33l79 292h197v-37l-171 -288h-105zM217 539q0 -218 46.5 -322t154.5 -104t176.5 120t68.5 315t-66.5 306t-174.5 111t-156.5 -104t-48.5 -322zM667 174h-4q-49 -105 -115.5 -152.5t-163.5 -47.5q-170 0 -261.5 145.5t-91.5 413.5t94 416.5t259 148.5
q98 0 164 -43t115 -141h2l-2 151v419h180v-1261q0 -169 6 -223h-172q-10 38 -10 174z" />
    <glyph glyph-name="Dcroat" unicode="&#x110;" 
d="M515 156q418 0 418 532q0 264 -110 384t-349 121h-121v-447h289v-149h-289v-441h162zM1125 688q1 -332 -153 -510t-440 -178h-370v597h-135v149h135v603h311q329 -1 491 -165t161 -496z" />
    <glyph glyph-name="dcroat" unicode="&#x111;" 
d="M583 113q280 0 280 419q0 213 -66.5 310t-208.5 97t-203 -101.5t-61 -315.5t59 -311.5t200 -97.5zM867 174h-5q-49 -105 -130 -152.5t-202 -47.5q-202 0 -297 135.5t-95 407.5q0 555 392 555q121 0 202.5 -43t130.5 -141h2l-2 151v157h-300v131h300v157h180v-157h131
v-131h-131v-973q0 -169 6 -223h-172q-10 38 -10 174z" />
    <glyph glyph-name="Emacron" unicode="&#x112;" 
d="M162 0v1349h919v-156h-728v-422h668v-154h-668v-461h769v-156h-960zM906 1503h-551v127h551v-127z" />
    <glyph glyph-name="emacron" unicode="&#x113;" 
d="M619 969q-134 1 -212 -87t-83 -241h584q-28 328 -289 328zM617 1102q477 0 477 -575v-24h-772q0 -182 80 -285t221 -103q103 1 181 45t103 121l158 -45q-43 -124 -161 -190t-281 -66q-236 0 -363 147t-127 417q1 270 125 414t359 144zM890 1236h-551v127h551v-127z" />
    <glyph glyph-name="Ebreve" unicode="&#x114;" 
d="M162 0v1349h919v-156h-728v-422h668v-154h-668v-461h769v-156h-960zM613 1572q85 0 127 35t60 98h127q-25 -119 -107 -189t-206 -70t-208 71t-105 188h127q36 -133 185 -133z" />
    <glyph glyph-name="ebreve" unicode="&#x115;" 
d="M619 969q-134 1 -212 -87t-83 -241h584q-28 328 -289 328zM617 1102q477 0 477 -575v-24h-772q0 -182 80 -285t221 -103q103 1 181 45t103 121l158 -45q-43 -124 -161 -190t-281 -66q-236 0 -363 147t-127 417q1 270 125 414t359 144zM617 1327q85 0 127 35t60 98h127
q-25 -119 -107 -189t-206 -70t-208 71t-105 188h127q36 -133 185 -133z" />
    <glyph glyph-name="Edotaccent" unicode="&#x116;" 
d="M162 0v1349h919v-156h-728v-422h668v-154h-668v-461h769v-156h-960zM515 1446v192h200v-192h-200z" />
    <glyph glyph-name="edotaccent" unicode="&#x117;" 
d="M619 969q-134 1 -212 -87t-83 -241h584q-28 328 -289 328zM617 1102q477 0 477 -575v-24h-772q0 -182 80 -285t221 -103q103 1 181 45t103 121l158 -45q-43 -124 -161 -190t-281 -66q-236 0 -363 147t-127 417q1 270 125 414t359 144zM517 1298v192h200v-192h-200z" />
    <glyph glyph-name="Eogonek" unicode="&#x118;" 
d="M162 0v1349h919v-156h-728v-422h668v-154h-668v-461h769v-156h-62q-64 -36 -106 -98t-41 -117q0 -102 94 -102q54 0 115 24v-107q-64 -27 -154 -27t-143 51q-53 52 -53 128t42 142t113 106h-765z" />
    <glyph glyph-name="eogonek" unicode="&#x119;" 
d="M619 969q-134 1 -212 -87t-83 -241h584q-28 328 -289 328zM617 1102q477 0 477 -575v-24h-772q0 -182 80 -285t221 -103q103 1 181 45t103 121l158 -45q-64 -180 -276 -236h2q-63 -36 -105 -98t-42 -117q0 -102 94 -102q54 0 115 24v-107q-63 -27 -153 -27t-144 51
q-53 52 -53 128t37 134t87 94h-4q-236 0 -363 147t-127 417q1 270 125 414t359 144z" />
    <glyph glyph-name="Ecaron" unicode="&#x11a;" 
d="M162 0v1349h919v-156h-728v-422h668v-154h-668v-461h769v-156h-960zM283 1705h104l232 -138h2l219 138h105v-20l-244 -239h-164l-254 239v20z" />
    <glyph glyph-name="ecaron" unicode="&#x11b;" 
d="M619 969q-134 1 -212 -87t-83 -241h584q-28 328 -289 328zM617 1102q477 0 477 -575v-24h-772q0 -182 80 -285t221 -103q103 1 181 45t103 121l158 -45q-43 -124 -161 -190t-281 -66q-236 0 -363 147t-127 417q1 270 125 414t359 144zM276 1460h104l232 -138h2l219 138
h105v-20l-244 -239h-164l-254 239v20z" />
    <glyph glyph-name="Gcircumflex" unicode="&#x11c;" 
d="M113 681q0 689 529 689q346 0 461 -331l-171 -56q-80 231 -288 231q-170 0 -250 -126t-80 -407q0 -546 341 -546q68 0 141 21t119 53v336h-293v160h479v-572q-229 -153 -471 -153t-379 186q-138 186 -138 515zM945 1446h-105l-219 138h-2l-232 -138h-104v20l254 239h164
l244 -239v-20z" />
    <glyph glyph-name="gcircumflex" unicode="&#x11d;" 
d="M869 551q0 193 -75 303t-209 111t-195 -95t-61 -283q-1 -187 25 -275t80 -127q54 -40 145 -40q91 -1 155 47q134 100 135 359zM143 552q0 280 98 414t302 133q113 -1 197 -53t128 -149h3q0 29 4 101t8 84h171q-6 -54 -6 -224v-826q0 -228 -106 -342t-327 -114
q-168 0 -270 69t-130 198l184 25q35 -156 222 -156q248 0 248 315v194h-2q-99 -209 -343 -209q-198 0 -290 130t-91 410zM936 1201h-105l-219 138h-2l-232 -138h-104v20l254 239h164l244 -239v-20z" />
    <glyph glyph-name="Gbreve" unicode="&#x11e;" 
d="M113 681q0 689 529 689q346 0 461 -331l-171 -56q-80 231 -288 231q-170 0 -250 -126t-80 -407q0 -546 341 -546q68 0 141 21t119 53v336h-293v160h479v-572q-229 -153 -471 -153t-379 186q-138 186 -138 515zM616 1446q-124 0 -208 71t-104 188h127q36 -133 185 -133
q86 0 128 35t59 98h127q-24 -119 -106 -189q-84 -70 -208 -70z" />
    <glyph glyph-name="gbreve" unicode="&#x11f;" 
d="M869 551q0 193 -75 303t-209 111t-195 -95t-61 -283q-1 -187 25 -275t80 -127q54 -40 145 -40q91 -1 155 47q134 100 135 359zM143 552q0 280 98 414t302 133q113 -1 197 -53t128 -149h3q0 29 4 101t8 84h171q-6 -54 -6 -224v-826q0 -228 -106 -342t-327 -114
q-168 0 -270 69t-130 198l184 25q35 -156 222 -156q248 0 248 315v194h-2q-99 -209 -343 -209q-198 0 -290 130t-91 410zM604 1327q86 0 128 35t59 98h127q-24 -119 -106 -189t-208 -70q-124 0 -208 71t-104 188h127q36 -133 185 -133z" />
    <glyph glyph-name="Gdotaccent" unicode="&#x120;" 
d="M113 681q0 689 529 689q346 0 461 -331l-171 -56q-80 231 -288 231q-170 0 -250 -126t-80 -407q0 -546 341 -546q68 0 141 21t119 53v336h-293v160h479v-572q-229 -153 -471 -153t-379 186q-138 186 -138 515zM525 1446v192h200v-192h-200z" />
    <glyph glyph-name="gdotaccent" unicode="&#x121;" 
d="M869 551q0 193 -75 303t-209 111t-195 -95t-61 -283q-1 -187 25 -275t80 -127q54 -40 145 -40q91 -1 155 47q134 100 135 359zM143 552q0 280 98 414t302 133q113 -1 197 -53t128 -149h3q0 29 4 101t8 84h171q-6 -54 -6 -224v-826q0 -228 -106 -342t-327 -114
q-168 0 -270 69t-130 198l184 25q35 -156 222 -156q248 0 248 315v194h-2q-99 -209 -343 -209q-198 0 -290 130t-91 410zM506 1292v192h200v-192h-200z" />
    <glyph glyph-name="Gcommaaccent" unicode="&#x122;" 
d="M113 681q0 689 529 689q346 0 461 -331l-171 -56q-80 231 -288 231q-170 0 -250 -126t-80 -407q0 -546 341 -546q68 0 141 21t119 53v336h-293v160h479v-572q-229 -153 -471 -153t-379 186q-138 186 -138 515zM475 -423v33l79 292h197v-37l-171 -288h-105z" />
    <glyph glyph-name="gcommaaccent" unicode="&#x123;" 
d="M869 551q0 193 -75 303t-209 111t-195 -95t-61 -283q-1 -187 25 -275t80 -127q54 -40 145 -40q91 -1 155 47q134 100 135 359zM143 552q0 280 98 414t302 133q113 -1 197 -53t128 -149h3q0 29 4 101t8 84h171q-6 -54 -6 -224v-826q0 -228 -106 -342t-327 -114
q-168 0 -270 69t-130 198l184 25q35 -156 222 -156q248 0 248 315v194h-2q-99 -209 -343 -209q-198 0 -290 130t-91 410zM750 1536v-33l-79 -292h-197v37l171 288h105z" />
    <glyph glyph-name="Hcircumflex" unicode="&#x124;" 
d="M875 0v623h-522v-623h-191v1349h191v-566h522v566h191v-1349h-191zM945 1446h-105l-219 138h-2l-232 -138h-104v20l254 239h164l244 -239v-20z" />
    <glyph glyph-name="hcircumflex" unicode="&#x125;" 
d="M945 1445h-105l-219 139h-2l-232 -139h-104v20l254 240h164l244 -240v-20zM185 1349h181v-315q0 -59 -9 -197h3q105 205 339 205q350 0 350 -381v-661h-181v635q0 136 -52 202t-172 66t-199.5 -90.5t-79.5 -245.5v-567h-180v1349z" />
    <glyph glyph-name="Hbar" unicode="&#x126;" 
d="M875 783v222h-522v-222h522zM162 1153v196h191v-196h522v196h191v-196h160v-148h-160v-1005h-191v623h-522v-623h-191v1005h-160v148h160z" />
    <glyph glyph-name="hbar" unicode="&#x127;" 
d="M185 1484h181v-157h299v-131h-299v-132q0 -59 -9 -197h3q105 205 339 205q350 0 350 -381v-691h-181v665q0 136 -52 202t-172 66t-199.5 -90.5t-79.5 -245.5v-597h-180v1196h-132v131h132v157z" />
    <glyph glyph-name="Itilde" unicode="&#x128;" 
d="M202 1349h823v-156h-316v-1037h316v-156h-823v156h316v1037h-316v156zM464 1565q-36 1 -51 -9t-25 -28t-21 -82h-111q10 96 34 145q49 103 169 103q62 0 168 -60q40 -22 77 -40t72 -19t55 23t30 96h112q-15 -138 -65 -193t-124 -55t-179 60t-141 59z" />
    <glyph glyph-name="itilde" unicode="&#x129;" 
d="M745 142h380v-142h-982v142h422v798h-319v142h499v-940zM463 1320q-36 0 -51 -10t-25 -27q-10 -18 -21 -82h-111q11 96 35 145q49 103 168 103q62 1 168 -59q40 -22 77 -42q37 -18 72 -18t55 24t30 95h112q-16 -138 -66 -193t-123 -55q-74 -1 -179 59t-141 60z" />
    <glyph glyph-name="Imacron" unicode="&#x12a;" 
d="M202 1349h823v-156h-316v-1037h316v-156h-823v156h316v1037h-316v156zM890 1503h-551v127h551v-127z" />
    <glyph glyph-name="imacron" unicode="&#x12b;" 
d="M745 142h380v-142h-982v142h422v798h-319v142h499v-940zM896 1236h-551v127h551v-127z" />
    <glyph glyph-name="Ibreve" unicode="&#x12c;" 
d="M202 1349h823v-156h-316v-1037h316v-156h-823v156h316v1037h-316v156zM613 1571q85 0 127 35t60 98h127q-25 -119 -107 -189t-206 -70t-208 71t-105 188h127q36 -133 185 -133z" />
    <glyph glyph-name="ibreve" unicode="&#x12d;" 
d="M745 142h380v-142h-982v142h422v798h-319v142h499v-940zM634 1201q-124 0 -208 71t-105 188h127q36 -133 185 -133q85 0 127 35t60 98h127q-25 -119 -107 -189t-206 -70z" />
    <glyph glyph-name="Iogonek" unicode="&#x12e;" 
d="M202 1349h823v-156h-316v-1037h316v-156h-283q-64 -36 -106 -98t-41 -117q0 -102 94 -102q54 0 115 24v-107q-64 -27 -154 -27t-143 51q-53 52 -53 128t42 142t113 106h-407v156h316v1037h-316v156z" />
    <glyph glyph-name="iogonek" unicode="&#x12f;" 
d="M545 1292v192h200v-192h-200zM745 142h380v-142h-340q-63 -36 -105 -98t-42 -117q0 -102 94 -102q54 0 115 24v-107q-63 -27 -153 -27t-144 51q-53 52 -53 128q-1 76 41 142t114 106h-509v142h422v798h-319v142h499v-940z" />
    <glyph glyph-name="Idotaccent" unicode="&#x130;" 
d="M202 1349h823v-156h-316v-1037h316v-156h-823v156h316v1037h-316v156zM515 1446v192h200v-192h-200z" />
    <glyph glyph-name="dotlessi" unicode="&#x131;" 
d="M745 142h380v-142h-982v142h422v798h-319v142h499v-940z" />
    <glyph glyph-name="IJ" unicode="&#x132;" 
d="M967 416v777h-271v156h461v-929q0 -211 -101 -325.5t-279 -114.5t-270.5 86.5t-129.5 283.5l186 31q38 -246 205 -246q104 0 151.5 71.5t47.5 209.5zM98 1349h191v-1349h-191v1349z" />
    <glyph glyph-name="ij" unicode="&#x133;" 
d="M861 1292v192h200v-192h-200zM646 -425q-191 0 -304 43v140q150 -34 276 -34t194.5 66t68.5 185v1107h180v-1110q0 -187 -112 -292t-303 -105zM216 1292v192h200v-192h-200zM416 1082v-1082h-180l1 1082h179z" />
    <glyph glyph-name="Jcircumflex" unicode="&#x134;" 
d="M986 420q0 -208 -105 -324t-285 -116t-283 89q-102 89 -137 281l187 31q19 -118 77 -182t147 -64q209 0 209 281v777h-311v156h501v-929zM1065 1446h-105l-219 138h-2l-232 -138h-104v20l254 239h164l244 -239v-20z" />
    <glyph glyph-name="jcircumflex" unicode="&#x135;" 
d="M421 -425q-191 0 -304 43v140q149 -34 275 -34t195 66t69 185v965h-407v142h587v-1110q0 -187 -112 -292t-303 -105zM1048 1201h-105l-219 138h-2l-232 -138h-104v20l254 239h164l244 -239v-20z" />
    <glyph glyph-name="Kcommaaccent" unicode="&#x136;" 
d="M353 0h-191v1349h191v-673l572 673h225l-504 -572l581 -777h-224l-487 638l-163 -169v-469zM475 -423v33l79 292h197v-37l-171 -288h-105z" />
    <glyph glyph-name="kcommaaccent" unicode="&#x137;" 
d="M416 0h-180v1484h180v-927l475 525h211l-439 -465l462 -617h-211l-366 499l-132 -98v-401zM475 -423v33l79 292h197v-37l-171 -288h-105z" />
    <glyph glyph-name="kgreenlandic" unicode="&#x138;" 
d="M416 0h-180v1082h180v-538l475 538h211l-439 -465l462 -617h-211l-366 494l-132 -98v-396z" />
    <glyph glyph-name="Lacute" unicode="&#x139;" 
d="M237 0v1349h191v-1193h672v-156h-863zM304 1446v20l227 239h197v-29l-300 -230h-124z" />
    <glyph glyph-name="lacute" unicode="&#x13a;" 
d="M531 1445v20l227 240h197v-29l-300 -231h-124zM736 142h380v-142h-982v142h422v1065h-289v142h469v-1207z" />
    <glyph glyph-name="Lcommaaccent" unicode="&#x13b;" 
d="M237 0v1349h191v-1193h672v-156h-863zM485 -423v33l79 292h197v-37l-171 -288h-105z" />
    <glyph glyph-name="lcommaaccent" unicode="&#x13c;" 
d="M736 142h380v-142h-982v142h422v1200h-289v142h469v-1342zM475 -423v33l79 292h197v-37l-171 -288h-105z" />
    <glyph glyph-name="Lcaron" unicode="&#x13d;" 
d="M237 0v1349h191v-1193h672v-156h-863zM775 1024v33l79 292h197v-37l-171 -288h-105z" />
    <glyph glyph-name="lcaron" unicode="&#x13e;" 
d="M687 142h380v-142h-982v142h422v1200h-289v142h469v-1342zM895 1159v33l79 292h197v-37l-171 -288h-105z" />
    <glyph glyph-name="Ldot" unicode="&#x13f;" 
d="M237 0v1349h191v-1193h672v-156h-863zM671 608v192h200v-192h-200z" />
    <glyph glyph-name="ldot" unicode="&#x140;" 
d="M736 142h380v-142h-982v142h422v1200h-289v142h469v-1342zM931 608v192h200v-192h-200z" />
    <glyph glyph-name="Lslash" unicode="&#x141;" 
d="M237 0v458l-117 -61l-66 121l183 96v735h191v-636l292 151l61 -121l-353 -185v-402h672v-156h-863z" />
    <glyph glyph-name="lslash" unicode="&#x142;" 
d="M736 142h380v-142h-982v142h422v493l-218 -123l-64 112l282 159v559h-339v142h519v-600l225 129l62 -113l-287 -164v-594z" />
    <glyph glyph-name="Nacute" unicode="&#x143;" 
d="M332 876v-876h-170v1349h222l528 -1138q-18 144 -18 274v864h172v-1349h-230l-520 1130q16 -172 16 -254zM524 1446v20l227 239h197v-29l-300 -230h-124z" />
    <glyph glyph-name="nacute" unicode="&#x144;" 
d="M706 1102q173 0 258 -94t85 -287v-721h-181v695q0 136 -52 202t-172 66q-120 -1 -200 -91t-79 -245v-627h-180v851q0 189 -6 231h170q4 -19 8 -185h3q105 205 346 205zM539 1201v20l227 239h197v-29l-300 -230h-124z" />
    <glyph glyph-name="Ncommaaccent" unicode="&#x145;" 
d="M332 876v-876h-170v1349h222l528 -1138q-18 144 -18 274v864h172v-1349h-230l-520 1130q16 -172 16 -254zM444 -423v33l79 292h197v-37l-171 -288h-105z" />
    <glyph glyph-name="ncommaaccent" unicode="&#x146;" 
d="M706 1102q173 0 258 -94t85 -287v-721h-181v695q0 136 -52 202t-172 66q-120 -1 -200 -91t-79 -245v-627h-180v851q0 189 -6 231h170q4 -19 8 -185h3q105 205 346 205zM448 -423v33l79 292h197v-37l-171 -288h-105z" />
    <glyph glyph-name="Ncaron" unicode="&#x147;" 
d="M332 876v-876h-170v1349h222l528 -1138q-18 144 -18 274v864h172v-1349h-230l-520 1130q16 -172 16 -254zM289 1705h104l232 -138h2l219 138h105v-20l-244 -239h-164l-254 239v20z" />
    <glyph glyph-name="ncaron" unicode="&#x148;" 
d="M706 1102q173 0 258 -94t85 -287v-721h-181v695q0 136 -52 202t-172 66q-120 -1 -200 -91t-79 -245v-627h-180v851q0 189 -6 231h170q4 -19 8 -185h3q105 205 346 205zM283 1460h104l232 -138h2l219 138h105v-20l-244 -239h-164l-254 239v20z" />
    <glyph glyph-name="napostrophe" unicode="&#x149;" 
d="M811 1102q173 0 258 -94t85 -287v-721h-181v695q-1 136 -53 202t-172 66q-120 -1 -198 -91q-80 -90 -80 -245v-627h-180v851q0 189 -6 231h170q4 -19 8 -185h3q105 205 346 205zM5 1025v33l79 292h197v-37l-171 -288h-105z" />
    <glyph glyph-name="Eng" unicode="&#x14a;" 
d="M746 1370q363 0 363 -381v-447q0 -301 -81 -431.5t-258 -130.5q-92 0 -157.5 31.5t-127.5 120.5l131 100q43 -60 78 -79.5t81 -19.5q79 0 116 94t37 319v417q0 137 -58 202.5t-190 65.5t-223.5 -91.5t-91.5 -244.5v-895h-180v1119q0 189 -6 231h170q4 -19 8 -185h3
q106 205 386 205z" />
    <glyph glyph-name="eng" unicode="&#x14b;" 
d="M706 1102q173 0 258 -93.5t85 -287.5v-855q0 -151 -60 -221t-181 -70q-77 0 -127 9v139l62 -6q69 0 97 36t28 140v802q0 136 -52 202t-172 66t-199.5 -90.5t-79.5 -245.5v-627h-180v851q0 189 -6 231h170q4 -19 8 -185h3q105 205 346 205z" />
    <glyph glyph-name="Omacron" unicode="&#x14c;" 
d="M614 1214q-311 0 -311 -540t316 -539q306 -1 306 539t-311 540zM1126 684q0 -340 -132 -522t-382 -182q-248 0 -379 179t-131 519t130 516t380 176t382 -174q132 -172 132 -512zM890 1503h-551v127h551v-127z" />
    <glyph glyph-name="omacron" unicode="&#x14d;" 
d="M319 542q0 -429 288 -429q159 0 230 107t71 322t-68 321t-223 106q-154 0 -226 -108t-72 -319zM615 1102q482 0 482 -556q1 -278 -125 -422t-360 -144t-358 146t-124 420t126 416q126 140 359 140zM890 1236h-551v127h551v-127z" />
    <glyph glyph-name="Obreve" unicode="&#x14e;" 
d="M614 1214q-311 0 -311 -540t316 -539q306 -1 306 539t-311 540zM1126 684q0 -340 -132 -522t-382 -182q-248 0 -379 179t-131 519t130 516t380 176t382 -174q132 -172 132 -512zM613 1572q85 0 127 35t60 98h127q-25 -119 -107 -189t-206 -70t-208 71t-105 188h127
q36 -133 185 -133z" />
    <glyph glyph-name="obreve" unicode="&#x14f;" 
d="M319 542q0 -429 288 -429q159 0 230 107t71 322t-68 321t-223 106q-154 0 -226 -108t-72 -319zM615 1102q482 0 482 -556q1 -278 -125 -422t-360 -144t-358 146t-124 420t126 416q126 140 359 140zM613 1327q85 0 127 35t60 98h127q-25 -119 -107 -189t-206 -70t-208 71
t-105 188h127q36 -133 185 -133z" />
    <glyph glyph-name="Ohungarumlaut" unicode="&#x150;" 
d="M614 1214q-311 0 -311 -540t316 -539q306 -1 306 539t-311 540zM1126 684q0 -340 -132 -522t-382 -182q-248 0 -379 179t-131 519t130 516t380 176t382 -174q132 -172 132 -512zM330 1445v20l207 239h187v-29l-300 -230h-94zM694 1445v20l207 239h187v-29l-300 -230h-94z
" />
    <glyph glyph-name="ohungarumlaut" unicode="&#x151;" 
d="M319 542q0 -429 288 -429q159 0 230 107t71 322t-68 321t-223 106q-154 0 -226 -108t-72 -319zM615 1102q482 0 482 -556q1 -278 -125 -422t-360 -144t-358 146t-124 420t126 416q126 140 359 140zM349 1201v20l207 239h187v-29l-300 -230h-94zM713 1201v20l207 239h187
v-29l-300 -230h-94z" />
    <glyph glyph-name="OE" unicode="&#x152;" 
d="M512 140q72 0 100 6v1057q-38 6 -99 6q-163 0 -237.5 -127.5t-74.5 -401.5q0 -540 311 -540zM511 -5q-255 0 -373 169t-118 518t118.5 511t374.5 162q58 0 109 -6h558v-152h-398v-440h367v-150h-367v-455h439v-152h-612q-57 -5 -98 -5z" />
    <glyph glyph-name="oe" unicode="&#x153;" 
d="M1038 641q-16 328 -162 328q-74 0 -116.5 -86.5t-45.5 -241.5h324zM543 542q0 220 -39.5 323.5t-130.5 103.5t-133.5 -104t-42.5 -323q0 -429 170 -429q94 0 135 104.5t41 324.5zM712 503q0 -189 43.5 -288.5t116.5 -99.5q133 0 165 166l138 -45q-63 -256 -293 -256
q-182 0 -263 183q-83 -183 -266 -183q-157 0 -241 144.5t-84 420.5t85 416.5t247 140.5q187 0 266 -177q85 177 259 177q319 0 319 -575v-24h-492z" />
    <glyph glyph-name="Racute" unicode="&#x154;" 
d="M929 973q0 223 -304 223h-272v-470h280q143 0 219 64t77 183zM353 575v-575h-191v1349h482q233 -1 355 -97t122 -260q1 -164 -93 -267q-94 -102 -251 -128l400 -597h-220l-366 575h-238zM474 1446v20l227 239h197v-29l-300 -230h-124z" />
    <glyph glyph-name="racute" unicode="&#x155;" 
d="M294 701q0 175 -52 381h171q40 -138 48 -250h5q50 112 98 164q96 106 275 106q104 0 206 -17v-167q-112 19 -212 19q-161 0 -260 -121t-99 -308v-508h-180v701zM491 1201v20l227 239h197v-29l-300 -230h-124z" />
    <glyph glyph-name="Rcommaaccent" unicode="&#x156;" 
d="M929 973q0 223 -304 223h-272v-470h280q143 0 219 64t77 183zM353 575v-575h-191v1349h482q233 -1 355 -97t122 -260q1 -164 -93 -267q-94 -102 -251 -128l400 -597h-220l-366 575h-238zM472 -423v33l79 292h197v-37l-171 -288h-105z" />
    <glyph glyph-name="rcommaaccent" unicode="&#x157;" 
d="M294 701q0 175 -52 381h171q40 -138 48 -250h5q50 112 98 164q96 106 275 106q104 0 206 -17v-167q-112 19 -212 19q-161 0 -260 -121t-99 -308v-508h-180v701zM203 -423v33l79 292h197v-37l-171 -288h-105z" />
    <glyph glyph-name="Rcaron" unicode="&#x158;" 
d="M929 973q0 223 -304 223h-272v-470h280q143 0 219 64t77 183zM353 575v-575h-191v1349h482q233 -1 355 -97t122 -260q1 -164 -93 -267q-94 -102 -251 -128l400 -597h-220l-366 575h-238zM264 1705h104l232 -138h2l219 138h105v-20l-244 -239h-164l-254 239v20z" />
    <glyph glyph-name="rcaron" unicode="&#x159;" 
d="M294 701q0 175 -52 381h171q40 -138 48 -250h5q50 112 98 164q96 106 275 106q104 0 206 -17v-167q-112 19 -212 19q-161 0 -260 -121t-99 -308v-508h-180v701zM303 1460h104l232 -138h2l219 138h105v-20l-244 -239h-164l-254 239v20z" />
    <glyph glyph-name="Sacute" unicode="&#x15a;" 
d="M1128 370q0 -184 -134 -287t-384 -103q-457 0 -531 358l185 37q28 -129 116 -187t241 -59q153 0 235 62t83 181q1 164 -237 226q-66 18 -182 48q-212 55 -293 139q-82 85 -82 225q-1 172 121 266t342 94t331 -74q112 -74 156 -250l-188 -33q-24 113 -96 163t-197 50
q-283 0 -283 -213q1 -105 99 -159q46 -24 106 -41t164 -43t165 -50q127 -49 195 -130q68 -82 68 -220zM522 1446v20l227 239h197v-29l-300 -230h-124z" />
    <glyph glyph-name="sacute" unicode="&#x15b;" 
d="M378 814q0 -60 42 -96t133 -58l119 -31q162 -40 234 -79q154 -84 154 -239t-116 -243t-323 -88q-205 0 -313 64t-141 204l159 31q20 -85 82 -125t213 -40q270 0 270 171q0 63 -49 103t-150 65q-264 65 -335 102q-147 77 -147 227q0 151 106 234t294 83q371 0 425 -260
l-162 -20q-22 146 -259 146q-236 0 -236 -151zM488 1201v20l227 239h197v-29l-300 -230h-124z" />
    <glyph glyph-name="Scircumflex" unicode="&#x15c;" 
d="M1128 370q0 -184 -134 -287t-384 -103q-457 0 -531 358l185 37q28 -129 116 -187t241 -59q153 0 235 62t83 181q1 164 -237 226q-66 18 -182 48q-212 55 -293 139q-82 85 -82 225q-1 172 121 266t342 94t331 -74q112 -74 156 -250l-188 -33q-24 113 -96 163t-197 50
q-283 0 -283 -213q1 -105 99 -159q46 -24 106 -41t164 -43t165 -50q127 -49 195 -130q68 -82 68 -220zM949 1446h-105l-219 138h-2l-232 -138h-104v20l254 239h164l244 -239v-20z" />
    <glyph glyph-name="scircumflex" unicode="&#x15d;" 
d="M378 814q0 -60 42 -96t133 -58l119 -31q162 -40 234 -79q154 -84 154 -239t-116 -243t-323 -88q-205 0 -313 64t-141 204l159 31q20 -85 82 -125t213 -40q270 0 270 171q0 63 -49 103t-150 65q-264 65 -335 102q-147 77 -147 227q0 151 106 234t294 83q371 0 425 -260
l-162 -20q-22 146 -259 146q-236 0 -236 -151zM960 1201h-105l-219 138h-2l-232 -138h-104v20l254 239h164l244 -239v-20z" />
    <glyph glyph-name="Scedilla" unicode="&#x15e;" 
d="M537 -348q147 0 147 84t-133 84q-43 0 -57 -2l58 164q-404 22 -473 356l185 37q28 -129 116 -187t241 -59q153 0 235 62t83 181q1 164 -237 226q-66 18 -182 48q-212 55 -293 139q-82 85 -82 225q-1 172 121 266t342 94t331 -74q112 -74 156 -250l-188 -33
q-24 113 -96 163t-197 50q-283 0 -283 -213q1 -105 99 -159q46 -24 106 -41t164 -43t165 -50q127 -49 195 -130q68 -82 68 -220q0 -184 -128 -282t-341 -107l-32 -81q94 -2 141 -44t47 -114q0 -186 -274 -186q-57 0 -90 4v98q50 -6 86 -6z" />
    <glyph glyph-name="scedilla" unicode="&#x15f;" 
d="M378 814q0 -60 42 -96t133 -58l119 -31q162 -40 234 -79q154 -84 154 -239q0 -156 -110 -238t-281 -92l-32 -81q94 -2 141 -44t47 -114q0 -186 -274 -186q-57 0 -90 4v98q50 -6 86 -6q147 0 147 84t-133 84q-43 0 -57 -2l58 163q-163 8 -262 68q-100 60 -133 199l159 31
q20 -85 82 -125t213 -40q270 0 270 171q0 63 -49 103t-150 65q-264 65 -335 102q-147 77 -147 227q0 151 106 234t294 83q371 0 425 -260l-162 -20q-22 146 -259 146q-236 0 -236 -151z" />
    <glyph glyph-name="Scaron" unicode="&#x160;" 
d="M1128 370q0 -184 -134 -287t-384 -103q-457 0 -531 358l185 37q28 -129 116 -187t241 -59q153 0 235 62t83 181q1 164 -237 226q-66 18 -182 48q-212 55 -293 139q-82 85 -82 225q-1 172 121 266t342 94t331 -74q112 -74 156 -250l-188 -33q-24 113 -96 163t-197 50
q-283 0 -283 -213q1 -105 99 -159q46 -24 106 -41t164 -43t165 -50q127 -49 195 -130q68 -82 68 -220zM283 1704h104l232 -138h2l219 138h105v-20l-244 -239h-164l-254 239v20z" />
    <glyph glyph-name="scaron" unicode="&#x161;" 
d="M378 814q0 -60 42 -96t133 -58l119 -31q162 -40 234 -79q154 -84 154 -239t-116 -243t-323 -88q-205 0 -313 64t-141 204l159 31q20 -85 82 -125t213 -40q270 0 270 171q0 63 -49 103t-150 65q-264 65 -335 102q-147 77 -147 227q0 151 106 234t294 83q371 0 425 -260
l-162 -20q-22 146 -259 146q-236 0 -236 -151zM288 1460h104l232 -138h2l219 138h105v-20l-244 -239h-164l-254 239v20z" />
    <glyph glyph-name="Tcommaaccent" unicode="&#x162;" 
d="M709 1193v-1193h-190v1193h-443v156h1076v-156h-443zM446 -423v33l79 292h197v-37l-171 -288h-105z" />
    <glyph glyph-name="tcommaaccent" unicode="&#x163;" 
d="M190 940v142h170l58 282h120v-282h432v-142h-432v-652q0 -79 42 -117t158 -38t279 34v-137q-169 -46 -333 -46t-245 68t-81 217v671h-168zM480 -423v33l79 292h197v-37l-171 -288h-105z" />
    <glyph glyph-name="Tcaron" unicode="&#x164;" 
d="M709 1193v-1193h-190v1193h-443v156h1076v-156h-443zM283 1705h104l232 -138h2l219 138h105v-20l-244 -239h-164l-254 239v20z" />
    <glyph glyph-name="tcaron" unicode="&#x165;" 
d="M101 940v142h170l58 282h120v-282h432v-142h-432v-652q1 -79 43 -117t158 -38t278 34v-137q-169 -46 -333 -46t-245 68t-81 217v671h-168zM945 1159v33l79 292h197v-37l-171 -288h-105z" />
    <glyph glyph-name="Tbar" unicode="&#x166;" 
d="M709 1193v-424h240v-149h-240v-620h-190v620h-240v149h240v424h-443v156h1076v-156h-443z" />
    <glyph glyph-name="tbar" unicode="&#x167;" 
d="M980 647v-132h-432v-227q0 -79 42 -117t158 -38t279 34v-137q-169 -46 -333 -46t-245 68.5t-81 216.5v246h-168v132h168v293h-168v142h170l58 282h120v-282h432v-142h-432v-293h432z" />
    <glyph glyph-name="Utilde" unicode="&#x168;" 
d="M1085 490q0 -266 -114 -388t-362 -122q-247 0 -357 118t-110 374v877h191v-851q1 -204 59 -284t216 -79q158 0 222 82q65 82 65 294v838h190v-859zM464 1565q-36 1 -51 -9t-25 -28t-21 -82h-111q10 96 34 145q49 103 169 103q62 0 168 -60q40 -22 77 -40t72 -19t55 23
t30 96h112q-15 -138 -65 -193t-124 -55t-179 60t-141 59z" />
    <glyph glyph-name="utilde" unicode="&#x169;" 
d="M528 -20q-178 0 -260 88t-83 293v721h180v-686q0 -156 49 -216q48 -60 176 -61q128 0 203 88t75 248v627h181v-851q0 -189 6 -231h-170q-4 19 -8 185h-3q-62 -113 -144 -159t-202 -46zM464 1320q-36 0 -51 -10t-25 -27q-10 -18 -21 -82h-111q10 96 34 145q49 103 169 103
q62 1 168 -59q40 -22 77 -42q37 -18 72 -18t55 24t30 95h112q-15 -138 -65 -193t-124 -55q-74 -1 -179 59t-141 60z" />
    <glyph glyph-name="Umacron" unicode="&#x16a;" 
d="M1085 490q0 -266 -114 -388t-362 -122q-247 0 -357 118t-110 374v877h191v-851q1 -204 59 -284t216 -79q158 0 222 82q65 82 65 294v838h190v-859zM890 1503h-551v127h551v-127z" />
    <glyph glyph-name="umacron" unicode="&#x16b;" 
d="M528 -20q-178 0 -260 88t-83 293v721h180v-686q0 -156 49 -216q48 -60 176 -61q128 0 203 88t75 248v627h181v-851q0 -189 6 -231h-170q-4 19 -8 185h-3q-62 -113 -144 -159t-202 -46zM890 1236h-551v127h551v-127z" />
    <glyph glyph-name="Ubreve" unicode="&#x16c;" 
d="M1085 490q0 -266 -114 -388t-362 -122q-247 0 -357 118t-110 374v877h191v-851q1 -204 59 -284t216 -79q158 0 222 82q65 82 65 294v838h190v-859zM613 1572q85 0 127 35t60 98h127q-25 -119 -107 -189t-206 -70t-208 71t-105 188h127q36 -133 185 -133z" />
    <glyph glyph-name="ubreve" unicode="&#x16d;" 
d="M528 -20q-178 0 -260 88t-83 293v721h180v-686q0 -156 49 -216q48 -60 176 -61q128 0 203 88t75 248v627h181v-851q0 -189 6 -231h-170q-4 19 -8 185h-3q-62 -113 -144 -159t-202 -46zM613 1327q85 0 127 35t60 98h127q-25 -119 -107 -189t-206 -70t-208 71t-105 188h127
q36 -133 185 -133z" />
    <glyph glyph-name="Uring" unicode="&#x16e;" 
d="M1085 490q0 -266 -114 -388t-362 -122q-247 0 -357 118t-110 374v877h191v-851q1 -204 59 -284t216 -79q158 0 222 82q65 82 65 294v838h190v-859zM735 1506q-1 38 -33 60q-32 23 -88 23t-88 -23q-34 -22 -34 -60t34 -61t88 -23q56 0 88 23t33 61zM856 1506
q0 -88 -66 -144t-176 -56q-112 0 -177 56t-65 145q0 88 66 143t177 55q109 1 175 -55t66 -144z" />
    <glyph glyph-name="uring" unicode="&#x16f;" 
d="M528 -20q-178 0 -260 88t-83 293v721h180v-686q0 -156 49 -216q48 -60 176 -61q128 0 203 88t75 248v627h181v-851q0 -189 6 -231h-170q-4 19 -8 185h-3q-62 -113 -144 -159t-202 -46zM735 1348q-1 38 -33 60q-32 23 -88 23t-88 -23q-34 -22 -34 -60t34 -61t88 -23
q56 0 88 23t33 61zM856 1348q0 -88 -66 -144t-176 -56q-112 0 -177 56t-65 145q0 88 66 143t177 55q109 1 175 -55t66 -144z" />
    <glyph glyph-name="Uhungarumlaut" unicode="&#x170;" 
d="M1085 490q0 -266 -114 -388t-362 -122q-247 0 -357 118t-110 374v877h191v-851q1 -204 59 -284t216 -79q158 0 222 82q65 82 65 294v838h190v-859zM341 1446v20l207 239h187v-29l-300 -230h-94zM705 1446v20l207 239h187v-29l-300 -230h-94z" />
    <glyph glyph-name="uhungarumlaut" unicode="&#x171;" 
d="M528 -20q-178 0 -260 88t-83 293v721h180v-686q0 -156 49 -216q48 -60 176 -61q128 0 203 88t75 248v627h181v-851q0 -189 6 -231h-170q-4 19 -8 185h-3q-62 -113 -144 -159t-202 -46zM347 1201v20l207 239h187v-29l-300 -230h-94zM711 1201v20l207 239h187v-29
l-300 -230h-94z" />
    <glyph glyph-name="Uogonek" unicode="&#x172;" 
d="M1085 490q0 -266 -114 -388q-67 -72 -183 -102q-64 -36 -106 -98t-41 -117q0 -102 94 -102q54 0 115 24v-107q-64 -27 -154 -27t-143 51q-53 52 -53 128t37 134t87 94h-19q-243 0 -353 118t-110 374v877h191v-851q1 -204 59 -284t216 -79q158 0 222 82q65 82 65 294v838
h190v-859z" />
    <glyph glyph-name="uogonek" unicode="&#x173;" 
d="M528 -20q-178 0 -260 88t-83 293v721h180v-686q0 -156 49 -216q48 -60 176 -61q128 0 203 88t75 248v627h181v-851q0 -189 6 -231h-37q-64 -36 -106 -98t-41 -117q0 -102 94 -102q54 0 115 24v-107q-64 -27 -154 -27t-143 51q-53 52 -53 128t42 142t113 106q-4 19 -8 185
h-3q-62 -113 -144 -159t-202 -46z" />
    <glyph glyph-name="Wcircumflex" unicode="&#x174;" 
d="M331 168q67 288 197 763h175q69 -253 109 -398t88 -365l35 346l104 835h189l-210 -1349h-208q-150 559 -194 756q-65 -280 -197 -756h-208l-211 1349h189l109 -835q16 -131 33 -346zM941 1446h-105l-219 138h-2l-232 -138h-104v20l254 239h164l244 -239v-20z" />
    <glyph glyph-name="wcircumflex" unicode="&#x175;" 
d="M1018 0h-204l-143 471l-57 202l-39 -139l-168 -534h-203l-183 1082h178l93 -607q33 -264 33 -326q39 160 58 214l135 424h193l130 -425q32 -105 55 -213q0 72 16 186q16 115 19 140l101 607h176zM941 1201h-105l-219 138h-2l-232 -138h-104v20l254 239h164l244 -239v-20z
" />
    <glyph glyph-name="Ycircumflex" unicode="&#x176;" 
d="M708 0h-188v584l-484 765h205l374 -611l372 611h205l-484 -765v-584zM941 1446h-105l-219 138h-2l-232 -138h-104v20l254 239h164l244 -239v-20z" />
    <glyph glyph-name="ycircumflex" unicode="&#x177;" 
d="M292 -425q-74 0 -124 11v135q38 -6 84 -6q78 0 148 59t118 188l18 49l-470 1071h192l264 -642q91 -224 98 -254l41 110l310 786h190l-456 -1082q-89 -235 -185 -330t-228 -95zM941 1201h-105l-219 138h-2l-232 -138h-104v20l254 239h164l244 -239v-20z" />
    <glyph glyph-name="Ydieresis" unicode="&#x178;" 
d="M708 0h-188v584l-484 765h205l374 -611l372 611h205l-484 -765v-584zM336 1445v184h165v-184h-165zM730 1445v184h163v-184h-163z" />
    <glyph glyph-name="Zacute" unicode="&#x179;" 
d="M1155 0h-1082v143l818 1050h-745v156h962v-139l-818 -1054h865v-156zM504 1446v20l227 239h197v-29l-300 -230h-124z" />
    <glyph glyph-name="zacute" unicode="&#x17a;" 
d="M147 0v137l681 806h-641v139h844v-137l-682 -806h719v-139h-921zM487 1201v20l227 239h197v-29l-300 -230h-124z" />
    <glyph glyph-name="Zdotaccent" unicode="&#x17b;" 
d="M1155 0h-1082v143l818 1050h-745v156h962v-139l-818 -1054h865v-156zM528 1446v192h200v-192h-200z" />
    <glyph glyph-name="zdotaccent" unicode="&#x17c;" 
d="M147 0v137l681 806h-641v139h844v-137l-682 -806h719v-139h-921zM512 1292v192h200v-192h-200z" />
    <glyph glyph-name="Zcaron" unicode="&#x17d;" 
d="M1155 0h-1082v143l818 1050h-745v156h962v-139l-818 -1054h865v-156zM293 1704h104l232 -138h2l219 138h105v-20l-244 -239h-164l-254 239v20z" />
    <glyph glyph-name="zcaron" unicode="&#x17e;" 
d="M147 0v137l681 806h-641v139h844v-137l-682 -806h719v-139h-921zM284 1460h104l232 -138h2l219 138h105v-20l-244 -239h-164l-254 239v20z" />
    <glyph glyph-name="longs" unicode="&#x17f;" 
d="M1099 1318q-103 17 -289 17q-76 0 -153 -33.5t-77 -209.5v-1092h-180v1107q0 205 96.5 291t294.5 86t308 -21v-145z" />
    <glyph glyph-name="uni0180" unicode="&#x180;" 
d="M904 542q0 220 -61 321.5t-201 101.5q-276 0 -277 -441q0 -210 66.5 -310.5t208.5 -100.5t203 104.5t61 324.5zM362 164q0 -110 -9 -164h-174q6 54 6 223v983h-127v131h127v147h180v-147h305v-131h-305v-145q0 -65 -4 -157h4q91 200 334 200q391 0 391 -558
q0 -284 -101.5 -425t-290.5 -141q-244 0 -334 184h-2z" />
    <glyph glyph-name="uni0181" unicode="&#x181;" 
d="M878 998q0 107 -75.5 152.5t-226.5 45.5h-123v-416h125q300 0 300 218zM619 153q340 0 340 239t-354 239h-152v-478h166zM262 1201q-143 0 -143 -128q0 -60 18 -116l-155 -17q-17 65 -17 125q0 133 77.5 208.5t219.5 75.5h312q496 0 496 -327q0 -122 -71.5 -203.5
t-196.5 -107.5q167 -18 258.5 -107t91.5 -224q0 -180 -137 -280t-381 -100h-372v1201z" />
    <glyph glyph-name="uni0182" unicode="&#x182;" 
d="M980 387q0 236 -328 236h-299v-472h307q164 0 242 56t78 180zM1172 394q0 -184 -128 -289t-357 -105h-525v1349h918v-156h-727v-410h322q241 0 369 -102q128 -103 128 -287z" />
    <glyph glyph-name="uni0183" unicode="&#x183;" 
d="M904 542q0 220 -61 321.5t-201 101.5q-276 0 -277 -441q0 -210 66.5 -310.5t208.5 -100.5t203 104.5t61 324.5zM362 164q0 -110 -9 -164h-174q6 54 6 223v1261h734v-159h-554v-264q0 -65 -4 -157h4q91 200 334 200q391 0 391 -558q0 -284 -101.5 -425t-290.5 -141
q-244 0 -334 184h-2z" />
    <glyph glyph-name="uni0184" unicode="&#x184;" 
d="M980 387q0 236 -328 236h-299v-472h307q164 0 242 56t78 180zM1172 394q0 -184 -127.5 -289t-357.5 -105h-525v951l-158 165v33l293 200h56v-566h322q242 0 369.5 -102.5t127.5 -286.5z" />
    <glyph glyph-name="uni0185" unicode="&#x185;" 
d="M904 542q0 220 -61 321.5t-201 101.5q-276 0 -277 -441q0 -210 66.5 -310.5t208.5 -100.5t203 104.5t61 324.5zM362 164q0 -110 -9 -164h-174q6 54 6 223v863l-128 180v33l257 185h51v-423q0 -65 -4 -157h4q91 200 334 200q391 0 391 -558q0 -284 -101.5 -425
t-290.5 -141q-244 0 -334 184h-2z" />
    <glyph glyph-name="uni0186" unicode="&#x186;" 
d="M915 544.5q0 409.5 -82 539.5t-254 130q-103 0 -181.5 -65.5t-115.5 -178.5l-168 65q127 335 466 335q536 0 536 -689q0 -339 -141.5 -520t-404.5 -181q-334 0 -483 372l159 65q110 -282 322 -282q347 0 347 409.5z" />
    <glyph glyph-name="uni0187" unicode="&#x187;" 
d="M102 681q0 689 536 689q186 0 308 -105v9q0 138 68.5 217t190.5 79q54 0 120 -15v-157q-45 18 -102 18q-119 0 -119 -148v-233l-168 -65q-37 113 -115.5 178.5t-181.5 65.5q-171 0 -253.5 -129t-82.5 -404q0 -546 347 -546q211 0 322 282l159 -65q-154 -372 -483 -372
q-263 0 -404.5 181t-141.5 520z" />
    <glyph glyph-name="uni0188" unicode="&#x188;" 
d="M130 540q0 272 129 417t373 145q174 0 291 -81q7 126 74 194t182 68q47 0 99 -12v-150q-36 16 -90 16q-110 0 -110 -148v-210l-192 -14q-16 91 -80 143.5t-182 52.5q-158 0 -231.5 -98.5t-73.5 -318.5t73.5 -322.5t230.5 -102.5q108 0 179 53t88 162l190 -12
q-13 -96 -72.5 -174.5t-157.5 -123t-219 -44.5q-245 0 -373 144t-128 416z" />
    <glyph glyph-name="uni0189" unicode="&#x189;" 
d="M515 156q418 0 418 532q0 264 -110 384t-349 121h-121v-447h289v-149h-289v-441h162zM1125 688q1 -332 -153 -510t-440 -178h-370v597h-135v149h135v603h311q329 -1 491 -165t161 -496z" />
    <glyph glyph-name="uni018A" unicode="&#x18a;" 
d="M515 156q418 0 418 532q0 264 -110 384.5t-349 120.5h-21v-1037h62zM262 1201q-143 0 -143 -128q0 -60 18 -116l-155 -17q-17 65 -17 125q0 133 77.5 208.5t219.5 75.5h211q329 0 490.5 -164.5t161.5 -496.5t-153.5 -510t-439.5 -178h-270v1201z" />
    <glyph glyph-name="uni018B" unicode="&#x18b;" 
d="M577 623q-328 0 -328 -236q0 -124 78 -180t242 -56h307v472h-299zM57 394q0 185 127.5 287t369.5 102h322v410h-727v156h918v-1349h-525q-229 0 -357 104.5t-128 289.5z" />
    <glyph glyph-name="uni018C" unicode="&#x18c;" 
d="M583 113q280 0 280 433q0 222 -67.5 320.5t-209.5 98.5t-202 -103.5t-60 -325.5t59.5 -322.5t199.5 -100.5zM867 174h-5q-49 -105 -130 -152.5t-202 -47.5q-202 0 -297 139t-95 419q0 566 392 566q121 0 202.5 -43t130.5 -141h2l-2 151v260h-554v159h734v-1261
q0 -169 6 -223h-172q-10 20 -10 174z" />
    <glyph glyph-name="uni018D" unicode="&#x18d;" 
d="M908 546q0 211 -68.5 317t-221.5 106t-226 -105.5t-73 -313.5q0 -418 288 -418q155 0 228 101.5t73 312.5zM1097 542q0 -512 -439 -542l351 -293v-132h-776v145h519q-100 89 -211 176.5t-218 177.5t-150 195t-43 273q0 279 126.5 419.5t364.5 140.5q476 0 476 -560z" />
    <glyph glyph-name="uni018E" unicode="&#x18e;" 
d="M107 0v156h769v461h-668v154h668v422h-728v156h919v-1349h-960z" />
    <glyph glyph-name="uni018F" unicode="&#x18f;" 
d="M613 135q291 0 311 468h-623q11 -232 90.5 -350t221.5 -118zM603 1370q522 0 522 -689q0 -337 -132.5 -519t-380.5 -182t-378.5 177t-130.5 520v80h821q-20 457 -326 457q-198 0 -298 -170l-145 90q153 236 448 236z" />
    <glyph glyph-name="uni018F" unicode="&#x4d8;" 
d="M613 135q291 0 311 468h-623q11 -232 90.5 -350t221.5 -118zM603 1370q522 0 522 -689q0 -337 -132.5 -519t-380.5 -182t-378.5 177t-130.5 520v80h821q-20 457 -326 457q-198 0 -298 -170l-145 90q153 236 448 236z" />
    <glyph glyph-name="uni0190" unicode="&#x190;" 
d="M680 624q-394 0 -394 -240q0 -118 88.5 -184.5t240.5 -66.5q263 0 382 272l155 -77q-87 -188 -219.5 -268t-347.5 -80t-353.5 104.5t-138.5 286.5q0 133 90.5 225t231.5 110q-280 67 -280 294q0 163 131 266t337 103t330 -78t196 -256l-168 -65q-53 131 -140 187.5
t-215 56.5t-204 -60.5t-76 -163.5q0 -218 354 -218h71v-148h-71z" />
    <glyph glyph-name="uni0191" unicode="&#x191;" 
d="M385 1193v-494h676v-158h-676v-671q0 -143 -71.5 -219t-202.5 -76q-61 0 -143 20l35 156q51 -17 87 -17q104 0 104 157v1458h891v-156h-700z" />
    <glyph glyph-name="florin" unicode="&#x192;" 
d="M909 1369q79 0 160 -23l-40 -136q-54 19 -134 19t-118 -30.5t-58 -125.5l-27 -137h302l-25 -131h-303l-243 -1230h-180l243 1230h-252l27 131h251l29 152q36 154 125.5 217.5t242.5 63.5z" />
    <glyph glyph-name="uni0193" unicode="&#x193;" 
d="M655 135q146 0 260 74v336h-293v160h479v-572q-229 -153 -471 -153t-379.5 185.5t-137.5 515.5q0 689 529 689q187 0 303 -101v9q0 138 68.5 217t190.5 79q54 0 120 -15v-157q-56 18 -108 18t-82.5 -35.5t-30.5 -112.5v-233l-171 -56q-81 231 -288 231
q-169 0 -249.5 -126t-80.5 -407q0 -546 341 -546z" />
    <glyph glyph-name="uni0194" unicode="&#x194;" 
d="M702 -178q0 46 -13.5 93.5t-72.5 168.5q-58 -121 -72 -168.5t-14 -92.5t23 -71.5t63 -26.5t63 25.5t23 71.5zM616 -425q-116 0 -182.5 68t-66.5 175t77 249l70 132l-509 1150h201l410 -969l406 969h201l-509 -1149l72 -131q79 -143 79 -251t-66.5 -175.5t-182.5 -67.5z
" />
    <glyph glyph-name="uni0195" unicode="&#x195;" 
d="M841 -20q-194 0 -238 116t-44 265v345q0 149 -29.5 203t-99.5 54t-113 -87t-43 -238v-638h-169v1484h169v-386q0 -122 -7 -171h3q78 175 224 175q121 0 177.5 -86t56.5 -275v-357q0 -152 26 -209.5t87 -57.5t87.5 60t26.5 207v698h169v-717q0 -385 -283 -385z" />
    <glyph glyph-name="uni0196" unicode="&#x196;" 
d="M736 142h380v-142h-982v142h422v1200h-289v142h469v-1342z" />
    <glyph glyph-name="uni0197" unicode="&#x197;" 
d="M202 1349h823v-156h-316v-410h207v-141h-207v-486h316v-156h-823v156h316v486h-207v141h207v410h-316v156z" />
    <glyph glyph-name="uni0198" unicode="&#x198;" 
d="M353 0h-191v1074q0 143 76 219.5t216 76.5q66 0 132 -15v-165q-50 18 -107 18q-126 0 -126 -148v-404l572 693h225l-496 -587l573 -762h-224l-479 627l-171 -178v-449z" />
    <glyph glyph-name="uni0199" unicode="&#x199;" 
d="M416 0h-180v1188q0 143 76 219.5t216 76.5q66 0 132 -15v-165q-50 18 -116 18q-128 0 -128 -148v-617l475 525h211l-439 -465l462 -617h-211l-366 499l-132 -98v-401z" />
    <glyph glyph-name="uni019A" unicode="&#x19a;" 
d="M736 813h209v-141h-209v-530h380v-142h-982v142h422v530h-226v141h226v529h-289v142h469v-671z" />
    <glyph glyph-name="uni019B" unicode="&#x19b;" 
d="M814 1275l-160 -60l452 -1215h-190l-207 579q-41 112 -65 214q-15 -46 -36 -98.5t-307 -694.5h-187l449 970l-69 190l-183 -68l-46 118l188 69l-73 205h177l54 -147l157 57z" />
    <glyph glyph-name="uni019C" unicode="&#x19c;" 
d="M800 -20q-137 0 -199 167q-32 -76 -90.5 -121.5t-135.5 -45.5q-152 0 -221 106.5t-69 325.5v937h163v-921q0 -155 32 -224t108 -69t109 65t33 200v949h162v-933q0 -146 30.5 -213.5t102.5 -67.5q149 0 149 283v931h162v-1118q0 -120 9 -231h-138l-8 134
q-62 -154 -199 -154z" />
    <glyph glyph-name="uni019D" unicode="&#x19d;" 
d="M332 876v-1006q0 -146 -68 -220.5t-196 -74.5q-71 0 -121 11v162q44 -14 100 -14q115 0 115 157v1458h222l528 -1138q-18 144 -18 274v864h172v-1349h-230l-520 1130q16 -176 16 -254z" />
    <glyph glyph-name="uni019E" unicode="&#x19e;" 
d="M706 1102q173 0 258 -94t85 -287v-1146h-181v1120q0 136 -52 202t-172 66q-120 -1 -200 -91t-79 -245v-627h-180v851q0 189 -6 231h170q4 -19 8 -185h3q105 205 346 205z" />
    <glyph glyph-name="uni019F" unicode="&#x19f;" 
d="M614 1214q-289 0 -311 -457h622q-22 457 -311 457zM614 135q291 0 311 468h-622q11 -232 90 -350t221 -118zM1126 684q0 -340 -132 -522t-382 -182q-248 0 -379 179t-131 523t132 516t380 172t380 -174q132 -172 132 -512z" />
    <glyph glyph-name="Ohorn" unicode="&#x1a0;" 
d="M614 1214q-311 0 -311 -540t316 -539q306 -1 306 539t-311 540zM1126 681q0 -337 -133 -519t-381 -182t-379 179t-131 523t132.5 516t380.5 172q332 0 450 -305q82 63 82 177h-88v167h195v-106q0 -212 -162 -322q34 -127 34 -300z" />
    <glyph glyph-name="ohorn" unicode="&#x1a1;" 
d="M319 542q0 -429 288 -429q159 0 230 107t71 322t-68.5 321t-221.5 106t-226 -105t-73 -322zM1283 982q0 -237 -190 -348q4 -44 4 -92q0 -273 -125.5 -417.5t-359.5 -144.5t-358 146t-124 420t126.5 415t358.5 141q397 0 466 -377q95 67 95 196h-88v167h195v-106z" />
    <glyph glyph-name="uni01A2" unicode="&#x1a2;" 
d="M497 1214q-118 0 -185.5 -141t-67.5 -393t70.5 -398.5t196.5 -146.5q62 0 100 32v1004q-43 43 -114 43zM511 -20q-226 0 -343.5 179t-117.5 513t121 516t330 182q125 0 238 -71l355 64h43v-1787h-180v1587h-166v-1088q-133 -95 -280 -95z" />
    <glyph glyph-name="uni01A3" unicode="&#x1a3;" 
d="M526 969q-158 0 -228.5 -103.5t-70.5 -320.5t69.5 -324.5t218.5 -107.5q64 0 120 22l-1 814q-52 20 -108 20zM523 1102q160 0 282 -74l314 65h42v-1518h-174v1343h-179v-855q-121 -83 -291 -83q-237 0 -358 144.5t-121 417.5q0 560 485 560z" />
    <glyph glyph-name="uni01A4" unicode="&#x1a4;" 
d="M937 942q0 254 -328 254h-156v-531h164q149 0 234.5 73t85.5 204zM262 1201q-143 0 -143 -128q0 -60 18 -116l-155 -17q-17 65 -17 125q0 133 77.5 208.5t219.5 75.5h370q238 0 367.5 -106.5t129.5 -297.5q0 -125 -59.5 -223t-170 -153t-255.5 -55h-191v-514h-191v1201z
" />
    <glyph glyph-name="uni01A5" unicode="&#x1a5;" 
d="M904 541q0 226 -60 325t-202 99t-209 -109.5t-67 -327.5t67 -316.5t208 -98.5t202 101t61 327zM698 -20q-251 0 -331 184h-5q4 -8 4 -166v-423h-181v1613q0 145 73 220.5t216 75.5q54 0 93 -8l37 -8v-166q-56 20 -116 20q-125 0 -125 -148v-270h4q50 103 127.5 151.5
t203.5 48.5q198 0 295 -136.5t97 -421.5q0 -566 -392 -566z" />
    <glyph glyph-name="uni01A6" unicode="&#x1a6;" 
d="M929 820q0 223 -304 223h-272v-470h280q146 0 221 64t75 183zM353 422v-422h-191v1349h191v-153h291q233 0 355 -96t122 -260t-94 -267t-254 -129l416 -763h-220l-382 741h-234z" />
    <glyph glyph-name="uni01A7" unicode="&#x1a7;" 
d="M619 129q292 0 345 246l180 -37q-74 -358 -529 -358q-247 0 -381 99t-134 271t97 268t325 150q115 27 178.5 43t142.5 56t79 146q0 213 -276 213t-320 -213l-183 33q47 172 165.5 248t339.5 76t340.5 -93.5t119.5 -277.5t-133.5 -256t-307.5 -110t-276 -86.5t-102 -171.5
t85.5 -184.5t244.5 -61.5z" />
    <glyph glyph-name="uni01A8" unicode="&#x1a8;" 
d="M608 114q253 0 295 165l155 -34q-33 -136 -138.5 -200.5t-313.5 -64.5t-322.5 76t-114.5 228q0 179 130.5 241.5t236.5 90.5t160 42.5t114.5 46.5t60.5 114q0 146 -232 146t-263 -146l-158 22q26 126 131 192t281 66q409 0 409 -293q0 -161 -126.5 -226.5t-374.5 -126.5
q-104 -26 -152 -65.5t-48 -111.5t71 -117t199 -45z" />
    <glyph glyph-name="uni01A9" unicode="&#x1a9;" 
d="M108 0v162l538 549l-521 477v161h999v-156h-784l458 -415v-124l-490 -498h877v-156h-1077z" />
    <glyph glyph-name="uni01AA" unicode="&#x1aa;" 
d="M300 1306q0 -48 30 -78t78 -30t78.5 30t30.5 78t-29.5 78.5t-78.5 30.5t-79 -30.5t-30 -78.5zM401 1119q-74 0 -126 51.5t-52 136.5t55.5 135.5t149.5 50.5q134 0 200 -76t66 -213v-1328q0 -143 117 -143q54 0 106 13v-158q-69 -13 -134 -13q-128 0 -198.5 76.5
t-70.5 219.5v1277q-39 -29 -113 -29z" />
    <glyph glyph-name="uni01AB" unicode="&#x1ab;" 
d="M190 940v142h170l58 282h120v-282h432v-142h-432v-652q0 -79 42 -117t158 -38t279 34v-310q0 -282 -253 -282q-67 0 -135 17v160q56 -18 111 -18q109 0 109 137v125q-91 -12 -167 -12q-162 0 -243 68.5t-81 216.5v671h-168z" />
    <glyph glyph-name="uni01AC" unicode="&#x1ac;" 
d="M709 1193v-1193h-190v1193h-202q-77 0 -110 -30t-33 -90t18 -116l-155 -17q-17 74 -17 135q0 134 77.5 204t228.5 70h826v-156h-443z" />
    <glyph glyph-name="uni01AD" unicode="&#x1ad;" 
d="M190 940v142h175v110q0 152 70 229t204 77q66 0 120 -14v-168q-57 20 -111 20q-110 0 -110 -148v-106h432v-142h-432v-652q0 -79 42 -117t158 -38t279 34v-137q-169 -46 -333 -46t-245 68.5t-81 216.5v671h-168z" />
    <glyph glyph-name="uni01AE" unicode="&#x1ae;" 
d="M709 1193v-1302q0 -81 24 -119t80 -38t106 16v-158q-70 -17 -132 -17q-129 0 -198.5 74t-69.5 210v1334h-443v156h1076v-156h-443z" />
    <glyph glyph-name="Uhorn" unicode="&#x1af;" 
d="M1316 1303q0 -312 -291 -378v-435q0 -265 -106.5 -387.5t-338.5 -122.5t-335 117t-103 375v877h191v-851q0 -208 52.5 -285.5t192.5 -77.5t198.5 81t58.5 295v838h190v-330q184 56 184 223h-88v167h195v-106z" />
    <glyph glyph-name="uhorn" unicode="&#x1b0;" 
d="M503 -20q-170 0 -246.5 88.5t-76.5 292.5v721h180v-686q0 -157 43 -217t163 -60t188.5 88.5t68.5 247.5v627h181v-396q82 35 117 87t35 142h-88v167h195v-106q0 -149 -61.5 -241.5t-197.5 -141.5v-362q0 -189 6 -231h-170q-4 19 -8 185h-3q-64 -115 -140 -160t-186 -45z
" />
    <glyph glyph-name="uni01B1" unicode="&#x1b1;" 
d="M951 591q0 339 -264 534v224h483v-156h-200q-44 0 -161 11q163 -109 250 -273.5t87 -352.5q0 -276 -143.5 -437.5t-388.5 -161.5t-388.5 162t-143.5 437q0 189 87 353.5t250 272.5q-117 -11 -161 -11h-200v156h483v-224q-264 -193 -264 -534q0 -224 86 -340t252 -116
t251 118t85 338z" />
    <glyph glyph-name="uni01B2" unicode="&#x1b2;" 
d="M142 482v867h191v-851q0 -190 62 -276.5t208 -86.5q223 0 278 245t55 532q0 157 -39.5 228t-129.5 71q-58 0 -108 -10l-7 157q67 12 145 12q329 0 329 -445q0 -279 -62 -612t-463 -333q-238 0 -348.5 124.5t-110.5 377.5z" />
    <glyph glyph-name="uni01B3" unicode="&#x1b3;" 
d="M1141 1207q-53 0 -79 -23t-48 -59l-342 -541v-584h-188v584l-484 765h205l374 -611l288 475q95 157 243 157q76 0 131 -22.5t114 -73.5l-84 -136q-77 69 -130 69z" />
    <glyph glyph-name="uni01B4" unicode="&#x1b4;" 
d="M298 -425q-70 0 -120 11v135q38 -6 80 -6q175 0 271 252l17 44l-470 1071h192l264 -642q16 -40 96 -248h2q15 64 91 272l273 777q44 123 111 183t187 60t229 -93l-82 -128q-68 62 -140 62q-97 0 -148 -137l-439 -1188q-87 -237 -182.5 -331t-231.5 -94z" />
    <glyph glyph-name="uni01B5" unicode="&#x1b5;" 
d="M123 757h428l340 436h-745v156h962v-139l-352 -453h349v-133h-452l-363 -468h865v-156h-1082v143l374 481h-324v133z" />
    <glyph glyph-name="uni01B6" unicode="&#x1b6;" 
d="M165 617h387l276 326h-641v139h844v-137l-278 -328h286v-133h-398l-292 -345h719v-139h-921v137l293 347h-275v133z" />
    <glyph glyph-name="uni01B7" unicode="&#x1b7;" 
d="M121 1193v156h988v-161l-505 -489q266 -17 400.5 -153t134.5 -385q0 -172 -70.5 -305.5t-201 -207.5t-282.5 -74t-254.5 36.5t-174.5 107t-133 202.5l162 75q63 -143 156 -207.5t227 -64.5q176 0 279.5 116.5t103.5 317.5t-116 301t-365 100h-74v141l500 494h-775z" />
    <glyph glyph-name="uni01B8" unicode="&#x1b8;" 
d="M641 -277q264 0 383 272l161 -75q-84 -182 -220.5 -264t-336.5 -82q-260 0 -409 146t-149 396t147.5 401t404.5 178l-504 493v161h988v-156h-775l500 -494v-141h-74q-238 0 -368.5 -111t-130.5 -311t100 -306.5t283 -106.5z" />
    <glyph glyph-name="uni01B9" unicode="&#x1b9;" 
d="M1038 941h-694l393 -386v-144h-82q-162 0 -254 -94.5t-92 -254.5t81 -255t218 -95q273 0 309 252l177 -12q-23 -187 -148.5 -282t-343.5 -95t-346 127.5t-128 338.5t114 344.5t305 158.5l-382 362v176h873v-141z" />
    <glyph glyph-name="uni01BA" unicode="&#x1ba;" 
d="M609 -426q-138 0 -298 56.5t-160 248.5q0 145 117 206t287 103t227 83t57 99q0 74 -97.5 104.5t-290.5 30.5v139l356 298h-626v140h868v-119l-396 -322q178 -13 269 -82.5t91 -188.5q0 -149 -108.5 -205.5t-264.5 -94.5t-231 -74t-75 -116q0 -163 275 -163t341 201
l178 -19q-40 -155 -174.5 -240t-344.5 -85z" />
    <glyph glyph-name="uni01BB" unicode="&#x1bb;" 
d="M877 1004q0 218 -266 218q-114 0 -184.5 -62.5t-83.5 -175.5l-184 17q20 169 138.5 269t324.5 100t323 -94t117 -267q0 -136 -106 -252h149v-133h-286q-244 -191 -341.5 -281.5t-139.5 -196.5h746v-146h-940v117q51 126 148 242.5t288 264.5h-457v133h617
q137 119 137 247z" />
    <glyph glyph-name="uni01BC" unicode="&#x1bc;" 
d="M596 123q147 0 228.5 85.5t81.5 233.5q0 293 -336 293h-219v458h-182v156h881v-156h-515v-303h68q233 0 361.5 -116.5t128.5 -329.5t-133 -338.5t-367 -125.5q-191 0 -315 97t-158 268l179 21q67 -243 297 -243z" />
    <glyph glyph-name="uni01BD" unicode="&#x1bd;" 
d="M876 346q0 104 -72 154t-231 50h-197v392h-212v140h860v-140h-486v-254h74q213 0 329 -87t116 -257t-113.5 -267t-315.5 -97t-316.5 80.5t-151.5 250.5l174 12q18 -97 94 -153.5t181 -56.5q267 0 267 233z" />
    <glyph glyph-name="uni01BE" unicode="&#x1be;" 
d="M289 285q52 -168 333 -168q140 0 208 39.5t68 132.5t-62 128.5t-214 73.5t-247 100t-95 245v115h-151v131h152v347l179 78v-425h245v-131h-245v-97q0 -83 17 -117t59.5 -56t163.5 -51q214 -51 293.5 -126.5t79.5 -197.5q0 -159 -113.5 -242.5t-333.5 -83.5t-339.5 66.5
t-156.5 207.5z" />
    <glyph glyph-name="uni01BF" unicode="&#x1bf;" 
d="M652 965q-286 0 -286 -420v-525q205 77 371.5 205.5t166.5 400.5q0 339 -252 339zM1090 627q0 -334 -219.5 -492t-504.5 -262v-298h-181v1507h169q10 -105 10 -179h4q91 201 322 201q195 0 297.5 -122t102.5 -355z" />
    <glyph glyph-name="uni01C0" unicode="&#x1c0;" 
d="M524 0v1484h180v-1484h-180z" />
    <glyph glyph-name="uni01C1" unicode="&#x1c1;" 
d="M693 0v1484h165v-1484h-165zM370 0v1484h165v-1484h-165z" />
    <glyph glyph-name="uni01C2" unicode="&#x1c2;" 
d="M130 1030h396v454h174v-454h398v-153h-398v-308h398v-153h-398v-416h-174v416h-396v153h396v308h-396v153z" />
    <glyph glyph-name="uni01C3" unicode="&#x1c3;" 
d="M515 0v201h194v-201h-194zM689 397h-148l-24 951h196z" />
    <glyph glyph-name="uni01C4" unicode="&#x1c4;" 
d="M1219 0h-562v142l380 1051h-307v156h489v-138l-385 -1055h385v-156zM489 685q0 261 -55.5 384.5t-178.5 123.5h-4v-1037h24q99 0 156.5 134t57.5 395zM656 688q0 -688 -402 -688h-165v1349h122q163 0 259.5 -66t141 -204.5t44.5 -390.5zM730 1677h104l150 -123h2l148 123
h104v-20l-171 -212h-166l-171 212v20z" />
    <glyph glyph-name="uni01C5" unicode="&#x1c5;" 
d="M657 0v132l352 811h-312v139h485v-132l-357 -811h394v-139h-562zM489 685q0 261 -55.5 384.5t-178.5 123.5h-4v-1037h24q99 0 156.5 134t57.5 395zM656 688q0 -688 -402 -688h-165v1349h122q163 0 259.5 -66t141 -204.5t44.5 -390.5zM695 1433h104l150 -123h2l148 123
h104v-20l-171 -212h-166l-171 212v20z" />
    <glyph glyph-name="uni01C6" unicode="&#x1c6;" 
d="M677 0v132l352 811h-312v139h485v-132l-357 -811h384v-139h-552zM218 539q0 -227 29 -326.5t96 -99.5t95 107.5t28 326.5t-28 318.5t-94 99.5t-96 -99.5t-30 -326.5zM286 -26q-122 0 -179 138.5t-57 419.5q0 566 238 566q71 0 109 -29.5t69 -114.5h2l-2 131v399h160
v-1261q0 -178 5 -223h-152q-9 24 -9 124h-5q-32 -87 -71 -118.5t-108 -31.5zM715 1433h104l150 -123h2l148 123h104v-20l-171 -212h-166l-171 212v20z" />
    <glyph glyph-name="uni01C7" unicode="&#x1c7;" 
d="M823 135q81 0 119.5 67t38.5 214v777h-191v156h353v-954q0 -216 -78.5 -315.5t-243.5 -99.5q-111 0 -193 40l54 154q60 -39 141 -39zM89 0v1349h162v-1193h312v-156h-474z" />
    <glyph glyph-name="uni01C8" unicode="&#x1c8;" 
d="M963 1292v192h181v-192h-181zM89 0v1349h162v-1193h412v-156h-574zM1144 -28q0 -188 -102.5 -292.5t-288.5 -104.5q-98 0 -190 22v145q86 -18 190 -18t166.5 66.5t62.5 184.5v965h-301v142h463v-1110z" />
    <glyph glyph-name="uni01C9" unicode="&#x1c9;" 
d="M373 142h197v-142h-570v142h211v1200h-211v142h373v-1342zM900 1292v192h181v-192h-181zM1081 -28q0 -188 -102.5 -292.5t-288.5 -104.5q-98 0 -190 22v145q86 -18 190 -18t166.5 66.5t62.5 184.5v965h-281v142h443v-1110z" />
    <glyph glyph-name="uni01CA" unicode="&#x1ca;" 
d="M841 -20q-56 0 -106 13v161q46 -19 98 -19q81 0 114.5 70t33.5 211v777h-151v156h313v-954q0 -207 -72.5 -311t-229.5 -104zM246 456v-455h-157v1348h157l257 -879h6q-3 26 -10 186.5t-7 239.5v453h160v-1348h-165l-249 860h-6q4 -31 9 -189.5t5 -215.5z" />
    <glyph glyph-name="uni01CB" unicode="&#x1cb;" 
d="M962 1292v192h181v-192h-181zM1143 -28q0 -188 -102.5 -292.5t-288.5 -104.5q-98 0 -190 22v145q86 -18 190 -18t167 66t63 185v965h-223v142h384v-1110zM246 456v-455h-157v1348h157l257 -879h6q-3 26 -10 186.5t-7 239.5v453h160v-1348h-165l-249 860h-6
q4 -31 9 -189.5t5 -215.5z" />
    <glyph glyph-name="uni01CC" unicode="&#x1cc;" 
d="M473 1102q111 0 166 -90t55 -291v-721h-162v695q0 137 -27.5 202.5t-95.5 65.5t-113.5 -90t-45.5 -246v-627h-161v851q0 189 -6 231h149l6 -175h2q68 195 233 195zM962 1292v192h181v-192h-181zM1143 -28q0 -188 -102.5 -292.5t-288.5 -104.5q-98 0 -190 22v145
q86 -18 190 -18t167 66t63 185v965h-202v142h363v-1110z" />
    <glyph glyph-name="uni01CD" unicode="&#x1cd;" 
d="M616 1205l-81 -251l-151 -423h463zM1034 0l-138 382h-563l-137 -382h-196l510 1349h217l501 -1349h-194zM283 1704h104l232 -138h2l219 138h105v-20l-244 -239h-164l-254 239v20z" />
    <glyph glyph-name="uni01CE" unicode="&#x1ce;" 
d="M497 117q91 0 165 46t115 123t41 159v89l-190 -4q-118 -2 -180 -26t-96 -74t-35 -131q1 -82 45 -132t135 -50zM1101 111q26 0 59 7v-112q-68 -16 -154 -16q-171 0 -182 217h-6q-66 -121 -154 -174t-232 -53t-224 86t-80 236q0 349 454 354l236 4v59q0 131 -53 189
t-170 57q-117 0 -169 -42t-62 -130l-188 17q46 292 423 292q201 0 301 -94t100 -270v-466q0 -80 21 -120t80 -41zM274 1460h104l232 -138h2l219 138h105v-20l-244 -239h-164l-254 239v20z" />
    <glyph glyph-name="uni01CF" unicode="&#x1cf;" 
d="M202 1349h823v-156h-316v-1037h316v-156h-823v156h316v1037h-316v156zM283 1704h104l232 -138h2l219 138h105v-20l-244 -239h-164l-254 239v20z" />
    <glyph glyph-name="uni01D0" unicode="&#x1d0;" 
d="M745 142h380v-142h-982v142h422v798h-319v142h499v-940zM286 1460h104l232 -138h2l219 138h105v-20l-244 -239h-164l-254 239v20z" />
    <glyph glyph-name="uni01D1" unicode="&#x1d1;" 
d="M614 1214q-311 0 -311 -540t316 -539q306 -1 306 539t-311 540zM1126 684q0 -340 -132 -522t-382 -182q-248 0 -379 179t-131 519t130 516t380 176t382 -174q132 -172 132 -512zM283 1704h104l232 -138h2l219 138h105v-20l-244 -239h-164l-254 239v20z" />
    <glyph glyph-name="uni01D2" unicode="&#x1d2;" 
d="M319 542q0 -429 288 -429q159 0 230 107t71 322t-68 321t-223 106q-154 0 -226 -108t-72 -319zM615 1102q482 0 482 -556q1 -278 -125 -422t-360 -144t-358 146t-124 420t126 416q126 140 359 140zM283 1460h104l232 -138h2l219 138h105v-20l-244 -239h-164l-254 239v20z
" />
    <glyph glyph-name="uni01D3" unicode="&#x1d3;" 
d="M1085 490q0 -266 -114 -388t-362 -122q-247 0 -357 118t-110 374v877h191v-851q1 -204 59 -284t216 -79q158 0 222 82q65 82 65 294v838h190v-859zM283 1704h104l232 -138h2l219 138h105v-20l-244 -239h-164l-254 239v20z" />
    <glyph glyph-name="uni01D4" unicode="&#x1d4;" 
d="M528 -20q-178 0 -260 88t-83 293v721h180v-686q0 -156 49 -216q48 -60 176 -61q128 0 203 88t75 248v627h181v-851q0 -189 6 -231h-170q-4 19 -8 185h-3q-62 -113 -144 -159t-202 -46zM283 1460h104l232 -138h2l219 138h105v-20l-244 -239h-164l-254 239v20z" />
    <glyph glyph-name="uni01D5" unicode="&#x1d5;" 
d="M1085 490q0 -266 -114 -388t-362 -122q-247 0 -357 118t-110 374v877h191v-851q1 -204 59 -284t216 -79q158 0 222 82q65 82 65 294v838h190v-859zM889 1708h-549v127h549v-127zM316 1458v184h163v-184h-163zM750 1458v184h163v-184h-163z" />
    <glyph glyph-name="uni01D6" unicode="&#x1d6;" 
d="M528 -20q-178 0 -260 88t-83 293v721h180v-686q0 -156 49 -216q48 -60 176 -61q128 0 203 88t75 248v627h181v-851q0 -189 6 -231h-170q-4 19 -8 185h-3q-62 -113 -144 -159t-202 -46zM336 1219v184h165v-184h-165zM730 1219v184h163v-184h-163zM889 1515h-549v127h549
v-127z" />
    <glyph glyph-name="uni01D7" unicode="&#x1d7;" 
d="M1085 490q0 -266 -114 -388t-362 -122q-247 0 -357 118t-110 374v877h191v-851q1 -204 59 -284t216 -79q158 0 222 82q65 82 65 294v838h190v-859zM316 1448v184h163v-184h-163zM750 1448v184h163v-184h-163zM902 1835v-12l-261 -171h-130v10l165 173h226z" />
    <glyph glyph-name="uni01D8" unicode="&#x1d8;" 
d="M528 -20q-178 0 -260 88t-83 293v721h180v-686q0 -156 49 -216q48 -60 176 -61q128 0 203 88t75 248v627h181v-851q0 -189 6 -231h-170q-4 19 -8 185h-3q-62 -113 -144 -159t-202 -46zM336 1219v184h165v-184h-165zM730 1219v184h163v-184h-163zM532 1481v20l227 239h197
v-29l-300 -230h-124z" />
    <glyph glyph-name="uni01D9" unicode="&#x1d9;" 
d="M1085 490q0 -266 -114 -388t-362 -122q-247 0 -357 118t-110 374v877h191v-851q1 -204 59 -284t216 -79q158 0 222 82q65 82 65 294v838h190v-859zM315 1448v184h163v-184h-163zM749 1448v184h163v-184h-163zM920 1835v-10l-208 -173h-195l-209 171v12h155l151 -97
l151 97h155z" />
    <glyph glyph-name="uni01DA" unicode="&#x1da;" 
d="M528 -20q-178 0 -260 88t-83 293v721h180v-686q0 -156 49 -216q48 -60 176 -61q128 0 203 88t75 248v627h181v-851q0 -189 6 -231h-170q-4 19 -8 185h-3q-62 -113 -144 -159t-202 -46zM336 1219v184h165v-184h-165zM730 1219v184h163v-184h-163zM283 1740h104l232 -138h2
l219 138h105v-20l-244 -239h-164l-254 239v20z" />
    <glyph glyph-name="uni01DB" unicode="&#x1db;" 
d="M1085 490q0 -266 -114 -388t-362 -122q-247 0 -357 118t-110 374v877h191v-851q1 -204 59 -284t216 -79q158 0 222 82q65 82 65 294v838h190v-859zM750 1448v184h163v-184h-163zM316 1448v184h163v-184h-163zM718 1652h-130l-261 171v12h226l165 -173v-10z" />
    <glyph glyph-name="uni01DC" unicode="&#x1dc;" 
d="M528 -20q-178 0 -260 88t-83 293v721h180v-686q0 -156 49 -216q48 -60 176 -61q128 0 203 88t75 248v627h181v-851q0 -189 6 -231h-170q-4 19 -8 185h-3q-62 -113 -144 -159t-202 -46zM336 1219v184h165v-184h-165zM730 1219v184h163v-184h-163zM294 1740h197l227 -239
v-20h-124l-300 230v29z" />
    <glyph glyph-name="uni01DD" unicode="&#x1dd;" 
d="M608 113q134 -1 212 87t83 241h-584q28 -328 289 -328zM610 -20q-477 0 -477 575v24h772q-1 182 -81 285t-220 103q-102 -1 -180 -45t-104 -121l-158 45q44 124 162 190t280 66q236 0 363 -147t127 -417t-124 -414t-360 -144z" />
    <glyph glyph-name="uni01DE" unicode="&#x1de;" 
d="M616 1205l-81 -251l-151 -423h463zM1034 0l-138 382h-563l-137 -382h-196l510 1349h217l501 -1349h-194zM889 1708h-549v127h549v-127zM316 1458v184h163v-184h-163zM750 1458v184h163v-184h-163z" />
    <glyph glyph-name="uni01DF" unicode="&#x1df;" 
d="M497 117q91 0 165 46t115 123t41 159v89l-190 -4q-118 -2 -180 -26t-96 -74t-35 -131q1 -82 45 -132t135 -50zM1101 111q26 0 59 7v-112q-68 -16 -154 -16q-171 0 -182 217h-6q-66 -121 -154 -174t-232 -53t-224 86t-80 236q0 349 454 354l236 4v59q0 131 -53 189
t-170 57q-117 0 -169 -42t-62 -130l-188 17q46 292 423 292q201 0 301 -94t100 -270v-466q0 -80 21 -120t80 -41zM317 1200v184h165v-184h-165zM711 1200v184h163v-184h-163zM870 1489h-549v127h549v-127z" />
    <glyph glyph-name="uni01E0" unicode="&#x1e0;" 
d="M616 1205l-81 -251l-151 -423h463zM1034 0l-138 382h-563l-137 -382h-196l510 1349h217l501 -1349h-194zM889 1708h-549v127h549v-127zM527 1468v184h163v-184h-163z" />
    <glyph glyph-name="uni01E1" unicode="&#x1e1;" 
d="M497 117q91 0 165 46t115 123t41 159v89l-190 -4q-118 -2 -180 -26t-96 -74t-35 -131q1 -82 45 -132t135 -50zM1101 111q26 0 59 7v-112q-68 -16 -154 -16q-171 0 -182 217h-6q-66 -121 -154 -174t-232 -53t-224 86t-80 236q0 349 454 354l236 4v59q0 131 -53 189
t-170 57q-117 0 -169 -42t-62 -130l-188 17q46 292 423 292q201 0 301 -94t100 -270v-466q0 -80 21 -120t80 -41zM515 1273v192h200v-192h-200zM889 1489h-549v127h549v-127z" />
    <glyph glyph-name="uni01E2" unicode="&#x1e2;" 
d="M646 1202h-73q-41 -163 -211 -641h284v641zM646 412h-335l-142 -412h-168l486 1349h667v-152h-337v-430h327v-150h-327v-465h378v-152h-549v412zM1056 1503h-551v127h551v-127z" />
    <glyph glyph-name="uni01E3" unicode="&#x1e3;" 
d="M861 969q-85 0 -131 -87t-49 -241h361q-9 171 -53 249t-128 79zM189 298q-1 -182 117 -181q60 1 109 45q48 44 75 120t27 163v89l-122 -4q-79 -2 -119 -26q-86 -52 -87 -206zM873 1102q335 0 335 -575v-24h-529v-17q5 -371 185 -371q76 0 120 47t60 119l138 -45
q-68 -256 -314 -256q-122 0 -190 55t-102 177q-99 -232 -298 -232q-258 0 -258 322q0 349 330 354l167 4v59q0 135 -32 191t-105 55q-72 -1 -106 -41t-41 -131l-168 17q19 152 97 222t218 70q176 0 247 -139q85 139 246 139zM889 1235h-549v127h549v-127z" />
    <glyph glyph-name="uni01E4" unicode="&#x1e4;" 
d="M113 681q0 689 529 689q346 0 461 -331l-171 -56q-81 231 -288 231q-169 0 -249.5 -126t-80.5 -407q0 -546 341 -546q143 0 270 75v98h-303v130h303v107h-303v160h479v-267h128v-130h-128v-175q-229 -153 -471 -153t-379.5 185.5t-137.5 515.5z" />
    <glyph glyph-name="uni01E5" unicode="&#x1e5;" 
d="M869 580q0 118 -36 205.5t-100.5 133.5t-144.5 46q-134 0 -196.5 -94.5t-62.5 -292.5t60.5 -290.5t200.5 -92.5q81 0 144.5 46.5t99 133.5t35.5 205zM1039 -93q-56 -331 -412 -331t-430 236l181 30q47 -130 232 -130q105 0 165 45t83 150h-756v93h767v261h-2
q-97 -199 -338 -199q-195 0 -290.5 127t-95.5 387q0 522 400 523q113 0 197 -52.5t129 -149.5h2q0 30 4 104t8 81h171q-6 -54 -6 -224v-858h66v-93h-75z" />
    <glyph glyph-name="uni01E6" unicode="&#x1e6;" 
d="M113 681q0 689 529 689q346 0 461 -331l-171 -56q-80 231 -288 231q-170 0 -250 -126t-80 -407q0 -546 341 -546q68 0 141 21t119 53v336h-293v160h479v-572q-229 -153 -471 -153t-379 186q-138 186 -138 515zM283 1704h104l232 -138h2l219 138h105v-20l-244 -239h-164
l-254 239v20z" />
    <glyph glyph-name="uni01E7" unicode="&#x1e7;" 
d="M869 551q0 193 -75 303t-209 111t-195 -95t-61 -283q-1 -187 25 -275t80 -127q54 -40 145 -40q91 -1 155 47q134 100 135 359zM143 552q0 280 98 414t302 133q113 -1 197 -53t128 -149h3q0 29 4 101t8 84h171q-6 -54 -6 -224v-826q0 -228 -106 -342t-327 -114
q-168 0 -270 69t-130 198l184 25q35 -156 222 -156q248 0 248 315v194h-2q-99 -209 -343 -209q-198 0 -290 130t-91 410zM254 1460h104l232 -138h2l219 138h105v-20l-244 -239h-164l-254 239v20z" />
    <glyph glyph-name="uni01E8" unicode="&#x1e8;" 
d="M353 0h-191v1349h191v-673l572 673h225l-504 -572l581 -777h-224l-487 638l-163 -169v-469zM280 1704h104l232 -138h2l219 138h105v-20l-244 -239h-164l-254 239v20z" />
    <glyph glyph-name="uni01E9" unicode="&#x1e9;" 
d="M320 1704h104l232 -138h2l219 138h105v-20l-244 -239h-164l-254 239v20zM416 0h-180v1349h180v-792l475 525h211l-439 -465l462 -617h-211l-366 499l-132 -98v-401z" />
    <glyph glyph-name="uni01EA" unicode="&#x1ea;" 
d="M614 1214q-311 0 -311 -540t316 -539q306 -1 306 539t-311 540zM1126 684q0 -340 -132 -522q-88 -122 -229 -162q-63 -36 -105 -98t-42 -117q0 -102 94 -102q54 0 115 24v-107q-63 -27 -153 -27t-144 51q-53 52 -53 128t37 134t87 94q-240 4 -370 181q-129 177 -129 517
t130 516t380 176t382 -174q132 -172 132 -512z" />
    <glyph glyph-name="uni01EB" unicode="&#x1eb;" 
d="M319 542q0 -429 288 -429q159 0 230 107t71 322t-68 321t-223 106q-154 0 -226 -108t-72 -319zM615 1102q482 0 482 -556q1 -278 -125 -422q-80 -92 -206 -125q-63 -36 -104 -98t-41 -116q0 -102 94 -102q54 0 115 24v-107q-64 -27 -154 -27t-143 51q-53 52 -53 128
t37 134t87 94q-228 2 -351 147t-123 419t126 416q126 140 359 140z" />
    <glyph glyph-name="uni01EC" unicode="&#x1ec;" 
d="M614 1214q-311 0 -311 -540t316 -539q306 -1 306 539t-311 540zM1126 684q0 -340 -132 -522q-90 -123 -233 -163q-63 -36 -104 -98t-41 -116q0 -102 94 -102q54 0 115 24v-107q-63 -27 -153 -27t-144 51q-53 52 -53 128t37 134t87 94q-239 5 -368 182q-129 176 -129 516
t130 516t380 176t382 -174q132 -172 132 -512zM890 1503h-551v127h551v-127z" />
    <glyph glyph-name="uni01ED" unicode="&#x1ed;" 
d="M319 542q0 -429 288 -429q159 0 230 107t71 322t-68 321t-223 106q-154 0 -226 -108t-72 -319zM615 1102q482 0 482 -556q1 -278 -125 -422q-79 -91 -202 -124h4q-64 -36 -106 -98t-41 -117q0 -102 94 -102q54 0 115 24v-107q-64 -27 -154 -27t-143 51q-53 52 -53 128
t37 134t87 94h-1q-231 0 -355 146t-124 420t126 416q126 140 359 140zM889 1235h-549v127h549v-127z" />
    <glyph glyph-name="uni01EE" unicode="&#x1ee;" 
d="M150 1193v156h988v-161l-505 -489q267 -17 401 -153t134 -385q0 -171 -70 -305t-202 -208q-130 -74 -282 -74t-254 36t-175 108q-72 70 -133 202l162 75q63 -143 156 -207t227 -65q175 1 279 117t104 317t-116 301t-365 100h-74v141l500 494h-775zM309 1704h104l232 -138
h2l219 138h105v-20l-244 -239h-164l-254 239v20z" />
    <glyph glyph-name="uni01EF" unicode="&#x1ef;" 
d="M197 1082h873v-176l-383 -362q195 -24 307 -150t112 -325q0 -139 -59 -253t-167 -178t-248 -63q-216 0 -343 95t-150 282l178 12q19 -132 96 -192t213 -60t218 100q81 100 81 259q1 160 -91 250t-255 90h-82v144l393 386h-693v141zM303 1460h104l232 -138h2l219 138h105
v-20l-244 -239h-164l-254 239v20z" />
    <glyph glyph-name="uni01F0" unicode="&#x1f0;" 
d="M421 -425q-191 0 -304 43v140q149 -34 275 -34t195 66t69 185v965h-407v142h587v-1110q0 -187 -112 -292t-303 -105zM283 1460h104l232 -138h2l219 138h105v-20l-244 -239h-164l-254 239v20z" />
    <glyph glyph-name="uni01F1" unicode="&#x1f1;" 
d="M1219 0h-562v142l380 1051h-307v156h489v-138l-385 -1055h385v-156zM489 685q0 261 -55.5 384.5t-178.5 123.5h-4v-1037h24q99 0 156.5 134t57.5 395zM656 688q0 -688 -402 -688h-165v1349h122q163 0 259.5 -66t141 -204.5t44.5 -390.5z" />
    <glyph glyph-name="uni01F2" unicode="&#x1f2;" 
d="M657 0v132l352 811h-312v139h485v-132l-357 -811h394v-139h-562zM489 685q0 261 -55.5 384.5t-178.5 123.5h-4v-1037h24q99 0 156.5 134t57.5 395zM656 688q0 -688 -402 -688h-165v1349h122q163 0 259.5 -66t141 -204.5t44.5 -390.5z" />
    <glyph glyph-name="uni01F3" unicode="&#x1f3;" 
d="M677 0v132l352 811h-312v139h485v-132l-357 -811h384v-139h-552zM218 539q0 -227 29 -326.5t96 -99.5t95 107.5t28 326.5t-28 318.5t-94 99.5t-96 -99.5t-30 -326.5zM286 -26q-122 0 -179 138.5t-57 419.5q0 566 238 566q71 0 109 -29.5t69 -114.5h2l-2 131v399h160
v-1261q0 -178 5 -223h-152q-9 24 -9 124h-5q-32 -87 -71 -118.5t-108 -31.5z" />
    <glyph glyph-name="uni01F4" unicode="&#x1f4;" 
d="M113 681q0 689 529 689q346 0 461 -331l-171 -56q-80 231 -288 231q-170 0 -250 -126t-80 -407q0 -546 341 -546q68 0 141 21t119 53v336h-293v160h479v-572q-229 -153 -471 -153t-379 186q-138 186 -138 515zM510 1445v20l217 226h207v-29l-310 -217h-114z" />
    <glyph glyph-name="uni01F5" unicode="&#x1f5;" 
d="M869 551q0 193 -75 303t-209 111t-195 -95t-61 -283q-1 -187 25 -275t80 -127q54 -40 145 -40q91 -1 155 47q134 100 135 359zM143 552q0 280 98 414t302 133q113 -1 197 -53t128 -149h3q0 29 4 101t8 84h171q-6 -54 -6 -224v-826q0 -228 -106 -342t-327 -114
q-168 0 -270 69t-130 198l184 25q35 -156 222 -156q248 0 248 315v194h-2q-99 -209 -343 -209q-198 0 -290 130t-91 410zM468 1201v20l227 239h197v-29l-300 -230h-124z" />
    <glyph glyph-name="uni01F6" unicode="&#x1f6;" 
d="M724 374q0 -143 30 -200t101 -57t103 57.5t32 199.5v648h154v-677q0 -365 -292 -365t-291 362v286h-305v-628h-163v1349h163v-566h305v566h163v-975z" />
    <glyph glyph-name="uni01F7" unicode="&#x1f7;" 
d="M934 872q0 343 -268 343q-89 0 -160 -48.5t-111.5 -133.5t-40.5 -184l-1 -847q155 60 292.5 199.5t213 317.5t75.5 353zM1129 888q0 -232 -98.5 -436t-275 -363t-402.5 -249v-265h-191v1774h184l1 -164q60 88 150 136.5t196 48.5q211 0 323.5 -125t112.5 -357z" />
    <glyph glyph-name="uni01F8" unicode="&#x1f8;" 
d="M332 876v-876h-170v1349h222l528 -1138q-18 144 -18 274v864h172v-1349h-230l-520 1130q16 -172 16 -254zM300 1692h207l217 -226v-20h-114l-310 217v29z" />
    <glyph glyph-name="uni01F9" unicode="&#x1f9;" 
d="M725 1102q173 0 258 -94t85 -287v-721h-181v695q-1 136 -53 202t-172 66q-120 -1 -198 -91q-80 -90 -80 -245v-627h-180v851q0 189 -6 231h170q4 -19 8 -185h3q105 205 346 205zM338 1460h197l227 -239v-20h-124l-300 230v29z" />
    <glyph glyph-name="Aringacute" unicode="&#x1fa;" 
d="M735 1210q0 38 -32.5 61t-88.5 23t-89 -23t-33 -61t33 -60.5t89 -22.5t88.5 22.5t32.5 60.5zM525 1445v20l227 240h197v-29l-300 -231h-124zM625 1011h-18l-14 -41q-37 -112 -58 -159l-140 -335h441l-135 335q-66 171 -76 200zM856 1204q0 -96 -87 -153l459 -1051h-194
l-138 323h-563l-137 -323h-196l465 1047q-93 57 -93 155t66.5 153t176.5 55t175.5 -55t65.5 -151z" />
    <glyph glyph-name="aringacute" unicode="&#x1fb;" 
d="M725 1256q0 38 -32.5 60.5t-88.5 22.5t-89 -22.5t-33 -60.5t33 -61t89 -23t88.5 23t32.5 61zM508 1496v20l227 189h197v-29l-300 -180h-124zM497 117q91 0 165 46t115 123t41 159v89l-190 -4q-118 -2 -180 -26t-96.5 -73.5t-34.5 -131.5t44.5 -132t135.5 -50zM362 1245
q0 100 66.5 155t176.5 55t175.5 -55.5t65.5 -143.5q0 -115 -104 -170q258 -60 258 -348v-466q0 -80 21 -120.5t80 -40.5q26 0 59 7v-112q-68 -16 -154 -16q-171 0 -182 217h-6q-65 -121 -153.5 -174t-232.5 -53t-224 86t-80 236q0 349 454 354l236 4v59q0 131 -53 188.5
t-170 57.5t-169 -42t-62 -130l-188 17q36 233 283 280q-97 55 -97 155z" />
    <glyph glyph-name="AEacute" unicode="&#x1fc;" 
d="M646 1202h-73q-41 -163 -211 -641h284v641zM646 412h-335l-142 -412h-168l486 1349h667v-152h-337v-430h327v-150h-327v-465h378v-152h-549v412zM647 1446v20l227 239h197v-29l-300 -230h-124z" />
    <glyph glyph-name="aeacute" unicode="&#x1fd;" 
d="M861 969q-85 0 -131 -87t-49 -241h361q-9 171 -53 249t-128 79zM189 298q-1 -182 117 -181q60 1 109 45q48 44 75 120t27 163v89l-122 -4q-79 -2 -119 -26q-86 -52 -87 -206zM873 1102q335 0 335 -575v-24h-529v-17q5 -371 185 -371q76 0 120 47t60 119l138 -45
q-68 -256 -314 -256q-122 0 -190 55t-102 177q-99 -232 -298 -232q-258 0 -258 322q0 349 330 354l167 4v59q0 135 -32 191t-105 55q-72 -1 -106 -41t-41 -131l-168 17q19 152 97 222t218 70q176 0 247 -139q85 139 246 139zM492 1201v20l227 239h197v-29l-300 -230h-124z
" />
    <glyph glyph-name="Oslashacute" unicode="&#x1fe;" 
d="M303 681q0 -166 30 -282l512 684q-77 131 -230 131q-312 0 -312 -533zM925 681q0 164 -30 278l-512 -686q79 -138 237 -138q306 0 305 546zM1126 657q0 -313 -132 -495t-366 -182q-233 0 -361 138l-117 -156l-94 65l141 189q-95 174 -95 488t130 490t383 176
q217 0 345 -134l116 156l94 -65l-140 -187q96 -170 96 -483zM502 1446v20l227 239h197v-29l-300 -230h-124z" />
    <glyph glyph-name="oslashacute" unicode="&#x1ff;" 
d="M299 542q0 -146 34 -238l509 576q-76 89 -232 89q-312 0 -311 -427zM928 542q0 147 -33 242l-509 -576q77 -95 233 -95q309 0 309 429zM1117 530q0 -260 -130 -405t-378 -145q-204 0 -331 107l-77 -87l-76 68l84 95q-99 143 -99 397t128 398t360 144q230 0 352 -100
l72 82l78 -68l-80 -90q97 -136 97 -396zM502 1201v20l227 239h197v-29l-300 -230h-124z" />
    <glyph glyph-name="uni0200" unicode="&#x200;" 
d="M616 1205l-81 -251l-151 -423h463zM1034 0l-138 382h-563l-137 -382h-196l510 1349h217l501 -1349h-194zM155 1692h207l217 -227v-20h-94l-330 218v29zM502 1692h207l217 -227v-20h-94l-330 218v29z" />
    <glyph glyph-name="uni0201" unicode="&#x201;" 
d="M497 117q91 0 165 46t115 123t41 159v89l-190 -4q-118 -2 -180 -26t-96 -74t-35 -131q1 -82 45 -132t135 -50zM1101 111q26 0 59 7v-112q-68 -16 -154 -16q-171 0 -182 217h-6q-66 -121 -154 -174t-232 -53t-224 86t-80 236q0 349 454 354l236 4v59q0 131 -53 189
t-170 57q-117 0 -169 -42t-62 -130l-188 17q46 292 423 292q201 0 301 -94t100 -270v-466q0 -80 21 -120t80 -41zM95 1448h207l217 -227v-20h-94l-330 218v29zM442 1448h207l217 -227v-20h-94l-330 218v29z" />
    <glyph glyph-name="uni0202" unicode="&#x202;" 
d="M616 1205l-81 -251l-151 -423h463zM1034 0l-138 382h-563l-137 -382h-196l510 1349h217l501 -1349h-194zM614 1710q118 0 196 -68t96 -192h-105q-15 62 -64 97t-124 35t-125 -36t-61 -96h-105q15 120 94 190t198 70z" />
    <glyph glyph-name="uni0203" unicode="&#x203;" 
d="M497 117q91 0 165 46t115 123t41 159v89l-190 -4q-118 -2 -180 -26t-96 -74t-35 -131q1 -82 45 -132t135 -50zM1101 111q26 0 59 7v-112q-68 -16 -154 -16q-171 0 -182 217h-6q-66 -121 -154 -174t-232 -53t-224 86t-80 236q0 349 454 354l236 4v59q0 131 -53 189
t-170 57q-117 0 -169 -42t-62 -130l-188 17q46 292 423 292q201 0 301 -94t100 -270v-466q0 -80 21 -120t80 -41zM593 1466q119 0 197 -68t95 -192h-105q-15 62 -64 97t-124 35q-74 0 -124 -36t-62 -96h-105q15 120 94 190t198 70z" />
    <glyph glyph-name="uni0204" unicode="&#x204;" 
d="M162 0v1349h919v-156h-728v-422h668v-154h-668v-461h769v-156h-960zM163 1692h207l217 -227v-20h-94l-330 218v29zM510 1692h207l217 -227v-20h-94l-330 218v29z" />
    <glyph glyph-name="uni0205" unicode="&#x205;" 
d="M619 969q-134 1 -212 -87t-83 -241h584q-28 328 -289 328zM617 1102q477 0 477 -575v-24h-772q0 -182 80 -285t221 -103q103 1 181 45t103 121l158 -45q-43 -124 -161 -190t-281 -66q-236 0 -363 147t-127 417q1 270 125 414t359 144zM115 1448h207l217 -227v-20h-94
l-330 218v29zM462 1448h207l217 -227v-20h-94l-330 218v29z" />
    <glyph glyph-name="uni0206" unicode="&#x206;" 
d="M162 0v1349h919v-156h-728v-422h668v-154h-668v-461h769v-156h-960zM634 1710q118 0 196 -68t96 -192h-105q-15 62 -64 97t-124 35t-125 -36t-61 -96h-105q15 120 94 190t198 70z" />
    <glyph glyph-name="uni0207" unicode="&#x207;" 
d="M619 969q-134 1 -212 -87t-83 -241h584q-28 328 -289 328zM617 1102q477 0 477 -575v-24h-772q0 -182 80 -285t221 -103q103 1 181 45t103 121l158 -45q-43 -124 -161 -190t-281 -66q-236 0 -363 147t-127 417q1 270 125 414t359 144zM614 1466q118 0 196 -68t96 -192
h-105q-15 62 -64 97t-124 35t-125 -36t-61 -96h-105q15 120 94 190t198 70z" />
    <glyph glyph-name="uni0208" unicode="&#x208;" 
d="M202 1349h823v-156h-316v-1037h316v-156h-823v156h316v1037h-316v156zM114 1692h207l217 -227v-20h-94l-330 218v29zM461 1692h207l217 -227v-20h-94l-330 218v29z" />
    <glyph glyph-name="uni0209" unicode="&#x209;" 
d="M745 142h380v-142h-982v142h422v798h-319v142h499v-940zM129 1448h207l217 -227v-20h-94l-330 218v29zM476 1448h207l217 -227v-20h-94l-330 218v29z" />
    <glyph glyph-name="uni020A" unicode="&#x20a;" 
d="M202 1349h823v-156h-316v-1037h316v-156h-823v156h316v1037h-316v156zM614 1710q118 0 196 -68t96 -192h-105q-15 62 -64 97t-124 35t-125 -36t-61 -96h-105q15 120 94 190t198 70z" />
    <glyph glyph-name="uni020B" unicode="&#x20b;" 
d="M745 142h380v-142h-982v142h422v798h-319v142h499v-940zM624 1466q118 0 196 -68t96 -192h-105q-15 62 -64 97t-124 35t-125 -36t-61 -96h-105q15 120 94 190t198 70z" />
    <glyph glyph-name="uni020C" unicode="&#x20c;" 
d="M614 1214q-311 0 -311 -540t316 -539q306 -1 306 539t-311 540zM1126 684q0 -340 -132 -522t-382 -182q-248 0 -379 179t-131 519t130 516t380 176t382 -174q132 -172 132 -512zM141 1692h207l217 -227v-20h-94l-330 218v29zM488 1692h207l217 -227v-20h-94l-330 218v29z
" />
    <glyph glyph-name="uni020D" unicode="&#x20d;" 
d="M319 542q0 -429 288 -429q159 0 230 107t71 322t-68 321t-223 106q-154 0 -226 -108t-72 -319zM615 1102q482 0 482 -556q1 -278 -125 -422t-360 -144t-358 146t-124 420t126 416q126 140 359 140zM115 1448h207l217 -227v-20h-94l-330 218v29zM462 1448h207l217 -227
v-20h-94l-330 218v29z" />
    <glyph glyph-name="uni020E" unicode="&#x20e;" 
d="M614 1214q-311 0 -311 -540t316 -539q306 -1 306 539t-311 540zM1126 684q0 -340 -132 -522t-382 -182q-248 0 -379 179t-131 519t130 516t380 176t382 -174q132 -172 132 -512zM614 1710q118 0 196 -68t96 -192h-105q-15 62 -64 97t-124 35t-125 -36t-61 -96h-105
q15 120 94 190t198 70z" />
    <glyph glyph-name="uni020F" unicode="&#x20f;" 
d="M319 542q0 -429 288 -429q159 0 230 107t71 322t-68 321t-223 106q-154 0 -226 -108t-72 -319zM615 1102q482 0 482 -556q1 -278 -125 -422t-360 -144t-358 146t-124 420t126 416q126 140 359 140zM614 1466q118 0 196 -68t96 -192h-105q-15 62 -64 97t-124 35t-125 -36
t-61 -96h-105q15 120 94 190t198 70z" />
    <glyph glyph-name="uni0210" unicode="&#x210;" 
d="M929 973q0 223 -304 223h-272v-470h280q143 0 219 64t77 183zM353 575v-575h-191v1349h482q233 -1 355 -97t122 -260q1 -164 -93 -267q-94 -102 -251 -128l400 -597h-220l-366 575h-238zM175 1692h207l217 -227v-20h-94l-330 218v29zM522 1692h207l217 -227v-20h-94
l-330 218v29z" />
    <glyph glyph-name="uni0211" unicode="&#x211;" 
d="M294 701q0 175 -52 381h171q40 -138 48 -250h5q50 112 98 164q96 106 275 106q104 0 206 -17v-167q-112 19 -212 19q-161 0 -260 -121t-99 -308v-508h-180v701zM115 1448h207l217 -227v-20h-94l-330 218v29zM462 1448h207l217 -227v-20h-94l-330 218v29z" />
    <glyph glyph-name="uni0212" unicode="&#x212;" 
d="M929 973q0 223 -304 223h-272v-470h280q143 0 219 64t77 183zM353 575v-575h-191v1349h482q233 -1 355 -97t122 -260q1 -164 -93 -267q-94 -102 -251 -128l400 -597h-220l-366 575h-238zM620 1710q118 0 196 -68t96 -192h-105q-15 62 -64 97t-124 35t-125 -36t-61 -96
h-105q15 120 94 190t198 70z" />
    <glyph glyph-name="uni0213" unicode="&#x213;" 
d="M294 701q0 175 -52 381h171q40 -138 48 -250h5q50 112 98 164q96 106 275 106q104 0 206 -17v-167q-112 19 -212 19q-161 0 -260 -121t-99 -308v-508h-180v701zM644 1466q118 0 196 -68t96 -192h-105q-15 62 -64 97t-124 35t-125 -36t-61 -96h-105q15 120 94 190t198 70z
" />
    <glyph glyph-name="uni0214" unicode="&#x214;" 
d="M1085 490q0 -266 -114 -388t-362 -122q-247 0 -357 118t-110 374v877h191v-851q1 -204 59 -284t216 -79q158 0 222 82q65 82 65 294v838h190v-859zM155 1692h207l217 -227v-20h-94l-330 218v29zM502 1692h207l217 -227v-20h-94l-330 218v29z" />
    <glyph glyph-name="uni0215" unicode="&#x215;" 
d="M528 -20q-178 0 -260 88t-83 293v721h180v-686q0 -156 49 -216q48 -60 176 -61q128 0 203 88t75 248v627h181v-851q0 -189 6 -231h-170q-4 19 -8 185h-3q-62 -113 -144 -159t-202 -46zM125 1448h207l217 -227v-20h-94l-330 218v29zM472 1448h207l217 -227v-20h-94
l-330 218v29z" />
    <glyph glyph-name="uni0216" unicode="&#x216;" 
d="M1085 490q0 -266 -114 -388t-362 -122q-247 0 -357 118t-110 374v877h191v-851q1 -204 59 -284t216 -79q158 0 222 82q65 82 65 294v838h190v-859zM614 1710q118 0 196 -68t96 -192h-105q-15 62 -64 97t-124 35t-125 -36t-61 -96h-105q15 120 94 190t198 70z" />
    <glyph glyph-name="uni0217" unicode="&#x217;" 
d="M528 -20q-178 0 -260 88t-83 293v721h180v-686q0 -156 49 -216q48 -60 176 -61q128 0 203 88t75 248v627h181v-851q0 -189 6 -231h-170q-4 19 -8 185h-3q-62 -113 -144 -159t-202 -46zM614 1466q118 0 196 -68t96 -192h-105q-15 62 -64 97t-124 35t-125 -36t-61 -96h-105
q15 120 94 190t198 70z" />
    <glyph glyph-name="Scommaaccent" unicode="&#x218;" 
d="M1128 370q0 -184 -134 -287t-384 -103q-457 0 -531 358l185 37q28 -129 116 -187t241 -59q153 0 235 62t83 181q1 164 -237 226q-66 18 -182 48q-212 55 -293 139q-82 85 -82 225q-1 172 121 266t342 94t331 -74q112 -74 156 -250l-188 -33q-24 113 -96 163t-197 50
q-283 0 -283 -213q1 -105 99 -159q46 -24 106 -41t164 -43t165 -50q127 -49 195 -130q68 -82 68 -220zM720 -204q0 -152 -84 -251h-117q94 100 94 190h-88v167h195v-106z" />
    <glyph glyph-name="scommaaccent" unicode="&#x219;" 
d="M378 814q0 -60 42 -96t133 -58l119 -31q162 -40 234 -79q154 -84 154 -239t-116 -243t-323 -88q-205 0 -313 64t-141 204l159 31q20 -85 82 -125t213 -40q270 0 270 171q0 63 -49 103t-150 65q-264 65 -335 102q-147 77 -147 227q0 151 106 234t294 83q371 0 425 -260
l-162 -20q-22 146 -259 146q-236 0 -236 -151zM720 -204q0 -152 -84 -251h-117q94 100 94 190h-88v167h195v-106z" />
    <glyph glyph-name="uni021A" unicode="&#x21a;" 
d="M709 1193v-1193h-190v1193h-443v156h1076v-156h-443zM720 -204q0 -152 -84 -251h-117q94 100 94 190h-88v167h195v-106z" />
    <glyph glyph-name="uni021B" unicode="&#x21b;" 
d="M190 940v142h170l58 282h120v-282h432v-142h-432v-652q0 -79 42 -117t158 -38t279 34v-137q-169 -46 -333 -46t-245 68t-81 217v671h-168zM720 -204q0 -152 -84 -251h-117q94 100 94 190h-88v167h195v-106z" />
    <glyph glyph-name="uni021C" unicode="&#x21c;" 
d="M120 1095q162 275 482 275q288 0 372 -129.5t84 -227.5t-29.5 -168.5t-99.5 -142.5q144 -135 144 -342q0 -530 -881 -787v166q343 97 518 250t175 350q0 160 -79 245q-176 -135 -615 -280v173q358 110 520 229t162 277q0 111 -69.5 168t-190.5 57t-199.5 -42t-140.5 -150
z" />
    <glyph glyph-name="uni021D" unicode="&#x21d;" 
d="M1040 228q0 -150 -92 -276.5t-283.5 -225t-449.5 -152.5v155q318 77 482 198.5t164 278.5q0 113 -88 164q-228 -115 -558 -173v148q227 50 337 90.5t209.5 112t99.5 211.5q0 102 -61.5 156t-178.5 54t-184 -42.5t-104 -134.5l-169 33q52 142 161 209.5t305 67.5t303 -87
t107 -254t-121 -279q121 -104 121 -254z" />
    <glyph glyph-name="uni021E" unicode="&#x21e;" 
d="M875 0v623h-522v-623h-191v1349h191v-566h522v566h191v-1349h-191zM283 1704h104l232 -138h2l219 138h105v-20l-244 -239h-164l-254 239v20z" />
    <glyph glyph-name="uni021F" unicode="&#x21f;" 
d="M270 1724h104l232 -138h2l219 138h105v-20l-244 -239h-164l-254 239v20zM185 1348h181v-254q0 -59 -9 -197h3q105 205 339 205q350 0 350 -381v-721h-181v695q0 136 -52 202t-172 66t-199.5 -90.5t-79.5 -245.5v-627h-180v1348z" />
    <glyph glyph-name="uni0220" unicode="&#x220;" 
d="M904 -425v1355q0 158 -57 229.5t-186 71.5q-85 0 -174 -51.5t-145 -128.5v-1051h-180v1350h178v-151q171 171 373 171t287 -105t85 -335v-1355h-181z" />
    <glyph glyph-name="uni0221" unicode="&#x221;" 
d="M958 -58q-56 0 -134 -49q0 -80 36 -127t92 -47t87.5 28.5t31.5 78.5t-28.5 83t-84.5 33zM225 542q0 -232 44.5 -327.5t160.5 -95.5t168.5 104.5t52.5 326.5t-51.5 320.5t-167.5 98.5t-161.5 -97.5t-45.5 -329.5zM370 -20q-177 0 -255.5 138t-78.5 420t81 423t253 141
q106 0 172 -45t109 -143h2l-2 121v449h180v-1261l2 -159q65 23 125 23q128 0 198 -67.5t70 -168.5t-36 -157.5t-97.5 -87.5t-135.5 -31q-185 0 -264 189q-72 -68 -157 -190l-110 117q121 169 229 265v218h-4q-45 -107 -111 -150.5t-170 -43.5z" />
    <glyph glyph-name="uni0222" unicode="&#x222;" 
d="M955 408q0 124 -92.5 194t-250.5 70t-249 -76t-91 -206t89 -200t256 -70q338 0 338 288zM1101 1066q0 -124 -71 -212.5t-197 -111.5v-4q145 -22 225.5 -114t80.5 -233q0 -193 -138.5 -302t-388.5 -109t-386.5 108t-136.5 301q0 139 85 233t217 114v4q-137 37 -201.5 99.5
t-64.5 159.5q0 138 114.5 213.5t334.5 79.5v-130q-137 -4 -202.5 -46t-65.5 -128t82.5 -133t226.5 -47t223 64t79 178t-72.5 177.5t-210.5 68.5v134q219 -5 343 -103.5t124 -260.5z" />
    <glyph glyph-name="uni0223" unicode="&#x223;" 
d="M614 743q-139 0 -222 -83.5t-83 -230.5t77.5 -227.5t228.5 -80.5t228 81t77 237q0 87 -36.5 156.5t-106 108.5t-163.5 39zM614 874q125 0 194 68t69 193q0 81 -40.5 144t-113.5 98l73 113q139 -68 200.5 -155t61.5 -207t-63.5 -206.5t-175.5 -118.5v-4
q130 -31 206 -131.5t76 -243.5q0 -213 -128.5 -328.5t-359.5 -115.5t-358 116t-127 328q0 144 76 243.5t206 131.5v4q-111 31 -175 118t-64 207t61.5 207t200.5 155l73 -113q-73 -35 -113.5 -98t-40.5 -144q0 -126 68.5 -193.5t193.5 -67.5z" />
    <glyph glyph-name="uni0224" unicode="&#x224;" 
d="M146 1193v156h962v-139l-818 -1054h595q132 0 206.5 -65.5t74.5 -191.5q0 -77 -17 -154l-155 34q18 55 18 107t-35.5 83t-112.5 31h-791v143l818 1050h-745z" />
    <glyph glyph-name="uni0225" unicode="&#x225;" 
d="M187 943v139h844v-137l-682 -806h457q147 0 214 -56t67 -171q0 -71 -19 -157l-155 34q20 49 20 100q0 111 -148 111h-638v137l681 806h-641z" />
    <glyph glyph-name="uni0226" unicode="&#x226;" 
d="M616 1205l-81 -251l-151 -423h463zM1034 0l-138 382h-563l-137 -382h-196l510 1349h217l501 -1349h-194zM525 1446v192h200v-192h-200z" />
    <glyph glyph-name="uni0227" unicode="&#x227;" 
d="M497 117q91 0 165 46t115 123t41 159v89l-190 -4q-118 -2 -180 -26t-96 -74t-35 -131q1 -82 45 -132t135 -50zM1101 111q26 0 59 7v-112q-68 -16 -154 -16q-171 0 -182 217h-6q-66 -121 -154 -174t-232 -53t-224 86t-80 236q0 349 454 354l236 4v59q0 131 -53 189
t-170 57q-117 0 -169 -42t-62 -130l-188 17q46 292 423 292q201 0 301 -94t100 -270v-466q0 -80 21 -120t80 -41zM515 1292v192h200v-192h-200z" />
    <glyph glyph-name="uni0228" unicode="&#x228;" 
d="M579 -348q147 0 147 84t-133 84q-43 0 -57 -2l65 182h-439v1349h919v-156h-728v-422h668v-154h-668v-461h769v-156h-414l-39 -100q94 -2 141 -44t47 -114q0 -186 -274 -186q-57 0 -90 4v98q50 -6 86 -6z" />
    <glyph glyph-name="uni0229" unicode="&#x229;" 
d="M619 969q-134 1 -212 -87t-83 -241h584q-28 328 -289 328zM617 1102q477 0 477 -575v-24h-772q0 -182 80 -285t221 -103q103 1 181 45t103 121l158 -45q-44 -124 -153 -185t-243 -70l-32 -81q94 -2 141 -44t47 -114q0 -186 -274 -186q-57 0 -90 4v98q50 -6 86 -6
q147 0 147 84t-133 84q-43 0 -57 -2l59 165q-192 17 -311 154t-119 407q1 270 125 414t359 144z" />
    <glyph glyph-name="uni022A" unicode="&#x22a;" 
d="M614 1214q-311 0 -311 -540t316 -539q306 -1 306 539t-311 540zM1126 684q0 -340 -132 -522t-382 -182q-248 0 -379 179t-131 519t130 516t380 176t382 -174q132 -172 132 -512zM889 1708h-549v127h549v-127zM316 1458v184h163v-184h-163zM750 1458v184h163v-184h-163z
" />
    <glyph glyph-name="uni022B" unicode="&#x22b;" 
d="M319 542q0 -429 288 -429q159 0 230 107t71 322t-68 321t-223 106q-154 0 -226 -108t-72 -319zM615 1102q482 0 482 -556q1 -278 -125 -422t-360 -144t-358 146t-124 420t126 416q126 140 359 140zM336 1219v184h165v-184h-165zM730 1219v184h163v-184h-163zM889 1515
h-549v127h549v-127z" />
    <glyph glyph-name="uni022C" unicode="&#x22c;" 
d="M614 1214q-311 0 -311 -540t316 -539q306 -1 306 539t-311 540zM1126 684q0 -340 -132 -522t-382 -182q-248 0 -379 179t-131 519t130 516t380 176t382 -174q132 -172 132 -512zM747 1475q-57 -1 -141 37t-126 38q-78 0 -93 -75h-91q10 82 32 118q45 76 161 76
q55 1 138 -37t124 -38q78 0 90 75h92q-12 -81 -33 -118q-20 -37 -58 -57t-95 -19zM889 1708h-549v127h549v-127z" />
    <glyph glyph-name="uni022D" unicode="&#x22d;" 
d="M319 542q0 -429 288 -429q159 0 230 107t71 322t-68 321t-223 106q-154 0 -226 -108t-72 -319zM615 1102q482 0 482 -556q1 -278 -125 -422t-360 -144t-358 146t-124 420t126 416q126 140 359 140zM464 1320q-36 0 -51 -10t-25 -27q-10 -18 -21 -82h-111q10 96 34 145
q49 103 169 103q62 1 168 -59q40 -22 77 -42q37 -18 72 -18t55 24t30 95h112q-15 -138 -65 -193t-124 -55q-74 -1 -179 59t-141 60zM889 1565h-549v127h549v-127z" />
    <glyph glyph-name="uni022E" unicode="&#x22e;" 
d="M614 1214q-311 0 -311 -540t316 -539q306 -1 306 539t-311 540zM1126 684q0 -340 -132 -522t-382 -182q-248 0 -379 179t-131 519t130 516t380 176t382 -174q132 -172 132 -512zM525 1446v192h200v-192h-200z" />
    <glyph glyph-name="uni022F" unicode="&#x22f;" 
d="M319 542q0 -429 288 -429q159 0 230 107t71 322t-68 321t-223 106q-154 0 -226 -108t-72 -319zM615 1102q482 0 482 -556q1 -278 -125 -422t-360 -144t-358 146t-124 420t126 416q126 140 359 140zM515 1292v192h200v-192h-200z" />
    <glyph glyph-name="uni0230" unicode="&#x230;" 
d="M614 1214q-311 0 -311 -540t316 -539q306 -1 306 539t-311 540zM1126 684q0 -340 -132 -522t-382 -182q-248 0 -379 179t-131 519t130 516t380 176t382 -174q132 -172 132 -512zM889 1708h-549v127h549v-127zM527 1468v184h163v-184h-163z" />
    <glyph glyph-name="uni0231" unicode="&#x231;" 
d="M319 542q0 -429 288 -429q159 0 230 107t71 322t-68 321t-223 106q-154 0 -226 -108t-72 -319zM615 1102q482 0 482 -556q1 -278 -125 -422t-360 -144t-358 146t-124 420t126 416q126 140 359 140zM515 1292v192h200v-192h-200zM889 1515h-549v127h549v-127z" />
    <glyph glyph-name="uni0232" unicode="&#x232;" 
d="M708 0h-188v584l-484 765h205l374 -611l372 611h205l-484 -765v-584zM889 1515h-549v127h549v-127z" />
    <glyph glyph-name="uni0233" unicode="&#x233;" 
d="M292 -425q-74 0 -124 11v135q38 -6 84 -6q78 0 148 59t118 188l18 49l-470 1071h192l264 -642q91 -224 98 -254l41 110l310 786h190l-456 -1082q-89 -235 -185 -330t-228 -95zM889 1235h-549v127h549v-127z" />
    <glyph glyph-name="uni0234" unicode="&#x234;" 
d="M746 -58q-56 0 -134 -49q0 -80 36 -127t92 -47t87.5 28.5t31.5 78.5t-28.5 83t-84.5 33zM619 1484v-1421q68 24 127 24q128 0 198 -67.5t70 -168.5t-36 -157.5t-97.5 -87.5t-135.5 -31q-185 0 -264 189l-157 -190l-110 117q127 179 225 265v1528h180z" />
    <glyph glyph-name="uni0235" unicode="&#x235;" 
d="M961 -58q-56 0 -134 -49q0 -80 35.5 -127t91.5 -47t88 28.5t32 78.5t-28.5 83t-84.5 33zM579 1102q137 0 198.5 -90.5t61.5 -290.5v-658q68 24 127 24q125 0 194 -66.5t69 -168.5t-36 -158.5t-97.5 -87.5t-135.5 -31q-185 0 -264 189l-157 -190l-110 117q121 169 229 265
v730q0 156 -32 216.5t-118 60.5t-136 -87t-50 -249v-627h-180v851q0 189 -6 231h170q4 -19 8 -185h2q48 114 111 159.5t152 45.5z" />
    <glyph glyph-name="uni0236" unicode="&#x236;" 
d="M781 232q0 50 -28.5 82.5t-76.5 32.5t-77 -14.5t-61 -34.5q0 -84 34 -129t90 -45t87.5 29t31.5 79zM672 492q127 0 195.5 -67.5t68.5 -168.5t-36 -157.5t-97.5 -87.5t-135.5 -31q-190 0 -271 189l-157 -190l-110 117q121 169 229 265v579h-168v142h170l58 282h120v-282
h432v-142h-432v-472q68 24 134 24z" />
    <glyph glyph-name="uni0238" unicode="&#x238;" 
d="M991 542q0 427 -138 427q-159 0 -159 -425t161 -425q70 0 103 102.5t33 320.5zM375 969q-138 0 -138 -427q0 -216 32.5 -319.5t103.5 -103.5q161 0 161 425t-159 425zM541 144h-3q-55 -164 -219 -164q-133 0 -191 130t-58 420t66.5 431t189.5 141q73 0 123.5 -33
t84.5 -115h2l-2 113v417h160v-417l-2 -113h2q34 82 84.5 115t123.5 33q123 0 189.5 -141t66.5 -432t-58 -420t-191 -129q-162 0 -219 164h-3q0 -94 -5 -144h-136q-5 50 -5 144z" />
    <glyph glyph-name="uni0239" unicode="&#x239;" 
d="M991 530q0 433 -136 433q-161 0 -161 -425t159 -425q72 0 105 102t33 315zM237 530q0 -210 32.5 -313.5t105.5 -103.5q159 0 159 425t-161 425q-136 0 -136 -433zM687 938h3q57 164 219 164q130 0 189.5 -136.5t59.5 -439.5q0 -546 -256 -546q-79 0 -127.5 35t-80.5 113
h-2l2 -112v-441h-160v441l2 112h-2q-32 -77 -80.5 -112.5t-127.5 -35.5q-256 0 -256 546q0 303 59 439.5t190 136.5q164 0 219 -164h3q0 94 5 144h136q5 -50 5 -144z" />
    <glyph glyph-name="uni023A" unicode="&#x23a;" 
d="M760 783l-168 -252h255zM384 531h46l274 412l-88 262l-81 -251zM1034 0l-138 382h-403l-332 -498h-162l77 116h-76l510 1349h217l88 -239l250 374h162l-354 -531l355 -953h-194z" />
    <glyph glyph-name="uni023B" unicode="&#x23b;" 
d="M314 681q0 -186 39 -309l476 779q-76 63 -179 63q-171 0 -253.5 -129t-82.5 -404zM113 681q0 689 536 689q157 0 269 -73l115 187h162l-173 -283q58 -74 93 -166l-168 -65q-13 37 -27 65l-492 -804q84 -96 233 -96q211 0 322 282l159 -65q-154 -372 -483 -372
q-194 0 -324 99l-132 -216h-162l196 321q-124 181 -124 497z" />
    <glyph glyph-name="uni023C" unicode="&#x23c;" 
d="M382 570q0 -200 45 -301l304 682q-34 10 -78 10q-143 0 -207 -95.5t-64 -295.5zM194 524q0 291 120 434.5t344 143.5q73 0 133 -16l178 398h142l-201 -451q129 -86 161 -254l-185 -14q-11 68 -45 114l-322 -722q55 -35 143 -35t153 52t80 160l182 -12q-21 -156 -133 -249
t-284 -93q-116 0 -204 37l-197 -442h-142l229 514q-152 144 -152 435z" />
    <glyph glyph-name="uni023D" unicode="&#x23d;" 
d="M237 0v604h-138v156h138v589h191v-589h403v-156h-403v-448h672v-156h-863z" />
    <glyph glyph-name="uni023E" unicode="&#x23e;" 
d="M709 1193v-239l146 239h-146zM709 0h-190v379l-316 -516h-162l478 781v549h-443v156h874l83 135h162l-83 -135h40v-156h-135l-308 -503v-690z" />
    <glyph glyph-name="uni023F" unicode="&#x23f;" 
d="M379 814q0 -85 71 -116.5t218 -67.5t266.5 -94.5t119.5 -236.5q0 -153 -115.5 -236t-323.5 -83q-33 0 -103 10l195 -210q49 -53 118 -53t122 61l96 -113q-96 -101 -215 -101q-154 0 -280 154l-141 165q-73 83 -145 173t-87 113l133 87q57 -88 123.5 -118.5t183.5 -30.5
q264 0 264 168q0 64 -44 104t-142 66l-129 34q-155 40 -257.5 100t-102.5 208q0 147 106 224.5t296 77.5t295.5 -63t133.5 -202l-162 -20q-31 149 -263 149q-231 0 -231 -149z" />
    <glyph glyph-name="uni0240" unicode="&#x240;" 
d="M326 0h-156v139l661 804h-621v139h824v-137l-662 -806q114 0 161.5 -34t115.5 -114l170 -201q52 -63 108 -63q55 0 115 68l96 -113q-103 -108 -204 -108t-154 43t-111 114l-160 193q-37 44 -71 60t-112 16z" />
    <glyph glyph-name="uni0241" unicode="&#x241;" 
d="M559 1289q-275 0 -327 -235l-181 29q36 165 168.5 256t343.5 91q261 0 399 -133t138 -381t-127.5 -388t-347.5 -148v-380h-180v536q52 -14 127 -14q340 0 340 384q0 198 -86.5 290.5t-266.5 92.5z" />
    <glyph glyph-name="uni0242" unicode="&#x242;" 
d="M534 0v432q143 0 224.5 72t81.5 200t-54.5 192.5t-181.5 64.5q-191 0 -219 -196l-185 14q26 150 133.5 236.5t291.5 86.5t293.5 -105t109.5 -300q0 -143 -81.5 -244t-232.5 -139v-314h-180z" />
    <glyph glyph-name="uni0243" unicode="&#x243;" 
d="M878 998q0 107 -75.5 152.5t-226.5 45.5h-223v-416h225q300 0 300 218zM619 153q340 0 340 239t-354 239h-252v-170h354v-133h-354v-175h266zM1152 380q0 -180 -137 -280t-381 -100h-472v328h-129v133h129v888h412q496 0 496 -327q0 -122 -71.5 -203.5t-196.5 -107.5
q167 -18 258.5 -107t91.5 -224z" />
    <glyph glyph-name="uni0244" unicode="&#x244;" 
d="M604 135q161 0 226 82t65 294v85h-562v-98q0 -147 26 -221.5t84.5 -108t160.5 -33.5zM1085 749h133v-153h-133v-106q0 -267 -114 -388.5t-361 -121.5t-357.5 116.5t-110.5 375.5v124h-131v153h131v600h191v-600h562v600h190v-600z" />
    <glyph glyph-name="uni0245" unicode="&#x245;" 
d="M1218 0h-201l-318 902q-48 144 -84 279q-53 -193 -84 -279l-320 -902h-201l505 1349h198z" />
    <glyph glyph-name="uni0246" unicode="&#x246;" 
d="M353 156h41l198 461h-239v-461zM353 771h306l182 422h-488v-422zM162 0v1349h746l58 135h142l-58 -135h31v-156h-98l-182 -422h220v-154h-287l-198 -461h586v-156h-652l-97 -224h-143l97 224h-165z" />
    <glyph glyph-name="uni0247" unicode="&#x247;" 
d="M908 641q-14 145 -69 223l-100 -223h169zM322 503q0 -185 84 -289l129 289h-213zM619 969q-134 0 -212 -87.5t-83 -240.5h272l138 307q-52 21 -115 21zM646 115q80 0 157.5 44.5t103.5 121.5l158 -45q-44 -124 -161.5 -190t-280.5 -66q-92 0 -168 22l-191 -426h-143
l215 482q-203 135 -203 490q0 267 124.5 410.5t359.5 143.5q95 0 174 -25l182 407h142l-207 -464q186 -137 186 -493v-24h-416l-165 -369q53 -19 133 -19z" />
    <glyph glyph-name="uni0248" unicode="&#x248;" 
d="M986 749h134v-152h-134v-177q0 -209 -105 -324.5t-285 -115.5t-282.5 89t-137.5 281l187 31q18 -117 75 -181.5t149 -64.5q209 0 209 281v181h-263v152h263v444h-311v156h501v-600z" />
    <glyph glyph-name="uni0249" unicode="&#x249;" 
d="M636 1292v192h200v-192h-200zM421 -425q-191 0 -304 43v140q149 -34 275 -34t195 66t69 185v509h-378v133h378v323h-407v142h587v-465h258v-133h-258v-512q0 -187 -112 -292t-303 -105z" />
    <glyph glyph-name="uni024A" unicode="&#x24a;" 
d="M314 681q0 -546 347 -546q153 0 243 121v830q-79 128 -252 128t-255.5 -129t-82.5 -404zM1095 -115q0 -148 109 -148q53 0 100 14v-162q-58 -14 -136 -14q-263 0 -263 288v212q-102 -95 -265 -95q-254 0 -390.5 184t-136.5 519t136.5 511t399.5 176q177 0 282 -92l133 77
h31v-1470z" />
    <glyph glyph-name="uni024B" unicode="&#x24b;" 
d="M586 119q282 0 281 432q0 214 -69 316t-213 102t-204 -102t-60 -327t60.5 -323t204.5 -98zM1047 -115q1 -148 103 -148q46 0 94 12v-162q-50 -12 -124 -12q-124 0 -188.5 74.5t-64.5 221.5v178l4 129h-2q-54 -107 -133 -152.5t-206 -45.5q-206 0 -302 139t-96 417
q0 566 398 566q123 0 203 -43.5t134 -144.5h2q0 30 4 103.5t8 78.5h173q-7 -59 -7 -295v-916z" />
    <glyph glyph-name="uni024C" unicode="&#x24c;" 
d="M929 973q0 223 -304 223h-272v-470h280q146 0 221 64t75 183zM353 575v-575h-191v575h-162v150h162v624h482q233 0 355 -96.5t122 -260.5t-93.5 -266.5t-250.5 -128.5l400 -597h-220l-366 575h-238z" />
    <glyph glyph-name="uni024D" unicode="&#x24d;" 
d="M294 701q0 175 -52 381h171q40 -138 48 -250h5q50 112 122 191t251 79q104 0 206 -17v-167q-112 19 -227 19t-207 -82.5t-124 -222.5h369v-146h-382v-486h-180v486h-124v146h124v69z" />
    <glyph glyph-name="uni024E" unicode="&#x24e;" 
d="M615 738l130 214h-261zM1219 1098v-146h-279l-232 -368v-584h-188v584l-233 368h-276v146h184l-159 251h205l153 -251h440l153 251h205l-159 -251h186z" />
    <glyph glyph-name="uni024F" unicode="&#x24f;" 
d="M620 186l159 409h-321q154 -373 162 -409zM1195 741v-146h-239l-251 -595q-67 -173 -153.5 -299t-259.5 -126q-74 0 -124 11v135q38 -6 84 -6q79 0 148.5 59t117.5 188l18 49l-257 584h-242v146h178l-149 341h192l140 -341h439l134 341h190l-144 -341h178z" />
    <glyph glyph-name="uni0250" unicode="&#x250;" 
d="M712 965q-91 0 -165 -46t-115 -123t-41 -159v-89l190 4q118 2 180 26t96.5 73.5t34.5 131.5t-44.5 132t-135.5 50zM108 971q-26 0 -59 -7v112q67 16 153 16q171 0 183 -217h6q65 121 153.5 174t232.5 53t224 -86t80 -236q0 -349 -454 -354l-236 -4v-59q0 -131 53 -188.5
t170 -57.5t169 42t62 130l188 -17q-46 -292 -423 -292q-200 0 -300.5 93.5t-100.5 270.5v466q0 80 -21 120.5t-80 40.5z" />
    <glyph glyph-name="uni0251" unicode="&#x251;" 
d="M584 113q279 -1 279 435q0 218 -68 317.5t-209 99.5t-201.5 -102t-60.5 -323t60 -324t200 -103zM530 -26q-203 0 -297.5 140t-94.5 418q0 566 391 566q129 0 206 -44.5t126 -139.5h2q0 31 4 97t8 72h175q-6 -51 -6 -282v-578q0 -79 7 -223h-173q-7 74 -11 182h-2
q-53 -107 -131.5 -157.5t-203.5 -50.5z" />
    <glyph glyph-name="uni0252" unicode="&#x252;" 
d="M904 542q0 220 -61 321.5t-201 101.5q-276 0 -277 -441q0 -210 66.5 -310.5t208.5 -100.5t203 104.5t61 324.5zM362 164q0 -110 -9 -164h-174q6 54 6 223v617q0 151 -6 242h172q10 -57 10 -178h4q91 200 334 200q391 0 391 -558q0 -284 -101.5 -425t-290.5 -141
q-244 0 -334 184h-2z" />
    <glyph glyph-name="uni0253" unicode="&#x253;" 
d="M904 542q0 220 -61 321.5t-201 101.5q-276 0 -277 -441q0 -210 66.5 -310.5t208.5 -100.5t203 104.5t61 324.5zM362 164q0 -110 -9 -164h-174q6 54 6 223v965q0 142 74 219t220 77q66 0 145 -17v-166q-58 21 -124 21q-135 0 -135 -148v-113q0 -65 -4 -157h4
q91 200 334 200q391 0 391 -558q0 -284 -101.5 -425t-290.5 -141q-244 0 -334 184h-2z" />
    <glyph glyph-name="uni0254" unicode="&#x254;" 
d="M1089 551q0 -272 -132 -421.5t-375 -149.5q-181 0 -297 87t-144 236l192 14q35 -196 256 -196q311 0 311 426q0 219 -73 317.5t-231 98.5q-108 0 -179 -53t-88 -162l-190 12q13 94 75 173t163 124t224 45q488 0 488 -551z" />
    <glyph glyph-name="uni0255" unicode="&#x255;" 
d="M440 184q70 -70 234 -70t217.5 54t53.5 97q0 107 -144 107q-187 0 -361 -188zM144 558q0 254 129 399t373 145q181 0 298 -85.5t148 -237.5l-192 -14q-34 196 -263 196q-158 0 -231 -98.5t-73 -317.5q0 -149 29 -231q89 90 203.5 143t241.5 53q286 0 286 -229
q0 -145 -115.5 -223t-311.5 -78t-321 79q-34 -48 -92 -148l-123 89q72 116 109 166q-95 138 -95 392z" />
    <glyph glyph-name="uni0256" unicode="&#x256;" 
d="M583 113q280 0 280 433q0 222 -67.5 320.5t-209.5 98.5t-202 -103.5t-60 -325.5t59.5 -322.5t199.5 -100.5zM1043 -115q1 -148 103 -148q46 0 94 12v-162q-50 -12 -124 -12q-247 0 -247 296v303h-7q-49 -105 -130 -152.5t-202 -47.5q-202 0 -297 139t-95 419
q0 566 392 566q121 0 202.5 -43t130.5 -141h2l-2 151v419h180v-1599z" />
    <glyph glyph-name="uni0257" unicode="&#x257;" 
d="M583 113q280 0 280 433q0 222 -67.5 320.5t-209.5 98.5t-202 -103.5t-60 -325.5t59.5 -322.5t199.5 -100.5zM867 174h-5q-49 -105 -130 -152.5t-202 -47.5q-202 0 -297 139t-95 419q0 566 392 566q121 0 202.5 -43t130.5 -141h2l-2 151v137q0 296 283 296q65 0 135 -15
v-168q-58 21 -117 21q-121 0 -121 -148v-965q0 -169 6 -223h-172q-10 20 -10 174z" />
    <glyph glyph-name="uni0258" unicode="&#x258;" 
d="M616 969q-132 0 -209 -84.5t-89 -243.5h585q-5 154 -80 241t-207 87zM133 503v24q0 281 125 428t359 147t355.5 -142t121.5 -414t-127 -419t-363 -147q-165 0 -281.5 66t-160.5 190l158 45q26 -77 103.5 -121.5t180.5 -44.5q141 0 221 103t80 285h-772z" />
    <glyph glyph-name="uni0259" unicode="&#x259;" 
d="M608 113q134 0 212 87.5t83 240.5h-584q28 -328 289 -328zM489 -20q-356 0 -356 575v24h772q0 182 -80.5 285t-220.5 103q-103 0 -180.5 -44.5t-103.5 -121.5l-158 45q44 124 161.5 190t280.5 66q236 0 363 -147t127 -417t-124.5 -414t-480.5 -144z" />
    <glyph glyph-name="uni0259" unicode="&#x4d9;" 
d="M608 113q134 0 212 87.5t83 240.5h-584q28 -328 289 -328zM489 -20q-356 0 -356 575v24h772q0 182 -80.5 285t-220.5 103q-103 0 -180.5 -44.5t-103.5 -121.5l-158 45q44 124 161.5 190t280.5 66q236 0 363 -147t127 -417t-124.5 -414t-480.5 -144z" />
    <glyph glyph-name="uni025A" unicode="&#x25a;" 
d="M487 113q121 0 189 100.5t68 286.5l-3 79l-511 -111q13 -184 74.5 -269.5t182.5 -85.5zM478 1102q346 0 426 -348l114 26l22 -129q11 -68 30.5 -101.5t59.5 -33.5t101 40l54 -140q-86 -59 -162 -59t-130 74t-69 196q4 -40 4 -93q0 -266 -114 -410t-330 -144
q-437 0 -437 575v24l677 144q-49 244 -247 244q-92 0 -156.5 -43.5t-86.5 -122.5l-158 45q86 256 402 256z" />
    <glyph glyph-name="uni025B" unicode="&#x25b;" 
d="M637 968q-247 0 -247 -166q0 -81 96 -125t332 -44v-135q-256 0 -356 -50t-100 -150q0 -184 259 -184q107 0 203 42t160 119l105 -100q-161 -195 -480 -195q-214 0 -324 82t-110 233q-1 108 77 183t197 86v2q-107 13 -174 81t-67 166q0 133 116 211t288 78t278 -43
t172 -142l-128 -88q-92 139 -297 139z" />
    <glyph glyph-name="uni025C" unicode="&#x25c;" 
d="M870 299q0 95 -106 147t-290 53v137q182 0 280 45t98 127q0 160 -247 160q-129 0 -193 -36t-76 -108l-162 20q24 138 132 198t302 60q196 0 312 -76t115 -209q0 -133 -137 -205q-64 -34 -136 -41v-2q128 -14 214 -87t85 -178q-1 -154 -119 -239t-328 -85t-318 60
q-109 60 -158 194l159 44q51 -164 312 -164t261 185z" />
    <glyph glyph-name="uni025D" unicode="&#x25d;" 
d="M1097 669q51 0 131 40l59 -147q-126 -52 -214 -52t-152 60.5t-90 172.5q-33 -130 -213 -185q121 -20 185 -89t64 -180q0 -143 -105.5 -225.5t-293.5 -82.5q-383 0 -415 341l177 14q20 -223 238 -223t219 187q0 87 -56 135t-172 48h-96v141h90q93 0 149 46t56 126
t-52.5 126.5t-146.5 46.5q-173 0 -204 -204l-179 16q21 152 122 236.5t251 84.5q299 0 370 -193l137 24l28 -129q15 -68 38.5 -101.5t74.5 -33.5z" />
    <glyph glyph-name="uni025E" unicode="&#x25e;" 
d="M853 565q248 -41 248 -245q0 -104 -55 -180t-156.5 -117.5t-230.5 -41.5q-269 0 -397 139.5t-128 413.5t129 421t372 147q202 0 319.5 -80t117.5 -218q0 -176 -219 -239zM921 317q0 166 -228 166h-96v141h90q93 0 149 46t56 125t-64 126.5t-171 47.5q-174 0 -254 -104.5
t-80 -314.5q0 -296 104 -366.5t229 -70.5t195 57.5t70 146.5z" />
    <glyph glyph-name="uni025F" unicode="&#x25f;" 
d="M120 -236q102 -17 288 -17q76 0 153.5 33.5t77.5 209.5v10h-491v142h491v940h180v-940h262v-142h-262v-25q0 -205 -96.5 -291t-294.5 -86t-308 21v145z" />
    <glyph glyph-name="uni0260" unicode="&#x260;" 
d="M869 551q0 193 -75 303.5t-209 110.5t-195 -95.5t-61 -282.5t25.5 -274.5t79.5 -127.5t145 -40t190.5 73.5t99.5 332.5zM1177 1336q-129 0 -129 -148v-1156q0 -456 -433 -456q-168 0 -270 69t-130 198l184 25q35 -156 222 -156q248 0 248 315v194h-2q-102 -209 -343 -209
q-198 0 -289.5 130t-91.5 410t98 413.5t302 133.5q113 0 196.5 -52.5t128.5 -149.5h2v305q0 145 73 220.5t216 75.5q55 0 125 -14v-166q-50 18 -107 18z" />
    <glyph glyph-name="uni0261" unicode="&#x261;" 
d="M869 551q0 193 -75 303t-209 111t-195 -95t-61 -283q-1 -187 25 -275t80 -127q54 -40 145 -40q91 -1 155 47q134 100 135 359zM143 552q0 280 98 414t302 133q113 -1 197 -53t128 -149h3q0 29 4 101t8 84h171q-6 -54 -6 -224v-826q0 -228 -106 -342t-327 -114
q-168 0 -270 69t-130 198l184 25q35 -156 222 -156q248 0 248 315v194h-2q-99 -209 -343 -209q-198 0 -290 130t-91 410z" />
    <glyph glyph-name="uni0262" unicode="&#x262;" 
d="M130 522q0 361 173.5 470.5t331.5 109.5t269 -86t140 -237l-185 -14q-15 90 -73.5 143t-166.5 53q-150 0 -226.5 -111.5t-76.5 -323.5t77 -310t230 -98t259 67v219h-249v137h431v-418q-164 -143 -425 -143q-509 0 -509 542z" />
    <glyph glyph-name="uni0263" unicode="&#x263;" 
d="M535 -190q-1 -90 75 -90t76 90t-76 227q-75 -137 -75 -227zM842 -184q0 -113 -63 -177t-169 -64t-168.5 64t-62.5 155t30 165.5t93 190.5l-453 932h205l356 -762l366 762h203l-464 -931q127 -222 127 -335z" />
    <glyph glyph-name="uni0264" unicode="&#x264;" 
d="M7 901q115 188 287 188q86 0 144.5 -43.5t99.5 -153.5l55 -151l22 -70l21 70l55 151q40 109 98.5 153t145.5 44q173 0 287 -188l-114 -111l-33 50q-63 91 -126 91q-35 0 -57.5 -26.5t-45.5 -79.5l-131 -303l51 -94q82 -144 82 -238t-63 -154t-169 -60t-168.5 60
t-62.5 156t80 236l49 93l-131 304q-23 53 -45.5 79.5t-57.5 26.5q-63 0 -125 -91l-34 -50zM688 214q0 39 -15.5 76.5t-56.5 113.5q-12 -23 -41.5 -77.5t-29.5 -112.5q-1 -93 71 -93t72 93z" />
    <glyph glyph-name="uni0265" unicode="&#x265;" 
d="M523 -20q-178 0 -260.5 88.5t-82.5 292.5v721h180v-686q0 -156 49 -216.5t177 -60.5t202.5 88t74.5 248v627h181v-1507h-180v409l4 127l4 74h-3q-62 -112 -143.5 -158.5t-202.5 -46.5z" />
    <glyph glyph-name="uni0266" unicode="&#x266;" 
d="M185 1202q0 296 284 296q69 0 142 -16v-165q-53 19 -119 19q-126 0 -126 -142v-100q0 -59 -9 -197h3q105 205 339 205q350 0 350 -381v-721h-181v695q0 136 -52 202t-172 66t-199.5 -90.5t-79.5 -245.5v-627h-180v1202z" />
    <glyph glyph-name="uni0267" unicode="&#x267;" 
d="M185 1202q0 296 284 296q69 0 142 -16v-165q-53 19 -119 19q-126 0 -126 -142v-100q0 -59 -9 -197h3q105 205 339 205q350 0 350 -381v-855q0 -151 -60 -221t-181 -70q-77 0 -127 9v139l62 -6q69 0 97 36t28 140v802q0 136 -52 202t-172 66t-199.5 -90.5t-79.5 -245.5
v-627h-180v1202z" />
    <glyph glyph-name="uni0268" unicode="&#x268;" 
d="M545 1292v192h200v-192h-200zM745 617h214v-133h-214v-342h380v-142h-982v142h422v342h-233v133h233v323h-319v142h499v-465z" />
    <glyph glyph-name="uni0269" unicode="&#x269;" 
d="M694 293q0 -151 112 -151q33 0 77 11v-160q-50 -10 -95 -10q-274 0 -274 296v661h-268v142h448v-789z" />
    <glyph glyph-name="uni026A" unicode="&#x26a;" 
d="M205 1082h819v-142h-320v-798h320v-142h-819v142h319v798h-319v142z" />
    <glyph glyph-name="uni026B" unicode="&#x26b;" 
d="M977 871q0 -228 -186 -228q-35 0 -55 5v-506h380v-142h-982v142h422v573q-26 8 -58 8q-60 0 -60 -95h-130q2 104 55.5 166t137.5 62l55 -5v491h-289v142h469v-702q16 -6 48 -6t44.5 23.5t18.5 71.5h130z" />
    <glyph glyph-name="uni026C" unicode="&#x26c;" 
d="M556 730v216h-7q-51 0 -80.5 -30t-29.5 -81q0 -105 110 -105h7zM736 730h169v-129h-169v-459h380v-142h-982v142h422v459h-5q-100 0 -166.5 65.5t-66.5 168.5t64.5 164.5t166.5 61.5h7v281h-289v142h469v-754z" />
    <glyph glyph-name="uni026D" unicode="&#x26d;" 
d="M807 -263q55 0 102 15v-162q-69 -15 -114 -15q-281 0 -281 296v1471h-289v142h469v-1599q1 -81 29.5 -114.5t83.5 -33.5z" />
    <glyph glyph-name="uni026E" unicode="&#x26e;" 
d="M185 0v1484h180v-402h756v-178l-369 -364q189 -24 297 -151t108 -320q0 -137 -63.5 -251t-179 -178.5t-282.5 -64.5t-283.5 76t-155.5 226l177 21q55 -182 282 -182q97 0 171 47.5t113.5 131t39.5 180.5q0 152 -94.5 244t-251.5 92h-82v144l383 386h-566v-941h-180z" />
    <glyph glyph-name="uni026F" unicode="&#x26f;" 
d="M697 1082v-686q0 -154 24.5 -215.5t88.5 -61.5t104 96t40 260v607h169v-851q0 -189 6 -231h-149l-5 127l-1 48h-2q-34 -102 -86 -148.5t-135 -46.5t-126.5 48t-62.5 148h-2q-40 -106 -95.5 -151t-140.5 -45q-118 0 -169 86t-51 295v721h168v-686q0 -154 24 -215.5
t90 -61.5t104.5 84t38.5 252v627h168z" />
    <glyph glyph-name="uni0270" unicode="&#x270;" 
d="M324 -20q-118 0 -169 86t-51 295v721h168v-686q0 -154 24 -215.5t90 -61.5t104.5 84t38.5 252v627h168v-686q0 -154 24.5 -215.5t88.5 -61.5t104 96t40 260v607h169v-1507h-167v291q0 157 7 281h-2q-66 -167 -205 -167q-88 0 -131.5 48t-62.5 148h-2q-40 -106 -95.5 -151
t-140.5 -45z" />
    <glyph glyph-name="uni0271" unicode="&#x271;" 
d="M531 0v686q0 154 -24.5 215.5t-88.5 61.5t-104 -96t-40 -260v-607h-169v851q0 189 -6 231h149l6 -127v-48h2q34 102 87 148.5t135 46.5t125.5 -48t62.5 -148h2q40 106 95.5 151t140.5 45q118 0 169 -86t51 -295v-855q0 -151 -60 -221t-181 -70q-64 0 -114 9v139l62 -6
q69 0 97 36t28 140v793q0 154 -24 215.5t-90 61.5t-104.5 -84t-38.5 -252v-627h-168z" />
    <glyph glyph-name="uni0272" unicode="&#x272;" 
d="M706 1102q173 0 258 -93.5t85 -287.5v-721h-181v695q0 136 -52 202t-172 66t-199.5 -90.5t-79.5 -245.5v-761q0 -153 -60 -222t-180 -69q-77 0 -127 9v139l62 -6q69 0 97 36t28 140v958q0 189 -6 231h170q4 -19 8 -185h3q105 205 346 205z" />
    <glyph glyph-name="uni0273" unicode="&#x273;" 
d="M706 1102q173 0 258 -93.5t85 -287.5v-836q0 -148 117 -148q62 0 106 16v-164q-64 -14 -123 -14q-281 0 -281 296v824q0 136 -52 202t-172 66t-199.5 -90.5t-79.5 -245.5v-627h-180v851q0 189 -6 231h170q4 -19 8 -185h3q105 205 346 205z" />
    <glyph glyph-name="uni0274" unicode="&#x274;" 
d="M874 1082h170v-1082h-167l-457 699q-40 58 -73 129q7 -98 7 -163v-665h-169v1082h174l461 -685q21 -30 58 -104l-4 125v664z" />
    <glyph glyph-name="uni0275" unicode="&#x275;" 
d="M618 969q-138 1 -210 -85t-86 -259h583q-13 173 -81 259t-206 85zM320 494q14 -381 287 -381q147 0 219 93t81 288h-587zM615 1102q482 0 482 -556q1 -278 -125 -422t-360 -144t-358 146t-124 420t126 416q126 140 359 140z" />
    <glyph glyph-name="uni0276" unicode="&#x276;" 
d="M571 544q0 222 -39.5 323.5t-130.5 101.5t-133.5 -103t-42.5 -324q0 -429 169 -429q95 0 136 104.5t41 326.5zM1122 625v-130h-394v-362h456v-133h-608v75q-65 -95 -195 -95q-159 0 -242 144t-83 420t84 417t245 141q66 0 110.5 -17.5t80.5 -65.5v63h588v-137h-436v-320
h394z" />
    <glyph glyph-name="uni0277" unicode="&#x277;" 
d="M614 1102q262 0 412 -166t150 -461q0 -242 -81 -368.5t-231 -126.5q-97 0 -163 67t-90 190q-25 -132 -90.5 -194.5t-156.5 -62.5q-155 0 -233.5 127t-78.5 368q0 295 150 461t412 166zM379 112q156 0 156 371v106h159v-106q0 -371 156 -371q84 0 119.5 90t35.5 298
t-100.5 336.5t-290.5 128.5t-290.5 -131t-100.5 -337t36 -295.5t120 -89.5z" />
    <glyph glyph-name="uni0278" unicode="&#x278;" 
d="M319 543q0 -366 207 -421v836q-108 -26 -157.5 -128t-49.5 -287zM908 545q0 196 -52 297t-166 121v-843q113 22 165.5 125.5t52.5 299.5zM526 -425v410q-189 23 -292.5 160.5t-103.5 396.5q0 505 396 555v387h164v-386q212 -20 309.5 -158.5t97.5 -397.5
q0 -512 -407 -557v-410h-164z" />
    <glyph glyph-name="uni0279" unicode="&#x279;" 
d="M935 381q0 -175 52 -381h-171q-40 138 -48 250h-5q-50 -112 -122 -191t-251 -79q-104 0 -206 17v167q112 -19 212 -19q161 0 260 121t99 308v508h180v-701z" />
    <glyph glyph-name="uni027A" unicode="&#x27a;" 
d="M935 381q0 -175 52 -381h-171q-40 138 -48 250h-5q-50 -112 -122 -191t-251 -79q-104 0 -206 17v167q112 -19 212 -19q161 0 260 121t99 308v910h180v-1103z" />
    <glyph glyph-name="uni027B" unicode="&#x27b;" 
d="M935 -120q0 -148 109 -148q53 0 100 14v-160q-59 -11 -130 -11q-254 0 -254 296v363h-5q-46 -102 -118 -178t-247 -76q-104 0 -206 17v167q112 -19 212 -19q161 0 260 121t99 308v508h180v-1202z" />
    <glyph glyph-name="uni027C" unicode="&#x27c;" 
d="M294 701q0 175 -52 381h171q40 -138 48 -250h5q50 112 122 191t251 79q104 0 206 -17v-167q-112 19 -212 19q-161 0 -260 -121t-99 -308v-933h-180v1126z" />
    <glyph glyph-name="uni027D" unicode="&#x27d;" 
d="M294 701q0 175 -52 381h171q40 -138 48 -250h5q50 112 122 191t251 79q104 0 206 -17v-167q-112 19 -212 19q-161 0 -260 -121t-99 -308v-623q0 -81 28 -114.5t82 -33.5t98 13v-164l-34 -5q-31 -6 -77 -6q-277 0 -277 296v830z" />
    <glyph glyph-name="uni027E" unicode="&#x27e;" 
d="M284 0v516q0 283 143 434.5t410 151.5q105 0 208 -19v-167q-100 21 -204 21q-193 0 -287 -105t-94 -323v-509h-176z" />
    <glyph glyph-name="uni027F" unicode="&#x27f;" 
d="M769 -425v934q0 219 -94.5 323.5t-286.5 104.5q-104 0 -204 -21v167q103 19 208 19q265 0 409 -151t144 -435v-941h-176z" />
    <glyph glyph-name="uni0280" unicode="&#x280;" 
d="M638 575q219 0 219 185t-223 185h-270v-370h274zM364 0h-180v1082h467q187 0 291 -81t104 -219t-62.5 -217t-202.5 -114l353 -451h-218l-332 439h-220v-439z" />
    <glyph glyph-name="uni0281" unicode="&#x281;" 
d="M364 643h220l332 439h218l-353 -451q140 -34 202.5 -113.5t62.5 -217.5t-103.5 -219t-291.5 -81h-467v1082h180v-439zM634 137q223 0 223 185t-219 185h-274v-370h270z" />
    <glyph glyph-name="uni0282" unicode="&#x282;" 
d="M632 -20q-194 0 -295 59v-159q0 -143 122 -143q57 0 99 12v-162l-34 -5q-36 -7 -79 -7q-278 0 -278 296v377l159 31q25 -116 105 -140.5t190 -24.5q270 0 270 171q0 63 -49 103t-151 65q-258 64 -369.5 120.5t-111.5 208.5q0 151 106 234t294 83q371 0 425 -260l-162 -20
q-13 73 -71.5 109.5t-178.5 36.5q-245 0 -245 -151q0 -82 63.5 -113t179.5 -60t277.5 -77.5t161.5 -258.5q0 -150 -117 -237.5t-311 -87.5z" />
    <glyph glyph-name="uni0283" unicode="&#x283;" 
d="M696 -70q0 -355 -307 -355q-79 0 -134 19v160q59 -24 115 -24t86.5 22t44 64.5t13.5 146.5v1167q0 173 75.5 263.5t222.5 90.5q107 0 151 -18v-167q-49 27 -121 27t-109 -52.5t-37 -180.5v-1163z" />
    <glyph glyph-name="uni0284" unicode="&#x284;" 
d="M696 -70q0 -355 -307 -355q-79 0 -134 19v160q59 -24 115 -24t86.5 22t44 64.5t13.5 146.5v37h-193v140h193v990q0 178 76 266t234 88q90 0 139 -18v-167q-49 27 -121 27t-109 -52.5t-37 -180.5v-953h170v-140h-170v-70z" />
    <glyph glyph-name="uni0285" unicode="&#x285;" 
d="M820 -425q-153 0 -225 86t-72 269v781q0 131 -37.5 182t-107.5 51t-120 -27v167q44 18 131 18q162 0 239 -84.5t77 -258.5v-796q0 -102 18 -167.5t114 -65.5q57 0 117 24v-160q-55 -19 -134 -19z" />
    <glyph glyph-name="uni0286" unicode="&#x286;" 
d="M381 -58q-112 0 -112 -117q0 -52 32.5 -79t86.5 -27t91 47.5t37 126.5q-78 49 -135 49zM383 -425q-73 0 -171 48.5t-98 209.5q0 118 69.5 186t198.5 68q64 0 132 -24v1067q0 173 75.5 263.5t222.5 90.5q107 0 151 -18v-167q-49 27 -121 27t-109 -52.5t-37 -180.5v-1142
q102 -90 223 -260l-110 -117l-154 189q-81 -188 -272 -188z" />
    <glyph glyph-name="uni0287" unicode="&#x287;" 
d="M1004 424v-142h-170l-58 -282h-120v282h-432v142h432v652q0 79 -42 117t-158 38t-279 -34v137q169 46 333 46t245 -68.5t81 -216.5v-671h168z" />
    <glyph glyph-name="uni0288" unicode="&#x288;" 
d="M190 940v142h170l58 282h120v-282h432v-142h-432v-1061q0 -79 42 -117t158 -38t279 34v-137q-169 -46 -333 -46t-245 68.5t-81 216.5v1080h-168z" />
    <glyph glyph-name="uni0289" unicode="&#x289;" 
d="M586 119q128 0 202.5 88t74.5 248v29h-503v-88q0 -156 49 -216.5t177 -60.5zM523 -20q-178 0 -260.5 88.5t-82.5 292.5v123h-107v133h107v465h180v-465h503v465h181v-465h108v-133h-108v-253q0 -189 6 -231h-170q-4 19 -8 185h-3q-62 -112 -143.5 -158.5t-202.5 -46.5z
" />
    <glyph glyph-name="uni028A" unicode="&#x28a;" 
d="M615 -20q-226 0 -362 128t-136 340q0 140 84 258q51 72 67.5 104t16.5 62t-21.5 50.5t-64.5 20.5h-82v139h124q89 0 143.5 -51.5t54.5 -142.5q1 -91 -67 -207t-68 -209q0 -159 84 -254t226 -95t226 95t84 254q0 93 -67 209q-68 115 -68 207t55 143t143 51h124v-139h-82
q-43 0 -64.5 -21t-21.5 -51t16 -61t68 -104q84 -118 84 -258q0 -209 -135 -338.5t-361 -129.5z" />
    <glyph glyph-name="uni028B" unicode="&#x28b;" 
d="M1092 571q0 -287 -125 -439t-356 -152t-339 108t-109 331v663h181v-669q0 -294 271 -294q152 -1 222 107t70 341q-1 129 -37 283t-77 232h188q53 -118 82 -256t29 -255z" />
    <glyph glyph-name="uni028C" unicode="&#x28c;" 
d="M513 1082h213l433 -1082h-202l-268 704l-69 237l-74 -235l-276 -706h-201z" />
    <glyph glyph-name="uni028D" unicode="&#x28d;" 
d="M615 409q20 88 207 673h203l183 -1082h-178l-93 607q-33 264 -33 326q-39 -160 -58 -214l-135 -424h-193l-130 425q-32 105 -55 213q0 -72 -16 -186.5t-19 -139.5l-101 -607h-176l190 1082h204l143 -471z" />
    <glyph glyph-name="uni028E" unicode="&#x28e;" 
d="M937 1507q74 0 124 -11v-135q-38 6 -84 6q-79 0 -148.5 -59t-117.5 -188l-18 -49l470 -1071h-192l-264 642q-91 224 -98 254l-351 -896h-190l456 1082q89 235 184.5 330t228.5 95z" />
    <glyph glyph-name="uni028F" unicode="&#x28f;" 
d="M518 0v440l-459 642h209l343 -498l352 498h206l-471 -645v-437h-180z" />
    <glyph glyph-name="uni0290" unicode="&#x290;" 
d="M1068 -115q0 -81 21.5 -114.5t75.5 -33.5t91 11v-161q-67 -12 -125 -12q-240 0 -240 296v129h-744v137l681 806h-641v139h844v-137l-682 -806h719v-254z" />
    <glyph glyph-name="uni0291" unicode="&#x291;" 
d="M862 139q147 -1 147 91q1 92 -101 92q-48 0 -98 -40.5t-120 -142.5h172zM909 467q118 0 186 -61.5t68 -173.5q0 -232 -292 -232h-253q-48 -94 -82 -178l-139 61l55 117h-305v137l661 806h-621v139h824v-137l-662 -806h173q195 328 387 328z" />
    <glyph glyph-name="uni0292" unicode="&#x292;" 
d="M180 1082h873v-176l-383 -362q196 -25 307.5 -150.5t111.5 -324.5q0 -139 -59 -253t-167 -177.5t-248 -63.5q-216 0 -343 95t-150 282l178 12q19 -133 96.5 -192.5t213.5 -59.5t217 99.5t81 259.5t-91.5 250t-254.5 90h-82v144l393 386h-693v141z" />
    <glyph glyph-name="uni0293" unicode="&#x293;" 
d="M541 -295q181 0 278 105q-174 141 -338 141q-73 0 -114.5 -29t-41.5 -86t60 -94t156 -37zM180 1082h873v-176l-383 -362q196 -24 307.5 -150.5t111.5 -324.5q0 -131 -65 -241q62 -56 129 -129l-100 -125l-124 136q-148 -135 -383 -135t-309.5 95.5t-74.5 169.5
q0 117 85 182t257 65t386 -149q18 63 18 137q0 157 -92.5 246.5t-252.5 89.5h-83v144l393 386h-693v141z" />
    <glyph glyph-name="uni0294" unicode="&#x294;" 
d="M561 524q324 0 324 422q0 208 -71 302.5t-229 94.5q-107 0 -176 -52.5t-91 -151.5l-185 14q30 148 152.5 239.5t305.5 91.5q482 0 482 -544q0 -248 -117 -392.5t-336 -161.5v-386h-180v542q52 -18 121 -18z" />
    <glyph glyph-name="uni0295" unicode="&#x295;" 
d="M133 932q0 176 62.5 299.5t175.5 188t275 64.5t279 -89t148 -242l-185 -14q-22 99 -90.5 151.5t-176.5 52.5q-300 0 -300 -405q0 -200 81.5 -307t242.5 -107q69 0 121 18v-542h-180v386q-453 34 -453 546z" />
    <glyph glyph-name="uni0296" unicode="&#x296;" 
d="M1073 532q0 -176 -62.5 -299.5t-175.5 -188t-275 -64.5t-279 89t-148 242l185 14q22 -99 90.5 -151.5t176.5 -52.5q300 0 300 405q0 200 -81.5 307t-242.5 107q-69 0 -121 -18v562h180v-406q453 -34 453 -546z" />
    <glyph glyph-name="uni0297" unicode="&#x297;" 
d="M138 339q0 763 510 763q177 0 291.5 -84t146.5 -239l-192 -14q-40 196 -254 196q-158 0 -235.5 -150.5t-77.5 -468.5t77 -472t237 -154q223 0 257 212l190 -12q-23 -155 -143.5 -248.5t-305.5 -93.5q-258 0 -379.5 185t-121.5 580z" />
    <glyph glyph-name="uni0298" unicode="&#x298;" 
d="M517 606v219h195v-219h-195zM614 1214q-311 0 -311 -540t316 -539q306 -1 306 539t-311 540zM1126 684q0 -340 -133 -522t-381 -182t-379 179t-131 523t132 516t380 172t380 -173t132 -513z" />
    <glyph glyph-name="uni0299" unicode="&#x299;" 
d="M365 945v-320h256q129 0 183 36t54 122t-51 124t-172 38h-270zM365 133h276q138 1 194 43t56 139q1 97 -59 139t-203 41h-264v-362zM647 1082q200 0 300 -70t100 -201q0 -94 -58 -156t-165 -82v-7q130 -16 194 -82t64 -172q0 -148 -110 -230t-302 -82h-485v1082h462z" />
    <glyph glyph-name="uni029A" unicode="&#x29a;" 
d="M1097 542q0 -561 -516 -561q-216 0 -337.5 81.5t-121.5 227.5q0 111 64 179.5t185 88.5q-111 34 -165.5 90.5t-54.5 144.5q0 140 119 224.5t325 84.5q245 0 373.5 -142t128.5 -418zM908 552q0 150 -36.5 240t-106.5 133.5t-187 43.5t-182 -46.5t-65 -126.5t66.5 -126
t188.5 -46h59v-141h-64q-279 0 -279 -186q0 -82 70.5 -133t198.5 -51t196.5 46.5t104.5 144.5t36 248z" />
    <glyph glyph-name="uni029B" unicode="&#x29b;" 
d="M130 522q0 361 173 470.5t327 109.5t256 -79q7 125 75.5 192.5t183.5 67.5q47 0 99 -12v-150q-36 16 -90 16q-110 0 -110 -148v-210l-185 -14q-15 90 -73.5 143t-166.5 53q-150 0 -226.5 -111.5t-76.5 -323.5t77 -310t230 -98t259 67v219h-249v137h431v-418
q-164 -143 -425 -143q-509 0 -509 542z" />
    <glyph glyph-name="uni029C" unicode="&#x29c;" 
d="M361 1082v-458h507v458h180v-1082h-180v493h-507v-493h-180v1082h180z" />
    <glyph glyph-name="uni029D" unicode="&#x29d;" 
d="M545 1292v192h200v-192h-200zM382 -45q-142 0 -142 -117q0 -56 40.5 -88.5t106.5 -32.5q178 0 178 214v24h-183zM73 -161q0 255 303 255h189v846h-316v142h496v-988h336v-139h-336v-37q0 -98 -39.5 -176t-113.5 -122.5t-177 -44.5q-159 0 -250.5 69.5t-91.5 194.5z" />
    <glyph glyph-name="uni029E" unicode="&#x29e;" 
d="M813 1082h180v-1484h-180v927l-475 -525h-211l439 465l-462 617h211l366 -499l132 98v401z" />
    <glyph glyph-name="uni029F" unicode="&#x29f;" 
d="M1045 0h-780v1082h180v-933h600v-149z" />
    <glyph glyph-name="uni02A0" unicode="&#x2a0;" 
d="M584 113q279 -1 279 435q0 218 -68 317.5t-209 99.5t-201.5 -102t-60.5 -323t60 -324t200 -103zM529 1098q125 0 204 -43t130 -143h2v290q0 145 73 220.5t216 75.5q55 0 94 -8l37 -8v-166q-56 20 -116 20q-125 0 -125 -148v-1613h-181v439l4 168h-2
q-53 -107 -131.5 -157.5t-203.5 -50.5q-203 0 -297.5 140t-94.5 418q0 566 391 566z" />
    <glyph glyph-name="uni02A1" unicode="&#x2a1;" 
d="M561 524q324 0 324 422q0 208 -71 302.5t-229 94.5q-107 0 -176 -52.5t-91 -151.5l-185 14q30 148 152.5 239.5t305.5 91.5q482 0 482 -544q0 -248 -117 -392.5t-336 -161.5v-110h341v-123h-341v-153h-180v153h-307v123h307v266q52 -18 121 -18z" />
    <glyph glyph-name="uni02A2" unicode="&#x2a2;" 
d="M133 932q0 176 62.5 299.5t175.5 188t275 64.5t279 -89t148 -242l-185 -14q-22 99 -90.5 151.5t-176.5 52.5q-300 0 -300 -405q0 -200 81.5 -307t242.5 -107q69 0 121 18v-266h307v-123h-307v-153h-180v153h-341v123h341v110q-453 34 -453 546z" />
    <glyph glyph-name="uni02A3" unicode="&#x2a3;" 
d="M674 943v-818l355 818h-355zM355 969q-138 0 -138 -427q0 -216 32.5 -319.5t103.5 -103.5q161 0 161 425t-159 425zM521 144h-3q-55 -164 -219 -164q-133 0 -191 130t-58 420t66.5 431t189.5 141q73 0 123.5 -33t84.5 -115h2l-2 113v417h160v-402h528v-132l-357 -811h384
v-139h-703q-5 50 -5 144z" />
    <glyph glyph-name="uni02A4" unicode="&#x2a4;" 
d="M355 969q-138 0 -138 -427q0 -216 32.5 -319.5t103.5 -103.5q161 0 161 425t-159 425zM880 -288q74 0 123 98t49 268t-56 251.5t-151 81.5h-46l-5 116l233 416h-353v-818l10 -125h-158q-5 50 -5 144h-3q-55 -164 -219 -164q-133 0 -191 130t-58 420t66.5 431t189.5 141
q73 0 123.5 -33t84.5 -115h2l-2 113v417h160v-402h532v-127l-238 -419q128 -33 189.5 -145t61.5 -333t-90 -352t-239 -131t-224.5 58.5t-117.5 210.5l157 24q24 -87 62.5 -121.5t112.5 -34.5z" />
    <glyph glyph-name="uni02A5" unicode="&#x2a5;" 
d="M1022 287q-45 0 -80 -36.5t-74 -111.5h75q141 0 141 91q0 57 -62 57zM654 943v-552l350 552h-350zM335 969q-138 0 -138 -427q0 -216 32.5 -319.5t103.5 -103.5q161 0 161 425t-159 425zM501 144h-3q-55 -164 -219 -164q-133 0 -191 130t-58 420t66.5 431t189.5 141
q73 0 123.5 -33t84.5 -115h2l-2 113v417h160v-402h528v-132l-527 -811h59q76 154 146 218t168 64t149.5 -49.5t51.5 -141.5q0 -230 -282 -230h-138q-50 -120 -68 -173l-131 56l45 117h-149q-5 50 -5 144z" />
    <glyph glyph-name="uni02A6" unicode="&#x2a6;" 
d="M285 284q0 -144 117 -144h366q242 0 242 165q0 88 -53 119.5t-175 67.5t-217 94.5t-95 209.5q0 83 45 155h-230v-667zM640 814q0 -79 49 -110.5t182 -74.5l107 -35q201 -66 201 -275q0 -154 -107.5 -236.5t-298.5 -82.5h-423q-116 0 -170.5 61t-54.5 184v706h-125v131
h132l33 242h120v-242h390q66 17 133 17q151 0 240 -63t112 -202l-157 -20q-24 149 -194 149q-169 0 -169 -149z" />
    <glyph glyph-name="uni02A7" unicode="&#x2a7;" 
d="M395 940v-652q0 -79 42.5 -117t144.5 -38t245 25v782h-432zM1009 -70q0 -355 -307 -355q-79 0 -134 19v160q60 -24 116 -24t86 22t43.5 64.5t13.5 146.5v55q-147 -34 -299 -34q-314 0 -313 285v671h-168v142h170l58 282h120v-282h432v48q0 173 75.5 263.5t222.5 90.5
q107 0 151 -18v-167q-48 27 -120 27t-109.5 -52.5t-37.5 -180.5v-1163z" />
    <glyph glyph-name="uni02A8" unicode="&#x2a8;" 
d="M866 114q206 0 206 141q0 48 -28 77.5t-76 29.5q-90 0 -196 -113l-65 -65q45 -70 159 -70zM362 -20q-125 0 -191 68.5t-66 190.5v712h-125v131h132l33 242h120v-242h176v-131h-176v-661q0 -85 28 -120t94 -35t129 53q-76 142 -76 354q0 270 106.5 415t305.5 145
q304 0 356 -323l-165 -14q-26 196 -198 196q-125 0 -181 -104.5t-56 -278.5t34 -276q83 87 156 142.5t180 55.5q108 0 174.5 -62t66.5 -160t-63.5 -198t-297.5 -100q-160 0 -260 100q-111 -100 -236 -100z" />
    <glyph glyph-name="uni02A9" unicode="&#x2a9;" 
d="M892 1102q122 0 177 -90t55 -291v-850q0 -296 -260 -296q-60 0 -126 16v164q46 -18 110 -18q108 0 108 148v801q0 158 -26.5 217.5t-100.5 59.5t-117 -87t-43 -249v-627h-166v900l-1 51h-216v-951h-166v951h-120v131h120v122q0 149 60 213.5t184 64.5q68 0 118 -12v-137
q-45 8 -74 8q-65 0 -93.5 -36t-28.5 -126v-97h368l7 -154h2q34 87 86 130.5t143 43.5z" />
    <glyph glyph-name="uni02AA" unicode="&#x2aa;" 
d="M531 814q0 -85 71 -116.5t218 -67.5t266.5 -94.5t119.5 -236.5q0 -146 -131 -232.5t-349 -86.5q-138 0 -265.5 35.5t-210.5 95.5v-111h-180v1484h180v-1198q78 -81 205 -125t273 -44t224.5 43.5t78.5 115.5t-44 112.5t-142 66.5l-129 34q-155 40 -257.5 100t-102.5 208
q0 147 106 224.5t296 77.5t295.5 -63t133.5 -202l-162 -20q-31 149 -263 149q-231 0 -231 -149z" />
    <glyph glyph-name="uni02AB" unicode="&#x2ab;" 
d="M365 943v-802l575 802h-575zM185 0v1484h180v-402h770v-137l-580 -806h617v-139h-987z" />
    <glyph glyph-name="uni02AC" unicode="&#x2ac;" 
d="M890 1h-133l-143 547l-148 -547h-133l-191 707h124l134 -568l153 568h123l155 -568l133 568h122zM890 777h-133l-143 547l-148 -547h-133l-191 707h124l134 -568l153 568h123l155 -568l133 568h122z" />
    <glyph glyph-name="uni02AD" unicode="&#x2ad;" 
d="M1055 0h-174v319h-533v-319h-175v487h882v-487zM1055 997h-174v319h-533v-319h-175v487h882v-487z" />
    <glyph glyph-name="uni02AE" unicode="&#x2ae;" 
d="M572 -21q-161 0 -237 88.5t-76 292.5v272q0 135 -18.5 220.5t-106.5 85.5q-40 0 -86 -27l-48 148q63 41 167 41q273 0 273 -422v-283q0 -162 44.5 -219.5t153.5 -57.5t177 87.5t68 237.5v639h180v-1508h-181v570h-3q-99 -165 -307 -165z" />
    <glyph glyph-name="uni02AF" unicode="&#x2af;" 
d="M572 -21q-161 0 -237 88.5t-76 292.5v272q0 135 -18.5 220.5t-106.5 85.5q-40 0 -86 -27l-48 148q63 41 167 41q273 0 273 -422v-283q0 -162 44.5 -219.5t153.5 -57.5t177 87.5t68 237.5v639h180l1 -1102q0 -128 34.5 -185.5t117.5 -57.5q47 0 104 20l24 -159
q-77 -23 -142 -23q-172 0 -246 93.5t-74 304.5v171h-3q-99 -165 -307 -165z" />
    <glyph glyph-name="uni02B0" unicode="&#x2b0;" 
d="M695 1267q216 0 216 -269v-508h-123v484q0 113 -35 154t-120 41q-85 -1 -136 -63t-51 -166v-450h-123v1046h123v-272q0 -112 -6 -142h2q40 77 96 111t157 34z" />
    <glyph glyph-name="uni02B1" unicode="&#x2b1;" 
d="M692 1267q216 0 216 -269v-508h-123v484q0 113 -35 154t-120 41t-136 -62.5t-51 -166.5v-450h-123v847q0 209 193 209q49 0 97 -11v-117q-34 14 -81 14q-86 0 -86 -100v-68q0 -112 -6 -142h2q41 77 96.5 111t156.5 34z" />
    <glyph glyph-name="uni02B2" unicode="&#x2b2;" 
d="M676 384q0 -101 -40 -149.5t-110 -48.5t-100 6v95l42 -4q52 0 68.5 28.5t16.5 90.5v809h123v-827zM553 1367v117h123v-117h-123z" />
    <glyph glyph-name="uni02B3" unicode="&#x2b3;" 
d="M464 490v586q0 113 -4 177h116l5 -155h3q30 98 67 133.5t107 35.5q22 0 50 -7v-116q-28 7 -65 7q-78 0 -117.5 -69t-39.5 -194v-398h-122z" />
    <glyph glyph-name="uni02B4" unicode="&#x2b4;" 
d="M425 592q157 0 157 263v398h122v-586q0 -113 4 -177h-116l-5 155h-3q-28 -96 -66 -132.5t-108 -36.5q-22 0 -50 7v116q28 -7 65 -7z" />
    <glyph glyph-name="uni02B5" unicode="&#x2b5;" 
d="M695 405q0 -104 76 -104q39 0 67 10v-113q-51 -8 -89 -8q-173 0 -173 209v226q-25 -80 -64 -114.5t-111 -34.5q-22 0 -50 7v116q30 -7 66 -7q77 0 116.5 69t39.5 194v398h122v-848z" />
    <glyph glyph-name="uni02B6" unicode="&#x2b6;" 
d="M614 586q151 0 151 131t-148 131h-187v-262h184zM430 944h136l226 309h148l-241 -316q93 -18 144 -78t51 -157t-73.5 -154.5t-198.5 -57.5h-314v763h122v-309z" />
    <glyph glyph-name="uni02B7" unicode="&#x2b7;" 
d="M614 1148q-26 -126 -158 -657h-141l-206 762h121l124 -518q22 -82 30 -139l165 657h131l129 -523l31 -134l31 139l129 518h120l-211 -762h-142l-117 492q-11 39 -36 165z" />
    <glyph glyph-name="uni02B8" unicode="&#x2b8;" 
d="M396 190q-49 0 -84 8v95l57 -4q56 0 102.5 44t89.5 160l-292 760h131l155 -422l67 -203l208 625h130l-283 -763q-65 -172 -128.5 -236t-152.5 -64z" />
    <glyph glyph-name="uni02B9" unicode="&#x2b9;" 
d="M684 845h-141l-41 639h224z" />
    <glyph glyph-name="uni02BA" unicode="&#x2ba;" 
d="M459 845h-141l-41 639h224zM908 845h-142l-40 639h224z" />
    <glyph glyph-name="uni02BB" unicode="&#x2bb;" 
d="M514 1173q0 186 80 311h121q-95 -137 -95 -262h89v-195h-195v146z" />
    <glyph glyph-name="uni02BC" unicode="&#x2bc;" 
d="M715 1338q0 -186 -80 -311h-121q95 137 95 262h-89v195h195v-146z" />
    <glyph glyph-name="uni02BD" unicode="&#x2bd;" 
d="M514 1338v146h195v-195h-89q0 -125 95 -262h-121q-80 127 -80 311z" />
    <glyph glyph-name="uni02BE" unicode="&#x2be;" 
d="M550 1229q42 0 69.5 28t27.5 77t-27.5 76.5t-69.5 27.5v85q84 0 134.5 -51t50.5 -138t-50.5 -138.5t-134.5 -51.5v85z" />
    <glyph glyph-name="uni02BF" unicode="&#x2bf;" 
d="M679 1144q-85 0 -135 52t-50 138t50 137.5t135 51.5v-85q-42 0 -69.5 -27.5t-27.5 -76.5t27.5 -77t69.5 -28v-85z" />
    <glyph glyph-name="uni02C0" unicode="&#x2c0;" 
d="M519 490v354q30 -13 72 -13q105 0 149.5 73.5t44.5 211.5t-43.5 205t-147.5 67q-137 0 -158 -133l-126 10q20 104 94.5 161.5t186.5 57.5q158 0 240 -96t82 -270t-70 -271.5t-202 -108.5v-248h-122z" />
    <glyph glyph-name="uni02C1" unicode="&#x2c1;" 
d="M582 490v248q-132 11 -202 109t-70 271t82 269.5t240 96.5q113 0 187 -57.5t94 -161.5l-126 -10q-21 133 -158 133q-104 0 -147.5 -67t-43.5 -205t44.5 -211.5t149.5 -73.5q42 0 72 13v-354h-122z" />
    <glyph glyph-name="uni02C2" unicode="&#x2c2;" 
d="M107 571v205l995 418v-154l-858 -366l858 -367v-153z" />
    <glyph glyph-name="uni02C3" unicode="&#x2c3;" 
d="M128 154v153l858 367l-858 366v154l995 -418v-205z" />
    <glyph glyph-name="uni02C4" unicode="&#x2c4;" 
d="M1111 237h-167l-331 782l-328 -782h-167l410 971h168z" />
    <glyph glyph-name="uni02C5" unicode="&#x2c5;" 
d="M696 237h-168l-410 971h167l328 -782l331 782h167z" />
    <glyph glyph-name="circumflex" unicode="&#x2c6;" 
d="M945 1201h-105l-219 138h-2l-232 -138h-104v20l254 239h164l244 -239v-20z" />
    <glyph glyph-name="caron" unicode="&#x2c7;" 
d="M283 1460h104l232 -138h2l219 138h105v-20l-244 -239h-164l-254 239v20z" />
    <glyph glyph-name="uni02C8" unicode="&#x2c8;" 
d="M671 1152h-113v332h113v-332z" />
    <glyph glyph-name="uni02C9" unicode="&#x2c9;" 
d="M888 1236h-551v127h551v-127z" />
    <glyph glyph-name="uni02CA" unicode="&#x2ca;" 
d="M442 1205v20l130 259h207v-29l-243 -250h-94z" />
    <glyph glyph-name="uni02CB" unicode="&#x2cb;" 
d="M352 1484h207l130 -259v-20h-94l-243 250v29z" />
    <glyph glyph-name="uni02CC" unicode="&#x2cc;" 
d="M671 -406h-113v332h113v-332z" />
    <glyph glyph-name="uni02CD" unicode="&#x2cd;" 
d="M889 -276h-549v127h549v-127z" />
    <glyph glyph-name="uni02CE" unicode="&#x2ce;" 
d="M446 -127h207l130 -259v-20h-94l-243 250v29z" />
    <glyph glyph-name="uni02CF" unicode="&#x2cf;" 
d="M446 -406v20l130 259h207v-29l-243 -250h-94z" />
    <glyph glyph-name="uni02D0" unicode="&#x2d0;" 
d="M507 0l101 215h13l101 -215h-215zM722 1082l-101 -215h-13l-101 215h215z" />
    <glyph glyph-name="uni02D1" unicode="&#x2d1;" 
d="M722 1082l-101 -215h-13l-101 215h215z" />
    <glyph glyph-name="uni02D2" unicode="&#x2d2;" 
d="M550 177q42 0 69.5 28t27.5 77t-27.5 76.5t-69.5 27.5v85q84 0 134.5 -51t50.5 -138t-50.5 -138.5t-134.5 -51.5v85z" />
    <glyph glyph-name="uni02D3" unicode="&#x2d3;" 
d="M679 92q-85 0 -135 52t-50 138t50 137.5t135 51.5v-85q-42 0 -69.5 -27.5t-27.5 -76.5t27.5 -77t69.5 -28v-85z" />
    <glyph glyph-name="uni02D4" unicode="&#x2d4;" 
d="M794 173h-359v108h123v229h113v-229h123v-108z" />
    <glyph glyph-name="uni02D5" unicode="&#x2d5;" 
d="M794 402h-123v-229h-113v229h-123v108h359v-108z" />
    <glyph glyph-name="uni02D6" unicode="&#x2d6;" 
d="M794 288h-123v-125h-113v125h-123v108h123v124h113v-124h123v-108z" />
    <glyph glyph-name="uni02D7" unicode="&#x2d7;" 
d="M926 275h-624v141h624v-141z" />
    <glyph glyph-name="breve" unicode="&#x2d8;" 
d="M613 1327q85 0 127.5 35t59.5 98h127q-24 -119 -106.5 -189t-206.5 -70t-208 71t-105 188h127q36 -133 185 -133z" />
    <glyph glyph-name="dotaccent" unicode="&#x2d9;" 
d="M515 1292v192h200v-192h-200z" />
    <glyph glyph-name="ring" unicode="&#x2da;" 
d="M735 1348q0 38 -32.5 60.5t-88.5 22.5t-89 -22.5t-33 -60.5t33 -61t89 -23t88.5 23t32.5 61zM856 1348q0 -88 -65 -144t-177 -56t-177 56.5t-65 144.5t66.5 143t176.5 55t175.5 -55.5t65.5 -143.5z" />
    <glyph glyph-name="ogonek" unicode="&#x2db;" 
d="M638 -427q-90 0 -143.5 51.5t-53.5 127.5t41.5 141.5t113.5 106.5h133q-64 -36 -105.5 -98.5t-41.5 -116.5q0 -102 94 -102q54 0 115 24v-107q-63 -27 -153 -27z" />
    <glyph glyph-name="tilde" unicode="&#x2dc;" 
d="M463 1320q-36 0 -51 -9.5t-25 -27.5t-21 -82h-111q11 96 47.5 172t155.5 76q62 0 135 -41t110 -59.5t72 -18.5t55 23.5t30 95.5h112q-16 -138 -65.5 -193t-123.5 -55t-179 59.5t-141 59.5z" />
    <glyph glyph-name="hungarumlaut" unicode="&#x2dd;" 
d="M29 1201v20l207 239h187v-29l-300 -230h-94zM393 1201v20l207 239h187v-29l-300 -230h-94z" />
    <glyph glyph-name="uni02DE" unicode="&#x2de;" 
d="M348 516q51 0 131 40l59 -147q-126 -52 -211 -52q-210 0 -252 268l-78 -19l-23 139l229 35l29 -136q14 -68 39.5 -98t76.5 -30z" />
    <glyph glyph-name="uni02DF" unicode="&#x2df;" 
d="M952 901l-88 -88l-250 251l-250 -251l-88 88l251 250l-251 250l88 88l250 -251l250 251l88 -88l-251 -250z" />
    <glyph glyph-name="uni02E0" unicode="&#x2e0;" 
d="M560 344q0 -60 50 -59q50 0 51 63q0 63 -50 152q-51 -96 -51 -156zM765 352q0 -78 -40.5 -122t-113.5 -44t-114 44t-41 122t74 207l9 18l-251 634h130l193 -510l199 510h130l-259 -633l10 -19q74 -129 74 -207z" />
    <glyph glyph-name="uni02E1" unicode="&#x2e1;" 
d="M694 577h278v-88h-716v88h316v870h-250v88h372v-958z" />
    <glyph glyph-name="uni02E2" unicode="&#x2e2;" 
d="M616 1171q-158 0 -157 -105q0 -40 27 -65t92 -43l80 -22q121 -33 190.5 -76t69.5 -154t-77 -169.5t-213 -58.5t-214 43t-103 150l108 22q31 -118 205 -118q175 0 175 118q0 64 -46.5 88t-158.5 54t-183 72t-71 147q0 104 72 158.5t202 54.5t201 -44t90 -143l-110 -14
q-21 105 -179 105z" />
    <glyph glyph-name="uni02E3" unicode="&#x2e3;" 
d="M811 490l-198 314l-199 -314h-132l261 393l-249 370h135l184 -296l182 296h137l-250 -369l265 -394h-136z" />
    <glyph glyph-name="uni02E4" unicode="&#x2e4;" 
d="M582 490v248q-132 11 -202 109t-70 271q0 174 82 270t240 96q113 0 187 -58t94 -161l-126 -10q-21 133 -158 133q-103 0 -147 -66t-44 -206q0 -138 44 -212t150 -73q42 0 72 13v-354h-122z" />
    <glyph glyph-name="uni02E5" unicode="&#x2e5;" 
d="M856 0h-150v1350h-334v134h484v-1484z" />
    <glyph glyph-name="uni02E6" unicode="&#x2e6;" 
d="M856 0h-150v996h-334v134h334v354h150v-1484z" />
    <glyph glyph-name="uni02E7" unicode="&#x2e7;" 
d="M856 0h-150v668h-334v134h334v682h150v-1484z" />
    <glyph glyph-name="uni02E8" unicode="&#x2e8;" 
d="M856 0h-150v343h-334v134h334v1007h150v-1484z" />
    <glyph glyph-name="uni02E9" unicode="&#x2e9;" 
d="M856 0h-484v134h334v1349h150v-1483z" />
    <glyph glyph-name="uni02EA" unicode="&#x2ea;" 
d="M858 0h-487v880h110v-775h377v-105z" />
    <glyph glyph-name="uni02EB" unicode="&#x2eb;" 
d="M858 396h-377v-396h-110v880h110v-390h377v-94z" />
    <glyph glyph-name="uni02EC" unicode="&#x2ec;" 
d="M931 -145l-225 -280h-192l-216 280h176l143 -190l140 190h174z" />
    <glyph glyph-name="uni02ED" unicode="&#x2ed;" 
d="M926 1239h-624v118h624v-118zM926 1446h-624v118h624v-118z" />
    <glyph glyph-name="uni02EE" unicode="&#x2ee;" 
d="M793 1338q0 -186 -80 -311h-121q95 137 95 262h-89v195h195v-146zM484 1338q0 -186 -80 -311h-121q95 137 95 262h-89v195h195v-146z" />
    <glyph glyph-name="uni02EF" unicode="&#x2ef;" 
d="M380 -353h-82l-169 281h114l96 -170l96 170h114z" />
    <glyph glyph-name="uni02F0" unicode="&#x2f0;" 
d="M549 -353h-114l-96 170l-96 -170h-114l169 281h82z" />
    <glyph glyph-name="uni02F1" unicode="&#x2f1;" 
d="M481 -6v-114l-170 -96l170 -96v-114l-281 169v82z" />
    <glyph glyph-name="uni02F2" unicode="&#x2f2;" 
d="M481 -175v-82l-281 -169v114l170 96l-170 96v114z" />
    <glyph glyph-name="uni02F3" unicode="&#x2f3;" 
d="M445 -234q0 45 -29.5 72.5t-74.5 27.5t-75 -27.5t-30 -72.5t30 -73.5t75 -28.5t74.5 28.5t29.5 73.5zM541 -234q0 -80 -60 -135.5t-140 -55.5t-140 55.5t-60 135.5t59.5 135t141.5 55t140.5 -55t58.5 -135z" />
    <glyph glyph-name="uni02F4" unicode="&#x2f4;" 
d="M141 578h207l177 -287v-20h-94l-290 278v29z" />
    <glyph glyph-name="uni02F5" unicode="&#x2f5;" 
d="M-26 578h207l177 -287v-20h-94l-290 278v29zM321 578h207l177 -287v-20h-94l-290 278v29z" />
    <glyph glyph-name="uni02F6" unicode="&#x2f6;" 
d="M322 271v20l177 287h207v-29l-290 -278h-94zM-25 271v20l177 287h207v-29l-290 -278h-94z" />
    <glyph glyph-name="uni02F7" unicode="&#x2f7;" 
d="M694 -136q-31 -268 -190 -268q-73 0 -144.5 41t-107 59.5t-78.5 18.5q-87 0 -106 -119h-91q11 102 49 185t154 83q64 0 135 -41t105.5 -59.5t64.5 -18.5q100 0 117 119h92z" />
    <glyph glyph-name="uni02F8" unicode="&#x2f8;" 
d="M517 402v207h195v-207h-195zM517 1277v207h195v-207h-195z" />
    <glyph glyph-name="uni02F9" unicode="&#x2f9;" 
d="M817 1361h-276v-213h-130v336h406v-123z" />
    <glyph glyph-name="uni02FA" unicode="&#x2fa;" 
d="M411 1484h406v-336h-130v213h-276v123z" />
    <glyph glyph-name="uni02FB" unicode="&#x2fb;" 
d="M817 -425h-406v336h130v-213h276v-123z" />
    <glyph glyph-name="uni02FC" unicode="&#x2fc;" 
d="M411 -302h276v213h130v-336h-406v123z" />
    <glyph glyph-name="uni02FD" unicode="&#x2fd;" 
d="M991 -425h-754v336h136v-201h481v201h137v-336z" />
    <glyph glyph-name="uni02FE" unicode="&#x2fe;" 
d="M234 -89h143v-200h617v-135h-760v335z" />
    <glyph glyph-name="uni02FF" unicode="&#x2ff;" 
d="M898 -181h-426l185 -243h-112l-214 283v14l214 283h112l-185 -243h426v-94z" />
    <glyph glyph-name="gravecomb" unicode="&#x300;" horiz-adv-x="0" 
d="M-516 1827h207l130 -259v-20h-94l-243 250v29z" />
    <glyph glyph-name="acutecomb" unicode="&#x301;" horiz-adv-x="0" 
d="M-363 1548v20l130 259h207v-29l-243 -250h-94z" />
    <glyph glyph-name="uni0302" unicode="&#x302;" horiz-adv-x="0" 
d="M331 1201h-105l-219 169h-2l-232 -169h-104v20l234 270h204l224 -270v-20z" />
    <glyph glyph-name="tildecomb" unicode="&#x303;" horiz-adv-x="0" 
d="M-240 1800q-31 -268 -190 -268q-73 0 -144.5 41t-107 59.5t-78.5 18.5q-87 0 -106 -119h-91q11 102 49 185t154 83q64 0 135 -41t105.5 -59.5t64.5 -18.5q100 0 117 119h92z" />
    <glyph glyph-name="uni0304" unicode="&#x304;" horiz-adv-x="0" 
d="M274 1236h-549v127h549v-127z" />
    <glyph glyph-name="uni0305" unicode="&#x305;" horiz-adv-x="0" 
d="M-597 1571v130h1193v-130h-1193z" />
    <glyph glyph-name="uni0306" unicode="&#x306;" horiz-adv-x="0" 
d="M0 1167q-120 0 -198.5 70.5t-93.5 189.5h105q12 -59 61.5 -95.5t124.5 -36.5t124.5 35.5t63.5 96.5h105q-18 -122 -95 -191t-197 -69z" />
    <glyph glyph-name="uni0307" unicode="&#x307;" horiz-adv-x="0" 
d="M-90 1237v172h180v-172h-180z" />
    <glyph glyph-name="uni0308" unicode="&#x308;" horiz-adv-x="0" 
d="M-279 1219v184h165v-184h-165zM115 1219v184h163v-184h-163z" />
    <glyph glyph-name="hookabovecomb" unicode="&#x309;" horiz-adv-x="0" 
d="M-223 1682q0 48 -108 48q-57 0 -127 -24l-31 99q90 30 196 30q237 0 237 -149q0 -59 -40.5 -101.5t-131.5 -53.5v-50h-112v120q69 3 93 18t24 63z" />
    <glyph glyph-name="uni030A" unicode="&#x30a;" horiz-adv-x="0" 
d="M104 1444q0 45 -29.5 72.5t-74.5 27.5t-75 -27.5t-30 -72.5t30 -73.5t75 -28.5t74.5 28.5t29.5 73.5zM200 1444q0 -80 -60 -135.5t-140 -55.5t-140 55.5t-60 135.5t59 135t141 55t141 -55t59 -135z" />
    <glyph glyph-name="uni030B" unicode="&#x30b;" horiz-adv-x="0" 
d="M-38 1201v20l217 287h207v-29l-330 -278h-94zM-385 1201v20l217 287h207v-29l-330 -278h-94z" />
    <glyph glyph-name="uni030C" unicode="&#x30c;" horiz-adv-x="0" 
d="M-331 1491h104l232 -169h2l219 169h105v-20l-224 -270h-204l-234 270v20z" />
    <glyph glyph-name="uni030D" unicode="&#x30d;" horiz-adv-x="0" 
d="M58 1152h-113v332h113v-332z" />
    <glyph glyph-name="uni030E" unicode="&#x30e;" horiz-adv-x="0" 
d="M167 1152h-113v332h113v-332zM-54 1152h-113v332h113v-332z" />
    <glyph glyph-name="uni030F" unicode="&#x30f;" horiz-adv-x="0" 
d="M-385 1448h207l217 -227v-20h-94l-330 218v29zM-38 1448h207l217 -227v-20h-94l-330 218v29z" />
    <glyph glyph-name="uni0310" unicode="&#x310;" horiz-adv-x="0" 
d="M91 1636v-172h-180v172h180zM0 1203q-120 0 -198.5 70.5t-93.5 189.5h105q12 -59 61.5 -95.5t124.5 -36.5t124.5 35.5t63.5 96.5h105q-18 -122 -95 -191t-197 -69z" />
    <glyph glyph-name="uni0311" unicode="&#x311;" horiz-adv-x="0" 
d="M0 1466q119 0 196.5 -68.5t95.5 -191.5h-105q-15 62 -64 97t-124 35t-124.5 -36.5t-61.5 -95.5h-105q15 119 94 189.5t198 70.5z" />
    <glyph glyph-name="uni0312" unicode="&#x312;" horiz-adv-x="0" 
d="M-101 1171q0 186 78 313h123q-94 -136 -94 -262h88v-219h-195v168z" />
    <glyph glyph-name="uni0313" unicode="&#x313;" horiz-adv-x="0" 
d="M100 1316q0 -186 -78 -313h-123q94 136 94 262h-88v219h195v-168z" />
    <glyph glyph-name="uni0314" unicode="&#x314;" horiz-adv-x="0" 
d="M-101 1316v168h195v-219h-88q0 -126 94 -262h-123q-78 125 -78 313z" />
    <glyph glyph-name="uni0315" unicode="&#x315;" horiz-adv-x="0" 
d="M197 1316q0 -147 -42.5 -212.5t-122.5 -102.5l-44 71q104 42 110 200h-94v209h193v-165z" />
    <glyph glyph-name="uni0316" unicode="&#x316;" horiz-adv-x="0" 
d="M-165 -128h207l130 -259v-20h-94l-243 250v29z" />
    <glyph glyph-name="uni0317" unicode="&#x317;" horiz-adv-x="0" 
d="M-177 -406v20l130 259h207v-29l-243 -250h-94z" />
    <glyph glyph-name="uni0318" unicode="&#x318;" horiz-adv-x="0" 
d="M162 -417h-111v115h-244v113h244v114h111v-342z" />
    <glyph glyph-name="uni0319" unicode="&#x319;" horiz-adv-x="0" 
d="M-162 -75h111v-114h244v-113h-244v-115h-111v342z" />
    <glyph glyph-name="uni031A" unicode="&#x31a;" horiz-adv-x="0" 
d="M377 1221h-143v313h-611v138h754v-451z" />
    <glyph glyph-name="uni031B" unicode="&#x31b;" horiz-adv-x="0" 
d="M263 1338q0 -186 -80 -311h-121q95 137 95 262h-89v195h195v-146z" />
    <glyph glyph-name="uni031C" unicode="&#x31c;" horiz-adv-x="0" 
d="M95 -425q-85 0 -135 52.5t-50 138.5t50 137t135 51v-85q-42 0 -69.5 -27.5t-27.5 -76.5t27.5 -77t69.5 -28v-85z" />
    <glyph glyph-name="uni031D" unicode="&#x31d;" horiz-adv-x="0" 
d="M179 -425h-359v108h123v229h113v-229h123v-108z" />
    <glyph glyph-name="uni031E" unicode="&#x31e;" horiz-adv-x="0" 
d="M180 -196h-123v-229h-113v229h-123v108h359v-108z" />
    <glyph glyph-name="uni031F" unicode="&#x31f;" horiz-adv-x="0" 
d="M178 -300h-123v-125h-113v125h-123v108h123v124h113v-124h123v-108z" />
    <glyph glyph-name="uni0320" unicode="&#x320;" horiz-adv-x="0" 
d="M313 -298h-624v141h624v-141z" />
    <glyph glyph-name="uni0321" unicode="&#x321;" horiz-adv-x="0" 
d="M178 155v-284q0 -296 -281 -296q-51 0 -136 16v164q50 -18 119 -18q120 0 120 148v270h178z" />
    <glyph glyph-name="uni0322" unicode="&#x322;" horiz-adv-x="0" 
d="M178 155v-270q0 -148 120 -148q69 0 119 18v-164q-85 -16 -136 -16q-281 0 -281 296v284h178z" />
    <glyph glyph-name="dotbelowcomb" unicode="&#x323;" horiz-adv-x="0" 
d="M-779 -321v192h200v-192h-200z" />
    <glyph glyph-name="uni0324" unicode="&#x324;" horiz-adv-x="0" 
d="M-279 -425v184h165v-184h-165zM115 -425v184h163v-184h-163z" />
    <glyph glyph-name="uni0325" unicode="&#x325;" horiz-adv-x="0" 
d="M104 -234q0 45 -29.5 72.5t-74.5 27.5t-75 -27.5t-30 -72.5t30 -73.5t75 -28.5t74.5 28.5t29.5 73.5zM200 -234q0 -80 -60 -135.5t-140 -55.5t-140 55.5t-60 135.5t59 135t141 55t141 -55t59 -135z" />
    <glyph glyph-name="uni0326" unicode="&#x326;" horiz-adv-x="0" 
d="M98 -204q0 -152 -84 -251h-117q94 100 94 190h-88v167h195v-106z" />
    <glyph glyph-name="uni0327" unicode="&#x327;" horiz-adv-x="0" 
d="M-96 -348q147 0 147 84t-133 84h-28l-29 -2l65 182h107l-39 -100q94 -3 141 -44.5t47 -113.5q0 -186 -274 -186q-57 0 -90 4v98q49 -6 86 -6z" />
    <glyph glyph-name="uni0328" unicode="&#x328;" horiz-adv-x="0" 
d="M16 -427q-90 0 -143 50.5t-53 128.5t43.5 144t111.5 104h133q-64 -36 -105.5 -98.5t-41.5 -116.5q0 -102 94 -102q54 0 115 24v-107q-64 -27 -154 -27z" />
    <glyph glyph-name="uni0329" unicode="&#x329;" horiz-adv-x="0" 
d="M67 -425h-134v350h134v-350z" />
    <glyph glyph-name="uni032A" unicode="&#x32a;" horiz-adv-x="0" 
d="M377 -425h-137v201h-481v-201h-136v336h754v-336z" />
    <glyph glyph-name="uni032B" unicode="&#x32b;" horiz-adv-x="0" 
d="M355 -131q0 -237 -196 -237q-104 0 -159 91q-57 -91 -160 -91q-195 0 -195 237h97q0 -143 92 -143q55 0 87.5 37t32.5 106h92q0 -69 32.5 -106t87.5 -37q92 0 92 143h97z" />
    <glyph glyph-name="uni032C" unicode="&#x32c;" horiz-adv-x="0" 
d="M-327 -165h104l222 -139h2l219 139h105v-21l-224 -239h-204l-224 239v21z" />
    <glyph glyph-name="uni032D" unicode="&#x32d;" horiz-adv-x="0" 
d="M321 -425h-105l-219 139h-2l-222 -139h-104v21l224 239h204l224 -239v-21z" />
    <glyph glyph-name="uni032E" unicode="&#x32e;" horiz-adv-x="0" 
d="M0 -398q-120 0 -198.5 70.5t-93.5 189.5h105q12 -59 61.5 -95.5t124.5 -36.5t124.5 35.5t63.5 96.5h105q-18 -122 -95 -191t-197 -69z" />
    <glyph glyph-name="uni032F" unicode="&#x32f;" horiz-adv-x="0" 
d="M0 -138q119 0 196.5 -68.5t95.5 -191.5h-105q-15 62 -64 97t-124 35t-124.5 -36.5t-61.5 -95.5h-105q15 119 94 189.5t198 70.5z" />
    <glyph glyph-name="uni0330" unicode="&#x330;" horiz-adv-x="0" 
d="M359 -157q-31 -268 -190 -268q-73 0 -144.5 41t-107 59.5t-78.5 18.5q-87 0 -106 -119h-91q11 102 49 185t154 83q64 0 135 -41t105.5 -59.5t64.5 -18.5q100 0 117 119h92z" />
    <glyph glyph-name="uni0331" unicode="&#x331;" horiz-adv-x="0" 
d="M274 -324h-549v127h549v-127z" />
    <glyph glyph-name="uni0332" unicode="&#x332;" horiz-adv-x="0" 
d="M-597 -407v130h1193v-130h-1193z" />
    <glyph glyph-name="uni0333" unicode="&#x333;" horiz-adv-x="0" 
d="M313 -425h-624v118h624v-118zM313 -218h-624v118h624v-118z" />
    <glyph glyph-name="uni0334" unicode="&#x334;" horiz-adv-x="0" 
d="M359 509q-31 -268 -190 -268q-73 0 -144.5 41t-107 59.5t-78.5 18.5q-87 0 -106 -119h-91q11 102 49 185t154 83q64 0 135 -41t105.5 -59.5t64.5 -18.5q100 0 117 119h92z" />
    <glyph glyph-name="uni0335" unicode="&#x335;" horiz-adv-x="0" 
d="M351 274h-702v143h702v-143z" />
    <glyph glyph-name="uni0336" unicode="&#x336;" horiz-adv-x="0" 
d="M598 284h-1193v125h1193v-125z" />
    <glyph glyph-name="uni0337" unicode="&#x337;" horiz-adv-x="0" 
d="M512 898l-925 -926l-99 97l925 926z" />
    <glyph glyph-name="uni0338" unicode="&#x338;" horiz-adv-x="0" 
d="M287 1511l-424 -1546h-145l425 1546h144z" />
    <glyph glyph-name="uni0339" unicode="&#x339;" horiz-adv-x="0" 
d="M-93 -349q42 0 69.5 28t27.5 77t-27.5 76.5t-69.5 27.5v85q84 0 134.5 -51t50.5 -138t-50.5 -138.5t-134.5 -51.5v85z" />
    <glyph glyph-name="uni033A" unicode="&#x33a;" horiz-adv-x="0" 
d="M377 -425h-754v336h136v-201h481v201h137v-336z" />
    <glyph glyph-name="uni033B" unicode="&#x33b;" horiz-adv-x="0" 
d="M93 -330v186h-186v-186h186zM188 -425h-376v376h376v-376z" />
    <glyph glyph-name="uni033C" unicode="&#x33c;" horiz-adv-x="0" 
d="M161 -220q-55 0 -85 -37t-30 -106h-92q0 69 -30 106t-85 37q-74 0 -91 -74h-98q13 78 58 123t123 45q112 0 169 -91q32 51 71 71t105 20t113.5 -45t60.5 -123h-98q-17 74 -91 74z" />
    <glyph glyph-name="uni033D" unicode="&#x33d;" horiz-adv-x="0" 
d="M218 1223l-87 -85l-132 134l-131 -133l-86 83l131 133l-132 133l87 85l132 -133l132 132l86 -83l-132 -132z" />
    <glyph glyph-name="uni033E" unicode="&#x33e;" horiz-adv-x="0" 
d="M105 1597q-93 -17 -93 -78q0 -34 14.5 -59t32 -51.5t32 -56t14.5 -70.5t-23.5 -72.5t-63.5 -49.5t-123 -28v77q93 13 93 77q0 32 -14.5 56.5t-46.5 73t-32 107.5q0 126 210 150v-76z" />
    <glyph glyph-name="uni033F" unicode="&#x33f;" horiz-adv-x="0" 
d="M-596 1738v102h1193v-102h-1193zM-596 1548v102h1193v-102h-1193z" />
    <glyph glyph-name="uni0340" unicode="&#x340;" horiz-adv-x="0" 
d="M-17 1194h-120l-196 265v15h179l137 -268v-12z" />
    <glyph glyph-name="uni0341" unicode="&#x341;" horiz-adv-x="0" 
d="M334 1474v-15l-196 -265h-120v12l137 268h179z" />
    <glyph glyph-name="uni0342" unicode="&#x342;" horiz-adv-x="0" 
d="M-145 1310q-85 0 -102 -109h-101q29 258 203 258q60 0 122.5 -34t95 -49.5t68.5 -15.5q91 0 106 109h102q-28 -258 -209 -258q-59 0 -118.5 34t-92 49.5t-74.5 15.5z" />
    <glyph glyph-name="uni0343" unicode="&#x343;" horiz-adv-x="0" 
d="M101 1338q0 -186 -80 -311h-121q95 137 95 262h-89v195h195v-146z" />
    <glyph glyph-name="uni0344" unicode="&#x344;" horiz-adv-x="0" 
d="M189 1231v172h150v-172h-150zM-341 1231v172h150v-172h-150zM177 1507v-15l-189 -261h-117v12l131 264h175z" />
    <glyph glyph-name="uni0345" unicode="&#x345;" horiz-adv-x="0" 
d="M62 -252q0 -56 40 -56q19 0 52 6v-112q-44 -11 -82 -11q-142 0 -142 152v146h132v-125z" />
    <glyph glyph-name="uni0346" unicode="&#x346;" horiz-adv-x="0" 
d="M377 1234h-137v201h-481v-201h-136v336h754v-336z" />
    <glyph glyph-name="uni0347" unicode="&#x347;" horiz-adv-x="0" 
d="M-499 -425v106h995v-106h-995zM-499 -236v106h995v-106h-995z" />
    <glyph glyph-name="uni0348" unicode="&#x348;" horiz-adv-x="0" 
d="M190 -425h-134v350h134v-350zM-51 -425h-134v350h134v-350z" />
    <glyph glyph-name="uni0349" unicode="&#x349;" horiz-adv-x="0" 
d="M-203 -89h406v-336h-130v213h-276v123z" />
    <glyph glyph-name="uni034A" unicode="&#x34a;" horiz-adv-x="0" 
d="M359 1469q-31 -268 -189 -268q-72 0 -153 49l-61 -109l-97 55l61 108q-40 19 -69 19q-99 0 -118 -122h-91q11 102 49 185t154 83q62 0 141 -48l61 108l97 -54l-61 -108q42 -20 67 -20q100 0 117 122h92z" />
    <glyph glyph-name="uni034B" unicode="&#x34b;" horiz-adv-x="0" 
d="M-97 1622v172h180v-172h-180zM-97 1122v172h180v-172h-180zM361 1571q-31 -236 -191 -236q-73 0 -142.5 35.5t-104 52t-77.5 16.5q-84 0 -102 -104h-104q11 89 49 162.5t155 73.5q63 0 132 -36t103 -52.5t76 -16.5q83 0 100 105h106z" />
    <glyph glyph-name="uni034C" unicode="&#x34c;" horiz-adv-x="0" 
d="M368 1717q-31 -236 -191 -236q-73 0 -142.5 35.5t-104 52t-77.5 16.5q-84 0 -102 -104h-104q11 89 49 162.5t155 73.5q63 0 132 -36t103 -52.5t76 -16.5q83 0 100 105h106zM368 1453q-31 -236 -191 -236q-73 0 -142.5 35.5t-104 52t-77.5 16.5q-84 0 -102 -104h-104
q11 89 49 162.5t155 73.5q63 0 132 -36t103 -52.5t76 -16.5q83 0 100 105h106z" />
    <glyph glyph-name="uni034D" unicode="&#x34d;" horiz-adv-x="0" 
d="M123 -297h-246v-128l-150 179l150 175v-118h246v118l150 -175l-150 -179v128z" />
    <glyph glyph-name="uni034E" unicode="&#x34e;" horiz-adv-x="0" 
d="M-59 -425v238h-118l177 143l177 -143h-124v-238h-112z" />
    <glyph glyph-name="uni034F" unicode="&#x34f;" horiz-adv-x="0" 
d="M-413 0h-333v329h109v-220h224v-109zM167 0h-334v109h334v-109zM-637 575h-109v334h109v-334zM-323 460q54 0 54 -54t-54 -54t-54 54t54 54zM-119 308q-1 -54 -55 -54t-54 54t54 55q54 -1 55 -55zM-368 558q0 -54 -54 -55q-54 1 -55 55q1 54 55 54t54 -54zM55 272
q-1 -54 -55 -54t-54 54t54 54t55 -54zM-457 786q54 0 54 -54t-54 -54t-54 54t54 54zM-368 906q0 -54 -54 -55q-54 1 -55 55q1 54 55 54t54 -54zM176 363q54 -1 55 -55q-1 -54 -55 -54t-54 54t54 55zM327 460q54 0 54 -54t-54 -54t-54 54t54 54zM-323 1110q54 0 54 -54
t-54 -54t-54 54t54 54zM746 0h-333v109h224v220h109v-329zM-413 1375h-224v-220h-109v329h333v-109zM479 558q-1 -54 -55 -55q-54 1 -54 55t54 54t55 -54zM-119 1156q-1 -54 -55 -55q-54 1 -54 55t54 54t55 -54zM55 1190q-1 -54 -55 -54t-54 54t54 55q54 -1 55 -55zM515 732
q0 -54 -54 -55q-54 1 -54 55t54 54t54 -54zM479 906q-1 -54 -55 -55q-54 1 -54 55t54 54t55 -54zM178 1210q52 0 52 -54t-52 -55q-57 1 -57 55t57 54zM379 1056q0 -54 -54 -54t-54 54t54 55q54 -1 54 -55zM746 575h-109v334h109v-334zM167 1375h-334v109h334v-109zM746 1155
h-109v220h-224v109h333v-329z" />
    <glyph glyph-name="uni0350" unicode="&#x350;" horiz-adv-x="0" 
d="M141 1400v-82l-281 -169v114l170 96l-170 96v114z" />
    <glyph glyph-name="uni0351" unicode="&#x351;" horiz-adv-x="0" 
d="M92 1144q-85 0 -135 52t-50 138t50 137.5t135 51.5v-85q-42 0 -69.5 -27.5t-27.5 -76.5t27.5 -77t69.5 -28v-85z" />
    <glyph glyph-name="uni0352" unicode="&#x352;" horiz-adv-x="0" 
d="M-89 1237v172h180v-172h-180zM0 1670q119 0 196.5 -68.5t95.5 -191.5h-105q-15 62 -64 97t-124 35t-124.5 -36.5t-61.5 -95.5h-105q15 119 94 189.5t198 70.5z" />
    <glyph glyph-name="uni0353" unicode="&#x353;" horiz-adv-x="0" 
d="M218 -361l-87 -85l-132 134l-131 -133l-86 83l131 133l-132 133l87 85l132 -133l132 132l86 -83l-132 -132z" />
    <glyph glyph-name="uni0354" unicode="&#x354;" horiz-adv-x="0" 
d="M141 -6v-114l-170 -96l170 -96v-114l-281 169v82z" />
    <glyph glyph-name="uni0355" unicode="&#x355;" horiz-adv-x="0" 
d="M141 -175v-82l-281 -169v114l170 96l-170 96v114z" />
    <glyph glyph-name="uni0356" unicode="&#x356;" horiz-adv-x="0" 
d="M429 -353h-114l-96 170l-96 -170h-114l169 281h82zM1 -175v-82l-281 -169v114l170 96l-170 96v114z" />
    <glyph glyph-name="uni0357" unicode="&#x357;" horiz-adv-x="0" 
d="M-92 1229q42 0 69.5 28t27.5 77t-27.5 76.5t-69.5 27.5v85q84 0 134.5 -51t50.5 -138t-50.5 -138.5t-134.5 -51.5v85z" />
    <glyph glyph-name="uni0358" unicode="&#x358;" horiz-adv-x="0" 
d="M245 1286q0 39 28 67t67 28t67 -28.5t28 -66.5t-28.5 -66.5t-66.5 -28.5t-66.5 28t-28.5 67z" />
    <glyph glyph-name="uni0359" unicode="&#x359;" horiz-adv-x="0" 
d="M32 -202l133 51l25 -75l-142 -37l93 -122l-67 -41l-75 127l-78 -126l-66 41l94 121l-140 37l25 76l134 -53l-9 142h83z" />
    <glyph glyph-name="uni035A" unicode="&#x35a;" horiz-adv-x="0" 
d="M247 -246q0 51 -30.5 78t-74.5 27t-73.5 -30.5t-29.5 -74.5t29.5 -74.5t73.5 -30.5t74.5 27t30.5 78zM-243 -246q0 -51 30.5 -78t74.5 -27t73.5 30.5t29.5 74.5t-29.5 74.5t-73.5 30.5t-74.5 -27t-30.5 -78zM325 -246q0 -78 -52.5 -128.5t-136.5 -50.5t-134 73
q-51 -73 -135 -73t-136 50.5t-52 128.5t52.5 128.5t136.5 50.5t134 -72q50 72 134 72t136.5 -50.5t52.5 -128.5z" />
    <glyph glyph-name="uni035B" unicode="&#x35b;" horiz-adv-x="0" 
d="M200 1409l-95 -282h-113l64 179h-256l95 282h113l-64 -179h256z" />
    </font>
</defs>
</svg>
