<?xml version="1.0" standalone="no"?>
<!DOCTYPE svg PUBLIC "-//W3C//DTD SVG 1.1//EN" "http://www.w3.org/Graphics/SVG/1.1/DTD/svg11.dtd" >
<svg xmlns="http://www.w3.org/2000/svg">
<metadata>
Created by FontPrep 20130207 at Thu Dec 31 15:26:12 2015
 By James Campbell
Digitized data copyright (c) 2010-2012 Google Corporation.
</metadata>
<defs>
<font id="32f57f87ccfcbbd24c28b635a695c6cf" horiz-adv-x='1024' >
  <font-face 
    font-family="Cousine-Italic"
    font-weight="400"
    font-style="italic"
    font-stretch="normal"
    units-per-em="2048"
    panose-1="2 7 4 9 2 2 5 9 4 4"
    ascent="1638"
    descent="-410"
    x-height="1082"
    cap-height="1349"
    bbox="-987 -615 1687 2009"
    underline-thickness="84"
    underline-position="-435"
    slope="-12"
    unicode-range="U+0020-FE23"
  />
<missing-glyph 
d="M963 1230h-697v-1111h697v1111zM147 0v1349h935v-1349h-935z" />
    <glyph glyph-name=".notdef" 
d="M963 1230h-697v-1111h697v1111zM147 0v1349h935v-1349h-935z" />
    <glyph glyph-name=".null" horiz-adv-x="0" 
 />
    <glyph glyph-name="nonmarkingreturn" 
 />
    <glyph glyph-name="space" unicode=" " 
 />
    <glyph glyph-name="space" unicode="&#xa0;" 
 />
    <glyph glyph-name="exclam" unicode="!" 
d="M410 0l39 201h194l-39 -201h-194zM661 397h-148l161 951h196z" />
    <glyph glyph-name="quotedbl" unicode="&#x22;" 
d="M518 845h-141l83 639h224zM967 845h-142l84 639h224z" />
    <glyph glyph-name="numbersign" unicode="#" 
d="M516 833l-131 -317h362l129 317h-360zM987 833l-129 -317h260l-21 -108h-283l-167 -408h-110l165 408h-363l-163 -408h-110l163 408h-201l21 108h225l129 317h-241l21 108h263l168 408h110l-167 -408h363l167 408h110l-167 -408h211l-21 -108h-233z" />
    <glyph glyph-name="dollar" unicode="$" 
d="M952 432q0 91 -67.5 128t-181.5 67l-92 -471q166 10 253.5 84.5t87.5 191.5zM390 974q0 -60 43.5 -98.5t175.5 -73.5l80 413q-256 -11 -294 -197zM216 950q0 172 130.5 281t368.5 115l25 130h128l-25 -130q185 -7 272 -80t98 -241l-180 -33q-2 105 -53.5 159t-162.5 62
l-83 -426q179 -46 286.5 -105.5t107.5 -216.5q0 -120 -63 -222t-187 -159t-293 -64l-31 -161h-128l31 161q-420 14 -422 359l177 37q0 -244 272 -258l95 489q-173 40 -238.5 84.5t-95 93.5t-29.5 125z" />
    <glyph glyph-name="percent" unicode="%" 
d="M1054 436q0 68 -27 94.5t-87 26.5t-100.5 -42t-65 -132.5t-24.5 -158.5q0 -124 110 -123q125 0 159.5 133.5t34.5 201.5zM971 665q230 0 230 -221q0 -114 -65.5 -285t-299.5 -171q-233 0 -233 228q0 76 50 262.5t318 186.5zM534 1131q0 64 -25 93t-87 29t-103 -41.5
t-65.5 -133t-24.5 -158.5q0 -123 110 -123q124 0 159.5 135t35.5 199zM451 1361q229 0 229 -220q0 -79 -23.5 -168.5t-96 -189t-245.5 -99.5q-233 0 -233 228q0 76 49.5 262.5t319.5 186.5zM116 0h-145l1195 1353h147z" />
    <glyph glyph-name="ampersand" unicode="&#x26;" 
d="M170 311q0 -200 216 -200q66 0 136 29.5t121 76.5q-139 202 -230 441q-116 -57 -179.5 -152.5t-63.5 -194.5zM889 1126q0 46 -38.5 78t-107.5 32q-106 0 -174 -65.5t-68 -189.5q0 -74 25 -149q169 66 219.5 94t82.5 58.5t46.5 63t14.5 78.5zM850 234q64 -105 168 -105
q48 0 90 16l-26 -135q-52 -22 -120 -22t-132 34t-104 95q-181 -137 -364 -137q-363 0 -363 298q0 146 94.5 277t287.5 222q-29 85 -29 185q0 184 114.5 289.5t303.5 105.5q128 0 201.5 -57.5t73.5 -147.5t-44.5 -159.5t-138.5 -130t-302 -140.5q90 -236 202 -389
q122 179 204 406l136 -43q-88 -235 -252 -462z" />
    <glyph glyph-name="quotesingle" unicode="'" 
d="M743 845h-141l83 639h224z" />
    <glyph glyph-name="parenleft" unicode="(" 
d="M309 234q0 199 59.5 423t179 417.5t336.5 409.5h190q-211 -209 -332 -401.5t-183 -416.5t-62 -410t48 -343.5t158 -337.5h-190q-204 324 -204 659z" />
    <glyph glyph-name="parenright" unicode=")" 
d="M915 832q0 -196 -60.5 -425.5t-179.5 -423t-335 -408.5h-192q214 212 336 405.5t183 416.5t61 419q0 334 -209 668h192q204 -324 204 -652z" />
    <glyph glyph-name="asterisk" unicode="*" 
d="M797 1188l284 103l19 -132l-296 -73l137 -250l-133 -72l-100 258l-206 -256l-105 72l237 248l-266 73l71 134l247 -107l45 297h136z" />
    <glyph glyph-name="plus" unicode="+" 
d="M687 608v-428h-147v428h-424v146h424v428h147v-428h424v-146h-424z" />
    <glyph glyph-name="comma" unicode="," 
d="M83 -363l298 662h265l-440 -662h-123z" />
    <glyph glyph-name="hyphen" unicode="-" 
d="M319 464l31 160h560l-31 -160h-560z" />
    <glyph glyph-name="hyphen" unicode="&#xad;" 
d="M319 464l31 160h560l-31 -160h-560z" />
    <glyph glyph-name="period" unicode="." 
d="M391 0l58 299h235l-58 -299h-235z" />
    <glyph glyph-name="slash" unicode="/" 
d="M5 -20l1113 1504h178l-1109 -1504h-182z" />
    <glyph glyph-name="zero" unicode="0" 
d="M498 555l49 249h235l-49 -249h-235zM302 420q0 -293 225 -293q111 0 188.5 57t133 172.5t92.5 295t37 309.5t-55 196.5t-189 66.5t-226 -101.5t-149 -325.5t-57 -377zM778 1370q381 0 381 -421q0 -157 -47 -354t-177.5 -406t-432.5 -209q-381 0 -381 431q0 153 48.5 354
t132 337.5t199 202t277.5 65.5z" />
    <glyph glyph-name="one" unicode="1" 
d="M52 0l28 145h439l199 1021q-53 -79 -202.5 -136.5t-283.5 -57.5l29 148q150 0 293.5 65t213.5 164h166l-234 -1204h353l-28 -145h-973z" />
    <glyph glyph-name="two" unicode="2" 
d="M971 1054q0 76 -58 122t-168 46t-194.5 -59.5t-121.5 -178.5l-180 17q54 172 192.5 270.5t326.5 98.5t290 -73t102 -213q0 -217 -165 -357.5t-337 -258.5t-253 -188.5t-121 -133.5h723l-28 -146h-940l23 117q113 176 311.5 318.5t289.5 207.5t165.5 135.5t108.5 135
t34 140.5z" />
    <glyph glyph-name="three" unicode="3" 
d="M92 325q0 28 1 37l190 17l-1 -21q0 -229 259 -229q212 0 277.5 106.5t65.5 188.5t-82.5 133.5t-220.5 51.5h-102l31 156h98q96 0 228.5 54.5t132.5 231.5q0 81 -55.5 126t-171.5 45t-202 -61t-120 -172l-178 14q54 172 196 269.5t333 97.5t290 -73t99 -213t-100.5 -249.5
t-264.5 -141.5l-1 -4q129 -15 203 -86.5t74 -163.5t-40.5 -181t-152.5 -183.5t-366 -94.5q-206 0 -313 88t-107 257z" />
    <glyph glyph-name="four" unicode="4" 
d="M876 1154l-634 -693h500zM894 319l-62 -319h-180l62 319h-654l27 140l808 890h199l-172 -888h188l-28 -142h-188z" />
    <glyph glyph-name="five" unicode="5" 
d="M629 722q-133 0 -268 -101h-176l188 728h801l-28 -145h-635l-112 -425q137 90 311 90t276.5 -90.5t102.5 -237.5t-76 -281.5t-213.5 -207t-322.5 -72.5t-289 87t-104 248l186 21q16 -209 253 -209q106 0 192 49.5t135 142t49 187.5t-68.5 155.5t-201.5 60.5z" />
    <glyph glyph-name="six" unicode="6" 
d="M901 521q0 105 -60.5 163t-160.5 58t-226.5 -70t-126.5 -281q0 -122 62.5 -194t162.5 -72t179 51.5t124.5 145.5t45.5 199zM1089 551q0 -103 -41 -213t-155.5 -234t-360.5 -124q-189 0 -287 111t-98 322q0 158 52.5 351t187.5 399.5t429 206.5q318 0 347 -287l-179 -31
q-19 172 -198 172q-153 0 -265.5 -140.5t-160.5 -388.5q137 186 378 186q165 0 258 -88.5t93 -241.5z" />
    <glyph glyph-name="seven" unicode="7" 
d="M491 0h-188q107 540 721 1204h-737l28 145h911l-27 -139q-606 -685 -708 -1210z" />
    <glyph glyph-name="eight" unicode="8" 
d="M885 460q0 86 -66 135t-180 49t-194.5 -43t-121.5 -119.5t-41 -165.5q0 -201 242 -201t301.5 129.5t59.5 215.5zM970 1068q0 168 -225 168q-201 0 -254.5 -102t-53.5 -182t56.5 -126.5t164.5 -46.5t181 42t102 115.5t29 131.5zM92 291q0 105 47 194t129 148t178 74l1 4
q-90 22 -141.5 88.5t-51.5 168.5t67 197.5t186 150t283 54.5t266.5 -76.5t102.5 -207.5t-91.5 -239t-224.5 -134l-1 -4q106 -17 167 -85t61 -163t-40 -187.5t-152 -193t-373 -100.5q-196 0 -304.5 80.5t-108.5 230.5z" />
    <glyph glyph-name="nine" unicode="9" 
d="M964 962q0 120 -61 191t-163 71t-181.5 -52t-125.5 -148.5t-46 -202.5t59.5 -167t157.5 -61t183 47.5t131 124.5t46 197zM460 -20q-158 0 -243.5 70t-98.5 224l178 27q19 -176 203 -176q151 0 265.5 137t165.5 388q-57 -89 -164 -144t-224 -55q-158 0 -249.5 92
t-91.5 253q0 108 40.5 217.5t158 233t371.5 123.5q375 0 375 -415q0 -160 -49.5 -353.5t-141 -335.5t-214.5 -214t-281 -72z" />
    <glyph glyph-name="colon" unicode=":" 
d="M543 783l58 299h235l-58 -299h-235zM391 0l58 299h235l-58 -299h-235z" />
    <glyph glyph-name="semicolon" unicode=";" 
d="M176 -363l298 662h265l-440 -662h-123zM543 783l58 299h235l-58 -299h-235z" />
    <glyph glyph-name="semicolon" unicode="&#x37e;" 
d="M176 -363l298 662h265l-440 -662h-123zM543 783l58 299h235l-58 -299h-235z" />
    <glyph glyph-name="less" unicode="&#x3c;" 
d="M116 571v205l995 418v-154l-858 -366l858 -367v-153z" />
    <glyph glyph-name="equal" unicode="=" 
d="M116 344v148h995v-148h-995zM116 856v148h995v-148h-995z" />
    <glyph glyph-name="greater" unicode="&#x3e;" 
d="M116 154v153l858 367l-858 366v154l995 -418v-205z" />
    <glyph glyph-name="question" unicode="?" 
d="M343 0l39 201h195l-39 -201h-195zM984 1036q0 184 -262 184q-128 0 -227 -72.5t-138 -199.5l-181 12q62 194 215 302t357 108t313.5 -76.5t109.5 -215.5q0 -254 -295 -427q-138 -82 -200.5 -147t-80.5 -147h-175q24 105 94 188t206 165t200 158t64 168z" />
    <glyph glyph-name="at" unicode="@" 
d="M831 869q0 130 -96 130q-76 0 -154.5 -95.5t-137 -262.5t-58.5 -299t77 -132q108 0 187.5 141t130.5 289.5t51 228.5zM798 104q-116 0 -116 108q0 26 5 49l9 38h-6q-49 -87 -122.5 -141t-152.5 -54t-121.5 59.5t-42.5 199.5t76.5 328.5t191.5 299t234 110.5
q145 0 150 -173h5l62 151h116l-198 -507q-98 -259 -98 -312q0 -54 36 -54q69 0 137.5 115t117.5 306t49 358t-78.5 275t-215.5 108t-258 -84t-219 -243t-158.5 -375t-60.5 -408t85 -307.5t242 -115.5q91 0 183 33.5t217 124.5l54 -87q-140 -102 -255.5 -145.5t-231.5 -43.5
q-203 0 -313 142t-110 390q0 195 69.5 438t185.5 422.5t267.5 277t332.5 97.5t285 -131t104 -341t-67 -433.5t-170.5 -349t-219.5 -125.5z" />
    <glyph glyph-name="A" unicode="A" 
d="M745 1205q-92 -182 -363 -674h463l-76 500zM929 0l-64 382h-563l-211 -382h-196l772 1349h217l239 -1349h-194z" />
    <glyph glyph-name="B" unicode="B" 
d="M623 631h-252l-93 -478h266q175 0 269 60.5t118 183.5l5 49q0 185 -313 185zM703 1196h-223l-80 -416h225q298 0 342 218l5 46q0 81 -67.5 116.5t-201.5 35.5zM731 1349q440 0 440 -258q0 -87 -63 -212.5t-273 -167.5q146 -17 219.5 -88t73.5 -165q0 -202 -159 -330
t-440 -128h-472l262 1349h412z" />
    <glyph glyph-name="C" unicode="C" 
d="M316 452q0 -317 266 -317q103 0 200 71.5t177 210.5l146 -65q-223 -372 -555 -372q-212 0 -323 118.5t-111 348.5q0 165 103.5 544t596.5 379q329 0 395 -335l-180 -65q-18 119 -84 181.5t-170 62.5t-185.5 -51t-140 -154t-97 -266.5t-38.5 -290.5z" />
    <glyph glyph-name="D" unicode="D" 
d="M981 865q0 173 -94.5 250.5t-285.5 77.5h-121l-202 -1037h162q382 0 461.5 294.5t79.5 414.5zM630 1349q545 0 545 -459q0 -158 -54 -335t-203 -366t-491 -189h-370l262 1349h311z" />
    <glyph glyph-name="E" unicode="E" 
d="M57 0l262 1349h919l-30 -156h-728l-82 -422h668l-30 -154h-668l-90 -461h769l-30 -156h-960z" />
    <glyph glyph-name="F" unicode="F" 
d="M512 1193l-96 -494h676l-31 -158h-676l-105 -541h-191l262 1349h891l-30 -156h-700z" />
    <glyph glyph-name="G" unicode="G" 
d="M549 -20q-433 0 -433 471q0 161 104.5 540t582.5 379q344 0 397 -331l-182 -56q-36 231 -244 231t-293.5 -149.5t-125 -316t-39.5 -293.5q0 -320 260 -320q68 0 144.5 21t130.5 53l65 336h-293l31 160h479l-111 -572q-255 -153 -473 -153z" />
    <glyph glyph-name="H" unicode="H" 
d="M770 0l121 623h-522l-121 -623h-191l262 1349h191l-110 -566h522l110 566h191l-262 -1349h-191z" />
    <glyph glyph-name="I" unicode="I" 
d="M359 1349h823l-30 -156h-316l-202 -1037h316l-30 -156h-823l30 156h316l202 1037h-316z" />
    <glyph glyph-name="J" unicode="J" 
d="M488 -20q-180 0 -264.5 87t-84.5 274v9l193 31v-19q0 -112 46 -169.5t130 -57.5q209 0 264 281l151 777h-311l30 156h501l-180 -929q-39 -205 -167 -322.5t-308 -117.5z" />
    <glyph glyph-name="K" unicode="K" 
d="M898 0l-359 641l-200 -172l-91 -469h-191l262 1349h191l-131 -673l703 673h225l-615 -572l430 -777h-224z" />
    <glyph glyph-name="L" unicode="L" 
d="M132 0l262 1349h191l-232 -1193h672l-30 -156h-863z" />
    <glyph glyph-name="M" unicode="M" 
d="M832 0l169 868q25 126 64 301l-151 -291l-249 -438h-137l-81 438q-15 73 -40 291l-54 -301l-169 -868h-160l262 1349h237l90 -489q12 -57 23 -231l115 230l280 490h225l-262 -1349h-162z" />
    <glyph glyph-name="N" unicode="N" 
d="M731 0l-300 1130q-15 -161 -34 -254l-170 -876h-170l262 1349h222l307 -1138q12 155 35 274l168 864h172l-262 -1349h-230z" />
    <glyph glyph-name="O" unicode="O" 
d="M978 913q0 301 -232 301q-270 0 -356 -301.5t-86 -466.5q0 -311 231 -311q296 0 369.5 329.5t73.5 448.5zM102 430q0 160 49.5 351t181 390t443.5 199q198 0 301 -110.5t103 -331.5q0 -155 -49 -346t-184.5 -396.5t-442.5 -205.5q-202 0 -302 116.5t-100 333.5z" />
    <glyph glyph-name="P" unicode="P" 
d="M1011 1002q0 194 -285 194h-246l-103 -531h254q114 0 201.5 44t133 124t45.5 169zM629 514h-281l-100 -514h-191l262 1349h460q208 0 318 -81.5t110 -225.5t-74.5 -266.5t-207 -192t-296.5 -69.5z" />
    <glyph glyph-name="Q" unicode="Q" 
d="M978 913q0 301 -232 301q-270 0 -356 -301.5t-86 -466.5q0 -311 231 -311q296 0 369.5 329.5t73.5 448.5zM870 -244q55 0 117 13l-26 -134q-98 -22 -182 -22q-151 0 -232 86t-104 285q-171 17 -256 131.5t-85 294.5t49.5 371t181 390t443.5 199q198 0 301 -110.5
t103 -331.5q0 -133 -39 -304.5t-146.5 -371t-354.5 -256.5q17 -126 73 -183t157 -57z" />
    <glyph glyph-name="R" unicode="R" 
d="M1018 1026q0 170 -266 170h-272l-91 -470h280q111 0 191 39.5t119 112t39 148.5zM801 1349q209 0 311.5 -76t102.5 -213q0 -104 -51.5 -205t-150.5 -169.5t-225 -88.5l284 -597h-220l-254 575h-238l-112 -575h-191l262 1349h482z" />
    <glyph glyph-name="S" unicode="S" 
d="M540 129q154 0 248.5 61.5t116.5 176.5l5 45q0 101 -85 141t-235 80t-256 92t-106 198q0 203 143 325t381 122t335 -75t106 -249l-194 -33q-2 111 -63 162t-189 51q-281 0 -324 -213l-4 -41q0 -83 64 -116t235 -79t278.5 -105.5t107.5 -216.5q0 -96 -41 -187.5
t-160.5 -189.5t-401.5 -98q-457 0 -461 358l192 37q2 -127 78 -186.5t230 -59.5z" />
    <glyph glyph-name="T" unicode="T" 
d="M836 1193l-232 -1193h-190l232 1193h-443l30 156h1076l-30 -156h-443z" />
    <glyph glyph-name="U" unicode="U" 
d="M496 -20q-201 0 -293.5 77.5t-92.5 243.5q0 77 19 171l170 877h191l-165 -851q-20 -102 -20 -187t50.5 -130.5t190.5 -45.5t220.5 82t122.5 294l163 838h190l-167 -859q-52 -266 -189 -388t-390 -122z" />
    <glyph glyph-name="V" unicode="V" 
d="M608 0h-198l-243 1349h201l145 -902q14 -89 30 -279l138 279l493 902h201z" />
    <glyph glyph-name="W" unicode="W" 
d="M259 168q119 284 345 763h175q22 -277 33.5 -425.5t15.5 -337.5l102 346l266 835h189l-472 -1349h-208l-32 432q-5 59 -15 324q-73 -177 -344 -756h-208l51 1349h189l-53 -835q-13 -165 -34 -346z" />
    <glyph glyph-name="X" unicode="X" 
d="M672 836l432 513h205l-560 -644l339 -705h-205l-263 573l-484 -573h-205l613 705l-310 644h205z" />
    <glyph glyph-name="Y" unicode="Y" 
d="M603 0h-188l114 584l-336 765h205l255 -611l491 611h205l-632 -765z" />
    <glyph glyph-name="Z" unicode="Z" 
d="M1050 0h-1082l28 143l1022 1050h-745l30 156h962l-27 -139l-1023 -1054h865z" />
    <glyph glyph-name="bracketleft" unicode="[" 
d="M222 -425l371 1909h547l-27 -139h-367l-317 -1631h367l-27 -139h-547z" />
    <glyph glyph-name="backslash" unicode="\" 
d="M823 -20l-525 1504h178l529 -1504h-182z" />
    <glyph glyph-name="bracketright" unicode="]" 
d="M82 -425l27 139h367l317 1631h-367l27 139h547l-371 -1909h-547z" />
    <glyph glyph-name="asciicircum" unicode="^" 
d="M921 442l-173 803l-482 -803h-152l554 907h203l204 -907h-154z" />
    <glyph glyph-name="underscore" unicode="_" 
d="M-153 -220l19 96h1238l-19 -96h-1238z" />
    <glyph glyph-name="grave" unicode="`" 
d="M830 1201l-255 230l6 29h197l180 -239l-4 -20h-124z" />
    <glyph glyph-name="a" unicode="a" 
d="M265 251q1 -134 157 -134q84 0 166.5 45.5t138.5 122.5t72 160l18 89l-191 -4q-135 -2 -209.5 -35.5t-113 -100t-38.5 -143.5zM708 1102q340 0 340 -267q0 -45 -10 -97l-90 -466q-9 -42 -9 -80q0 -80 79 -81q27 0 60 7l-22 -112q-70 -16 -150 -16q-152 0 -152 152l5 65
h-6q-89 -122 -189 -174.5t-230 -52.5t-195.5 62t-65.5 171q0 41 9 89q68 349 523 354l236 4q22 105 22 148q0 85 -46 121t-150 36t-163.5 -39.5t-90.5 -132.5l-185 17q106 292 480 292z" />
    <glyph glyph-name="b" unicode="b" 
d="M926 732q0 124 -47.5 178.5t-159.5 54.5t-196 -79t-132 -241.5t-48 -289.5t54 -184.5t171 -57.5t193.5 81.5t120.5 247.5t44 290zM809 1104q306 0 306 -343q0 -93 -24 -215q-55 -284 -184 -425t-318 -141q-244 0 -298 184h-2q-22 -119 -41 -164h-174q10 29 49 223
l245 1261h180l-82 -423l-34 -157h4q130 200 373 200z" />
    <glyph glyph-name="c" unicode="c" 
d="M301 376q0 -256 234 -257q240 0 315 215l188 -12q-32 -96 -106.5 -174.5t-181 -123t-228.5 -44.5q-203 0 -306.5 99t-103.5 290q0 127 41.5 270.5t124 249.5t199.5 159.5t281 53.5t265 -86.5t101 -236.5l-194 -14v6q0 86 -53 138t-179 52t-213 -70.5t-135.5 -225.5
t-48.5 -289z" />
    <glyph glyph-name="d" unicode="d" 
d="M886 726q0 240 -210 239q-102 0 -163.5 -40.5t-106 -126.5t-75 -225t-30.5 -246t46.5 -160.5t160.5 -53.5t197 79t132 244.5t49 289.5zM402 -26q-140 0 -215 83.5t-75 253.5q0 97 24 221q111 566 502 566q121 0 194.5 -43t103.5 -141h2l108 570h180l-245 -1261
q-32 -179 -37 -223h-172v4q0 43 24 170h-5q-69 -105 -159 -152.5t-230 -47.5z" />
    <glyph glyph-name="e" unicode="e" 
d="M702 969q-133 0 -227.5 -87t-130.5 -241h584l4 72q0 256 -230 256zM302 382q0 -129 62 -198t170 -69t194.5 44t128.5 122l149 -45q-69 -124 -198.5 -190t-308.5 -66t-281 100.5t-102 289.5q0 124 40 268.5t161 304t409 159.5q386 0 386 -379q0 -91 -21 -196l-4 -24h-772
q-13 -69 -13 -121z" />
    <glyph glyph-name="f" unicode="f" 
d="M1250 1318q-100 17 -288 17q-158 0 -207.5 -75.5t-69.5 -177.5h491l-27 -142h-491l-183 -940h-180l183 940h-262l27 142h262l5 25q40 204 152.5 290.5t338.5 86.5q164 0 277 -21z" />
    <glyph glyph-name="g" unicode="g" 
d="M308 346q0 -200 186 -201q179 0 286 165.5t107 405.5q0 107 -56.5 178t-152.5 71t-159.5 -39t-107.5 -122t-73.5 -220.5t-29.5 -237.5zM460 -288q250 0 309 315l38 194h-2q-141 -209 -384 -209q-156 0 -228.5 78t-72.5 220t40 309.5t139.5 323.5t352.5 156
q113 0 186 -52.5t99 -149.5h3q7 37 25 106.5t23 78.5h171l-49 -224l-161 -826q-88 -456 -521 -456q-169 0 -257 69t-92 198l189 25q2 -75 51 -115.5t141 -40.5z" />
    <glyph glyph-name="h" unicode="h" 
d="M808 1102q289 0 289 -259q0 -57 -13 -122l-140 -721h-181l135 695q11 58 11 98q0 88 -43.5 129t-151.5 41t-204.5 -90.5t-127.5 -245.5l-122 -627h-180l288 1484h181l-75 -390q-11 -56 -48 -197h3q145 205 379 205z" />
    <glyph glyph-name="i" unicode="i" 
d="M691 1292l37 192h200l-37 -192h-200zM668 142h380l-28 -142h-982l28 142h422l155 798h-319l27 142h499z" />
    <glyph glyph-name="j" unicode="j" 
d="M782 1292l37 192h200l-37 -192h-200zM233 -276q125 0 207 65.5t106 185.5l188 965h-407l27 142h587l-215 -1110q-36 -186 -169 -291.5t-322 -105.5t-297 43l27 140q143 -34 268 -34z" />
    <glyph glyph-name="k" unicode="k" 
d="M809 0l-269 499l-151 -98l-78 -401h-180l288 1484h180l-180 -927l577 525h211l-529 -465l342 -617h-211z" />
    <glyph glyph-name="l" unicode="l" 
d="M659 142h380l-28 -142h-982l28 142h422l233 1200h-289l27 142h469z" />
    <glyph glyph-name="m" unicode="m" 
d="M1015 1102q166 0 166 -180q0 -88 -22 -201l-140 -721h-168l133 686q22 110 22 170t-20 83.5t-62 23.5q-65 0 -120.5 -84.5t-87.5 -251.5l-122 -627h-168l133 686q22 110 22 170t-20 83.5t-62 23.5q-63 0 -121 -94t-91 -262l-118 -607h-169l165 851q10 50 20.5 113
l14.5 87t4 31h149l-19 -127l-9 -48h2q57 107 118 151t143 44t115.5 -47.5t33.5 -142.5v-6h2q61 106 125.5 151t150.5 45z" />
    <glyph glyph-name="n" unicode="n" 
d="M815 1102q283 0 283 -254q0 -57 -14 -127l-140 -721h-181l135 695q11 58 11 98q0 88 -43.5 129t-151.5 41t-204.5 -90.5t-127.5 -245.5l-122 -627h-180l165 851q10 50 20.5 113l14.5 87t4 31h170q0 -42 -28 -185h3q147 205 386 205z" />
    <glyph glyph-name="o" unicode="o" 
d="M928 736q0 233 -227 233q-257 0 -328.5 -230t-71.5 -366q0 -260 223 -260q288 0 346 257t58 366zM724 1102q393 0 393 -370q0 -135 -42 -284.5t-163.5 -308.5t-411.5 -159q-188 0 -288 98.5t-100 288.5q0 79 18 175q55 279 208.5 419.5t385.5 140.5z" />
    <glyph glyph-name="p" unicode="p" 
d="M928 735q0 116 -44.5 173t-145.5 57t-168.5 -42.5t-117 -131t-79.5 -220t-30 -237.5q0 -222 223 -221q117 0 193.5 78t122.5 253t46 291zM459 1082q0 -54 -24 -178h4q70 105 157.5 152.5t211.5 47.5q308 0 308 -336q0 -95 -25 -222q-110 -566 -502 -566q-247 0 -295 184
h-5q0 -20 -111 -589h-181l250 1283q27 136 37 224h175z" />
    <glyph glyph-name="q" unicode="q" 
d="M885 720q0 128 -53.5 186.5t-169.5 58.5t-193.5 -79t-122 -248t-44.5 -290t45.5 -178t159.5 -57t197.5 80t132 239.5t48.5 287.5zM402 -26q-140 0 -215 84t-75 253q0 97 24 221q110 566 501 566q130 0 198.5 -45t98.5 -139h2q29 145 45 169h175q-16 -49 -300 -1508h-181
q108 550 122 607h-2q-76 -110 -164.5 -159t-228.5 -49z" />
    <glyph glyph-name="r" unicode="r" 
d="M910 937q-160 0 -283 -121t-159 -308l-99 -508h-180l136 701q25 136 25 289l-3 92h171q6 -50 6 -122t-6 -128h5q73 113 160 191.5t265 78.5q106 0 203 -17l-33 -167q-107 19 -208 19z" />
    <glyph glyph-name="s" unicode="s" 
d="M927 824q0 141 -221 141q-138 0 -208 -48t-70 -133q0 -46 35.5 -75.5t121.5 -51.5q221 -58 328.5 -106t107.5 -193q0 -95 -63 -187.5t-179 -141.5t-294 -49t-273 63.5t-102 204.5l165 31q3 -88 59 -126.5t206 -38.5t227 55t77 146q0 49 -41.5 82t-136.5 59l-116 31
q-132 36 -215 82t-83 159q0 72 33 144t128 149.5t295 77.5q385 0 385 -260l-166 -20v5z" />
    <glyph glyph-name="t" unicode="t" 
d="M641 133q133 0 303 34l-26 -137q-176 -46 -330 -46t-222.5 49.5t-68.5 155.5q0 45 8 80l131 671h-168l27 142h170l113 282h120l-55 -282h432l-27 -142h-432l-127 -652l-5 -44q0 -111 157 -111z" />
    <glyph glyph-name="u" unicode="u" 
d="M780 0q0 21 28 185h-3q-83 -112 -175.5 -158.5t-224.5 -46.5t-201 58t-69 185q0 60 15 138l140 721h180l-133 -686q-14 -72 -14 -140t42.5 -102.5t157.5 -34.5t207 90t121 246l122 627h181l-165 -851q-10 -50 -20.5 -113l-14.5 -87t-4 -31h-170z" />
    <glyph glyph-name="v" unicode="v" 
d="M610 0h-213l-223 1082h202l131 -704q9 -68 19 -184l4 -53l26 53q38 80 94 182l413 706h201z" />
    <glyph glyph-name="w" unicode="w" 
d="M913 0h-204l-51 471l-18 202l-66 -139l-272 -534h-203l27 1082h178l-25 -607q-2 -57 -12.5 -174.5t-17.5 -151.5l100 214l217 424h193l47 -425l14 -213q8 43 98 326l219 607h176z" />
    <glyph glyph-name="x" unicode="x" 
d="M827 0l-235 444l-409 -444h-194l523 556l-295 526h199l218 -421l380 421h201l-499 -524l312 -558h-201z" />
    <glyph glyph-name="y" unicode="y" 
d="M104 -425q-72 0 -121 11l26 135q36 -6 99 -6t144 59t154 188l27 49l-262 1071h192l140 -642q48 -214 48 -254q10 22 63 110l462 786h190l-666 -1082q-140 -242 -252.5 -333.5t-243.5 -91.5z" />
    <glyph glyph-name="z" unicode="z" 
d="M42 0l27 137l837 806h-641l27 139h844l-26 -137l-839 -806h719l-27 -139h-921z" />
    <glyph glyph-name="braceleft" unicode="{" 
d="M608 -425q-110 0 -176 61.5t-66 170.5q0 38 7 71l69 351l5 50q0 83 -61.5 130t-173.5 52l26 137q132 5 216.5 66.5t103.5 164.5l69 352q28 139 124 221t228 82h265l-27 -139h-213q-93 0 -141 -45.5t-67 -149.5l-68 -346q-19 -97 -97 -172t-187 -100v-2
q82 -21 132.5 -79.5t50.5 -140.5q0 -31 -5 -54l-68 -347q-8 -43 -8 -91q0 -104 141 -104h213l-27 -139h-265z" />
    <glyph glyph-name="bar" unicode="|" 
d="M531 -425v1909h166v-1909h-166z" />
    <glyph glyph-name="braceright" unicode="}" 
d="M219 -286q91 0 140.5 44.5t69.5 150.5l68 347q19 102 98 176.5t185 97.5v2q-84 22 -133 82t-49 138l5 52l68 346q8 42 8 91q0 104 -143 104h-213l27 139h265q113 0 178 -61t65 -169q0 -38 -7 -73l-69 -352l-5 -49q0 -81 60 -129t175 -53l-26 -137q-131 -5 -215 -65
t-105 -167l-69 -351q-25 -133 -123 -218t-230 -85h-265l27 139h213z" />
    <glyph glyph-name="asciitilde" unicode="~" 
d="M423 807q81 0 154 -22.5t167 -58.5t161 -36q131 0 262 92l-29 -149q-74 -45 -133.5 -62.5t-135.5 -17.5t-144 21.5t-162 57.5q-93 36 -171 36t-139 -20t-137 -68l28 143q126 84 279 84z" />
    <glyph glyph-name="exclamdown" unicode="&#xa1;" 
d="M818 1082l-39 -201h-194l39 201h194zM567 685h148l-161 -951h-196z" />
    <glyph glyph-name="cent" unicode="&#xa2;" 
d="M734 1058q-188 0 -297.5 -149t-109.5 -394q0 -113 65.5 -179.5t183.5 -66.5t202.5 54.5t122.5 162.5l180 -12q-48 -141 -173 -233.5t-289 -106.5l-38 -195h-128l38 195q-169 13 -259.5 109t-90.5 267q0 118 40 246t152.5 273.5t363.5 165.5l36 184h128l-36 -184
q153 -13 239.5 -97t88.5 -225l-188 -14q0 199 -231 199z" />
    <glyph glyph-name="sterling" unicode="&#xa3;" 
d="M996 1083q-20 127 -215 127q-100 0 -171 -57.5t-95 -182.5l-42 -216h408l-28 -142h-408l-27 -139q-27 -133 -77 -203t-139 -112h600q59 0 92.5 26.5t54.5 79.5l164 -24q-95 -240 -281 -240h-881l30 154q95 45 159.5 102t97.5 215l27 141h-186l28 142h186l42 220
q38 195 165.5 295.5t333.5 100.5q154 0 244 -61t103 -169z" />
    <glyph glyph-name="currency" unicode="&#xa4;" 
d="M359 628q0 -93 66 -157.5t157 -64.5t170 45.5t128.5 124t49.5 170.5t-65.5 156.5t-156.5 64.5t-168.5 -44.5t-129 -123t-51.5 -171.5zM202 599q0 184 135 337l-81 100l124 103l80 -101q128 82 268 82t237 -80l116 97l84 -105l-115 -96q39 -78 39 -171q0 -184 -139 -333
l81 -100l-123 -105l-81 101q-129 -78 -269 -78t-234 80l-125 -105l-82 105l122 102q-37 77 -37 167z" />
    <glyph glyph-name="yen" unicode="&#xa5;" 
d="M791 679h321l-28 -142h-383l-26 -137h383l-28 -144h-383l-50 -256h-178l50 256h-381l28 144h381l28 137h-383l28 142h320l-281 670h199l241 -617l485 617h199z" />
    <glyph glyph-name="brokenbar" unicode="&#xa6;" 
d="M531 -455v779h166v-779h-166zM531 676v778h166v-778h-166z" />
    <glyph glyph-name="section" unicode="&#xa7;" 
d="M382 662q0 -46 24.5 -77t74 -55.5t162.5 -54.5q180 4 236.5 80.5t56.5 136.5t-60.5 105.5t-214.5 82.5q-171 -9 -225 -90.5t-54 -127.5zM1013 1209q1 155 -235 155q-122 0 -198 -53.5t-76 -134.5q0 -54 55 -94t198 -76t243.5 -90.5t100.5 -177.5q0 -69 -35 -139
t-99.5 -119.5t-142.5 -66.5q84 -40 125.5 -90.5t41.5 -122.5t-35 -143.5t-136.5 -150t-322.5 -78.5t-318 65.5t-106 206.5l167 31q3 -96 65.5 -139.5t204.5 -43.5t228.5 59.5t86.5 149.5t-81 127.5t-217 73.5q-310 71 -310 261q0 106 79.5 195.5t205.5 123.5q-74 26 -118 80
t-44 136t57 163t162 124t267 43t256 -67t96 -193l-165 -20v5z" />
    <glyph glyph-name="dieresis" unicode="&#xa8;" 
d="M467 1219l36 184h165l-36 -184h-165zM861 1219l36 184h163l-36 -184h-163z" />
    <glyph glyph-name="copyright" unicode="&#xa9;" 
d="M1105 761q0 301 -130 464.5t-361 163.5q-310 0 -399 -214t-89 -414q0 -299 127.5 -464t360.5 -165t362 164t129 465zM1197 762q0 -228 -71 -391.5t-203 -248t-309 -84.5t-308.5 85.5t-203 248.5t-71.5 389t71 389t203.5 248.5t308.5 85.5t308.5 -85t203.5 -247t71 -390z
M398 766q0 -156 59 -242.5t165 -86.5q129 0 196 156l115 -35q-52 -118 -128.5 -171.5t-182.5 -53.5q-168 0 -260.5 113.5t-92.5 315.5t89 313.5t257 111.5q217 0 303 -209l-114 -33q-53 137 -187 137q-107 0 -163 -80t-56 -236z" />
    <glyph glyph-name="ordfeminine" unicode="&#xaa;" 
d="M418 860q0 -45 30 -76.5t98 -31.5t132.5 34t108.5 88.5t54 108.5l10 51l-155 -4q-278 -6 -278 -170zM752 1432q274 0 274 -202q0 -35 -7 -65l-56 -291q-6 -31 -6 -55q0 -63 57 -63q24 0 51 8l-19 -94q-52 -13 -104 -13q-133 0 -133 118l4 42h-4q-125 -166 -323 -166
q-106 0 -163.5 44.5t-57.5 125.5q0 21 5 49q48 237 405 242l192 4q14 75 14 96q0 129 -150 129q-84 0 -137 -34t-79 -111l-147 10q38 104 138 165t246 61z" />
    <glyph glyph-name="guillemotleft" unicode="&#xab;" 
d="M385 141l-265 365l13 63l408 371h177l-6 -31l-408 -372l266 -367l-6 -29h-179zM862 141l-267 365l13 63l410 371h178l-6 -31l-411 -372l269 -367l-6 -29h-180z" />
    <glyph glyph-name="logicalnot" unicode="&#xac;" 
d="M966 180v428h-850v146h995v-574h-145z" />
    <glyph glyph-name="registered" unicode="&#xae;" 
d="M801 932q0 72 -47.5 108t-128.5 36h-170v-301h182q80 0 122 42.5t42 114.5zM455 679v-336h-127v831h307q142 0 217.5 -63t75.5 -169t-52 -168t-137 -81l221 -350h-145l-199 336h-161zM1105 761q0 301 -130 464.5t-361 163.5q-310 0 -399 -214t-89 -414q0 -299 127.5 -464
t360.5 -165t362 164t129 465zM1197 762q0 -228 -71 -391.5t-203 -248t-309 -84.5t-308.5 85.5t-203 248.5t-71.5 389t71 389t203.5 248.5t308.5 85.5t308.5 -85t203.5 -247t71 -390z" />
    <glyph glyph-name="overscore" unicode="&#xaf;" 
d="M186 1522l19 96h1238l-19 -96h-1238z" />
    <glyph glyph-name="degree" unicode="&#xb0;" 
d="M792 1086q0 76 -51.5 127.5t-126.5 51.5t-126.5 -53t-51.5 -127t52 -127t126 -53t126 52.5t52 128.5zM901 1085q0 -119 -84.5 -202t-202.5 -83t-202.5 84t-84.5 201t83.5 201t203.5 84t203.5 -83t83.5 -202z" />
    <glyph glyph-name="plusminus" unicode="&#xb1;" 
d="M116 0v145h995v-145h-995zM687 680v-395h-147v395h-424v145h424v394h147v-394h424v-145h-424z" />
    <glyph glyph-name="twosuperior" unicode="&#xb2;" 
d="M791 1421q241 0 241 -188q0 -174 -250 -328q-156 -98 -213 -142t-89 -93h459l-19 -107h-602l18 103q80 126 320 272q125 76 180.5 139.5t55.5 135.5q0 102 -122 102q-68 0 -119.5 -36.5t-72.5 -104.5l-131 8q35 110 129.5 174.5t214.5 64.5z" />
    <glyph glyph-name="threesuperior" unicode="&#xb3;" 
d="M813 997q162 -17 162 -165q0 -68 -65 -174.5t-284 -106.5q-274 0 -274 212v15l139 13v-5l-1 -9q0 -122 156 -122q93 0 142.5 51t49.5 128q0 106 -165 106h-61l21 109h57q93 0 147.5 47t54.5 121q0 98 -123 98q-68 0 -117 -35t-68 -100l-132 12q34 108 124 168.5t210 60.5
t183.5 -45.5t63.5 -131.5t-57.5 -154t-162.5 -91v-2z" />
    <glyph glyph-name="acute" unicode="&#xb4;" 
d="M530 1201l4 20l274 239h197l-6 -29l-345 -230h-124z" />
    <glyph glyph-name="mu1" unicode="&#xb5;" 
d="M811 0q0 35 29 199h-4q-149 -219 -377 -219q-82 0 -139.5 32t-78.5 90h-4l-20 -122l-72 -373h-182l286 1475h182l-125 -644q-12 -70 -12 -107q0 -210 215 -210q131 0 238 97t135 247l120 617h181l-165 -849q-6 -34 -22.5 -123.5t-16.5 -109.5h-168z" />
    <glyph glyph-name="paragraph" unicode="&#xb6;" 
d="M205 896q0 123 57 230.5t159 165t233 57.5h583l-23 -122h-129l-302 -1551h-132l302 1551h-197l-302 -1551h-133l186 958q-146 0 -224 69.5t-78 192.5z" />
    <glyph glyph-name="middot.001" unicode="&#xb7;" 
d="M473 420l58 299h235l-58 -299h-235z" />
    <glyph glyph-name="cedilla" unicode="&#xb8;" 
d="M332 -222q0 -59 -50.5 -140.5t-263.5 -81.5q-57 0 -90 4l20 98q48 -6 84 -6q146 0 164 86l2 18q0 64 -119 64q-43 0 -57 -2l100 182h107l-58 -100q161 -4 161 -122z" />
    <glyph glyph-name="onesuperior" unicode="&#xb9;" 
d="M295 563l21 107h265l119 610q-34 -49 -119 -82t-175 -33l22 109q96 0 178 35t129 101h121l-144 -740h236l-21 -107h-632z" />
    <glyph glyph-name="ordmasculine" unicode="&#xba;" 
d="M962 1144q0 183 -194 183t-248 -143.5t-54 -238.5q0 -189 185 -189q226 0 268.5 161t42.5 227zM633 651q-154 0 -236.5 77t-82.5 210t58.5 250.5t167 180.5t257.5 63t231.5 -72t82.5 -211q0 -96 -34 -192t-130.5 -201t-313.5 -105z" />
    <glyph glyph-name="guillemotright" unicode="&#xbb;" 
d="M209 141h-180l6 29l409 367l-263 372l6 31h178l263 -371l-13 -63zM684 141h-178l6 29l409 367l-263 372l6 31h176l266 -371l-13 -63z" />
    <glyph glyph-name="onequarter" unicode="&#xbc;" 
d="M72 589l21 107h135l100 513q-28 -39 -85 -67t-104 -28l23 119q51 0 109 32t94 84h121l-127 -653h116l-21 -107h-382zM217 0h-118l965 1349h115zM999 635q-28 -34 -338 -372h265zM1033 162l-31 -161h-127l31 161h-375l20 99l458 502h141l-97 -500h122l-20 -101h-122z" />
    <glyph glyph-name="onehalf" unicode="&#xbd;" 
d="M62 589l21 107h135l100 513q-28 -39 -85 -67t-104 -28l23 119q51 0 109 32t94 84h121l-127 -653h116l-21 -107h-382zM201 0h-118l965 1349h115zM969 673q-112 0 -152 -123l-129 5q34 103 114 161t192 57q205 0 205 -161q0 -166 -215 -305q-126 -83 -174 -121t-74 -78h380
l-21 -107h-522l19 97q69 110 271 243q103 68 151 123t47 126q0 83 -92 83z" />
    <glyph glyph-name="threequarters" unicode="&#xbe;" 
d="M197 785q-1 -110 109 -110q56 -1 97 43q40 44 40 113q0 89 -129 89h-41l21 109h37q107 0 141 74q18 39 18 78q0 74 -78 74q-45 1 -84 -31t-56 -89l-133 12q31 97 109 155t178 59q100 -1 152 -43t51 -115q0 -160 -174 -221l-1 -2q126 -29 126 -142q0 -19 -5 -44
q-19 -101 -100 -162t-193 -61t-168 53t-56 149v10l139 13v-11zM242 0h-118l965 1349h115zM999 635q-28 -34 -338 -372h265zM1033 162l-31 -161h-127l31 161h-375l20 99l458 502h141l-97 -500h122l-20 -101h-122z" />
    <glyph glyph-name="questiondown" unicode="&#xbf;" 
d="M883 1081l-39 -201h-195l39 201h195zM242 44q0 -184 262 -183q128 0 226.5 71.5t138.5 200.5l182 -12q-63 -195 -217 -302.5t-357 -107.5t-312.5 76.5t-109.5 227.5t92.5 250t216.5 173t186.5 139t80.5 147h175q-24 -105 -94 -187.5t-206 -164.5t-200 -159t-64 -169z" />
    <glyph glyph-name="Agrave" unicode="&#xc0;" 
d="M745 1205q-92 -182 -363 -674h463l-76 500zM929 0l-64 382h-563l-211 -382h-196l772 1349h217l239 -1349h-194zM784 1444l-255 230l6 29h197l180 -239l-4 -20h-124z" />
    <glyph glyph-name="Aacute" unicode="&#xc1;" 
d="M745 1205q-92 -182 -363 -674h463l-76 500zM929 0l-64 382h-563l-211 -382h-196l772 1349h217l239 -1349h-194zM670 1445l4 20l274 239h197l-6 -29l-345 -230h-124z" />
    <glyph glyph-name="Acircumflex" unicode="&#xc2;" 
d="M745 1205q-92 -182 -363 -674h463l-76 500zM929 0l-64 382h-563l-211 -382h-196l772 1349h217l239 -1349h-194zM1124 1465l-4 -20h-105l-192 138h-2l-259 -138h-104l4 20l301 239h164z" />
    <glyph glyph-name="Atilde" unicode="&#xc3;" 
d="M745 1205q-92 -182 -363 -674h463l-76 500zM929 0l-64 382h-563l-211 -382h-196l772 1349h217l239 -1349h-194zM956 1445q-52 1 -91 19q-38 18 -74 40q-37 22 -71 42q-34 18 -70 18t-60 -24t-49 -95h-111q42 137 104 193t136 55q74 1 168 -59q36 -22 70 -42
q34 -18 70 -18t61 28t45 91h112q-32 -97 -64 -145t-78 -76q-46 -27 -98 -27z" />
    <glyph glyph-name="Adieresis" unicode="&#xc4;" 
d="M745 1205q-92 -182 -363 -674h463l-76 500zM929 0l-64 382h-563l-211 -382h-196l772 1349h217l239 -1349h-194zM511 1445l36 184h165l-36 -184h-165zM905 1445l36 184h163l-36 -184h-163z" />
    <glyph glyph-name="Aring" unicode="&#xc5;" 
d="M745 1205q-92 -182 -363 -674h463l-76 500zM545 1395q0 59 35 116q36 57 102 89t154 32t145 -42q56 -42 56 -112t-37 -126t-101 -88l224 -1264h-194l-64 382h-563l-211 -382h-196l723 1264q-73 44 -73 131zM913 1443q0 73 -106 73q-63 0 -101 -28t-38 -64q0 -74 107 -75
q63 0 101 29t37 65z" />
    <glyph glyph-name="AE" unicode="&#xc6;" 
d="M775 1202h-73l-119 -240l-217 -401h284zM621 412h-335l-222 -412h-168l748 1349h667l-29 -152h-337l-84 -430h327l-29 -150h-327l-90 -465h378l-30 -152h-549z" />
    <glyph glyph-name="Ccedilla" unicode="&#xc7;" 
d="M686 -222q0 -59 -34 -113q-68 -109 -280 -109q-57 0 -90 4l20 98q48 -6 84 -6q146 0 164 86l2 18q0 64 -119 64q-43 0 -57 -2l92 167q-152 19 -241 113q-111 118 -111 349q0 165 52 355q155 568 648 568q329 0 395 -335l-180 -65q-18 120 -84 182t-170 62
q-103 0 -185 -51t-140 -154t-98 -267q-38 -164 -38 -290q0 -317 266 -317q103 -1 200 71t177 211l146 -65q-216 -360 -533 -372l-47 -80q161 -4 161 -122z" />
    <glyph glyph-name="Egrave" unicode="&#xc8;" 
d="M57 0l262 1349h919l-30 -156h-728l-82 -422h668l-30 -154h-668l-90 -461h769l-30 -156h-960zM806 1445l-255 230l6 29h197l180 -239l-4 -20h-124z" />
    <glyph glyph-name="Eacute" unicode="&#xc9;" 
d="M57 0l262 1349h919l-30 -156h-728l-82 -422h668l-30 -154h-668l-90 -461h769l-30 -156h-960zM668 1445l4 20l274 239h197l-6 -29l-345 -230h-124z" />
    <glyph glyph-name="Ecircumflex" unicode="&#xca;" 
d="M57 0l262 1349h919l-30 -156h-728l-82 -422h668l-30 -154h-668l-90 -461h769l-30 -156h-960zM1124 1465l-4 -20h-105l-192 138h-2l-259 -138h-104l4 20l301 239h164z" />
    <glyph glyph-name="Edieresis" unicode="&#xcb;" 
d="M57 0l262 1349h919l-30 -156h-728l-82 -422h668l-30 -154h-668l-90 -461h769l-30 -156h-960zM531 1445l36 184h165l-36 -184h-165zM925 1445l36 184h163l-36 -184h-163z" />
    <glyph glyph-name="Igrave" unicode="&#xcc;" 
d="M359 1349h823l-30 -156h-316l-202 -1037h316l-30 -156h-823l30 156h316l202 1037h-316zM796 1445l-255 230l6 29h197l180 -239l-4 -20h-124z" />
    <glyph glyph-name="Iacute" unicode="&#xcd;" 
d="M359 1349h823l-30 -156h-316l-202 -1037h316l-30 -156h-823l30 156h316l202 1037h-316zM680 1445l4 20l274 239h197l-6 -29l-345 -230h-124z" />
    <glyph glyph-name="Icircumflex" unicode="&#xce;" 
d="M359 1349h823l-30 -156h-316l-202 -1037h316l-30 -156h-823l30 156h316l202 1037h-316zM1124 1465l-4 -20h-105l-192 138h-2l-259 -138h-104l4 20l301 239h164z" />
    <glyph glyph-name="Idieresis" unicode="&#xcf;" 
d="M359 1349h823l-30 -156h-316l-202 -1037h316l-30 -156h-823l30 156h316l202 1037h-316zM511 1445l36 184h165l-36 -184h-165zM905 1445l36 184h163l-36 -184h-163z" />
    <glyph glyph-name="Eth" unicode="&#xd0;" 
d="M440 156q382 0 461.5 294.5t79.5 414.5q0 173 -94.5 250.5t-285.5 77.5h-121l-87 -447h289l-29 -149h-289l-86 -441h162zM630 1349q545 0 545 -459q0 -158 -54 -335t-203 -366t-491 -189h-370l116 597h-135l29 149h135l117 603h311z" />
    <glyph glyph-name="Ntilde" unicode="&#xd1;" 
d="M731 0l-300 1130q-15 -161 -34 -254l-170 -876h-170l262 1349h222l307 -1138q12 155 35 274l168 864h172l-262 -1349h-230zM956 1446q-52 0 -90 18t-74 42q-36 22 -70 40t-71 19q-36 1 -60 -23t-49 -96h-111q41 136 103 192t137 56t169 -60q36 -22 68 -40q34 -18 70 -19
t62 27q25 28 45 92h112q-31 -98 -63 -146t-79 -75t-99 -27z" />
    <glyph glyph-name="Ograve" unicode="&#xd2;" 
d="M978 913q0 301 -232 301q-270 0 -384 -401q-58 -202 -58 -367q0 -311 231 -311q296 -1 406 493q37 166 37 285zM102 430q0 160 50 351t136 323q175 266 488 266q198 0 301 -110t103 -332q0 -155 -49 -346q-49 -192 -139 -328q-181 -274 -488 -274q-202 0 -302 116
t-100 334zM791 1445l-255 230l6 29h197l180 -239l-4 -20h-124z" />
    <glyph glyph-name="Oacute" unicode="&#xd3;" 
d="M978 913q0 301 -232 301q-270 0 -384 -401q-58 -202 -58 -367q0 -311 231 -311q296 -1 406 493q37 166 37 285zM102 430q0 160 50 351t136 323q175 266 488 266q198 0 301 -110t103 -332q0 -155 -49 -346q-49 -192 -139 -328q-181 -274 -488 -274q-202 0 -302 116
t-100 334zM675 1445l4 20l274 239h197l-6 -29l-345 -230h-124z" />
    <glyph glyph-name="Ocircumflex" unicode="&#xd4;" 
d="M978 913q0 301 -232 301q-270 0 -384 -401q-58 -202 -58 -367q0 -311 231 -311q296 -1 406 493q37 166 37 285zM102 430q0 160 50 351t136 323q175 266 488 266q198 0 301 -110t103 -332q0 -155 -49 -346q-49 -192 -139 -328q-181 -274 -488 -274q-202 0 -302 116
t-100 334zM1124 1465l-4 -20h-105l-192 138h-2l-259 -138h-104l4 20l301 239h164z" />
    <glyph glyph-name="Otilde" unicode="&#xd5;" 
d="M978 913q0 301 -232 301q-270 0 -384 -401q-58 -202 -58 -367q0 -311 231 -311q296 -1 406 493q37 166 37 285zM102 430q0 160 50 351t136 323q175 266 488 266q198 0 301 -110t103 -332q0 -155 -49 -346q-49 -192 -139 -328q-181 -274 -488 -274q-202 0 -302 116
t-100 334zM956 1445q-52 1 -91 19q-38 18 -74 40q-37 22 -71 42q-34 18 -70 18t-60 -24t-49 -95h-111q42 137 104 193t136 55q74 1 168 -59q36 -22 70 -42q34 -18 70 -18t61 28t45 91h112q-32 -97 -64 -145t-78 -76q-46 -27 -98 -27z" />
    <glyph glyph-name="Odieresis" unicode="&#xd6;" 
d="M978 913q0 301 -232 301q-270 0 -384 -401q-58 -202 -58 -367q0 -311 231 -311q296 -1 406 493q37 166 37 285zM102 430q0 160 50 351t136 323q175 266 488 266q198 0 301 -110t103 -332q0 -155 -49 -346q-49 -192 -139 -328q-181 -274 -488 -274q-202 0 -302 116
t-100 334zM514 1445l36 184h165l-36 -184h-165zM908 1445l36 184h163l-36 -184h-163z" />
    <glyph glyph-name="multiply" unicode="&#xd7;" 
d="M157 330l354 354l-352 352l104 103l350 -353l350 351l105 -105l-350 -348l352 -352l-102 -105l-353 353l-356 -355z" />
    <glyph glyph-name="Oslash" unicode="&#xd8;" 
d="M305 445q0 -35 1 -46l645 684q-52 131 -196 131t-239.5 -98t-153 -298.5t-57.5 -372.5zM535 135q296 0 369.5 329.5t73.5 443.5l-2 51l-645 -686q52 -138 204 -138zM504 -20q-220 0 -319 138l-147 -156l-82 65l178 189q-32 90 -32 232t49.5 333t181 390t443.5 199
q218 0 319 -134l147 156l81 -65l-176 -187q33 -90 33 -228t-49 -329t-185 -397t-442 -206z" />
    <glyph glyph-name="Ugrave" unicode="&#xd9;" 
d="M496 -20q-202 0 -294 78t-92 243q0 77 19 171l170 877h191l-165 -851q-20 -102 -20 -187q1 -85 51 -131t190 -45q140 0 220 82t123 294l163 838h190l-167 -859q-52 -266 -189 -388t-390 -122zM780 1445l-255 230l6 29h197l180 -239l-4 -20h-124z" />
    <glyph glyph-name="Uacute" unicode="&#xda;" 
d="M496 -20q-202 0 -294 78t-92 243q0 77 19 171l170 877h191l-165 -851q-20 -102 -20 -187q1 -85 51 -131t190 -45q140 0 220 82t123 294l163 838h190l-167 -859q-52 -266 -189 -388t-390 -122zM663 1445l4 20l274 239h197l-6 -29l-345 -230h-124z" />
    <glyph glyph-name="Ucircumflex" unicode="&#xdb;" 
d="M496 -20q-202 0 -294 78t-92 243q0 77 19 171l170 877h191l-165 -851q-20 -102 -20 -187q1 -85 51 -131t190 -45q140 0 220 82t123 294l163 838h190l-167 -859q-52 -266 -189 -388t-390 -122zM1124 1465l-4 -20h-105l-192 138h-2l-259 -138h-104l4 20l301 239h164z" />
    <glyph glyph-name="Udieresis" unicode="&#xdc;" 
d="M496 -20q-202 0 -294 78t-92 243q0 77 19 171l170 877h191l-165 -851q-20 -102 -20 -187q1 -85 51 -131t190 -45q140 0 220 82t123 294l163 838h190l-167 -859q-52 -266 -189 -388t-390 -122zM511 1445l36 184h165l-36 -184h-165zM905 1445l36 184h163l-36 -184h-163z
" />
    <glyph glyph-name="Yacute" unicode="&#xdd;" 
d="M603 0h-188l114 584l-336 765h205l255 -611l491 611h205l-632 -765zM678 1445l4 20l274 239h197l-6 -29l-345 -230h-124z" />
    <glyph glyph-name="Thorn" unicode="&#xde;" 
d="M963 760q0 100 -69.5 155.5t-210.5 55.5h-246l-112 -576h254q238 0 311 132.5t73 232.5zM578 254h-281l-49 -254h-191l262 1349h191l-45 -235h269q205 0 315 -84t110 -232t-74 -275.5t-207.5 -198t-299.5 -70.5z" />
    <glyph glyph-name="germandbls" unicode="&#xdf;" 
d="M722 115q104 0 166 61.5t62 151.5q0 52 -32 95.5t-104 93.5t-107 100.5t-35 94.5t6 73q22 114 151 206q70 51 103.5 92t42.5 90l3 29q0 65 -57.5 103t-155.5 38q-146 0 -232 -79.5t-118 -242.5l-198 -1021h-180l200 1027q88 457 555 457q169 0 266 -65t97 -180l-5 -52
q-29 -140 -159 -239q-79 -59 -110 -92.5t-36 -84.5q0 -33 27.5 -67t103.5 -89q150 -109 150 -253q0 -95 -51.5 -190.5t-149 -148t-247.5 -52.5t-253 49l30 164q107 -69 267 -69z" />
    <glyph glyph-name="agrave" unicode="&#xe0;" 
d="M265 251q1 -134 157 -134q84 -1 166 45q83 46 139 123t72 160l18 89l-191 -4q-136 -2 -210 -36t-112 -100t-39 -143zM708 1102q340 0 340 -267q0 -45 -10 -97l-90 -466q-9 -42 -9 -80q0 -80 79 -81q27 0 60 7l-22 -112q-70 -16 -150 -16q-152 0 -152 152l5 65h-6
q-89 -123 -189 -175t-230 -52t-196 62t-65 171q0 41 9 89q68 349 523 354l236 4q22 105 22 148q0 85 -46 121t-150 36q-103 1 -163 -39t-91 -133l-185 17q106 292 480 292zM716 1201l-255 230l6 29h197l180 -239l-4 -20h-124z" />
    <glyph glyph-name="aacute" unicode="&#xe1;" 
d="M265 251q1 -134 157 -134q84 -1 166 45q83 46 139 123t72 160l18 89l-191 -4q-136 -2 -210 -36t-112 -100t-39 -143zM708 1102q340 0 340 -267q0 -45 -10 -97l-90 -466q-9 -42 -9 -80q0 -80 79 -81q27 0 60 7l-22 -112q-70 -16 -150 -16q-152 0 -152 152l5 65h-6
q-89 -123 -189 -175t-230 -52t-196 62t-65 171q0 41 9 89q68 349 523 354l236 4q22 105 22 148q0 85 -46 121t-150 36q-103 1 -163 -39t-91 -133l-185 17q106 292 480 292zM607 1201l4 20l274 239h197l-6 -29l-345 -230h-124z" />
    <glyph glyph-name="acircumflex" unicode="&#xe2;" 
d="M265 251q1 -134 157 -134q84 -1 166 45q83 46 139 123t72 160l18 89l-191 -4q-136 -2 -210 -36t-112 -100t-39 -143zM708 1102q340 0 340 -267q0 -45 -10 -97l-90 -466q-9 -42 -9 -80q0 -80 79 -81q27 0 60 7l-22 -112q-70 -16 -150 -16q-152 0 -152 152l5 65h-6
q-89 -123 -189 -175t-230 -52t-196 62t-65 171q0 41 9 89q68 349 523 354l236 4q22 105 22 148q0 85 -46 121t-150 36q-103 1 -163 -39t-91 -133l-185 17q106 292 480 292zM1059 1221l-4 -20h-105l-192 138h-2l-259 -138h-104l4 20l301 239h164z" />
    <glyph glyph-name="atilde" unicode="&#xe3;" 
d="M265 251q1 -134 157 -134q84 -1 166 45q83 46 139 123t72 160l18 89l-191 -4q-136 -2 -210 -36t-112 -100t-39 -143zM708 1102q340 0 340 -267q0 -45 -10 -97l-90 -466q-9 -42 -9 -80q0 -80 79 -81q27 0 60 7l-22 -112q-70 -16 -150 -16q-152 0 -152 152l5 65h-6
q-89 -123 -189 -175t-230 -52t-196 62t-65 171q0 41 9 89q68 349 523 354l236 4q22 105 22 148q0 85 -46 121t-150 36q-103 1 -163 -39t-91 -133l-185 17q106 292 480 292zM900 1201q-52 1 -90 19t-74 40t-70 42q-34 18 -71 18q-36 0 -60 -24t-49 -95h-111q41 137 103 193
t137 55q75 1 169 -59q36 -22 68 -42q34 -18 70 -18t62 28q25 28 45 91h112q-31 -97 -63 -145t-79 -76q-47 -27 -99 -27z" />
    <glyph glyph-name="adieresis" unicode="&#xe4;" 
d="M265 251q1 -134 157 -134q84 -1 166 45q83 46 139 123t72 160l18 89l-191 -4q-136 -2 -210 -36t-112 -100t-39 -143zM708 1102q340 0 340 -267q0 -45 -10 -97l-90 -466q-9 -42 -9 -80q0 -80 79 -81q27 0 60 7l-22 -112q-70 -16 -150 -16q-152 0 -152 152l5 65h-6
q-89 -123 -189 -175t-230 -52t-196 62t-65 171q0 41 9 89q68 349 523 354l236 4q22 105 22 148q0 85 -46 121t-150 36q-103 1 -163 -39t-91 -133l-185 17q106 292 480 292zM451 1219l36 184h165l-36 -184h-165zM845 1219l36 184h163l-36 -184h-163z" />
    <glyph glyph-name="aring" unicode="&#xe5;" 
d="M265 251q1 -134 157 -134q84 -1 166 45q83 46 139 123t72 160l18 89l-191 -4q-136 -2 -210 -36t-112 -100t-39 -143zM708 1102q340 0 340 -267q0 -45 -10 -97l-90 -466q-9 -42 -9 -80q0 -80 79 -81q27 0 60 7l-22 -112q-70 -16 -150 -16q-152 0 -152 152l5 65h-6
q-89 -123 -189 -175t-230 -52t-196 62t-65 171q0 41 9 89q68 349 523 354l236 4q22 105 22 148q0 85 -46 121t-150 36q-103 1 -163 -39t-91 -133l-185 17q106 292 480 292zM885 1358q0 73 -106 73q-63 0 -101 -28q-38 -29 -38 -65q0 -74 107 -74q63 0 101 29t37 65z
M716 1148q-88 0 -144 44t-55 110q0 67 35 124q36 57 102 89t154 32t145 -42q56 -42 56 -112q0 -71 -37 -127t-102 -87q-66 -31 -154 -31z" />
    <glyph glyph-name="ae" unicode="&#xe6;" 
d="M1073 776q0 193 -131 193q-81 0 -144.5 -87.5t-96.5 -240.5h361q11 86 11 135zM135 230q0 -113 86 -113q93 0 171.5 95t105.5 233l18 89l-123 -4q-95 -3 -148 -40t-81.5 -112t-28.5 -148zM489 1102q178 0 220 -139q111 139 273 139q252 0 252 -321q0 -111 -29 -254
l-4 -24h-529q-22 -93 -22 -190q0 -198 131 -198q75 0 129 47t84 119l129 -45q-119 -256 -364 -256q-121 0 -178.5 54.5t-68.5 177.5q-142 -232 -343 -232q-207 0 -207 210q0 51 12 112q68 349 399 354l167 4q27 133 27 191q0 114 -103 114q-74 0 -115.5 -40.5t-66.5 -131.5
l-165 17q92 292 372 292z" />
    <glyph glyph-name="ccedilla" unicode="&#xe7;" 
d="M301 376q0 -256 234 -257q240 0 315 215l188 -12q-32 -96 -106 -174q-147 -155 -377 -167l-47 -81q161 -4 161 -122q1 -59 -33 -113q-68 -109 -281 -109q-57 0 -90 4l20 98q48 -6 84 -6q146 0 164 86l2 18q0 64 -119 64q-43 0 -57 -2l91 165q-150 15 -234 96
q-104 99 -104 290q0 127 42 271t124 249q166 213 463 213q181 0 282 -86t101 -237l-194 -14v6q0 86 -53 138t-179 52q-126 -1 -213 -71t-135 -225t-49 -289z" />
    <glyph glyph-name="egrave" unicode="&#xe8;" 
d="M702 969q-134 0 -228 -87t-130 -241h584l4 72q0 256 -230 256zM302 382q0 -129 62 -198t170 -69t194 44t129 122l149 -45q-68 -124 -198 -190t-309 -66t-281 100t-102 290q0 124 40 268t120 250q162 214 450 214q386 0 386 -379q0 -91 -21 -196l-4 -24h-772
q-13 -69 -13 -121zM751 1201l-255 230l6 29h197l180 -239l-4 -20h-124z" />
    <glyph glyph-name="eacute" unicode="&#xe9;" 
d="M702 969q-134 0 -228 -87t-130 -241h584l4 72q0 256 -230 256zM302 382q0 -129 62 -198t170 -69t194 44t129 122l149 -45q-68 -124 -198 -190t-309 -66t-281 100t-102 290q0 124 40 268t120 250q162 214 450 214q386 0 386 -379q0 -91 -21 -196l-4 -24h-772
q-13 -69 -13 -121zM641 1201l4 20l274 239h197l-6 -29l-345 -230h-124z" />
    <glyph glyph-name="ecircumflex" unicode="&#xea;" 
d="M702 969q-134 0 -228 -87t-130 -241h584l4 72q0 256 -230 256zM302 382q0 -129 62 -198t170 -69t194 44t129 122l149 -45q-68 -124 -198 -190t-309 -66t-281 100t-102 290q0 124 40 268t120 250q162 214 450 214q386 0 386 -379q0 -91 -21 -196l-4 -24h-772
q-13 -69 -13 -121zM1084 1221l-4 -20h-105l-192 138h-2l-259 -138h-104l4 20l301 239h164z" />
    <glyph glyph-name="edieresis" unicode="&#xeb;" 
d="M702 969q-134 0 -228 -87t-130 -241h584l4 72q0 256 -230 256zM302 382q0 -129 62 -198t170 -69t194 44t129 122l149 -45q-68 -124 -198 -190t-309 -66t-281 100t-102 290q0 124 40 268t120 250q162 214 450 214q386 0 386 -379q0 -91 -21 -196l-4 -24h-772
q-13 -69 -13 -121zM475 1219l36 184h165l-36 -184h-165zM869 1219l36 184h163l-36 -184h-163z" />
    <glyph glyph-name="igrave" unicode="&#xec;" 
d="M668 142h380l-28 -142h-982l28 142h422l155 798h-319l27 142h499zM763 1201l-255 230l6 29h197l180 -239l-4 -20h-124z" />
    <glyph glyph-name="iacute" unicode="&#xed;" 
d="M668 142h380l-28 -142h-982l28 142h422l155 798h-319l27 142h499zM634 1201l4 20l274 239h197l-6 -29l-345 -230h-124z" />
    <glyph glyph-name="icircumflex" unicode="&#xee;" 
d="M668 142h380l-28 -142h-982l28 142h422l155 798h-319l27 142h499zM1087 1221l-4 -20h-105l-192 138h-2l-259 -138h-104l4 20l301 239h164z" />
    <glyph glyph-name="idieresis" unicode="&#xef;" 
d="M668 142h380l-28 -142h-982l28 142h422l155 798h-319l27 142h499zM508 1219l36 184h165l-36 -184h-165zM902 1219l36 184h163l-36 -184h-163z" />
    <glyph glyph-name="eth" unicode="&#xf0;" 
d="M288 348q0 -235 232 -235q199 0 271 104t99 214.5t27 208.5q0 206 -242 206q-132 0 -214.5 -60t-127.5 -187.5t-45 -250.5zM692 979q142 0 225 -59q-48 196 -159 317l-282 -115l-34 110l237 94q-97 91 -212 158h209q75 -37 151 -102l286 114l34 -108l-229 -92
q203 -223 203 -547q0 -158 -83.5 -463.5t-541.5 -305.5q-194 0 -296 91.5t-102 267.5q0 120 43 249t118.5 214.5t183 131t249.5 45.5z" />
    <glyph glyph-name="ntilde" unicode="&#xf1;" 
d="M815 1102q283 0 283 -254q0 -57 -14 -127l-140 -721h-181l135 695q11 58 11 98q1 88 -43 129t-152 41q-108 -1 -204 -91t-128 -245l-122 -627h-180l165 851q10 50 21 113q10 63 14 87t4 31h170q0 -42 -28 -185h3q147 205 386 205zM918 1201q-52 1 -90 19t-74 40t-70 42
q-34 18 -71 18q-36 0 -60 -24t-49 -95h-111q41 137 103 193t137 55q75 1 169 -59q36 -22 68 -42q34 -18 70 -18t62 28q25 28 45 91h112q-31 -97 -63 -145t-79 -76q-47 -27 -99 -27z" />
    <glyph glyph-name="ograve" unicode="&#xf2;" 
d="M928 736q0 233 -227 233q-257 0 -353 -307q-48 -153 -47 -289q0 -260 223 -260q288 -1 375 385q29 128 29 238zM724 1102q393 0 393 -370q0 -134 -42 -284t-123 -256q-162 -212 -452 -212q-188 0 -288 98t-100 289q0 79 18 175q54 280 208 420t386 140zM760 1201
l-255 230l6 29h197l180 -239l-4 -20h-124z" />
    <glyph glyph-name="oacute" unicode="&#xf3;" 
d="M928 736q0 233 -227 233q-257 0 -353 -307q-48 -153 -47 -289q0 -260 223 -260q288 -1 375 385q29 128 29 238zM724 1102q393 0 393 -370q0 -134 -42 -284t-123 -256q-162 -212 -452 -212q-188 0 -288 98t-100 289q0 79 18 175q54 280 208 420t386 140zM631 1201l4 20
l274 239h197l-6 -29l-345 -230h-124z" />
    <glyph glyph-name="ocircumflex" unicode="&#xf4;" 
d="M928 736q0 233 -227 233q-257 0 -353 -307q-48 -153 -47 -289q0 -260 223 -260q288 -1 375 385q29 128 29 238zM724 1102q393 0 393 -370q0 -134 -42 -284t-123 -256q-162 -212 -452 -212q-188 0 -288 98t-100 289q0 79 18 175q54 280 208 420t386 140zM1077 1221l-4 -20
h-105l-192 138h-2l-259 -138h-104l4 20l301 239h164z" />
    <glyph glyph-name="otilde" unicode="&#xf5;" 
d="M928 736q0 233 -227 233q-257 0 -353 -307q-48 -153 -47 -289q0 -260 223 -260q288 -1 375 385q29 128 29 238zM724 1102q393 0 393 -370q0 -134 -42 -284t-123 -256q-162 -212 -452 -212q-188 0 -288 98t-100 289q0 79 18 175q54 280 208 420t386 140zM908 1201
q-52 1 -90 19t-74 40t-70 42q-34 18 -71 18q-36 0 -60 -24t-49 -95h-111q41 137 103 193t137 55q75 1 169 -59q36 -22 68 -42q34 -18 70 -18t62 28q25 28 45 91h112q-31 -97 -63 -145t-79 -76q-47 -27 -99 -27z" />
    <glyph glyph-name="odieresis" unicode="&#xf6;" 
d="M928 736q0 233 -227 233q-257 0 -353 -307q-48 -153 -47 -289q0 -260 223 -260q288 -1 375 385q29 128 29 238zM724 1102q393 0 393 -370q0 -134 -42 -284t-123 -256q-162 -212 -452 -212q-188 0 -288 98t-100 289q0 79 18 175q54 280 208 420t386 140zM467 1219l36 184
h165l-36 -184h-165zM861 1219l36 184h163l-36 -184h-163z" />
    <glyph glyph-name="divide" unicode="&#xf7;" 
d="M529 223v183h168v-183h-168zM116 608v146h995v-146h-995zM529 958v183h168v-183h-168z" />
    <glyph glyph-name="oslash" unicode="&#xf8;" 
d="M281 406q0 -68 6 -102l621 576q-57 89 -207 89q-299 0 -359.5 -247.5t-60.5 -315.5zM947 682q0 62 -5 102l-621 -576q59 -95 203 -95q207 0 285.5 127t108 253.5t29.5 188.5zM500 -20q-203 0 -310 107l-94 -87l-63 68l103 95q-44 85 -44 212t43.5 271.5t167.5 300
t421 155.5q213 0 316 -100l88 82l64 -68l-97 -90q42 -81 42 -206t-42.5 -273.5t-167.5 -307.5t-427 -159z" />
    <glyph glyph-name="ugrave" unicode="&#xf9;" 
d="M780 0q0 21 28 185h-3q-83 -113 -175 -159t-225 -46q-132 0 -201 58t-69 185q0 60 15 138l140 721h180l-133 -686q-14 -72 -14 -140q1 -68 43 -102q42 -35 157 -35t207 90t121 246l122 627h181l-165 -851q-10 -50 -21 -113q-10 -63 -14 -87t-4 -31h-170zM736 1201
l-255 230l6 29h197l180 -239l-4 -20h-124z" />
    <glyph glyph-name="uacute" unicode="&#xfa;" 
d="M780 0q0 21 28 185h-3q-83 -113 -175 -159t-225 -46q-132 0 -201 58t-69 185q0 60 15 138l140 721h180l-133 -686q-14 -72 -14 -140q1 -68 43 -102q42 -35 157 -35t207 90t121 246l122 627h181l-165 -851q-10 -50 -21 -113q-10 -63 -14 -87t-4 -31h-170zM620 1201l4 20
l274 239h197l-6 -29l-345 -230h-124z" />
    <glyph glyph-name="ucircumflex" unicode="&#xfb;" 
d="M780 0q0 21 28 185h-3q-83 -113 -175 -159t-225 -46q-132 0 -201 58t-69 185q0 60 15 138l140 721h180l-133 -686q-14 -72 -14 -140q1 -68 43 -102q42 -35 157 -35t207 90t121 246l122 627h181l-165 -851q-10 -50 -21 -113q-10 -63 -14 -87t-4 -31h-170zM1077 1221
l-4 -20h-105l-192 138h-2l-259 -138h-104l4 20l301 239h164z" />
    <glyph glyph-name="udieresis" unicode="&#xfc;" 
d="M780 0q0 21 28 185h-3q-83 -113 -175 -159t-225 -46q-132 0 -201 58t-69 185q0 60 15 138l140 721h180l-133 -686q-14 -72 -14 -140q1 -68 43 -102q42 -35 157 -35t207 90t121 246l122 627h181l-165 -851q-10 -50 -21 -113q-10 -63 -14 -87t-4 -31h-170zM467 1219l36 184
h165l-36 -184h-165zM861 1219l36 184h163l-36 -184h-163z" />
    <glyph glyph-name="yacute" unicode="&#xfd;" 
d="M104 -425q-72 0 -121 11l26 135q36 -6 99 -6t144 59t154 188l27 49l-262 1071h192l140 -642q48 -214 48 -254q10 22 63 110l462 786h190l-666 -1082q-140 -242 -252 -334t-244 -91zM637 1201l4 20l274 239h197l-6 -29l-345 -230h-124z" />
    <glyph glyph-name="thorn" unicode="&#xfe;" 
d="M289 164q0 -20 -111 -589h-181l371 1909h180l-82 -423l-34 -157h7q70 105 157.5 152.5t211.5 47.5q308 0 308 -336q0 -95 -25 -222q-110 -566 -502 -566q-247 0 -295 184h-5zM928 735q0 116 -44.5 173t-145.5 57t-168.5 -42.5t-117 -131t-79.5 -220t-30 -237.5
q0 -222 223 -221q117 0 193.5 78t122.5 253t46 291z" />
    <glyph glyph-name="ydieresis" unicode="&#xff;" 
d="M104 -425q-72 0 -121 11l26 135q36 -6 99 -6t144 59t154 188l27 49l-262 1071h192l140 -642q48 -214 48 -254q10 22 63 110l462 786h190l-666 -1082q-140 -242 -252 -334t-244 -91zM472 1219l36 184h165l-36 -184h-165zM866 1219l36 184h163l-36 -184h-163z" />
    <glyph glyph-name="Amacron" unicode="&#x100;" 
d="M745 1205q-92 -182 -363 -674h463l-76 500zM929 0l-64 382h-563l-211 -382h-196l772 1349h217l239 -1349h-194zM1077 1503h-551l25 127h551z" />
    <glyph glyph-name="amacron" unicode="&#x101;" 
d="M265 251q1 -134 157 -134q84 -1 166 45q83 46 139 123t72 160l18 89l-191 -4q-136 -2 -210 -36t-112 -100t-39 -143zM708 1102q340 0 340 -267q0 -45 -10 -97l-90 -466q-9 -42 -9 -80q0 -80 79 -81q27 0 60 7l-22 -112q-70 -16 -150 -16q-152 0 -152 152l5 65h-6
q-89 -123 -189 -175t-230 -52t-196 62t-65 171q0 41 9 89q68 349 523 354l236 4q22 105 22 148q0 85 -46 121t-150 36q-103 1 -163 -39t-91 -133l-185 17q106 292 480 292zM986 1236h-551l25 127h551z" />
    <glyph glyph-name="Abreve" unicode="&#x102;" 
d="M745 1205q-92 -182 -363 -674h463l-76 500zM929 0l-64 382h-563l-211 -382h-196l772 1349h217l239 -1349h-194zM814 1572q151 0 213 133h127q-49 -123 -145 -191t-218 -68q-123 0 -193 69t-70 184v6h127q8 -133 159 -133z" />
    <glyph glyph-name="abreve" unicode="&#x103;" 
d="M265 251q1 -134 157 -134q84 -1 166 45q83 46 139 123t72 160l18 89l-191 -4q-136 -2 -210 -36t-112 -100t-39 -143zM708 1102q340 0 340 -267q0 -45 -10 -97l-90 -466q-9 -42 -9 -80q0 -80 79 -81q27 0 60 7l-22 -112q-70 -16 -150 -16q-152 0 -152 152l5 65h-6
q-89 -123 -189 -175t-230 -52t-196 62t-65 171q0 41 9 89q68 349 523 354l236 4q22 105 22 148q0 85 -46 121t-150 36q-103 1 -163 -39t-91 -133l-185 17q106 292 480 292zM747 1327q151 0 213 133h127q-49 -122 -145 -190t-218 -69q-122 0 -192 69t-71 184v6h127
q8 -133 159 -133z" />
    <glyph glyph-name="Aogonek" unicode="&#x104;" 
d="M745 1205q-92 -182 -363 -674h463l-76 500zM889 -239q0 -67 78 -67q55 0 120 24l-21 -107q-67 -27 -151 -27q-85 0 -129 38t-44 112q0 73 54 146t133 120l-64 382h-563l-211 -382h-196l772 1349h217l239 -1349h-61q-70 -41 -121 -110q-52 -69 -52 -129z" />
    <glyph glyph-name="aogonek" unicode="&#x105;" 
d="M265 251q1 -134 157 -134q84 -1 166 45q83 46 139 123t72 160l18 89l-191 -4q-136 -2 -210 -36t-112 -100t-39 -143zM708 1102q340 0 340 -267q0 -45 -10 -97l-90 -466q-9 -42 -9 -80q0 -80 79 -81q27 0 60 7l-22 -112q-37 -9 -75 -12q-75 -42 -128 -113t-53 -131
q0 -67 78 -67q55 0 120 24l-21 -107q-67 -27 -151 -27q-84 1 -128 39t-45 111q0 73 56 149t144 124q-99 22 -99 146l5 65h-6q-89 -123 -189 -175t-230 -52t-196 62t-65 171q0 41 9 89q68 349 523 354l236 4q22 105 22 148q0 85 -46 121t-150 36q-103 1 -163 -39t-91 -133
l-185 17q106 292 480 292z" />
    <glyph glyph-name="Cacute" unicode="&#x106;" 
d="M316 452q0 -317 266 -317q103 -1 200 71t177 211l146 -65q-223 -372 -555 -372q-212 0 -323 118t-111 349q0 165 52 355q155 568 648 568q329 0 395 -335l-180 -65q-18 120 -84 182t-170 62q-103 0 -185 -51t-140 -154t-98 -267q-38 -164 -38 -290zM709 1445l4 20
l274 239h197l-6 -29l-345 -230h-124z" />
    <glyph glyph-name="cacute" unicode="&#x107;" 
d="M301 376q0 -256 234 -257q240 0 315 215l188 -12q-32 -96 -106 -174t-182 -124q-106 -44 -228 -44q-202 0 -306 99t-104 290q0 127 42 271t124 249t198 159t282 54q164 0 265 -86t101 -237l-194 -14v6q0 86 -53 138t-179 52q-126 -1 -213 -71t-135 -225t-49 -289z
M632 1201l4 20l274 239h197l-6 -29l-345 -230h-124z" />
    <glyph glyph-name="Ccircumflex" unicode="&#x108;" 
d="M316 452q0 -317 266 -317q103 -1 200 71t177 211l146 -65q-223 -372 -555 -372q-212 0 -323 118t-111 349q0 165 52 355q155 568 648 568q329 0 395 -335l-180 -65q-18 120 -84 182t-170 62q-103 0 -185 -51t-140 -154t-98 -267q-38 -164 -38 -290zM1145 1466l-4 -20
h-105l-192 138h-2l-259 -138h-104l4 20l301 239h164z" />
    <glyph glyph-name="ccircumflex" unicode="&#x109;" 
d="M301 376q0 -256 234 -257q240 0 315 215l188 -12q-32 -96 -106 -174t-182 -124q-106 -44 -228 -44q-202 0 -306 99t-104 290q0 127 42 271t124 249t198 159t282 54q164 0 265 -86t101 -237l-194 -14v6q0 86 -53 138t-179 52q-126 -1 -213 -71t-135 -225t-49 -289z
M1077 1221l-4 -20h-105l-192 138h-2l-259 -138h-104l4 20l301 239h164z" />
    <glyph glyph-name="Cdotaccent" unicode="&#x10a;" 
d="M316 452q0 -317 266 -317q103 -1 200 71t177 211l146 -65q-223 -372 -555 -372q-212 0 -323 118t-111 349q0 165 52 355q155 568 648 568q329 0 395 -335l-180 -65q-18 120 -84 182t-170 62q-103 0 -185 -51t-140 -154t-98 -267q-38 -164 -38 -290zM721 1446l37 192h200
l-37 -192h-200z" />
    <glyph glyph-name="cdotaccent" unicode="&#x10b;" 
d="M301 376q0 -256 234 -257q240 0 315 215l188 -12q-32 -96 -106 -174t-182 -124q-106 -44 -228 -44q-202 0 -306 99t-104 290q0 127 42 271t124 249t198 159t282 54q164 0 265 -86t101 -237l-194 -14v6q0 86 -53 138t-179 52q-126 -1 -213 -71t-135 -225t-49 -289z
M681 1292l37 192h200l-37 -192h-200z" />
    <glyph glyph-name="Ccaron" unicode="&#x10c;" 
d="M316 452q0 -317 266 -317q103 -1 200 71t177 211l146 -65q-223 -372 -555 -372q-212 0 -323 118t-111 349q0 165 52 355q155 568 648 568q329 0 395 -335l-180 -65q-18 120 -84 182t-170 62q-103 0 -185 -51t-140 -154t-98 -267q-38 -164 -38 -290zM894 1446h-164
l-207 239l4 20h104l205 -138h2l246 138h105l-4 -20z" />
    <glyph glyph-name="ccaron" unicode="&#x10d;" 
d="M301 376q0 -256 234 -257q240 0 315 215l188 -12q-32 -96 -106 -174t-182 -124q-106 -44 -228 -44q-202 0 -306 99t-104 290q0 127 42 271t124 249t198 159t282 54q164 0 265 -86t101 -237l-194 -14v6q0 86 -53 138t-179 52q-126 -1 -213 -71t-135 -225t-49 -289z
M825 1201h-164l-207 239l4 20h104l205 -138h2l246 138h105l-4 -20z" />
    <glyph glyph-name="Dcaron" unicode="&#x10e;" 
d="M981 865q-1 173 -95 251t-285 77h-121l-202 -1037h162q382 0 501 441q40 148 40 268zM630 1349q545 0 545 -459q0 -158 -54 -335t-152 -301q-200 -254 -542 -254h-370l262 1349h311zM847 1446h-164l-207 239l4 20h104l205 -138h2l246 138h105l-4 -20z" />
    <glyph glyph-name="dcaron" unicode="&#x10f;" 
d="M1075 1159l7 33l135 292h197l-7 -37l-227 -288h-105zM191 324q0 -114 34.5 -162.5t104.5 -48.5t133.5 47.5t113.5 137t78 206t28 220.5t-48.5 172.5t-138.5 68.5t-154 -83.5t-107.5 -263.5t-43.5 -294zM260 -26q-112 0 -183 86t-71 235t38 304t137 327t311 172
q98 0 156 -43t88 -141h2l108 570h180l-245 -1261q-32 -179 -37 -223h-172v4q0 43 24 170h-4q-69 -105 -144.5 -152.5t-187.5 -47.5z" />
    <glyph glyph-name="Dcroat" unicode="&#x110;" 
d="M440 156q382 0 501 441q40 148 40 268q-1 173 -95 251t-285 77h-121l-87 -447h289l-29 -149h-289l-86 -441h162zM630 1349q545 0 545 -459q0 -158 -54 -335t-152 -301q-200 -254 -542 -254h-370l116 597h-135l29 149h135l117 603h311z" />
    <glyph glyph-name="dcroat" unicode="&#x111;" 
d="M299 339q0 -120 47.5 -173t144.5 -53t166 40.5t118 124.5t78 212t29 230t-53 160.5t-171 58.5t-193.5 -76.5t-120.5 -240t-45 -283.5zM772 0v4q0 43 24 170h-5q-69 -105 -159 -152.5t-230 -47.5t-216 82t-76 250q0 86 23 211q108 555 500 555q121 0 194.5 -43t103.5 -141
h2l57 308h-300l26 131h300l30 157h180l-30 -157h131l-26 -131h-131l-189 -973q-32 -179 -37 -223h-172z" />
    <glyph glyph-name="Emacron" unicode="&#x112;" 
d="M57 0l262 1349h919l-30 -156h-728l-82 -422h668l-30 -154h-668l-90 -461h769l-30 -156h-960zM1093 1503h-551l25 127h551z" />
    <glyph glyph-name="emacron" unicode="&#x113;" 
d="M702 969q-134 0 -228 -87t-130 -241h584l4 72q0 256 -230 256zM302 382q0 -129 62 -198t170 -69t194 44t129 122l149 -45q-68 -124 -198 -190t-309 -66t-281 100t-102 290q0 124 40 268t120 250q162 214 450 214q386 0 386 -379q0 -91 -21 -196l-4 -24h-772
q-13 -69 -13 -121zM1025 1236h-551l25 127h551z" />
    <glyph glyph-name="Ebreve" unicode="&#x114;" 
d="M57 0l262 1349h919l-30 -156h-728l-82 -422h668l-30 -154h-668l-90 -461h769l-30 -156h-960zM814 1572q151 0 213 133h127q-49 -123 -145 -191t-218 -68q-123 0 -193 69t-70 184v6h127q8 -133 159 -133z" />
    <glyph glyph-name="ebreve" unicode="&#x115;" 
d="M702 969q-134 0 -228 -87t-130 -241h584l4 72q0 256 -230 256zM302 382q0 -129 62 -198t170 -69t194 44t129 122l149 -45q-68 -124 -198 -190t-309 -66t-281 100t-102 290q0 124 40 268t120 250q162 214 450 214q386 0 386 -379q0 -91 -21 -196l-4 -24h-772
q-13 -69 -13 -121zM770 1327q151 0 213 133h127q-49 -122 -145 -190t-218 -69q-123 0 -193 69t-70 184v6h127q8 -133 159 -133z" />
    <glyph glyph-name="Edotaccent" unicode="&#x116;" 
d="M57 0l262 1349h919l-30 -156h-728l-82 -422h668l-30 -154h-668l-90 -461h769l-30 -156h-960zM691 1446l37 192h200l-37 -192h-200z" />
    <glyph glyph-name="edotaccent" unicode="&#x117;" 
d="M702 969q-134 0 -228 -87t-130 -241h584l4 72q0 256 -230 256zM302 382q0 -129 62 -198t170 -69t194 44t129 122l149 -45q-68 -124 -198 -190t-309 -66t-281 100t-102 290q0 124 40 268t120 250q162 214 450 214q386 0 386 -379q0 -91 -21 -196l-4 -24h-772
q-13 -69 -13 -121zM664 1298l37 192h200l-37 -192h-200z" />
    <glyph glyph-name="Eogonek" unicode="&#x118;" 
d="M762 -250q0 -67 78 -67q55 0 120 24l-21 -107q-67 -27 -151 -27q-84 1 -128 39t-45 111t57 151t150 126h-765l262 1349h919l-30 -156h-728l-82 -422h668l-30 -154h-668l-90 -461h769l-30 -156h-62q-83 -42 -138 -116t-55 -134z" />
    <glyph glyph-name="eogonek" unicode="&#x119;" 
d="M702 969q-134 0 -228 -87t-130 -241h584l4 72q0 256 -230 256zM302 382q0 -129 62 -198t170 -69t194 44t129 122l149 -45q-100 -179 -320 -236q-83 -42 -138 -116t-55 -134q0 -67 78 -67q55 0 120 24l-21 -107q-67 -27 -151 -27q-85 1 -129 39t-44 111t52 143t121 114h-5
q-194 0 -296 100t-102 290q0 124 40 268t120 250q162 214 450 214q386 0 386 -379q0 -91 -21 -196l-4 -24h-772q-13 -69 -13 -121z" />
    <glyph glyph-name="Ecaron" unicode="&#x11a;" 
d="M57 0l262 1349h919l-30 -156h-728l-82 -422h668l-30 -154h-668l-90 -461h769l-30 -156h-960zM877 1446h-164l-207 239l4 20h104l205 -138h2l246 138h105l-4 -20z" />
    <glyph glyph-name="ecaron" unicode="&#x11b;" 
d="M702 969q-134 0 -228 -87t-130 -241h584l4 72q0 256 -230 256zM302 382q0 -129 62 -198t170 -69t194 44t129 122l149 -45q-68 -124 -198 -190t-309 -66t-281 100t-102 290q0 124 40 268t120 250q162 214 450 214q386 0 386 -379q0 -91 -21 -196l-4 -24h-772
q-13 -69 -13 -121zM822 1201h-164l-207 239l4 20h104l205 -138h2l246 138h105l-4 -20z" />
    <glyph glyph-name="Gcircumflex" unicode="&#x11c;" 
d="M549 -20q-433 0 -433 471q0 161 53 353q156 566 634 566q344 0 397 -331l-182 -56q-36 231 -244 231t-322 -199q-56 -101 -96 -267t-40 -293q0 -320 260 -320q68 0 144 21t131 53l65 336h-293l31 160h479l-111 -572q-255 -153 -473 -153zM1125 1466l-4 -20h-105l-192 138
h-2l-259 -138h-104l4 20l301 239h164z" />
    <glyph glyph-name="gcircumflex" unicode="&#x11d;" 
d="M308 346q0 -200 186 -201q179 1 287 167q106 164 106 404q-1 107 -57 178t-152 71t-160 -39q-63 -39 -107 -122q-43 -82 -73 -220t-30 -238zM460 -288q250 0 309 315l38 194h-2q-141 -209 -384 -209q-157 0 -229 78t-72 220t40 310t106 270q133 208 386 209
q113 -1 186 -53t99 -149h3q7 37 25 107t23 78h171l-49 -224l-161 -826q-88 -456 -521 -456q-169 0 -257 69t-92 198l189 25q2 -76 51 -116t141 -40zM1068 1221l-4 -20h-105l-192 138h-2l-259 -138h-104l4 20l301 239h164z" />
    <glyph glyph-name="Gbreve" unicode="&#x11e;" 
d="M549 -20q-433 0 -433 471q0 161 53 353q156 566 634 566q344 0 397 -331l-182 -56q-36 231 -244 231t-322 -199q-56 -101 -96 -267t-40 -293q0 -320 260 -320q68 0 144 21t131 53l65 336h-293l31 160h479l-111 -572q-255 -153 -473 -153zM817 1572q151 0 213 133h127
q-49 -123 -145 -191t-218 -68t-192 69t-71 184v6h127q8 -133 159 -133z" />
    <glyph glyph-name="gbreve" unicode="&#x11f;" 
d="M308 346q0 -200 186 -201q179 1 287 167q106 164 106 404q-1 107 -57 178t-152 71t-160 -39q-63 -39 -107 -122q-43 -82 -73 -220t-30 -238zM460 -288q250 0 309 315l38 194h-2q-141 -209 -384 -209q-157 0 -229 78t-72 220t40 310t106 270q133 208 386 209
q113 -1 186 -53t99 -149h3q7 37 25 107t23 78h171l-49 -224l-161 -826q-88 -456 -521 -456q-169 0 -257 69t-92 198l189 25q2 -76 51 -116t141 -40zM757 1327q151 0 213 133h127q-49 -122 -145 -190t-218 -69q-122 0 -192 69t-71 184v6h127q8 -133 159 -133z" />
    <glyph glyph-name="Gdotaccent" unicode="&#x120;" 
d="M549 -20q-433 0 -433 471q0 161 53 353q156 566 634 566q344 0 397 -331l-182 -56q-36 231 -244 231t-322 -199q-56 -101 -96 -267t-40 -293q0 -320 260 -320q68 0 144 21t131 53l65 336h-293l31 160h479l-111 -572q-255 -153 -473 -153zM701 1446l37 192h200l-37 -192
h-200z" />
    <glyph glyph-name="gdotaccent" unicode="&#x121;" 
d="M308 346q0 -200 186 -201q179 1 287 167q106 164 106 404q-1 107 -57 178t-152 71t-160 -39q-63 -39 -107 -122q-43 -82 -73 -220t-30 -238zM460 -288q250 0 309 315l38 194h-2q-141 -209 -384 -209q-157 0 -229 78t-72 220t40 310t106 270q133 208 386 209
q113 -1 186 -53t99 -149h3q7 37 25 107t23 78h171l-49 -224l-161 -826q-88 -456 -521 -456q-169 0 -257 69t-92 198l189 25q2 -76 51 -116t141 -40zM652 1292l37 192h200l-37 -192h-200z" />
    <glyph glyph-name="Gcommaaccent" unicode="&#x122;" 
d="M549 -20q-433 0 -433 471q0 161 53 353q156 566 634 566q344 0 397 -331l-182 -56q-36 231 -244 231t-322 -199q-56 -101 -96 -267t-40 -293q0 -320 260 -320q68 0 144 21t131 53l65 336h-293l31 160h479l-111 -572q-255 -153 -473 -153zM288 -423l6 33l136 292h197
l-7 -37l-227 -288h-105z" />
    <glyph glyph-name="gcommaaccent" unicode="&#x123;" 
d="M308 346q0 -200 186 -201q179 1 287 167q106 164 106 404q-1 107 -57 178t-152 71t-160 -39q-63 -39 -107 -122q-43 -82 -73 -220t-30 -238zM460 -288q250 0 309 315l38 194h-2q-141 -209 -384 -209q-157 0 -229 78t-72 220t40 310t106 270q133 208 386 209
q113 -1 186 -53t99 -149h3q7 37 25 107t23 78h171l-49 -224l-161 -826q-88 -456 -521 -456q-169 0 -257 69t-92 198l189 25q2 -76 51 -116t141 -40zM944 1536l-7 -33l-136 -292h-197l8 37l227 288h105z" />
    <glyph glyph-name="Hcircumflex" unicode="&#x124;" 
d="M770 0l121 623h-522l-121 -623h-191l262 1349h191l-110 -566h522l110 566h191l-262 -1349h-191zM1124 1466l-4 -20h-105l-192 138h-2l-259 -138h-104l4 20l301 239h164z" />
    <glyph glyph-name="hcircumflex" unicode="&#x125;" 
d="M1125 1465l-4 -20h-105l-192 139h-2l-259 -139h-104l4 20l300 240h164zM897 755q-1 148 -195 148q-108 0 -204.5 -91t-127.5 -245l-110 -567h-180l262 1349h181q-37 -190 -58.5 -301t-49.5 -211h3q142 205 379 205q288 0 288 -257q0 -59 -13 -124l-128 -661h-181l123 635
q11 53 11 120z" />
    <glyph glyph-name="Hbar" unicode="&#x126;" 
d="M922 783l43 222h-522l-43 -222h522zM281 1153l38 196h191l-38 -196h522l38 196h191l-38 -196h160l-29 -148h-160l-195 -1005h-191l121 623h-522l-121 -623h-191l195 1005h-160l29 148h160z" />
    <glyph glyph-name="hbar" unicode="&#x127;" 
d="M802 1072q289 0 289 -259q0 -57 -13 -122l-134 -691h-181l129 665q11 58 11 98q0 88 -43.5 129t-151.5 41t-204.5 -90.5t-127.5 -245.5l-116 -597h-180l232 1196h-132l26 131h132l30 157h181l-30 -157h299l-26 -131h-299q-13 -67 -21 -110t-51 -219h3q142 205 378 205z
" />
    <glyph glyph-name="Itilde" unicode="&#x128;" 
d="M359 1349h823l-30 -156h-316l-202 -1037h316l-30 -156h-823l30 156h316l202 1037h-316zM958 1446q-52 0 -91 18q-38 18 -74 42q-37 22 -71 40t-70 19t-60 -23t-49 -96h-111q42 136 104 192t136 56t168 -60q36 -22 70 -40t70 -19t61 27t45 92h112q-32 -98 -64 -146
t-78 -75t-98 -27z" />
    <glyph glyph-name="itilde" unicode="&#x129;" 
d="M668 142h380l-28 -142h-982l28 142h422l155 798h-319l27 142h499zM908 1201q-52 1 -90 19t-74 40t-70 42q-34 18 -71 18q-36 0 -60 -24t-49 -95h-111q41 137 103 193t137 55q75 1 169 -59q36 -22 68 -42q34 -18 70 -18t62 28q25 28 45 91h112q-31 -97 -63 -145t-79 -76
q-47 -27 -99 -27z" />
    <glyph glyph-name="Imacron" unicode="&#x12a;" 
d="M359 1349h823l-30 -156h-316l-202 -1037h316l-30 -156h-823l30 156h316l202 1037h-316zM1077 1503h-551l25 127h551z" />
    <glyph glyph-name="imacron" unicode="&#x12b;" 
d="M668 142h380l-28 -142h-982l28 142h422l155 798h-319l27 142h499zM1031 1236h-551l25 127h551z" />
    <glyph glyph-name="Ibreve" unicode="&#x12c;" 
d="M359 1349h823l-30 -156h-316l-202 -1037h316l-30 -156h-823l30 156h316l202 1037h-316zM813 1571q151 0 213 133h127q-49 -122 -145 -190t-218 -69q-122 0 -192 69t-71 184v6h127q8 -133 159 -133z" />
    <glyph glyph-name="ibreve" unicode="&#x12d;" 
d="M668 142h380l-28 -142h-982l28 142h422l155 798h-319l27 142h499zM786 1327q151 0 213 133h127q-49 -122 -145 -190t-218 -69q-123 0 -193 69t-70 184v6h127q8 -133 159 -133z" />
    <glyph glyph-name="Iogonek" unicode="&#x12e;" 
d="M444 -250q0 -67 78 -67q55 0 120 24l-21 -107q-67 -27 -151 -27q-84 1 -128 39t-45 111t57 151t150 126h-407l30 156h316l202 1037h-316l30 156h823l-30 -156h-316l-202 -1037h316l-30 -156h-283q-83 -42 -138 -116t-55 -134z" />
    <glyph glyph-name="iogonek" unicode="&#x12f;" 
d="M691 1292l37 192h200l-37 -192h-200zM487 -250q0 -67 78 -67q55 0 120 24l-21 -107q-67 -27 -151 -27q-85 1 -129 39t-44 111t58 151t149 126h-509l28 142h422l155 798h-319l27 142h499l-182 -940h380l-28 -142h-340q-83 -42 -138 -116t-55 -134z" />
    <glyph glyph-name="Idotaccent" unicode="&#x130;" 
d="M359 1349h823l-30 -156h-316l-202 -1037h316l-30 -156h-823l30 156h316l202 1037h-316zM691 1446l37 192h200l-37 -192h-200z" />
    <glyph glyph-name="dotlessi" unicode="&#x131;" 
d="M668 142h380l-28 -142h-982l28 142h422l155 798h-319l27 142h499z" />
    <glyph glyph-name="IJ" unicode="&#x132;" 
d="M700 135q188 0 243 281l151 777h-271l30 156h461l-180 -929q-40 -210 -163.5 -325t-300.5 -115t-253.5 84.5t-76.5 275.5v10l192 31v-23q0 -111 37.5 -167t130.5 -56zM255 1349h191l-262 -1349h-191z" />
    <glyph glyph-name="ij" unicode="&#x133;" 
d="M1007 1292l37 192h200l-37 -192h-200zM458 -276q125 0 207 65.5t106 185.5l215 1107h180l-215 -1110q-36 -186 -169 -291.5t-322 -105.5t-297 43l27 140q143 -34 268 -34zM362 1292l37 192h200l-37 -192h-200zM342 1082h179l-210 -1082h-180z" />
    <glyph glyph-name="Jcircumflex" unicode="&#x134;" 
d="M488 -20q-180 0 -264 87t-85 274v9l193 31v-19q0 -112 46 -170t130 -57q209 0 264 281l151 777h-311l30 156h501l-180 -929q-39 -204 -167 -322t-308 -118zM1245 1466l-4 -20h-105l-192 138h-2l-259 -138h-104l4 20l301 239h164z" />
    <glyph glyph-name="jcircumflex" unicode="&#x135;" 
d="M233 -276q125 0 207 66t106 185l188 965h-407l27 142h587l-215 -1110q-36 -186 -169 -292t-322 -105q-189 0 -297 43l27 140q143 -34 268 -34zM1181 1221l-4 -20h-105l-192 138h-2l-259 -138h-104l4 20l301 239h164z" />
    <glyph glyph-name="Kcommaaccent" unicode="&#x136;" 
d="M898 0l-359 641l-200 -172l-91 -469h-191l262 1349h191l-131 -673l703 673h225l-615 -572l430 -777h-224zM288 -423l6 33l136 292h197l-7 -37l-227 -288h-105z" />
    <glyph glyph-name="kcommaaccent" unicode="&#x137;" 
d="M809 0l-269 499l-151 -98l-78 -401h-180l288 1484h180l-180 -927l577 525h211l-529 -465l342 -617h-211zM288 -423l6 33l136 292h197l-7 -37l-227 -288h-105z" />
    <glyph glyph-name="kgreenlandic" unicode="&#x138;" 
d="M809 0l-270 494l-151 -98l-77 -396h-180l210 1082h180l-104 -538l579 538h211l-529 -465l342 -617h-211z" />
    <glyph glyph-name="Lacute" unicode="&#x139;" 
d="M132 0l262 1349h191l-232 -1193h672l-30 -156h-863zM480 1446l4 20l274 239h197l-6 -29l-345 -230h-124z" />
    <glyph glyph-name="lacute" unicode="&#x13a;" 
d="M707 1445l4 20l273 240h197l-5 -29l-345 -231h-124zM659 142h380l-28 -142h-982l28 142h422l207 1065h-289l27 142h469z" />
    <glyph glyph-name="Lcommaaccent" unicode="&#x13b;" 
d="M132 0l262 1349h191l-232 -1193h672l-30 -156h-863zM298 -423l6 33l136 292h197l-7 -37l-227 -288h-105z" />
    <glyph glyph-name="lcommaaccent" unicode="&#x13c;" 
d="M659 142h380l-28 -142h-982l28 142h422l233 1200h-289l27 142h469zM288 -423l6 33l136 292h197l-7 -37l-227 -288h-105z" />
    <glyph glyph-name="Lcaron" unicode="&#x13d;" 
d="M132 0l262 1349h191l-232 -1193h672l-30 -156h-863zM869 1024l6 33l136 292h197l-7 -37l-227 -288h-105z" />
    <glyph glyph-name="lcaron" unicode="&#x13e;" 
d="M610 142h380l-28 -142h-982l28 142h422l233 1200h-289l27 142h469zM1015 1159l7 33l135 292h197l-7 -37l-227 -288h-105z" />
    <glyph glyph-name="Ldot" unicode="&#x13f;" 
d="M132 0l262 1349h191l-232 -1193h672l-30 -156h-863zM684 608l37 192h200l-37 -192h-200z" />
    <glyph glyph-name="ldot" unicode="&#x140;" 
d="M659 142h380l-28 -142h-982l28 142h422l233 1200h-289l27 142h469zM944 608l37 192h200l-37 -192h-200z" />
    <glyph glyph-name="Lslash" unicode="&#x141;" 
d="M132 0l89 458l-129 -61l-42 121l201 96l143 735h191l-123 -636l321 151l37 -121l-389 -185l-78 -402h672l-30 -156h-863z" />
    <glyph glyph-name="lslash" unicode="&#x142;" 
d="M803 884l250 129l40 -113l-319 -164l-115 -594h380l-28 -142h-982l28 142h422l95 493l-241 -123l-43 112l313 159l109 559h-339l27 142h519z" />
    <glyph glyph-name="Nacute" unicode="&#x143;" 
d="M731 0l-300 1130q-15 -161 -34 -254l-170 -876h-170l262 1349h222l307 -1138q12 155 35 274l168 864h172l-262 -1349h-230zM700 1446l4 20l274 239h197l-6 -29l-345 -230h-124z" />
    <glyph glyph-name="nacute" unicode="&#x144;" 
d="M815 1102q283 0 283 -254q0 -57 -14 -127l-140 -721h-181l135 695q11 58 11 98q1 88 -43 129t-152 41q-108 -1 -204 -91t-128 -245l-122 -627h-180l165 851q10 50 21 113q10 63 14 87t4 31h170q0 -42 -28 -185h3q147 205 386 205zM667 1201l4 20l274 239h197l-6 -29
l-345 -230h-124z" />
    <glyph glyph-name="Ncommaaccent" unicode="&#x145;" 
d="M731 0l-300 1130q-15 -161 -34 -254l-170 -876h-170l262 1349h222l307 -1138q12 155 35 274l168 864h172l-262 -1349h-230zM257 -423l6 33l136 292h197l-7 -37l-227 -288h-105z" />
    <glyph glyph-name="ncommaaccent" unicode="&#x146;" 
d="M815 1102q283 0 283 -254q0 -57 -14 -127l-140 -721h-181l135 695q11 58 11 98q1 88 -43 129t-152 41q-108 -1 -204 -91t-128 -245l-122 -627h-180l165 851q10 50 21 113q10 63 14 87t4 31h170q0 -42 -28 -185h3q147 205 386 205zM261 -423l6 33l136 292h197l-7 -37
l-227 -288h-105z" />
    <glyph glyph-name="Ncaron" unicode="&#x147;" 
d="M731 0l-300 1130q-15 -161 -34 -254l-170 -876h-170l262 1349h222l307 -1138q12 155 35 274l168 864h172l-262 -1349h-230zM883 1446h-164l-207 239l4 20h104l205 -138h2l246 138h105l-4 -20z" />
    <glyph glyph-name="ncaron" unicode="&#x148;" 
d="M815 1102q283 0 283 -254q0 -57 -14 -127l-140 -721h-181l135 695q11 58 11 98q1 88 -43 129t-152 41q-108 -1 -204 -91t-128 -245l-122 -627h-180l165 851q10 50 21 113q10 63 14 87t4 31h170q0 -42 -28 -185h3q147 205 386 205zM829 1201h-164l-207 239l4 20h104
l205 -138h2l246 138h105l-4 -20z" />
    <glyph glyph-name="napostrophe" unicode="&#x149;" 
d="M920 1102q283 0 283 -254q0 -57 -14 -127l-140 -721h-181l135 695q11 58 11 98q0 88 -44 129t-151 41q-109 -1 -205 -91t-127 -245l-122 -627h-180l165 851q10 50 21 113q10 63 14 87t4 31h170q0 -42 -28 -185h3q147 205 386 205zM99 1025l6 33l136 292h197l-7 -37
l-227 -288h-105z" />
    <glyph glyph-name="Eng" unicode="&#x14a;" 
d="M506 1350q0 -42 -28 -185h3q147 205 426 205q302 0 302 -261q0 -56 -13 -120l-87 -447q-58 -302 -165 -432t-283 -130q-126 0 -175.5 45.5t-79.5 106.5l150 100q32 -60 63 -79.5t77 -19.5q79 0 135 95.5t98 317.5l81 417q10 50 10 92q0 176 -198 176q-139 0 -248 -90.5
t-140 -245.5l-174 -895h-180l218 1119l25 143l13 88h170z" />
    <glyph glyph-name="eng" unicode="&#x14b;" 
d="M815 1102q283 0 283 -254q0 -57 -14 -127l-166 -855q-29 -152 -103 -221.5t-195 -69.5q-76 0 -125 9l27 139l61 -6q70 0 104.5 36.5t54.5 139.5l156 802q11 58 11 98q0 88 -43.5 129t-151.5 41t-204.5 -90.5t-127.5 -245.5l-122 -627h-180l165 851q10 50 20.5 113
l14.5 87t4 31h170q0 -42 -28 -185h3q147 205 386 205z" />
    <glyph glyph-name="Omacron" unicode="&#x14c;" 
d="M978 913q0 301 -232 301q-270 0 -384 -401q-58 -202 -58 -367q0 -311 231 -311q296 -1 406 493q37 166 37 285zM102 430q0 160 50 351t136 323q175 266 488 266q198 0 301 -110t103 -332q0 -155 -49 -346q-49 -192 -139 -328q-181 -274 -488 -274q-202 0 -302 116
t-100 334zM1077 1503h-551l25 127h551z" />
    <glyph glyph-name="omacron" unicode="&#x14d;" 
d="M928 736q0 233 -227 233q-257 0 -353 -307q-48 -153 -47 -289q0 -260 223 -260q288 -1 375 385q29 128 29 238zM724 1102q393 0 393 -370q0 -134 -42 -284t-123 -256q-162 -212 -452 -212q-188 0 -288 98t-100 289q0 79 18 175q54 280 208 420t386 140zM1025 1236h-551
l25 127h551z" />
    <glyph glyph-name="Obreve" unicode="&#x14e;" 
d="M978 913q0 301 -232 301q-270 0 -384 -401q-58 -202 -58 -367q0 -311 231 -311q296 -1 406 493q37 166 37 285zM102 430q0 160 50 351t136 323q175 266 488 266q198 0 301 -110t103 -332q0 -155 -49 -346q-49 -192 -139 -328q-181 -274 -488 -274q-202 0 -302 116
t-100 334zM814 1572q151 0 213 133h127q-49 -123 -145 -191t-218 -68q-123 0 -193 69t-70 184v6h127q8 -133 159 -133z" />
    <glyph glyph-name="obreve" unicode="&#x14f;" 
d="M928 736q0 233 -227 233q-257 0 -353 -307q-48 -153 -47 -289q0 -260 223 -260q288 -1 375 385q29 128 29 238zM724 1102q393 0 393 -370q0 -134 -42 -284t-123 -256q-162 -212 -452 -212q-188 0 -288 98t-100 289q0 79 18 175q54 280 208 420t386 140zM766 1327
q151 0 213 133h127q-49 -122 -145 -190t-218 -69q-123 0 -193 69t-70 184v6h127q8 -133 159 -133z" />
    <glyph glyph-name="Ohungarumlaut" unicode="&#x150;" 
d="M978 913q0 301 -232 301q-270 0 -384 -401q-58 -202 -58 -367q0 -311 231 -311q296 -1 406 493q37 166 37 285zM102 430q0 160 50 351t136 323q175 266 488 266q198 0 301 -110t103 -332q0 -155 -49 -346q-49 -192 -139 -328q-181 -274 -488 -274q-202 0 -302 116
t-100 334zM505 1445l4 20l254 239h187l-6 -29l-345 -230h-94zM869 1445l4 20l254 239h187l-6 -29l-345 -230h-94z" />
    <glyph glyph-name="ohungarumlaut" unicode="&#x151;" 
d="M928 736q0 233 -227 233q-257 0 -353 -307q-48 -153 -47 -289q0 -260 223 -260q288 -1 375 385q29 128 29 238zM724 1102q393 0 393 -370q0 -134 -42 -284t-123 -256q-162 -212 -452 -212q-188 0 -288 98t-100 289q0 79 18 175q54 280 208 420t386 140zM477 1201l4 20
l254 239h187l-6 -29l-345 -230h-94zM841 1201l4 20l254 239h187l-6 -29l-345 -230h-94z" />
    <glyph glyph-name="OE" unicode="&#x152;" 
d="M201 437q0 -297 233 -297q71 0 101 6l206 1057q-36 6 -98 6q-144 0 -237.5 -98.5t-149 -305.5t-55.5 -368zM405 -5q-199 0 -293.5 101t-94.5 310q0 158 48.5 361t168.5 395.5t437 192.5q59 0 108 -6h558l-29 -152h-398l-86 -440h367l-29 -150h-367l-88 -455h439l-30 -152
h-612q-60 -5 -99 -5z" />
    <glyph glyph-name="oe" unicode="&#x153;" 
d="M1070 788q0 181 -112 181q-73 0 -132 -86.5t-92 -241.5h324q12 86 12 147zM573 789q0 180 -117 180q-84 0 -143.5 -88.5t-101.5 -273t-42 -302.5q0 -192 115 -192q89 0 148.5 94.5t100 284t40.5 297.5zM683 307q0 -192 114 -192q66 0 113.5 47t76.5 119l129 -45
q-114 -256 -343 -256q-182 0 -227 183q-118 -183 -302 -183q-115 0 -178.5 81t-63.5 227t38 311.5t130.5 334t289.5 168.5q196 0 241 -177q119 177 293 177q236 0 236 -315q0 -115 -29 -260l-4 -24h-492q-22 -110 -22 -196z" />
    <glyph glyph-name="Racute" unicode="&#x154;" 
d="M1018 1026q0 170 -266 170h-272l-91 -470h280q111 0 191 40t119 112t39 148zM801 1349q209 0 311 -76t103 -213q1 -104 -51 -205t-151 -169t-225 -89l284 -597h-220l-254 575h-238l-112 -575h-191l262 1349h482zM650 1446l4 20l274 239h197l-6 -29l-345 -230h-124z" />
    <glyph glyph-name="racute" unicode="&#x155;" 
d="M910 937q-160 0 -283 -121t-159 -308l-99 -508h-180l136 701q25 136 25 289l-3 92h171q6 -50 6 -122t-6 -128h5q73 113 131 165q116 105 294 105q106 0 203 -17l-33 -167q-107 19 -208 19zM619 1201l4 20l274 239h197l-6 -29l-345 -230h-124z" />
    <glyph glyph-name="Rcommaaccent" unicode="&#x156;" 
d="M1018 1026q0 170 -266 170h-272l-91 -470h280q111 0 191 40t119 112t39 148zM801 1349q209 0 311 -76t103 -213q1 -104 -51 -205t-151 -169t-225 -89l284 -597h-220l-254 575h-238l-112 -575h-191l262 1349h482zM285 -423l6 33l136 292h197l-7 -37l-227 -288h-105z" />
    <glyph glyph-name="rcommaaccent" unicode="&#x157;" 
d="M910 937q-160 0 -283 -121t-159 -308l-99 -508h-180l136 701q25 136 25 289l-3 92h171q6 -50 6 -122t-6 -128h5q73 113 131 165q116 105 294 105q106 0 203 -17l-33 -167q-107 19 -208 19zM16 -423l6 33l136 292h197l-7 -37l-227 -288h-105z" />
    <glyph glyph-name="Rcaron" unicode="&#x158;" 
d="M1018 1026q0 170 -266 170h-272l-91 -470h280q111 0 191 40t119 112t39 148zM801 1349q209 0 311 -76t103 -213q1 -104 -51 -205t-151 -169t-225 -89l284 -597h-220l-254 575h-238l-112 -575h-191l262 1349h482zM857 1446h-164l-207 239l4 20h104l205 -138h2l246 138h105
l-4 -20z" />
    <glyph glyph-name="rcaron" unicode="&#x159;" 
d="M910 937q-160 0 -283 -121t-159 -308l-99 -508h-180l136 701q25 136 25 289l-3 92h171q6 -50 6 -122t-6 -128h5q73 113 131 165q116 105 294 105q106 0 203 -17l-33 -167q-107 19 -208 19zM849 1201h-164l-207 239l4 20h104l205 -138h2l246 138h105l-4 -20z" />
    <glyph glyph-name="Sacute" unicode="&#x15a;" 
d="M540 129q154 -1 248 61t117 177l5 45q0 102 -115 156q-55 26 -205 65q-150 40 -205 67q-157 77 -157 223q0 203 143 325t381 122t335 -75t106 -249l-194 -33q-2 111 -63 162t-189 51q-281 0 -324 -213l-4 -41q0 -84 87 -128q41 -21 212 -67q172 -46 240 -84
q146 -81 146 -238q0 -95 -41 -187t-119 -156q-162 -132 -443 -132q-457 0 -461 358l192 37q2 -127 78 -187t230 -59zM698 1446l4 20l274 239h197l-6 -29l-345 -230h-124z" />
    <glyph glyph-name="sacute" unicode="&#x15b;" 
d="M927 824q0 141 -221 141q-138 0 -208 -48t-70 -133q0 -46 36 -76t121 -51q221 -58 279 -84q157 -70 157 -215q0 -96 -63 -188t-179 -141t-294 -49t-273 64t-102 204l165 31q3 -89 59 -127t206 -38t227 55t77 146q0 49 -42 82t-136 59l-116 31q-132 35 -186 65
q-112 62 -112 176q0 72 33 144t95 123q127 104 328 104q385 0 385 -260l-166 -20v5zM616 1201l4 20l274 239h197l-6 -29l-345 -230h-124z" />
    <glyph glyph-name="Scircumflex" unicode="&#x15c;" 
d="M540 129q154 -1 248 61t117 177l5 45q0 102 -115 156q-55 26 -205 65q-150 40 -205 67q-157 77 -157 223q0 203 143 325t381 122t335 -75t106 -249l-194 -33q-2 111 -63 162t-189 51q-281 0 -324 -213l-4 -41q0 -84 87 -128q41 -21 212 -67q172 -46 240 -84
q146 -81 146 -238q0 -95 -41 -187t-119 -156q-162 -132 -443 -132q-457 0 -461 358l192 37q2 -127 78 -187t230 -59zM1129 1466l-4 -20h-105l-192 138h-2l-259 -138h-104l4 20l301 239h164z" />
    <glyph glyph-name="scircumflex" unicode="&#x15d;" 
d="M927 824q0 141 -221 141q-138 0 -208 -48t-70 -133q0 -46 36 -76t121 -51q221 -58 279 -84q157 -70 157 -215q0 -96 -63 -188t-179 -141t-294 -49t-273 64t-102 204l165 31q3 -89 59 -127t206 -38t227 55t77 146q0 49 -42 82t-136 59l-116 31q-132 35 -186 65
q-112 62 -112 176q0 72 33 144t95 123q127 104 328 104q385 0 385 -260l-166 -20v5zM1092 1221l-4 -20h-105l-192 138h-2l-259 -138h-104l4 20l301 239h164z" />
    <glyph glyph-name="Scedilla" unicode="&#x15e;" 
d="M664 -222q0 -59 -34 -113q-68 -109 -280 -109q-57 0 -90 4l20 98q48 -6 84 -6q146 0 164 86l2 18q0 64 -119 64q-43 0 -57 -2l90 163q-400 22 -404 357l192 37q2 -127 78 -187t230 -59q154 -1 248 61t117 177l5 45q0 102 -115 156q-55 26 -205 65q-150 40 -205 67
q-157 77 -157 223q0 203 143 325t381 122t335 -75t106 -249l-194 -33q-2 111 -63 162t-189 51q-281 0 -324 -213l-4 -41q0 -84 87 -128q41 -21 212 -67q172 -46 240 -84q146 -81 146 -238q0 -95 -41 -187q-82 -184 -307 -254q-92 -29 -206 -33l-47 -81q161 -4 161 -122z" />
    <glyph glyph-name="scedilla" unicode="&#x15f;" 
d="M674 -222q0 -59 -34 -113q-68 -109 -280 -109q-57 0 -90 4l20 98q48 -6 84 -6q146 0 164 86l2 18q0 64 -119 64q-43 0 -57 -2l90 163q-161 8 -249 67t-95 200l165 31q3 -89 59 -127t206 -38t227 55t77 146q0 49 -42 82t-136 59l-116 31q-132 35 -186 65q-112 62 -112 176
q0 72 33 144t95 123q127 104 328 104q385 0 385 -260l-166 -20v5q0 141 -221 141q-138 0 -208 -48t-70 -133q0 -46 36 -76t121 -51q221 -58 279 -84q157 -70 157 -215q0 -96 -63 -188t-170 -137t-228 -52l-47 -81q161 -4 161 -122z" />
    <glyph glyph-name="Scaron" unicode="&#x160;" 
d="M540 129q154 -1 248 61t117 177l5 45q0 102 -115 156q-55 26 -205 65q-150 40 -205 67q-157 77 -157 223q0 203 143 325t381 122t335 -75t106 -249l-194 -33q-2 111 -63 162t-189 51q-281 0 -324 -213l-4 -41q0 -84 87 -128q41 -21 212 -67q172 -46 240 -84
q146 -81 146 -238q0 -95 -41 -187t-119 -156q-162 -132 -443 -132q-457 0 -461 358l192 37q2 -127 78 -187t230 -59zM876 1445h-164l-207 239l4 20h104l205 -138h2l246 138h105l-4 -20z" />
    <glyph glyph-name="scaron" unicode="&#x161;" 
d="M927 824q0 141 -221 141q-138 0 -208 -48t-70 -133q0 -46 36 -76t121 -51q221 -58 279 -84q157 -70 157 -215q0 -96 -63 -188t-179 -141t-294 -49t-273 64t-102 204l165 31q3 -89 59 -127t206 -38t227 55t77 146q0 49 -42 82t-136 59l-116 31q-132 35 -186 65
q-112 62 -112 176q0 72 33 144t95 123q127 104 328 104q385 0 385 -260l-166 -20v5zM834 1201h-164l-207 239l4 20h104l205 -138h2l246 138h105l-4 -20z" />
    <glyph glyph-name="Tcommaaccent" unicode="&#x162;" 
d="M836 1193l-232 -1193h-190l232 1193h-443l30 156h1076l-30 -156h-443zM259 -423l6 33l136 292h197l-7 -37l-227 -288h-105z" />
    <glyph glyph-name="tcommaaccent" unicode="&#x163;" 
d="M641 133q133 0 303 34l-26 -137q-176 -46 -330 -46t-222 50q-69 50 -69 155q0 45 8 80l131 671h-168l27 142h170l113 282h120l-55 -282h432l-27 -142h-432l-127 -652l-5 -44q0 -111 157 -111zM293 -423l6 33l136 292h197l-7 -37l-227 -288h-105z" />
    <glyph glyph-name="Tcaron" unicode="&#x164;" 
d="M836 1193l-232 -1193h-190l232 1193h-443l30 156h1076l-30 -156h-443zM877 1446h-164l-207 239l4 20h104l205 -138h2l246 138h105l-4 -20z" />
    <glyph glyph-name="tcaron" unicode="&#x165;" 
d="M552 133q133 0 303 34l-26 -137q-175 -46 -329 -46t-223 50t-69 155q0 45 8 80l131 671h-168l27 142h170l113 282h120l-55 -282h432l-27 -142h-432l-127 -652l-5 -44q0 -111 157 -111zM1065 1159l7 33l135 292h197l-7 -37l-227 -288h-105z" />
    <glyph glyph-name="Tbar" unicode="&#x166;" 
d="M836 1193l-83 -424h240l-28 -149h-240l-121 -620h-190l121 620h-240l28 149h240l83 424h-443l30 156h1076l-30 -156h-443z" />
    <glyph glyph-name="tbar" unicode="&#x167;" 
d="M651 133q133 0 303 34l-26 -137q-176 -46 -330 -46t-222.5 49.5t-68.5 155.5q0 17 1.5 36t54.5 290h-168l26 132h168l57 293h-168l27 142h170l113 282h120l-55 -282h432l-27 -142h-432l-57 -293h432l-26 -132h-432l-44 -227l-5 -44q0 -111 157 -111z" />
    <glyph glyph-name="Utilde" unicode="&#x168;" 
d="M496 -20q-202 0 -294 78t-92 243q0 77 19 171l170 877h191l-165 -851q-20 -102 -20 -187q1 -85 51 -131t190 -45q140 0 220 82t123 294l163 838h190l-167 -859q-52 -266 -189 -388t-390 -122zM958 1446q-52 0 -91 18q-38 18 -74 42q-37 22 -71 40t-70 19t-60 -23t-49 -96
h-111q42 136 104 192t136 56t168 -60q36 -22 70 -40t70 -19t61 27t45 92h112q-32 -98 -64 -146t-78 -75t-98 -27z" />
    <glyph glyph-name="utilde" unicode="&#x169;" 
d="M780 0q0 21 28 185h-3q-83 -113 -175 -159t-225 -46q-132 0 -201 58t-69 185q0 60 15 138l140 721h180l-133 -686q-14 -72 -14 -140q1 -68 43 -102q42 -35 157 -35t207 90t121 246l122 627h181l-165 -851q-10 -50 -21 -113q-10 -63 -14 -87t-4 -31h-170zM910 1201
q-52 1 -91 19q-38 18 -74 40q-37 22 -71 42q-34 18 -70 18t-60 -24t-49 -95h-111q42 137 104 193t136 55q74 1 168 -59q36 -22 70 -42q34 -18 70 -18t61 28t45 91h112q-32 -97 -64 -145t-78 -76q-46 -27 -98 -27z" />
    <glyph glyph-name="Umacron" unicode="&#x16a;" 
d="M496 -20q-202 0 -294 78t-92 243q0 77 19 171l170 877h191l-165 -851q-20 -102 -20 -187q1 -85 51 -131t190 -45q140 0 220 82t123 294l163 838h190l-167 -859q-52 -266 -189 -388t-390 -122zM1077 1503h-551l25 127h551z" />
    <glyph glyph-name="umacron" unicode="&#x16b;" 
d="M780 0q0 21 28 185h-3q-83 -113 -175 -159t-225 -46q-132 0 -201 58t-69 185q0 60 15 138l140 721h180l-133 -686q-14 -72 -14 -140q1 -68 43 -102q42 -35 157 -35t207 90t121 246l122 627h181l-165 -851q-10 -50 -21 -113q-10 -63 -14 -87t-4 -31h-170zM1025 1236h-551
l25 127h551z" />
    <glyph glyph-name="Ubreve" unicode="&#x16c;" 
d="M496 -20q-202 0 -294 78t-92 243q0 77 19 171l170 877h191l-165 -851q-20 -102 -20 -187q1 -85 51 -131t190 -45q140 0 220 82t123 294l163 838h190l-167 -859q-52 -266 -189 -388t-390 -122zM814 1572q151 0 213 133h127q-49 -123 -145 -191t-218 -68q-123 0 -193 69
t-70 184v6h127q8 -133 159 -133z" />
    <glyph glyph-name="ubreve" unicode="&#x16d;" 
d="M780 0q0 21 28 185h-3q-83 -113 -175 -159t-225 -46q-132 0 -201 58t-69 185q0 60 15 138l140 721h180l-133 -686q-14 -72 -14 -140q1 -68 43 -102q42 -35 157 -35t207 90t121 246l122 627h181l-165 -851q-10 -50 -21 -113q-10 -63 -14 -87t-4 -31h-170zM766 1327
q151 0 213 133h127q-49 -122 -145 -190t-218 -69q-123 0 -193 69t-70 184v6h127q8 -133 159 -133z" />
    <glyph glyph-name="Uring" unicode="&#x16e;" 
d="M496 -20q-202 0 -294 78t-92 243q0 77 19 171l170 877h191l-165 -851q-20 -102 -20 -187q1 -85 51 -131t190 -45q140 0 220 82t123 294l163 838h190l-167 -859q-52 -266 -189 -388t-390 -122zM924 1516q0 73 -106 73q-62 0 -100 -28q-38 -29 -39 -65q0 -74 107 -74
q62 0 100 29t38 65zM756 1306q-88 0 -144 44t-56 110q0 67 35 124t101 89t156 32q88 0 144 -42t56 -112q0 -71 -37 -127t-102 -87t-153 -31z" />
    <glyph glyph-name="uring" unicode="&#x16f;" 
d="M780 0q0 21 28 185h-3q-83 -113 -175 -159t-225 -46q-132 0 -201 58t-69 185q0 60 15 138l140 721h180l-133 -686q-14 -72 -14 -140q1 -68 43 -102q42 -35 157 -35t207 90t121 246l122 627h181l-165 -851q-10 -50 -21 -113q-10 -63 -14 -87t-4 -31h-170zM893 1358
q0 73 -106 73q-63 0 -101 -28q-38 -29 -38 -65q0 -74 107 -74q63 0 101 29t37 65zM724 1148q-88 0 -144 44t-55 110q0 67 35 124q36 57 102 89t154 32t145 -42q56 -42 56 -112q0 -71 -37 -127t-102 -87q-66 -31 -154 -31z" />
    <glyph glyph-name="Uhungarumlaut" unicode="&#x170;" 
d="M496 -20q-202 0 -294 78t-92 243q0 77 19 171l170 877h191l-165 -851q-20 -102 -20 -187q1 -85 51 -131t190 -45q140 0 220 82t123 294l163 838h190l-167 -859q-52 -266 -189 -388t-390 -122zM517 1446l4 20l254 239h187l-6 -29l-345 -230h-94zM881 1446l4 20l254 239
h187l-6 -29l-345 -230h-94z" />
    <glyph glyph-name="uhungarumlaut" unicode="&#x171;" 
d="M780 0q0 21 28 185h-3q-83 -113 -175 -159t-225 -46q-132 0 -201 58t-69 185q0 60 15 138l140 721h180l-133 -686q-14 -72 -14 -140q1 -68 43 -102q42 -35 157 -35t207 90t121 246l122 627h181l-165 -851q-10 -50 -21 -113q-10 -63 -14 -87t-4 -31h-170zM475 1201l4 20
l254 239h187l-6 -29l-345 -230h-94zM839 1201l4 20l254 239h187l-6 -29l-345 -230h-94z" />
    <glyph glyph-name="Uogonek" unicode="&#x172;" 
d="M110 301q0 77 19 171l170 877h191l-165 -851q-20 -102 -20 -187q1 -85 51 -131t190 -45q140 0 220 82t123 294l163 838h190l-167 -859q-52 -266 -189 -388q-81 -72 -203 -102q-83 -42 -138 -116t-55 -134q0 -67 78 -67q55 0 120 24l-21 -107q-67 -27 -151 -27
q-84 1 -128 39t-45 111q0 73 52 143t121 114h-20q-202 0 -294 78t-92 243z" />
    <glyph glyph-name="uogonek" unicode="&#x173;" 
d="M405 -20q-132 0 -201 58t-69 185q0 60 15 138l140 721h180l-133 -686q-14 -72 -14 -140q1 -68 43 -102q42 -35 157 -35t207 90t121 246l122 627h181l-165 -851q-10 -50 -21 -113q-10 -63 -14 -87t-4 -31h-37q-83 -42 -138 -116t-55 -134q0 -67 78 -67q55 0 120 24
l-21 -107q-67 -27 -151 -27q-84 1 -128 39t-45 111t57 151t150 126q0 21 28 185h-3q-83 -113 -175 -159t-225 -46z" />
    <glyph glyph-name="Wcircumflex" unicode="&#x174;" 
d="M259 168q119 284 345 763h175q21 -277 33 -425t16 -338l102 346l266 835h189l-472 -1349h-208l-32 432q-5 59 -15 324q-73 -177 -344 -756h-208l51 1349h189l-53 -835q-13 -165 -34 -346zM1120 1466l-4 -20h-105l-192 138h-2l-259 -138h-104l4 20l301 239h164z" />
    <glyph glyph-name="wcircumflex" unicode="&#x175;" 
d="M913 0h-204l-51 471l-18 202l-66 -139l-272 -534h-203l27 1082h178l-25 -607q-3 -57 -13 -175t-17 -151l100 214l217 424h193l47 -425l14 -213q8 43 98 326l219 607h176zM1073 1221l-4 -20h-105l-192 138h-2l-259 -138h-104l4 20l301 239h164z" />
    <glyph glyph-name="Ycircumflex" unicode="&#x176;" 
d="M603 0h-188l114 584l-336 765h205l255 -611l491 611h205l-632 -765zM1120 1466l-4 -20h-105l-192 138h-2l-259 -138h-104l4 20l301 239h164z" />
    <glyph glyph-name="ycircumflex" unicode="&#x177;" 
d="M104 -425q-72 0 -121 11l26 135q36 -6 99 -6t144 59t154 188l27 49l-262 1071h192l140 -642q48 -214 48 -254q10 22 63 110l462 786h190l-666 -1082q-140 -242 -252 -334t-244 -91zM1073 1221l-4 -20h-105l-192 138h-2l-259 -138h-104l4 20l301 239h164z" />
    <glyph glyph-name="Ydieresis" unicode="&#x178;" 
d="M603 0h-188l114 584l-336 765h205l255 -611l491 611h205l-632 -765zM512 1445l36 184h165l-36 -184h-165zM906 1445l36 184h163l-36 -184h-163z" />
    <glyph glyph-name="Zacute" unicode="&#x179;" 
d="M1050 0h-1082l28 143l1022 1050h-745l30 156h962l-27 -139l-1023 -1054h865zM680 1446l4 20l274 239h197l-6 -29l-345 -230h-124z" />
    <glyph glyph-name="zacute" unicode="&#x17a;" 
d="M42 0l27 137l837 806h-641l27 139h844l-26 -137l-839 -806h719l-27 -139h-921zM615 1201l4 20l274 239h197l-6 -29l-345 -230h-124z" />
    <glyph glyph-name="Zdotaccent" unicode="&#x17b;" 
d="M1050 0h-1082l28 143l1022 1050h-745l30 156h962l-27 -139l-1023 -1054h865zM704 1446l37 192h200l-37 -192h-200z" />
    <glyph glyph-name="zdotaccent" unicode="&#x17c;" 
d="M42 0l27 137l837 806h-641l27 139h844l-26 -137l-839 -806h719l-27 -139h-921zM658 1292l37 192h200l-37 -192h-200z" />
    <glyph glyph-name="Zcaron" unicode="&#x17d;" 
d="M1050 0h-1082l28 143l1022 1050h-745l30 156h962l-27 -139l-1023 -1054h865zM886 1445h-164l-207 239l4 20h104l205 -138h2l246 138h105l-4 -20z" />
    <glyph glyph-name="zcaron" unicode="&#x17e;" 
d="M42 0l27 137l837 806h-641l27 139h844l-26 -137l-839 -806h719l-27 -139h-921zM830 1201h-164l-207 239l4 20h104l205 -138h2l246 138h105l-4 -20z" />
    <glyph glyph-name="longs" unicode="&#x17f;" 
d="M1001 1484q164 0 277 -21l-28 -145q-29 5 -121 11t-136 6q-149 0 -214 -54t-92 -189l-212 -1092h-180l215 1107q40 204 152.5 290.5t338.5 86.5z" />
    <glyph glyph-name="uni0180" unicode="&#x180;" 
d="M926 730q0 126 -48 180.5t-160 54.5t-196 -80t-131.5 -240.5t-47.5 -288.5t54 -185.5t170 -57.5t191.5 78.5t121.5 245.5t46 293zM589 -20q-244 0 -298 184h-2q-15 -77 -27.5 -118.5t-13.5 -45.5h-174q8 25 49 223l191 983h-127l26 131h126l29 147h180l-29 -147h306
l-26 -131h-305q-29 -150 -62 -302h4q130 200 373 200q306 0 306 -343q0 -94 -24 -215q-56 -284 -184.5 -425t-317.5 -141z" />
    <glyph glyph-name="uni0181" unicode="&#x181;" 
d="M972 1036q0 85 -67 122.5t-201 37.5h-123l-81 -416h125q171 0 259 65t88 191zM937 437q0 194 -314 194h-152l-93 -478h166q393 0 393 284zM1128 435q0 -203 -161.5 -319t-437.5 -116h-372l234 1201q-90 0 -132.5 -44t-42.5 -144l2 -56l-158 -17l-1 25v25q0 165 96.5 262
t264.5 97h312q439 0 439 -270q0 -138 -90 -237t-245 -131q137 -15 214.5 -88t77.5 -188z" />
    <glyph glyph-name="uni0182" unicode="&#x182;" 
d="M982 442q0 181 -288 181h-299l-92 -472h307q164 0 253 56t113 180q6 30 6 55zM608 0h-525l262 1349h918l-30 -156h-727l-80 -410h322q210 0 320 -78t110 -217t-70 -253q-70 -115 -200 -175t-300 -60z" />
    <glyph glyph-name="uni0183" unicode="&#x183;" 
d="M926 730q0 126 -48 180.5t-160 54.5t-196 -80t-131.5 -240.5t-47.5 -288.5t54 -185.5t170 -57.5t191.5 78.5t121.5 245.5t46 293zM589 -20q-244 0 -298 184h-2q-15 -77 -27.5 -118.5t-13.5 -45.5h-174q8 25 49 223l245 1261h734l-30 -159h-555l-51 -264l-34 -157h4
q130 200 373 200q306 0 306 -343q0 -94 -24 -215q-56 -284 -184.5 -425t-317.5 -141z" />
    <glyph glyph-name="uni0184" unicode="&#x184;" 
d="M956 432q0 191 -288 191h-299l-92 -472h307q193 0 282.5 69t89.5 212zM1152 473q0 -146 -69.5 -252.5t-199.5 -163.5t-301 -57h-525l185 951l-126 165l6 33l332 200h56l-110 -566h322q207 0 318.5 -82t111.5 -228z" />
    <glyph glyph-name="uni0185" unicode="&#x185;" 
d="M926 730q0 126 -48 180.5t-160 54.5t-196 -80t-131.5 -240.5t-47.5 -288.5t54 -185.5t170 -57.5t191.5 78.5t121.5 245.5t46 293zM809 1104q306 0 306 -343q0 -94 -24 -215q-56 -284 -184.5 -425t-317.5 -141q-244 0 -298 184h-2q-15 -77 -27.5 -118.5t-13.5 -45.5h-174
q8 25 49 223l168 863l-93 180l7 33l292 185h51l-82 -423l-34 -157h4q130 200 373 200z" />
    <glyph glyph-name="uni0186" unicode="&#x186;" 
d="M741 1370q428 0 428 -504q0 -254 -88 -462t-248.5 -316t-371.5 -108q-331 0 -411 372l172 65q26 -140 94.5 -211t172.5 -71q303 0 391 252.5t88 481.5q0 345 -258 345q-102 0 -194 -65.5t-151 -178.5l-155 65q193 335 531 335z" />
    <glyph glyph-name="uni0187" unicode="&#x187;" 
d="M316 452q0 -317 266 -317q210 0 377 282l146 -65q-223 -372 -555 -372q-212 0 -323 118.5t-111 348.5q0 165 104 544t590 379q176 0 279 -94q29 137 113.5 215.5t203.5 78.5q53 0 117 -15l-31 -157q-40 18 -98 18q-124 0 -148 -148l-40 -237l-175 -61
q-18 119 -84.5 181.5t-170.5 62.5t-186.5 -52t-141.5 -158.5t-95.5 -268.5t-36.5 -283z" />
    <glyph glyph-name="uni0188" unicode="&#x188;" 
d="M754 1102q160 0 262 -81q31 126 112 194t195 68q49 0 97 -12l-29 -150q-33 16 -87 16q-110 0 -139 -148l-41 -210l-194 -14v3q0 88 -53 140.5t-163 52.5t-182 -39t-121.5 -117.5t-79.5 -206t-30 -242.5t60 -176t174 -61q240 0 315 215l188 -12q-53 -155 -195.5 -248.5
t-332.5 -93.5t-294 99t-104 290q0 127 41.5 270.5t124 249.5t199.5 159.5t277 53.5z" />
    <glyph glyph-name="uni0189" unicode="&#x189;" 
d="M440 156q382 0 501 441q40 148 40 268q-1 173 -95 251t-285 77h-121l-87 -447h289l-29 -149h-289l-86 -441h162zM630 1349q545 0 545 -459q0 -158 -54 -335t-152 -301q-200 -254 -542 -254h-370l116 597h-135l29 149h135l117 603h311z" />
    <glyph glyph-name="uni018A" unicode="&#x18a;" 
d="M981 834q0 188 -95 273.5t-285 85.5h-21l-201 -1037h62q258 0 399 178t141 500zM1176 854q0 -257 -90.5 -451t-261 -298.5t-397.5 -104.5h-270l234 1201q-90 0 -132.5 -44t-42.5 -144l2 -56l-158 -17l-1 25v25q0 165 96.5 262t264.5 97h211q545 0 545 -495z" />
    <glyph glyph-name="uni018B" unicode="&#x18b;" 
d="M213 337q0 -97 68.5 -141.5t211.5 -44.5h307l92 472h-299q-380 0 -380 -286zM20 324q0 215 153.5 337t427.5 122h322l80 410h-727l30 156h918l-262 -1349h-525q-198 0 -307.5 85t-109.5 239z" />
    <glyph glyph-name="uni018C" unicode="&#x18c;" 
d="M886 726q0 240 -210 239q-102 0 -165 -42t-108 -131.5t-73.5 -227.5t-28.5 -241q0 -210 193 -210q127 0 210.5 79t132.5 244.5t49 289.5zM772 0v4q0 43 24 170h-5q-69 -105 -159 -152.5t-230 -47.5t-215 83.5t-75 253.5q0 96 24 221q111 566 502 566q121 0 194.5 -43
t103.5 -141h2l77 411h-553l31 159h733l-245 -1261q-27 -130 -37 -223h-172z" />
    <glyph glyph-name="uni018D" unicode="&#x18d;" 
d="M928 688q0 143 -55 212t-172 69q-193 0 -296 -140.5t-103 -412.5q0 -142 58.5 -213t166.5 -71q199 0 300 141.5t101 414.5zM1117 697q0 -316 -145 -497.5t-419 -199.5l294 -293l-26 -132h-776l28 145h519q-82 89 -176 176.5t-168 161.5t-105.5 151.5t-31.5 189.5
q0 328 162 515.5t451 187.5q393 0 393 -405z" />
    <glyph glyph-name="uni018E" unicode="&#x18e;" 
d="M2 0l30 156h769l90 461h-668l30 154h668l82 422h-728l30 156h919l-262 -1349h-960z" />
    <glyph glyph-name="uni018F" unicode="&#x18f;" 
d="M534 135q292 0 402 468h-623q-13 -89 -13 -183t46 -189.5t188 -95.5zM764 1370q415 0 415 -484q0 -271 -82.5 -476.5t-237 -317.5t-354.5 -112t-302 113t-102 331q0 113 28 253l16 80h821q13 86 13 180t-48.5 185.5t-201.5 91.5q-200 0 -331 -170l-128 90
q200 236 494 236z" />
    <glyph glyph-name="uni018F" unicode="&#x4d8;" 
d="M534 135q292 0 402 468h-623q-13 -89 -13 -183t46 -189.5t188 -95.5zM764 1370q415 0 415 -484q0 -271 -82.5 -476.5t-237 -317.5t-354.5 -112t-302 113t-102 331q0 113 28 253l16 80h821q13 86 13 180t-48.5 185.5t-201.5 91.5q-200 0 -331 -170l-128 90
q200 236 494 236z" />
    <glyph glyph-name="uni0190" unicode="&#x190;" 
d="M536 133q262 0 434 272l140 -77q-123 -188 -269.5 -268t-348.5 -80t-321 86.5t-119 239.5t108.5 264.5t286.5 135.5q-229 56 -229 243q0 116 72.5 213.5t199.5 152t304 54.5t285.5 -79t145.5 -255l-181 -65q-26 129 -102 186.5t-212 57.5t-228.5 -72.5t-92.5 -186.5
q0 -183 316 -183h71l-29 -148h-71q-447 0 -447 -285q0 -97 77 -151.5t210 -54.5z" />
    <glyph glyph-name="uni0191" unicode="&#x191;" 
d="M-77 -425q-63 0 -139 20l65 156q48 -17 84 -17q104 0 135 157l283 1458h891l-30 -156h-700l-96 -494h676l-31 -158h-677l-130 -671q-29 -144 -114.5 -219.5t-216.5 -75.5z" />
    <glyph glyph-name="florin" unicode="&#x192;" 
d="M1070 1369q81 0 156 -23l-67 -136q-57 19 -135 19t-121.5 -32.5t-79.5 -123.5l-54 -137h302l-51 -131h-303l-482 -1230h-180l482 1230h-252l53 131h251l58 152q65 153 167.5 217t255.5 64z" />
    <glyph glyph-name="uni0193" unicode="&#x193;" 
d="M316 495q0 -360 260 -360q67 0 143.5 20.5t130.5 53.5l66 336h-293l31 160h479l-111 -572q-263 -153 -476 -153q-214 0 -322 134t-108 378q0 416 177 647t510 231q186 0 283 -101q33 148 115.5 226.5t203.5 78.5q53 0 117 -15l-31 -157q-51 18 -103 18t-90 -35.5
t-53 -112.5l-45 -233l-182 -56q-36 231 -243 231q-291 0 -375 -242t-84 -477z" />
    <glyph glyph-name="uni0194" unicode="&#x194;" 
d="M388 -198q0 -77 69 -77q49 0 80 37t31 112t-41 210q-101 -145 -120 -197t-19 -85zM427 -425q-97 0 -151 54.5t-54 132.5t30.5 146.5t90.5 147.5l104 143l-285 1150h201l222 -969l594 969h201l-733 -1149q65 -182 74.5 -236.5t9.5 -110.5t-36.5 -125.5t-103.5 -111
t-164 -41.5z" />
    <glyph glyph-name="uni0195" unicode="&#x195;" 
d="M678 227q0 -110 80 -110q62 0 99.5 58.5t67.5 208.5l136 698h168l-139 -717q-76 -385 -358 -385q-227 0 -227 212q0 72 31 230t53 272t21 166q-2 102 -99 103q-69 0 -128.5 -87t-89.5 -238l-124 -638h-169l288 1484h169q-100 -513 -115 -557h3q114 175 258 175
q182 0 182 -200q0 -69 -18 -161l-69 -357q-20 -103 -20 -157z" />
    <glyph glyph-name="uni0196" unicode="&#x196;" 
d="M659 142h380l-28 -142h-982l28 142h422l233 1200h-289l27 142h469z" />
    <glyph glyph-name="uni0197" unicode="&#x197;" 
d="M359 1349h823l-30 -156h-316l-80 -410h207l-27 -141h-207l-95 -486h316l-30 -156h-823l30 156h316l95 486h-207l27 141h207l80 410h-316z" />
    <glyph glyph-name="uni0198" unicode="&#x198;" 
d="M615 1370q67 0 129 -15l-32 -165q-46 18 -103 18q-126 0 -155 -148l-79 -404l707 693h225l-610 -587l425 -762h-224l-357 627l-206 -178l-87 -449h-191l209 1074q28 142 118.5 219t230.5 77z" />
    <glyph glyph-name="uni0199" unicode="&#x199;" 
d="M711 1484q66 0 130 -15l-33 -165q-46 18 -112 18q-128 0 -157 -148l-120 -617l577 525h211l-529 -465l342 -617h-211l-269 499l-151 -98l-78 -401h-180l231 1188q28 142 118.5 219t230.5 77z" />
    <glyph glyph-name="uni019A" unicode="&#x19a;" 
d="M789 813h209l-27 -141h-209l-103 -530h380l-28 -142h-982l28 142h422l103 530h-226l27 141h226l103 529h-289l27 142h469z" />
    <glyph glyph-name="uni019B" unicode="&#x19b;" 
d="M957 1275l-172 -60l216 -1215h-190l-94 579q-19 101 -24 214q-20 -38 -53 -94.5t-444 -698.5h-187l638 970l-33 190l-196 -68l-23 118l202 69l-34 205h177l26 -147l168 57z" />
    <glyph glyph-name="uni019C" unicode="&#x19c;" 
d="M692 -20q-136 0 -168 167q-47 -76 -114 -121.5t-144 -45.5q-119 0 -172.5 62t-53.5 191q0 75 20 179l182 937h163l-179 -921q-19 -98 -19 -164t23.5 -97.5t89.5 -31.5q132 0 183 265l184 949h162l-181 -933q-18 -90 -18 -154t22 -95.5t74 -31.5q148 0 204 283l181 931
h162l-217 -1118q-23 -113 -36 -231h-138l18 134q-92 -154 -228 -154z" />
    <glyph glyph-name="uni019D" unicode="&#x19d;" 
d="M-109 -266q113 0 145 157l283 1458h223l306 -1138q11 146 36 274l168 864h172l-263 -1349h-230l-300 1130q-15 -167 -33 -254l-196 -1006q-58 -295 -321 -295q-71 0 -119 11l31 162q40 -14 98 -14z" />
    <glyph glyph-name="uni019E" unicode="&#x19e;" 
d="M815 1102q283 0 283 -254q0 -57 -14 -127l-223 -1146h-181l218 1120q11 58 11 98q1 88 -43 129t-152 41q-108 -1 -204 -91t-128 -245l-122 -627h-180l165 851q10 50 21 113q10 63 14 87t4 31h170q0 -42 -28 -185h3q147 205 386 205z" />
    <glyph glyph-name="uni019F" unicode="&#x19f;" 
d="M746 1214q-290 0 -400 -457h619q13 93 13 156q0 301 -232 301zM535 135q290 0 400 468h-618q-13 -82 -13 -157q0 -311 231 -311zM102 430q0 160 50 352q155 588 624 588q198 0 301 -110t103 -332q0 -155 -49 -346q-49 -192 -139 -328q-181 -274 -488 -274
q-202 0 -302 116t-100 334z" />
    <glyph glyph-name="Ohorn" unicode="&#x1a0;" 
d="M978 913q0 301 -232 301q-272 0 -357 -300.5t-85 -467.5q0 -311 231 -311q296 0 369.5 329.5t73.5 448.5zM102 430q0 161 102.5 550.5t571.5 389.5q333 0 391 -305q94 63 116 177h-88l32 167h196l-21 -106q-42 -209 -224 -321l2 -54q0 -155 -49 -346t-184.5 -396.5
t-442.5 -205.5q-203 0 -302.5 116.5t-99.5 333.5z" />
    <glyph glyph-name="ohorn" unicode="&#x1a1;" 
d="M928 736q0 233 -227 233q-257 0 -328.5 -230t-71.5 -366q0 -260 223 -260q288 0 346 257t58 366zM724 1102q393 0 393 -370v-7q108 69 132 196h-88l33 167h195l-21 -106q-47 -236 -257 -347q-4 -44 -14 -93q-52 -272 -205 -417t-392 -145q-188 0 -288 98.5t-100 288.5
q0 79 18 175q55 279 208.5 419.5t385.5 140.5z" />
    <glyph glyph-name="uni01A2" unicode="&#x1a2;" 
d="M628 1214q-105 0 -192 -98.5t-139 -272t-52 -349.5t48.5 -267.5t138.5 -91.5q62 0 107 32l195 1004q-36 43 -106 43zM388 -20q-162 0 -251 124.5t-89 367.5t78.5 453.5t219.5 327.5t316 117q125 0 225 -71l367 64h43l-347 -1787h-180l308 1587h-166l-211 -1088
q-151 -95 -313 -95z" />
    <glyph glyph-name="uni01A3" unicode="&#x1a3;" 
d="M609 969q-401 -1 -401 -567q0 -290 224 -289q66 0 124 22l157 814q-48 20 -104 20zM632 1102q161 0 268 -74l326 65h42l-295 -1518h-174l261 1343h-179l-166 -855q-138 -83 -316 -83t-279 103t-101 310q0 342 160 525.5t453 183.5z" />
    <glyph glyph-name="uni01A4" unicode="&#x1a4;" 
d="M1022 991q0 205 -285 205h-156l-103 -531h164q174 0 277 90t103 236zM1217 1029q0 -147 -73.5 -264t-205 -184t-299.5 -67h-191l-100 -514h-191l234 1201q-90 0 -132.5 -44t-42.5 -144l2 -56l-158 -17l-1 25v25q0 165 96.5 262t264.5 97h370q207 0 317 -86.5t110 -233.5z
" />
    <glyph glyph-name="uni01A5" unicode="&#x1a5;" 
d="M927 707q0 258 -194 258q-390 0 -390 -583q0 -140 54.5 -204.5t168.5 -64.5q174 0 267.5 154t93.5 440zM288 164q0 -18 -110 -589h-181l314 1613q59 296 346 296q54 0 92 -8l35 -8l-32 -166q-60 20 -112 20q-125 0 -154 -148l-52 -270h3q74 106 160 153t210 47
q308 0 308 -376q0 -232 -96 -490t-430 -258q-248 0 -296 184h-5z" />
    <glyph glyph-name="uni01A6" unicode="&#x1a6;" 
d="M989 863q0 180 -266 180h-272l-92 -470h280q165 0 257.5 77.5t92.5 212.5zM771 1196q209 0 311.5 -81t102.5 -223q0 -107 -53 -203t-151 -160.5t-227 -84.5l268 -763h-210l-238 741h-244l-82 -422h-191l262 1349h191l-30 -153h291z" />
    <glyph glyph-name="uni01A7" unicode="&#x1a7;" 
d="M57 297q0 238 151 330.5t318 131.5q167 38 240 55.5t163 63t90 176.5q0 172 -257 172t-344 -213l-177 33q78 170 211 247t340 77t311.5 -75t104.5 -232q0 -240 -169 -314.5t-301 -103.5t-310 -72.5t-178 -246.5q0 -96 75 -146.5t214 -50.5q295 0 393 246l173 -37
q-144 -358 -599 -358q-220 0 -334.5 82t-114.5 235z" />
    <glyph glyph-name="uni01A8" unicode="&#x1a8;" 
d="M285 263q0 -149 246 -149t321 165l149 -34q-61 -137 -180 -201t-322 -64q-386 0 -386 251q0 143 101.5 235.5t333.5 149.5q122 30 184 46t129 50.5t67 130.5q0 122 -220 122t-278 -146l-154 22q49 125 168.5 191.5t294.5 66.5q358 0 358 -239q0 -137 -99 -226t-339 -147
l-150 -37q-118 -28 -171 -72t-53 -115z" />
    <glyph glyph-name="uni01A9" unicode="&#x1a9;" 
d="M3 0l31 162l645 549l-428 477l31 161h999l-30 -156h-784l377 -415l-24 -124l-587 -498h877l-30 -156h-1077z" />
    <glyph glyph-name="uni01AA" unicode="&#x1aa;" 
d="M447 1294q0 -96 89 -96q58 0 95.5 36t37.5 84q0 96 -91 97q-53 0 -92 -36.5t-39 -84.5zM520 1119q-69 0 -111 41.5t-42 123.5t67.5 145.5t189.5 63.5t165 -63.5t43 -121.5t-9 -104l-258 -1328q-5 -27 -5 -48q0 -95 94 -95q54 0 109 13l-31 -158q-74 -13 -137 -13
q-109 0 -165 54.5t-56 152.5q0 40 10 89l248 1277q-43 -29 -112 -29z" />
    <glyph glyph-name="uni01AB" unicode="&#x1ab;" 
d="M484 231q0 -33 30 -65.5t145 -32.5t285 34l-60 -310q-56 -282 -308 -282q-66 0 -131 17l31 160q52 -18 106 -18q109 0 137 137l24 125q-94 -12 -169 -12q-162 0 -220 58.5t-58 145.5q0 37 9 81l130 671h-167l27 142h170l113 282h120l-55 -282h432l-27 -142h-432
l-127 -652q-5 -24 -5 -57z" />
    <glyph glyph-name="uni01AC" unicode="&#x1ac;" 
d="M444 1193q-92 0 -133 -38.5t-41 -141.5l3 -56l-159 -17v45q0 179 95 271.5t274 92.5h826l-30 -156h-443l-232 -1193h-190l232 1193h-202z" />
    <glyph glyph-name="uni01AD" unicode="&#x1ad;" 
d="M825 1498q66 0 117 -14l-32 -168q-51 20 -106 20q-113 0 -140 -148l-21 -106h432l-27 -142h-432l-127 -652q-5 -24 -5 -57t30 -65.5t145 -32.5t285 34l-26 -137q-176 -46 -341 -46t-223 58.5t-58 145.5q0 37 9 81l130 671h-167l27 142h176l21 110q27 148 111.5 227
t221.5 79z" />
    <glyph glyph-name="uni01AE" unicode="&#x1ae;" 
d="M575 -179q0 -30 12.5 -58.5t68.5 -28.5t110 16l-31 -158q-73 -17 -158 -17t-141.5 51.5t-56.5 150.5q0 39 8 82l259 1334h-443l30 156h1076l-30 -156h-443l-253 -1302q-8 -40 -8 -70z" />
    <glyph glyph-name="Uhorn" unicode="&#x1af;" 
d="M466 -20q-186 0 -271.5 76t-85.5 236q0 78 20 180l170 877h191l-165 -851q-22 -116 -22 -198t44.5 -123.5t147.5 -41.5q145 0 219 81t115 295l163 838h190l-64 -330q89 26 149 78t78 145h-88l33 167h195l-21 -106q-31 -153 -123.5 -250t-240.5 -128l-85 -435
q-53 -267 -182.5 -388.5t-366.5 -121.5z" />
    <glyph glyph-name="uhorn" unicode="&#x1b0;" 
d="M735 0q0 21 28 185h-3q-85 -114 -169.5 -159.5t-209.5 -45.5q-253 0 -253 233q0 64 17 148l140 721h180l-133 -686q-16 -84 -16 -148t38 -96.5t144 -32.5t191 87t117 249l122 627h181l-77 -396q88 34 133.5 86t63.5 143h-88l32 167h196l-21 -106q-29 -150 -109.5 -242
t-224.5 -141q-101 -523 -109 -593h-170z" />
    <glyph glyph-name="uni01B1" unicode="&#x1b1;" 
d="M270 457q0 -322 268 -322q134 0 234 72.5t152.5 203.5t52.5 302q0 263 -176 412l44 224h483l-31 -156h-200q-45 0 -159 11q108 -81 169 -214.5t61 -313.5t-85 -346t-238 -258.5t-348 -92.5t-309.5 124.5t-114.5 346.5t123.5 420.5t351.5 333.5q-121 -11 -163 -11h-200
l31 156h483l-44 -224q-189 -122 -287 -284.5t-98 -383.5z" />
    <glyph glyph-name="uni01B2" unicode="&#x1b2;" 
d="M1025 1031q0 180 -124 180q-62 0 -114 -10l24 157q70 12 147 12q134 0 197.5 -82t63.5 -228q0 -311 -92.5 -561t-255.5 -384.5t-369 -134.5t-298 83t-92 250q0 74 19 169l169 867h190l-165 -851q-17 -87 -17 -150q0 -109 50 -161t178 -52t243.5 116.5t180.5 323.5t65 456
z" />
    <glyph glyph-name="uni01B3" unicode="&#x1b3;" 
d="M1284 1370q121 0 213 -96l-110 -136q-61 69 -115 69t-85 -23t-60 -59l-447 -541l-113 -584h-188l113 584l-335 765h205l255 -611q253 316 382 474t285 158z" />
    <glyph glyph-name="uni01B4" unicode="&#x1b4;" 
d="M122 -425q-80 0 -129 11l26 135q36 -6 79 -6q165 0 314 253l26 44l-256 1070h185l139 -642q43 -213 48 -248h2q42 92 144 272l424 777q70 126 152 184.5t202 58.5t209 -93l-107 -128q-56 62 -128 62q-95 0 -174 -137l-670 -1188q-98 -171 -172 -256.5t-154 -127
t-160 -41.5z" />
    <glyph glyph-name="uni01B5" unicode="&#x1b5;" 
d="M165 757h428l425 436h-745l30 156h962l-27 -139l-440 -453h349l-26 -133h-452l-454 -468h865l-30 -156h-1082l28 143l467 481h-324z" />
    <glyph glyph-name="uni01B6" unicode="&#x1b6;" 
d="M180 617h387l339 326h-641l27 139h844l-26 -137l-342 -328h286l-26 -133h-398l-359 -345h719l-27 -139h-921l27 137l360 347h-275z" />
    <glyph glyph-name="uni01B7" unicode="&#x1b7;" 
d="M1080 279q0 -197 -90.5 -359t-252 -254t-354.5 -92q-270 0 -357.5 107t-123.5 239l177 75q34 -142 114.5 -207t214.5 -65t244.5 65t173 185t62.5 274q0 311 -415 311h-74l27 141l596 494h-775l31 156h988l-32 -161l-600 -489q446 -28 446 -420z" />
    <glyph glyph-name="uni01B8" unicode="&#x1b8;" 
d="M761 558q-372 0 -483 -178t-111 -336t82 -239.5t223 -81.5t248 64.5t198 207.5l147 -75q-119 -182 -272.5 -264t-363.5 -82t-332 115.5t-122 312.5t85 345t238 237.5t354 110.5l-408 493l31 161h988l-30 -156h-775l404 -494l-27 -141h-74z" />
    <glyph glyph-name="uni01B9" unicode="&#x1b9;" 
d="M629 411q-188 0 -305.5 -118.5t-117.5 -311.5q0 -128 63 -198.5t178 -70.5q273 0 358 252l174 -12q-58 -186 -203 -281.5t-346 -95.5t-305.5 102.5t-104.5 268.5t68 293t189.5 206.5t269.5 98.5l-311 362l34 176h873l-28 -141h-694l318 -386l-28 -144h-82z" />
    <glyph glyph-name="uni01BA" unicode="&#x1ba;" 
d="M450 -283q275 0 379 201l175 -19q-71 -156 -222 -240.5t-349 -84.5t-307 68t-109 191q0 172 139.5 241.5t304.5 108.5t256 77.5t91 126.5q0 63 -89.5 90.5t-274.5 27.5l27 139l414 298h-626l28 140h868l-24 -119l-458 -322q312 -26 312 -228q0 -161 -94 -215.5t-148 -74
t-211 -57.5t-243.5 -77.5t-86.5 -138.5q0 -63 64.5 -98t183.5 -35z" />
    <glyph glyph-name="uni01BB" unicode="&#x1bb;" 
d="M973 1048q0 174 -229 174q-109 0 -193.5 -59.5t-121.5 -178.5l-180 17q54 172 191.5 270.5t327.5 98.5t291.5 -76t101.5 -218q0 -98 -42.5 -173.5t-120.5 -145.5h149l-26 -133h-286l-159 -109q-193 -131 -280.5 -211t-134.5 -158h746l-28 -146h-940l23 117
q73 123 189.5 237.5t344.5 269.5h-457l26 133h617q191 141 191 291z" />
    <glyph glyph-name="uni01BC" unicode="&#x1bc;" 
d="M895 505q0 111 -73 170.5t-214 59.5h-219l89 458h-182l30 156h881l-30 -156h-515l-59 -303h68q200 0 307.5 -93t107.5 -257t-74.5 -291.5t-212 -198t-290.5 -70.5t-290 67.5t-137 297.5l183 21q17 -243 250 -243q170 0 275 105t105 277z" />
    <glyph glyph-name="uni01BD" unicode="&#x1bd;" 
d="M843 387q0 163 -269 163h-197l77 392h-212l27 140h860l-27 -140h-486l-50 -254h74q188 0 287.5 -71t99.5 -201t-61 -227.5t-176.5 -153t-293.5 -55.5t-278 81t-103 250l176 12v-5q0 -91 64.5 -148t194.5 -57t211.5 71t81.5 203z" />
    <glyph glyph-name="uni01BE" unicode="&#x1be;" 
d="M511 762q0 -42 37.5 -70t164.5 -60t224 -85.5t97 -189.5q0 -180 -134 -278.5t-368 -98.5t-340.5 65.5t-117.5 208.5l165 31q11 -87 85.5 -127.5t225.5 -40.5t227 48t76 158q0 77 -61 107t-206 68t-201.5 97t-56.5 155q0 39 9 86l22 115h-151l26 131h152l67 347l195 78
l-83 -425h245l-26 -131h-244q-29 -147 -29 -189z" />
    <glyph glyph-name="uni01BF" unicode="&#x1bf;" 
d="M934 730q0 116 -51.5 175.5t-148.5 59.5q-288 0 -367 -420l-102 -525q356 126 512.5 301t156.5 409zM1123 740q0 -182 -89.5 -341t-277 -286t-520.5 -240l-58 -298h-181l293 1507h169q-16 -133 -25 -179h4q131 201 361 201q157 0 240.5 -91t83.5 -273z" />
    <glyph glyph-name="uni01C0" unicode="&#x1c0;" 
d="M524 0v1484h180v-1484h-180z" />
    <glyph glyph-name="uni01C1" unicode="&#x1c1;" 
d="M693 0v1484h165v-1484h-165zM370 0v1484h165v-1484h-165z" />
    <glyph glyph-name="uni01C2" unicode="&#x1c2;" 
d="M130 1030h396v454h174v-454h398v-153h-398v-308h398v-153h-398v-416h-174v416h-396v153h396v308h-396v153z" />
    <glyph glyph-name="uni01C3" unicode="&#x1c3;" 
d="M410 0l39 201h194l-39 -201h-194zM661 397h-148l161 951h196z" />
    <glyph glyph-name="uni01C4" unicode="&#x1c4;" 
d="M1114 0h-562l28 142l584 1051h-307l30 156h489l-27 -138l-590 -1055h385zM549 906q0 287 -167 287h-4l-202 -1037h24q94 0 174.5 101.5t127.5 281.5t47 367zM721 939q0 -283 -71 -503t-199 -328t-302 -108h-165l262 1349h122q182 0 267.5 -99t85.5 -311zM947 1657l4 20
h104l126 -123h2l172 123h104l-4 -20l-212 -212h-166z" />
    <glyph glyph-name="uni01C5" unicode="&#x1c5;" 
d="M552 0l26 132l509 811h-312l27 139h485l-25 -132l-515 -811h394l-27 -139h-562zM549 906q0 287 -167 287h-4l-202 -1037h24q94 0 174.5 101.5t127.5 281.5t47 367zM721 939q0 -283 -71 -503t-199 -328t-302 -108h-165l262 1349h122q182 0 267.5 -99t85.5 -311zM865 1413
l4 20h104l126 -123h2l172 123h104l-4 -20l-213 -212h-166z" />
    <glyph glyph-name="uni01C6" unicode="&#x1c6;" 
d="M572 0l25 132l510 811h-312l27 139h485l-26 -132l-514 -811h384l-27 -139h-552zM182 308q0 -196 79 -195q68 0 155 131.5t87 533.5q0 187 -74 187t-132.5 -85t-86.5 -230.5t-28 -341.5zM176 -26q-163 0 -163 311q0 215 52.5 413.5t137.5 299t193 100.5q76 0 107.5 -32.5
t42.5 -111.5h2l102 530h159l-245 -1261l-33 -192l-5 -31h-152l-1 10q0 39 16 114h-5q-49 -87 -94 -118.5t-114 -31.5zM884 1413l4 20h104l126 -123h2l172 123h104l-4 -20l-212 -212h-166z" />
    <glyph glyph-name="uni01C7" unicode="&#x1c7;" 
d="M744 135q80 0 132 65.5t81 215.5l151 777h-191l30 156h353l-185 -954q-41 -212 -139 -313.5t-264 -101.5q-112 0 -185 40l84 154q53 -39 133 -39zM-16 0l262 1349h162l-232 -1193h312l-30 -156h-474z" />
    <glyph glyph-name="uni01C8" unicode="&#x1c8;" 
d="M1109 1292l37 192h181l-37 -192h-181zM-16 0l262 1349h162l-232 -1193h412l-30 -156h-574zM565 -425q-99 0 -185 22l28 145q84 -18 186 -18t178.5 65.5t99.5 185.5l188 965h-301l27 142h464l-216 -1110q-36 -186 -158 -291.5t-311 -105.5z" />
    <glyph glyph-name="uni01C9" unicode="&#x1c9;" 
d="M296 142h197l-28 -142h-570l28 142h211l233 1200h-211l27 142h373zM1046 1292l37 192h181l-37 -192h-181zM502 -425q-99 0 -185 22l28 145q83 -18 185 -18t179 65.5t100 185.5l188 965h-281l27 142h444l-216 -1110q-36 -186 -158 -291.5t-311 -105.5z" />
    <glyph glyph-name="uni01CA" unicode="&#x1ca;" 
d="M732 -20q-54 0 -104 13l32 161q42 -19 94 -19q81 0 128.5 70t74.5 211l151 777h-151l30 156h313l-185 -954q-41 -207 -133.5 -311t-249.5 -104zM495 470q0 23 31.5 224.5t122.5 654.5h160l-262 -1348h-165l-82 860h-6l-5 -36q-23 -157 -39.5 -254.5t-108.5 -569.5h-157
l262 1348h157l86 -879h6z" />
    <glyph glyph-name="uni01CB" unicode="&#x1cb;" 
d="M1108 1292l37 192h181l-37 -192h-181zM564 -425q-98 0 -186 22l29 145q83 -18 185 -18t179.5 66t100.5 185l188 965h-223l27 142h384l-216 -1110q-36 -188 -158.5 -292.5t-309.5 -104.5zM495 470q0 23 31.5 224.5t122.5 654.5h160l-262 -1348h-165l-82 860h-6
q-14 -122 -65 -405l-88 -455h-157l262 1348h157l86 -879h6z" />
    <glyph glyph-name="uni01CC" unicode="&#x1cc;" 
d="M583 1102q166 0 166 -205q0 -74 -20 -176l-140 -721h-162l135 695q17 88 17 149t-20 90t-65 29q-70 0 -133 -89.5t-94 -246.5l-122 -627h-161l165 851q10 50 20.5 113l14.5 87t4 31h149l-19 -127l-9 -48h2q106 195 272 195zM1108 1292l37 192h181l-37 -192h-181z
M564 -425q-99 0 -185 22l28 145q83 -18 185 -18t179.5 66t100.5 185l188 965h-202l27 142h364l-216 -1110q-36 -186 -158 -291.5t-311 -105.5z" />
    <glyph glyph-name="uni01CD" unicode="&#x1cd;" 
d="M745 1205q-92 -182 -363 -674h463l-76 500zM929 0l-64 382h-563l-211 -382h-196l772 1349h217l239 -1349h-194zM877 1445h-164l-208 239l4 20h104l205 -138h2l246 138h105l-4 -20z" />
    <glyph glyph-name="uni01CE" unicode="&#x1ce;" 
d="M265 251q1 -134 157 -134q84 -1 166 45q83 46 139 123t72 160l18 89l-191 -4q-136 -2 -210 -36t-112 -100t-39 -143zM708 1102q340 0 340 -267q0 -45 -10 -97l-90 -466q-9 -42 -9 -80q0 -80 79 -81q27 0 60 7l-22 -112q-70 -16 -150 -16q-152 0 -152 152l5 65h-6
q-89 -123 -189 -175t-230 -52t-196 62t-65 171q0 41 9 89q68 349 523 354l236 4q22 105 22 148q0 85 -46 121t-150 36q-103 1 -163 -39t-91 -133l-185 17q106 292 480 292zM820 1201h-164l-207 239l4 20h104l205 -138h2l246 138h105l-4 -20z" />
    <glyph glyph-name="uni01CF" unicode="&#x1cf;" 
d="M359 1349h823l-30 -156h-316l-202 -1037h316l-30 -156h-823l30 156h316l202 1037h-316zM877 1445h-164l-208 239l4 20h104l205 -138h2l246 138h105l-4 -20z" />
    <glyph glyph-name="uni01D0" unicode="&#x1d0;" 
d="M668 142h380l-28 -142h-982l28 142h422l155 798h-319l27 142h499zM832 1201h-164l-207 239l4 20h104l205 -138h2l246 138h105l-4 -20z" />
    <glyph glyph-name="uni01D1" unicode="&#x1d1;" 
d="M978 913q0 301 -232 301q-270 0 -384 -401q-58 -202 -58 -367q0 -311 231 -311q296 -1 406 493q37 166 37 285zM102 430q0 160 50 351t136 323q175 266 488 266q198 0 301 -110t103 -332q0 -155 -49 -346q-49 -192 -139 -328q-181 -274 -488 -274q-202 0 -302 116
t-100 334zM877 1445h-164l-208 239l4 20h104l205 -138h2l246 138h105l-4 -20z" />
    <glyph glyph-name="uni01D2" unicode="&#x1d2;" 
d="M928 736q0 233 -227 233q-257 0 -353 -307q-48 -153 -47 -289q0 -260 223 -260q288 -1 375 385q29 128 29 238zM724 1102q393 0 393 -370q0 -134 -42 -284t-123 -256q-162 -212 -452 -212q-188 0 -288 98t-100 289q0 79 18 175q54 280 208 420t386 140zM829 1201h-164
l-207 239l4 20h104l205 -138h2l246 138h105l-4 -20z" />
    <glyph glyph-name="uni01D3" unicode="&#x1d3;" 
d="M496 -20q-202 0 -294 78t-92 243q0 77 19 171l170 877h191l-165 -851q-20 -102 -20 -187q1 -85 51 -131t190 -45q140 0 220 82t123 294l163 838h190l-167 -859q-52 -266 -189 -388t-390 -122zM877 1445h-164l-208 239l4 20h104l205 -138h2l246 138h105l-4 -20z" />
    <glyph glyph-name="uni01D4" unicode="&#x1d4;" 
d="M785 0q0 21 28 185h-3q-84 -113 -176 -159t-224 -46t-201 58t-69 185q0 60 15 138l140 721h180l-133 -686q-14 -72 -14 -140t42 -102q42 -35 158 -35q115 0 207 90t121 246l122 627h181l-165 -851q-10 -50 -21 -113q-10 -63 -14 -87t-4 -31h-170zM829 1201h-164l-207 239
l4 20h104l205 -138h2l246 138h105l-4 -20z" />
    <glyph glyph-name="uni01D5" unicode="&#x1d5;" 
d="M496 -20q-202 0 -294 78t-92 243q0 77 19 171l170 877h191l-165 -851q-20 -102 -20 -187q1 -85 51 -131t190 -45q140 0 220 82t123 294l163 838h190l-167 -859q-52 -266 -189 -388t-390 -122zM1116 1708h-549l24 127h549zM494 1458l36 184h163l-36 -184h-163zM928 1458
l36 184h163l-36 -184h-163z" />
    <glyph glyph-name="uni01D6" unicode="&#x1d6;" 
d="M785 0q0 21 28 185h-3q-84 -113 -176 -159t-224 -46t-201 58t-69 185q0 60 15 138l140 721h180l-133 -686q-14 -72 -14 -140t42 -102q42 -35 158 -35q115 0 207 90t121 246l122 627h181l-165 -851q-10 -50 -21 -113q-10 -63 -14 -87t-4 -31h-170zM468 1219l36 184h165
l-36 -184h-165zM862 1219l36 184h163l-36 -184h-163zM1074 1515h-549l25 127h549z" />
    <glyph glyph-name="uni01D7" unicode="&#x1d7;" 
d="M496 -20q-202 0 -294 78t-92 243q0 77 19 171l170 877h191l-165 -851q-20 -102 -20 -187q1 -85 51 -131t190 -45q140 0 220 82t123 294l163 838h190l-167 -859q-52 -266 -189 -388t-390 -122zM492 1448l36 184h163l-36 -184h-163zM926 1448l36 184h163l-36 -184h-163z
M927 1835h226l-2 -12l-294 -171h-130l2 10z" />
    <glyph glyph-name="uni01D8" unicode="&#x1d8;" 
d="M785 0q0 21 28 185h-3q-84 -113 -176 -159t-224 -46t-201 58t-69 185q0 60 15 138l140 721h180l-133 -686q-14 -72 -14 -140t42 -102q42 -35 158 -35q115 0 207 90t121 246l122 627h181l-165 -851q-10 -50 -21 -113q-10 -63 -14 -87t-4 -31h-170zM468 1219l36 184h165
l-36 -184h-165zM862 1219l36 184h163l-36 -184h-163zM660 1481l4 20l274 239h197l-6 -29l-345 -230h-124z" />
    <glyph glyph-name="uni01D9" unicode="&#x1d9;" 
d="M496 -20q-202 0 -294 78t-92 243q0 77 19 171l170 877h191l-165 -851q-20 -102 -20 -187q1 -85 51 -131t190 -45q140 0 220 82t123 294l163 838h190l-167 -859q-52 -266 -189 -388t-390 -122zM491 1448l36 184h163l-36 -184h-163zM925 1448l36 184h163l-36 -184h-163z
M1016 1835h155l-2 -10l-241 -173h-195l-176 171l2 12h155l132 -97z" />
    <glyph glyph-name="uni01DA" unicode="&#x1da;" 
d="M785 0q0 21 28 185h-3q-84 -113 -176 -159t-224 -46t-201 58t-69 185q0 60 15 138l140 721h180l-133 -686q-14 -72 -14 -140t42 -102q42 -35 158 -35q115 0 207 90t121 246l122 627h181l-165 -851q-10 -50 -21 -113q-10 -63 -14 -87t-4 -31h-170zM468 1219l36 184h165
l-36 -184h-165zM862 1219l36 184h163l-36 -184h-163zM859 1481h-164l-207 239l4 20h104l205 -138h2l246 138h105l-4 -20z" />
    <glyph glyph-name="uni01DB" unicode="&#x1db;" 
d="M496 -20q-202 0 -294 78t-92 243q0 77 19 171l170 877h191l-165 -851q-20 -102 -20 -187q1 -85 51 -131t190 -45q140 0 220 82t123 294l163 838h190l-167 -859q-52 -266 -189 -388t-390 -122zM926 1448l36 184h163l-36 -184h-163zM492 1448l36 184h163l-36 -184h-163z
M936 1662l-2 -10h-130l-228 171l2 12h226z" />
    <glyph glyph-name="uni01DC" unicode="&#x1dc;" 
d="M785 0q0 21 28 185h-3q-84 -113 -176 -159t-224 -46t-201 58t-69 185q0 60 15 138l140 721h180l-133 -686q-14 -72 -14 -140t42 -102q42 -35 158 -35q115 0 207 90t121 246l122 627h181l-165 -851q-10 -50 -21 -113q-10 -63 -14 -87t-4 -31h-170zM468 1219l36 184h165
l-36 -184h-165zM862 1219l36 184h163l-36 -184h-163zM722 1481l-255 230l6 29h197l180 -239l-4 -20h-124z" />
    <glyph glyph-name="uni01DD" unicode="&#x1dd;" 
d="M526 113q134 0 228 87t130 241h-584l-4 -72q0 -256 230 -256zM926 700q0 129 -62 198t-170 69t-194 -44t-129 -122l-149 45q68 124 198 190t309 66t281 -100t102 -290q0 -124 -40 -268t-120 -250q-162 -214 -450 -214q-386 0 -386 379q0 91 21 196l4 24h772q13 69 13 121
z" />
    <glyph glyph-name="uni01DE" unicode="&#x1de;" 
d="M745 1205q-92 -182 -363 -674h463l-76 500zM929 0l-64 382h-563l-211 -382h-196l772 1349h217l239 -1349h-194zM1116 1708h-549l24 127h549zM494 1458l36 184h163l-36 -184h-163zM928 1458l36 184h163l-36 -184h-163z" />
    <glyph glyph-name="uni01DF" unicode="&#x1df;" 
d="M265 251q1 -134 157 -134q84 -1 166 45q83 46 139 123t72 160l18 89l-191 -4q-136 -2 -210 -36t-112 -100t-39 -143zM708 1102q340 0 340 -267q0 -45 -10 -97l-90 -466q-9 -42 -9 -80q0 -80 79 -81q27 0 60 7l-22 -112q-70 -16 -150 -16q-152 0 -152 152l5 65h-6
q-89 -123 -189 -175t-230 -52t-196 62t-65 171q0 41 9 89q68 349 523 354l236 4q22 105 22 148q0 85 -46 121t-150 36q-103 1 -163 -39t-91 -133l-185 17q106 292 480 292zM449 1200l36 184h165l-36 -184h-165zM843 1200l36 184h163l-36 -184h-163zM1048 1489h-549l25 127
h549z" />
    <glyph glyph-name="uni01E0" unicode="&#x1e0;" 
d="M745 1205q-92 -182 -363 -674h463l-76 500zM929 0l-64 382h-563l-211 -382h-196l772 1349h217l239 -1349h-194zM1116 1708h-549l25 127h549zM707 1468l36 184h163l-36 -184h-163z" />
    <glyph glyph-name="uni01E1" unicode="&#x1e1;" 
d="M265 251q1 -134 157 -134q84 -1 166 45q83 46 139 123t72 160l18 89l-191 -4q-136 -2 -210 -36t-112 -100t-39 -143zM708 1102q340 0 340 -267q0 -45 -10 -97l-90 -466q-9 -42 -9 -80q0 -80 79 -81q27 0 60 7l-22 -112q-70 -16 -150 -16q-152 0 -152 152l5 65h-6
q-89 -123 -189 -175t-230 -52t-196 62t-65 171q0 41 9 89q68 349 523 354l236 4q22 105 22 148q0 85 -46 121t-150 36q-103 1 -163 -39t-91 -133l-185 17q106 292 480 292zM661 1273l37 192h200l-37 -192h-200zM1064 1489h-549l25 127h549z" />
    <glyph glyph-name="uni01E2" unicode="&#x1e2;" 
d="M775 1202h-73l-119 -240l-217 -401h284zM621 412h-335l-222 -412h-168l748 1349h667l-29 -152h-337l-84 -430h327l-29 -150h-327l-90 -465h378l-30 -152h-549zM1191 1503h-551l25 127h551z" />
    <glyph glyph-name="uni01E3" unicode="&#x1e3;" 
d="M1073 776q0 193 -131 193q-80 1 -144 -87t-97 -241h361q11 86 11 135zM135 230q0 -113 86 -113q93 0 171 95t106 233l18 89l-123 -4q-95 -3 -148 -40t-81 -112t-29 -148zM489 1102q178 0 220 -139q111 139 273 139q252 0 252 -321q0 -111 -29 -254l-4 -24h-529
q-22 -93 -22 -190q0 -198 131 -198q75 0 129 47t84 119l129 -45q-119 -256 -364 -256q-121 0 -179 54t-68 178q-142 -232 -343 -232q-207 0 -207 210q0 51 12 112q68 349 399 354l167 4q27 133 27 191q0 114 -103 114q-74 -1 -116 -41t-66 -131l-165 17q92 292 372 292z
M1024 1235h-549l25 127h549z" />
    <glyph glyph-name="uni01E4" unicode="&#x1e4;" 
d="M116 451q0 161 104.5 540t582.5 379q344 0 397 -331l-182 -56q-36 231 -246 231t-295.5 -154t-123 -318t-37.5 -287q0 -320 260 -320q68 0 144.5 21t130.5 53l19 99h-293l25 130h293l21 107h-293l31 160h479l-52 -267h128l-25 -130h-128l-34 -175q-263 -153 -477 -153
t-321.5 120.5t-107.5 350.5z" />
    <glyph glyph-name="uni01E5" unicode="&#x1e5;" 
d="M889 672q0 138 -59 215.5t-159 77.5q-171 0 -262 -129.5t-91 -392.5q0 -132 51 -190t151 -58t185.5 61t134.5 169.5t49 246.5zM422 -424q-162 0 -258 61.5t-108 174.5l186 30q23 -130 207 -130q104 0 173 45.5t113 149.5h-756l18 93h767l51 261h-2q-131 -199 -377 -199
q-307 0 -307 356q0 210 96 445.5t427 235.5q113 0 186.5 -52.5t99.5 -149.5h2q7 37 25 106.5t23 78.5h171l-7 -30q-23 -89 -42 -194l-167 -858h66l-18 -93h-75q-120 -331 -494 -331z" />
    <glyph glyph-name="uni01E6" unicode="&#x1e6;" 
d="M549 -20q-433 0 -433 471q0 161 53 353q156 566 634 566q344 0 397 -331l-182 -56q-36 231 -244 231t-322 -199q-56 -101 -96 -267t-40 -293q0 -320 260 -320q68 0 144 21t131 53l65 336h-293l31 160h479l-111 -572q-255 -153 -473 -153zM877 1445h-164l-208 239l4 20
h104l205 -138h2l246 138h105l-4 -20z" />
    <glyph glyph-name="uni01E7" unicode="&#x1e7;" 
d="M308 346q0 -200 186 -201q179 1 287 167q106 164 106 404q-1 107 -57 178t-152 71t-160 -39q-63 -39 -107 -122q-43 -82 -73 -220t-30 -238zM460 -288q250 0 309 315l38 194h-2q-141 -209 -384 -209q-157 0 -229 78t-72 220t40 310t106 270q133 208 386 209
q113 -1 186 -53t99 -149h3q7 37 25 107t23 78h171l-49 -224l-161 -826q-88 -456 -521 -456q-169 0 -257 69t-92 198l189 25q2 -76 51 -116t141 -40zM800 1201h-164l-207 239l4 20h104l205 -138h2l246 138h105l-4 -20z" />
    <glyph glyph-name="uni01E8" unicode="&#x1e8;" 
d="M898 0l-359 641l-200 -172l-91 -469h-191l262 1349h191l-131 -673l703 673h225l-615 -572l430 -777h-224zM874 1445h-164l-208 239l4 20h104l205 -138h2l246 138h105l-4 -20z" />
    <glyph glyph-name="uni01E9" unicode="&#x1e9;" 
d="M914 1445h-164l-208 239l4 20h104l205 -138h2l246 138h105l-4 -20zM809 0l-269 499l-151 -98l-78 -401h-180l262 1349h180l-154 -792l577 525h211l-529 -465l342 -617h-211z" />
    <glyph glyph-name="uni01EA" unicode="&#x1ea;" 
d="M978 913q0 301 -232 301q-270 0 -384 -401q-58 -202 -58 -367q0 -311 231 -311q296 -1 406 493q37 166 37 285zM493 -427q-85 1 -129 39t-44 111t52 143t121 114q-194 3 -292 118q-99 115 -99 332q0 160 50 351t136 323q175 266 488 266q198 0 301 -110t103 -332
q0 -155 -49 -346q-101 -393 -353 -533q-57 -32 -120 -49h2q-83 -42 -138 -116t-55 -134q0 -67 78 -67q55 0 120 24l-21 -107q-67 -27 -151 -27z" />
    <glyph glyph-name="uni01EB" unicode="&#x1eb;" 
d="M928 736q0 233 -227 233q-257 0 -353 -307q-48 -153 -47 -289q0 -260 223 -260q288 -1 375 385q29 128 29 238zM724 1102q393 0 393 -370q0 -134 -42 -284q-103 -368 -412 -448q-83 -42 -138 -116t-55 -134q0 -67 78 -67q55 0 120 24l-21 -107q-67 -27 -151 -27
q-84 1 -128 39t-45 111q0 73 52 143t121 114q-185 1 -285 99q-99 98 -99 288q0 79 18 175q54 280 208 420t386 140z" />
    <glyph glyph-name="uni01EC" unicode="&#x1ec;" 
d="M978 913q0 301 -232 301q-270 0 -384 -401q-58 -202 -58 -367q0 -311 231 -311q296 -1 406 493q37 166 37 285zM491 -427q-85 1 -129 39t-44 111t52 143t121 114q-192 4 -291 118q-98 115 -98 332q0 160 50 351t136 323q175 266 488 266q198 0 301 -110t103 -332
q0 -155 -49 -346q-101 -393 -353 -533q-57 -32 -120 -49q-83 -42 -138 -116t-55 -134q0 -67 78 -67q55 0 120 24l-21 -107q-67 -27 -151 -27zM1025 1503h-551l25 127h551z" />
    <glyph glyph-name="uni01ED" unicode="&#x1ed;" 
d="M928 736q0 233 -227 233q-257 0 -353 -307q-48 -153 -47 -289q0 -260 223 -260q288 -1 375 385q29 128 29 238zM724 1102q393 0 393 -370q0 -134 -42 -284q-103 -367 -412 -448h6q-83 -42 -138 -116t-55 -134q0 -67 78 -67q55 0 120 24l-21 -107q-67 -27 -151 -27
q-84 1 -128 39t-45 111q0 73 52 143t121 114h-2q-188 0 -288 98t-100 289q0 79 18 175q54 280 208 420t386 140zM1024 1235h-549l25 127h549z" />
    <glyph glyph-name="uni01EE" unicode="&#x1ee;" 
d="M1109 279q-1 -197 -91 -359t-252 -254t-354 -92q-270 0 -387 143q-58 71 -94 203l177 75q34 -142 114 -207t215 -65t245 65t172 185t63 274q0 311 -415 311h-74l27 141l596 494h-775l31 156h988l-32 -161l-600 -489q446 -28 446 -420zM903 1445h-164l-208 239l4 20h104
l205 -138h2l246 138h105l-4 -20z" />
    <glyph glyph-name="uni01EF" unicode="&#x1ef;" 
d="M204 -60q0 -228 248 -228q118 0 206 56t136 156q49 100 49 222t-74 193q-74 72 -215 72h-82l28 144l468 386h-693l27 141h873l-34 -176l-453 -362q158 -20 248 -120t90 -258q0 -160 -78 -299t-211 -215t-284 -77q-151 0 -242 39q-91 38 -139 110t-48 193l1 35l180 12z
M849 1201h-164l-207 239l4 20h104l205 -138h2l246 138h105l-4 -20z" />
    <glyph glyph-name="uni01F0" unicode="&#x1f0;" 
d="M233 -276q125 0 207 66t106 185l188 965h-407l27 142h587l-215 -1110q-36 -186 -169 -292t-322 -105q-189 0 -297 43l27 140q143 -34 268 -34zM923 1201h-164l-207 239l4 20h104l205 -138h2l246 138h105l-4 -20z" />
    <glyph glyph-name="uni01F1" unicode="&#x1f1;" 
d="M1114 0h-562l28 142l584 1051h-307l30 156h489l-27 -138l-590 -1055h385zM549 906q0 287 -167 287h-4l-202 -1037h24q94 0 174.5 101.5t127.5 281.5t47 367zM721 939q0 -283 -71 -503t-199 -328t-302 -108h-165l262 1349h122q182 0 267.5 -99t85.5 -311z" />
    <glyph glyph-name="uni01F2" unicode="&#x1f2;" 
d="M552 0l26 132l509 811h-312l27 139h485l-25 -132l-515 -811h394l-27 -139h-562zM549 906q0 287 -167 287h-4l-202 -1037h24q94 0 174.5 101.5t127.5 281.5t47 367zM721 939q0 -283 -71 -503t-199 -328t-302 -108h-165l262 1349h122q182 0 267.5 -99t85.5 -311z" />
    <glyph glyph-name="uni01F3" unicode="&#x1f3;" 
d="M572 0l25 132l510 811h-312l27 139h485l-26 -132l-514 -811h384l-27 -139h-552zM182 308q0 -196 79 -195q68 0 155 131.5t87 533.5q0 187 -74 187t-132.5 -85t-86.5 -230.5t-28 -341.5zM176 -26q-163 0 -163 311q0 215 52.5 413.5t137.5 299t193 100.5q76 0 107.5 -32.5
t42.5 -111.5h2l102 530h159l-245 -1261l-33 -192l-5 -31h-152l-1 10q0 39 16 114h-5q-49 -87 -94 -118.5t-114 -31.5z" />
    <glyph glyph-name="uni01F4" unicode="&#x1f4;" 
d="M549 -20q-433 0 -433 471q0 161 53 353q156 566 634 566q344 0 397 -331l-182 -56q-36 231 -244 231t-322 -199q-56 -101 -96 -267t-40 -293q0 -320 260 -320q68 0 144 21t131 53l65 336h-293l31 160h479l-111 -572q-255 -153 -473 -153zM686 1445l4 20l261 226h207
l-6 -29l-352 -217h-114z" />
    <glyph glyph-name="uni01F5" unicode="&#x1f5;" 
d="M308 346q0 -200 186 -201q179 1 287 167q106 164 106 404q-1 107 -57 178t-152 71t-160 -39q-63 -39 -107 -122q-43 -82 -73 -220t-30 -238zM460 -288q250 0 309 315l38 194h-2q-141 -209 -384 -209q-157 0 -229 78t-72 220t40 310t106 270q133 208 386 209
q113 -1 186 -53t99 -149h3q7 37 25 107t23 78h171l-49 -224l-161 -826q-88 -456 -521 -456q-169 0 -257 69t-92 198l189 25q2 -76 51 -116t141 -40zM596 1201l4 20l274 239h197l-6 -29l-345 -230h-124z" />
    <glyph glyph-name="uni01F6" unicode="&#x1f6;" 
d="M675 236q0 -119 98 -119q70 0 113.5 57.5t71.5 199.5l126 648h154l-132 -677q-70 -365 -361 -365q-143 0 -190 70t-47 144t14 148l56 286h-305l-122 -628h-163l262 1349h163l-110 -566h305l110 566h164l-190 -975q-17 -89 -17 -138z" />
    <glyph glyph-name="uni01F7" unicode="&#x1f7;" 
d="M1011 970q0 245 -214 245q-89 0 -170.5 -49t-137.5 -134t-75 -183l-166 -847q202 75 378.5 234t280.5 355.5t104 378.5zM854 1370q175 0 265.5 -92.5t90.5 -299.5t-127 -436t-358.5 -415t-507.5 -287l-52 -265h-191l345 1774h184l-31 -164q164 185 382 185z" />
    <glyph glyph-name="uni01F8" unicode="&#x1f8;" 
d="M731 0l-300 1130q-15 -161 -34 -254l-170 -876h-170l262 1349h222l307 -1138q12 155 35 274l168 864h172l-262 -1349h-230zM786 1446l-268 217l6 29h207l173 -226l-4 -20h-114z" />
    <glyph glyph-name="uni01F9" unicode="&#x1f9;" 
d="M834 1102q283 0 283 -254q0 -57 -14 -127l-140 -721h-181l135 695q11 58 11 98q0 88 -44 129t-151 41q-109 -1 -205 -91t-127 -245l-122 -627h-180l165 851q10 50 21 113q10 63 14 87t4 31h170q0 -42 -28 -185h3q147 205 386 205zM766 1201l-255 230l6 29h197l180 -239
l-4 -20h-124z" />
    <glyph glyph-name="Aringacute" unicode="&#x1fa;" 
d="M866 1220q0 74 -105 74q-61 0 -100.5 -27.5t-39.5 -64.5q0 -75 107 -75q62 0 100 28t38 65zM701 1445l4 20l273 240h197l-5 -29l-345 -231h-124zM717 1011h-18q-67 -127 -111 -200l-205 -335h441l-70 335q-7 31 -37 200zM499 1163q0 72 36 128t101.5 87.5t155.5 31.5
t144 -43t54 -109q0 -135 -122 -207l255 -1051h-194l-75 323h-563l-200 -323h-196l669 1047q-65 44 -65 116z" />
    <glyph glyph-name="aringacute" unicode="&#x1fb;" 
d="M865 1266q0 73 -106 73q-62 0 -100.5 -28.5t-38.5 -64.5q0 -74 107 -74q63 0 100.5 29t37.5 65zM694 1496l4 20l263 189h197l-5 -29l-335 -180h-124zM265 251q1 -134 157 -134q84 0 166.5 45.5t138.5 122.5t72 160l18 89l-191 -4q-135 -2 -209.5 -35.5t-113 -100
t-38.5 -143.5zM1048 835q0 -45 -10 -97l-90 -466q-9 -42 -9 -80q0 -80 79 -81q27 0 60 7l-22 -112q-70 -16 -150 -16q-152 0 -152 152l5 65h-6q-89 -122 -189 -174.5t-230 -52.5t-195.5 62t-65.5 171q0 41 9 89q68 349 523 354l236 4q22 105 22 148q0 85 -46 121t-150 36
t-163.5 -39.5t-90.5 -132.5l-185 17q81 233 338 280q-69 45 -69 116t35 128t101.5 89t154.5 32t144.5 -41.5t56.5 -111.5t-37.5 -127t-103.5 -89q200 -50 200 -251z" />
    <glyph glyph-name="AEacute" unicode="&#x1fc;" 
d="M775 1202h-73l-119 -240l-217 -401h284zM621 412h-335l-222 -412h-168l748 1349h667l-29 -152h-337l-84 -430h327l-29 -150h-327l-90 -465h378l-30 -152h-549zM823 1446l4 20l274 239h197l-6 -29l-345 -230h-124z" />
    <glyph glyph-name="aeacute" unicode="&#x1fd;" 
d="M1073 776q0 193 -131 193q-80 1 -144 -87t-97 -241h361q11 86 11 135zM135 230q0 -113 86 -113q93 0 171 95t106 233l18 89l-123 -4q-95 -3 -148 -40t-81 -112t-29 -148zM489 1102q178 0 220 -139q111 139 273 139q252 0 252 -321q0 -111 -29 -254l-4 -24h-529
q-22 -93 -22 -190q0 -198 131 -198q75 0 129 47t84 119l129 -45q-119 -256 -364 -256q-121 0 -179 54t-68 178q-142 -232 -343 -232q-207 0 -207 210q0 51 12 112q68 349 399 354l167 4q27 133 27 191q0 114 -103 114q-74 -1 -116 -41t-66 -131l-165 17q92 292 372 292z
M620 1201l4 20l274 239h197l-6 -29l-345 -230h-124z" />
    <glyph glyph-name="Oslashacute" unicode="&#x1fe;" 
d="M305 445q0 -35 1 -46l645 684q-52 131 -196 131q-143 0 -239 -98t-154 -298t-57 -373zM535 135q296 -1 406 493q37 166 37 280l-2 51l-645 -686q52 -138 204 -138zM504 -20q-220 0 -319 138l-147 -156l-82 65l178 189q-32 90 -32 232t50 333t136 323q175 266 488 266
q218 0 319 -134l147 156l81 -65l-176 -187q33 -90 33 -228t-49 -330q-49 -190 -139 -326q-182 -276 -488 -276zM678 1446l4 20l274 239h197l-6 -29l-345 -230h-124z" />
    <glyph glyph-name="oslashacute" unicode="&#x1ff;" 
d="M281 406q0 -68 6 -102l621 576q-57 89 -207 89q-299 0 -390 -372q-30 -123 -30 -191zM947 682q0 62 -5 102l-621 -576q59 -95 203 -95q206 -1 310 167q54 86 84 213t29 189zM500 -20q-203 0 -310 107l-94 -87l-63 68l103 95q-44 85 -44 212t44 271t126 248
q165 208 462 208q213 0 316 -100l88 82l64 -68l-97 -90q42 -81 42 -206q-1 -126 -43 -274t-126 -254q-166 -212 -468 -212zM630 1201l4 20l274 239h197l-6 -29l-345 -230h-124z" />
    <glyph glyph-name="uni0200" unicode="&#x200;" 
d="M745 1205q-92 -182 -363 -674h463l-76 500zM929 0l-64 382h-563l-211 -382h-196l772 1349h217l239 -1349h-194zM614 1445l-288 218l6 29h207l173 -227l-4 -20h-94zM961 1445l-288 218l6 29h207l173 -227l-4 -20h-94z" />
    <glyph glyph-name="uni0201" unicode="&#x201;" 
d="M265 251q1 -134 157 -134q84 -1 166 45q83 46 139 123t72 160l18 89l-191 -4q-136 -2 -210 -36t-112 -100t-39 -143zM708 1102q340 0 340 -267q0 -45 -10 -97l-90 -466q-9 -42 -9 -80q0 -80 79 -81q27 0 60 7l-22 -112q-70 -16 -150 -16q-152 0 -152 152l5 65h-6
q-89 -123 -189 -175t-230 -52t-196 62t-65 171q0 41 9 89q68 349 523 354l236 4q22 105 22 148q0 85 -46 121t-150 36q-103 1 -163 -39t-91 -133l-185 17q106 292 480 292zM554 1201l-288 218l6 29h207l173 -227l-4 -20h-94zM901 1201l-288 218l6 29h207l173 -227l-4 -20
h-94z" />
    <glyph glyph-name="uni0202" unicode="&#x202;" 
d="M745 1205q-92 -182 -363 -674h463l-76 500zM929 0l-64 382h-563l-211 -382h-196l772 1349h217l239 -1349h-194zM821 1710q115 0 179 -64t65 -176l-1 -20h-105q-2 60 -45 96t-113 36t-129 -32t-87 -100h-105q40 120 132 190t209 70z" />
    <glyph glyph-name="uni0203" unicode="&#x203;" 
d="M265 251q1 -134 157 -134q84 -1 166 45q83 46 139 123t72 160l18 89l-191 -4q-136 -2 -210 -36t-112 -100t-39 -143zM708 1102q340 0 340 -267q0 -45 -10 -97l-90 -466q-9 -42 -9 -80q0 -80 79 -81q27 0 60 7l-22 -112q-70 -16 -150 -16q-152 0 -152 152l5 65h-6
q-89 -123 -189 -175t-230 -52t-196 62t-65 171q0 41 9 89q68 349 523 354l236 4q22 105 22 148q0 85 -46 121t-150 36q-103 1 -163 -39t-91 -133l-185 17q106 292 480 292zM771 1466q115 0 179 -64t65 -176l-1 -20h-105q-2 60 -45 96t-113 36t-129 -32t-87 -100h-105
q40 120 132 190t209 70z" />
    <glyph glyph-name="uni0204" unicode="&#x204;" 
d="M57 0l262 1349h919l-30 -156h-728l-82 -422h668l-30 -154h-668l-90 -461h769l-30 -156h-960zM622 1445l-288 218l6 29h207l173 -227l-4 -20h-94zM969 1445l-288 218l6 29h207l173 -227l-4 -20h-94z" />
    <glyph glyph-name="uni0205" unicode="&#x205;" 
d="M702 969q-134 0 -228 -87t-130 -241h584l4 72q0 256 -230 256zM302 382q0 -129 62 -198t170 -69t194 44t129 122l149 -45q-68 -124 -198 -190t-309 -66t-281 100t-102 290q0 124 40 268t120 250q162 214 450 214q386 0 386 -379q0 -91 -21 -196l-4 -24h-772
q-13 -69 -13 -121zM574 1201l-288 218l6 29h207l173 -227l-4 -20h-94zM921 1201l-288 218l6 29h207l173 -227l-4 -20h-94z" />
    <glyph glyph-name="uni0206" unicode="&#x206;" 
d="M57 0l262 1349h919l-30 -156h-728l-82 -422h668l-30 -154h-668l-90 -461h769l-30 -156h-960zM812 1710q116 0 180 -64t64 -176l-1 -20h-105q-2 60 -45 96t-113 36t-129 -32t-87 -100h-105q41 120 133 190t208 70z" />
    <glyph glyph-name="uni0207" unicode="&#x207;" 
d="M702 969q-134 0 -228 -87t-130 -241h584l4 72q0 256 -230 256zM302 382q0 -129 62 -198t170 -69t194 44t129 122l149 -45q-68 -124 -198 -190t-309 -66t-281 100t-102 290q0 124 40 268t120 250q162 214 450 214q386 0 386 -379q0 -91 -21 -196l-4 -24h-772
q-13 -69 -13 -121zM792 1466q116 0 180 -64t64 -176l-1 -20h-105q-2 60 -45 96t-113 36t-129 -32t-87 -100h-105q41 120 133 190t208 70z" />
    <glyph glyph-name="uni0208" unicode="&#x208;" 
d="M359 1349h823l-30 -156h-316l-202 -1037h316l-30 -156h-823l30 156h316l202 1037h-316zM573 1445l-288 218l6 29h207l173 -227l-4 -20h-94zM920 1445l-288 218l6 29h207l173 -227l-4 -20h-94z" />
    <glyph glyph-name="uni0209" unicode="&#x209;" 
d="M668 142h380l-28 -142h-982l28 142h422l155 798h-319l27 142h499zM588 1201l-288 218l6 29h207l173 -227l-4 -20h-94zM935 1201l-288 218l6 29h207l173 -227l-4 -20h-94z" />
    <glyph glyph-name="uni020A" unicode="&#x20a;" 
d="M359 1349h823l-30 -156h-316l-202 -1037h316l-30 -156h-823l30 156h316l202 1037h-316zM828 1710q116 0 180 -64t64 -176l-1 -20h-105q-2 60 -45 96t-113 36t-129 -32t-87 -100h-105q41 120 133 190t208 70z" />
    <glyph glyph-name="uni020B" unicode="&#x20b;" 
d="M668 142h380l-28 -142h-982l28 142h422l155 798h-319l27 142h499zM802 1466q116 0 180 -64t64 -176l-1 -20h-105q-2 60 -45 96t-113 36t-129 -32t-87 -100h-105q41 120 133 190t208 70z" />
    <glyph glyph-name="uni020C" unicode="&#x20c;" 
d="M978 913q0 301 -232 301q-270 0 -384 -401q-58 -202 -58 -367q0 -311 231 -311q296 -1 406 493q37 166 37 285zM102 430q0 160 50 351t136 323q175 266 488 266q198 0 301 -110t103 -332q0 -155 -49 -346q-49 -192 -139 -328q-181 -274 -488 -274q-202 0 -302 116
t-100 334zM600 1445l-288 218l6 29h207l173 -227l-4 -20h-94zM947 1445l-288 218l6 29h207l173 -227l-4 -20h-94z" />
    <glyph glyph-name="uni020D" unicode="&#x20d;" 
d="M928 736q0 233 -227 233q-257 0 -353 -307q-48 -153 -47 -289q0 -260 223 -260q288 -1 375 385q29 128 29 238zM724 1102q393 0 393 -370q0 -134 -42 -284t-123 -256q-162 -212 -452 -212q-188 0 -288 98t-100 289q0 79 18 175q54 280 208 420t386 140zM574 1201
l-288 218l6 29h207l173 -227l-4 -20h-94zM921 1201l-288 218l6 29h207l173 -227l-4 -20h-94z" />
    <glyph glyph-name="uni020E" unicode="&#x20e;" 
d="M978 913q0 301 -232 301q-270 0 -384 -401q-58 -202 -58 -367q0 -311 231 -311q296 -1 406 493q37 166 37 285zM102 430q0 160 50 351t136 323q175 266 488 266q198 0 301 -110t103 -332q0 -155 -49 -346q-49 -192 -139 -328q-181 -274 -488 -274q-202 0 -302 116
t-100 334zM839 1710q115 0 179 -64t65 -176l-1 -20h-105q-2 60 -45 96t-113 36t-129 -32t-87 -100h-105q40 120 132 190t209 70z" />
    <glyph glyph-name="uni020F" unicode="&#x20f;" 
d="M928 736q0 233 -227 233q-257 0 -353 -307q-48 -153 -47 -289q0 -260 223 -260q288 -1 375 385q29 128 29 238zM724 1102q393 0 393 -370q0 -134 -42 -284t-123 -256q-162 -212 -452 -212q-188 0 -288 98t-100 289q0 79 18 175q54 280 208 420t386 140zM792 1466
q116 0 180 -64t64 -176l-1 -20h-105q-2 60 -45 96t-113 36t-129 -32t-87 -100h-105q41 120 133 190t208 70z" />
    <glyph glyph-name="uni0210" unicode="&#x210;" 
d="M1018 1026q0 170 -266 170h-272l-91 -470h280q111 0 191 40t119 112t39 148zM801 1349q209 0 311 -76t103 -213q1 -104 -51 -205t-151 -169t-225 -89l284 -597h-220l-254 575h-238l-112 -575h-191l262 1349h482zM634 1445l-288 218l6 29h207l173 -227l-4 -20h-94z
M981 1445l-288 218l6 29h207l173 -227l-4 -20h-94z" />
    <glyph glyph-name="uni0211" unicode="&#x211;" 
d="M910 937q-160 0 -283 -121t-159 -308l-99 -508h-180l136 701q25 136 25 289l-3 92h171q6 -50 6 -122t-6 -128h5q73 113 131 165q116 105 294 105q106 0 203 -17l-33 -167q-107 19 -208 19zM574 1201l-288 218l6 29h207l173 -227l-4 -20h-94zM921 1201l-288 218l6 29h207
l173 -227l-4 -20h-94z" />
    <glyph glyph-name="uni0212" unicode="&#x212;" 
d="M1018 1026q0 170 -266 170h-272l-91 -470h280q111 0 191 40t119 112t39 148zM801 1349q209 0 311 -76t103 -213q1 -104 -51 -205t-151 -169t-225 -89l284 -597h-220l-254 575h-238l-112 -575h-191l262 1349h482zM798 1710q116 0 180 -64t64 -176l-1 -20h-105
q-2 60 -45 96t-113 36t-129 -32t-87 -100h-105q41 120 133 190t208 70z" />
    <glyph glyph-name="uni0213" unicode="&#x213;" 
d="M910 937q-160 0 -283 -121t-159 -308l-99 -508h-180l136 701q25 136 25 289l-3 92h171q6 -50 6 -122t-6 -128h5q73 113 131 165q116 105 294 105q106 0 203 -17l-33 -167q-107 19 -208 19zM822 1466q116 0 180 -64t64 -176l-1 -20h-105q-2 60 -45 96t-113 36t-129 -32
t-87 -100h-105q41 120 133 190t208 70z" />
    <glyph glyph-name="uni0214" unicode="&#x214;" 
d="M496 -20q-202 0 -294 78t-92 243q0 77 19 171l170 877h191l-165 -851q-20 -102 -20 -187q1 -85 51 -131t190 -45q140 0 220 82t123 294l163 838h190l-167 -859q-52 -266 -189 -388t-390 -122zM614 1445l-288 218l6 29h207l173 -227l-4 -20h-94zM961 1445l-288 218l6 29
h207l173 -227l-4 -20h-94z" />
    <glyph glyph-name="uni0215" unicode="&#x215;" 
d="M785 0q0 21 28 185h-3q-84 -113 -176 -159t-224 -46t-201 58t-69 185q0 60 15 138l140 721h180l-133 -686q-14 -72 -14 -140t42 -102q42 -35 158 -35q115 0 207 90t121 246l122 627h181l-165 -851q-10 -50 -21 -113q-10 -63 -14 -87t-4 -31h-170zM584 1201l-288 218l6 29
h207l173 -227l-4 -20h-94zM931 1201l-288 218l6 29h207l173 -227l-4 -20h-94z" />
    <glyph glyph-name="uni0216" unicode="&#x216;" 
d="M496 -20q-202 0 -294 78t-92 243q0 77 19 171l170 877h191l-165 -851q-20 -102 -20 -187q1 -85 51 -131t190 -45q140 0 220 82t123 294l163 838h190l-167 -859q-52 -266 -189 -388t-390 -122zM828 1710q116 0 180 -64t64 -176l-1 -20h-105q-2 60 -45 96t-113 36t-129 -32
t-87 -100h-105q41 120 133 190t208 70z" />
    <glyph glyph-name="uni0217" unicode="&#x217;" 
d="M785 0q0 21 28 185h-3q-84 -113 -176 -159t-224 -46t-201 58t-69 185q0 60 15 138l140 721h180l-133 -686q-14 -72 -14 -140t42 -102q42 -35 158 -35q115 0 207 90t121 246l122 627h181l-165 -851q-10 -50 -21 -113q-10 -63 -14 -87t-4 -31h-170zM792 1466q116 0 180 -64
t64 -176l-1 -20h-105q-2 60 -45 96t-113 36t-129 -32t-87 -100h-105q41 120 133 190t208 70z" />
    <glyph glyph-name="Scommaaccent" unicode="&#x218;" 
d="M540 129q154 -1 248 61t117 177l5 45q0 102 -115 156q-55 26 -205 65q-150 40 -205 67q-157 77 -157 223q0 203 143 325t381 122t335 -75t106 -249l-194 -33q-2 111 -63 162t-189 51q-281 0 -324 -213l-4 -41q0 -84 87 -128q41 -21 212 -67q172 -46 240 -84
q146 -81 146 -238q0 -95 -41 -187t-119 -156q-162 -132 -443 -132q-457 0 -461 358l192 37q2 -127 78 -187t230 -59zM443 -455h-117q114 101 131 190h-88l32 167h195l-20 -106q-30 -152 -133 -251z" />
    <glyph glyph-name="scommaaccent" unicode="&#x219;" 
d="M927 824q0 141 -221 141q-138 0 -208 -48t-70 -133q0 -46 36 -76t121 -51q221 -58 279 -84q157 -70 157 -215q0 -96 -63 -188t-179 -141t-294 -49t-273 64t-102 204l165 31q3 -89 59 -127t206 -38t227 55t77 146q0 49 -42 82t-136 59l-116 31q-132 35 -186 65
q-112 62 -112 176q0 72 33 144t95 123q127 104 328 104q385 0 385 -260l-166 -20v5zM443 -455h-117q114 101 131 190h-88l32 167h195l-20 -106q-30 -152 -133 -251z" />
    <glyph glyph-name="uni021A" unicode="&#x21a;" 
d="M836 1193l-232 -1193h-190l232 1193h-443l30 156h1076l-30 -156h-443zM443 -455h-117q114 101 131 190h-88l32 167h195l-20 -106q-30 -152 -133 -251z" />
    <glyph glyph-name="uni021B" unicode="&#x21b;" 
d="M641 133q133 0 303 34l-26 -137q-176 -46 -330 -46t-222 50q-69 50 -69 155q0 45 8 80l131 671h-168l27 142h170l113 282h120l-55 -282h432l-27 -142h-432l-127 -652l-5 -44q0 -111 157 -111zM443 -455h-117q114 101 131 190h-88l32 167h195l-20 -106q-30 -152 -133 -251
z" />
    <glyph glyph-name="uni021C" unicode="&#x21c;" 
d="M1048 439q0 -283 -249.5 -497.5t-794.5 -368.5l32 166q819 220 819 675q0 114 -40 170q-201 -135 -670 -280l34 173q548 158 667 295t119 256q0 82 -55.5 131t-172.5 49t-204 -43t-168 -149l-137 79q216 275 553 275q174 0 274.5 -83t100.5 -223q0 -102 -43 -186
t-153 -176q88 -99 88 -263z" />
    <glyph glyph-name="uni021D" unicode="&#x21d;" 
d="M909 803q0 166 -208 166q-116 0 -190 -43t-129 -134l-163 33q77 139 198.5 208t305.5 69q368 0 368 -275q0 -201 -184 -345q79 -83 79 -198q0 -328 -326 -487.5t-633 -222.5l30 155q373 87 558.5 219t185.5 299q0 81 -61 123q-257 -116 -592 -173l29 148
q299 62 515.5 152.5t216.5 305.5z" />
    <glyph glyph-name="uni021E" unicode="&#x21e;" 
d="M770 0l121 623h-522l-121 -623h-191l262 1349h191l-110 -566h522l110 566h191l-262 -1349h-191zM877 1445h-164l-208 239l4 20h104l205 -138h2l246 138h105l-4 -20z" />
    <glyph glyph-name="uni021F" unicode="&#x21f;" 
d="M868 1465h-164l-208 239l4 20h104l205 -138h2l246 138h105l-4 -20zM808 1102q289 0 289 -258q0 -55 -13 -123l-140 -721h-181l135 695q10 55 10 97q0 86 -41 128.5t-151 42.5t-206.5 -90.5t-127.5 -245.5l-122 -627h-180l262 1348h181q-61 -317 -97 -451h3
q144 205 379 205z" />
    <glyph glyph-name="uni0220" unicode="&#x220;" 
d="M993 1046q0 95 -46 140t-141 45t-193 -50t-172 -130l-204 -1051h-180l262 1350h178l-29 -151q204 171 421 171q150 0 220.5 -66t70.5 -205q0 -74 -19 -169l-263 -1355h-181l263 1355q13 66 13 116z" />
    <glyph glyph-name="uni0221" unicode="&#x221;" 
d="M936 -160q0 102 -96 102q-55 0 -141 -49q-5 -29 -5 -71t27.5 -72.5t82.5 -30.5t93.5 36t38.5 85zM197 348q0 -118 34.5 -173.5t109.5 -55.5q109 0 223 106t114 499q0 132 -43 188.5t-126 56.5q-150 0 -231 -158t-81 -463zM247 -20q-117 0 -178.5 88t-61.5 262
q0 360 122 566t351 206q106 0 163 -45t81 -143h2l108 570h181l-245 -1261l-29 -159q67 23 129 23q109 0 167 -54t58 -147t-40 -161.5t-118.5 -109t-166.5 -40.5q-184 0 -228 189q-88 -71 -193 -190l-88 117q155 170 281 265l42 218h-4q-65 -106 -140.5 -150t-192.5 -44z" />
    <glyph glyph-name="uni0222" unicode="&#x222;" 
d="M935 451q0 103 -77 162t-209 59t-222.5 -42.5t-140 -119t-49.5 -176.5t77.5 -157t221.5 -57q195 0 297 86.5t102 244.5zM1210 1122q0 -139 -92 -245t-245 -135l-1 -4q119 -19 183 -92.5t64 -201.5t-75 -237.5t-214.5 -168t-341.5 -58.5t-319.5 87.5t-117.5 249.5
q0 110 49 199t135 146t194 74l1 4q-220 63 -220 218t133 243t377 91l-25 -130q-304 -7 -304 -196q0 -77 72.5 -117.5t192.5 -40.5t199.5 33.5t123.5 102t44 156.5t-63 140.5t-179 55.5l26 134q191 -5 297 -87t106 -221z" />
    <glyph glyph-name="uni0223" unicode="&#x223;" 
d="M656 743q-114 0 -199 -50t-131.5 -137.5t-46.5 -201.5t66 -173.5t188 -59.5q178 0 276 100.5t98 274.5q0 115 -68.5 181t-182.5 66zM998 1180q0 137 -113 197l95 113q201 -108 201 -294q0 -138 -83.5 -246t-227.5 -147l-1 -4q101 -25 159.5 -105.5t58.5 -213.5
t-70 -251.5t-202 -183.5t-320 -65t-294.5 92t-106.5 262q0 240 129 340t237 125l1 4q-88 26 -135.5 96.5t-47.5 169.5q0 142 81.5 241.5t257.5 179.5l51 -113q-94 -42 -151 -118.5t-57 -176.5t57 -154t157 -54t170.5 36.5t112 110.5t41.5 159z" />
    <glyph glyph-name="uni0224" unicode="&#x224;" 
d="M886 -96q0 96 -127 96h-791l28 143l1022 1050h-745l30 156h962l-27 -139l-1023 -1054h595q114 0 176 -53t62 -145t-54 -213l-148 34q40 76 40 125z" />
    <glyph glyph-name="uni0225" unicode="&#x225;" 
d="M728 139q243 0 243 -167q0 -80 -56 -217l-148 34l16 25q25 39 25 91q0 95 -128 95h-638l27 137l837 806h-641l27 139h844l-26 -137l-839 -806h457z" />
    <glyph glyph-name="uni0226" unicode="&#x226;" 
d="M745 1205q-92 -182 -363 -674h463l-76 500zM929 0l-64 382h-563l-211 -382h-196l772 1349h217l239 -1349h-194zM671 1446l37 192h200l-37 -192h-200z" />
    <glyph glyph-name="uni0227" unicode="&#x227;" 
d="M265 251q1 -134 157 -134q84 -1 166 45q83 46 139 123t72 160l18 89l-191 -4q-136 -2 -210 -36t-112 -100t-39 -143zM708 1102q340 0 340 -267q0 -45 -10 -97l-90 -466q-9 -42 -9 -80q0 -80 79 -81q27 0 60 7l-22 -112q-70 -16 -150 -16q-152 0 -152 152l5 65h-6
q-89 -123 -189 -175t-230 -52t-196 62t-65 171q0 41 9 89q68 349 523 354l236 4q22 105 22 148q0 85 -46 121t-150 36q-103 1 -163 -39t-91 -133l-185 17q106 292 480 292zM661 1292l37 192h200l-37 -192h-200z" />
    <glyph glyph-name="uni0228" unicode="&#x228;" 
d="M706 -222q0 -59 -34 -113q-68 -109 -280 -109q-57 0 -90 4l20 98q48 -6 84 -6q146 0 164 86l2 18q0 64 -119 64q-43 0 -57 -2l100 182h-439l262 1349h919l-30 -156h-728l-82 -422h668l-30 -154h-668l-90 -461h769l-30 -156h-414l-58 -100q161 -4 161 -122z" />
    <glyph glyph-name="uni0229" unicode="&#x229;" 
d="M702 969q-134 0 -228 -87t-130 -241h584l4 72q0 256 -230 256zM674 -222q0 -59 -34 -113q-68 -109 -280 -109q-57 0 -90 4l20 98q48 -6 84 -6q146 0 164 86l2 18q0 64 -119 64q-43 0 -57 -2l90 165q-151 13 -244 106q-94 92 -94 281q0 124 40 268t120 250
q162 214 450 214q386 0 386 -379q0 -91 -21 -196l-4 -24h-772q-13 -69 -13 -121q0 -129 62 -198t170 -69t194 44t129 122l149 -45q-69 -124 -189 -185t-257 -70l-47 -81q161 -4 161 -122z" />
    <glyph glyph-name="uni022A" unicode="&#x22a;" 
d="M978 913q0 301 -232 301q-270 0 -384 -401q-58 -202 -58 -367q0 -311 231 -311q296 -1 406 493q37 166 37 285zM102 430q0 160 50 351t136 323q175 266 488 266q198 0 301 -110t103 -332q0 -155 -49 -346q-49 -192 -139 -328q-181 -274 -488 -274q-202 0 -302 116
t-100 334zM1116 1708h-549l24 127h549zM494 1458l36 184h163l-36 -184h-163zM928 1458l36 184h163l-36 -184h-163z" />
    <glyph glyph-name="uni022B" unicode="&#x22b;" 
d="M928 736q0 233 -227 233q-257 0 -353 -307q-48 -153 -47 -289q0 -260 223 -260q288 -1 375 385q29 128 29 238zM724 1102q393 0 393 -370q0 -134 -42 -284t-123 -256q-162 -212 -452 -212q-188 0 -288 98t-100 289q0 79 18 175q54 280 208 420t386 140zM468 1219l36 184
h165l-36 -184h-165zM862 1219l36 184h163l-36 -184h-163zM1071 1515h-549l25 127h549z" />
    <glyph glyph-name="uni022C" unicode="&#x22c;" 
d="M978 913q0 301 -232 301q-270 0 -384 -401q-58 -202 -58 -367q0 -311 231 -311q296 -1 406 493q37 166 37 285zM102 430q0 160 50 351t136 323q175 266 488 266q198 0 301 -110t103 -332q0 -155 -49 -346q-49 -192 -139 -328q-181 -274 -488 -274q-202 0 -302 116
t-100 334zM949 1594q84 0 112 75h92q-29 -83 -57 -119q-59 -75 -173 -75q-53 -1 -129 37t-116 38q-78 0 -109 -75h-91q27 81 55 117q59 78 176 77q54 0 107 -26q53 -25 80 -37t53 -12zM1116 1708h-549l25 127h549z" />
    <glyph glyph-name="uni022D" unicode="&#x22d;" 
d="M928 736q0 233 -227 233q-257 0 -353 -307q-48 -153 -47 -289q0 -260 223 -260q288 -1 375 385q29 128 29 238zM724 1102q393 0 393 -370q0 -134 -42 -284t-123 -256q-162 -212 -452 -212q-188 0 -288 98t-100 289q0 79 18 175q54 280 208 420t386 140zM910 1201
q-52 1 -91 19q-38 18 -74 40q-37 22 -71 42q-34 18 -70 18t-60 -24t-49 -95h-111q42 137 104 193t136 55q74 1 168 -59q36 -22 70 -42q34 -18 70 -18t61 28t45 91h112q-32 -97 -64 -145t-78 -76q-46 -27 -98 -27zM1075 1565h-549l25 127h549z" />
    <glyph glyph-name="uni022E" unicode="&#x22e;" 
d="M978 913q0 301 -232 301q-270 0 -384 -401q-58 -202 -58 -367q0 -311 231 -311q296 -1 406 493q37 166 37 285zM102 430q0 160 50 351t136 323q175 266 488 266q198 0 301 -110t103 -332q0 -155 -49 -346q-49 -192 -139 -328q-181 -274 -488 -274q-202 0 -302 116
t-100 334zM671 1446l37 192h200l-37 -192h-200z" />
    <glyph glyph-name="uni022F" unicode="&#x22f;" 
d="M928 736q0 233 -227 233q-257 0 -353 -307q-48 -153 -47 -289q0 -260 223 -260q288 -1 375 385q29 128 29 238zM724 1102q393 0 393 -370q0 -134 -42 -284t-123 -256q-162 -212 -452 -212q-188 0 -288 98t-100 289q0 79 18 175q54 280 208 420t386 140zM661 1292l37 192
h200l-37 -192h-200z" />
    <glyph glyph-name="uni0230" unicode="&#x230;" 
d="M978 913q0 301 -232 301q-270 0 -384 -401q-58 -202 -58 -367q0 -311 231 -311q296 -1 406 493q37 166 37 285zM102 430q0 160 50 351t136 323q175 266 488 266q198 0 301 -110t103 -332q0 -155 -49 -346q-49 -192 -139 -328q-181 -274 -488 -274q-202 0 -302 116
t-100 334zM1116 1708h-549l25 127h549zM707 1468l36 184h163l-36 -184h-163z" />
    <glyph glyph-name="uni0231" unicode="&#x231;" 
d="M928 736q0 233 -227 233q-257 0 -353 -307q-48 -153 -47 -289q0 -260 223 -260q288 -1 375 385q29 128 29 238zM724 1102q393 0 393 -370q0 -134 -42 -284t-123 -256q-162 -212 -452 -212q-188 0 -288 98t-100 289q0 79 18 175q54 280 208 420t386 140zM661 1292l37 192
h200l-37 -192h-200zM1024 1515h-549l25 127h549z" />
    <glyph glyph-name="uni0232" unicode="&#x232;" 
d="M603 0h-188l114 584l-336 765h205l255 -611l491 611h205l-632 -765zM1024 1515h-549l25 127h549z" />
    <glyph glyph-name="uni0233" unicode="&#x233;" 
d="M104 -425q-72 0 -121 11l26 135q36 -6 99 -6t144 59t154 188l27 49l-262 1071h192l140 -642q48 -214 48 -254q10 22 63 110l462 786h190l-666 -1082q-140 -242 -252 -334t-244 -91zM1024 1235h-549l25 127h549z" />
    <glyph glyph-name="uni0234" unicode="&#x234;" 
d="M724 -160q0 102 -96 102q-54 0 -142 -49q-5 -29 -5 -71t27.5 -72.5t82.5 -30.5t94 35.5t39 85.5zM658 87q109 0 167 -54t58 -147t-40 -161.5t-120 -109t-166 -40.5q-183 0 -227 189l-194 -190l-87 117q164 180 277 265l297 1528h180l-277 -1421q72 24 132 24z" />
    <glyph glyph-name="uni0235" unicode="&#x235;" 
d="M939 -160q0 102 -96 102q-56 0 -142 -49q-5 -29 -5 -71t27.5 -72.5t82.5 -30.5t94 35.5t39 85.5zM411 1082q0 -42 -28 -185h2q68 111 140 158t170 47q196 0 198 -208q0 -73 -19 -173l-128 -658q72 24 132 24q106 0 163 -51.5t57 -145.5t-39 -163t-118.5 -110.5
t-168.5 -41.5q-183 0 -227 189l-194 -190l-87 117q154 169 280 265l142 730q19 98 19 160t-26.5 89.5t-87.5 27.5q-86 0 -153 -87t-99 -249l-122 -627h-180l165 851q10 50 20.5 113l14.5 87t4 31h170z" />
    <glyph glyph-name="uni0236" unicode="&#x236;" 
d="M725 244q0 102 -96 103q-38 0 -70 -14.5t-68 -34.5q-5 -34 -5 -76t26.5 -70t80.5 -28t93 35t39 85zM683 492q87 0 144 -52.5t57 -146.5t-40 -162.5t-119.5 -109.5t-166.5 -41q-190 0 -234 189l-194 -190l-87 117q155 171 281 265l112 579h-168l28 142h170l112 282h120
l-54 -282h432l-28 -142h-432l-92 -472q72 24 159 24z" />
    <glyph glyph-name="uni0238" unicode="&#x238;" 
d="M1026 755q0 208 -86 208q-76 0 -137.5 -81t-98.5 -229t-37 -316q0 -224 106 -224q156 0 204.5 241.5t48.5 400.5zM210 -20q-85 0 -131.5 94.5t-46.5 288.5t50 369.5t141 272.5t212 97q73 0 117.5 -33t61.5 -115h2l102 530h160l-76 -389l-35 -157h3q88 164 251 164
q85 0 131.5 -94.5t46.5 -288.5t-50 -369.5t-141 -272.5t-212 -97q-149 0 -183 164h-3l-33 -144h-136q7 67 23 144h-3q-88 -164 -251 -164zM205 327q0 -208 86 -208q76 0 137.5 81t98.5 229t37 316q0 224 -106 224q-157 0 -205 -241t-48 -401z" />
    <glyph glyph-name="uni0239" unicode="&#x239;" 
d="M203 327q0 -208 86 -208q76 0 137.5 81t98.5 229t37 316q0 224 -106 224q-156 0 -204.5 -241.5t-48.5 -400.5zM1019 1102q85 0 131.5 -94.5t46.5 -288.5t-50 -369.5t-141 -272.5t-212 -97q-78 0 -120 34.5t-59 113.5h-2l-107 -552h-160l81 411l35 157h-3
q-88 -164 -251 -164q-85 0 -131.5 94.5t-46.5 288.5t50 369.5t141 272.5t212 97q149 0 183 -164h3l33 144h136q-7 -67 -23 -144h3q88 164 251 164zM1024 755q0 208 -86 208q-76 0 -137.5 -81t-98.5 -229t-37 -316q0 -224 106 -224q157 0 205 241t48 401z" />
    <glyph glyph-name="uni023A" unicode="&#x23a;" 
d="M807 783l-217 -252h255zM382 531h46l354 412l-37 262q-92 -182 -363 -674zM929 0l-64 382h-403l-429 -498h-162l100 116h-76l772 1349h217l41 -239l323 374h162l-457 -531l170 -953h-194z" />
    <glyph glyph-name="uni023B" unicode="&#x23b;" 
d="M316 492q0 -82 4 -118l627 777q-65 63 -170 63t-187.5 -52t-141.5 -158.5t-95.5 -268t-36.5 -243.5zM582 135q210 0 377 282l146 -65q-223 -372 -555 -372q-196 0 -304 100l-175 -217h-162l259 321q-52 108 -52 268t104 539t590 379q156 0 255 -73l151 187h162l-228 -283
q42 -69 61 -166l-180 -65q-5 34 -15 65l-648 -803q65 -97 214 -97z" />
    <glyph glyph-name="uni023C" unicode="&#x23c;" 
d="M331 381q0 -90 22 -144l459 716q-34 8 -76 8q-197 0 -271 -117.5t-104 -245t-30 -217.5zM771 1102q65 0 128 -13l253 395h142l-282 -439q142 -87 142 -266l-194 -14v7q0 77 -42 125l-481 -751q52 -27 147 -27t176.5 53t119.5 162l188 -12q-53 -155 -195.5 -248.5
t-320.5 -93.5q-111 0 -201 32l-280 -437h-142l320 500q-107 98 -107 294q0 127 41.5 270.5t165.5 303t422 159.5z" />
    <glyph glyph-name="uni023D" unicode="&#x23d;" 
d="M132 0l117 604h-138l30 156h138l115 589h191l-115 -589h403l-30 -156h-403l-87 -448h672l-30 -156h-863z" />
    <glyph glyph-name="uni023E" unicode="&#x23e;" 
d="M789 954l193 239h-146zM1144 1193l-406 -503l-134 -690h-190l73 379l-416 -516h-162l630 781l107 549h-443l30 156h874l109 135h162l-109 -135h40l-30 -156h-135z" />
    <glyph glyph-name="uni023F" unicode="&#x23f;" 
d="M533 117q300 0 300 195q0 72 -58 102t-201 69t-234.5 91t-91.5 176q0 164 125 256.5t329 92.5t296.5 -63t93.5 -202l-166 -20q-4 149 -227 149q-269 0 -269 -172q0 -65 57 -94t200 -68q143 -38 235 -91.5t92 -186.5q0 -172 -135 -271.5t-373 -99.5q-34 0 -101 10
l154 -210q40 -53 109 -53q68 0 133 61l74 -113q-115 -101 -235 -101q-152 0 -250 154q-54 83 -110 165t-90 139t-54 88.5t-31 58.5l150 87q39 -87 98.5 -118t179.5 -31z" />
    <glyph glyph-name="uni0240" unicode="&#x240;" 
d="M221 0h-156l27 139l817 804h-621l27 139h824l-26 -137l-819 -806q111 0 153 -33t96 -115l130 -201q41 -63 97 -63q55 0 127 68l74 -113q-121 -108 -223 -108t-146 41t-91 116l-122 193q-29 45 -61 60.5t-107 15.5z" />
    <glyph glyph-name="uni0241" unicode="&#x241;" 
d="M705 1289q-274 0 -373 -235l-175 29q68 166 218.5 256.5t366.5 90.5t330 -104.5t114 -293.5t-74.5 -335t-209.5 -228t-308 -89l-74 -380h-180l105 536q48 -14 124 -14q214 0 321.5 128t107.5 362q0 277 -293 277z" />
    <glyph glyph-name="uni0242" unicode="&#x242;" 
d="M881 776q0 93 -46.5 139t-149.5 46q-189 0 -257 -196l-182 14q55 149 179 236t292 87t260 -82t92 -246t-105.5 -289t-293.5 -171l-61 -314h-180l84 432q170 0 269 94t99 250z" />
    <glyph glyph-name="uni0243" unicode="&#x243;" 
d="M972 1036q0 85 -67.5 122.5t-200.5 37.5h-223l-81 -416h225q171 0 259 65t88 191zM936 437q0 194 -313 194h-252l-33 -170h354l-26 -133h-354l-34 -175h266q392 0 392 284zM1128 435q0 -203 -161.5 -319t-437.5 -116h-472l64 328h-129l26 133h129l172 888h412
q440 0 440 -270q0 -137 -89.5 -236.5t-246.5 -131.5q146 -17 219.5 -91.5t73.5 -184.5z" />
    <glyph glyph-name="uni0244" unicode="&#x244;" 
d="M305 308q0 -84 51 -128.5t190 -44.5t219.5 81t123.5 295l17 85h-562q-39 -204 -39 -288zM496 -20q-201 0 -293 77.5t-93 243.5q0 75 19 171l24 124h-131l30 153h131l116 600h191l-116 -600h562l116 600h190l-116 -600h133l-30 -153h-133l-21 -106q-53 -267 -190 -388.5
t-389 -121.5z" />
    <glyph glyph-name="uni0245" unicode="&#x245;" 
d="M1113 0h-201l-143 902q-11 74 -29 279q-51 -113 -139 -279l-495 -902h-201l767 1349h198z" />
    <glyph glyph-name="uni0246" unicode="&#x246;" 
d="M278 156h41l288 461h-239zM398 771h306l264 422h-488zM365 0l-141 -224h-143l141 224h-165l262 1349h746l84 135h142l-84 -135h31l-30 -156h-98l-264 -422h220l-30 -154h-287l-288 -461h586l-30 -156h-652z" />
    <glyph glyph-name="uni0247" unicode="&#x247;" 
d="M932 713q0 90 -30 150l-143 -222h169zM302 356q0 -78 40 -142l185 289h-212q-13 -69 -13 -147zM702 969q-133 0 -228.5 -88t-129.5 -240h271l197 307q-46 21 -110 21zM563 115q79 0 165.5 44t128.5 122l149 -45q-69 -124 -198.5 -190t-293.5 -66q-92 0 -164 22l-273 -426
h-143l308 482q-126 100 -126 312q0 124 40 268.5t161 304t409 159.5q95 0 170 -25l261 407h142l-298 -465q111 -96 111 -296q0 -91 -21 -196l-4 -24h-416l-236 -369q49 -19 128 -19z" />
    <glyph glyph-name="uni0248" unicode="&#x248;" 
d="M331 356q0 -221 185 -221q96 0 163 71.5t93 209.5l35 181h-263l29 152h263l87 444h-311l30 156h501l-117 -600h134l-29 -152h-135l-34 -177q-42 -210 -168 -325t-307 -115t-264.5 88t-83.5 273v9l193 31z" />
    <glyph glyph-name="uni0249" unicode="&#x249;" 
d="M782 1292l38 192h200l-38 -192h-200zM234 -276q126 0 208 66.5t104 184.5l99 509h-378l26 133h378l63 323h-407l28 142h587l-91 -465h258l-26 -133h-257l-100 -512q-36 -188 -169 -292.5t-325 -104.5t-294 43l27 140q143 -34 269 -34z" />
    <glyph glyph-name="uni024A" unicode="&#x24a;" 
d="M316 452q0 -317 266 -317q155 0 265 118l161 827q-55 134 -227 134q-216 0 -304 -158.5t-124.5 -320.5t-36.5 -283zM961 -180q0 -30 16.5 -56.5t69.5 -26.5t103 14l-31 -162q-62 -14 -139 -14q-217 0 -217 195q0 41 10 93l37 191q-123 -74 -260 -74q-212 0 -323 118.5
t-111 348.5q0 165 104 544t590 379q177 0 266 -91l146 76h31l-286 -1470q-6 -35 -6 -65z" />
    <glyph glyph-name="uni024B" unicode="&#x24b;" 
d="M885 720q0 128 -53.5 186.5t-169.5 58.5t-193.5 -79t-122 -248t-44.5 -290t45.5 -178t159.5 -57t197.5 80t132 239.5t48.5 287.5zM909 -175q0 -88 90 -88q40 0 88 12l-31 -162q-53 -12 -127 -12q-205 0 -205 199q0 43 10 97l34 178l29 133h-2q-76 -110 -164.5 -159
t-228.5 -49t-215 84t-75 253q0 96 24 221q110 566 501 566q130 0 198.5 -45t98.5 -139h2q29 145 45 169h175q-22 -75 -61 -282l-179 -916q-7 -34 -7 -60z" />
    <glyph glyph-name="uni024C" unicode="&#x24c;" 
d="M1019 1016q0 180 -266 180h-272l-92 -470h280q165 0 257.5 77.5t92.5 212.5zM801 1349q209 0 311.5 -81t102.5 -223q0 -107 -52.5 -203t-149.5 -160.5t-225 -84.5l284 -597h-220l-254 575h-238l-112 -575h-191l112 575h-162l29 150h162l121 624h482z" />
    <glyph glyph-name="uni024D" unicode="&#x24d;" 
d="M523 966q0 -76 -6 -134h5q73 114 160 192t266 78q105 0 202 -17l-32 -167q-108 19 -224 19t-225 -83.5t-165 -221.5h369l-28 -146h-382l-94 -486h-180l94 486h-124l28 146h125q37 193 37 357l-2 93h171q5 -40 5 -116z" />
    <glyph glyph-name="uni024E" unicode="&#x24e;" 
d="M650 738l172 214h-261zM1141 1098h186l-28 -146h-279l-304 -368l-113 -584h-188l113 584l-161 368h-276l28 146h184l-110 251h202l104 -251h440l202 251h208z" />
    <glyph glyph-name="uni024F" unicode="&#x24f;" 
d="M548 186q13 29 62 110l176 299h-321q76 -347 83 -409zM105 -425q-73 0 -122 11l26 135q36 -6 99 -6t143.5 59t154.5 188l28 49l-144 584h-242l29 146h178l-83 341h188l74 -341h439l200 341h194l-210 -341h178l-29 -146h-239l-363 -595q-131 -230 -247 -327.5t-252 -97.5z
" />
    <glyph glyph-name="uni0250" unicode="&#x250;" 
d="M788 965q-84 0 -167 -46t-139 -122.5t-72 -159.5l-17 -89l190 4q195 3 278 71.5t83 199.5q0 64 -36 103t-120 39zM161 246q0 45 10 98l90 466q9 42 9 82q0 78 -78 79q-28 0 -61 -7l22 112q69 16 147 16t116 -36.5t38 -117.5q0 -29 -4 -63h6q89 122 188.5 174.5
t230.5 52.5t196.5 -66.5t65.5 -182.5q0 -419 -532 -427l-237 -4q-21 -111 -21 -148q0 -81 44.5 -119t150.5 -38t166 40.5t88 131.5l185 -17q-106 -292 -480 -292q-200 0 -270 79.5t-70 186.5z" />
    <glyph glyph-name="uni0251" unicode="&#x251;" 
d="M886 726q0 240 -210 239q-102 0 -165 -42t-108 -131.5t-73.5 -227.5t-28.5 -241q0 -210 193 -210q127 0 210.5 79t132.5 244.5t49 289.5zM402 -26q-140 0 -215 83.5t-75 253.5q0 96 24 221q111 566 502 566q121 0 194.5 -43t103.5 -141h2l30 168h180l-167 -859
q-27 -130 -37 -223h-172v4q0 43 24 170h-5q-69 -105 -159 -152.5t-230 -47.5z" />
    <glyph glyph-name="uni0252" unicode="&#x252;" 
d="M926 730q0 126 -48 180.5t-160 54.5t-196 -80t-131.5 -240.5t-47.5 -288.5t54 -185.5t170 -57.5t191.5 78.5t121.5 245.5t46 293zM589 -20q-244 0 -298 184h-2q-15 -77 -27.5 -118.5t-13.5 -45.5h-174q8 25 49 223l167 859h180l-38 -178h4q130 200 373 200
q306 0 306 -343q0 -94 -24 -215q-56 -284 -184.5 -425t-317.5 -141z" />
    <glyph glyph-name="uni0253" unicode="&#x253;" 
d="M926 730q0 126 -48 180.5t-160 54.5t-196 -80t-131.5 -240.5t-47.5 -288.5t54 -185.5t170 -57.5t191.5 78.5t121.5 245.5t46 293zM662 1484q66 0 142 -17l-32 -166q-54 21 -121 21q-134 0 -163 -148q-23 -119 -56 -270h4q130 200 373 200q306 0 306 -343q0 -94 -24 -215
q-56 -284 -184.5 -425t-317.5 -141q-244 0 -298 184h-2q-15 -77 -27.5 -118.5t-13.5 -45.5h-174q8 25 49 223l188 965q29 145 118 220.5t233 75.5z" />
    <glyph glyph-name="uni0254" unicode="&#x254;" 
d="M923 706q0 256 -234 257q-240 0 -315 -215l-188 12q32 96 106.5 174.5t181 123t228.5 44.5q203 0 306.5 -99t103.5 -290q0 -127 -41.5 -270.5t-124 -249.5t-199.5 -159.5t-281 -53.5t-265 86.5t-101 236.5l194 14v-6q0 -86 53 -138t179 -52t213 70.5t135.5 225.5
t48.5 289z" />
    <glyph glyph-name="uni0255" unicode="&#x255;" 
d="M894 285q0 87 -126 87q-185 0 -397 -188q53 -70 219 -70q84 0 194 35t110 136zM798 510q250 0 250 -183q0 -105 -91.5 -226t-413.5 -121q-180 0 -292 79q-46 -49 -120 -148l-106 89q87 107 141 166q-40 82 -40 266t72.5 341t217 243t332.5 86t289 -86t101 -237l-194 -14
v6q0 92 -57.5 141t-167.5 49q-204 0 -304.5 -133t-100.5 -424q0 -62 4 -90q230 196 480 196z" />
    <glyph glyph-name="uni0256" unicode="&#x256;" 
d="M886 726q0 240 -210 239q-102 0 -165 -42t-108 -131.5t-73.5 -227.5t-28.5 -241q0 -210 193 -210q127 0 210.5 79t132.5 244.5t49 289.5zM909 -180q-1 -83 81 -83q48 0 96 12l-31 -162q-53 -12 -127 -12q-199 0 -199 197q0 39 8 87.5t59 314.5h-5q-69 -105 -159 -152.5
t-230 -47.5t-215 83.5t-75 253.5q0 96 24 221q111 566 502 566q121 0 194.5 -43t103.5 -141h2l108 570h180l-310 -1599q-7 -35 -7 -65z" />
    <glyph glyph-name="uni0257" unicode="&#x257;" 
d="M886 726q0 240 -210 239q-102 0 -165 -42t-108 -131.5t-73.5 -227.5t-28.5 -241q0 -210 193 -210q127 0 210.5 79t132.5 244.5t49 289.5zM1332 1498q67 0 132 -15l-32 -168q-54 21 -113 21q-121 0 -150 -148l-188 -965q-27 -130 -37 -223h-172v4q0 43 24 170h-5
q-69 -105 -159 -152.5t-230 -47.5t-215 83.5t-75 253.5q0 96 24 221q111 566 502 566q121 0 194.5 -43t103.5 -141h2l54 288q58 296 340 296z" />
    <glyph glyph-name="uni0258" unicode="&#x258;" 
d="M688 969q-122 0 -215 -84.5t-135 -243.5h585q8 50 8 91q0 112 -60.5 174.5t-182.5 62.5zM729 1102q190 0 287.5 -106t97.5 -314t-75.5 -370t-216 -247t-316.5 -85t-280 67.5t-123 188.5l167 45q8 -74 76.5 -120t174.5 -46q140 0 240 102.5t137 285.5h-772l5 24
q56 280 209 427.5t389 147.5z" />
    <glyph glyph-name="uni0259" unicode="&#x259;" 
d="M526 113q133 0 227.5 87t130.5 241h-584l-4 -72q0 -256 230 -256zM926 700q0 129 -62 198t-170 69t-194.5 -44t-128.5 -122l-149 45q69 124 198.5 190t308.5 66t281 -100.5t102 -289.5q0 -124 -40 -268.5t-161 -304t-409 -159.5q-386 0 -386 379q0 91 21 196l4 24h772
q13 69 13 121z" />
    <glyph glyph-name="uni0259" unicode="&#x4d9;" 
d="M526 113q133 0 227.5 87t130.5 241h-584l-4 -72q0 -256 230 -256zM926 700q0 129 -62 198t-170 69t-194.5 -44t-128.5 -122l-149 45q69 124 198.5 190t308.5 66t281 -100.5t102 -289.5q0 -124 -40 -268.5t-161 -304t-409 -159.5q-386 0 -386 379q0 91 21 196l4 24h772
q13 69 13 121z" />
    <glyph glyph-name="uni025A" unicode="&#x25a;" 
d="M208 353q0 -122 46.5 -181t149.5 -59q132 0 221.5 116t123.5 350l-533 -111q-8 -64 -8 -115zM587 1102q347 0 359 -348l119 26l-3 -146q0 -55 12 -86.5t52 -31.5t108 40l27 -140q-97 -59 -169 -59t-112 62t-40 169l1 39q-19 -195 -135 -421t-431 -226q-171 0 -260 90.5
t-89 265.5q0 104 29 243l705 144q0 244 -200 244q-91 0 -163 -42.5t-112 -123.5l-149 45q136 256 451 256z" />
    <glyph glyph-name="uni025B" unicode="&#x25b;" 
d="M720 968q-141 0 -211 -52t-70 -132q-1 -79 91 -115t306 -36l-26 -135q-192 0 -294 -26q-205 -51 -205 -213q0 -145 227 -145q108 0 212 42t182 119l86 -100q-200 -195 -518 -195q-186 0 -283 64t-97 170q0 108 46 180t122 117q78 45 166 53v2q-90 10 -144 64t-54 140
t60 166t174 123q113 43 258 43q299 0 387 -185l-145 -88q-65 139 -270 139z" />
    <glyph glyph-name="uni025C" unicode="&#x25c;" 
d="M907 840q0 128 -233 128t-283 -144l-158 20q49 138 169 198t306 60t286 -64t100 -173q0 -154 -164 -243q-76 -41 -162 -51v-2q109 -11 180 -72t71 -152q-1 -91 -63 -181q-129 -185 -463 -184q-198 0 -296 60t-119 194l168 44q10 -84 78 -124t199 -40q265 0 300 185l3 29
q0 80 -96 126t-264 45l27 137q199 0 307 53t107 151z" />
    <glyph glyph-name="uni025D" unicode="&#x25d;" 
d="M825 339q0 -163 -127.5 -260.5t-347.5 -97.5t-281 93.5t-61 196.5l3 51l180 14l-2 -44q0 -79 41 -129t158 -50t187 58.5t70 165.5q0 68 -47.5 107t-149.5 39h-96l28 141h90q140 0 191 69t51 133t-41.5 103.5t-127.5 39.5q-173 0 -244 -204l-176 16q52 154 169 237.5
t266 83.5t232.5 -50.5t100.5 -142.5l142 24l3 -129q1 -68 17.5 -101.5t68.5 -33.5t139 40l30 -147q-134 -52 -224 -52t-142 62.5t-54 170.5q-59 -130 -249 -185q100 -17 151.5 -74t51.5 -145z" />
    <glyph glyph-name="uni025E" unicode="&#x25e;" 
d="M550 -19q-435 0 -435 412q0 210 75 371t217.5 249.5t330.5 88.5t289.5 -68.5t101.5 -186.5q0 -208 -271 -282q205 -35 205 -204q0 -105 -66 -193.5t-184 -137.5t-263 -49zM306 407q0 -149 62 -221.5t202 -72.5t226 67t86 170q0 133 -200 133h-96l27 141h90
q141 0 191.5 66.5t50.5 131.5t-52.5 106t-152.5 41q-434 0 -434 -562z" />
    <glyph glyph-name="uni025F" unicode="&#x25f;" 
d="M204 -253q127 0 183.5 23.5t91.5 76.5t55 153h-491l28 142h491l182 940h180l-182 -940h262l-28 -142h-262l-5 -25q-40 -202 -152 -289.5t-315 -87.5t-301 21l28 145q108 -17 235 -17z" />
    <glyph glyph-name="uni0260" unicode="&#x260;" 
d="M308 346q0 -200 186 -201q179 0 286 165.5t107 405.5q0 107 -56.5 178t-153.5 71t-159.5 -39.5t-106.5 -122t-73.5 -220t-29.5 -237.5zM805 221q-137 -209 -401 -209q-284 0 -284 316q0 125 40.5 292.5t139.5 323t352 155.5q113 0 185 -52.5t98 -149.5h4l59 305
q29 146 117.5 221t229.5 75q57 0 122 -14l-32 -166q-46 18 -104 18q-128 0 -157 -148l-225 -1156q-88 -456 -521 -456q-171 0 -259 70.5t-90 196.5l189 25q2 -75 51 -115.5t141 -40.5q247 0 309 315l38 194h-2z" />
    <glyph glyph-name="uni0261" unicode="&#x261;" 
d="M291 346q1 -200 187 -201q179 1 286 167q106 164 106 404q0 107 -56 178t-154 71q-96 0 -159 -39t-107 -122q-44 -82 -74 -220t-29 -238zM443 -288q250 0 309 315l38 194h-2q-141 -209 -384 -209q-156 0 -228 78t-73 220q0 142 40 310t106 270q133 208 386 209
q113 -1 186 -53t99 -149h3q7 37 25 107t23 78h171l-49 -224l-161 -826q-88 -456 -521 -456q-169 0 -257 69t-92 198l189 25q2 -76 51 -116t141 -40z" />
    <glyph glyph-name="uni0262" unicode="&#x262;" 
d="M531 -20q-422 0 -422 409q0 205 77 366.5t224.5 254t319.5 92.5t266.5 -85.5t94.5 -237.5l-188 -14v7q0 85 -47 137t-155 52q-187 0 -296 -152.5t-109 -410.5q0 -148 65 -214t199 -66t253 67l43 219h-249l27 137h431l-82 -418q-88 -67 -207 -105t-245 -38z" />
    <glyph glyph-name="uni0263" unicode="&#x263;" 
d="M391 -206q0 -74 59 -74q47 0 73 36t26 106t-37 175q-121 -169 -121 -243zM705 -116q0 -99 -34 -164t-97.5 -105t-151.5 -40t-139 49.5t-51 135.5t45 166.5t149 223.5l-272 932h201l208 -762l514 762h207l-645 -931q66 -168 66 -267z" />
    <glyph glyph-name="uni0264" unicode="&#x264;" 
d="M506 -24q-192 0 -192 194q0 97 122 250q32 40 74 101l-72 304q-12 53 -29.5 79.5t-52.5 26.5q-63 0 -143 -91l-44 -50l-92 111q151 188 313 188q100 0 149.5 -46t66.5 -151l26 -151l8 -70l35 70l84 151q60 108 127 152.5t155 44.5q173 0 251 -188l-136 -111
q-30 66 -57.5 103.5t-68.5 37.5q-40 0 -68 -26.5t-61 -79.5l-190 -303l29 -84q46 -132 46 -200t-54 -165t-226 -97zM628 244q0 54 -39 160l-39 -53q-72 -96 -72 -163t56 -67q45 0 69.5 34.5t24.5 88.5z" />
    <glyph glyph-name="uni0265" unicode="&#x265;" 
d="M400 -20q-132 0 -201 58.5t-69 184.5q0 60 15 138l140 721h180l-133 -686q-14 -74 -14 -140t41.5 -101.5t155.5 -35.5t206.5 87t124.5 249l122 627h181l-293 -1507h-180l80 409q18 100 47 201h-3q-83 -112 -175.5 -158.5t-224.5 -46.5z" />
    <glyph glyph-name="uni0266" unicode="&#x266;" 
d="M655 1498q68 0 139 -16l-32 -165q-49 19 -115 19q-126 0 -154 -142l-19 -100q-11 -56 -48 -197h3q144 205 379 205q289 0 289 -258q0 -55 -13 -123l-140 -721h-181l135 695q10 55 10 97q0 86 -41 128.5t-151 42.5t-206.5 -90.5t-127.5 -245.5l-122 -627h-180l234 1202
q58 296 341 296z" />
    <glyph glyph-name="uni0267" unicode="&#x267;" 
d="M655 1498q68 0 139 -16l-32 -165q-49 19 -115 19q-126 0 -154 -142l-19 -100q-11 -56 -48 -197h3q144 205 379 205q289 0 289 -258q0 -55 -13 -123l-166 -855q-29 -152 -103 -221.5t-195 -69.5q-76 0 -125 9l27 139l61 -6q70 0 104.5 36.5t54.5 139.5l156 802
q10 55 10 97q0 86 -41 128.5t-151 42.5t-206.5 -90.5t-127.5 -245.5l-122 -627h-180l234 1202q58 296 341 296z" />
    <glyph glyph-name="uni0268" unicode="&#x268;" 
d="M691 1292l37 192h200l-37 -192h-200zM760 617h214l-26 -133h-214l-66 -342h380l-28 -142h-982l28 142h422l66 342h-233l26 133h233l63 323h-319l27 142h499z" />
    <glyph glyph-name="uni0269" unicode="&#x269;" 
d="M639 228q0 -31 17.5 -58.5t62.5 -27.5t89 11l-31 -160q-52 -10 -97 -10q-226 0 -226 201q0 42 10 95l128 661h-268l28 142h447l-153 -789q-7 -34 -7 -65z" />
    <glyph glyph-name="uni026A" unicode="&#x26a;" 
d="M310 1082h819l-27 -142h-320l-155 -798h320l-28 -142h-819l28 142h319l155 798h-319z" />
    <glyph glyph-name="uni026B" unicode="&#x26b;" 
d="M811 643q-36 0 -54 5l-98 -506h380l-28 -142h-982l28 142h422l111 573q-24 8 -56 8q-60 0 -79 -95h-130q22 103 87 165.5t150 62.5l54 -5l96 491h-289l27 142h469l-136 -702q15 -6 47 -6t49 23.5t32 71.5h130q-44 -228 -230 -228z" />
    <glyph glyph-name="uni026C" unicode="&#x26c;" 
d="M628 946q-60 0 -97.5 -37.5t-37.5 -97.5q0 -81 93 -81h7l42 216h-7zM563 601q-85 0 -139 52.5t-54 156.5t81 177.5t199 73.5h7l55 281h-289l27 142h469l-146 -754h169l-25 -129h-169l-89 -459h380l-28 -142h-982l28 142h422l89 459h-5z" />
    <glyph glyph-name="uni026D" unicode="&#x26d;" 
d="M560 -174q0 -89 91 -89q56 0 105 15l-32 -162q-71 -15 -117 -15q-233 0 -233 204q0 41 10 92l286 1471h-289l27 142h469l-310 -1599q-7 -34 -7 -59z" />
    <glyph glyph-name="uni026E" unicode="&#x26e;" 
d="M1077 163q0 -155 -80.5 -292t-221 -216.5t-310.5 -79.5q-382 0 -401 302l181 21q17 -182 247 -182q112 0 204 59t144.5 158t52.5 215t-78 189.5t-210 73.5h-82l28 144l458 386h-566l-183 -941h-180l288 1484h180l-78 -402h756l-34 -178l-440 -364q152 -19 238.5 -120.5
t86.5 -256.5z" />
    <glyph glyph-name="uni026F" unicode="&#x26f;" 
d="M214 -20q-166 0 -167 180q0 89 22 201l140 721h168l-133 -686q-21 -112 -21 -171t19.5 -82.5t61.5 -23.5q65 0 120.5 84.5t87.5 251.5l122 627h168l-133 -686q-21 -112 -21 -171t19.5 -82.5t61.5 -23.5q63 0 121 94t91 262l118 607h169l-165 -851q-10 -50 -20.5 -113
l-14.5 -87t-4 -31h-149l28 175h-2q-100 -195 -254 -195q-88 0 -122 47.5t-34 142.5v6h-2q-61 -106 -125 -151t-150 -45z" />
    <glyph glyph-name="uni0270" unicode="&#x270;" 
d="M214 -20q-166 0 -167 180q0 89 22 201l140 721h168l-133 -686q-21 -112 -21 -171t19.5 -82.5t61.5 -23.5q65 0 120.5 84.5t87.5 251.5l122 627h168l-133 -686q-21 -112 -21 -171t19.5 -82.5t61.5 -23.5q63 0 121 94t91 262l118 607h169l-293 -1507h-167q79 404 118 572
h-2q-95 -167 -237 -167q-88 0 -122 47.5t-34 142.5v6h-2q-61 -106 -125 -151t-150 -45z" />
    <glyph glyph-name="uni0271" unicode="&#x271;" 
d="M1014 1102q166 0 167 -178q0 -88 -22 -203l-166 -855q-29 -152 -103 -221.5t-195 -69.5q-63 0 -112 9l27 139l61 -6q70 0 104.5 36.5t54.5 139.5l154 793q21 112 21 171t-19.5 82.5t-61.5 23.5q-65 0 -120.5 -85t-87.5 -251l-122 -627h-168l133 686q21 112 21 171
t-19.5 82.5t-61.5 23.5q-63 0 -121 -94t-91 -262l-118 -607h-169l165 851q10 50 20.5 113l14.5 87t4 31h149l-19 -127l-9 -48h2q57 106 117.5 150.5t142.5 44.5t116 -47.5t34 -142.5v-6h2q61 106 125 151t150 45z" />
    <glyph glyph-name="uni0272" unicode="&#x272;" 
d="M815 1102q282 0 282 -254q0 -57 -13 -127l-140 -721h-181l135 695q10 55 10 97q0 86 -41 128.5t-151 42.5t-206.5 -90.5t-127.5 -245.5l-148 -761q-29 -152 -103 -221.5t-194 -69.5q-76 0 -125 9l27 139l61 -6q70 0 104.5 36.5t54.5 139.5l186 958q10 50 20.5 113
l14.5 87t4 31h170q0 -42 -28 -185h3q149 205 386 205z" />
    <glyph glyph-name="uni0273" unicode="&#x273;" 
d="M815 1102q282 0 282 -254q0 -57 -13 -127l-162 -836q-6 -32 -6 -57q0 -91 94 -91q63 0 109 16l-32 -164q-66 -14 -126 -14q-233 0 -233 204q0 41 10 92l160 824q10 55 10 97q0 86 -41 128.5t-151 42.5t-206.5 -90.5t-127.5 -245.5l-122 -627h-180l165 851q10 50 20.5 113
l14.5 87t4 31h170q0 -42 -28 -185h3q149 205 386 205z" />
    <glyph glyph-name="uni0274" unicode="&#x274;" 
d="M464 1082l328 -685q10 -20 38 -104l20 125l129 664h170l-210 -1082h-167l-321 699q-25 54 -48 129q-9 -65 -17.5 -120t-136.5 -708h-169l210 1082h174z" />
    <glyph glyph-name="uni0275" unicode="&#x275;" 
d="M692 969q-258 0 -354 -344h583q7 46 7 95q0 125 -54 187t-182 62zM301 373q0 -260 223 -260q149 0 239 95t134 286h-586l-1 1q-9 -63 -9 -122zM724 1102q393 0 393 -370q0 -134 -42 -284t-123 -256q-162 -212 -452 -212q-188 0 -288 98t-100 289q0 79 18 175
q54 280 208 420t386 140z" />
    <glyph glyph-name="uni0276" unicode="&#x276;" 
d="M601 747q0 114 -27.5 168t-101.5 54t-138 -73t-100.5 -220t-36.5 -329q0 -234 113 -234q142 0 216.5 159.5t74.5 432.5v42zM278 -20q-248 0 -248 368q0 221 57 393.5t162 266.5t245 94q72 0 112 -20t63 -63l12 63h588l-27 -137h-436l-62 -320h394l-25 -130h-394l-71 -362
h456l-25 -133h-608l14 75q-85 -95 -207 -95z" />
    <glyph glyph-name="uni0277" unicode="&#x277;" 
d="M552 237q-100 -257 -308 -257q-102 0 -164.5 80t-62.5 250q0 238 89 418.5t250 277t372 96.5t332 -126t121 -336t-53.5 -356.5t-150.5 -225t-205 -78.5q-218 0 -220 257zM766 112q117 0 180.5 118t63.5 297t-54.5 308.5t-259.5 129.5q-313 0 -411.5 -234.5t-98.5 -426.5
t109 -192q78 0 134 88t95 283l21 106h159q-44 -220 -46 -309q0 -168 108 -168z" />
    <glyph glyph-name="uni0278" unicode="&#x278;" 
d="M300 396q0 -238 145 -274l162 836q-150 -35 -228.5 -179.5t-78.5 -382.5zM930 695q0 238 -158 268l-164 -843q322 63 322 575zM1119 704q0 -319 -139.5 -505.5t-397.5 -213.5l-80 -410h-164l80 410q-149 19 -228 121t-79 286q0 307 136 490.5t387 214.5l76 387h164
l-75 -386q320 -31 320 -394z" />
    <glyph glyph-name="uni0279" unicode="&#x279;" 
d="M319 145q160 0 283 121t159 308l99 508h180l-136 -701q-24 -125 -24 -316l2 -65h-171q-6 48 -6 120t6 130h-5q-73 -113 -160 -191.5t-265 -78.5q-106 0 -203 17l32 167q109 -19 209 -19z" />
    <glyph glyph-name="uni027A" unicode="&#x27a;" 
d="M319 145q160 0 283 121t159 308l177 910h180l-214 -1103q-24 -125 -24 -316l2 -65h-171q-6 48 -6 120t6 130h-5q-73 -113 -160 -191.5t-265 -78.5q-106 0 -203 17l32 167q109 -19 209 -19z" />
    <glyph glyph-name="uni027B" unicode="&#x27b;" 
d="M319 145q160 0 283 121t159 308l99 508h180l-234 -1202q-7 -35 -7 -65t16.5 -56.5t70.5 -26.5t103 14l-31 -160q-62 -11 -132 -11q-207 0 -207 197q0 44 11 99l71 363h-6q-68 -103 -154 -178.5t-260 -75.5q-106 0 -203 17l32 167q109 -19 209 -19z" />
    <glyph glyph-name="uni027C" unicode="&#x27c;" 
d="M910 937q-161 0 -284.5 -122.5t-158.5 -306.5l-181 -933h-180l219 1126q24 124 24 282l-2 99h171q5 -40 5 -116t-6 -134h5q73 114 160 192t266 78q103 0 203 -17l-33 -167q-107 19 -208 19z" />
    <glyph glyph-name="uni027D" unicode="&#x27d;" 
d="M910 937q-160 0 -283 -121t-159 -308l-121 -623q-7 -35 -7 -65t17 -56.5t71 -26.5t100 13l-32 -164q-20 -3 -43 -7t-70 -4q-229 0 -229 201q0 42 10 95l161 830q24 124 24 282l-2 99h171q6 -48 6 -120t-6 -130h5q73 113 160 191.5t265 78.5q106 0 203 -17l-33 -167
q-107 19 -208 19z" />
    <glyph glyph-name="uni027E" unicode="&#x27e;" 
d="M946 1102q102 0 205 -19l-33 -167q-97 21 -200 21q-193 0 -308 -105t-156 -323l-99 -509h-176l100 516q54 283 227 434.5t440 151.5z" />
    <glyph glyph-name="uni027F" unicode="&#x27f;" 
d="M778 657q0 280 -313 280q-103 0 -208 -21l32 167q109 19 212 19q223 0 340 -107t118 -308q0 -78 -19 -171l-183 -941h-176l182 934q15 81 15 148z" />
    <glyph glyph-name="uni0280" unicode="&#x280;" 
d="M645 575q128 0 194 58t66 166q0 65 -44.5 105.5t-147.5 40.5h-270l-72 -370h274zM756 1082q164 0 253 -65.5t89 -188.5q0 -300 -334 -377l265 -451h-218l-247 439h-220l-85 -439h-180l210 1082h467z" />
    <glyph glyph-name="uni0281" unicode="&#x281;" 
d="M1010 386q0 -188 -124 -287t-340 -99h-467l210 1082h180l-85 -439h220l417 439h218l-440 -451q211 -57 211 -245zM556 137q127 0 195 57t68 167q0 146 -187 146h-274l-72 -370h270z" />
    <glyph glyph-name="uni0282" unicode="&#x282;" 
d="M705 965q-277 0 -277 -175q0 -49 37 -80.5t120 -52.5q218 -57 327 -107.5t109 -193.5q0 -172 -139.5 -274t-345.5 -102t-296 59l-31 -159q-6 -29 -6 -50q0 -93 100 -93q59 0 101 12l-31 -162q-20 -3 -47 -7.5t-69 -4.5q-230 0 -230 203q0 41 10 93l73 377l165 31
q4 -117 78.5 -141t206.5 -24t208 50.5t76 144.5q0 53 -42 87t-138 60q-206 55 -309 100.5t-103 182.5q0 165 128 262.5t328 97.5q385 0 385 -260l-166 -20v5q0 72 -53.5 106.5t-168.5 34.5z" />
    <glyph glyph-name="uni0283" unicode="&#x283;" 
d="M201 -425q-78 0 -130 19l31 160q57 -24 123 -24t108.5 48t68.5 185l227 1167q33 171 125.5 262.5t240.5 91.5q108 0 148 -18l-33 -167q-43 27 -114 27t-118.5 -50.5t-74.5 -182.5l-226 -1163q-68 -355 -376 -355z" />
    <glyph glyph-name="uni0284" unicode="&#x284;" 
d="M1007 1484q91 0 136 -18l-33 -167q-43 27 -114 27t-118.5 -50.5t-74.5 -182.5l-185 -953h170l-27 -140h-170l-14 -70q-37 -183 -130.5 -269t-245.5 -86q-78 0 -130 19l31 160q57 -24 112 -24t90 23t57.5 67t47.5 180h-193l27 140h194l192 990q68 354 378 354z" />
    <glyph glyph-name="uni0285" unicode="&#x285;" 
d="M575 -164q0 -106 104 -106q56 0 122 24l-31 -160q-59 -19 -160 -19t-160 55t-60 172q0 56 14 128l152 781q13 66 13 109q0 124 -118 124q-66 0 -120 -27l32 167q48 18 135 18q261 0 261 -229q0 -50 -12 -114l-154 -796q-18 -95 -18 -127z" />
    <glyph glyph-name="uni0286" unicode="&#x286;" 
d="M128 -194q0 -87 93 -87q60 0 105.5 44.5t63.5 129.5q-69 49 -128 49t-96.5 -38.5t-37.5 -97.5zM195 -425q-134 0 -179.5 71.5t-45.5 147.5t38.5 145t112 108.5t155.5 39.5t145 -24l207 1067q33 173 126.5 263.5t240.5 90.5q108 0 148 -18l-33 -167q-43 27 -104 27
t-98 -25t-61 -68.5t-44 -139.5l-222 -1142q79 -84 173 -260l-133 -117l-117 189q-118 -188 -309 -188z" />
    <glyph glyph-name="uni0287" unicode="&#x287;" 
d="M765 1133q0 33 -30 65.5t-145 32.5t-285 -34l26 137q184 46 345 46t218.5 -58.5t57.5 -146.5q0 -37 -8 -80l-130 -671h168l-28 -142h-170l-113 -282h-120l55 282h-432l28 142h431l127 652q5 24 5 57z" />
    <glyph glyph-name="uni0288" unicode="&#x288;" 
d="M405 -178q0 -33 29.5 -65.5t144.5 -32.5t285 34l-26 -137q-176 -46 -341 -46t-223 58.5t-58 145.5q0 37 9 81l210 1080h-168l28 142h170l113 282h120l-55 -282h432l-28 -142h-432l-206 -1061q-4 -24 -4 -57z" />
    <glyph glyph-name="uni0289" unicode="&#x289;" 
d="M515 119q114 0 205.5 86.5t125.5 249.5l6 29h-503l-17 -88q-14 -74 -14 -140t41.5 -101.5t155.5 -35.5zM775 0q0 21 28 185h-3q-83 -112 -175.5 -158.5t-224.5 -46.5t-201 58.5t-69 184.5q0 60 15 138l24 123h-107l26 133h107l90 465h180l-90 -465h503l90 465h181
l-90 -465h108l-26 -133h-108l-49 -253q-10 -50 -20.5 -113l-14.5 -87t-4 -31h-170z" />
    <glyph glyph-name="uni028A" unicode="&#x28a;" 
d="M493 -20q-180 0 -292.5 102.5t-112.5 286.5t131 325q91 96 111 126t20 60q0 64 -73 63h-82l27 139h124q76 0 120.5 -41t44.5 -109t-27.5 -126.5t-85.5 -126.5q-116 -135 -117 -273q0 -138 66.5 -210.5t180.5 -72.5t202 54t137 147.5t49 175.5t-32 180t-33 161
q0 107 68 174t173 67h124l-27 -139h-82q-49 0 -75.5 -26t-26.5 -61t15 -68t48 -104.5t33 -166.5q0 -150 -76.5 -273t-214 -193.5t-317.5 -70.5z" />
    <glyph glyph-name="uni028B" unicode="&#x28b;" 
d="M510 -20q-186 0 -282 72q-95 72 -95 231q0 70 14 136l129 663h181l-130 -669q-9 -49 -9 -90q0 -204 223 -204q132 1 217 81q86 80 134 248t48 346t-34 288h188q33 -118 33 -314t-77 -392q-78 -196 -216 -296t-324 -100z" />
    <glyph glyph-name="uni028C" unicode="&#x28c;" 
d="M618 1082h213l223 -1082h-197l-131 704q-9 68 -18 185l-5 52l-26 -52q-57 -121 -94 -183l-413 -706h-206z" />
    <glyph glyph-name="uni028D" unicode="&#x28d;" 
d="M590 409q43 99 337 673h203l-27 -1082h-178l25 607q2 57 12.5 174.5t17.5 151.5l-99 -214l-218 -424h-193l-47 425l-14 213q-17 -84 -53.5 -192.5t-44.5 -133.5l-219 -607h-176l400 1082h204l52 -471z" />
    <glyph glyph-name="uni028E" unicode="&#x28e;" 
d="M1112 1507q86 0 135 -11l-26 -135q-38 6 -100 6t-143 -59t-154 -188l-28 -49l262 -1071h-187l-139 642q-49 229 -49 254q-7 -16 -525 -896h-195l665 1099q112 185 182 262.5t143 111.5t159 34z" />
    <glyph glyph-name="uni028F" unicode="&#x28f;" 
d="M413 0l85 440l-334 642h202l246 -498l449 498h213l-596 -645l-85 -437h-180z" />
    <glyph glyph-name="uni0290" unicode="&#x290;" 
d="M933 -192q0 -70 77 -71q52 0 92 11l-31 -161q-70 -12 -128 -12q-194 0 -194 191q0 46 12 105l25 129h-744l27 137l837 806h-641l27 139h844l-26 -137l-839 -806h719l-49 -254q-8 -41 -8 -77z" />
    <glyph glyph-name="uni0291" unicode="&#x291;" 
d="M952 253q0 69 -91 69t-249 -183h172q92 0 130 27.5t38 86.5zM895 467q105 0 160 -50t55 -134q0 -283 -344 -283h-253q-45 -63 -117 -178l-127 61l78 117h-305l27 137l817 806h-621l27 139h824l-26 -137l-819 -806h173q257 328 451 328z" />
    <glyph glyph-name="uni0292" unicode="&#x292;" 
d="M187 -60q0 -228 248 -228q118 0 205.5 56t136.5 156t49 222t-74 193.5t-215 71.5h-82l28 144l468 386h-693l27 141h873l-34 -176l-453 -362q157 -20 247.5 -119t90.5 -259t-78 -299t-211 -215.5t-284 -76.5t-242 39t-139 110.5t-48 192.5l1 35l180 12z" />
    <glyph glyph-name="uni0293" unicode="&#x293;" 
d="M379 -295q181 0 298 105q-146 141 -311 141q-83 0 -131 -34t-48 -91t53.5 -89t138.5 -32zM1009 156q0 -167 -124 -328q62 -68 104 -129l-124 -125l-97 136q-174 -135 -392 -135q-163 0 -258.5 62.5t-95.5 170.5q0 80 69.5 179.5t309.5 99.5q188 0 372 -149q53 111 53 221
t-75.5 181t-212.5 71h-83l28 144l468 386h-693l27 141h873l-34 -176l-453 -362q157 -19 247.5 -120t90.5 -268z" />
    <glyph glyph-name="uni0294" unicode="&#x294;" 
d="M741 1343q-220 0 -307 -204l-182 14q62 152 202 241.5t320 89.5q395 0 395 -399q0 -196 -72 -353.5t-202.5 -245.5t-304.5 -100l-75 -386h-180l105 542q50 -18 118 -18q199 0 311 148.5t112 402.5q0 137 -57.5 202.5t-182.5 65.5z" />
    <glyph glyph-name="uni0295" unicode="&#x295;" 
d="M191 790q0 207 74.5 362t220.5 243.5t326 88.5t279 -88t101 -243l-187 -14q-2 98 -61.5 151t-166.5 53q-190 0 -291.5 -138t-101.5 -383q0 -142 64.5 -220t193.5 -78q67 0 125 18l-106 -542h-180l75 386q-365 27 -365 404z" />
    <glyph glyph-name="uni0296" unicode="&#x296;" 
d="M1089 674q0 -206 -74.5 -362t-221.5 -244t-325 -88t-278 88.5t-102 242.5l188 14q2 -100 61 -152t166 -52q187 0 290.5 137t103.5 384q0 142 -64.5 220t-194.5 78q-68 0 -124 -18l109 562h180l-79 -406q365 -27 365 -404z" />
    <glyph glyph-name="uni0297" unicode="&#x297;" 
d="M451 -426q-389 0 -389 496q0 327 82 559t239 352.5t355 120.5t296 -85.5t98 -237.5l-194 -14q0 196 -216 196q-296 0 -382 -308.5t-86 -561.5q0 -375 225 -375t300 212l188 -12q-52 -152 -190.5 -247t-325.5 -95z" />
    <glyph glyph-name="uni0298" unicode="&#x298;" 
d="M529 606l43 219h195l-43 -219h-195zM304 488q0 -353 231 -353q277 0 360 257t83 479q0 343 -232 343q-277 0 -359.5 -249.5t-82.5 -476.5zM506 -20q-404 0 -404 512q0 257 80.5 460.5t233.5 310.5t360 107q403 0 403 -502q0 -254 -82.5 -459.5t-237 -317t-353.5 -111.5z
" />
    <glyph glyph-name="uni0299" unicode="&#x299;" 
d="M637 625q199 0 247 96q26 50 26 109t-46 87t-150 28h-270l-63 -320h256zM562 133q156 0 221 57q69 62 69 186q0 120 -232 119h-264l-70 -362h276zM1044 370q0 -72 -32 -142t-96 -122q-130 -106 -351 -106h-485l210 1082h462q354 0 354 -214q0 -110 -72 -190t-204 -105
l-1 -7q215 -27 215 -196z" />
    <glyph glyph-name="uni029A" unicode="&#x29a;" 
d="M1117 688q0 -347 -165.5 -527t-478.5 -180q-195 0 -300 69t-105 194t80 207.5t227 106.5q-179 58 -179 197q0 98 63.5 178t180.5 124.5t265 44.5q198 0 305 -106t107 -308zM570 483q-318 0 -318 -213q0 -70 61 -113.5t183 -43.5q220 0 326 142.5t106 426.5q0 145 -65 216
t-199 71t-210 -55.5t-76 -133.5t60 -117t165 -39h59l-28 -141h-64z" />
    <glyph glyph-name="uni029B" unicode="&#x29b;" 
d="M531 -20q-422 0 -422 409q0 205 77 366.5t225 254t316 92.5t253 -79q30 123 112 191.5t198 68.5q48 0 96 -12l-29 -150q-33 16 -87 16q-109 0 -138 -148l-41 -210l-188 -14v7q0 85 -47 137t-155 52q-187 0 -296 -152.5t-109 -410.5q0 -148 65 -214t199 -66t253 67l43 219
h-249l27 137h431l-82 -418q-88 -67 -207 -105t-245 -38z" />
    <glyph glyph-name="uni029C" unicode="&#x29c;" 
d="M466 1082l-89 -458h507l89 458h180l-210 -1082h-180l96 493h-507l-96 -493h-180l210 1082h180z" />
    <glyph glyph-name="uni029D" unicode="&#x29d;" 
d="M691 1292l37 192h200l-37 -192h-200zM101 -182q0 -101 140 -101q72 0 128.5 54t77.5 160l5 24h-184q-167 0 -167 -137zM-69 -207q0 301 358 301h189l165 846h-316l27 142h496l-192 -988h336l-27 -139h-336l-7 -37q-19 -98 -105.5 -220.5t-291.5 -122.5q-140 0 -218 57.5
t-78 160.5z" />
    <glyph glyph-name="uni029E" unicode="&#x29e;" 
d="M420 1082l269 -499l151 98l78 401h180l-288 -1484h-180l180 927l-577 -525h-211l529 465l-342 617h211z" />
    <glyph glyph-name="uni029F" unicode="&#x29f;" 
d="M940 0h-780l210 1082h180l-181 -933h600z" />
    <glyph glyph-name="uni02A0" unicode="&#x2a0;" 
d="M885 720q0 128 -53.5 186.5t-169.5 58.5t-193.5 -79t-122 -248t-44.5 -290t45.5 -178t159.5 -57t197.5 80t132 239.5t48.5 287.5zM637 1098q130 0 198.5 -45t98.5 -139h2l58 288q27 143 115 219.5t231 76.5q55 0 93 -8l35 -8l-32 -166q-60 20 -112 20q-123 0 -154 -148
l-314 -1613h-181q103 524 122 607h-2q-76 -110 -164.5 -159t-228.5 -49t-215 84t-75 253q0 96 24 221q110 566 501 566z" />
    <glyph glyph-name="uni02A1" unicode="&#x2a1;" 
d="M775 1484q395 0 395 -399q0 -197 -72.5 -355t-203.5 -245t-304 -99l-21 -110h341l-24 -123h-341l-30 -153h-180l30 153h-307l24 123h307l52 266q48 -18 117 -18q201 0 312 148.5t111 402.5q0 137 -57.5 202.5t-175.5 65.5t-196.5 -54t-116.5 -150l-183 14
q61 150 201 240.5t322 90.5z" />
    <glyph glyph-name="uni02A2" unicode="&#x2a2;" 
d="M191 790q0 207 74.5 362t220.5 243.5t326 88.5t279 -88t101 -243l-187 -14q-2 98 -61.5 151t-166.5 53q-190 0 -291.5 -138t-101.5 -383q0 -142 64.5 -220t193.5 -78q67 0 125 18l-52 -266h307l-24 -123h-307l-30 -153h-180l30 153h-341l24 123h341l21 110
q-365 27 -365 404z" />
    <glyph glyph-name="uni02A3" unicode="&#x2a3;" 
d="M593 125l514 818h-355zM271 119q76 0 137.5 81t98.5 229t37 316q0 224 -106 224q-122 0 -187.5 -163.5t-65.5 -452.5v-28q0 -206 86 -206zM190 -20q-93 0 -135.5 73t-42.5 265t54 387t145 296t204 101q73 0 117.5 -33t61.5 -115h2l102 530h159l-78 -402h528l-26 -132
l-514 -811h384l-27 -139h-703q7 67 23 144h-3q-88 -164 -251 -164z" />
    <glyph glyph-name="uni02A4" unicode="&#x2a4;" 
d="M271 119q76 0 137.5 81t98.5 229t37 316q0 224 -106 224q-122 0 -187.5 -163.5t-65.5 -452.5v-28q0 -206 86 -206zM976 187q0 224 -156 224h-46l17 116l314 416h-353l-159 -818l-14 -125h-158q7 67 23 144h-3q-88 -164 -251 -164q-93 0 -135.5 73t-42.5 265t54 387
t145 296t204 101q73 0 117.5 -33t61.5 -115h2l102 530h159l-78 -402h532l-25 -127l-319 -419q182 -49 182 -312q0 -184 -58.5 -334.5t-163.5 -232.5t-241 -82t-200.5 61.5t-72.5 207.5l161 24q6 -84 38 -120t100 -36t130.5 65t98 175t35.5 235z" />
    <glyph glyph-name="uni02A5" unicode="&#x2a5;" 
d="M1025 243q-1 44 -49 44t-90 -36.5t-96 -111.5h75q160 0 160 104zM625 391l457 552h-350zM251 119q76 0 137.5 81t98.5 229t37 316q0 224 -106 224q-122 0 -187.5 -163.5t-65.5 -452.5v-28q0 -206 86 -206zM1002 421q172 0 172 -148q0 -131 -82 -202t-250 -71h-138
q-84 -139 -102 -173l-120 56l68 117h-149q7 67 23 144h-3q-88 -164 -251 -164q-93 0 -135.5 73t-42.5 265t54 387t145 296t204 101q73 0 117.5 -33t61.5 -115h2l102 530h159l-78 -402h528l-26 -132l-684 -811h59q110 159 191 220.5t175 61.5z" />
    <glyph glyph-name="uni02A6" unicode="&#x2a6;" 
d="M229 230q0 -90 95 -90h366q136 0 207 50.5t71 134.5t-49 111t-147 56t-178.5 80t-80.5 164.5t82 214.5h-230l-130 -667q-6 -30 -6 -54zM1056 820q0 143 -164 143q-202 0 -202 -178q0 -66 45.5 -92.5t120.5 -52.5t181.5 -63.5t106.5 -205.5t-127 -269.5t-349 -101.5h-423
q-116 0 -151 50t-35 100t9 95l137 706h-125l25 131h132l80 242h120l-47 -242h390q70 17 137 17q300 0 300 -251v-14l-161 -20v6z" />
    <glyph glyph-name="uni02A7" unicode="&#x2a7;" 
d="M341 231q0 -33 30 -65.5t131 -32.5t251 25l152 782h-432l-127 -652q-5 -24 -5 -57zM1308 1484q108 0 148 -18l-32 -167q-46 27 -116 27t-117.5 -50.5t-74.5 -182.5l-226 -1163q-69 -355 -376 -355q-78 0 -130 19l31 160q57 -24 103 -24t74 10t50 32.5t38.5 60t45.5 185.5
q-156 -34 -306 -34t-208.5 58.5t-58.5 145.5q0 37 9 81l130 671h-167l27 142h170l113 282h120l-55 -282h433l9 48q33 175 126.5 264.5t239.5 89.5z" />
    <glyph glyph-name="uni02A8" unicode="&#x2a8;" 
d="M783 114q115 0 175.5 42.5t60.5 119.5q0 39 -22.5 62.5t-67.5 23.5q-86 0 -214 -113l-77 -65q30 -70 145 -70zM1087 785q-1 176 -161 176t-247.5 -145.5t-87.5 -408.5v-27q0 -55 5 -78q139 121 215.5 159.5t162.5 38.5t141.5 -49t55.5 -141t-77.5 -211t-344.5 -119
q-160 0 -240 100q-132 -100 -271 -100q-93 0 -146 50t-53 140q0 32 7 69l138 712h-124l25 131h132l80 242h120l-47 -242h176l-25 -131h-177l-128 -661q-7 -36 -7 -74q0 -80 104 -81q60 0 135 53q-27 73 -27 206q0 216 64.5 375.5t189 246t286.5 86.5q293 0 293 -305v-18
l-167 -14v20z" />
    <glyph glyph-name="uni02A9" unicode="&#x2a9;" 
d="M1001 1102q178 0 178 -201q0 -74 -20 -180l-165 -850q-58 -296 -318 -296q-57 0 -123 16l32 164q44 -18 107 -18q108 0 137 148l155 801q21 112 21 170t-22 82.5t-72 24.5q-74 0 -133.5 -87t-91.5 -249l-122 -627h-166l184 951h-216l-185 -951h-166l185 951h-120l25 131
h120l24 122q30 150 102.5 214t195.5 64q68 0 116 -12l-27 -137q-44 8 -90 8t-83 -36t-53 -126l-19 -97h368l-23 -154h2q55 94 117 134t146 40z" />
    <glyph glyph-name="uni02AA" unicode="&#x2aa;" 
d="M652 117q154 0 243.5 51.5t89.5 133.5t-58 112t-201 69t-234.5 91t-91.5 176q0 164 125 256.5t329 92.5t296.5 -63t93.5 -202l-166 -20q-4 149 -227 149q-270 0 -270 -172q0 -65 56.5 -94t200.5 -67q144 -39 236 -92.5t92 -175.5t-69 -206t-196 -130t-275 -46t-267 35
t-192 96l-22 -111h-180l288 1484h180l-232 -1198q59 -79 178 -124t273 -45z" />
    <glyph glyph-name="uni02AB" unicode="&#x2ab;" 
d="M443 943l-156 -802l731 802h-575zM80 0l288 1484h180l-78 -402h770l-26 -137l-737 -806h617l-27 -139h-987z" />
    <glyph glyph-name="uni02AC" unicode="&#x2ac;" 
d="M786 1h-133l-37 547l-254 -547h-133l-54 707h124l24 -568l263 568h123l45 -568l243 568h122zM936 777h-133l-36 547l-255 -547h-133l-53 707h124l23 -568l264 568h123l44 -568l244 568h122z" />
    <glyph glyph-name="uni02AD" unicode="&#x2ad;" 
d="M950 0h-174l62 319h-533l-62 -319h-175l95 487h882zM1144 997h-174l62 319h-533l-62 -319h-175l94 487h882z" />
    <glyph glyph-name="uni02AE" unicode="&#x2ae;" 
d="M276 1100q210 0 210 -246q0 -78 -19 -176l-55 -283q-17 -83 -17 -147q0 -130 159 -130q111 0 195.5 87t114.5 238l124 639h180l-293 -1508h-181l111 570h-3q-130 -165 -339 -165q-256 0 -256 227q0 70 17 154l53 272q25 134 25 186q0 120 -91 120q-40 0 -91 -27l-19 148
q70 41 175 41z" />
    <glyph glyph-name="uni02AF" unicode="&#x2af;" 
d="M276 1100q210 0 210 -246q0 -78 -19 -176l-55 -283q-17 -83 -17 -147q0 -130 159 -130q111 0 195.5 87t114.5 238l124 639h180l-213 -1102q-13 -68 -13 -124q0 -118 118 -119q48 0 108 20l-7 -159q-82 -23 -146 -23q-141 0 -201 59t-60 182q0 67 18 157l33 171h-3
q-130 -165 -339 -165q-256 0 -256 227q0 70 17 154l53 272q25 134 25 186q0 120 -91 120q-40 0 -91 -27l-19 148q70 41 175 41z" />
    <glyph glyph-name="uni02B0" unicode="&#x2b0;" 
d="M832 1266q202 0 202 -200q0 -40 -14 -116l-86 -460h-123l85 455q12 65 12 105q0 118 -121 118q-87 0 -153 -69t-85 -182l-81 -427h-121l196 1046h122l-51 -272l-32 -142h2q56 80 112 112t136 32z" />
    <glyph glyph-name="uni02B1" unicode="&#x2b1;" 
d="M771 1266q202 0 202 -200q0 -40 -14 -116l-86 -460h-123l85 455q12 65 12 105q0 118 -121 118q-87 0 -152.5 -69t-85.5 -182l-81 -427h-121l161 861q17 91 69 143t138 52q49 0 85 -15l-20 -106q-29 14 -63 14q-70 -1 -95 -131q-24 -130 -40 -186h2q56 80 112.5 112
t135.5 32z" />
    <glyph glyph-name="uni02B2" unicode="&#x2b2;" 
d="M454 190q-34 0 -88 9l16 96q20 -5 58 -5t58.5 29t32.5 95l157 838h122l-161 -857q-20 -107 -66.5 -156t-128.5 -49zM718 1414l23 121h122l-22 -121h-123z" />
    <glyph glyph-name="uni02B3" unicode="&#x2b3;" 
d="M944 1160q-73 0 -131 -80t-76 -193l-75 -397h-122l110 585l29 177h116l-24 -155h3q46 93 88 131t88 38t77 -9l-22 -106q-36 9 -61 9z" />
    <glyph glyph-name="uni02B4" unicode="&#x2b4;" 
d="M624 645q-80 -169 -176 -169q-48 0 -77 9l22 106q36 -9 61 -9q71 0 128 76.5t79 196.5l75 397h122l-110 -585l-29 -177h-116l24 155h-3z" />
    <glyph glyph-name="uni02B5" unicode="&#x2b5;" 
d="M622 641q-79 -166 -176 -166q-50 0 -75 10l22 105q36 -9 61 -9q71 0 128 76.5t79 196.5l75 398h122l-160 -851l-3 -35q0 -65 65 -65q42 0 73 9l-20 -112q-49 -9 -103 -9t-96 39t-42 118q0 28 6 63l46 232h-2z" />
    <glyph glyph-name="uni02B6" unicode="&#x2b6;" 
d="M627 586q91 0 134 44t43 113q0 104 -134 104h-179l-48 -261h184zM933 746q0 -120 -84.5 -188t-231.5 -68h-315l143 762h123l-58 -309h137l282 309h149l-301 -321q76 -16 116 -64t40 -121z" />
    <glyph glyph-name="uni02B7" unicode="&#x2b7;" 
d="M882 490h-142l-27 533l-3 125l-46 -118l-235 -540h-142l-62 762h121l27 -518l5 -139l55 134l232 523h131l30 -523l4 -134l286 657h120z" />
    <glyph glyph-name="uni02B8" unicode="&#x2b8;" 
d="M622 627q10 24 326 625h135l-426 -763q-81 -142 -148 -221t-181 -79q-50 0 -90 10l21 95l52 -6q66 0 117 48t112 161l-147 755h124l77 -422q22 -128 28 -203z" />
    <glyph glyph-name="uni02B9" unicode="&#x2b9;" 
d="M864 845h-141l83 639h224z" />
    <glyph glyph-name="uni02BA" unicode="&#x2ba;" 
d="M639 845h-141l83 639h224zM1088 845h-142l84 639h224z" />
    <glyph glyph-name="uni02BB" unicode="&#x2bb;" 
d="M609 1027l28 146q33 179 141 311h121q-121 -135 -146 -262h89l-38 -195h-195z" />
    <glyph glyph-name="uni02BC" unicode="&#x2bc;" 
d="M898 1484l-28 -146q-33 -179 -140 -311h-121q121 135 146 262h-89l38 195h194z" />
    <glyph glyph-name="uni02BD" unicode="&#x2bd;" 
d="M654 1184q0 76 43 300h195l-38 -195h-89q-6 -32 -6 -65q0 -97 51 -197h-121q-35 81 -35 157z" />
    <glyph glyph-name="uni02BE" unicode="&#x2be;" 
d="M804 1348q0 46 -22.5 68t-57.5 22l17 85q66 0 109.5 -38t43.5 -125t-64.5 -151.5t-162.5 -64.5l17 85q51 0 85.5 36.5t34.5 82.5z" />
    <glyph glyph-name="uni02BF" unicode="&#x2bf;" 
d="M643 1309q0 88 64.5 151t162.5 63l-17 -85q-50 0 -85 -34t-35 -82t22 -70.5t57 -22.5l-16 -85q-66 0 -109.5 38.5t-43.5 126.5z" />
    <glyph glyph-name="uni02C0" unicode="&#x2c0;" 
d="M716 1484q128 0 198.5 -71t70.5 -189t-66 -298t-291 -188l-48 -248h-122l69 354q26 -13 69 -13q163 0 211 145.5t48 236.5q0 175 -148 175q-137 0 -186 -138l-115 21q73 213 310 213z" />
    <glyph glyph-name="uni02C1" unicode="&#x2c1;" 
d="M400 991q0 225 101 359t296 134q111 0 176 -56.5t67 -162.5l-122 -10q-9 133 -133 133q-84 0 -137 -44.5t-85.5 -145.5t-32.5 -187t39 -133t97 -47t89 13l-70 -354h-122l49 248q-99 7 -155.5 78t-56.5 175z" />
    <glyph glyph-name="uni02C2" unicode="&#x2c2;" 
d="M107 571v205l995 418v-154l-858 -366l858 -367v-153z" />
    <glyph glyph-name="uni02C3" unicode="&#x2c3;" 
d="M128 154v153l858 367l-858 366v154l995 -418v-205z" />
    <glyph glyph-name="uni02C4" unicode="&#x2c4;" 
d="M1111 237h-167l-331 782l-328 -782h-167l410 971h168z" />
    <glyph glyph-name="uni02C5" unicode="&#x2c5;" 
d="M696 237h-168l-410 971h167l328 -782l331 782h167z" />
    <glyph glyph-name="circumflex" unicode="&#x2c6;" 
d="M1077 1221l-4 -20h-105l-192 138h-2l-259 -138h-104l4 20l301 239h164z" />
    <glyph glyph-name="caron" unicode="&#x2c7;" 
d="M829 1201h-164l-207 239l4 20h104l205 -138h2l246 138h105l-4 -20z" />
    <glyph glyph-name="uni02C8" unicode="&#x2c8;" 
d="M790 1152h-113l65 332h113z" />
    <glyph glyph-name="uni02C9" unicode="&#x2c9;" 
d="M1023 1236h-551l25 127h551z" />
    <glyph glyph-name="uni02CA" unicode="&#x2ca;" 
d="M571 1205l4 20l180 259h207l-5 -29l-292 -250h-94z" />
    <glyph glyph-name="uni02CB" unicode="&#x2cb;" 
d="M724 1205l-194 250l6 29h207l79 -259l-4 -20h-94z" />
    <glyph glyph-name="uni02CC" unicode="&#x2cc;" 
d="M487 -406h-113l65 332h113z" />
    <glyph glyph-name="uni02CD" unicode="&#x2cd;" 
d="M730 -276h-549l25 127h549z" />
    <glyph glyph-name="uni02CE" unicode="&#x2ce;" 
d="M505 -406l-194 250l6 29h207l79 -259l-4 -20h-94z" />
    <glyph glyph-name="uni02CF" unicode="&#x2cf;" 
d="M262 -406l4 20l180 259h207l-5 -29l-292 -250h-94z" />
    <glyph glyph-name="uni02D0" unicode="&#x2d0;" 
d="M402 0l143 215h13l59 -215h-215zM827 1082l-142 -215h-13l-60 215h215z" />
    <glyph glyph-name="uni02D1" unicode="&#x2d1;" 
d="M827 1082l-143 -215h-13l-59 215h215z" />
    <glyph glyph-name="uni02D2" unicode="&#x2d2;" 
d="M600 296q0 46 -22.5 68t-57.5 22l17 85q66 0 109.5 -38t43.5 -125t-64.5 -151.5t-162.5 -64.5l17 85q51 0 85.5 36.5t34.5 82.5z" />
    <glyph glyph-name="uni02D3" unicode="&#x2d3;" 
d="M439 257q0 88 64.5 151t162.5 63l-17 -85q-50 0 -85 -34t-35 -82t22 -70.5t57 -22.5l-16 -85q-66 0 -109.5 38.5t-43.5 126.5z" />
    <glyph glyph-name="uni02D4" unicode="&#x2d4;" 
d="M723 173h-359l21 108h123l45 229h113l-45 -229h123z" />
    <glyph glyph-name="uni02D5" unicode="&#x2d5;" 
d="M767 402h-123l-45 -229h-113l45 229h-123l21 108h359z" />
    <glyph glyph-name="uni02D6" unicode="&#x2d6;" 
d="M745 288h-123l-24 -125h-113l24 125h-123l21 108h123l24 124h113l-24 -124h123z" />
    <glyph glyph-name="uni02D7" unicode="&#x2d7;" 
d="M874 275h-624l27 141h624z" />
    <glyph glyph-name="breve" unicode="&#x2d8;" 
d="M766 1327q151 0 213 133h127q-49 -122 -145 -190.5t-218 -68.5t-192.5 69t-70.5 184v6h127q8 -133 159 -133z" />
    <glyph glyph-name="dotaccent" unicode="&#x2d9;" 
d="M661 1292l37 192h200l-37 -192h-200z" />
    <glyph glyph-name="ring" unicode="&#x2da;" 
d="M893 1358q0 73 -106 73q-62 0 -100.5 -28.5t-38.5 -64.5q0 -74 107 -74q63 0 100.5 29t37.5 65zM724 1148q-88 0 -143.5 43.5t-55.5 110.5t35 124t101.5 89t154.5 32t144.5 -42t56.5 -112t-37 -126.5t-102.5 -87.5t-153.5 -31z" />
    <glyph glyph-name="ogonek" unicode="&#x2db;" 
d="M457 -427q-84 0 -128.5 38.5t-44.5 111.5t57.5 150.5t149.5 126.5h133q-83 -43 -138 -116.5t-55 -133.5q0 -67 78 -67q55 0 120 24l-21 -107q-67 -27 -151 -27z" />
    <glyph glyph-name="tilde" unicode="&#x2dc;" 
d="M908 1201q-52 0 -90 18.5t-74 41t-70.5 41t-70.5 18.5t-60 -23.5t-49 -95.5h-111q42 137 103.5 192.5t136.5 55.5t139.5 -41t98 -59.5t69.5 -18.5t61.5 27.5t45.5 91.5h112q-31 -97 -63.5 -145.5t-79 -75.5t-98.5 -27z" />
    <glyph glyph-name="hungarumlaut" unicode="&#x2dd;" 
d="M157 1201l4 20l254 239h187l-6 -29l-345 -230h-94zM521 1201l4 20l254 239h187l-6 -29l-345 -230h-94z" />
    <glyph glyph-name="uni02DE" unicode="&#x2de;" 
d="M292 357q-200 0 -200 245v23l-82 -19l4 139l236 35l2 -136q2 -68 21 -98t71 -30t138 40l31 -147q-137 -52 -221 -52z" />
    <glyph glyph-name="uni02DF" unicode="&#x2df;" 
d="M1022 901l-105 -88l-201 251l-299 -251l-71 88l300 250l-203 250l105 88l202 -251l298 251l71 -88l-299 -250z" />
    </font>
</defs>
</svg>
