<?xml version="1.0" standalone="no"?>
<!DOCTYPE svg PUBLIC "-//W3C//DTD SVG 1.1//EN" "http://www.w3.org/Graphics/SVG/1.1/DTD/svg11.dtd" >
<svg xmlns="http://www.w3.org/2000/svg">
<metadata>
Created by FontPrep 20130207 at Thu Dec 31 15:25:58 2015
 By James Campbell
Digitized data copyright (c) 2010-2012 Google Corporation.
</metadata>
<defs>
<font id="7e81ed9b30692aba8ed5fb51dd66b76d" horiz-adv-x='1024' >
  <font-face 
    font-family="Cousine-Bold"
    font-weight="700"
    font-stretch="normal"
    units-per-em="2048"
    panose-1="2 7 7 9 2 2 5 2 4 4"
    ascent="1638"
    descent="-410"
    x-height="1082"
    cap-height="1349"
    bbox="-987 -771 1427 2024"
    underline-thickness="205"
    underline-position="-375"
    unicode-range="U+0020-FE23"
  />
<missing-glyph 
d="M768 623h-512v-494h512v494zM127 0v752h770v-752h-770z" />
    <glyph glyph-name=".notdef" 
d="M768 623h-512v-494h512v494zM127 0v752h770v-752h-770z" />
    <glyph glyph-name=".null" horiz-adv-x="0" 
 />
    <glyph glyph-name="nonmarkingreturn" 
 />
    <glyph glyph-name="space" unicode=" " 
 />
    <glyph glyph-name="space" unicode="&#xa0;" 
 />
    <glyph glyph-name="exclam" unicode="!" 
d="M468 0v270h288v-270h-288zM730 426h-230l-32 923h294z" />
    <glyph glyph-name="quotedbl" unicode="&#x22;" 
d="M486 844h-199l-37 641h273zM942 844h-199l-37 641h275z" />
    <glyph glyph-name="numbersign" unicode="#" 
d="M488 835l-70 -324h309l70 324h-309zM1119 511v-149h-270l-78 -362h-155l79 362h-309l-78 -362h-153l78 362h-174v149h206l70 324h-227v148h259l79 366h153l-78 -366h308l79 366h153l-78 -366h185v-148h-217l-69 -324h237z" />
    <glyph glyph-name="dollar" unicode="$" 
d="M892 389q0 92 -52.5 122.5t-168.5 63.5v-367q221 15 221 181zM379 1015q0 -82 45 -112t138 -60v332q-183 -14 -183 -160zM117 1011q0 166 113 256.5t332 99.5v134h109v-134q195 -7 300 -86.5t151 -263.5l-264 -39q-30 172 -187 193v-352l11 -2q29 0 249.5 -72t220.5 -352
q0 -181 -121.5 -280.5t-359.5 -108.5v-175h-109v172q-215 8 -335 101.5t-158 286.5l256 47q19 -113 75.5 -165.5t161.5 -62.5v391q-10 7 -31 7q-161 37 -287.5 115t-126.5 290z" />
    <glyph glyph-name="percent" unicode="%" 
d="M832 329q0 -201 111 -201t111 201q0 107 -26.5 154t-82.5 47t-84.5 -45.5t-28.5 -155.5zM947 665q283 0 283 -336q0 -167 -73 -254t-214 -87t-214 86t-73 254t70 252.5t221 84.5zM176 1025q0 -201 111 -201t111 201q0 107 -26.5 154t-82.5 47t-84.5 -45.5t-28.5 -155.5z
M291 1361q283 0 283 -336q0 -167 -73 -254t-214 -87t-214 86t-73 254t70 252.5t221 84.5zM236 0h-175l932 1353h177z" />
    <glyph glyph-name="ampersand" unicode="&#x26;" 
d="M739 1078q0 48 -31.5 82.5t-99.5 34.5t-106.5 -41.5t-38.5 -119.5t52 -175q100 47 140 76t62 62t22 81zM267 373q0 -98 55 -154t157 -56t192 76q-159 176 -262 360q-142 -84 -142 -226zM24 369q0 127 80.5 235t221.5 175q-71 143 -71 279t93.5 217.5t257.5 81.5
t255.5 -77t91.5 -193t-80 -203t-285 -182q95 -166 214 -302q75 149 108 324l204 -27q-42 -237 -155 -435q85 -73 155 -73t107 17v-196q-38 -21 -95 -21q-160 0 -300 115q-164 -123 -368 -123t-319 100.5t-115 287.5z" />
    <glyph glyph-name="quotesingle" unicode="'" 
d="M714 844h-199l-37 641h273z" />
    <glyph glyph-name="parenleft" unicode="(" 
d="M344 530q0 280 70 504.5t227 449.5h281q-158 -228 -229.5 -454t-71.5 -500t71 -498t230 -457h-281q-157 226 -227 450.5t-70 504.5z" />
    <glyph glyph-name="parenright" unicode=")" 
d="M608 530q0 274 -72 501t-229 453h281q158 -227 227.5 -452t69.5 -502t-69.5 -502t-227.5 -453h-281q160 234 230.5 457.5t70.5 497.5z" />
    <glyph glyph-name="asterisk" unicode="*" 
d="M706 1209l235 104l68 -197l-250 -61l186 -213l-184 -121l-146 252l-149 -252l-186 123l190 211l-250 61l68 197l239 -104l-18 274h215z" />
    <glyph glyph-name="plus" unicode="+" 
d="M726 569v-408h-226v408h-399v224h399v408h226v-408h402v-224h-402z" />
    <glyph glyph-name="comma" unicode="," 
d="M258 -363l169 662h315l-311 -662h-173z" />
    <glyph glyph-name="hyphen" unicode="-" 
d="M324 409v244h580v-244h-580z" />
    <glyph glyph-name="hyphen" unicode="&#xad;" 
d="M324 409v244h580v-244h-580z" />
    <glyph glyph-name="period" unicode="." 
d="M470 0v305h289v-305h-289z" />
    <glyph glyph-name="slash" unicode="/" 
d="M89 -20l821 1504h228l-817 -1504h-232z" />
    <glyph glyph-name="zero" unicode="0" 
d="M506 555v249h215v-249h-215zM829 635q0 216 -21 318.5t-65 149.5t-128 47t-150.5 -68t-66.5 -405t66.5 -406.5t148.5 -69.5q116 0 166 109t50 325zM619 1370q492 0 492 -691q0 -343 -128.5 -521t-372.5 -178t-368.5 177.5t-124.5 523.5t121.5 517.5t380.5 171.5z" />
    <glyph glyph-name="one" unicode="1" 
d="M149 0v209h389v891q-39 -82 -155.5 -138t-244.5 -56v214q139 0 249 61t166 168h266v-1140h323v-209h-993z" />
    <glyph glyph-name="two" unicode="2" 
d="M123 0v195q101 221 393 459q158 128 222 196t64 141t-47 114t-137 41t-138 -48.5t-62 -145.5l-283 16q24 196 146.5 299t336.5 103t341.5 -99.5t127.5 -266.5q0 -209 -274 -423q-194 -150 -261 -216t-97 -134h654v-231h-986z" />
    <glyph glyph-name="three" unicode="3" 
d="M1125 376q0 -189 -135.5 -294t-369.5 -105t-369 100.5t-158 290.5l286 25q25 -188 235 -188q105 0 164 50.5t59 137.5t-72.5 133t-207.5 46h-98v227h92q122 0 187.5 46.5t65.5 125.5t-55 127t-143 48q-193 0 -208 -169l-281 20q22 179 151.5 276t340.5 97
q148 0 256.5 -45t166 -126.5t57.5 -196.5t-78 -197t-223 -110v-4q157 -18 247 -102.5t90 -212.5z" />
    <glyph glyph-name="four" unicode="4" 
d="M712 907q0 117 9 198q-26 -56 -94 -162l-320 -447h405v411zM980 287v-287h-268v287h-641v211l595 851h314v-853h188v-209h-188z" />
    <glyph glyph-name="five" unicode="5" 
d="M834 442q0 110 -59 172.5t-171 62.5t-185 -91h-274l49 763h847v-209h-592l-23 -326q102 90 255 90q201 0 321.5 -123.5t120.5 -326.5q0 -140 -62.5 -247.5t-181 -167t-278.5 -59.5q-212 0 -339.5 95.5t-157.5 276.5l281 23q42 -172 219 -172q108 0 169 64.5t61 174.5z
" />
    <glyph glyph-name="six" unicode="6" 
d="M833 437q0 110 -55.5 171.5t-149.5 61.5t-151 -55.5t-57 -157.5t59 -180t153 -78t147.5 64t53.5 174zM1115 436q0 -208 -127.5 -332t-359.5 -124t-367.5 183t-135.5 523t135.5 512t387.5 172q179 0 282.5 -79t146.5 -245l-265 -37q-38 139 -161 139t-187 -108.5
t-64 -317.5q45 75 125 115t181 40q185 0 297 -116.5t112 -324.5z" />
    <glyph glyph-name="seven" unicode="7" 
d="M629 0h-293q0 260 119.5 533.5t375.5 584.5h-700v231h961v-223q-255 -348 -359 -609t-104 -517z" />
    <glyph glyph-name="eight" unicode="8" 
d="M829 405q0 206 -220 206q-101 0 -156 -55.5t-55 -154.5q0 -223 219 -223q106 0 159 54t53 173zM796 995q0 178 -184 178t-183 -178q0 -91 47.5 -139t136.5 -48q183 0 183 187zM1120 382q0 -188 -133 -295t-371 -107t-372.5 106t-134.5 294q0 128 79.5 217t207.5 110v4
q-113 25 -183.5 108t-70.5 193q0 164 124 261t348 97t347.5 -94t123.5 -266q0 -106 -71 -190t-185 -107v-4q135 -22 213 -109t78 -218z" />
    <glyph glyph-name="nine" unicode="9" 
d="M809 893q0 108 -58.5 182.5t-150.5 74.5t-146.5 -64.5t-54.5 -173.5t54.5 -176.5t146.5 -67.5t150.5 58.5t58.5 166.5zM1106 694q0 -344 -135.5 -529t-390.5 -185q-186 0 -291.5 79.5t-149.5 251.5l264 37q39 -147 180 -147q114 0 179.5 104.5t67.5 313.5
q-38 -75 -124.5 -117.5t-186.5 -42.5q-183 0 -294 123.5t-111 333.5t130 332t368 122t366 -166t128 -510z" />
    <glyph glyph-name="colon" unicode=":" 
d="M470 780v305h289v-305h-289zM470 0v305h289v-305h-289z" />
    <glyph glyph-name="semicolon" unicode=";" 
d="M326 -363l169 662h315l-311 -662h-173zM479 780v305h289v-305h-289z" />
    <glyph glyph-name="semicolon" unicode="&#x37e;" 
d="M326 -363l169 662h315l-311 -662h-173zM479 780v305h289v-305h-289z" />
    <glyph glyph-name="less" unicode="&#x3c;" 
d="M101 516v322l1027 391v-228l-833 -325l833 -324v-227z" />
    <glyph glyph-name="equal" unicode="=" 
d="M101 291v221h1027v-221h-1027zM101 842v223h1027v-223h-1027z" />
    <glyph glyph-name="greater" unicode="&#x3e;" 
d="M101 125v227l832 324l-832 325v228l1027 -391v-322z" />
    <glyph glyph-name="question" unicode="?" 
d="M418 0v270h289v-270h-289zM1113 986q0 -123 -65.5 -195.5t-207.5 -175.5t-147 -209h-267q11 197 209 333q113 77 154 126.5t41 117.5t-61 114.5t-161 46.5t-168.5 -59t-80.5 -156l-285 12q27 203 167 316t368 113t366 -104t138 -280z" />
    <glyph glyph-name="at" unicode="@" 
d="M755 784q0 195 -109 195q-60 0 -109 -68.5t-77 -183.5t-28 -236q0 -261 94 -261q70 0 121.5 86t79.5 243t28 225zM594 -283q-165 0 -290.5 97t-192.5 279.5t-67 444.5t77 483.5t220 342t316 120.5t289.5 -90.5t179.5 -256t63 -423.5t-82.5 -434t-224.5 -176t-141 157v9
l2 39h-6q-36 -94 -99 -149.5t-136 -55.5q-106 0 -165.5 100t-59.5 273t48.5 316t132 225.5t186.5 82.5q136 0 164 -173h5l33 151h135l-99 -507q-40 -210 -40 -261t10 -68t39 -17q74 0 120.5 143t46.5 399t-106 423t-282 167q-149 0 -260 -108.5t-170.5 -302.5t-59.5 -433
q0 -308 114.5 -488.5t309.5 -180.5q94 0 181 35t188 123l71 -97q-220 -189 -450 -189z" />
    <glyph glyph-name="A" unicode="A" 
d="M615 1167q-17 -88 -166 -615h332q-147 518 -166 615zM1229 0h-294l-92 330h-456l-92 -330h-295l443 1349h344z" />
    <glyph glyph-name="B" unicode="B" 
d="M889 410q0 88 -53 135.5t-154 47.5h-250v-374h257q200 0 200 191zM643 811q165 -1 165 159t-167 160h-209v-319h211zM1186 385q0 -181 -124 -283t-343 -102h-582v1349h525q218 0 330.5 -87.5t112.5 -251.5q0 -115 -66 -193.5t-203 -107.5q171 -18 260.5 -102t89.5 -222z
" />
    <glyph glyph-name="C" unicode="C" 
d="M380 681q0 -225 70 -347t209 -122q162 0 240 244l273 -52q-133 -424 -516 -424q-281 0 -428.5 178.5t-147.5 522.5q0 689 568 689q377 0 496 -389l-272 -66q-29 106 -87 164.5t-133 58.5q-272 0 -272 -457z" />
    <glyph glyph-name="D" unicode="D" 
d="M852 685q0 227 -85.5 331.5t-275.5 104.5h-61v-893h102q320 0 320 457zM496 1349q653 1 653 -661q0 -332 -154 -510t-439 -178h-421v1349h361z" />
    <glyph glyph-name="E" unicode="E" 
d="M137 0v1349h968v-228h-673v-324h612v-228h-612v-341h714v-228h-1009z" />
    <glyph glyph-name="F" unicode="F" 
d="M462 1121v-384h621v-228h-621v-509h-295v1349h939v-228h-644z" />
    <glyph glyph-name="G" unicode="G" 
d="M650 216q117 0 208 74v235h-274v218h544v-558q-242 -205 -498 -205t-403 183.5t-147 517.5q0 689 558 689q355 0 462 -375l-274 -54q-52 197 -186 197t-197.5 -108t-63.5 -349q0 -465 271 -465z" />
    <glyph glyph-name="H" unicode="H" 
d="M796 0v574h-363v-574h-295v1349h295v-531h363v531h295v-1349h-295z" />
    <glyph glyph-name="I" unicode="I" 
d="M157 1349h916v-228h-311v-893h311v-228h-916v228h311v893h-311v228z" />
    <glyph glyph-name="J" unicode="J" 
d="M393 445q40 -234 178 -234q68 0 111 59t43 169v679h-301v231h595v-903q0 -218 -121.5 -342t-325.5 -124t-322 109t-148 313z" />
    <glyph glyph-name="K" unicode="K" 
d="M431 0h-295v1349h295v-599l436 599h343l-460 -579l479 -770h-348l-323 557l-127 -142v-415z" />
    <glyph glyph-name="L" unicode="L" 
d="M211 0v1349h295v-1121h616v-228h-911z" />
    <glyph glyph-name="M" unicode="M" 
d="M908 0v868q0 105 16 301q-59 -290 -75 -341l-124 -468h-218l-126 468q-29 108 -76 341l7 -100q7 -105 7 -201v-868h-220v1349h347l135 -499q15 -47 38 -231q20 155 40 230l136 500h335v-1349h-222z" />
    <glyph glyph-name="N" unicode="N" 
d="M392 656v-656h-257v1349h337l393 -1037q-28 235 -28 365v672h257v-1349h-346l-384 1010q28 -252 28 -354z" />
    <glyph glyph-name="O" unicode="O" 
d="M614.5 212q243.5 0 243.5 463t-244 463t-243 -463q0 -463 243.5 -463zM1157 679q0 -345 -140 -522t-402 -177t-402.5 177t-140.5 522t140.5 518t402.5 173t402 -173t140 -518z" />
    <glyph glyph-name="P" unicode="P" 
d="M591 703q254 0 254 215q0 109 -65.5 155.5t-196.5 46.5h-152v-417h160zM1142 923q0 -134 -61 -235.5t-176.5 -156.5t-276.5 -55h-197v-476h-295v1349h480q257 0 391.5 -108.5t134.5 -317.5z" />
    <glyph glyph-name="Q" unicode="Q" 
d="M614.5 212q243.5 0 243.5 463t-244 463t-243 -463q0 -463 243.5 -463zM1157 679q0 -575 -378 -679q35 -97 98 -141.5t168 -44.5q45 0 123 13v-202q-126 -28 -242 -28q-164 0 -271 92.5t-173 303.5q-410 87 -410 709q0 322 140.5 495t402.5 173t402 -173t140 -518z" />
    <glyph glyph-name="R" unicode="R" 
d="M860 937q0 94 -62 138.5t-198 44.5h-168v-376h176q252 0 252 193zM432 515v-515h-295v1349h494q264 0 395 -103t131 -297q0 -137 -74 -233t-205 -135l349 -581h-332l-290 515h-173z" />
    <glyph glyph-name="S" unicode="S" 
d="M624 -20q-248 0 -396 99t-190 288l285 37q23 -94 96 -148.5t203 -54.5q256 0 256 173q0 130 -217 182q-217 53 -305.5 91.5t-170 112.5t-81.5 240t140.5 268t367.5 102t353 -88.5t163 -274.5l-286 -29q-44 183 -233 183q-106 0 -162 -39.5t-56 -101.5t27 -94t73.5 -54
t212.5 -64t313.5 -125t147.5 -283q0 -201 -146.5 -310.5t-394.5 -109.5z" />
    <glyph glyph-name="T" unicode="T" 
d="M762 1121v-1121h-295v1121h-406v228h1107v-228h-406z" />
    <glyph glyph-name="U" unicode="U" 
d="M603 -20q-250 0 -362 134t-112 414v821h295v-818q0 -175 40.5 -247.5t143.5 -72.5t150 77t47 253v808h295v-806q0 -286 -123.5 -424.5t-373.5 -138.5z" />
    <glyph glyph-name="V" unicode="V" 
d="M766 0h-299l-464 1349h308l233 -775q27 -88 74 -266l21 86l51 180l232 775h305z" />
    <glyph glyph-name="W" unicode="W" 
d="M1018 0h-248l-64 267q-50 189 -90 369l-157 -636h-248l-211 1349h259l89 -695q12 -96 16 -266l15 76l40 168l99 339h195l99 -339q17 -59 55 -244l2 27q6 161 16 239l84 695h259z" />
    <glyph glyph-name="X" unicode="X" 
d="M919 0l-303 493l-304 -493h-312l459 711l-418 638h312l263 -430l262 430h310l-428 -638l469 -711h-310z" />
    <glyph glyph-name="Y" unicode="Y" 
d="M761 0h-294v556l-464 793h309l300 -566l304 566h309l-464 -793v-556z" />
    <glyph glyph-name="Z" unicode="Z" 
d="M1138 0h-1051v209l671 909h-595v231h934v-205l-671 -913h712v-231z" />
    <glyph glyph-name="bracketleft" unicode="[" 
d="M373 -425v1909h602v-190h-336v-1528h336v-191h-602z" />
    <glyph glyph-name="backslash" unicode="\" 
d="M908 -20l-817 1504h228l821 -1504h-232z" />
    <glyph glyph-name="bracketright" unicode="]" 
d="M254 -425v191h336v1528h-336v190h602v-1909h-602z" />
    <glyph glyph-name="asciicircum" unicode="^" 
d="M922 514l-326 752l-324 -752h-227l391 895h322l393 -895h-229z" />
    <glyph glyph-name="underscore" unicode="_" 
d="M-5 -220v96h1238v-96h-1238z" />
    <glyph glyph-name="grave" unicode="`" 
d="M347 1458h258l252 -243v-31h-170l-340 231v43z" />
    <glyph glyph-name="a" unicode="a" 
d="M399 328q0 -152 120 -152q97 0 162 76.5t65 193.5v55l-134 -2q-90 -2 -151.5 -27t-61.5 -144zM746 711q0 209 -146 209q-76 0 -110 -36.5t-42 -116.5l-293 14q54 321 455 321q202 0 309.5 -99t107.5 -291v-392q0 -91 20.5 -125.5t60.5 -34.5t70 6v-152q-108 -26 -197 -26
q-180 0 -200 205h-6q-63 -113 -143.5 -163t-192.5 -50q-157 0 -245 85t-88 247t104.5 249.5t312.5 90.5l223 4v55z" />
    <glyph glyph-name="b" unicode="b" 
d="M839 540q0 372 -203 372q-98 0 -154.5 -96t-56.5 -242t26.5 -229.5t75 -128t111.5 -44.5q96 0 148.5 92t52.5 276zM427 176q0 -111 -15 -176h-272q8 136 8 236v1248h281v-394l-2 -178h2q41 91 123.5 141t193.5 50q186 0 286 -146.5t100 -408.5t-106 -415t-289 -153
q-215 0 -306 196h-4z" />
    <glyph glyph-name="c" unicode="c" 
d="M624 -20q-246 0 -380 146.5t-134 411.5t135 414.5t383 149.5q191 0 316 -96t157 -265l-283 -14q-12 83 -60 132.5t-136 49.5q-217 -1 -217 -369t221 -368q80 0 134 50.5t67 150.5l282 -13q-15 -111 -79.5 -198t-169.5 -134.5t-236 -47.5z" />
    <glyph glyph-name="d" unicode="d" 
d="M593 909q-203 0 -203 -370q0 -184 52.5 -275.5t148.5 -91.5q62 0 137.5 68.5t75.5 305.5q0 173 -56 268t-155 95zM493 1100q222 0 307 -191h2l-2 178v397h281v-1248q0 -100 8 -236h-272q-4 15 -9.5 75.5t-5.5 100.5h-4q-53 -107 -131 -151.5t-185 -44.5q-179 0 -282 150
t-103 412t103.5 410t292.5 148z" />
    <glyph glyph-name="e" unicode="e" 
d="M625 925q-102 0 -163 -69.5t-65 -192.5h460q-7 120 -68.5 191t-163.5 71zM626 -20q-252 0 -389 148.5t-137 417.5q0 359 183.5 457.5t346.5 98.5q237 0 368 -158t131 -449v-8h-734q0 -147 65.5 -233t179.5 -86q74 0 131 31.5t77 97.5l265 -23q-55 -141 -183 -217.5
t-304 -76.5z" />
    <glyph glyph-name="f" unicode="f" 
d="M653 892v-892h-280v892h-256v190h256v83q0 174 109.5 261.5t290.5 87.5t349 -28v-184q-150 19 -263 19t-159.5 -40.5t-46.5 -141.5v-57h443v-190h-443z" />
    <glyph glyph-name="g" unicode="g" 
d="M831 558q0 162 -56.5 255t-154.5 93t-150.5 -91t-52.5 -265t54.5 -258.5t152.5 -84.5t152.5 94.5t54.5 256.5zM834 908q0 121 14 174h266q-6 -108 -6 -250v-799q0 -227 -127.5 -347t-364.5 -120q-186 0 -303 77t-144 214l281 33q15 -65 62 -103t112 -38q205 0 205 288v59
l2 115h-2q-93 -199 -328 -199q-179 0 -278 140t-99 400t103 403.5t295 143.5q218 0 307 -191h5z" />
    <glyph glyph-name="h" unicode="h" 
d="M768 1102q336 0 336 -416v-686h-280v621q0 151 -40.5 210.5t-137.5 59.5t-159.5 -87.5t-62.5 -224.5v-579h-281v1484h281v-405q0 -109 -8 -213h4q57 124 143 180t205 56z" />
    <glyph glyph-name="i" unicode="i" 
d="M513 1277v207h281v-207h-281zM794 190h353v-190h-1029v190h395v702h-290v190h571v-892z" />
    <glyph glyph-name="j" unicode="j" 
d="M583 1277v207h281v-207h-281zM386 -425q-156 0 -269 43v210q137 -34 255 -34t164 53.5t46 162.5v882h-354v190h636v-1095q0 -129 -56.5 -221.5t-161 -141.5t-260.5 -49z" />
    <glyph glyph-name="k" unicode="k" 
d="M454 0h-281v1484h281v-850l386 448h302l-380 -422l409 -660h-307l-289 490l-121 -84v-406z" />
    <glyph glyph-name="l" unicode="l" 
d="M794 190h353v-190h-1029v190h395v1104h-290v190h571v-1294z" />
    <glyph glyph-name="m" unicode="m" 
d="M501 0v658q0 149 -18.5 207t-68.5 58t-80 -94t-30 -247v-582h-229v851q0 189 -6 231h209l6 -127v-48h2q34 102 86 148.5t135 46.5t126.5 -48t62.5 -148h2q40 106 95.5 151t140.5 45q118 0 169 -86t51 -295v-721h-228v658q0 149 -19 207t-69 58t-79.5 -80.5t-29.5 -241.5
v-601h-228z" />
    <glyph glyph-name="n" unicode="n" 
d="M143 840q0 125 -8 242h268q3 -19 8 -101.5t5 -113.5h4q57 124 143 180t205 56q336 0 336 -416v-687h-280v619q0 141 -38.5 207t-137.5 66t-161.5 -88.5t-62.5 -223.5v-580h-281v840z" />
    <glyph glyph-name="o" unicode="o" 
d="M387 542q0 -370 220 -370q124 0 180 87t56 281t-51.5 281.5t-173.5 87.5t-176.5 -88t-54.5 -279zM1137 542q0 -269 -136.5 -415.5t-386.5 -146.5t-386 147t-136 415t135 414t389 146q521 0 521 -560z" />
    <glyph glyph-name="p" unicode="p" 
d="M636 171q203 0 203 372q0 184 -52.5 276t-148.5 92q-62 0 -137.5 -68.5t-75.5 -304.5t73.5 -301.5t137.5 -65.5zM427 906h4q100 197 316 197q180 0 282.5 -150.5t102.5 -412.5t-103.5 -411t-292.5 -149q-222 0 -307 191h-2l2 -178v-418h-281v1271q0 100 -8 236h272
q15 -52 15 -176z" />
    <glyph glyph-name="q" unicode="q" 
d="M390 543q0 -372 203 -372q98 0 154.5 96.5t56.5 242.5t-26.5 229t-75 127.5t-111.5 44.5q-96 0 -148.5 -92t-52.5 -276zM802 906q0 111 15 176h272q-8 -136 -8 -236v-1271h-281v418l2 178h-2q-41 -91 -123.5 -141t-193.5 -50q-186 0 -286 147t-100 409t107 414.5
t288 152.5q208 0 306 -197h4z" />
    <glyph glyph-name="r" unicode="r" 
d="M250 701q0 175 -52 381h271q36 -130 46 -228h4q50 136 135 192t205 56t222 -17v-237q-112 19 -212 19q-156 0 -247.5 -118t-91.5 -311v-438h-280v701z" />
    <glyph glyph-name="s" unicode="s" 
d="M623 916q-201 0 -201 -104q0 -54 38.5 -81.5t147.5 -49.5q271 -55 383.5 -126.5t112.5 -233.5t-128.5 -251.5t-353.5 -89.5t-343.5 70.5t-157.5 219.5l247 37q21 -77 72.5 -109t174.5 -32q231 0 231 118q0 58 -43.5 88.5t-147.5 51.5q-238 47 -364.5 108.5t-126.5 242.5
q0 155 119.5 241.5t325.5 86.5q410 0 470 -292l-249 -26q-12 66 -59 98.5t-148 32.5z" />
    <glyph glyph-name="t" unicode="t" 
d="M161 892v190h181l88 282h176v-282h385v-190h-385v-530q0 -88 26 -136t149 -48t254 27v-186q-198 -32 -324 -32q-127 0 -212.5 34.5t-129 108t-43.5 206.5l2 556h-167z" />
    <glyph glyph-name="u" unicode="u" 
d="M416 1082v-607q0 -138 45 -211.5t131 -73.5t144.5 88.5t58.5 223.5v580h281v-840q0 -138 8 -242h-268q-12 144 -12 215h-5q-107 -235 -328 -235q-164 0 -250 104.5t-86 310.5v687h281z" />
    <glyph glyph-name="v" unicode="v" 
d="M608 210q34 138 291 872h294l-419 -1082h-336l-407 1082h297l209 -622q15 -50 71 -250z" />
    <glyph glyph-name="w" unicode="w" 
d="M614 573q-3 -28 -177 -573h-243l-183 1082h228l83 -607q19 -152 19 -226l20 74l157 494h193l140 -455q15 -50 29 -113q0 62 10 143t102 690h226l-190 -1082h-244l-143 471q-25 80 -27 102z" />
    <glyph glyph-name="x" unicode="x" 
d="M874 0l-262 392l-264 -392h-299l406 559l-387 523h303l241 -354l240 354h305l-387 -520l409 -562h-305z" />
    <glyph glyph-name="y" unicode="y" 
d="M346 -425q-126 0 -203 13v200l51 -5l51 -3q112 0 157 63t84 168l-448 1071h297l190 -527q40 -109 101 -334l90 330l180 531h294l-448 -1139q-80 -206 -175 -287t-221 -81z" />
    <glyph glyph-name="z" unicode="z" 
d="M138 0v199l570 680h-529v203h849v-201l-567 -676h616v-205h-939z" />
    <glyph glyph-name="braceleft" unicode="{" 
d="M718 -425q-134 0 -214.5 78.5t-80.5 220.5v328q0 114 -55 170.5t-174 58.5v195q121 5 175 61.5t54 169.5v328q0 146 78.5 222.5t216.5 76.5h327v-190h-188q-91 0 -131.5 -52t-40.5 -157v-301q0 -95 -57.5 -164t-149.5 -88v-4q95 -22 151 -90.5t56 -161.5v-301
q0 -106 40.5 -157.5t131.5 -51.5h188v-191h-327z" />
    <glyph glyph-name="bar" unicode="|" 
d="M483 -455v1939h262v-1939h-262z" />
    <glyph glyph-name="braceright" unicode="}" 
d="M184 -425v191h188q91 0 131.5 51.5t40.5 157.5v301q0 93 56 161.5t151 90.5v4q-93 20 -150 89t-57 163v301q0 105 -40.5 157t-131.5 52h-188v190h327q138 0 216.5 -76.5t78.5 -222.5v-328q0 -113 54 -169.5t175 -61.5v-195q-119 -2 -174 -58.5t-55 -170.5v-328
q0 -141 -80 -220t-215 -79h-327z" />
    <glyph glyph-name="asciitilde" unicode="~" 
d="M350 631q-128 0 -255 -88v213q113 84 271 84q106 0 240 -46t184 -58.5t95 -12.5q134 0 248 92v-219q-64 -44 -122.5 -62t-138.5 -18t-153 21t-178 57t-191 37z" />
    <glyph glyph-name="exclamdown" unicode="&#xa1;" 
d="M762 1079v-270h-288v270h288zM500 653h230l32 -923h-294z" />
    <glyph glyph-name="cent" unicode="&#xa2;" 
d="M635 311q88 0 147.5 54.5t73.5 154.5l283 -12q-22 -153 -134 -254.5t-290 -122.5v-191h-162v189q-215 21 -335 157t-120 370t117.5 374.5t337.5 165.5v184h162v-184q169 -19 278 -112.5t137 -244.5l-282 -14q-15 91 -71 140.5t-144 49.5q-124 0 -188 -92t-64 -261
t66.5 -260t187.5 -91z" />
    <glyph glyph-name="sterling" unicode="&#xa3;" 
d="M788 0h-704v205q102 58 139.5 130t37.5 177v82h-188v170h178v198q0 201 107.5 304.5t297.5 103.5t287 -69t141 -222l-233 -47q-21 77 -62 112t-119 35q-158 0 -159 -240v-175h286v-170h-286v-80q0 -103 -41 -176t-141 -129h390q104 0 157.5 49.5t70.5 143.5l233 -39
q-31 -172 -136 -267.5t-256 -95.5z" />
    <glyph glyph-name="currency" unicode="&#xa4;" 
d="M405 686q0 -86 61 -147.5t147 -61.5t147.5 61.5t61.5 147.5t-61 147.5t-147 61.5t-147.5 -61.5t-61.5 -147.5zM179 684q0 120 60 221l-133 133l157 156l131 -133q101 59 221 59t218 -59l135 135l158 -158l-136 -135q60 -99 60 -218t-58 -218l134 -133l-158 -160l-133 135
q-99 -59 -221 -59t-220 57l-135 -137l-157 158l135 137q-58 99 -58 219z" />
    <glyph glyph-name="yen" unicode="&#xa5;" 
d="M1087 691v-146h-338v-162h338v-147h-338v-236h-272v236h-336v147h336v162h-336v146h276l-384 658h289l290 -536l294 536h289l-384 -658h276z" />
    <glyph glyph-name="brokenbar" unicode="&#xa6;" 
d="M483 -455v779h262v-779h-262zM483 676v778h262v-778h-262z" />
    <glyph glyph-name="section" unicode="&#xa7;" 
d="M872 658q0 71 -59.5 109t-232.5 71q-193 -23 -193 -153q0 -73 77 -105.5t213 -63.5q195 10 195 142zM846 1186q-27 129 -231 129q-203 0 -203 -124q0 -75 76 -108t226 -67t273 -96t123 -228q0 -93 -55 -164.5t-142 -98.5q181 -79 181 -251t-125.5 -260.5t-353.5 -88.5
t-348.5 69.5t-159.5 218.5l237 37q20 -80 82 -117.5t184 -37.5t185 32.5t63 112.5q0 48 -24 78t-75 53t-247 69t-281.5 124t-85.5 190q0 184 213 256q-90 38 -139 106t-49 152q0 149 117.5 231t326.5 82q415 0 471 -274z" />
    <glyph glyph-name="dieresis" unicode="&#xa8;" 
d="M289 1219v219h224v-219h-224zM713 1219v219h227v-219h-227z" />
    <glyph glyph-name="copyright" unicode="&#xa9;" 
d="M1071 760q0 290 -119.5 449t-335.5 159t-336 -159t-120 -449t120 -448.5t336 -158.5t335.5 158.5t119.5 448.5zM1197 762q0 -228 -71 -391.5t-203 -248t-309 -84.5t-308.5 85.5t-203 248.5t-71.5 389t71 389t203.5 248.5t308.5 85.5t308.5 -85t203.5 -247t71 -390z
M628 333q-168 0 -260.5 113.5t-92.5 315.5t89 313.5t257 111.5q217 0 303 -209l-138 -43q-50 127 -154 127q-204 0 -204 -299q0 -142 53.5 -224t146.5 -82q113 0 171 154l129 -42q-37 -113 -114.5 -174.5t-185.5 -61.5z" />
    <glyph glyph-name="ordfeminine" unicode="&#xaa;" 
d="M527 794q70 0 120 54.5t50 130.5v31l-106 -3q-101 -3 -136.5 -30.5t-35.5 -85.5q0 -97 108 -97zM697 1168q0 137 -117 137t-131 -108l-219 11q20 111 111 172t241 61t237 -68.5t87 -201.5v-273q0 -55 10.5 -83t48.5 -28l56 5v-125q-67 -21 -142 -21t-122 42t-53 112h-3
q-83 -157 -256 -157q-112 0 -177.5 61t-65.5 174t82 175.5t244 64.5l169 2v48z" />
    <glyph glyph-name="guillemotleft" unicode="&#xab;" 
d="M626 940v-37l-254 -366l256 -361v-35h-238l-258 361v71l258 367h236zM1095 940v-37l-254 -366l256 -361v-35h-240l-256 361v71l256 367h238z" />
    <glyph glyph-name="logicalnot" unicode="&#xac;" 
d="M887 141v428h-803v224h1027v-652h-224z" />
    <glyph glyph-name="registered" unicode="&#xae;" 
d="M1071 760q0 290 -119.5 449t-335.5 159t-336 -159t-120 -449t120 -448.5t336 -158.5t335.5 158.5t119.5 448.5zM617 782q164 0 164 153q0 127 -176 127h-122v-280h134zM483 672v-329h-151v831h307q142 0 217.5 -63t75.5 -169t-50.5 -171.5t-135.5 -84.5l218 -343h-175
l-190 329h-116zM1197 762q0 -228 -71 -391.5t-203 -248t-309 -84.5t-308.5 85.5t-203 248.5t-71.5 389t71 389t203.5 248.5t308.5 85.5t308.5 -85t203.5 -247t71 -390z" />
    <glyph glyph-name="overscore" unicode="&#xaf;" 
d="M-5 1452v96h1238v-96h-1238z" />
    <glyph glyph-name="degree" unicode="&#xb0;" 
d="M777 1110q0 70 -46.5 118t-116.5 48t-118 -48.5t-48 -117.5t49 -118.5t117 -49.5t115.5 49t47.5 119zM935 1110q0 -130 -93.5 -222.5t-226.5 -92.5t-227 91t-94 224q0 86 42.5 159t116 114.5t161.5 41.5q135 0 228 -92.5t93 -222.5z" />
    <glyph glyph-name="plusminus" unicode="&#xb1;" 
d="M101 0v223h1027v-223h-1027zM726 707v-341h-224v341h-401v223h401v340h224v-340h402v-223h-402z" />
    <glyph glyph-name="twosuperior" unicode="&#xb2;" 
d="M277 563v142q63 137 266 264q95 60 136 105t41 92q0 107 -98 107t-109 -115l-228 6q15 118 105 188t240 70t236 -65t86 -182q0 -147 -180 -262q-133 -85 -173 -117.5t-57 -70.5h425v-162h-690z" />
    <glyph glyph-name="threesuperior" unicode="&#xb3;" 
d="M940 1200q0 -163 -179 -200v-2q95 -11 148 -63t53 -136q0 -116 -88 -182t-250 -66q-327 0 -360 244l222 15q12 -110 133 -110t121 113q0 108 -163 108h-66v148h60q75 0 112 27.5t37 75.5t-27 74t-78 26q-105 0 -115 -105l-218 14q15 113 105.5 176.5t236.5 63.5t231 -61
t85 -160z" />
    <glyph glyph-name="acute" unicode="&#xb4;" 
d="M367 1184v31l252 243h258v-43l-340 -231h-170z" />
    <glyph glyph-name="mu1" unicode="&#xb5;" 
d="M821 184h-3q-78 -204 -246 -204q-52 0 -95.5 24t-66.5 66h-4q4 -43 4 -115v-371h-281v1498h281v-605q0 -284 184 -284q97 0 158 83.5t61 227.5v578h281v-840q0 -130 8 -242h-268q-13 156 -13 184z" />
    <glyph glyph-name="paragraph" unicode="&#xb6;" 
d="M984 1206v-1530h-156v1530h-195v-1530h-155v958q-169 0 -266 92t-97 262t98.5 265.5t272.5 95.5h629v-143h-131z" />
    <glyph glyph-name="middot.001" unicode="&#xb7;" 
d="M470 417v305h288v-305h-288z" />
    <glyph glyph-name="cedilla" unicode="&#xb8;" 
d="M310 -259q0 69 -122 69q-38 0 -52 -2l69 192h143l-40 -102q94 -5 139.5 -46t45.5 -107q0 -190 -303 -190q-45 0 -101 6v118q35 -7 84 -7q137 0 137 69z" />
    <glyph glyph-name="onesuperior" unicode="&#xb9;" 
d="M275 563v142h236v530q-23 -47 -95 -81t-136 -34v154q72 0 141 38t100 98h204v-705h220v-142h-670z" />
    <glyph glyph-name="ordmasculine" unicode="&#xba;" 
d="M773 1042q0 122 -34.5 178.5t-120.5 56.5t-124.5 -57.5t-38.5 -176.5q0 -239 154 -239q87 0 125.5 58t38.5 180zM1003 1046q0 -189 -104.5 -296t-286.5 -107t-283.5 107.5t-101.5 293.5t102.5 291.5t286.5 105.5t285.5 -103t101.5 -292z" />
    <glyph glyph-name="guillemotright" unicode="&#xbb;" 
d="M601 141v35l256 361l-254 366v37h236l258 -367v-71l-258 -361h-238zM132 141v35l256 361l-254 366v37h238l256 -367v-71l-256 -361h-240z" />
    <glyph glyph-name="onequarter" unicode="&#xbc;" 
d="M1 1068v165q58 0 122 33t89 83h181v-760h-191v570q-20 -39 -82 -65t-119 -26zM306 0h-162l738 1349h161zM916 313v198q0 52 6 95q-42 -75 -66 -117t-117 -176h177zM1107 162v-160h-191v160h-341v149l321 452h211v-450h82v-151h-82z" />
    <glyph glyph-name="onehalf" unicode="&#xbd;" 
d="M2 1068v165q58 0 122 33t89 83h181v-760h-191v570q-19 -39 -81 -65t-120 -26zM291 0h-162l738 1349h161zM658 1v143q59 137 224 237q78 48 110 86t32 85q0 91 -79 91q-58 0 -82 -45q-11 -21 -18 -73l-180 10q32 238 282 238q131 0 197 -57t65 -158q1 -146 -159 -247
q-42 -27 -83 -51q-40 -24 -72 -50q-32 -25 -45 -56h350v-153h-542z" />
    <glyph glyph-name="threequarters" unicode="&#xbe;" 
d="M30 1133q32 228 279 228q127 -1 194 -55t67 -134t-34 -121t-102 -67v-6q157 -34 157 -185q0 -105 -76 -165q-77 -60 -207 -59q-130 -1 -202 53t-95 179l205 26q8 -57 29 -89t64 -32q82 0 82 104q-1 51 -33 75t-104 24h-41v131h37q68 0 95 24t27 74t-15 72q-15 21 -55 21
t-56 -28q-17 -28 -22 -82zM382 0h-162l738 1349h161zM955 313v198q0 52 6 95q-41 -75 -65 -117t-118 -176h177zM1146 162v-160h-191v160h-341v149l321 452h211v-450h82v-151h-82z" />
    <glyph glyph-name="questiondown" unicode="&#xbf;" 
d="M819 1082v-270h-289v270h289zM124 96q0 123 65 195.5t207 175.5t148 209h267q-11 -195 -209 -333q-113 -77 -154 -126.5t-41 -117.5t61 -114.5t161 -46.5t168.5 59t80.5 156l285 -12q-28 -204 -167.5 -316.5t-367.5 -112.5t-366 104t-138 280z" />
    <glyph glyph-name="Agrave" unicode="&#xc0;" 
d="M615 1167q-17 -88 -166 -615h332q-147 518 -166 615zM1229 0h-294l-92 330h-456l-92 -330h-295l443 1349h344zM254 1701h258l252 -243v-31h-170l-340 231v43z" />
    <glyph glyph-name="Aacute" unicode="&#xc1;" 
d="M615 1167q-17 -88 -166 -615h332q-147 518 -166 615zM1229 0h-294l-92 330h-456l-92 -330h-295l443 1349h344zM460 1428v31l252 243h258v-43l-340 -231h-170z" />
    <glyph glyph-name="Acircumflex" unicode="&#xc2;" 
d="M615 1167q-17 -88 -166 -615h332q-147 518 -166 615zM1229 0h-294l-92 330h-456l-92 -330h-295l443 1349h344zM983 1427h-159l-203 134h-4l-211 -134h-160v28l258 250h229l250 -250v-28z" />
    <glyph glyph-name="Atilde" unicode="&#xc3;" 
d="M615 1167q-17 -88 -166 -615h332q-147 518 -166 615zM1229 0h-294l-92 330h-456l-92 -330h-295l443 1349h344zM793 1422q-57 0 -101 18t-86 38q-42 22 -80 40t-74 17q-38 1 -60 -23t-31 -90h-137q12 156 68 220t157 63q67 -1 177 -57q42 -22 78 -38q36 -18 75 -18
q75 0 90 113h135q-8 -111 -34 -168t-74 -86t-103 -29z" />
    <glyph glyph-name="Adieresis" unicode="&#xc4;" 
d="M615 1167q-17 -88 -166 -615h332q-147 518 -166 615zM1229 0h-294l-92 330h-456l-92 -330h-295l443 1349h344zM289 1445v219h224v-219h-224zM713 1445v219h227v-219h-227z" />
    <glyph glyph-name="Aring" unicode="&#xc5;" 
d="M615 1167q-17 -88 -166 -615h332q-147 518 -166 615zM859 1479q0 -88 -67 -145l437 -1334h-294l-92 330h-456l-92 -330h-295l439 1336q-64 56 -64 144q1 88 67 143t176 55t176 -56t65 -143zM720 1479q0 31 -28 51t-74 20t-76 -19q-29 -19 -29 -52t29 -52t75 -19
q47 0 75 20t28 51z" />
    <glyph glyph-name="AE" unicode="&#xc6;" 
d="M616 1152h-58l-46 -200l-98 -366h202v566zM616 387h-253l-102 -387h-261l372 1349h804v-202h-309v-355h297v-200h-297v-390h348v-202h-599v387z" />
    <glyph glyph-name="Ccedilla" unicode="&#xc7;" 
d="M664 -259q0 69 -122 69q-38 0 -52 -2l64 178q-206 26 -326 172q-148 178 -148 523q0 689 568 689q377 0 496 -389l-272 -66q-29 107 -87 165t-133 58q-272 0 -272 -457q0 -225 70 -347t209 -122q162 0 240 244l273 -52q-126 -402 -477 -423l-33 -83q94 -5 140 -46
t45 -107q0 -190 -303 -190q-45 0 -101 6v118q35 -7 84 -7q137 0 137 69z" />
    <glyph glyph-name="Egrave" unicode="&#xc8;" 
d="M137 0v1349h968v-228h-673v-324h612v-228h-612v-341h714v-228h-1009zM276 1702h258l252 -243v-31h-170l-340 231v43z" />
    <glyph glyph-name="Eacute" unicode="&#xc9;" 
d="M137 0v1349h968v-228h-673v-324h612v-228h-612v-341h714v-228h-1009zM458 1428v31l252 243h258v-43l-340 -231h-170z" />
    <glyph glyph-name="Ecircumflex" unicode="&#xca;" 
d="M137 0v1349h968v-228h-673v-324h612v-228h-612v-341h714v-228h-1009zM983 1427h-159l-203 134h-4l-211 -134h-160v28l258 250h229l250 -250v-28z" />
    <glyph glyph-name="Edieresis" unicode="&#xcb;" 
d="M137 0v1349h968v-228h-673v-324h612v-228h-612v-341h714v-228h-1009zM309 1445v219h224v-219h-224zM733 1445v219h227v-219h-227z" />
    <glyph glyph-name="Igrave" unicode="&#xcc;" 
d="M157 1349h916v-228h-311v-893h311v-228h-916v228h311v893h-311v228zM266 1702h258l252 -243v-31h-170l-340 231v43z" />
    <glyph glyph-name="Iacute" unicode="&#xcd;" 
d="M157 1349h916v-228h-311v-893h311v-228h-916v228h311v893h-311v228zM470 1428v31l252 243h258v-43l-340 -231h-170z" />
    <glyph glyph-name="Icircumflex" unicode="&#xce;" 
d="M157 1349h916v-228h-311v-893h311v-228h-916v228h311v893h-311v228zM983 1427h-159l-203 134h-4l-211 -134h-160v28l258 250h229l250 -250v-28z" />
    <glyph glyph-name="Idieresis" unicode="&#xcf;" 
d="M157 1349h916v-228h-311v-893h311v-228h-916v228h311v893h-311v228zM289 1445v219h224v-219h-224zM713 1445v219h227v-219h-227z" />
    <glyph glyph-name="Eth" unicode="&#xd0;" 
d="M865 685q0 227 -85.5 331.5t-275.5 104.5h-61v-338h207v-219h-207v-336h102q320 0 320 457zM509 1349q653 1 653 -661q0 -332 -154 -510t-439 -178h-421v564h-134v219h134v566h361z" />
    <glyph glyph-name="Ntilde" unicode="&#xd1;" 
d="M392 656v-656h-257v1349h337l393 -1037q-28 235 -28 365v672h257v-1349h-346l-384 1010q28 -252 28 -354zM793 1422q-57 0 -101 18t-86 38q-42 22 -80 40t-74 17q-38 1 -60 -23t-31 -90h-137q12 156 68 220t157 63q67 -1 177 -57q42 -22 78 -38q36 -18 75 -18
q75 0 90 113h135q-8 -111 -34 -168t-74 -86t-103 -29z" />
    <glyph glyph-name="Ograve" unicode="&#xd2;" 
d="M614 212q244 0 244 463t-244 463t-243 -463q-1 -463 243 -463zM1157 679q0 -345 -140 -522t-402 -177q-263 0 -403 177t-140 522t140 518t403 173q262 0 402 -173t140 -518zM261 1702h258l252 -243v-31h-170l-340 231v43z" />
    <glyph glyph-name="Oacute" unicode="&#xd3;" 
d="M614 212q244 0 244 463t-244 463t-243 -463q-1 -463 243 -463zM1157 679q0 -345 -140 -522t-402 -177q-263 0 -403 177t-140 522t140 518t403 173q262 0 402 -173t140 -518zM465 1428v31l252 243h258v-43l-340 -231h-170z" />
    <glyph glyph-name="Ocircumflex" unicode="&#xd4;" 
d="M614 212q244 0 244 463t-244 463t-243 -463q-1 -463 243 -463zM1157 679q0 -345 -140 -522t-402 -177q-263 0 -403 177t-140 522t140 518t403 173q262 0 402 -173t140 -518zM983 1427h-159l-203 134h-4l-211 -134h-160v28l258 250h229l250 -250v-28z" />
    <glyph glyph-name="Otilde" unicode="&#xd5;" 
d="M614 212q244 0 244 463t-244 463t-243 -463q-1 -463 243 -463zM1157 679q0 -345 -140 -522t-402 -177q-263 0 -403 177t-140 522t140 518t403 173q262 0 402 -173t140 -518zM793 1422q-57 0 -101 18t-86 38q-42 22 -80 40t-74 17q-38 1 -60 -23t-31 -90h-137
q12 156 68 220t157 63q67 -1 177 -57q42 -22 78 -38q36 -18 75 -18q75 0 90 113h135q-8 -111 -34 -168t-74 -86t-103 -29z" />
    <glyph glyph-name="Odieresis" unicode="&#xd6;" 
d="M614 212q244 0 244 463t-244 463t-243 -463q-1 -463 243 -463zM1157 679q0 -345 -140 -522t-402 -177q-263 0 -403 177t-140 522t140 518t403 173q262 0 402 -173t140 -518zM292 1445v219h224v-219h-224zM716 1445v219h227v-219h-227z" />
    <glyph glyph-name="multiply" unicode="&#xd7;" 
d="M102 326l356 358l-352 352l158 156l352 -350l352 352l158 -158l-352 -354l352 -350l-158 -160l-352 354l-356 -358z" />
    <glyph glyph-name="Oslash" unicode="&#xd8;" 
d="M371 679q0 -119 14 -193l407 545q-60 107 -177 107q-244 0 -244 -459zM615 212q243 0 243 467q0 109 -14 193l-408 -546q62 -114 179 -114zM1157 654q0 -320 -140 -497t-402 -177q-215 0 -349 119l-106 -142l-114 75l131 176q-105 176 -105 496t140.5 493t402.5 173
q212 0 345 -115l106 142l114 -75l-130 -173q107 -175 107 -495z" />
    <glyph glyph-name="Ugrave" unicode="&#xd9;" 
d="M603 -20q-250 0 -362 134t-112 414v821h295v-818q0 -175 40 -247t144 -73q103 0 150 77t47 253v808h295v-806q0 -287 -124 -425t-373 -138zM250 1702h258l252 -243v-31h-170l-340 231v43z" />
    <glyph glyph-name="Uacute" unicode="&#xda;" 
d="M603 -20q-250 0 -362 134t-112 414v821h295v-818q0 -175 40 -247t144 -73q103 0 150 77t47 253v808h295v-806q0 -287 -124 -425t-373 -138zM453 1428v31l252 243h258v-43l-340 -231h-170z" />
    <glyph glyph-name="Ucircumflex" unicode="&#xdb;" 
d="M603 -20q-250 0 -362 134t-112 414v821h295v-818q0 -175 40 -247t144 -73q103 0 150 77t47 253v808h295v-806q0 -287 -124 -425t-373 -138zM983 1427h-159l-203 134h-4l-211 -134h-160v28l258 250h229l250 -250v-28z" />
    <glyph glyph-name="Udieresis" unicode="&#xdc;" 
d="M603 -20q-250 0 -362 134t-112 414v821h295v-818q0 -175 40 -247t144 -73q103 0 150 77t47 253v808h295v-806q0 -287 -124 -425t-373 -138zM289 1445v219h224v-219h-224zM713 1445v219h227v-219h-227z" />
    <glyph glyph-name="Yacute" unicode="&#xdd;" 
d="M761 0h-294v556l-464 793h309l300 -566l304 566h309l-464 -793v-556zM468 1428v31l252 243h258v-43l-340 -231h-170z" />
    <glyph glyph-name="Thorn" unicode="&#xde;" 
d="M864 688q0 102 -69.5 159.5t-192.5 57.5h-170v-440h178q115 0 184.5 60.5t69.5 162.5zM1161 693q0 -126 -62.5 -226t-179 -155.5t-272.5 -55.5h-215v-256h-295v1349h295v-235h203q250 0 388 -110.5t138 -310.5z" />
    <glyph glyph-name="germandbls" unicode="&#xdf;" 
d="M529 229q128 -59 249 -59q64 0 101 35t37 89t-38 98.5t-131 105.5q-169 109 -169 262q0 100 112 198q61 54 86 94.5t25 95.5t-46.5 94t-134.5 39q-211 0 -211 -268v-1013h-281v1007q0 234 127.5 355.5t350.5 121.5t342 -90t119 -233t-71 -208t-112.5 -102.5t-41.5 -65.5
t20.5 -50.5t147.5 -116.5q168 -124 168 -296t-100.5 -257t-266.5 -85t-282 43v206z" />
    <glyph glyph-name="agrave" unicode="&#xe0;" 
d="M399 328q0 -152 120 -152q97 0 162 76t65 194v55l-134 -2q-90 -3 -130 -19q-82 -34 -83 -152zM746 711q0 209 -146 209q-76 0 -110 -36t-42 -117l-293 14q54 321 455 321q202 0 310 -99t107 -291v-392q1 -92 21 -126t60 -34t70 6v-152q-108 -26 -197 -26q-180 0 -200 205
h-6q-63 -113 -143 -163t-193 -50q-157 0 -245 86t-88 246q0 162 104 250t313 90l223 4v55zM233 1458h258l252 -243v-31h-170l-340 231v43z" />
    <glyph glyph-name="aacute" unicode="&#xe1;" 
d="M399 328q0 -152 120 -152q97 0 162 76t65 194v55l-134 -2q-90 -3 -130 -19q-82 -34 -83 -152zM746 711q0 209 -146 209q-76 0 -110 -36t-42 -117l-293 14q54 321 455 321q202 0 310 -99t107 -291v-392q1 -92 21 -126t60 -34t70 6v-152q-108 -26 -197 -26q-180 0 -200 205
h-6q-63 -113 -143 -163t-193 -50q-157 0 -245 86t-88 246q0 162 104 250t313 90l223 4v55zM444 1184v31l252 243h258v-43l-340 -231h-170z" />
    <glyph glyph-name="acircumflex" unicode="&#xe2;" 
d="M399 328q0 -152 120 -152q97 0 162 76t65 194v55l-134 -2q-90 -3 -130 -19q-82 -34 -83 -152zM746 711q0 209 -146 209q-76 0 -110 -36t-42 -117l-293 14q54 321 455 321q202 0 310 -99t107 -291v-392q1 -92 21 -126t60 -34t70 6v-152q-108 -26 -197 -26q-180 0 -200 205
h-6q-63 -113 -143 -163t-193 -50q-157 0 -245 86t-88 246q0 162 104 250t313 90l223 4v55zM965 1183h-159l-203 134h-4l-211 -134h-160v28l258 250h229l250 -250v-28z" />
    <glyph glyph-name="atilde" unicode="&#xe3;" 
d="M399 328q0 -152 120 -152q97 0 162 76t65 194v55l-134 -2q-90 -3 -130 -19q-82 -34 -83 -152zM746 711q0 209 -146 209q-76 0 -110 -36t-42 -117l-293 14q54 321 455 321q202 0 310 -99t107 -291v-392q1 -92 21 -126t60 -34t70 6v-152q-108 -26 -197 -26q-180 0 -200 205
h-6q-63 -113 -143 -163t-193 -50q-157 0 -245 86t-88 246q0 162 104 250t313 90l223 4v55zM785 1183q-57 -1 -101 17t-86 40t-80 38q-38 18 -74 18q-38 0 -60 -24t-31 -89h-137q12 155 68 219t157 64q67 0 177 -56q42 -22 78 -40t75 -17q75 0 90 113h135q-8 -111 -34 -168
t-74 -86t-103 -29z" />
    <glyph glyph-name="adieresis" unicode="&#xe4;" 
d="M399 328q0 -152 120 -152q97 0 162 76t65 194v55l-134 -2q-90 -3 -130 -19q-82 -34 -83 -152zM746 711q0 209 -146 209q-76 0 -110 -36t-42 -117l-293 14q54 321 455 321q202 0 310 -99t107 -291v-392q1 -92 21 -126t60 -34t70 6v-152q-108 -26 -197 -26q-180 0 -200 205
h-6q-63 -113 -143 -163t-193 -50q-157 0 -245 86t-88 246q0 162 104 250t313 90l223 4v55zM273 1219v219h224v-219h-224zM697 1219v219h227v-219h-227z" />
    <glyph glyph-name="aring" unicode="&#xe5;" 
d="M399 328q0 -152 120 -152q97 0 162 76t65 194v55l-134 -2q-90 -3 -130 -19q-82 -34 -83 -152zM746 711q0 209 -146 209q-76 0 -110 -36t-42 -117l-293 14q54 321 455 321q202 0 310 -99t107 -291v-392q1 -92 21 -126t60 -34t70 6v-152q-108 -26 -197 -26q-180 0 -200 205
h-6q-63 -113 -143 -163t-193 -50q-157 0 -245 86t-88 246q0 162 104 250t313 90l223 4v55zM709 1348q0 32 -28 52q-29 20 -75 19q-46 0 -75 -19t-29 -52t29 -52t75 -19q46 -1 74 19t29 52zM848 1348q0 -88 -66 -144t-176 -56q-112 0 -177 56t-65 145q0 88 66 143t177 55
q109 1 175 -55t66 -144z" />
    <glyph glyph-name="ae" unicode="&#xe6;" 
d="M1002 660q-16 264 -143 264q-40 0 -97 -51.5t-61 -212.5h301zM229 318q1 -156 79 -156t133.5 86t55.5 197v54l-102 -3q-93 -3 -129.5 -49.5t-36.5 -128.5zM873 1102q335 0 335 -575v-43h-509v-2q0 -149 44.5 -235.5t112.5 -86.5t100 38t48 103l178 -45
q-73 -276 -314 -276q-115 0 -181.5 55t-100.5 177q-98 -232 -308 -232q-123 0 -190.5 87t-67.5 247t82 251.5t248 94.5l147 4v55q0 93 -30 147t-86 54q-92 0 -108 -147l-208 17q39 312 315 312q176 0 247 -139q85 139 246 139z" />
    <glyph glyph-name="ccedilla" unicode="&#xe7;" 
d="M647 -259q0 69 -122 69q-38 0 -52 -2l64 177q-183 21 -293 141q-134 146 -134 412q0 264 135 414t383 150q191 0 316 -96t157 -265l-283 -14q-12 83 -60 133t-136 49q-217 -1 -217 -369t221 -368q80 0 134 50t67 151l282 -13q-15 -111 -79 -198q-120 -161 -352 -180
l-33 -84q93 -5 139 -46t46 -107q0 -190 -303 -190q-45 0 -101 6v118q35 -7 84 -7q137 0 137 69z" />
    <glyph glyph-name="egrave" unicode="&#xe8;" 
d="M625 925q-102 1 -163 -69t-65 -193h460q-7 120 -69 191t-163 71zM626 -20q-252 0 -389 148t-137 418q0 359 248 492q119 64 282 64q237 0 368 -158t131 -449v-8h-734q-1 -147 65 -233t180 -86q74 0 131 32t77 97l265 -23q-55 -142 -183 -218t-304 -76zM268 1458h258
l252 -243v-31h-170l-340 231v43z" />
    <glyph glyph-name="eacute" unicode="&#xe9;" 
d="M625 925q-102 1 -163 -69t-65 -193h460q-7 120 -69 191t-163 71zM626 -20q-252 0 -389 148t-137 418q0 359 248 492q119 64 282 64q237 0 368 -158t131 -449v-8h-734q-1 -147 65 -233t180 -86q74 0 131 32t77 97l265 -23q-55 -142 -183 -218t-304 -76zM478 1184v31
l252 243h258v-43l-340 -231h-170z" />
    <glyph glyph-name="ecircumflex" unicode="&#xea;" 
d="M625 925q-102 1 -163 -69t-65 -193h460q-7 120 -69 191t-163 71zM626 -20q-252 0 -389 148t-137 418q0 359 248 492q119 64 282 64q237 0 368 -158t131 -449v-8h-734q-1 -147 65 -233t180 -86q74 0 131 32t77 97l265 -23q-55 -142 -183 -218t-304 -76zM990 1183h-159
l-203 134h-4l-211 -134h-160v28l258 250h229l250 -250v-28z" />
    <glyph glyph-name="edieresis" unicode="&#xeb;" 
d="M625 925q-102 1 -163 -69t-65 -193h460q-7 120 -69 191t-163 71zM626 -20q-252 0 -389 148t-137 418q0 359 248 492q119 64 282 64q237 0 368 -158t131 -449v-8h-734q-1 -147 65 -233t180 -86q74 0 131 32t77 97l265 -23q-55 -142 -183 -218t-304 -76zM297 1219v219h224
v-219h-224zM721 1219v219h227v-219h-227z" />
    <glyph glyph-name="igrave" unicode="&#xec;" 
d="M794 190h353v-190h-1029v190h395v702h-290v190h571v-892zM280 1458h258l252 -243v-31h-170l-340 231v43z" />
    <glyph glyph-name="iacute" unicode="&#xed;" 
d="M794 190h353v-190h-1029v190h395v702h-290v190h571v-892zM471 1184v31l252 243h258v-43l-340 -231h-170z" />
    <glyph glyph-name="icircumflex" unicode="&#xee;" 
d="M794 190h353v-190h-1029v190h395v702h-290v190h571v-892zM993 1183h-159l-203 134h-4l-211 -134h-160v28l258 250h229l250 -250v-28z" />
    <glyph glyph-name="idieresis" unicode="&#xef;" 
d="M794 190h353v-190h-1029v190h395v702h-290v190h571v-892zM330 1219v219h224v-219h-224zM754 1219v219h227v-219h-227z" />
    <glyph glyph-name="eth" unicode="&#xf0;" 
d="M841 478q0 160 -53.5 234t-175.5 74t-177.5 -75.5t-55.5 -233.5q0 -307 223 -307q127 0 183 74t56 234zM1135 541v-4q0 -267 -135.5 -412t-387.5 -145t-390 132t-138 368t137.5 367.5t389.5 131.5q78 0 134 -20q-57 119 -141 217l-235 -102l-77 155l186 79
q-88 71 -258 176h293q96 -48 160 -94l249 109l83 -154l-185 -79q315 -320 315 -725z" />
    <glyph glyph-name="ntilde" unicode="&#xf1;" 
d="M143 840q0 125 -8 242h268q3 -20 8 -102t5 -113h4q57 124 143 180t205 56q336 0 336 -416v-687h-280v619q0 141 -38 207t-138 66t-162 -88t-62 -224v-580h-281v840zM803 1183q-57 -1 -101 17t-86 40t-80 38q-38 18 -74 18q-38 0 -60 -24t-31 -89h-137q12 155 68 219
t157 64q67 0 177 -56q42 -22 78 -40t75 -17q75 0 90 113h135q-8 -111 -34 -168t-74 -86t-103 -29z" />
    <glyph glyph-name="ograve" unicode="&#xf2;" 
d="M387 542q0 -370 220 -370q124 0 180 88t56 280q0 194 -51 282q-52 88 -174 87q-122 0 -176 -88t-55 -279zM1137 542q0 -270 -136 -416q-137 -146 -387 -146t-386 146t-136 416q0 268 135 414t389 146q521 0 521 -560zM277 1458h258l252 -243v-31h-170l-340 231v43z" />
    <glyph glyph-name="oacute" unicode="&#xf3;" 
d="M387 542q0 -370 220 -370q124 0 180 88t56 280q0 194 -51 282q-52 88 -174 87q-122 0 -176 -88t-55 -279zM1137 542q0 -270 -136 -416q-137 -146 -387 -146t-386 146t-136 416q0 268 135 414t389 146q521 0 521 -560zM468 1184v31l252 243h258v-43l-340 -231h-170z" />
    <glyph glyph-name="ocircumflex" unicode="&#xf4;" 
d="M387 542q0 -370 220 -370q124 0 180 88t56 280q0 194 -51 282q-52 88 -174 87q-122 0 -176 -88t-55 -279zM1137 542q0 -270 -136 -416q-137 -146 -387 -146t-386 146t-136 416q0 268 135 414t389 146q521 0 521 -560zM983 1183h-159l-203 134h-4l-211 -134h-160v28
l258 250h229l250 -250v-28z" />
    <glyph glyph-name="otilde" unicode="&#xf5;" 
d="M387 542q0 -370 220 -370q124 0 180 88t56 280q0 194 -51 282q-52 88 -174 87q-122 0 -176 -88t-55 -279zM1137 542q0 -270 -136 -416q-137 -146 -387 -146t-386 146t-136 416q0 268 135 414t389 146q521 0 521 -560zM793 1183q-57 -1 -101 17t-86 40t-80 38
q-38 18 -74 18q-38 0 -60 -24t-31 -89h-137q12 155 68 219t157 64q67 0 177 -56q42 -22 78 -40t75 -17q75 0 90 113h135q-8 -111 -34 -168t-74 -86t-103 -29z" />
    <glyph glyph-name="odieresis" unicode="&#xf6;" 
d="M387 542q0 -370 220 -370q124 0 180 88t56 280q0 194 -51 282q-52 88 -174 87q-122 0 -176 -88t-55 -279zM1137 542q0 -270 -136 -416q-137 -146 -387 -146t-386 146t-136 416q0 268 135 414t389 146q521 0 521 -560zM289 1219v219h224v-219h-224zM713 1219v219h227v-219
h-227z" />
    <glyph glyph-name="divide" unicode="&#xf7;" 
d="M494 170v233h238v-233h-238zM101 569v224h1027v-224h-1027zM494 961v233h238v-233h-238z" />
    <glyph glyph-name="oslash" unicode="&#xf8;" 
d="M387 542q0 -84 10 -148l387 438q-52 77 -170 77t-172.5 -88t-54.5 -279zM843 542q0 83 -11 156l-389 -439q55 -87 171 -87t172.5 87.5t56.5 282.5zM1137 530q0 -258 -136 -404t-391 -146q-200 0 -328 97l-85 -97l-96 78l95 107q-104 143 -104 394t135 397t389 146
q205 0 329 -87l79 89l98 -78l-87 -98q102 -140 102 -398z" />
    <glyph glyph-name="ugrave" unicode="&#xf9;" 
d="M416 1082v-607q0 -137 44 -211t132 -74q86 0 144 88t59 224v580h281v-840q0 -138 8 -242h-268q-12 144 -12 215h-5q-107 -235 -328 -235q-164 0 -250 104t-86 311v687h281zM253 1458h258l252 -243v-31h-170l-340 231v43z" />
    <glyph glyph-name="uacute" unicode="&#xfa;" 
d="M416 1082v-607q0 -137 44 -211t132 -74q86 0 144 88t59 224v580h281v-840q0 -138 8 -242h-268q-12 144 -12 215h-5q-107 -235 -328 -235q-164 0 -250 104t-86 311v687h281zM457 1184v31l252 243h258v-43l-340 -231h-170z" />
    <glyph glyph-name="ucircumflex" unicode="&#xfb;" 
d="M416 1082v-607q0 -137 44 -211t132 -74q86 0 144 88t59 224v580h281v-840q0 -138 8 -242h-268q-12 144 -12 215h-5q-107 -235 -328 -235q-164 0 -250 104t-86 311v687h281zM983 1183h-159l-203 134h-4l-211 -134h-160v28l258 250h229l250 -250v-28z" />
    <glyph glyph-name="udieresis" unicode="&#xfc;" 
d="M416 1082v-607q0 -137 44 -211t132 -74q86 0 144 88t59 224v580h281v-840q0 -138 8 -242h-268q-12 144 -12 215h-5q-107 -235 -328 -235q-164 0 -250 104t-86 311v687h281zM289 1219v219h224v-219h-224zM713 1219v219h227v-219h-227z" />
    <glyph glyph-name="yacute" unicode="&#xfd;" 
d="M346 -425q-126 0 -203 13v200l51 -5l51 -3q113 0 171 82q32 44 70 149l-448 1071h297l190 -527q40 -109 101 -334l90 330l180 531h294l-448 -1139q-80 -206 -175 -287t-221 -81zM474 1184v31l252 243h258v-43l-340 -231h-170z" />
    <glyph glyph-name="thorn" unicode="&#xfe;" 
d="M634 172q210 0 210 368t-208 368q-101 0 -158.5 -97t-57.5 -273t57.5 -271t156.5 -95zM143 1484h281v-412l-4 -168h4q111 199 321 199q179 0 280.5 -147t101.5 -412t-105.5 -414.5t-294.5 -149.5q-99 0 -178.5 50.5t-124.5 141.5h-6q6 -30 6 -182v-415h-281v1909z" />
    <glyph glyph-name="ydieresis" unicode="&#xff;" 
d="M346 -425q-126 0 -203 13v200l51 -5l51 -3q113 0 171 82q32 44 70 149l-448 1071h297l190 -527q40 -109 101 -334l90 330l180 531h294l-448 -1139q-80 -206 -175 -287t-221 -81zM294 1219v219h224v-219h-224zM718 1219v219h227v-219h-227z" />
    <glyph glyph-name="Amacron" unicode="&#x100;" 
d="M615 1167q-17 -88 -166 -615h332q-147 518 -166 615zM1229 0h-294l-92 330h-456l-92 -330h-295l443 1349h344zM310 1638h612v-168h-612v168z" />
    <glyph glyph-name="amacron" unicode="&#x101;" 
d="M399 328q0 -152 120 -152q97 0 162 76t65 194v55l-134 -2q-90 -3 -130 -19q-82 -34 -83 -152zM746 711q0 209 -146 209q-76 0 -110 -36t-42 -117l-293 14q54 321 455 321q202 0 310 -99t107 -291v-392q1 -92 21 -126t60 -34t70 6v-152q-108 -26 -197 -26q-180 0 -200 205
h-6q-63 -113 -143 -163t-193 -50q-157 0 -245 86t-88 246q0 162 104 250t313 90l223 4v55zM301 1371h612v-168h-612v168z" />
    <glyph glyph-name="Abreve" unicode="&#x102;" 
d="M615 1167q-17 -88 -166 -615h332q-147 518 -166 615zM1229 0h-294l-92 330h-456l-92 -330h-295l443 1349h344zM612 1427q-161 1 -251 73t-101 205h163q15 -121 191 -121q88 0 132 29t58 92h164q-34 -278 -356 -278z" />
    <glyph glyph-name="abreve" unicode="&#x103;" 
d="M399 328q0 -152 120 -152q97 0 162 76t65 194v55l-134 -2q-90 -3 -130 -19q-82 -34 -83 -152zM746 711q0 209 -146 209q-76 0 -110 -36t-42 -117l-293 14q54 321 455 321q202 0 310 -99t107 -291v-392q1 -92 21 -126t60 -34t70 6v-152q-108 -26 -197 -26q-180 0 -200 205
h-6q-63 -113 -143 -163t-193 -50q-157 0 -245 86t-88 246q0 162 104 250t313 90l223 4v55zM593 1183q-161 1 -251 73t-101 205h163q15 -121 191 -121q88 0 132 29t58 92h164q-34 -278 -356 -278z" />
    <glyph glyph-name="Aogonek" unicode="&#x104;" 
d="M615 1167q-17 -88 -166 -615h332q-147 518 -166 615zM1022 -178q0 -42 24 -68t74 -25q50 0 108 27v-137q-62 -33 -162 -33t-163 54t-63 138q0 136 109 222h-14l-92 330h-456l-92 -330h-295l443 1349h344l442 -1349h-119q-88 -80 -88 -178z" />
    <glyph glyph-name="aogonek" unicode="&#x105;" 
d="M399 328q0 -152 120 -152q97 0 162 76t65 194v55l-134 -2q-90 -3 -130 -19q-82 -34 -83 -152zM965 -184q1 -98 99 -98q50 0 107 27v-137q-63 -33 -163 -33t-162 54q-63 53 -63 137t38 143t86 92q-111 36 -126 192h-6q-63 -113 -143 -163t-193 -50q-157 0 -245 86t-88 246
q0 162 104 250t313 90l223 4v55q0 209 -146 209q-76 0 -110 -36t-42 -117l-293 14q54 321 455 321q202 0 310 -99t107 -291v-392q1 -92 21 -126t60 -34t70 6v-152q-25 -6 -52 -13t-72 -11q-35 -31 -62 -78q-27 -48 -27 -96z" />
    <glyph glyph-name="Cacute" unicode="&#x106;" 
d="M380 681q0 -225 70 -347t209 -122q162 0 240 244l273 -52q-133 -424 -516 -424q-280 0 -428 178t-148 523q0 689 568 689q377 0 496 -389l-272 -66q-29 107 -87 165t-133 58q-272 0 -272 -457zM499 1428v31l252 243h258v-43l-340 -231h-170z" />
    <glyph glyph-name="cacute" unicode="&#x107;" 
d="M624 -20q-246 0 -380 146t-134 412q0 264 135 414t383 150q191 0 316 -96t157 -265l-283 -14q-12 83 -60 133t-136 49q-217 -1 -217 -369t221 -368q80 0 134 50t67 151l282 -13q-15 -111 -79 -198q-64 -86 -170 -134q-105 -48 -236 -48zM469 1184v31l252 243h258v-43
l-340 -231h-170z" />
    <glyph glyph-name="Ccircumflex" unicode="&#x108;" 
d="M380 681q0 -225 70 -347t209 -122q162 0 240 244l273 -52q-133 -424 -516 -424q-280 0 -428 178t-148 523q0 689 568 689q377 0 496 -389l-272 -66q-29 107 -87 165t-133 58q-272 0 -272 -457zM1003 1427h-159l-203 134h-4l-211 -134h-160v28l258 250h229l250 -250v-28z
" />
    <glyph glyph-name="ccircumflex" unicode="&#x109;" 
d="M624 -20q-246 0 -380 146t-134 412q0 264 135 414t383 150q191 0 316 -96t157 -265l-283 -14q-12 83 -60 133t-136 49q-217 -1 -217 -369t221 -368q80 0 134 50t67 151l282 -13q-15 -111 -79 -198q-64 -86 -170 -134q-105 -48 -236 -48zM983 1183h-159l-203 134h-4
l-211 -134h-160v28l258 250h229l250 -250v-28z" />
    <glyph glyph-name="Cdotaccent" unicode="&#x10a;" 
d="M380 681q0 -225 70 -347t209 -122q162 0 240 244l273 -52q-133 -424 -516 -424q-280 0 -428 178t-148 523q0 689 568 689q377 0 496 -389l-272 -66q-29 107 -87 165t-133 58q-272 0 -272 -457zM504 1421v207h281v-207h-281z" />
    <glyph glyph-name="cdotaccent" unicode="&#x10b;" 
d="M624 -20q-246 0 -380 146t-134 412q0 264 135 414t383 150q191 0 316 -96t157 -265l-283 -14q-12 83 -60 133t-136 49q-217 -1 -217 -369t221 -368q80 0 134 50t67 151l282 -13q-15 -111 -79 -198q-64 -86 -170 -134q-105 -48 -236 -48zM494 1267v207h281v-207h-281z" />
    <glyph glyph-name="Ccaron" unicode="&#x10c;" 
d="M380 681q0 -225 70 -347t209 -122q162 0 240 244l273 -52q-133 -424 -516 -424q-280 0 -428 178t-148 523q0 689 568 689q377 0 496 -389l-272 -66q-29 107 -87 165t-133 58q-272 0 -272 -457zM263 1705h160l211 -134h4l203 134h159v-29l-250 -249h-229l-258 249v29z" />
    <glyph glyph-name="ccaron" unicode="&#x10d;" 
d="M624 -20q-246 0 -380 146t-134 412q0 264 135 414t383 150q191 0 316 -96t157 -265l-283 -14q-12 83 -60 133t-136 49q-217 -1 -217 -369t221 -368q80 0 134 50t67 151l282 -13q-15 -111 -79 -198q-64 -86 -170 -134q-105 -48 -236 -48zM242 1461h160l211 -134h4l203 134
h159v-29l-250 -249h-229l-258 249v29z" />
    <glyph glyph-name="Dcaron" unicode="&#x10e;" 
d="M852 685q0 227 -86 331t-275 105h-61v-893h102q320 0 320 457zM496 1349q653 1 653 -661q0 -332 -154 -510t-439 -178h-421v1349h361zM217 1705h160l211 -134h4l203 134h159v-29l-250 -249h-229l-258 249v29z" />
    <glyph glyph-name="dcaron" unicode="&#x10f;" 
d="M971 1129v33l29 322h231v-37l-121 -318h-139zM627 546q0 118 -21 198.5t-57.5 122.5t-82.5 42q-72 0 -112.5 -97.5t-40.5 -269.5t40 -271t111 -99q45 0 82.5 46t59 128t21.5 200zM625 176h-4q-53 -107 -117.5 -151.5t-148.5 -44.5q-148 0 -237.5 154t-89.5 409t90.5 406
t254.5 151t250 -191h2l-2 178v397h271v-1248q0 -100 8 -236h-262q-4 15 -9.5 75.5t-5.5 100.5z" />
    <glyph glyph-name="Dcroat" unicode="&#x110;" 
d="M865 685q1 227 -85 331t-276 105h-61v-338h207v-219h-207v-336h102q320 0 320 457zM509 1349q653 1 653 -661q0 -332 -154 -510t-439 -178h-421v564h-134v219h134v566h361z" />
    <glyph glyph-name="dcroat" unicode="&#x111;" 
d="M588 877q-203 -1 -203 -353t201 -352q101 0 157 93t56 263t-53.5 259.5t-157.5 89.5zM488 1068q222 0 307 -191h2l-2 210v93h-282v169h282v135h281v-135h133v-169h-133v-944q0 -100 8 -236h-272q-4 15 -9.5 75.5t-5.5 100.5h-4q-53 -107 -131 -151.5t-185 -44.5
q-181 0 -283 144.5t-102 402.5t102.5 399.5t293.5 141.5z" />
    <glyph glyph-name="Emacron" unicode="&#x112;" 
d="M137 0v1349h968v-228h-673v-324h612v-228h-612v-341h714v-228h-1009zM326 1638h612v-168h-612v168z" />
    <glyph glyph-name="emacron" unicode="&#x113;" 
d="M625 925q-102 1 -163 -69t-65 -193h460q-7 120 -69 191t-163 71zM626 -20q-252 0 -389 148t-137 418q0 359 248 492q119 64 282 64q237 0 368 -158t131 -449v-8h-734q-1 -147 65 -233t180 -86q74 0 131 32t77 97l265 -23q-55 -142 -183 -218t-304 -76zM310 1371h612v-168
h-612v168z" />
    <glyph glyph-name="Ebreve" unicode="&#x114;" 
d="M137 0v1349h968v-228h-673v-324h612v-228h-612v-341h714v-228h-1009zM612 1427q-161 1 -251 73t-101 205h163q15 -121 191 -121q88 0 132 29t58 92h164q-34 -278 -356 -278z" />
    <glyph glyph-name="ebreve" unicode="&#x115;" 
d="M625 925q-102 1 -163 -69t-65 -193h460q-7 120 -69 191t-163 71zM626 -20q-252 0 -389 148t-137 418q0 359 248 492q119 64 282 64q237 0 368 -158t131 -449v-8h-734q-1 -147 65 -233t180 -86q74 0 131 32t77 97l265 -23q-55 -142 -183 -218t-304 -76zM616 1183
q-161 1 -251 73t-101 205h163q15 -121 191 -121q88 0 132 29t58 92h164q-34 -278 -356 -278z" />
    <glyph glyph-name="Edotaccent" unicode="&#x116;" 
d="M137 0v1349h968v-228h-673v-324h612v-228h-612v-341h714v-228h-1009zM474 1421v207h281v-207h-281z" />
    <glyph glyph-name="edotaccent" unicode="&#x117;" 
d="M625 925q-102 1 -163 -69t-65 -193h460q-7 120 -69 191t-163 71zM626 -20q-252 0 -389 148t-137 418q0 359 248 492q119 64 282 64q237 0 368 -158t131 -449v-8h-734q-1 -147 65 -233t180 -86q74 0 131 32t77 97l265 -23q-55 -142 -183 -218t-304 -76zM476 1273v207h281
v-207h-281z" />
    <glyph glyph-name="Eogonek" unicode="&#x118;" 
d="M933 -184q1 -98 99 -98q50 0 107 27v-137q-63 -33 -163 -33t-162 54q-63 53 -63 137t38 142t85 92h-737v1349h968v-228h-673v-324h612v-228h-612v-341h714v-228h-112q-42 -35 -72 -85q-29 -51 -29 -99z" />
    <glyph glyph-name="eogonek" unicode="&#x119;" 
d="M625 925q-102 1 -163 -69t-65 -193h460q-7 120 -69 191t-163 71zM664 -184q0 -98 98 -98q50 0 108 27v-137q-62 -33 -162 -33t-163 54t-63 160t99 192q-220 12 -350 154q-131 142 -131 411q0 359 248 492q119 64 282 64q237 0 368 -158t131 -449v-8h-734q-1 -147 65 -233
t180 -86q74 0 131 32t77 97l265 -23q-55 -142 -183 -218q-79 -47 -176 -65q-35 -31 -62 -79q-28 -48 -28 -96z" />
    <glyph glyph-name="Ecaron" unicode="&#x11a;" 
d="M137 0v1349h968v-228h-673v-324h612v-228h-612v-341h714v-228h-1009zM257 1705h160l211 -134h4l203 134h159v-29l-250 -249h-229l-258 249v29z" />
    <glyph glyph-name="ecaron" unicode="&#x11b;" 
d="M625 925q-102 1 -163 -69t-65 -193h460q-7 120 -69 191t-163 71zM626 -20q-252 0 -389 148t-137 418q0 359 248 492q119 64 282 64q237 0 368 -158t131 -449v-8h-734q-1 -147 65 -233t180 -86q74 0 131 32t77 97l265 -23q-55 -142 -183 -218t-304 -76zM239 1461h160
l211 -134h4l203 134h159v-29l-250 -249h-229l-258 249v29z" />
    <glyph glyph-name="Gcircumflex" unicode="&#x11c;" 
d="M650 216q117 0 208 74v235h-274v218h544v-558q-242 -205 -498 -205t-403 184t-147 517q0 689 558 689q355 0 462 -375l-274 -54q-52 197 -186 197t-198 -108t-63 -349q0 -465 271 -465zM983 1427h-159l-203 134h-4l-211 -134h-160v28l258 250h229l250 -250v-28z" />
    <glyph glyph-name="gcircumflex" unicode="&#x11d;" 
d="M831 558q0 162 -56 255q-57 93 -155 93t-150 -90t-53 -266q0 -174 54 -258q55 -84 153 -85q98 0 152 94q54 95 55 257zM834 908q0 121 14 174h266q-6 -108 -6 -250v-799q0 -227 -128 -347t-364 -120q-186 0 -303 77t-144 214l281 33q15 -65 62 -103t112 -38
q205 0 205 288v59l2 115h-2q-93 -199 -328 -199q-179 0 -278 140t-99 400t103 404t295 143q218 0 307 -191h5zM974 1183h-159l-203 134h-4l-211 -134h-160v28l258 250h229l250 -250v-28z" />
    <glyph glyph-name="Gbreve" unicode="&#x11e;" 
d="M650 216q117 0 208 74v235h-274v218h544v-558q-242 -205 -498 -205t-403 184t-147 517q0 689 558 689q355 0 462 -375l-274 -54q-52 197 -186 197t-198 -108t-63 -349q0 -465 271 -465zM615 1427q-161 1 -251 73t-101 205h163q15 -121 191 -121q88 0 132 29t58 92h164
q-34 -278 -356 -278z" />
    <glyph glyph-name="gbreve" unicode="&#x11f;" 
d="M831 558q0 162 -56 255q-57 93 -155 93t-150 -90t-53 -266q0 -174 54 -258q55 -84 153 -85q98 0 152 94q54 95 55 257zM834 908q0 121 14 174h266q-6 -108 -6 -250v-799q0 -227 -128 -347t-364 -120q-186 0 -303 77t-144 214l281 33q15 -65 62 -103t112 -38
q205 0 205 288v59l2 115h-2q-93 -199 -328 -199q-179 0 -278 140t-99 400t103 404t295 143q218 0 307 -191h5zM603 1183q-161 1 -251 73t-101 205h163q15 -121 191 -121q88 0 132 29t58 92h164q-34 -278 -356 -278z" />
    <glyph glyph-name="Gdotaccent" unicode="&#x120;" 
d="M650 216q117 0 208 74v235h-274v218h544v-558q-242 -205 -498 -205t-403 184t-147 517q0 689 558 689q355 0 462 -375l-274 -54q-52 197 -186 197t-198 -108t-63 -349q0 -465 271 -465zM484 1421v207h281v-207h-281z" />
    <glyph glyph-name="gdotaccent" unicode="&#x121;" 
d="M831 558q0 162 -56 255q-57 93 -155 93t-150 -90t-53 -266q0 -174 54 -258q55 -84 153 -85q98 0 152 94q54 95 55 257zM834 908q0 121 14 174h266q-6 -108 -6 -250v-799q0 -227 -128 -347t-364 -120q-186 0 -303 77t-144 214l281 33q15 -65 62 -103t112 -38
q205 0 205 288v59l2 115h-2q-93 -199 -328 -199q-179 0 -278 140t-99 400t103 404t295 143q218 0 307 -191h5zM465 1267v207h281v-207h-281z" />
    <glyph glyph-name="Gcommaaccent" unicode="&#x122;" 
d="M650 216q117 0 208 74v235h-274v218h544v-558q-242 -205 -498 -205t-403 184t-147 517q0 689 558 689q355 0 462 -375l-274 -54q-52 197 -186 197t-198 -108t-63 -349q0 -465 271 -465zM435 -453v33l89 322h257v-37l-181 -318h-165z" />
    <glyph glyph-name="gcommaaccent" unicode="&#x123;" 
d="M831 558q0 162 -56 255q-57 93 -155 93t-150 -90t-53 -266q0 -174 54 -258q55 -84 153 -85q98 0 152 94q54 95 55 257zM834 908q0 121 14 174h266q-6 -108 -6 -250v-799q0 -227 -128 -347t-364 -120q-186 0 -303 77t-144 214l281 33q15 -65 62 -103t112 -38
q205 0 205 288v59l2 115h-2q-93 -199 -328 -199q-179 0 -278 140t-99 400t103 404t295 143q218 0 307 -191h5zM790 1566v-33l-89 -322h-257v37l181 318h165z" />
    <glyph glyph-name="Hcircumflex" unicode="&#x124;" 
d="M796 0v574h-363v-574h-295v1349h295v-531h363v531h295v-1349h-295zM983 1427h-159l-203 134h-4l-211 -134h-160v28l258 250h229l250 -250v-28z" />
    <glyph glyph-name="hcircumflex" unicode="&#x125;" 
d="M983 1427h-159l-203 134h-4l-211 -134h-160v28l258 250h229l250 -250v-28zM768 1102q336 0 336 -416v-686h-280v621q0 151 -40.5 210.5t-137.5 59.5t-159.5 -87.5t-62.5 -224.5v-579h-281v1349h281v-270q0 -109 -8 -213h4q57 124 143 180t205 56z" />
    <glyph glyph-name="Hbar" unicode="&#x126;" 
d="M796 818v186h-363v-186h363zM796 0v574h-363v-574h-295v1004h-136v168h136v177h295v-177h363v177h295v-177h135v-168h-135v-1004h-295z" />
    <glyph glyph-name="hbar" unicode="&#x127;" 
d="M768 1062q336 0 336 -416v-646h-280v581q0 151 -40.5 210.5t-137.5 59.5t-159.5 -87.5t-62.5 -224.5v-539h-281v1180h-134v169h134v135h281v-135h300v-169h-300v-141q0 -109 -8 -213h4q57 124 143 180t205 56z" />
    <glyph glyph-name="Itilde" unicode="&#x128;" 
d="M157 1349h916v-228h-311v-893h311v-228h-916v228h311v893h-311v228zM793 1422q-57 0 -101 18t-86 38q-42 22 -80 40t-74 17q-38 1 -60 -23t-31 -90h-137q12 156 68 220t157 63q67 -1 177 -57q42 -22 78 -38q36 -18 75 -18q75 0 90 113h135q-8 -111 -34 -168t-74 -86
t-103 -29z" />
    <glyph glyph-name="itilde" unicode="&#x129;" 
d="M794 190h353v-190h-1029v190h395v702h-290v190h571v-892zM794 1183q-56 -1 -100 17t-87 40q-41 22 -79 38q-38 18 -76 18t-59 -24q-22 -24 -31 -89h-137q11 155 67 219t158 64q67 0 177 -56q43 -22 79 -40t74 -17q75 0 90 113h135q-8 -111 -34 -168q-25 -57 -73 -86
t-104 -29z" />
    <glyph glyph-name="Imacron" unicode="&#x12a;" 
d="M157 1349h916v-228h-311v-893h311v-228h-916v228h311v893h-311v228zM310 1638h612v-168h-612v168z" />
    <glyph glyph-name="imacron" unicode="&#x12b;" 
d="M794 190h353v-190h-1029v190h395v702h-290v190h571v-892zM316 1371h612v-168h-612v168z" />
    <glyph glyph-name="Ibreve" unicode="&#x12c;" 
d="M157 1349h916v-228h-311v-893h311v-228h-916v228h311v893h-311v228zM612 1427q-161 1 -251 73t-101 205h163q15 -121 191 -121q88 0 132 29t58 92h164q-34 -278 -356 -278z" />
    <glyph glyph-name="ibreve" unicode="&#x12d;" 
d="M794 190h353v-190h-1029v190h395v702h-290v190h571v-892zM632 1183q-161 1 -251 73t-101 205h163q15 -121 191 -121q88 0 132 29t58 92h164q-34 -278 -356 -278z" />
    <glyph glyph-name="Iogonek" unicode="&#x12e;" 
d="M615 -184q1 -98 99 -98q50 0 107 27v-137q-63 -33 -163 -33t-162 54q-63 53 -63 137t38 142t85 92h-399v228h311v893h-311v228h916v-228h-311v-893h311v-228h-357q-42 -35 -72 -85q-29 -51 -29 -99z" />
    <glyph glyph-name="iogonek" unicode="&#x12f;" 
d="M513 1277v207h281v-207h-281zM658 -184q0 -98 98 -98q50 0 108 27v-137q-62 -33 -162 -33t-163 54q-63 53 -63 137t38 142t85 92h-481v190h395v702h-290v190h571v-892h353v-190h-388q-42 -35 -72 -85q-29 -51 -29 -99z" />
    <glyph glyph-name="Idotaccent" unicode="&#x130;" 
d="M157 1349h916v-228h-311v-893h311v-228h-916v228h311v893h-311v228zM474 1421v207h281v-207h-281z" />
    <glyph glyph-name="dotlessi" unicode="&#x131;" 
d="M794 190h353v-190h-1029v190h395v702h-290v190h571v-892z" />
    <glyph glyph-name="IJ" unicode="&#x132;" 
d="M784 -20q-173 0 -261.5 89t-105.5 291l264 38q11 -102 34.5 -144.5t72.5 -42.5t67 47t18 156v704h-254v231h540v-903q0 -466 -375 -466zM73 1349h284v-1349h-284v1349z" />
    <glyph glyph-name="ij" unicode="&#x133;" 
d="M772 1277v207h281v-207h-281zM575 -425q-156 0 -269 43v210q136 -34 254 -34t164.5 53.5t46.5 162.5v1072h282v-1095q0 -129 -56.5 -221.5t-161 -141.5t-260.5 -49zM170 1277v207h281v-207h-281zM451 0h-281v1082h281v-1082z" />
    <glyph glyph-name="Jcircumflex" unicode="&#x134;" 
d="M393 445q40 -234 178 -234q68 0 111 59t43 169v679h-301v231h595v-903q0 -218 -121 -342q-122 -124 -326 -124t-322 109t-148 313zM1103 1427h-159l-203 134h-4l-211 -134h-160v28l258 250h229l250 -250v-28z" />
    <glyph glyph-name="jcircumflex" unicode="&#x135;" 
d="M448 -425q-156 0 -269 43v210q137 -34 255 -34t164 54t46 162v882h-354v190h636v-1095q0 -129 -56 -221t-162 -142q-104 -49 -260 -49zM1086 1183h-159l-203 134h-4l-211 -134h-160v28l258 250h229l250 -250v-28z" />
    <glyph glyph-name="Kcommaaccent" unicode="&#x136;" 
d="M431 0h-295v1349h295v-599l436 599h343l-460 -579l479 -770h-348l-323 557l-127 -142v-415zM435 -453v33l89 322h257v-37l-181 -318h-165z" />
    <glyph glyph-name="kcommaaccent" unicode="&#x137;" 
d="M454 0h-281v1484h281v-850l386 448h302l-380 -422l409 -660h-307l-289 490l-121 -84v-406zM435 -453v33l89 322h257v-37l-181 -318h-165z" />
    <glyph glyph-name="kgreenlandic" unicode="&#x138;" 
d="M454 0h-281v1082h281v-468l386 468h302l-380 -442l409 -640h-307l-289 470l-121 -84v-386z" />
    <glyph glyph-name="Lacute" unicode="&#x139;" 
d="M211 0v1349h295v-1121h616v-228h-911zM269 1429v31l252 243h258v-43l-340 -231h-170z" />
    <glyph glyph-name="lacute" unicode="&#x13a;" 
d="M496 1431v31l252 243h258v-43l-340 -231h-170zM794 190h353v-190h-1029v190h395v969h-290v190h571v-1159z" />
    <glyph glyph-name="Lcommaaccent" unicode="&#x13b;" 
d="M211 0v1349h295v-1121h616v-228h-911zM445 -453v33l89 322h257v-37l-181 -318h-165z" />
    <glyph glyph-name="lcommaaccent" unicode="&#x13c;" 
d="M794 190h353v-190h-1029v190h395v1104h-290v190h571v-1294zM435 -453v33l89 322h257v-37l-181 -318h-165z" />
    <glyph glyph-name="Lcaron" unicode="&#x13d;" 
d="M211 0v1349h295v-1121h616v-228h-911zM755 994v33l89 322h257v-37l-181 -318h-165z" />
    <glyph glyph-name="lcaron" unicode="&#x13e;" 
d="M745 190h353v-190h-1029v190h395v1104h-290v190h571v-1294zM855 1129v33l89 322h257v-37l-181 -318h-165z" />
    <glyph glyph-name="Ldot" unicode="&#x13f;" 
d="M211 0v1349h295v-1121h616v-228h-911zM660 583v207h281v-207h-281z" />
    <glyph glyph-name="ldot" unicode="&#x140;" 
d="M794 190h353v-190h-1029v190h395v1104h-290v190h571v-1294zM890 583v207h281v-207h-281z" />
    <glyph glyph-name="Lslash" unicode="&#x141;" 
d="M221 1349h295v-539l246 128l92 -181l-338 -177v-352h616v-228h-911v426l-124 -64l-97 181l221 114v692z" />
    <glyph glyph-name="lslash" unicode="&#x142;" 
d="M794 190h353v-190h-1029v190h395v397l-196 -112l-85 154l281 160v505h-290v190h571v-534l211 121l83 -155l-294 -168v-558z" />
    <glyph glyph-name="Nacute" unicode="&#x143;" 
d="M392 656v-656h-257v1349h337l393 -1037q-28 235 -28 365v672h257v-1349h-346l-384 1010q28 -252 28 -354zM489 1429v31l252 243h258v-43l-340 -231h-170z" />
    <glyph glyph-name="nacute" unicode="&#x144;" 
d="M143 840q0 125 -8 242h268q3 -20 8 -102t5 -113h4q57 124 143 180t205 56q336 0 336 -416v-687h-280v619q0 141 -38 207t-138 66t-162 -88t-62 -224v-580h-281v840zM504 1184v31l252 243h258v-43l-340 -231h-170z" />
    <glyph glyph-name="Ncommaaccent" unicode="&#x145;" 
d="M392 656v-656h-257v1349h337l393 -1037q-28 235 -28 365v672h257v-1349h-346l-384 1010q28 -252 28 -354zM404 -453v33l89 322h257v-37l-181 -318h-165z" />
    <glyph glyph-name="ncommaaccent" unicode="&#x146;" 
d="M143 840q0 125 -8 242h268q3 -20 8 -102t5 -113h4q57 124 143 180t205 56q336 0 336 -416v-687h-280v619q0 141 -38 207t-138 66t-162 -88t-62 -224v-580h-281v840zM408 -453v33l89 322h257v-37l-181 -318h-165z" />
    <glyph glyph-name="Ncaron" unicode="&#x147;" 
d="M392 656v-656h-257v1349h337l393 -1037q-28 235 -28 365v672h257v-1349h-346l-384 1010q28 -252 28 -354zM242 1705h160l211 -134h4l203 134h159v-29l-250 -249h-229l-258 249v29z" />
    <glyph glyph-name="ncaron" unicode="&#x148;" 
d="M143 840q0 125 -8 242h268q3 -20 8 -102t5 -113h4q57 124 143 180t205 56q336 0 336 -416v-687h-280v619q0 141 -38 207t-138 66t-162 -88t-62 -224v-580h-281v840zM246 1461h160l211 -134h4l203 134h159v-29l-250 -249h-229l-258 249v29z" />
    <glyph glyph-name="napostrophe" unicode="&#x149;" 
d="M0 995v33l89 322h257v-37l-181 -318h-165zM264 840q0 125 -8 242h268q3 -19 8 -101.5t5 -113.5h4q109 236 328 236q155 0 235.5 -106t80.5 -310v-687h-280v619q0 142 -36.5 207.5t-120.5 65.5t-143.5 -89.5t-59.5 -222.5v-580h-281v840z" />
    <glyph glyph-name="Eng" unicode="&#x14a;" 
d="M774 -20q-122 0 -198 59.5t-115 194.5l209 68q16 -58 35.5 -79t53.5 -21q47 0 66.5 60.5t19.5 212.5v373q0 168 -34.5 230t-112.5 62t-143 -62t-104 -161t-39 -208v-709h-295v1032l-4 317h288q11 -121 11 -251h4q52 121 154.5 196t213.5 75q179 0 265 -121.5t86 -378.5
v-367q0 -265 -88.5 -393.5t-272.5 -128.5z" />
    <glyph glyph-name="eng" unicode="&#x14b;" 
d="M143 840q0 125 -8 242h268q3 -19 8 -101.5t5 -113.5h4q57 124 143 180t205 56q336 0 336 -416v-815q0 -143 -72.5 -220t-214.5 -77q-100 0 -170 9v198l51 -4q74 0 100 32.5t26 129.5v679q0 141 -38.5 207t-137.5 66t-161.5 -88.5t-62.5 -223.5v-580h-281v840z" />
    <glyph glyph-name="Omacron" unicode="&#x14c;" 
d="M614 212q244 0 244 463t-244 463t-243 -463q-1 -463 243 -463zM1157 679q0 -345 -140 -522t-402 -177q-263 0 -403 177t-140 522t140 518t403 173q262 0 402 -173t140 -518zM310 1638h612v-168h-612v168z" />
    <glyph glyph-name="omacron" unicode="&#x14d;" 
d="M387 542q0 -370 220 -370q124 0 180 88t56 280q0 194 -51 282q-52 88 -174 87q-122 0 -176 -88t-55 -279zM1137 542q0 -270 -136 -416q-137 -146 -387 -146t-386 146t-136 416q0 268 135 414t389 146q521 0 521 -560zM310 1371h612v-168h-612v168z" />
    <glyph glyph-name="Obreve" unicode="&#x14e;" 
d="M614 212q244 0 244 463t-244 463t-243 -463q-1 -463 243 -463zM1157 679q0 -345 -140 -522t-402 -177q-263 0 -403 177t-140 522t140 518t403 173q262 0 402 -173t140 -518zM612 1427q-161 1 -251 73t-101 205h163q15 -121 191 -121q88 0 132 29t58 92h164
q-34 -278 -356 -278z" />
    <glyph glyph-name="obreve" unicode="&#x14f;" 
d="M387 542q0 -370 220 -370q124 0 180 88t56 280q0 194 -51 282q-52 88 -174 87q-122 0 -176 -88t-55 -279zM1137 542q0 -270 -136 -416q-137 -146 -387 -146t-386 146t-136 416q0 268 135 414t389 146q521 0 521 -560zM612 1183q-161 1 -251 73t-101 205h163
q15 -121 191 -121q88 0 132 29t58 92h164q-34 -278 -356 -278z" />
    <glyph glyph-name="Ohungarumlaut" unicode="&#x150;" 
d="M614 212q244 0 244 463t-244 463t-243 -463q-1 -463 243 -463zM1157 679q0 -345 -140 -522t-402 -177q-263 0 -403 177t-140 522t140 518t403 173q262 0 402 -173t140 -518zM707 1426v34l225 245h235v-43l-318 -236h-142zM301 1426v34l225 245h235v-43l-318 -236h-142z
" />
    <glyph glyph-name="ohungarumlaut" unicode="&#x151;" 
d="M387 542q0 -370 220 -370q124 0 180 88t56 280q0 194 -51 282q-52 88 -174 87q-122 0 -176 -88t-55 -279zM1137 542q0 -270 -136 -416q-137 -146 -387 -146t-386 146t-136 416q0 268 135 414t389 146q521 0 521 -560zM726 1182v34l225 245h235v-43l-318 -236h-142z
M320 1182v34l225 245h235v-43l-318 -236h-142z" />
    <glyph glyph-name="OE" unicode="&#x152;" 
d="M522 190q56 0 84 6v957q-38 6 -83 6q-124 0 -177.5 -115t-53.5 -364t56.5 -369.5t173.5 -120.5zM30 682q0 349 118.5 511t374.5 162q38 0 89 -6h558v-202h-313v-355h287v-200h-287v-390h354v-202h-612l-78 -5q-255 0 -373 169t-118 518z" />
    <glyph glyph-name="oe" unicode="&#x153;" 
d="M875 914q-135 0 -141 -254h264q-8 140 -35 197t-88 57zM367 168q156 0 156 373q1 373 -147 373q-76 0 -107.5 -92.5t-31.5 -279.5q0 -374 130 -374zM732 484q0 -147 39 -230.5t109 -83.5q51 0 77 33t40 98l178 -45q-34 -140 -110 -208t-183 -68q-182 0 -263 183
q-83 -183 -266 -183q-157 0 -241 144.5t-84 420.5t85 416.5t247 140.5q187 0 266 -177q85 177 259 177q319 0 319 -575v-43h-472z" />
    <glyph glyph-name="Racute" unicode="&#x154;" 
d="M860 937q0 95 -62 139t-198 44h-168v-376h176q252 0 252 193zM432 515v-515h-295v1349h494q264 0 395 -103t131 -297q0 -137 -74 -233t-205 -135l349 -581h-332l-290 515h-173zM439 1429v31l252 243h258v-43l-340 -231h-170z" />
    <glyph glyph-name="racute" unicode="&#x155;" 
d="M250 701q0 175 -52 381h271q36 -130 46 -228h4q50 136 135 192t205 56t222 -17v-237q-112 19 -212 19q-155 0 -247 -118t-92 -311v-438h-280v701zM456 1184v31l252 243h258v-43l-340 -231h-170z" />
    <glyph glyph-name="Rcommaaccent" unicode="&#x156;" 
d="M860 937q0 95 -62 139t-198 44h-168v-376h176q252 0 252 193zM432 515v-515h-295v1349h494q264 0 395 -103t131 -297q0 -137 -74 -233t-205 -135l349 -581h-332l-290 515h-173zM432 -453v33l89 322h257v-37l-181 -318h-165z" />
    <glyph glyph-name="rcommaaccent" unicode="&#x157;" 
d="M250 701q0 175 -52 381h271q36 -130 46 -228h4q50 136 135 192t205 56t222 -17v-237q-112 19 -212 19q-155 0 -247 -118t-92 -311v-438h-280v701zM163 -453v33l89 322h257v-37l-181 -318h-165z" />
    <glyph glyph-name="Rcaron" unicode="&#x158;" 
d="M860 937q0 95 -62 139t-198 44h-168v-376h176q252 0 252 193zM432 515v-515h-295v1349h494q264 0 395 -103t131 -297q0 -137 -74 -233t-205 -135l349 -581h-332l-290 515h-173zM227 1705h160l211 -134h4l203 134h159v-29l-250 -249h-229l-258 249v29z" />
    <glyph glyph-name="rcaron" unicode="&#x159;" 
d="M250 701q0 175 -52 381h271q36 -130 46 -228h4q50 136 135 192t205 56t222 -17v-237q-112 19 -212 19q-155 0 -247 -118t-92 -311v-438h-280v701zM266 1461h160l211 -134h4l203 134h159v-29l-250 -249h-229l-258 249v29z" />
    <glyph glyph-name="Sacute" unicode="&#x15a;" 
d="M624 -20q-248 0 -396 99t-190 288l285 37q23 -94 96 -148t203 -55q256 0 256 173q0 130 -217 182q-217 54 -305 92t-142 86q-110 100 -110 266t140 268t368 102q227 0 353 -88t163 -275l-286 -29q-44 183 -233 183q-106 1 -162 -39t-56 -102t27 -94q28 -32 74 -54
t212 -64t266 -98q195 -109 195 -310q-1 -200 -147 -310t-394 -110zM487 1429v31l252 243h258v-43l-340 -231h-170z" />
    <glyph glyph-name="sacute" unicode="&#x15b;" 
d="M623 916q-201 0 -201 -104q0 -54 38 -82t148 -49q272 -55 366 -115q130 -83 130 -245q0 -161 -128 -251t-354 -90t-344 70t-157 220l247 37q20 -77 72 -109t175 -32q231 0 231 118q0 58 -44 88t-147 52q-238 48 -321 88q-170 83 -170 263q0 155 120 241t325 87
q410 0 470 -292l-249 -26q-12 67 -59 99t-148 32zM453 1184v31l252 243h258v-43l-340 -231h-170z" />
    <glyph glyph-name="Scircumflex" unicode="&#x15c;" 
d="M624 -20q-248 0 -396 99t-190 288l285 37q23 -94 96 -148t203 -55q256 0 256 173q0 130 -217 182q-217 54 -305 92t-142 86q-110 100 -110 266t140 268t368 102q227 0 353 -88t163 -275l-286 -29q-44 183 -233 183q-106 1 -162 -39t-56 -102t27 -94q28 -32 74 -54
t212 -64t266 -98q195 -109 195 -310q-1 -200 -147 -310t-394 -110zM987 1427h-159l-203 134h-4l-211 -134h-160v28l258 250h229l250 -250v-28z" />
    <glyph glyph-name="scircumflex" unicode="&#x15d;" 
d="M623 916q-201 0 -201 -104q0 -54 38 -82t148 -49q272 -55 366 -115q130 -83 130 -245q0 -161 -128 -251t-354 -90t-344 70t-157 220l247 37q20 -77 72 -109t175 -32q231 0 231 118q0 58 -44 88t-147 52q-238 48 -321 88q-170 83 -170 263q0 155 120 241t325 87
q410 0 470 -292l-249 -26q-12 67 -59 99t-148 32zM998 1183h-159l-203 134h-4l-211 -134h-160v28l258 250h229l250 -250v-28z" />
    <glyph glyph-name="Scedilla" unicode="&#x15e;" 
d="M642 -259q0 69 -122 69q-38 0 -52 -2l63 175q-181 14 -303 96q-148 99 -190 288l285 37q23 -94 96 -148t203 -55q256 0 256 173q0 130 -217 182q-217 54 -305 92t-142 86q-110 100 -110 266t140 268t368 102q227 0 353 -88t163 -275l-286 -29q-44 183 -233 183
q-106 1 -162 -39t-56 -102t27 -94q28 -32 74 -54t212 -64t266 -98q195 -109 195 -310t-138 -304t-354 -114l-33 -84q94 -5 140 -46t45 -107q0 -190 -303 -190q-45 0 -101 6v118q35 -7 84 -7q137 0 137 69z" />
    <glyph glyph-name="scedilla" unicode="&#x15f;" 
d="M623 916q-201 0 -201 -104q0 -54 38 -82t148 -49q272 -55 366 -115q130 -83 130 -245t-119 -245t-302 -94l-33 -84q94 -5 140 -46t45 -107q0 -190 -303 -190q-45 0 -101 6v118q35 -7 84 -7q137 0 137 69t-122 69q-38 0 -52 -2l63 174q-167 10 -263 68q-118 70 -157 220
l247 37q20 -77 72 -109t175 -32q231 0 231 118q0 58 -44 88t-147 52q-238 48 -321 88q-170 83 -170 263q0 155 120 241t325 87q410 0 470 -292l-249 -26q-12 67 -59 99t-148 32z" />
    <glyph glyph-name="Scaron" unicode="&#x160;" 
d="M624 -20q-248 0 -396 99t-190 288l285 37q23 -94 96 -148t203 -55q256 0 256 173q0 130 -217 182q-217 54 -305 92t-142 86q-110 100 -110 266t140 268t368 102q227 0 353 -88t163 -275l-286 -29q-44 183 -233 183q-106 1 -162 -39t-56 -102t27 -94q28 -32 74 -54
t212 -64t266 -98q195 -109 195 -310q-1 -200 -147 -310t-394 -110zM246 1705h160l211 -134h4l203 134h159v-29l-250 -249h-229l-258 249v29z" />
    <glyph glyph-name="scaron" unicode="&#x161;" 
d="M623 916q-201 0 -201 -104q0 -54 38 -82t148 -49q272 -55 366 -115q130 -83 130 -245q0 -161 -128 -251t-354 -90t-344 70t-157 220l247 37q20 -77 72 -109t175 -32q231 0 231 118q0 58 -44 88t-147 52q-238 48 -321 88q-170 83 -170 263q0 155 120 241t325 87
q410 0 470 -292l-249 -26q-12 67 -59 99t-148 32zM251 1461h160l211 -134h4l203 134h159v-29l-250 -249h-229l-258 249v29z" />
    <glyph glyph-name="Tcommaaccent" unicode="&#x162;" 
d="M762 1121v-1121h-295v1121h-406v228h1107v-228h-406zM395 -453v33l89 322h257v-37l-181 -318h-165z" />
    <glyph glyph-name="tcommaaccent" unicode="&#x163;" 
d="M161 892v190h181l88 282h176v-282h385v-190h-385v-530q0 -88 16 -118q35 -65 159 -66q123 0 254 27v-186q-198 -32 -324 -32q-127 1 -213 35t-128 108q-44 74 -44 206l2 556h-167zM440 -453v33l89 322h257v-37l-181 -318h-165z" />
    <glyph glyph-name="Tcaron" unicode="&#x164;" 
d="M762 1121v-1121h-295v1121h-406v228h1107v-228h-406zM246 1705h160l211 -134h4l203 134h159v-29l-250 -249h-229l-258 249v29z" />
    <glyph glyph-name="tcaron" unicode="&#x165;" 
d="M52 892v190h181l88 282h176v-282h385v-190h-385v-530q1 -88 17 -118q35 -65 158 -66q123 0 254 27v-186q-198 -32 -324 -32q-126 1 -212 35t-130 108t-43 206l2 556h-167zM885 1129v33l89 322h257v-37l-181 -318h-165z" />
    <glyph glyph-name="Tbar" unicode="&#x166;" 
d="M762 1121v-345h228v-190h-228v-586h-295v586h-227v190h227v345h-405v228h1106v-228h-406z" />
    <glyph glyph-name="tbar" unicode="&#x167;" 
d="M340 336v156h-165v190h165v210h-165v190h181l88 282h176v-282h385v-190h-385v-210h385v-190h-385v-130q0 -88 26 -136t149 -48t254 27v-186q-198 -32 -324 -32q-127 0 -212.5 34.5t-129 108t-43.5 206.5z" />
    <glyph glyph-name="Utilde" unicode="&#x168;" 
d="M603 -20q-250 0 -362 134t-112 414v821h295v-818q0 -175 40 -247t144 -73q103 0 150 77t47 253v808h295v-806q0 -287 -124 -425t-373 -138zM793 1422q-57 0 -101 18t-86 38q-42 22 -80 40t-74 17q-38 1 -60 -23t-31 -90h-137q12 156 68 220t157 63q67 -1 177 -57
q42 -22 78 -38q36 -18 75 -18q75 0 90 113h135q-8 -111 -34 -168t-74 -86t-103 -29z" />
    <glyph glyph-name="utilde" unicode="&#x169;" 
d="M416 1082v-607q0 -137 44 -211t132 -74q86 0 144 88t59 224v580h281v-840q0 -138 8 -242h-268q-12 144 -12 215h-5q-107 -235 -328 -235q-164 0 -250 104t-86 311v687h281zM794 1183q-56 -1 -100 17t-87 40q-41 22 -79 38q-38 18 -76 18t-59 -24q-22 -24 -31 -89h-137
q11 155 67 219t158 64q67 0 177 -56q43 -22 79 -40t74 -17q75 0 90 113h135q-8 -111 -34 -168q-25 -57 -73 -86t-104 -29z" />
    <glyph glyph-name="Umacron" unicode="&#x16a;" 
d="M603 -20q-250 0 -362 134t-112 414v821h295v-818q0 -175 40 -247t144 -73q103 0 150 77t47 253v808h295v-806q0 -287 -124 -425t-373 -138zM310 1638h612v-168h-612v168z" />
    <glyph glyph-name="umacron" unicode="&#x16b;" 
d="M416 1082v-607q0 -137 44 -211t132 -74q86 0 144 88t59 224v580h281v-840q0 -138 8 -242h-268q-12 144 -12 215h-5q-107 -235 -328 -235q-164 0 -250 104t-86 311v687h281zM310 1371h612v-168h-612v168z" />
    <glyph glyph-name="Ubreve" unicode="&#x16c;" 
d="M603 -20q-250 0 -362 134t-112 414v821h295v-818q0 -175 40 -247t144 -73q103 0 150 77t47 253v808h295v-806q0 -287 -124 -425t-373 -138zM612 1427q-161 1 -251 73t-101 205h163q15 -121 191 -121q88 0 132 29t58 92h164q-34 -278 -356 -278z" />
    <glyph glyph-name="ubreve" unicode="&#x16d;" 
d="M416 1082v-607q0 -137 44 -211t132 -74q86 0 144 88t59 224v580h281v-840q0 -138 8 -242h-268q-12 144 -12 215h-5q-107 -235 -328 -235q-164 0 -250 104t-86 311v687h281zM612 1183q-161 1 -251 73t-101 205h163q15 -121 191 -121q88 0 132 29t58 92h164
q-34 -278 -356 -278z" />
    <glyph glyph-name="Uring" unicode="&#x16e;" 
d="M603 -20q-250 0 -362 134t-112 414v821h295v-818q0 -175 40 -247t144 -73q103 0 150 77t47 253v808h295v-806q0 -287 -124 -425t-373 -138zM717 1506q0 32 -28 52q-29 20 -75 19q-46 0 -75 -19t-29 -52t29 -52t75 -19q46 -1 74 19t29 52zM856 1506q0 -88 -66 -144
t-176 -56q-112 0 -177 56t-65 145q0 88 66 143t177 55q109 1 175 -55t66 -144z" />
    <glyph glyph-name="uring" unicode="&#x16f;" 
d="M416 1082v-607q0 -137 44 -211t132 -74q86 0 144 88t59 224v580h281v-840q0 -138 8 -242h-268q-12 144 -12 215h-5q-107 -235 -328 -235q-164 0 -250 104t-86 311v687h281zM717 1348q0 32 -28 52q-29 20 -75 19q-46 0 -75 -19t-29 -52t29 -52t75 -19q46 -1 74 19t29 52z
M856 1348q0 -88 -66 -144t-176 -56q-112 0 -177 56t-65 145q0 88 66 143t177 55q109 1 175 -55t66 -144z" />
    <glyph glyph-name="Uhungarumlaut" unicode="&#x170;" 
d="M603 -20q-250 0 -362 134t-112 414v821h295v-818q0 -175 40 -247t144 -73q103 0 150 77t47 253v808h295v-806q0 -287 -124 -425t-373 -138zM670 1426v34l225 245h235v-43l-318 -236h-142zM264 1426v34l225 245h235v-43l-318 -236h-142z" />
    <glyph glyph-name="uhungarumlaut" unicode="&#x171;" 
d="M416 1082v-607q0 -137 44 -211t132 -74q86 0 144 88t59 224v580h281v-840q0 -138 8 -242h-268q-12 144 -12 215h-5q-107 -235 -328 -235q-164 0 -250 104t-86 311v687h281zM667 1182v34l225 245h235v-43l-318 -236h-142zM261 1182v34l225 245h235v-43l-318 -236h-142z
" />
    <glyph glyph-name="Uogonek" unicode="&#x172;" 
d="M661 -184q1 -98 99 -98q50 0 107 27v-137q-63 -33 -163 -33t-162 54q-63 54 -63 160t98 191q-229 6 -339 137q-109 131 -109 411v821h295v-818q0 -175 40 -247t144 -73q103 0 150 77t47 253v808h295v-806q0 -470 -343 -547q-39 -33 -68 -83q-28 -49 -28 -97z" />
    <glyph glyph-name="uogonek" unicode="&#x173;" 
d="M891 -184q1 -98 99 -98q50 0 107 27v-137q-63 -33 -163 -33t-162 54q-63 53 -63 137t38 142t85 92h-16q-12 144 -12 215h-5q-107 -235 -328 -235q-164 0 -250 104t-86 311v687h281v-607q0 -137 44 -211t132 -74q86 0 144 88t59 224v580h281v-840q0 -138 8 -242h-92
q-42 -35 -72 -85q-29 -51 -29 -99z" />
    <glyph glyph-name="Wcircumflex" unicode="&#x174;" 
d="M1018 0h-248l-64 267q-50 189 -90 369l-157 -636h-248l-211 1349h259l89 -695q12 -96 16 -266l15 76l40 168l99 339h195l99 -339q17 -59 55 -244l2 27q6 161 16 239l84 695h259zM983 1427h-159l-203 134h-4l-211 -134h-160v28l258 250h229l250 -250v-28z" />
    <glyph glyph-name="wcircumflex" unicode="&#x175;" 
d="M614 573q-3 -28 -177 -573h-243l-183 1082h228l83 -607q19 -152 19 -226l20 74l157 494h193l140 -455q15 -50 29 -113q0 62 10 143t102 690h226l-190 -1082h-244l-143 471q-25 80 -27 102zM983 1183h-159l-203 134h-4l-211 -134h-160v28l258 250h229l250 -250v-28z" />
    <glyph glyph-name="Ycircumflex" unicode="&#x176;" 
d="M761 0h-294v556l-464 793h309l300 -566l304 566h309l-464 -793v-556zM983 1427h-159l-203 134h-4l-211 -134h-160v28l258 250h229l250 -250v-28z" />
    <glyph glyph-name="ycircumflex" unicode="&#x177;" 
d="M346 -425q-126 0 -203 13v200l51 -5l51 -3q113 0 171 82q32 44 70 149l-448 1071h297l190 -527q40 -109 101 -334l90 330l180 531h294l-448 -1139q-80 -206 -175 -287t-221 -81zM983 1183h-159l-203 134h-4l-211 -134h-160v28l258 250h229l250 -250v-28z" />
    <glyph glyph-name="Ydieresis" unicode="&#x178;" 
d="M761 0h-294v556l-464 793h309l300 -566l304 566h309l-464 -793v-556zM289 1445v219h224v-219h-224zM713 1445v219h227v-219h-227z" />
    <glyph glyph-name="Zacute" unicode="&#x179;" 
d="M1138 0h-1051v209l671 909h-595v231h934v-205l-671 -913h712v-231zM469 1429v31l252 243h258v-43l-340 -231h-170z" />
    <glyph glyph-name="zacute" unicode="&#x17a;" 
d="M138 0v199l570 680h-529v203h849v-201l-567 -676h616v-205h-939zM452 1184v31l252 243h258v-43l-340 -231h-170z" />
    <glyph glyph-name="Zdotaccent" unicode="&#x17b;" 
d="M1138 0h-1051v209l671 909h-595v231h934v-205l-671 -913h712v-231zM487 1421v207h281v-207h-281z" />
    <glyph glyph-name="zdotaccent" unicode="&#x17c;" 
d="M138 0v199l570 680h-529v203h849v-201l-567 -676h616v-205h-939zM471 1267v207h281v-207h-281z" />
    <glyph glyph-name="Zcaron" unicode="&#x17d;" 
d="M1138 0h-1051v209l671 909h-595v231h934v-205l-671 -913h712v-231zM256 1705h160l211 -134h4l203 134h159v-29l-250 -249h-229l-258 249v29z" />
    <glyph glyph-name="zcaron" unicode="&#x17e;" 
d="M138 0v199l570 680h-529v203h849v-201l-567 -676h616v-205h-939zM247 1461h160l211 -134h4l203 134h159v-29l-250 -249h-229l-258 249v29z" />
    <glyph glyph-name="longs" unicode="&#x17f;" 
d="M373 1165q0 174 109.5 261.5t290.5 87.5t349 -28v-184q-150 19 -263 19t-159.5 -40.5t-46.5 -141.5v-1139h-280v1165z" />
    <glyph glyph-name="uni0180" unicode="&#x180;" 
d="M633 172q108 0 157 86.5t49 265.5t-49 261t-157 82q-209 1 -209 -347t209 -348zM427 174q0 -126 -14 -174h-273q8 93 8 247v928h-133v170h133v139h281v-139h305v-170h-305v-145l-4 -176h4q91 208 325 208q185 0 281.5 -138t96.5 -400t-101.5 -403t-293.5 -141
q-219 0 -305 194h-5z" />
    <glyph glyph-name="uni0181" unicode="&#x181;" 
d="M630 811q165 -1 165 159t-167 160h-29v-319h31zM876 410q0 88 -53 135.5t-154 47.5h-70v-374h77q200 0 200 191zM1173 385q0 -181 -124 -283t-343 -102h-402v1135h-28q-63 0 -63 -110q0 -51 31 -134l-214 -17q-30 106 -30 218t76.5 184.5t227.5 72.5h345
q218 0 330.5 -87.5t112.5 -251.5q0 -115 -66 -193.5t-203 -107.5q171 -18 260.5 -102t89.5 -222z" />
    <glyph glyph-name="uni0182" unicode="&#x182;" 
d="M861 425q0 93 -69 145.5t-207 52.5h-152v-404h158q270 0 270 206zM138 1349h917v-228h-622v-280h238q237 0 363 -107.5t126 -302.5q0 -128 -61.5 -225.5t-180 -151.5t-279.5 -54h-502l1 3v1346z" />
    <glyph glyph-name="uni0183" unicode="&#x183;" 
d="M839 540q0 372 -203 372q-98 0 -154.5 -96t-56.5 -242t26.5 -229.5t75 -128t111.5 -44.5q96 0 148.5 92t52.5 276zM427 176q0 -111 -15 -176h-272q8 136 8 236v1248h837v-213h-556v-181l-2 -178h2q41 91 123.5 141t193.5 50q186 0 286 -147t100 -409t-107 -414.5
t-288 -152.5q-215 0 -306 196h-4z" />
    <glyph glyph-name="uni0184" unicode="&#x184;" 
d="M861 425q0 93 -69 145.5t-207 52.5h-153v-404h159q270 0 270 206zM1160 431q0 -128 -61.5 -225.5t-180 -151.5t-279.5 -54h-502v943l-137 143v36l357 227h75v-508h239q237 0 363 -107.5t126 -302.5z" />
    <glyph glyph-name="uni0185" unicode="&#x185;" 
d="M839 540q0 372 -203 372q-98 0 -154.5 -96t-56.5 -242t26.5 -229.5t75 -128t111.5 -44.5q96 0 148.5 92t52.5 276zM427 176q0 -111 -15 -176h-272q8 136 8 236v861l-143 143v36l349 208h75v-394l-2 -178h2q41 91 123.5 141t193.5 50q186 0 286 -147t100 -409t-107 -414.5
t-288 -152.5q-215 0 -306 196h-4z" />
    <glyph glyph-name="uni0186" unicode="&#x186;" 
d="M872 681q0 457 -272 457q-76 0 -133.5 -58.5t-86.5 -164.5l-272 66q58 191 183.5 290t312.5 99q568 0 568 -689q0 -337 -146 -519t-417 -182q-221 0 -346.5 102.5t-182.5 321.5l273 52q68 -244 258 -244q126 0 193.5 123t67.5 346z" />
    <glyph glyph-name="uni0187" unicode="&#x187;" 
d="M1088 1646q93 0 141 -17v-204q-31 12 -69 12t-52 -28t-14 -113v-315l-272 -66q-34 124 -78 173.5t-112 49.5q-135 0 -193.5 -117t-58.5 -347t63 -346t196 -116q94 0 135 69t75 175l273 -52q-70 -223 -187 -323.5t-299 -100.5q-556 0 -556 701q0 349 135 519t413 170
q104 0 200 -48v34q0 155 61.5 222.5t198.5 67.5z" />
    <glyph glyph-name="uni0188" unicode="&#x188;" 
d="M1126 1122q-44 0 -70.5 -34.5t-26.5 -106.5v-240l-283 -14q-15 103 -54.5 142.5t-111.5 39.5q-99 0 -143 -79t-44 -284t44.5 -289.5t135.5 -84.5t130 50.5t52 150.5l282 -13q-24 -181 -143 -280.5t-312 -99.5q-238 0 -361 141t-123 417t125 420t363 144q95 0 184 -38
q16 264 307 264q75 0 152 -17v-201q-59 12 -103 12z" />
    <glyph glyph-name="uni0189" unicode="&#x189;" 
d="M865 685q1 227 -85 331t-276 105h-61v-338h207v-219h-207v-336h102q320 0 320 457zM509 1349q653 1 653 -661q0 -332 -154 -510t-439 -178h-421v564h-134v219h134v566h361z" />
    <glyph glyph-name="uni018A" unicode="&#x18a;" 
d="M901 686q0 228 -66.5 331.5t-214.5 103.5h-21v-893h62q124 0 182 115t58 343zM1198 688q0 -334 -133 -511t-380 -177h-381v1135h-28q-63 0 -63 -110q0 -51 31 -134l-214 -17q-30 106 -30 218t76.5 184.5t227.5 72.5h321q287 0 430 -163.5t143 -497.5z" />
    <glyph glyph-name="uni018B" unicode="&#x18b;" 
d="M368 425q0 -206 270 -206h158v404h-152q-138 0 -207 -52.5t-69 -145.5zM590 0q-239 0 -380 116t-141 313t126.5 304.5t362.5 107.5h238v280h-522v228h817v-1346l1 -3h-502z" />
    <glyph glyph-name="uni018C" unicode="&#x18c;" 
d="M593 909q-203 0 -203 -370q0 -184 52.5 -275.5t148.5 -91.5q62 0 137.5 68.5t75.5 305.5q0 172 -56 267.5t-155 95.5zM802 176h-4q-53 -107 -131.5 -151.5t-184.5 -44.5q-179 0 -282 150t-103 412t103.5 410t292.5 148q222 0 307 -191h2l-2 178v184h-461v213h742v-1248
q0 -100 8 -236h-272q-15 52 -15 176z" />
    <glyph glyph-name="uni018D" unicode="&#x18d;" 
d="M607 192q259 0 259 358t-246 359q-256 0 -256 -357q0 -176 63.5 -268t179.5 -92zM1160 552q0 -222 -111.5 -365t-317.5 -178l347 -253v-180h-923v203h537l-415 299q-208 150 -208 474q0 167 64.5 291.5t188.5 191.5t294 67q264 0 404 -141.5t140 -408.5z" />
    <glyph glyph-name="uni018E" unicode="&#x18e;" 
d="M1092 1349v-1349h-968v228h673v324h-612v228h612v341h-714v228h1009z" />
    <glyph glyph-name="uni018F" unicode="&#x18f;" 
d="M613 1138q-93 0 -144.5 -49t-86.5 -152l-264 73q62 188 174 274t306 86q270 0 415 -186.5t145 -518.5t-141 -508.5t-403 -176.5t-402 176.5t-140 496.5q0 78 7 137h776q-13 169 -81 258.5t-161 89.5zM616 212q208 0 238 343h-478q15 -170 77.5 -256.5t162.5 -86.5z" />
    <glyph glyph-name="uni018F" unicode="&#x4d8;" 
d="M613 1138q-93 0 -144.5 -49t-86.5 -152l-264 73q62 188 174 274t306 86q270 0 415 -186.5t145 -518.5t-141 -508.5t-403 -176.5t-402 176.5t-140 496.5q0 78 7 137h776q-13 169 -81 258.5t-161 89.5zM616 212q208 0 238 343h-478q15 -170 77.5 -256.5t162.5 -86.5z" />
    <glyph glyph-name="uni0190" unicode="&#x190;" 
d="M362 353q0 -145 236 -145q122 0 195 57t120 186l264 -93q-69 -201 -209 -289.5t-382 -88.5t-377 108t-135 302q0 125 78 203.5t238 102.5q-151 38 -215.5 110.5t-64.5 193.5q0 169 130.5 269t352.5 100t350 -89t198 -294l-268 -61q-39 126 -101 176.5t-168 50.5
t-157.5 -43t-51.5 -137t61 -133.5t214 -39.5h59v-227h-59q-178 0 -243 -37t-65 -182z" />
    <glyph glyph-name="uni0191" unicode="&#x191;" 
d="M462 1121v-384h621v-228h-621v-541q0 -200 -75.5 -296.5t-241.5 -96.5q-57 0 -145 20v220q56 -13 75 -13q56 0 74 34.5t18 121.5v1391h939v-228h-644z" />
    <glyph glyph-name="florin" unicode="&#x192;" 
d="M915 1180q-84 0 -119 -27t-49 -100l-20 -107h302l-36 -190h-303l-232 -1181h-281l232 1181h-208l37 190h208l27 135q27 150 125 219.5t273 69.5q72 0 144.5 -12.5t97.5 -22.5l-47 -177q-67 22 -151 22z" />
    <glyph glyph-name="uni0193" unicode="&#x193;" 
d="M650 216q117 0 208 74v235h-274v218h544v-558q-242 -205 -498 -205t-403 183.5t-147 517.5q0 689 558 689q110 0 196 -35v5q0 156 60 223t197 67q91 0 138 -17v-204q-31 12 -67 12t-49 -26t-13 -115v-285l-274 -54q-53 197 -187 197t-197 -110t-63 -347q0 -465 271 -465z
" />
    <glyph glyph-name="uni0194" unicode="&#x194;" 
d="M698 -126q0 42 -14.5 86.5t-63.5 134.5q-59 -107 -68 -147t-9 -78t21.5 -60.5t55.5 -22.5t56 22.5t22 64.5zM935 -151q0 -133 -82.5 -203.5t-231.5 -70.5t-232 72.5t-83 202.5q0 63 29.5 147t133.5 273l-466 1079h308l309 -816l302 816h305l-459 -1079
q102 -185 134.5 -274t32.5 -147z" />
    <glyph glyph-name="uni0195" unicode="&#x195;" 
d="M507 1102q222 0 222 -416v-238q0 -152 23.5 -204.5t67.5 -52.5t65.5 24.5t31 73t9.5 159.5v634h228v-626q0 -228 -84 -352t-242 -124t-242.5 119.5t-84.5 356.5v150l3 146q0 79 -18.5 109t-58.5 30q-123 0 -123 -312v-579h-229v1484h229v-405l-2 -125l-3 -88h3
q43 138 88 187t117 49z" />
    <glyph glyph-name="uni0196" unicode="&#x196;" 
d="M157 1349h916v-228h-311v-893h311v-228h-916v228h311v893h-311v228z" />
    <glyph glyph-name="uni0197" unicode="&#x197;" 
d="M157 1349h916v-228h-316v-324h242v-228h-242v-341h316v-228h-916v228h316v341h-243v228h243v324h-316v228z" />
    <glyph glyph-name="uni0198" unicode="&#x198;" 
d="M431 0h-295v980q0 390 332 390q71 0 161 -20v-220q-68 13 -107 13q-91 0 -91 -124v-269l436 599h343l-460 -579l479 -770h-348l-323 557l-127 -142v-415z" />
    <glyph glyph-name="uni0199" unicode="&#x199;" 
d="M575 1287q-66 0 -93.5 -35t-27.5 -106v-512l386 448h302l-380 -422l409 -660h-307l-289 490l-121 -84v-406h-281v1203q0 138 87.5 214t241.5 76q97 0 182 -17v-201q-43 12 -109 12z" />
    <glyph glyph-name="uni019A" unicode="&#x19a;" 
d="M794 826h225v-187h-225v-449h353v-190h-1029v190h395v449h-223v187h223v468h-290v190h571v-658z" />
    <glyph glyph-name="uni019B" unicode="&#x19b;" 
d="M107 1159l284 121l-82 204h298l37 -96l181 78l74 -173l-187 -80l469 -1213h-294l-265 797l-256 -797h-297l408 1071l-15 35l-281 -120z" />
    <glyph glyph-name="uni019C" unicode="&#x19c;" 
d="M387 159q107 0 107 322v868h234v-925q0 -153 18 -209t66 -56t75.5 88.5t27.5 252.5v849h236v-1118q0 -189 6 -231h-209l-5 127l-1 48h-2q-34 -102 -86 -148.5t-135 -46.5t-128 48t-64 148h-2q-41 -108 -95.5 -152t-137.5 -44q-118 0 -169 86t-51 295v988h235v-925
q0 -157 17 -211t63 -54z" />
    <glyph glyph-name="uni019D" unicode="&#x19d;" 
d="M392 656v-714q0 -209 -60.5 -288t-214.5 -79q-74 0 -165 20v230q68 -13 107 -13t57.5 30t18.5 126v1381h337l393 -1037q-28 235 -28 365v672h257v-1349h-346l-384 1010q28 -252 28 -354z" />
    <glyph glyph-name="uni019E" unicode="&#x19e;" 
d="M824 -424v1043q0 141 -38.5 207t-137.5 66t-161.5 -88.5t-62.5 -223.5v-580h-281v840q0 138 -8 242h268q3 -19 8 -101.5t5 -113.5h4q57 124 143 180t205 56q336 0 336 -416v-1111h-280z" />
    <glyph glyph-name="uni019F" unicode="&#x19f;" 
d="M614 1138q-204 0 -237 -325h475q-34 325 -238 325zM614 212q214 0 240 368h-480q26 -368 240 -368zM1157 679q0 -345 -140 -522t-402 -177q-263 0 -403 177t-140 522t140 518t403 173q262 0 402 -173t140 -518z" />
    <glyph glyph-name="Ohorn" unicode="&#x1a0;" 
d="M818 680q0 230 -51.5 344t-171.5 114t-172 -115t-52 -344t52 -348t172 -119t171.5 119t51.5 349zM1281 1199q0 -255 -171 -377q7 -79 7 -143q-1 -699 -523 -699t-522 695t523 695q199 0 319 -101t171 -303q75 70 75 183h-92v260h213v-210z" />
    <glyph glyph-name="ohorn" unicode="&#x1a1;" 
d="M783 542q0 191 -44.5 279t-150.5 88t-153.5 -88t-47.5 -278t46.5 -280.5t150.5 -90.5t151.5 89.5t47.5 280.5zM586 1102q462 0 489 -495q84 64 84 215h-100v260h212v-210q0 -315 -197 -404q-17 -234 -144 -361t-355 -127t-355.5 146t-127.5 416t127 415t367 145z" />
    <glyph glyph-name="uni01A2" unicode="&#x1a2;" 
d="M508 1162q-101 0 -157 -128t-56 -355t60 -359.5t167 -132.5q38 0 67 16v934q-32 25 -81 25zM522 -19q-233 0 -351.5 179.5t-118.5 509.5t122 514.5t338 184.5q125 0 234 -66l328 60h76v-1769h-230v1519h-102v-1015l-9 -19q-135 -98 -287 -98z" />
    <glyph glyph-name="uni01A3" unicode="&#x1a3;" 
d="M534 917q-134 0 -194 -90t-60 -282t58.5 -286t184.5 -94q49 0 86 11l-1 732q-26 9 -74 9zM43 542q0 559 488 559q150 0 272 -68l287 60h74v-1496h-223v1272h-112v-796q-135 -92 -304 -92q-236 0 -359 142t-123 419z" />
    <glyph glyph-name="uni01A4" unicode="&#x1a4;" 
d="M880 920q0 107 -60.5 153.5t-191.5 46.5h-30v-417h38q131 0 187.5 55t56.5 162zM1177 924q0 -210 -132.5 -329t-371.5 -119h-75v-476h-285v1135h-37q-63 0 -63 -110q0 -51 31 -134l-214 -17q-30 106 -30 218t81.5 184.5t232.5 72.5h347q254 0 385 -107.5t131 -317.5z" />
    <glyph glyph-name="uni01A5" unicode="&#x1a5;" 
d="M636 171q203 0 203 372q0 184 -52.5 276t-148.5 92q-62 0 -137.5 -68.5t-75.5 -304.5t73.5 -301.5t137.5 -65.5zM559 1277q-132 0 -132 -131v-240h4q100 197 316 197q180 0 282.5 -150.5t102.5 -412.5t-103.5 -411t-292.5 -149q-222 0 -307 191h-2l2 -178v-418h-281v1628
q0 137 87.5 213.5t223.5 76.5t214 -17v-211q-43 12 -114 12z" />
    <glyph glyph-name="uni01A6" unicode="&#x1a6;" 
d="M860 771q0 94 -62 138.5t-198 44.5h-168v-376h176q252 0 252 193zM432 349v-349h-295v1349h295v-166h199q264 0 395 -103.5t131 -296.5q0 -144 -81.5 -242.5t-229.5 -134.5l366 -716h-319l-315 659h-146z" />
    <glyph glyph-name="uni01A7" unicode="&#x1a7;" 
d="M351 374q1 -173 257 -173q130 0 202.5 54.5t95.5 148.5l285 -37q-42 -189 -190 -288t-396 -99t-394.5 109.5t-146.5 304.5t109 263t170 92.5t207 62.5t217 73t71 116q0 160 -218 160q-189 0 -233 -183l-286 29q37 186 163 274.5t353 88.5t367.5 -102t140.5 -269t-82 -240
t-171.5 -112t-305.5 -92q-216 -52 -215 -181z" />
    <glyph glyph-name="uni01A8" unicode="&#x1a8;" 
d="M150 811q60 292 470 292q206 0 325.5 -86.5t119.5 -241.5q0 -182 -127 -243t-363 -108q-101 -21 -146.5 -51.5t-45.5 -88.5q0 -118 226 -118q127 0 179 31.5t73 109.5l247 -37q-38 -148 -156 -219t-344 -71t-354.5 89t-128.5 257t116 232.5t286 100.5l113 26
q90 18 128.5 45.5t38.5 81.5q0 104 -200 104q-102 0 -149 -33t-59 -98z" />
    <glyph glyph-name="uni01A9" unicode="&#x1a9;" 
d="M100 0v234l458 477l-441 405v233h979v-244h-642l361 -327v-134l-394 -400h736v-244h-1057z" />
    <glyph glyph-name="uni01AA" unicode="&#x1aa;" 
d="M306 1286q0 -40 25.5 -63.5t61.5 -23.5t61 23.5t25 63.5t-25 63.5t-61 23.5t-61.5 -23.5t-25.5 -63.5zM872 -209q71 0 114 12v-211q-68 -17 -182 -17q-329 0 -329 329v1201q-44 -22 -96 -22q-89 0 -141 56.5t-52 148.5t63 147t170 55q334 0 334 -384v-1174
q0 -141 119 -141z" />
    <glyph glyph-name="uni01AB" unicode="&#x1ab;" 
d="M161 892v190h181l88 282h176v-282h385v-190h-385v-530q0 -88 25 -136t149 -48t255 27v-312q0 -143 -76 -223t-232 -80q-76 0 -167 20v201q72 -15 110 -15q118 0 118 141v52l-77 -2q-263 0 -324 110t-61 239l2 556h-167z" />
    <glyph glyph-name="uni01AC" unicode="&#x1ac;" 
d="M346 1121q-133 0 -133 -96q0 -51 31 -134l-214 -17q-30 105 -30 216t83.5 185t231.5 74h853v-228h-406v-1121h-295v1121h-121z" />
    <glyph glyph-name="uni01AD" unicode="&#x1ad;" 
d="M161 892v190h164v71q0 179 95 259.5t290 80.5q127 0 324 -32v-186q-131 27 -225 27t-131 -16t-54.5 -45.5t-17.5 -94.5v-64h385v-190h-385v-530q0 -88 25 -136t149 -48t255 27v-186q-395 -64 -512.5 -9t-157 126t-39.5 200l2 556h-167z" />
    <glyph glyph-name="uni01AE" unicode="&#x1ae;" 
d="M810 -425q-343 0 -343 380v1166h-406v228h1107v-228h-406v-1163q0 -79 27 -117.5t91 -38.5q27 0 95 13v-220q-91 -20 -165 -20z" />
    <glyph glyph-name="Uhorn" unicode="&#x1af;" 
d="M1317 1199q0 -377 -277 -435v-221q0 -291 -111.5 -427t-352.5 -136t-344 127t-103 421v821h295v-818q0 -179 34 -249.5t121 -70.5t126.5 78.5t39.5 251.5v808h295v-449q165 38 165 249h-102v260h214v-210z" />
    <glyph glyph-name="uhorn" unicode="&#x1b0;" 
d="M441 -20q-154 0 -230 95t-76 320v687h281v-607q0 -164 35 -224.5t113 -60.5t124.5 83.5t46.5 228.5v580h281v-520q85 16 133 85t48 175h-101v260h212v-210q0 -382 -292 -438v-192q0 -125 8 -242h-268q-8 53 -12 215h-5q-56 -123 -125 -179t-173 -56z" />
    <glyph glyph-name="uni01B1" unicode="&#x1b1;" 
d="M614 206q120 0 191 103t71 261t-43.5 261.5t-149.5 213.5v304h495v-228h-112q-64 0 -178 11q272 -217 272 -581q0 -169 -71 -299.5t-197 -201.5t-278 -71t-278 71t-197 202t-71 299q0 364 272 581q-110 -11 -174 -11h-116v228h495v-304q-106 -110 -149.5 -211.5
t-43.5 -261.5t71 -263t191 -103z" />
    <glyph glyph-name="uni01B2" unicode="&#x1b2;" 
d="M610 211q120 0 177.5 57t79 192t21.5 417q0 138 -36 201t-123 63q-43 0 -111 -13v220q90 20 232 20q332 0 332 -476q0 -378 -56 -562t-183 -267t-367 -83q-478 0 -477 548v821h295v-818q0 -167 48 -243.5t168 -76.5z" />
    <glyph glyph-name="uni01B3" unicode="&#x1b3;" 
d="M671 0h-294v506l-374 843h309l210 -566l141 369q45 125 104 171.5t160 46.5q157 0 298 -129l-109 -185q-70 62 -120 62t-78.5 -26t-49.5 -81l-197 -505v-506z" />
    <glyph glyph-name="uni01B4" unicode="&#x1b4;" 
d="M1192 1493q115 0 235 -74l-95 -196q-56 36 -105 36t-74.5 -29.5t-41.5 -76.5l-411 -1210q-77 -205 -172 -286.5t-245 -81.5q-101 0 -177 13v200q53 -8 119 -8t115 41.5t86 141.5l18 48l-428 1071h297l170 -507q47 -135 101 -334l90 330l210 657q44 140 118.5 202.5
t189.5 62.5z" />
    <glyph glyph-name="uni01B5" unicode="&#x1b5;" 
d="M1138 0h-1051v209l294 399h-303v197h449l231 313h-595v231h934v-205l-249 -339h255v-197h-400l-277 -377h712v-231z" />
    <glyph glyph-name="uni01B6" unicode="&#x1b6;" 
d="M138 0v199l215 257h-219v177h368l206 246h-529v203h849v-201l-208 -248h222v-177h-371l-210 -251h616v-205h-939z" />
    <glyph glyph-name="uni01B7" unicode="&#x1b7;" 
d="M662 677q517 -25 517 -531q0 -256 -154 -408t-432 -152q-215 0 -353.5 91t-213.5 284l258 101q54 -131 125.5 -187.5t174.5 -56.5q161 0 233.5 83.5t72.5 253.5q0 214 -125.5 261.5t-277.5 47.5h-128v231l417 423h-690v231h1050v-205z" />
    <glyph glyph-name="uni01B8" unicode="&#x1b8;" 
d="M636 -414q-278 0 -432 152t-154 409q0 506 517 530l-474 467v205h1050v-231h-690l417 -423v-231h-128q-152 0 -277.5 -48t-125.5 -261q0 -171 72.5 -254t233.5 -83q103 0 175 57t125 187l258 -101q-75 -193 -213.5 -284t-353.5 -91z" />
    <glyph glyph-name="uni01B9" unicode="&#x1b9;" 
d="M639 -241q87 0 144.5 47.5t67.5 153.5l277 -13q-24 -182 -153.5 -281.5t-355.5 -99.5t-367.5 131t-141.5 343t111 332.5t313 140.5l-364 374v195h902v-203h-565l336 -356v-189h-102q-183 0 -264 -72.5t-81 -227.5q0 -275 243 -275z" />
    <glyph glyph-name="uni01BA" unicode="&#x1ba;" 
d="M578 -434q-128 0 -230.5 38t-160 109t-57.5 165t48 157.5t137.5 103.5t237.5 73t199.5 63.5t51.5 74.5t-25 68t-78 34t-219 10h-102v144l303 273h-538v203h902v-163l-346 -295q208 -5 298.5 -72t90.5 -215t-133 -211.5t-295 -103.5t-212.5 -70t-50.5 -78t55 -81.5
t154 -33.5t160 46t72 134l274 -38q-34 -156 -176.5 -245.5t-359.5 -89.5z" />
    <glyph glyph-name="uni01BB" unicode="&#x1bb;" 
d="M123 0v195q80 175 265 348h-266v191h491q86 73 137.5 131.5t51.5 128.5t-47 111t-137 41t-138 -48.5t-62 -145.5l-283 16q24 196 146.5 299t336.5 103t341.5 -99t127.5 -253t-112 -284h104v-191h-315q-150 -119 -214.5 -180.5t-94.5 -131.5h654v-231h-986z" />
    <glyph glyph-name="uni01BC" unicode="&#x1bc;" 
d="M596 895q521 -1 521 -447q0 -226 -131 -347t-391 -121q-208 0 -338.5 101t-155.5 283l282 13q40 -174 220 -174q119 0 172.5 60t53.5 183t-60.5 180t-199.5 57h-285v450h-174v217h981v-229h-531v-226h36z" />
    <glyph glyph-name="uni01BD" unicode="&#x1bd;" 
d="M639 172q206 0 206 163q0 92 -64 133.5t-194 41.5h-288v369h-159v203h912v-203h-507v-184h80q242 0 366 -92t124 -268q0 -107 -89 -231t-401 -124q-198 0 -330 89.5t-168 244.5l271 18q35 -160 241 -160z" />
    <glyph glyph-name="uni01BE" unicode="&#x1be;" 
d="M614 166q232 0 232 118q0 58 -43.5 88.5t-147.5 51.5q-235 46 -363.5 112.5t-128.5 271.5v84h-137v190h151l88 254h176v-254h205v-190h-205v-77q0 -72 59.5 -98t217.5 -62t272 -99t114 -230t-128.5 -256.5t-353.5 -89.5t-343.5 70.5t-157.5 219.5l247 37
q21 -77 72.5 -109t173.5 -32z" />
    <glyph glyph-name="uni01BF" unicode="&#x1bf;" 
d="M865 639q0 271 -218 271q-112 0 -174 -87.5t-62 -227.5v-595q234 120 344 276.5t110 362.5zM744 1105q130 0 221 -55t138.5 -154.5t47.5 -227.5q0 -315 -175 -522.5t-565 -364.5v-206h-281v1507h265q7 -53 12 -164h4q105 187 333 187z" />
    <glyph glyph-name="uni01C0" unicode="&#x1c0;" 
d="M492 0v1484h245v-1484h-245z" />
    <glyph glyph-name="uni01C1" unicode="&#x1c1;" 
d="M710 0v1484h240v-1484h-240zM279 0v1484h240v-1484h-240z" />
    <glyph glyph-name="uni01C2" unicode="&#x1c2;" 
d="M98 1083h394v401h245v-401h394v-209h-394v-266h394v-209h-394v-399h-245v399h-394v209h394v266h-394v209z" />
    <glyph glyph-name="uni01C3" unicode="&#x1c3;" 
d="M468 0v270h288v-270h-288zM730 426h-230l-32 923h294z" />
    <glyph glyph-name="uni01C4" unicode="&#x1c4;" 
d="M561 1705h160l211 -134h4l203 134h159v-29l-250 -249h-229l-258 249v29zM1225 0h-612v204l333 914h-293v231h550v-199l-333 -919h355v-231zM401 691q0 234 -31 332t-109 98h-1v-893h24q67 0 92 114t25 349zM254 1349q372 0 372 -664q0 -329 -88 -507t-252 -178h-252v1349
h220z" />
    <glyph glyph-name="uni01C5" unicode="&#x1c5;" 
d="M545 1461h160l211 -134h4l203 134h159v-29l-250 -249h-229l-258 249v29zM641 0v194l281 685h-258v203h505v-196l-278 -681h304v-205h-554zM400 695q0 237 -31 331t-108 95h-1v-893h23q67 0 92 115t25 352zM626 686q0 -338 -84 -512t-246 -174h-262v1349h231
q185 -1 273 -163t88 -500z" />
    <glyph glyph-name="uni01C6" unicode="&#x1c6;" 
d="M596 236q0 -151 5 -236h-201l-4 54q-51 -74 -150 -74t-161 148t-62 412q-1 262 61 411t176 149q77 0 132 -66v450h204v-23h153l211 -134h4l203 134h159v-29l-250 -249h-229l-251 242v-1189zM653 0v193l302 686h-281v203h502v-194l-301 -683h327v-205h-549zM313 909
q-80 -1 -80 -369t77 -368q40 0 62 102t22 274q0 171 -22 266t-59 95z" />
    <glyph glyph-name="uni01C7" unicode="&#x1c7;" 
d="M780 211q84 0 119.5 60.5t35.5 167.5v910h214v-903q0 -242 -83 -352t-260 -110q-82 0 -108 4v240q36 -17 82 -17zM80 0v1349h237v-1121h309v-228h-546z" />
    <glyph glyph-name="uni01C8" unicode="&#x1c8;" 
d="M80 0v1349h237v-1121h309v-228h-546zM896 1277v207h228v-207h-228zM1124 -13q0 -200 -83.5 -306t-245.5 -106q-110 0 -179 32v218q75 -31 159 -31q58 0 89 57t31 159v882h-212v190h441v-1095z" />
    <glyph glyph-name="uni01C9" unicode="&#x1c9;" 
d="M1139 -13q0 -200 -83.5 -306t-245.5 -106q-110 0 -179 32v218q75 -31 159 -31q58 0 89 57t31 159v882h-212v190h441v-1095zM911 1277v207h229v-207h-229zM472 190h212v-190h-678v190h237v1104h-174v190h403v-1294z" />
    <glyph glyph-name="uni01CA" unicode="&#x1ca;" 
d="M780 211q84 0 119.5 60.5t35.5 167.5v910h214v-903q0 -242 -83 -352t-260 -110q-82 0 -108 4v240q36 -17 82 -17zM276 0h-196v1349h237l132 -768v768h195v-1349h-241l-127 738v-738z" />
    <glyph glyph-name="uni01CB" unicode="&#x1cb;" 
d="M325 0h-196v1349h237l132 -768v768h195v-1349h-241l-127 738v-738zM862 1277v207h243v-207h-243zM786 -425q-141 0 -227 51v217q129 -49 193 -49t87 54t23 162v882h-130v190h373v-1095q0 -191 -89 -301.5t-230 -110.5z" />
    <glyph glyph-name="uni01CC" unicode="&#x1cc;" 
d="M896 1277v207h228v-207h-228zM1124 -13q0 -200 -83.5 -306t-245.5 -106q-110 0 -179 32v218q75 -31 159 -31q58 0 89 57t31 159v882h-142v190h371v-1095zM505 0v619q0 142 -18 207.5t-63 65.5q-52 0 -85.5 -85t-33.5 -227v-580h-242v840q0 164 -6 242h235l6 -91
q70 112 201 112q248 0 248 -416v-687h-242z" />
    <glyph glyph-name="uni01CD" unicode="&#x1cd;" 
d="M615 1167q-17 -88 -166 -615h332q-147 518 -166 615zM1229 0h-294l-92 330h-456l-92 -330h-295l443 1349h344zM246 1705h160l211 -134h4l203 134h159v-29l-250 -249h-229l-258 249v29z" />
    <glyph glyph-name="uni01CE" unicode="&#x1ce;" 
d="M399 328q0 -152 120 -152q97 0 162 76t65 194v55l-134 -2q-90 -3 -130 -19q-82 -34 -83 -152zM746 711q0 209 -146 209q-76 0 -110 -36t-42 -117l-293 14q54 321 455 321q202 0 310 -99t107 -291v-392q1 -92 21 -126t60 -34t70 6v-152q-108 -26 -197 -26q-180 0 -200 205
h-6q-63 -113 -143 -163t-193 -50q-157 0 -245 86t-88 246q0 162 104 250t313 90l223 4v55zM246 1461h160l211 -134h4l203 134h159v-29l-250 -249h-229l-258 249v29z" />
    <glyph glyph-name="uni01CF" unicode="&#x1cf;" 
d="M157 1349h916v-228h-311v-893h311v-228h-916v228h311v893h-311v228zM246 1705h160l211 -134h4l203 134h159v-29l-250 -249h-229l-258 249v29z" />
    <glyph glyph-name="uni01D0" unicode="&#x1d0;" 
d="M794 190h353v-190h-1029v190h395v702h-290v190h571v-892zM268 1459h160l211 -134h4l203 134h159v-29l-250 -249h-229l-258 249v29z" />
    <glyph glyph-name="uni01D1" unicode="&#x1d1;" 
d="M614 212q244 0 244 463t-244 463t-243 -463q-1 -463 243 -463zM1157 679q0 -345 -140 -522t-402 -177q-263 0 -403 177t-140 522t140 518t403 173q262 0 402 -173t140 -518zM246 1705h160l211 -134h4l203 134h159v-29l-250 -249h-229l-258 249v29z" />
    <glyph glyph-name="uni01D2" unicode="&#x1d2;" 
d="M387 542q0 -370 220 -370q124 0 180 88t56 280q0 194 -51 282q-52 88 -174 87q-122 0 -176 -88t-55 -279zM1137 542q0 -270 -136 -416q-137 -146 -387 -146t-386 146t-136 416q0 268 135 414t389 146q521 0 521 -560zM246 1461h160l211 -134h4l203 134h159v-29l-250 -249
h-229l-258 249v29z" />
    <glyph glyph-name="uni01D3" unicode="&#x1d3;" 
d="M603 -20q-250 0 -362 134t-112 414v821h295v-818q0 -175 40 -247t144 -73q103 0 150 77t47 253v808h295v-806q0 -287 -124 -425t-373 -138zM246 1705h160l211 -134h4l203 134h159v-29l-250 -249h-229l-258 249v29z" />
    <glyph glyph-name="uni01D4" unicode="&#x1d4;" 
d="M416 1082v-607q0 -137 44 -211t132 -74q86 0 144 88t59 224v580h281v-840q0 -138 8 -242h-268q-12 144 -12 215h-5q-107 -235 -328 -235q-164 0 -250 104t-86 311v687h281zM237 1461h160l211 -134h4l203 134h159v-29l-250 -249h-229l-258 249v29z" />
    <glyph glyph-name="uni01D5" unicode="&#x1d5;" 
d="M603 -20q-250 0 -362 134t-112 414v821h295v-818q0 -175 40 -247t144 -73q103 0 150 77t47 253v808h295v-806q0 -287 -124 -425t-373 -138zM308 1835h612v-138h-612v138zM511 1466h-160v152h160v-152zM877 1466h-160v152h160v-152z" />
    <glyph glyph-name="uni01D6" unicode="&#x1d6;" 
d="M416 1082v-607q0 -137 44 -211t132 -74q86 0 144 88t59 224v580h281v-840q0 -138 8 -242h-268q-12 144 -12 215h-5q-107 -235 -328 -235q-164 0 -250 104t-86 311v687h281zM280 1219v219h224v-219h-224zM704 1219v219h227v-219h-227zM304 1690h612v-168h-612v168z" />
    <glyph glyph-name="uni01D7" unicode="&#x1d7;" 
d="M603 -20q-250 0 -362 134t-112 414v821h295v-818q0 -175 40 -247t144 -73q103 0 150 77t47 253v808h295v-806q0 -287 -124 -425t-373 -138zM506 1466h-160v152h160v-152zM872 1466h-160v152h160v-152zM882 1835v-16l-231 -153h-150v14l135 155h246z" />
    <glyph glyph-name="uni01D8" unicode="&#x1d8;" 
d="M416 1082v-607q0 -137 44 -211t132 -74q86 0 144 88t59 224v580h281v-840q0 -138 8 -242h-268q-12 144 -12 215h-5q-107 -235 -328 -235q-164 0 -250 104t-86 311v687h281zM289 1219v219h224v-219h-224zM713 1219v219h227v-219h-227zM452 1489v31l252 243h258v-43
l-340 -231h-170z" />
    <glyph glyph-name="uni01D9" unicode="&#x1d9;" 
d="M603 -20q-250 0 -362 134t-112 414v821h295v-818q0 -175 40 -247t144 -73q103 0 150 77t47 253v808h295v-806q0 -287 -124 -425t-373 -138zM920 1835v-10l-208 -143h-195l-209 141v12h155l151 -67l151 67h155zM511 1466h-160v152h160v-152zM877 1466h-160v152h160v-152z
" />
    <glyph glyph-name="uni01DA" unicode="&#x1da;" 
d="M416 1082v-607q0 -137 44 -211t132 -74q86 0 144 88t59 224v580h281v-840q0 -138 8 -242h-268q-12 144 -12 215h-5q-107 -235 -328 -235q-164 0 -250 104t-86 311v687h281zM289 1219v219h224v-219h-224zM713 1219v219h227v-219h-227zM242 1755h160l211 -134h4l203 134
h159v-29l-250 -249h-229l-258 249v29z" />
    <glyph glyph-name="uni01DB" unicode="&#x1db;" 
d="M603 -20q-250 0 -362 134t-112 414v821h295v-818q0 -175 40 -247t144 -73q103 0 150 77t47 253v808h295v-806q0 -287 -124 -425t-373 -138zM722 1618h160v-152h-160v152zM356 1618h160v-152h-160v152zM727 1666h-150l-231 153v16h246l135 -155v-14z" />
    <glyph glyph-name="uni01DC" unicode="&#x1dc;" 
d="M416 1082v-607q0 -137 44 -211t132 -74q86 0 144 88t59 224v580h281v-840q0 -138 8 -242h-268q-12 144 -12 215h-5q-107 -235 -328 -235q-164 0 -250 104t-86 311v687h281zM289 1219v219h224v-219h-224zM713 1219v219h227v-219h-227zM276 1752h258l252 -243v-31h-170
l-340 231v43z" />
    <glyph glyph-name="uni01DD" unicode="&#x1dd;" 
d="M604 157q102 -1 163 69t65 193h-460q6 -120 68 -191t164 -71zM603 1102q252 0 389 -148t137 -418q0 -359 -248 -492q-119 -64 -282 -64q-237 0 -368 158t-131 449v8h734q0 147 -66 233t-179 86q-74 0 -131 -32t-77 -97l-265 23q55 142 183 218t304 76z" />
    <glyph glyph-name="uni01DE" unicode="&#x1de;" 
d="M615 1167q-17 -88 -166 -615h332q-147 518 -166 615zM1229 0h-294l-92 330h-456l-92 -330h-295l443 1349h344zM308 1835h612v-138h-612v138zM511 1466h-160v152h160v-152zM877 1466h-160v152h160v-152z" />
    <glyph glyph-name="uni01DF" unicode="&#x1df;" 
d="M399 328q0 -152 120 -152q97 0 162 76t65 194v55l-134 -2q-90 -3 -130 -19q-82 -34 -83 -152zM746 711q0 209 -146 209q-76 0 -110 -36t-42 -117l-293 14q54 321 455 321q202 0 310 -99t107 -291v-392q1 -92 21 -126t60 -34t70 6v-152q-108 -26 -197 -26q-180 0 -200 205
h-6q-63 -113 -143 -163t-193 -50q-157 0 -245 86t-88 246q0 162 104 250t313 90l223 4v55zM273 1219v219h224v-219h-224zM697 1219v219h227v-219h-227zM294 1690h612v-168h-612v168z" />
    <glyph glyph-name="uni01E0" unicode="&#x1e0;" 
d="M615 1167q-17 -88 -166 -615h332q-147 518 -166 615zM1229 0h-294l-92 330h-456l-92 -330h-295l443 1349h344zM308 1835h612v-138h-612v138zM693 1466h-160v152h160v-152z" />
    <glyph glyph-name="uni01E1" unicode="&#x1e1;" 
d="M399 328q0 -152 120 -152q97 0 162 76t65 194v55l-134 -2q-90 -3 -130 -19q-82 -34 -83 -152zM746 711q0 209 -146 209q-76 0 -110 -36t-42 -117l-293 14q54 321 455 321q202 0 310 -99t107 -291v-392q1 -92 21 -126t60 -34t70 6v-152q-108 -26 -197 -26q-180 0 -200 205
h-6q-63 -113 -143 -163t-193 -50q-157 0 -245 86t-88 246q0 162 104 250t313 90l223 4v55zM459 1212v207h281v-207h-281zM293 1690h612v-168h-612v168z" />
    <glyph glyph-name="uni01E2" unicode="&#x1e2;" 
d="M616 1152h-58l-46 -200l-98 -366h202v566zM616 387h-253l-102 -387h-261l372 1349h804v-202h-309v-355h297v-200h-297v-390h348v-202h-599v387zM459 1645h612v-168h-612v168z" />
    <glyph glyph-name="uni01E3" unicode="&#x1e3;" 
d="M1002 660q-16 264 -143 264q-40 0 -76 -32q-78 -70 -82 -232h301zM229 318q1 -156 79 -156t134 86t55 197v54l-102 -3q-93 -4 -129 -50t-37 -128zM873 1102q335 0 335 -575v-43h-509v-2q1 -150 45 -236t112 -86t100 38t48 103l178 -45q-73 -276 -314 -276q-116 0 -182 55
t-100 177q-98 -232 -308 -232q-122 0 -190 86t-68 248q0 160 82 252t248 94l147 4v55q0 93 -30 147t-86 54q-92 0 -108 -147l-208 17q39 312 315 312q176 0 247 -139q85 139 246 139zM323 1382h612v-168h-612v168z" />
    <glyph glyph-name="uni01E4" unicode="&#x1e4;" 
d="M650 216q117 0 208 74v11h-276v148h276v76h-274v218h544v-294h91v-148h-91v-116q-242 -205 -498 -205t-403 183.5t-147 517.5q0 689 558 689q355 0 462 -375l-274 -54q-53 197 -187 197t-197 -110t-63 -347q0 -465 271 -465z" />
    <glyph glyph-name="uni01E5" unicode="&#x1e5;" 
d="M831 568q0 152 -56.5 245t-154.5 93t-150.5 -90.5t-52.5 -250.5t53.5 -239t151.5 -79t153.5 84.5t55.5 236.5zM37 -93v93h791l1 37v59l2 115h-2q-49 -75 -135 -117t-193 -42q-177 0 -277 134t-100 380t103 389.5t295 143.5q218 0 307 -191h5q0 121 14 174h266
q-6 -108 -6 -250v-799l-1 -33h85v-93h-96q-33 -169 -156 -255t-324 -86q-395 0 -447 255l281 33q22 -105 174 -105t190 158h-777z" />
    <glyph glyph-name="uni01E6" unicode="&#x1e6;" 
d="M650 216q117 0 208 74v235h-274v218h544v-558q-242 -205 -498 -205t-403 184t-147 517q0 689 558 689q355 0 462 -375l-274 -54q-52 197 -186 197t-198 -108t-63 -349q0 -465 271 -465zM246 1705h160l211 -134h4l203 134h159v-29l-250 -249h-229l-258 249v29z" />
    <glyph glyph-name="uni01E7" unicode="&#x1e7;" 
d="M831 558q0 162 -56 255q-57 93 -155 93t-150 -90t-53 -266q0 -174 54 -258q55 -84 153 -85q98 0 152 94q54 95 55 257zM834 908q0 121 14 174h266q-6 -108 -6 -250v-799q0 -227 -128 -347t-364 -120q-186 0 -303 77t-144 214l281 33q15 -65 62 -103t112 -38
q205 0 205 288v59l2 115h-2q-93 -199 -328 -199q-179 0 -278 140t-99 400t103 404t295 143q218 0 307 -191h5zM237 1461h160l211 -134h4l203 134h159v-29l-250 -249h-229l-258 249v29z" />
    <glyph glyph-name="uni01E8" unicode="&#x1e8;" 
d="M431 0h-295v1349h295v-599l436 599h343l-460 -579l479 -770h-348l-323 557l-127 -142v-415zM246 1704h160l211 -134h4l203 134h159v-29l-250 -249h-229l-258 249v29z" />
    <glyph glyph-name="uni01E9" unicode="&#x1e9;" 
d="M266 1705h160l211 -134h4l203 134h159v-29l-250 -249h-229l-258 249v29zM454 0h-281v1349h281v-715l386 448h302l-380 -422l409 -660h-307l-289 490l-121 -84v-406z" />
    <glyph glyph-name="uni01EA" unicode="&#x1ea;" 
d="M614 212q244 0 244 463t-244 463t-243 -463q-1 -463 243 -463zM702 -184q0 -98 98 -98q50 0 108 27v-137q-62 -33 -162 -33t-163 54t-63 160t98 191h-3q-263 0 -403 177t-140 522t140 518t403 173q262 0 402 -173t140 -518q0 -541 -337 -665q-55 -40 -86 -95
q-32 -55 -32 -103z" />
    <glyph glyph-name="uni01EB" unicode="&#x1eb;" 
d="M387 542q0 -370 220 -370q124 0 180 88t56 280q0 194 -51 282q-52 88 -174 87q-122 0 -176 -88t-55 -279zM702 -184q0 -98 98 -98q50 0 108 27v-137q-62 -33 -162 -33t-163 54t-63 160t98 191h-8q-246 0 -382 146t-136 416q0 268 135 414t389 146q521 0 521 -560
q0 -270 -136 -416q-75 -81 -186 -117q-51 -38 -82 -91q-31 -54 -31 -102z" />
    <glyph glyph-name="uni01EC" unicode="&#x1ec;" 
d="M702 -184q0 -98 98 -98q50 0 108 27v-137q-62 -33 -162 -33t-163 54t-63 160t98 191h-3q-263 0 -403 177t-140 522t140 518t403 173q262 0 402 -173t140 -518q0 -541 -337 -665q-55 -40 -86 -95q-32 -55 -32 -103zM614 212q244 0 244 463t-244 463t-243 -463
q-1 -463 243 -463zM310 1638h612v-168h-612v168z" />
    <glyph glyph-name="uni01ED" unicode="&#x1ed;" 
d="M702 -184q0 -98 98 -98q50 0 108 27v-137q-62 -33 -162 -33t-163 54t-63 160t98 191h-8q-246 0 -382 146t-136 416q0 268 135 414t389 146q521 0 521 -560q0 -270 -136 -416q-75 -81 -186 -117q-51 -38 -82 -91q-31 -54 -31 -102zM387 542q0 -370 220 -370q124 0 180 88
t56 280q0 194 -51 282q-52 88 -174 87q-122 0 -176 -88t-55 -279zM310 1371h612v-168h-612v168z" />
    <glyph glyph-name="uni01EE" unicode="&#x1ee;" 
d="M662 677q517 -25 517 -531q0 -256 -154 -408t-432 -152q-215 0 -353 91t-214 284l258 101q54 -132 126 -188t174 -56q162 0 234 84t72 253q0 213 -168 277q-83 32 -235 32h-128v231l417 423h-690v231h1050v-205zM246 1705h160l211 -134h4l203 134h159v-29l-250 -249h-229
l-258 249v29z" />
    <glyph glyph-name="uni01EF" unicode="&#x1ef;" 
d="M595 -232q129 0 183 68t54 220q0 151 -82 219t-263 68h-102v189l339 347h-568v203h902v-195l-363 -365q197 -18 310 -136t113 -308q0 -237 -140 -370t-365 -133t-357 101t-156 280l277 13q11 -91 71 -146t147 -55zM251 1461h160l211 -134h4l203 134h159v-29l-250 -249
h-229l-258 249v29z" />
    <glyph glyph-name="uni01F0" unicode="&#x1f0;" 
d="M448 -425q-156 0 -269 43v210q137 -34 255 -34t164 54t46 162v882h-354v190h636v-1095q0 -129 -56 -221t-162 -142q-104 -49 -260 -49zM350 1461h160l211 -134h4l203 134h159v-29l-250 -249h-229l-258 249v29z" />
    <glyph glyph-name="uni01F1" unicode="&#x1f1;" 
d="M1225 0h-612v204l333 914h-293v231h550v-199l-333 -919h355v-231zM401 691q0 234 -31 332t-109 98h-1v-893h24q67 0 92 114.5t25 348.5zM254 1349q372 0 372 -664q0 -329 -88 -507t-252 -178h-252v1349h220z" />
    <glyph glyph-name="uni01F2" unicode="&#x1f2;" 
d="M641 0v194l281 685h-258v203h505v-196l-278 -681h304v-205h-554zM400 695q0 237 -31 331.5t-108 94.5h-1v-893h23q67 0 92 115t25 352zM626 686q0 -338 -83.5 -512t-246.5 -174h-262v1349h231q185 0 273 -162.5t88 -500.5z" />
    <glyph glyph-name="uni01F3" unicode="&#x1f3;" 
d="M653 0v193l302 686h-281v203h502v-194l-301 -683h327v-205h-549zM313 909q-80 -1 -80 -369t77 -368q39 0 61.5 102.5t22.5 273.5t-22 266t-59 95zM246 -20q-99 0 -161 149t-62 411t61.5 411t175.5 149q77 0 132 -66v450h204v-1248q0 -151 5 -236h-201l-4 54
q-51 -74 -150 -74z" />
    <glyph glyph-name="uni01F4" unicode="&#x1f4;" 
d="M650 216q117 0 208 74v235h-274v218h544v-558q-242 -205 -498 -205t-403 184t-147 517q0 689 558 689q355 0 462 -375l-274 -54q-52 197 -186 197t-198 -108t-63 -349q0 -465 271 -465zM499 1428v31l252 243h258v-43l-340 -231h-170z" />
    <glyph glyph-name="uni01F5" unicode="&#x1f5;" 
d="M831 558q0 162 -56 255q-57 93 -155 93t-150 -90t-53 -266q0 -174 54 -258q55 -84 153 -85q98 0 152 94q54 95 55 257zM834 908q0 121 14 174h266q-6 -108 -6 -250v-799q0 -227 -128 -347t-364 -120q-186 0 -303 77t-144 214l281 33q15 -65 62 -103t112 -38
q205 0 205 288v59l2 115h-2q-93 -199 -328 -199q-179 0 -278 140t-99 400t103 404t295 143q218 0 307 -191h5zM484 1184v31l252 243h258v-43l-340 -231h-170z" />
    <glyph glyph-name="uni01F6" unicode="&#x1f6;" 
d="M752 448q0 -140 20 -198t64 -58t63.5 50t19.5 206v604h241v-596q0 -182 -32.5 -283t-103 -146.5t-194.5 -45.5t-190 45t-94.5 144.5t-28.5 285.5v118h-187v-574h-241v1349h241v-531h187v531h235v-901z" />
    <glyph glyph-name="uni01F7" unicode="&#x1f7;" 
d="M852 806q0 166 -45.5 249t-150.5 83t-166.5 -78.5t-61.5 -207.5v-732q189 118 266 205.5t117.5 201t40.5 279.5zM1149 828q0 -159 -39.5 -295t-117 -246t-204.5 -206t-360 -214v-231h-291v1713h272v-166q66 102 142.5 144.5t192.5 42.5t209.5 -68t144.5 -191.5t51 -282.5
z" />
    <glyph glyph-name="uni01F8" unicode="&#x1f8;" 
d="M265 1703h258l252 -243v-31h-170l-340 231v43zM392 656v-656h-257v1349h337l393 -1037q-28 235 -28 365v672h257v-1349h-346l-384 1010q28 -252 28 -354z" />
    <glyph glyph-name="uni01F9" unicode="&#x1f9;" 
d="M143 840q0 125 -8 242h268q3 -20 8 -102t5 -113h4q57 124 143 180t205 56q336 0 336 -416v-687h-280v619q0 141 -38 207t-138 66t-162 -88t-62 -224v-580h-281v840zM261 1458h258l252 -243v-31h-170l-340 231v43z" />
    <glyph glyph-name="Aringacute" unicode="&#x1fa;" 
d="M717 1218q0 32 -28.5 51.5t-74.5 19.5t-75 -19t-29 -52t29 -52t75 -19t74.5 19.5t28.5 51.5zM510 1459v31l232 215h258v-43l-340 -203h-150zM615 992l-58 -200l-103 -307h321l-102 307q-44 135 -58 200zM856 1226q0 -80 -48 -135l421 -1091h-294l-88 263h-466l-86 -263
h-295l421 1090q-49 51 -49 134t66.5 138t176.5 55t175.5 -55.5t65.5 -135.5z" />
    <glyph glyph-name="aringacute" unicode="&#x1fb;" 
d="M399 328q0 -152 120 -152q97 0 162 76t65 194v55l-134 -2q-90 -3 -130 -19q-82 -34 -83 -152zM746 711q0 209 -146 209q-76 0 -110 -36t-42 -117l-293 14q39 229 254 295q-46 52 -46 133q1 81 67 136t176 55t176 -56t65 -136q0 -81 -48 -134q228 -80 228 -362v-392
q1 -92 21 -126t60 -34t70 6v-152q-108 -26 -197 -26q-180 0 -200 205h-6q-63 -113 -143 -163t-193 -50q-157 0 -245 86t-88 246q0 162 104 250t313 90l223 4v55zM708 1201q0 31 -28 51t-74 20t-76 -19q-29 -19 -29 -52t29 -52t75 -19q47 0 75 20t28 51zM483 1431v31l252 243
h258v-43l-340 -231h-170z" />
    <glyph glyph-name="AEacute" unicode="&#x1fc;" 
d="M616 1152h-58l-46 -200l-98 -366h202v566zM616 387h-253l-102 -387h-261l372 1349h804v-202h-309v-355h297v-200h-297v-390h348v-202h-599v387zM612 1429v31l252 243h258v-43l-340 -231h-170z" />
    <glyph glyph-name="aeacute" unicode="&#x1fd;" 
d="M1002 660q-16 264 -143 264q-40 0 -76 -32q-78 -70 -82 -232h301zM229 318q1 -156 79 -156t134 86t55 197v54l-102 -3q-93 -4 -129 -50t-37 -128zM873 1102q335 0 335 -575v-43h-509v-2q1 -150 45 -236t112 -86t100 38t48 103l178 -45q-73 -276 -314 -276q-116 0 -182 55
t-100 177q-98 -232 -308 -232q-122 0 -190 86t-68 248q0 160 82 252t248 94l147 4v55q0 93 -30 147t-86 54q-92 0 -108 -147l-208 17q39 312 315 312q176 0 247 -139q85 139 246 139zM477 1184v31l252 243h258v-43l-340 -231h-170z" />
    <glyph glyph-name="Oslashacute" unicode="&#x1fe;" 
d="M371 679q0 -119 14 -193l407 545q-60 107 -177 107q-244 0 -244 -459zM615 212q243 0 243 467q0 109 -14 193l-408 -546q62 -114 179 -114zM1157 654q0 -320 -140 -497t-402 -177q-215 0 -349 119l-106 -142l-114 75l131 176q-105 176 -105 496t140 493t403 173
q212 0 345 -115l106 142l114 -75l-130 -173q107 -175 107 -495zM467 1429v31l252 243h258v-43l-340 -231h-170z" />
    <glyph glyph-name="oslashacute" unicode="&#x1ff;" 
d="M387 542q0 -84 10 -148l387 438q-52 77 -170 77t-172 -88t-55 -279zM843 542q0 83 -11 156l-389 -439q55 -87 171 -87t173 88q56 88 56 282zM1137 530q0 -258 -136 -404t-391 -146q-200 0 -328 97l-85 -97l-96 78l95 107q-104 143 -104 394t135 397t389 146
q205 0 329 -87l79 89l98 -78l-87 -98q102 -140 102 -398zM467 1184v31l252 243h258v-43l-340 -231h-170z" />
    <glyph glyph-name="uni0200" unicode="&#x200;" 
d="M615 1167q-17 -88 -166 -615h332q-147 518 -166 615zM1229 0h-294l-92 330h-456l-92 -330h-295l443 1349h344zM69 1725h235l225 -266v-34h-142l-318 257v43zM475 1725h235l225 -266v-34h-142l-318 257v43z" />
    <glyph glyph-name="uni0201" unicode="&#x201;" 
d="M399 328q0 -152 120 -152q97 0 162 76t65 194v55l-134 -2q-90 -3 -130 -19q-82 -34 -83 -152zM746 711q0 209 -146 209q-76 0 -110 -36t-42 -117l-293 14q54 321 455 321q202 0 310 -99t107 -291v-392q1 -92 21 -126t60 -34t70 6v-152q-108 -26 -197 -26q-180 0 -200 205
h-6q-63 -113 -143 -163t-193 -50q-157 0 -245 86t-88 246q0 162 104 250t313 90l223 4v55zM51 1484h235l225 -266v-34h-142l-318 257v43zM457 1484h235l225 -266v-34h-142l-318 257v43z" />
    <glyph glyph-name="uni0202" unicode="&#x202;" 
d="M615 1167q-17 -88 -166 -615h332q-147 518 -166 615zM1229 0h-294l-92 330h-456l-92 -330h-295l443 1349h344zM614 1558q-68 0 -118 -40t-65 -116h-157q18 144 107 224t233 79q144 1 233 -79t107 -224h-157q-14 76 -64 116q-51 40 -119 40z" />
    <glyph glyph-name="uni0203" unicode="&#x203;" 
d="M399 328q0 -152 120 -152q97 0 162 76t65 194v55l-134 -2q-90 -3 -130 -19q-82 -34 -83 -152zM746 711q0 209 -146 209q-76 0 -110 -36t-42 -117l-293 14q54 321 455 321q202 0 310 -99t107 -291v-392q1 -92 21 -126t60 -34t70 6v-152q-108 -26 -197 -26q-180 0 -200 205
h-6q-63 -113 -143 -163t-193 -50q-157 0 -245 86t-88 246q0 162 104 250t313 90l223 4v55zM594 1344q-68 0 -118 -40t-65 -116h-157q18 144 107 224t233 79q144 1 233 -79t107 -224h-157q-14 76 -64 116q-51 40 -119 40z" />
    <glyph glyph-name="uni0204" unicode="&#x204;" 
d="M137 0v1349h968v-228h-673v-324h612v-228h-612v-341h714v-228h-1009zM111 1725h235l225 -266v-34h-142l-318 257v43zM517 1725h235l225 -266v-34h-142l-318 257v43z" />
    <glyph glyph-name="uni0205" unicode="&#x205;" 
d="M625 925q-102 1 -163 -69t-65 -193h460q-7 120 -69 191t-163 71zM626 -20q-252 0 -389 148t-137 418q0 359 248 492q119 64 282 64q237 0 368 -158t131 -449v-8h-734q-1 -147 65 -233t180 -86q74 0 131 32t77 97l265 -23q-55 -142 -183 -218t-304 -76zM81 1484h235
l225 -266v-34h-142l-318 257v43zM487 1484h235l225 -266v-34h-142l-318 257v43z" />
    <glyph glyph-name="uni0206" unicode="&#x206;" 
d="M137 0v1349h968v-228h-673v-324h612v-228h-612v-341h714v-228h-1009zM634 1558q-68 0 -118 -40t-65 -116h-157q18 144 107 224t233 79q144 1 233 -79t107 -224h-157q-14 76 -64 116q-51 40 -119 40z" />
    <glyph glyph-name="uni0207" unicode="&#x207;" 
d="M625 925q-102 1 -163 -69t-65 -193h460q-7 120 -69 191t-163 71zM626 -20q-252 0 -389 148t-137 418q0 359 248 492q119 64 282 64q237 0 368 -158t131 -449v-8h-734q-1 -147 65 -233t180 -86q74 0 131 32t77 97l265 -23q-55 -142 -183 -218t-304 -76zM618 1340
q-68 0 -118 -40t-65 -116h-157q18 144 107 224t233 79q144 1 233 -79t107 -224h-157q-14 76 -64 116q-51 40 -119 40z" />
    <glyph glyph-name="uni0208" unicode="&#x208;" 
d="M70 1725h235l225 -266v-34h-142l-318 257v43zM476 1725h235l225 -266v-34h-142l-318 257v43zM157 1349h916v-228h-311v-893h311v-228h-916v228h311v893h-311v228z" />
    <glyph glyph-name="uni0209" unicode="&#x209;" 
d="M70 1484h235l225 -266v-34h-142l-318 257v43zM476 1484h235l225 -266v-34h-142l-318 257v43zM794 190h353v-190h-1029v190h395v702h-290v190h571v-892z" />
    <glyph glyph-name="uni020A" unicode="&#x20a;" 
d="M157 1349h916v-228h-311v-893h311v-228h-916v228h311v893h-311v228zM614 1558q-68 0 -118 -40t-65 -116h-157q18 144 107 224t233 79q144 1 233 -79t107 -224h-157q-14 76 -64 116q-51 40 -119 40z" />
    <glyph glyph-name="uni020B" unicode="&#x20b;" 
d="M794 190h353v-190h-1029v190h395v702h-290v190h571v-892zM634 1340q-68 0 -118 -40t-65 -116h-157q18 144 107 224t233 79q144 1 233 -79t107 -224h-157q-14 76 -64 116q-51 40 -119 40z" />
    <glyph glyph-name="uni020C" unicode="&#x20c;" 
d="M614 212q244 0 244 463t-244 463t-243 -463q-1 -463 243 -463zM1157 679q0 -345 -140 -522t-402 -177q-263 0 -403 177t-140 522t140 518t403 173q262 0 402 -173t140 -518zM77 1725h235l225 -266v-34h-142l-318 257v43zM483 1725h235l225 -266v-34h-142l-318 257v43z
" />
    <glyph glyph-name="uni020D" unicode="&#x20d;" 
d="M387 542q0 -370 220 -370q124 0 180 88t56 280q0 194 -51 282q-52 88 -174 87q-122 0 -176 -88t-55 -279zM1137 542q0 -270 -136 -416q-137 -146 -387 -146t-386 146t-136 416q0 268 135 414t389 146q521 0 521 -560zM51 1484h235l225 -266v-34h-142l-318 257v43z
M457 1484h235l225 -266v-34h-142l-318 257v43z" />
    <glyph glyph-name="uni020E" unicode="&#x20e;" 
d="M614 1558q-68 0 -118 -40t-65 -116h-157q18 144 107 224t233 79q144 1 233 -79t107 -224h-157q-14 76 -64 116q-51 40 -119 40zM614 212q244 0 244 463t-244 463t-243 -463q-1 -463 243 -463zM1157 679q0 -345 -140 -522t-402 -177q-263 0 -403 177t-140 522t140 518
t403 173q262 0 402 -173t140 -518z" />
    <glyph glyph-name="uni020F" unicode="&#x20f;" 
d="M387 542q0 -370 220 -370q124 0 180 88t56 280q0 194 -51 282q-52 88 -174 87q-122 0 -176 -88t-55 -279zM1137 542q0 -270 -136 -416q-137 -146 -387 -146t-386 146t-136 416q0 268 135 414t389 146q521 0 521 -560zM614 1344q-68 0 -118 -40t-65 -116h-157
q18 144 107 224t233 79q144 1 233 -79t107 -224h-157q-14 76 -64 116q-51 40 -119 40z" />
    <glyph glyph-name="uni0210" unicode="&#x210;" 
d="M860 937q0 95 -62 139t-198 44h-168v-376h176q252 0 252 193zM432 515v-515h-295v1349h494q264 0 395 -103t131 -297q0 -137 -74 -233t-205 -135l349 -581h-332l-290 515h-173zM77 1725h235l225 -266v-34h-142l-318 257v43zM483 1725h235l225 -266v-34h-142l-318 257v43z
" />
    <glyph glyph-name="uni0211" unicode="&#x211;" 
d="M250 701q0 175 -52 381h271q36 -130 46 -228h4q50 136 135 192t205 56t222 -17v-237q-112 19 -212 19q-155 0 -247 -118t-92 -311v-438h-280v701zM51 1484h235l225 -266v-34h-142l-318 257v43zM457 1484h235l225 -266v-34h-142l-318 257v43z" />
    <glyph glyph-name="uni0212" unicode="&#x212;" 
d="M860 937q0 95 -62 139t-198 44h-168v-376h176q252 0 252 193zM432 515v-515h-295v1349h494q264 0 395 -103t131 -297q0 -137 -74 -233t-205 -135l349 -581h-332l-290 515h-173zM614 1558q-68 0 -118 -40t-65 -116h-157q18 144 107 224t233 79q144 1 233 -79t107 -224
h-157q-14 76 -64 116q-51 40 -119 40z" />
    <glyph glyph-name="uni0213" unicode="&#x213;" 
d="M250 701q0 175 -52 381h271q36 -130 46 -228h4q50 136 135 192t205 56t222 -17v-237q-112 19 -212 19q-155 0 -247 -118t-92 -311v-438h-280v701zM648 1340q-68 0 -118 -40t-65 -116h-157q18 144 107 224t233 79q144 1 233 -79t107 -224h-157q-14 76 -64 116
q-51 40 -119 40z" />
    <glyph glyph-name="uni0214" unicode="&#x214;" 
d="M95 1725h235l225 -266v-34h-142l-318 257v43zM501 1725h235l225 -266v-34h-142l-318 257v43zM603 -20q-250 0 -362 134t-112 414v821h295v-818q0 -175 40 -247t144 -73q103 0 150 77t47 253v808h295v-806q0 -287 -124 -425t-373 -138z" />
    <glyph glyph-name="uni0215" unicode="&#x215;" 
d="M416 1082v-607q0 -137 44 -211t132 -74q86 0 144 88t59 224v580h281v-840q0 -138 8 -242h-268q-12 144 -12 215h-5q-107 -235 -328 -235q-164 0 -250 104t-86 311v687h281zM61 1484h235l225 -266v-34h-142l-318 257v43zM467 1484h235l225 -266v-34h-142l-318 257v43z" />
    <glyph glyph-name="uni0216" unicode="&#x216;" 
d="M614 1558q-68 0 -118 -40t-65 -116h-157q18 144 107 224t233 79q144 1 233 -79t107 -224h-157q-14 76 -64 116q-51 40 -119 40zM603 -20q-250 0 -362 134t-112 414v821h295v-818q0 -175 40 -247t144 -73q103 0 150 77t47 253v808h295v-806q0 -287 -124 -425t-373 -138z
" />
    <glyph glyph-name="uni0217" unicode="&#x217;" 
d="M602 1344q-68 0 -120 -40q-50 -40 -64 -116h-157q18 144 107 224t233 79q144 1 233 -79t107 -224h-157q-14 76 -64 116t-118 40zM416 1082v-607q0 -137 44 -211t132 -74q86 0 144 88t59 224v580h281v-840q0 -138 8 -242h-268q-12 144 -12 215h-5q-107 -235 -328 -235
q-164 0 -250 104t-86 311v687h281z" />
    <glyph glyph-name="Scommaaccent" unicode="&#x218;" 
d="M624 -20q-248 0 -396 99t-190 288l285 37q23 -94 96 -148t203 -55q256 0 256 173q0 130 -217 182q-217 54 -305 92t-142 86q-110 100 -110 266t140 268t368 102q227 0 353 -88t163 -275l-286 -29q-44 183 -233 183q-106 1 -162 -39t-56 -102t27 -94q28 -32 74 -54
t212 -64t266 -98q195 -109 195 -310q-1 -200 -147 -310t-394 -110zM748 -224q0 -139 -94 -251h-137q94 100 94 170h-108v207h245v-126z" />
    <glyph glyph-name="scommaaccent" unicode="&#x219;" 
d="M623 916q-201 0 -201 -104q0 -54 38 -82t148 -49q272 -55 366 -115q130 -83 130 -245q0 -161 -128 -251t-354 -90t-344 70t-157 220l247 37q20 -77 72 -109t175 -32q231 0 231 118q0 58 -44 88t-147 52q-238 48 -321 88q-170 83 -170 263q0 155 120 241t325 87
q410 0 470 -292l-249 -26q-12 67 -59 99t-148 32zM750 -224q0 -139 -94 -251h-137q94 100 94 170h-108v207h245v-126z" />
    <glyph glyph-name="uni021A" unicode="&#x21a;" 
d="M762 1121v-1121h-295v1121h-406v228h1107v-228h-406zM734 -204q0 -139 -94 -251h-137q94 100 94 170h-108v207h245v-126z" />
    <glyph glyph-name="uni021B" unicode="&#x21b;" 
d="M161 892v190h181l88 282h176v-282h385v-190h-385v-530q0 -88 16 -118q35 -65 159 -66q123 0 254 27v-186q-198 -32 -324 -32q-127 1 -213 35t-128 108q-44 74 -44 206l2 556h-167zM758 -224q0 -139 -94 -251h-137q94 100 94 170h-108v207h245v-126z" />
    <glyph glyph-name="uni021C" unicode="&#x21c;" 
d="M1136 304q0 -393 -365 -517.5t-631 -181.5v237q404 91 556 200t152 255t-59 220q-152 -87 -649 -222v224q361 103 491 166t167 115t37 141t-67 143.5t-187 54.5q-187 0 -311 -159l-200 143q194 247 530 247q162 0 283.5 -49t187 -141.5t65.5 -199.5t-27.5 -168.5
t-108.5 -140.5q136 -136 136 -367z" />
    <glyph glyph-name="uni021D" unicode="&#x21d;" 
d="M820 738q0 82 -53 131t-143 49q-185 0 -228 -171l-229 54q25 142 148 221.5t327 79.5t327 -96t123 -268q0 -98 -32.5 -163t-98.5 -120q60 -40 95.5 -119.5t35.5 -191.5q0 -227 -210 -372.5t-708 -202.5v217q421 32 528.5 152t107.5 226t-52 168q-170 -69 -584 -140v214
q235 40 310.5 59.5t167.5 54t130 85.5t38 133z" />
    <glyph glyph-name="uni021E" unicode="&#x21e;" 
d="M796 0v574h-363v-574h-295v1349h295v-531h363v531h295v-1349h-295zM246 1705h160l211 -134h4l203 134h159v-29l-250 -249h-229l-258 249v29z" />
    <glyph glyph-name="uni021F" unicode="&#x21f;" 
d="M273 1705h160l211 -134h4l203 134h159v-29l-250 -249h-229l-258 249v29zM768 1102q336 0 336 -416v-686h-280v621q0 151 -40.5 210.5t-137.5 59.5t-159.5 -87.5t-62.5 -224.5v-579h-281v1349h281v-270q0 -109 -8 -213h4q57 124 143 180t205 56z" />
    <glyph glyph-name="uni0220" unicode="&#x220;" 
d="M724 1370q175 0 271 -122t96 -360v-1313h-295v1192q0 208 -42 290t-140 82t-181 -124v-1015h-295v1349h295v-104q116 125 291 125z" />
    <glyph glyph-name="uni0221" unicode="&#x221;" 
d="M924 -229q80 0 80.5 83t-21 108.5t-53.5 25.5t-68 -25t-61 -70h1q11 -51 48.5 -86.5t73.5 -35.5zM552 547q0 364 -139 364q-134 1 -134 -369t133 -370q67 0 103.5 99.5t36.5 275.5zM957 192q108 0 178.5 -83.5t70.5 -225.5t-77 -225t-215 -83t-258 131l-79 -121l-155 117
l149 230h-1q-19 72 -19 243q-29 -96 -86.5 -145.5t-134.5 -49.5q-139 0 -215.5 146t-76.5 414t80 415t226 147q72 0 121 -42t86 -155v28l-1 66v485h232v-1343q67 51 175 51z" />
    <glyph glyph-name="uni0222" unicode="&#x222;" 
d="M874 420q0 221 -260 221q-260 1 -261 -231q0 -232 265 -232q132 0 194 57t62 185zM1165 397q0 -199 -143.5 -308t-407.5 -109t-407 110t-143 305q0 136 69 225t198 117v4q-120 36 -177 112.5t-57 178.5q0 152 118.5 238.5t331.5 86.5v-199q-163 0 -163 -146
q0 -174 229 -174q113 0 170.5 46.5t57.5 152.5t-41.5 150t-126.5 44v198q220 0 338.5 -97t118.5 -277q0 -233 -236 -312v-4q271 -57 271 -342z" />
    <glyph glyph-name="uni0223" unicode="&#x223;" 
d="M614 636q-266 0 -266 -224q0 -244 266 -244t266 244q0 110 -67.5 167t-198.5 57zM378 1051q0 -228 236 -228t236 220q0 74 -23.5 122t-94.5 104l106 144q298 -121 298 -366q0 -108 -61 -189.5t-175 -124.5v-4q132 -26 201.5 -116t69.5 -223q0 -191 -147.5 -300.5
t-409.5 -109.5t-409.5 109.5t-147.5 300.5q0 134 69.5 223.5t201.5 115.5v4q-115 44 -175.5 125t-60.5 189q0 245 298 366l106 -144q-70 -55 -94 -102.5t-24 -115.5z" />
    <glyph glyph-name="uni0224" unicode="&#x224;" 
d="M87 0v209l671 909h-595v231h934v-205l-671 -913h423q154 0 244 -72t90 -191t-42 -245l-227 33q31 83 31 134q0 110 -133 110h-725z" />
    <glyph glyph-name="uni0225" unicode="&#x225;" 
d="M815 205q334 0 334 -250q0 -106 -35 -232l-221 33q31 83 31 134q0 110 -133 110h-653v199l570 680h-529v203h849v-201l-567 -676h354z" />
    <glyph glyph-name="uni0226" unicode="&#x226;" 
d="M615 1167q-17 -88 -166 -615h332q-147 518 -166 615zM1229 0h-294l-92 330h-456l-92 -330h-295l443 1349h344zM474 1438v207h281v-207h-281z" />
    <glyph glyph-name="uni0227" unicode="&#x227;" 
d="M399 328q0 -152 120 -152q97 0 162 76t65 194v55l-134 -2q-90 -3 -130 -19q-82 -34 -83 -152zM746 711q0 209 -146 209q-76 0 -110 -36t-42 -117l-293 14q54 321 455 321q202 0 310 -99t107 -291v-392q1 -92 21 -126t60 -34t70 6v-152q-108 -26 -197 -26q-180 0 -200 205
h-6q-63 -113 -143 -163t-193 -50q-157 0 -245 86t-88 246q0 162 104 250t313 90l223 4v55zM455 1267v207h281v-207h-281z" />
    <glyph glyph-name="uni0228" unicode="&#x228;" 
d="M746 -259q0 69 -122 69q-38 0 -52 -2l69 192h-504v1349h968v-228h-673v-324h612v-228h-612v-341h714v-228h-362l-40 -102q94 -5 140 -46t45 -107q0 -190 -303 -190q-45 0 -101 6v118q35 -7 84 -7q137 0 137 69z" />
    <glyph glyph-name="uni0229" unicode="&#x229;" 
d="M625 925q-102 1 -163 -69t-65 -193h460q-7 120 -69 191t-163 71zM640 -259q0 69 -122 69q-38 0 -52 -2l64 178q-183 24 -293 142q-137 148 -137 418q0 359 248 492q119 64 282 64q237 0 368 -158t131 -449v-8h-734q-1 -147 65 -233t180 -86q74 0 131 32t77 97l265 -23
q-55 -141 -175 -213t-267 -80l-33 -83q94 -5 140 -46t45 -107q0 -190 -303 -190q-45 0 -101 6v118q35 -7 84 -7q137 0 137 69z" />
    <glyph glyph-name="uni022A" unicode="&#x22a;" 
d="M614 212q244 0 244 463t-244 463t-243 -463q-1 -463 243 -463zM1157 679q0 -345 -140 -522t-402 -177q-263 0 -403 177t-140 522t140 518t403 173q262 0 402 -173t140 -518zM308 1835h612v-138h-612v138zM511 1466h-160v152h160v-152zM877 1466h-160v152h160v-152z" />
    <glyph glyph-name="uni022B" unicode="&#x22b;" 
d="M387 542q0 -370 220 -370q124 0 180 88t56 280q0 194 -51 282q-52 88 -174 87q-122 0 -176 -88t-55 -279zM1137 542q0 -270 -136 -416q-137 -146 -387 -146t-386 146t-136 416q0 268 135 414t389 146q521 0 521 -560zM289 1219v219h224v-219h-224zM713 1219v219h227v-219
h-227zM308 1690h612v-168h-612v168z" />
    <glyph glyph-name="uni022C" unicode="&#x22c;" 
d="M614 212q244 0 244 463t-244 463t-243 -463q-1 -463 243 -463zM1157 679q0 -345 -140 -522t-402 -177q-263 0 -403 177t-140 522t140 518t403 173q262 0 402 -173t140 -518zM747 1461q-57 -1 -141 37t-126 38q-78 0 -93 -75h-91q10 82 32 118q45 76 161 76q55 1 138 -37
t124 -38q78 0 90 75h92q-12 -81 -33 -118q-20 -37 -58 -57t-95 -19zM308 1835h612v-138h-612v138z" />
    <glyph glyph-name="uni022D" unicode="&#x22d;" 
d="M387 542q0 -370 220 -370q124 0 180 88t56 280q0 194 -51 282q-52 88 -174 87q-122 0 -176 -88t-55 -279zM1137 542q0 -270 -136 -416q-137 -146 -387 -146t-386 146t-136 416q0 268 135 414t389 146q521 0 521 -560zM778 1177q-54 -1 -94 17t-78 38t-72 38t-66 18
t-52 -24t-31 -87h-124q7 101 29 153q46 110 174 111q62 0 160 -55t137 -55q38 0 56 29t27 81h122q-5 -99 -27 -151t-64 -82q-43 -30 -97 -31zM308 1690h612v-168h-612v168z" />
    <glyph glyph-name="uni022E" unicode="&#x22e;" 
d="M614 212q244 0 244 463t-244 463t-243 -463q-1 -463 243 -463zM1157 679q0 -345 -140 -522t-402 -177q-263 0 -403 177t-140 522t140 518t403 173q262 0 402 -173t140 -518zM474 1477v207h281v-207h-281z" />
    <glyph glyph-name="uni022F" unicode="&#x22f;" 
d="M387 542q0 -370 220 -370q124 0 180 88t56 280q0 194 -51 282q-52 88 -174 87q-122 0 -176 -88t-55 -279zM1137 542q0 -270 -136 -416q-137 -146 -387 -146t-386 146t-136 416q0 268 135 414t389 146q521 0 521 -560zM474 1267v207h281v-207h-281z" />
    <glyph glyph-name="uni0230" unicode="&#x230;" 
d="M614 212q244 0 244 463t-244 463t-243 -463q-1 -463 243 -463zM1157 679q0 -345 -140 -522t-402 -177q-263 0 -403 177t-140 522t140 518t403 173q262 0 402 -173t140 -518zM308 1835h612v-138h-612v138zM693 1466h-160v152h160v-152z" />
    <glyph glyph-name="uni0231" unicode="&#x231;" 
d="M387 542q0 -370 220 -370q124 0 180 88t56 280q0 194 -51 282q-52 88 -174 87q-122 0 -176 -88t-55 -279zM1137 542q0 -270 -136 -416q-137 -146 -387 -146t-386 146t-136 416q0 268 135 414t389 146q521 0 521 -560zM474 1212v207h281v-207h-281zM308 1690h612v-168
h-612v168z" />
    <glyph glyph-name="uni0232" unicode="&#x232;" 
d="M761 0h-294v556l-464 793h309l300 -566l304 566h309l-464 -793v-556zM308 1645h612v-168h-612v168z" />
    <glyph glyph-name="uni0233" unicode="&#x233;" 
d="M346 -425q-126 0 -203 13v200l51 -5l51 -3q113 0 171 82q32 44 70 149l-448 1071h297l190 -527q40 -109 101 -334l90 330l180 531h294l-448 -1139q-80 -206 -175 -287t-221 -81zM318 1382h612v-168h-612v168z" />
    <glyph glyph-name="uni0234" unicode="&#x234;" 
d="M903 -120q0 52 -37.5 80t-97.5 28t-120 -25.5t-96 -69.5q17 -51 78.5 -86.5t129.5 -35.5t105.5 28.5t37.5 80.5zM744 -425q-188 0 -366 140l-112 -134l-168 151q49 71 173 200q-28 74 -28 201v1351h281v-1373q115 81 271 81t250 -83.5t94 -224.5t-103.5 -225t-291.5 -84z
" />
    <glyph glyph-name="uni0235" unicode="&#x235;" 
d="M1017 -120q0 57 -21.5 82.5t-52.5 25.5q-61 0 -114 -95h1q12 -56 44.5 -89t65.5 -33t55 26t22 83zM931 -425q-134 0 -235 116l-70 -119l-171 122q3 8 16 29t129 209h-2q-20 73 -20 201v171h1v303q0 285 -113 285q-60 0 -97.5 -85.5t-37.5 -226.5v-580h-233v840l-2 143
l-3 99h223l8 -195q19 89 81.5 152.5t140.5 63.5q128 0 196 -105.5t68 -310.5v-541q59 46 144 46q124 0 194.5 -83.5t70.5 -225.5t-77 -225t-211 -83z" />
    <glyph glyph-name="uni0236" unicode="&#x236;" 
d="M940 310q0 50 -35 79t-85 29q-133 0 -211 -95q18 -55 73.5 -88.5t121.5 -33.5t101 29.5t35 79.5zM844 622q154 0 243 -84.5t89 -223.5t-99 -224t-250 -85t-231.5 39t-160.5 101l-112 -134l-168 151q49 71 173 200q-26 69 -26 165v365h-137v190h151l88 282h176v-282h405
v-190h-405v-351q61 44 121 62.5t143 18.5z" />
    <glyph glyph-name="uni0238" unicode="&#x238;" 
d="M854 907q-148 0 -148 -371q0 -175 37.5 -269.5t109.5 -94.5q141 0 141 368t-140 367zM518 547q0 364 -141 364q-141 1 -141 -369t137 -370q69 0 107 99t38 276zM1203 543q0 -265 -72 -414t-205 -149q-78 0 -136.5 50t-88.5 144h-1v-174h-175v176h-2q-62 -196 -237 -196
q-126 0 -193 146.5t-67 414.5t70.5 414.5t203.5 146.5q70 0 128.5 -45t90.5 -146h1v30l-1 96v447h187v-414l-2 -176h2q65 208 232 208q129 0 197 -147t68 -412z" />
    <glyph glyph-name="uni0239" unicode="&#x239;" 
d="M853 910q-147 0 -147 -367q0 -178 38 -273t144 -95.5t106 367.5t-141 368zM518 536q0 176 -38 275t-107 99q-137 0 -137 -370t139 -369q70 0 106.5 94.5t36.5 270.5zM1203 539q0 -266 -68 -412.5t-197 -146.5q-167 0 -232 208h-2l2 -176v-414h-187v447l1 97v29h-1
q-32 -101 -90.5 -146t-128.5 -45q-133 0 -203.5 146t-70.5 414t67 415t193 147q175 0 237 -196h2v176h175v-174h1q29 93 87.5 143.5t137.5 50.5q133 0 205 -148.5t72 -414.5z" />
    <glyph glyph-name="uni023A" unicode="&#x23a;" 
d="M729 736l-100 -184h152zM615 1167q-19 -100 -166 -615h17l206 381q-42 151 -57 234zM828 1222l142 262h163l-243 -450l339 -1034h-294l-92 330h-334l-238 -441h-163l60 111h-168l443 1349h344z" />
    <glyph glyph-name="uni023B" unicode="&#x23b;" 
d="M380 681q0 -140 27 -239l355 658q-49 38 -110 38q-272 0 -272 -457zM659 212q162 0 240 244l273 -52q-133 -424 -516 -424q-177 0 -299 69l-86 -160h-163l135 250q-163 178 -163 542q0 689 568 689q131 0 233 -50l89 164h163l-134 -248q96 -96 145 -255l-272 -66l-18 53
l-369 -682q66 -74 174 -74z" />
    <glyph glyph-name="uni023C" unicode="&#x23c;" 
d="M405 546q0 -107 18 -183l262 537q-29 9 -63 9q-217 0 -217 -363zM634 -20q-124 0 -218 33l-214 -438h-163l249 510q-178 142 -178 450q0 268 135 417.5t383 149.5q79 0 147 -17l195 399h163l-222 -455q154 -97 190 -288l-283 -14q-5 35 -20 71l-287 -590q47 -36 121 -36
t128 50.5t67 150.5l282 -13q-15 -111 -79 -198t-168 -134.5t-228 -47.5z" />
    <glyph glyph-name="uni023D" unicode="&#x23d;" 
d="M211 0v593h-127v203h127v553h295v-553h366v-203h-366v-365h616v-228h-911z" />
    <glyph glyph-name="uni023E" unicode="&#x23e;" 
d="M762 1121v-89l58 89h-58zM762 0h-295v338l-296 -449h-163l459 696v536h-406v228h910l89 135h163l-89 -135h34v-228h-185l-221 -336v-785z" />
    <glyph glyph-name="uni023F" unicode="&#x23f;" 
d="M624 916q-201 0 -201 -105q0 -54 38.5 -81.5t128.5 -45.5q258 -54 386.5 -118t128.5 -250q0 -157 -128.5 -246.5t-355.5 -89.5h-19l-20 1l56 -65q63 -74 107.5 -104.5t108.5 -30.5t108 12v-201q-87 -17 -160 -17t-140.5 31t-130.5 90.5t-165 195.5t-162 196t-75 82
l163 151q122 -155 338 -155q217 0 217 118q0 58 -43.5 88.5t-147.5 51.5q-228 45 -359.5 106t-131.5 245q0 155 119.5 241.5t325.5 86.5q410 0 470 -292l-249 -26q-12 66 -59 98.5t-148 32.5z" />
    <glyph glyph-name="uni0240" unicode="&#x240;" 
d="M138 0v199l570 680h-529v203h849v-201l-567 -676q123 -26 277 -221q144 -185 242 -185q48 0 107 12v-219q-87 -17 -164 -17q-157 0 -327 213q-91 112 -161 162t-143 50h-154z" />
    <glyph glyph-name="uni0241" unicode="&#x241;" 
d="M560 546q165 0 255.5 89.5t90.5 245.5q0 317 -310 317q-125 0 -203 -54.5t-111 -176.5l-260 71q58 188 206 290t368 102q286 0 446.5 -145.5t160.5 -397.5q0 -134 -56.5 -251.5t-160.5 -197t-240 -106.5v-332h-295v559q57 -13 109 -13z" />
    <glyph glyph-name="uni0242" unicode="&#x242;" 
d="M746 673q0 236 -145 236q-75 0 -117.5 -49.5t-51.5 -132.5l-277 14q26 162 146.5 261.5t314.5 99.5t309.5 -112.5t115.5 -315.5q0 -140 -75 -237.5t-221 -142.5v-294h-281v428q159 5 220.5 65.5t61.5 179.5z" />
    <glyph glyph-name="uni0243" unicode="&#x243;" 
d="M643 811q165 -1 165 159t-167 160h-209v-319h211zM889 410q0 88 -53 135.5t-154 47.5h-250v-73h173v-196h-173v-105h257q200 0 200 191zM0 520h137v829h525q218 0 330.5 -87.5t112.5 -251.5q0 -115 -66 -193.5t-203 -107.5q171 -18 260.5 -102t89.5 -222
q0 -181 -124 -283t-343 -102h-582v324h-137v196z" />
    <glyph glyph-name="uni0244" unicode="&#x244;" 
d="M608 211q103 0 150 77t47 253v74h-381v-84q0 -175 40.5 -247.5t143.5 -72.5zM20 818h109v531h295v-531h381v531h295v-531h109v-203h-109v-72q0 -286 -123.5 -424.5t-373.5 -138.5t-362 134t-112 414v87h-109v203z" />
    <glyph glyph-name="uni0245" unicode="&#x245;" 
d="M20 0l443 1349h304l442 -1349h-304l-248 865q-35 125 -42 190q-16 -97 -42 -190l-248 -865h-305z" />
    <glyph glyph-name="uni0246" unicode="&#x246;" 
d="M432 569v-208l101 208h-101zM432 797h212l158 324h-370v-324zM137 0v1349h777l66 135h163l-66 -135h28v-228h-140l-158 -324h237v-228h-348l-166 -341h616v-228h-728l-53 -110h-163l53 110h-118z" />
    <glyph glyph-name="uni0247" unicode="&#x247;" 
d="M395 487q0 -55 9 -101l50 101h-59zM857 663q-8 113 -64 185l-90 -185h154zM626 925q-103 0 -164 -69.5t-65 -192.5h143l126 259zM1129 495v-8h-512l-129 -264q62 -55 144 -55q177 0 216 129l265 -23q-53 -139 -181 -216.5t-284 -77.5t-258 43l-218 -448h-163l256 526
q-165 148 -165 445q0 359 183.5 457.5t346.5 98.5q62 0 118 -12l192 394h163l-217 -445q243 -143 243 -544z" />
    <glyph glyph-name="uni0248" unicode="&#x248;" 
d="M393 445q40 -234 178 -234q68 0 111 59t43 169v236h-241v203h241v240h-301v231h595v-471h90v-203h-90v-229q0 -218 -120.5 -342t-326.5 -124t-322.5 109.5t-147.5 312.5z" />
    <glyph glyph-name="uni0249" unicode="&#x249;" 
d="M583 1277v207h281v-207h-281zM385 -425q-155 0 -268 43v210q137 -34 255 -34t164 53.5t46 162.5v445h-122v203h122v234h-354v190h636v-424h121v-203h-121v-468q0 -129 -58 -222t-162 -141.5t-259 -48.5z" />
    <glyph glyph-name="uni024A" unicode="&#x24a;" 
d="M590 200q134 0 205 98v751q-65 89 -183 89t-180.5 -119t-62.5 -345t59 -350t162 -124zM810 -52v87q-95 -55 -220 -55q-245 0 -381.5 182t-136.5 512t143.5 513t404.5 183q169 0 295 -99l127 78h49v-1381q0 -79 26.5 -117.5t72.5 -38.5t113 13v-230q-84 -20 -186 -20
q-156 0 -231.5 91.5t-75.5 281.5z" />
    <glyph glyph-name="uni024B" unicode="&#x24b;" 
d="M390 543q0 -372 203 -372q98 0 154.5 96.5t56.5 242.5t-26.5 229t-75 127.5t-111.5 44.5q-96 0 -148.5 -92t-52.5 -276zM802 906q0 111 15 176h272q-8 -136 -8 -236v-879q0 -80 27 -117.5t72 -37.5t113 13v-230q-84 -20 -186 -20q-168 0 -237.5 87.5t-69.5 283.5l2 225
h-2q-41 -91 -123.5 -141t-193.5 -50q-186 0 -286 147t-100 409t106 414.5t289 152.5q208 0 306 -197h4z" />
    <glyph glyph-name="uni024C" unicode="&#x24c;" 
d="M860 937q0 94 -62 138.5t-198 44.5h-168v-376h176q252 0 252 193zM0 744h137v605h494q264 0 395 -103.5t131 -296.5q0 -137 -74 -233t-205 -135l349 -581h-332l-290 515h-173v-515h-295v515h-137v229z" />
    <glyph glyph-name="uni024D" unicode="&#x24d;" 
d="M250 701q0 175 -52 381h271q36 -130 46 -228h4q50 136 135 192t205 56t222 -17v-237q-111 19 -225 19t-200 -80.5t-114 -218.5h143v-203h-155v-365h-280v365h-116v203h116v133z" />
    <glyph glyph-name="uni024E" unicode="&#x24e;" 
d="M612 783l119 222h-237zM1229 1208v-203h-206l-262 -449v-556h-294v556l-263 449h-204v203h85l-82 141h309l74 -141h454l76 141h309l-83 -141h87z" />
    <glyph glyph-name="uni024F" unicode="&#x24f;" 
d="M626 221q4 24 43 163t55 191h-206q52 -148 108 -354zM1182 778v-203h-192l-248 -632q-59 -147 -141.5 -257.5t-275.5 -110.5q-106 0 -182 13v200l51 -5l51 -3q112 0 157 63t84 168l-236 564h-203v203h118l-127 304h297l109 -304h349l103 304h294l-120 -304h112z" />
    <glyph glyph-name="uni0250" unicode="&#x250;" 
d="M830 754q0 152 -120 152q-97 0 -162 -76.5t-65 -193.5v-55l134 2q90 2 151.5 27t61.5 144zM483 371q-1 -209 145 -209q76 0 110.5 36.5t42.5 116.5l293 -14q-54 -321 -455 -321q-202 0 -309.5 99t-107.5 291v392q0 91 -20.5 125.5t-60.5 34.5t-70 -6v152q108 26 197 26
q180 0 200 -205h6q63 113 143.5 163t192.5 50q157 0 245 -85t88 -247t-104.5 -249.5t-312.5 -90.5l-223 -4v-55z" />
    <glyph glyph-name="uni0251" unicode="&#x251;" 
d="M804 546q0 178 -53.5 271.5t-157.5 93.5q-203 1 -203 -369t202 -370q102 0 157 98t55 276zM803 176h-4q-88 -196 -328 -196q-179 0 -276.5 147.5t-97.5 415.5t103.5 413.5t290.5 145.5q224 0 310 -191h4q0 115 16 171h266q-6 -105 -6 -250v-596q0 -100 8 -236h-272
q-14 45 -14 176z" />
    <glyph glyph-name="uni0252" unicode="&#x252;" 
d="M425 546q0 -178 55 -276t157 -98q202 0 202 370t-203 369q-104 0 -157.5 -93.5t-53.5 -271.5zM738 1102q188 0 291 -146t103 -414t-97.5 -415t-276.5 -147q-240 0 -328 196h-4q0 -131 -14 -176h-272q8 136 8 236v596q0 145 -6 250h266q16 -51 16 -171h4q82 191 310 191z
" />
    <glyph glyph-name="uni0253" unicode="&#x253;" 
d="M839 540q0 372 -203 372q-98 0 -154.5 -96t-56.5 -242t26.5 -229.5t75 -128t111.5 -44.5q96 0 148.5 92t52.5 276zM427 176q0 -111 -15 -176h-272q8 136 8 236v967q0 137 88 213.5t244 76.5q108 0 193 -17v-211q-43 12 -115 12q-129 0 -129 -125v-62l-2 -178h2
q41 91 123.5 141t193.5 50q186 0 286 -147t100 -409t-107 -414.5t-288 -152.5q-215 0 -306 196h-4z" />
    <glyph glyph-name="uni0254" unicode="&#x254;" 
d="M605 -20q-133 0 -237.5 47.5t-168.5 134.5t-79 198l282 13q13 -100 67 -150.5t134 -50.5q221 0 221 368t-217 369q-88 0 -136 -49.5t-60 -132.5l-283 14q31 169 157 265t316 96q248 0 383 -149.5t135 -414.5t-134 -411.5t-380 -146.5z" />
    <glyph glyph-name="uni0255" unicode="&#x255;" 
d="M863 286q0 99 -163 99q-108 0 -230 -118q65 -95 206 -95q187 0 187 114zM110 535q0 268 135 417.5t383 149.5q191 0 316 -96t157 -265l-283 -14q-12 83 -60 132.5t-136 49.5q-217 0 -217 -363l2 -70q169 115 341 115t266.5 -71.5t94.5 -215.5t-123.5 -234t-325.5 -90
t-346 107q-47 -61 -108 -149l-168 151q58 89 132 172q-60 118 -60 274z" />
    <glyph glyph-name="uni0256" unicode="&#x256;" 
d="M593 909q-203 0 -203 -370q0 -184 52.5 -275.5t148.5 -91.5q62 0 137.5 68.5t75.5 305.5q0 172 -56 267.5t-155 95.5zM802 -77v253h-4q-53 -107 -131.5 -151.5t-184.5 -44.5q-179 0 -282 150t-103 412t103.5 410t292.5 148q222 0 307 -191h2l-2 178v397h281v-1568
q0 -125 129 -125q47 0 105 12v-211q-92 -17 -192 -17q-166 0 -243.5 86.5t-77.5 261.5z" />
    <glyph glyph-name="uni0257" unicode="&#x257;" 
d="M593 909q-203 0 -203 -370q0 -184 52.5 -275.5t148.5 -91.5q62 0 137.5 68.5t75.5 305.5q0 172 -56 267.5t-155 95.5zM802 176h-4q-53 -107 -131.5 -151.5t-184.5 -44.5q-179 0 -282 150t-103 412t103.5 410t292.5 148q222 0 307 -191h2l-2 178v116q0 143 76.5 216.5
t225.5 73.5q76 0 163 -17v-211q-59 12 -99 12q-86 0 -85 -121v-920q0 -100 8 -236h-272q-15 52 -15 176z" />
    <glyph glyph-name="uni0258" unicode="&#x258;" 
d="M604 925q-102 0 -163.5 -71.5t-68.5 -190.5h460q-3 122 -64.5 192t-163.5 70zM603 -20q-177 0 -305 77t-182 217l265 23q20 -66 77 -97.5t131 -31.5q114 0 179.5 86t65.5 233h-734v8q0 291 131 449t368 158q336 0 433 -189t97 -367q0 -268 -136.5 -417t-389.5 -149z" />
    <glyph glyph-name="uni0259" unicode="&#x259;" 
d="M604 157q102 0 163 69.5t65 192.5h-460q7 -120 68.5 -191t163.5 -71zM603 1102q252 0 389 -148.5t137 -417.5q0 -359 -183.5 -457.5t-346.5 -98.5q-237 0 -368 158t-131 449v8h734q0 147 -65.5 233t-179.5 86q-74 0 -131 -31.5t-77 -97.5l-265 23q55 141 183 217.5
t304 76.5z" />
    <glyph glyph-name="uni0259" unicode="&#x4d9;" 
d="M604 157q102 0 163 69.5t65 192.5h-460q7 -120 68.5 -191t163.5 -71zM603 1102q252 0 389 -148.5t137 -417.5q0 -359 -183.5 -457.5t-346.5 -98.5q-237 0 -368 158t-131 449v8h734q0 147 -65.5 233t-179.5 86q-74 0 -131 -31.5t-77 -97.5l-265 23q55 141 183 217.5
t304 76.5z" />
    <glyph glyph-name="uni025A" unicode="&#x25a;" 
d="M284 435q16 -268 131 -268q70 0 103.5 80t33.5 253zM415 1102q291 0 364 -345l174 38l24 -148q21 -124 80 -124t121 43l52 -180q-93 -56 -195 -56t-156.5 58.5t-80.5 171.5v-24q0 -267 -100 -411.5t-282 -144.5t-275 155t-93 452v8l491 101q-16 128 -49.5 178t-85.5 50
q-81 0 -113 -139l-231 23q90 294 355 294z" />
    <glyph glyph-name="uni025B" unicode="&#x25b;" 
d="M935 790q-101 133 -293 133q-95 0 -153 -33.5t-58 -88.5q0 -149 408 -149v-177q-200 0 -309.5 -41t-109.5 -115t56.5 -112.5t153.5 -38.5q188 0 340 157l163 -140q-199 -205 -512 -205q-230 0 -360 84t-130 233q0 106 93.5 178t234.5 83v2q-128 13 -211.5 84.5
t-83.5 167.5q0 130 134 210t359 80q308 0 460 -189z" />
    <glyph glyph-name="uni025C" unicode="&#x25c;" 
d="M390 652q408 0 408 149q0 55 -58 88.5t-154 33.5q-194 0 -292 -133l-182 123q152 189 460 189q223 0 358 -79.5t135 -210.5q0 -97 -83 -168t-212 -84v-2q142 -11 235 -83.5t93 -177.5q0 -149 -130.5 -233t-359.5 -84q-313 0 -512 205l163 140q152 -157 340 -157
q97 0 153.5 38.5t56.5 112.5t-110.5 115t-308.5 41v177z" />
    <glyph glyph-name="uni025D" unicode="&#x25d;" 
d="M1228 567q-106 -57 -248 -57q-74 0 -134.5 48t-88.5 136q-50 -94 -183 -127v-2q110 -14 175.5 -85t65.5 -176q0 -151 -103.5 -237.5t-271.5 -86.5q-320 0 -393 308l227 44q36 -164 148 -164q125 0 125 143q0 86 -51 123t-182 37v177q123 0 173 34t50 104t-23.5 103.5
t-84.5 33.5q-124 0 -138 -144l-223 22q19 145 118.5 223t235.5 78q253 0 335 -158l150 30l18 -120q26 -150 118 -150q56 0 125 43z" />
    <glyph glyph-name="uni025E" unicode="&#x25e;" 
d="M639 1102q186 0 306 -79.5t120 -201.5q0 -203 -228 -256q125 -13 193 -79t68 -168t-87 -220t-378 -118q-252 0 -396 151t-144 411t143 410t403 150zM643 923q-125 0 -195 -94.5t-70 -278.5t68 -283t190 -99q80 0 126.5 39.5t46.5 113.5t-46.5 109.5t-178.5 35.5v182
q118 0 165.5 34t47.5 104q0 136 -154 137z" />
    <glyph glyph-name="uni025F" unicode="&#x25f;" 
d="M576 190v892h280v-892h256v-190h-256v-83q0 -174 -109.5 -261.5t-290.5 -87.5t-349 28v184q150 -19 263 -19t159.5 40.5t46.5 141.5v57h-443v190h443z" />
    <glyph glyph-name="uni0260" unicode="&#x260;" 
d="M831 558q0 162 -56.5 255t-154.5 93t-150.5 -91t-52.5 -265t54.5 -258.5t152.5 -84.5t152.5 94.5t54.5 256.5zM522 1099q218 0 307 -191h5v295q0 290 295 290q76 0 163 -17v-211q-58 12 -98 12q-86 0 -86 -121v-1123q0 -227 -127.5 -347t-364.5 -120q-186 0 -303 77
t-144 214l281 33q15 -65 62 -103t112 -38q205 0 205 288v59l2 115h-2q-91 -199 -328 -199q-179 0 -278 140t-99 400t103 403.5t295 143.5z" />
    <glyph glyph-name="uni0261" unicode="&#x261;" 
d="M831 558q0 162 -56 255q-57 93 -155 93t-150 -90t-53 -266q0 -174 54 -258q55 -84 153 -85q98 0 152 94q54 95 55 257zM834 908q0 121 14 174h266q-6 -108 -6 -250v-799q0 -227 -128 -347t-364 -120q-186 0 -303 77t-144 214l281 33q15 -65 62 -103t112 -38
q205 0 205 288v59l2 115h-2q-93 -199 -328 -199q-179 0 -278 140t-99 400t103 404t295 143q218 0 307 -191h5z" />
    <glyph glyph-name="uni0262" unicode="&#x262;" 
d="M624 891q-237 1 -237 -353t261 -354q53 0 87 7t95 37v129h-182v209h451v-454q-95 -56 -195 -94t-268 -38q-261 0 -402.5 145t-141.5 411t139.5 416t388.5 150q381 0 468 -336l-278 -39q-12 83 -55 123.5t-131 40.5z" />
    <glyph glyph-name="uni0263" unicode="&#x263;" 
d="M530 -138q0 -102 86.5 -102t86.5 106t-87 259q-86 -161 -86 -263zM287 -140q0 129 147 395l-381 827h297l260 -615l271 615h294l-385 -811l67 -121q98 -177 98 -278q0 -146 -86.5 -225t-244.5 -79t-247.5 81.5t-89.5 210.5z" />
    <glyph glyph-name="uni0264" unicode="&#x264;" 
d="M618 -20q-310 0 -310 248q0 60 25 130.5t125 247.5l-84 171q-42 88 -126 88t-170 -71l-71 198q125 110 271 110q185 0 268 -160l73 -136l71 136q83 160 268 160q146 0 271 -110l-71 -198q-86 71 -170 71t-126 -88l-84 -171q113 -199 131.5 -266t18.5 -112
q0 -248 -310 -248zM535 275q0 -103 83 -103q37 0 60 24t23 62q0 76 -83 207q-83 -135 -83 -190z" />
    <glyph glyph-name="uni0265" unicode="&#x265;" 
d="M461 -20q-336 0 -336 416v686h280v-621q0 -151 40.5 -210.5t137.5 -59.5t159.5 87.5t62.5 224.5v579h281v-1484h-281v405q0 109 8 213h-4q-57 -124 -143 -180t-205 -56z" />
    <glyph glyph-name="uni0266" unicode="&#x266;" 
d="M553 1277q-129 0 -129 -125v-73q0 -109 -8 -213h4q57 124 143 180t205 56q336 0 336 -416v-686h-280v621q0 151 -40.5 210.5t-137.5 59.5t-159.5 -87.5t-62.5 -224.5v-579h-281v1204q0 137 89 213t243 76q108 0 193 -17v-211q-43 12 -115 12z" />
    <glyph glyph-name="uni0267" unicode="&#x267;" 
d="M553 1277q-129 0 -129 -125v-73q0 -109 -8 -213h4q57 124 143 180t205 56q336 0 336 -416v-765q0 -174 -78 -260t-243 -86q-113 0 -192 17v211q58 -12 105 -12q128 0 128 124v706q0 151 -40.5 210.5t-137.5 59.5t-159.5 -87.5t-62.5 -224.5v-579h-281v1204q0 137 89 213
t243 76q108 0 193 -17v-211q-43 12 -115 12z" />
    <glyph glyph-name="uni0268" unicode="&#x268;" 
d="M513 1277v207h281v-207h-281zM794 658h222v-203h-222v-265h353v-190h-1029v190h395v265h-222v203h222v234h-290v190h571v-424z" />
    <glyph glyph-name="uni0269" unicode="&#x269;" 
d="M403 369v523h-284v190h564v-699q0 -77 17 -124t101 -47q85 0 185 23v-216q-103 -39 -224 -39t-202.5 41.5t-119 123t-37.5 224.5z" />
    <glyph glyph-name="uni026A" unicode="&#x26a;" 
d="M157 1082h916v-228h-316v-626h316v-228h-916v228h316v626h-316v228z" />
    <glyph glyph-name="uni026B" unicode="&#x26b;" 
d="M867 882h127q0 -150 -47.5 -209t-152.5 -64v-419h353v-190h-1029v190h395v541q-42 -2 -56 -24.5t-14 -77.5h-129q0 144 49 205t150 67v393h-290v190h571v-705q39 2 56 24t17 79z" />
    <glyph glyph-name="uni026C" unicode="&#x26c;" 
d="M513 664v164h-18q-96 0 -96 -82t96 -82h18zM794 664h119v-177h-119v-297h353v-190h-1029v190h395v298h-18q-120 0 -194.5 73t-74.5 186t73.5 186t190.5 73h23v288h-290v190h571v-820z" />
    <glyph glyph-name="uni026D" unicode="&#x26d;" 
d="M513 -77v1371h-290v190h571v-1568q0 -125 129 -125q47 0 105 12v-211q-92 -17 -192 -17q-165 0 -244 85.5t-79 262.5z" />
    <glyph glyph-name="uni026E" unicode="&#x26e;" 
d="M130 0v1484h281v-402h712v-195l-297 -366q169 -29 263 -145.5t94 -298.5q0 -233 -147.5 -368t-393.5 -135q-177 0 -302 68t-179 197l257 60q77 -139 219 -139t201 73t59 224t-77.5 218t-254.5 67h-25v189l279 348h-408v-879h-281z" />
    <glyph glyph-name="uni026F" unicode="&#x26f;" 
d="M728 1082v-658q0 -149 19 -207t69 -58t79.5 94t29.5 247v582h229v-851q0 -189 6 -231h-209l-5 127l-1 48h-2q-34 -102 -86 -148.5t-135 -46.5t-126.5 48t-62.5 148h-2q-40 -106 -95.5 -151t-140.5 -45q-118 0 -169 86t-51 295v721h228v-658q0 -149 18.5 -207t68.5 -58
t80 80.5t30 241.5v601h228z" />
    <glyph glyph-name="uni0270" unicode="&#x270;" 
d="M728 1082v-658q0 -149 19 -207t69 -58t79.5 94t29.5 247v582h229v-1507h-209v600h-2q-34 -102 -86 -148.5t-135 -46.5t-126.5 48t-62.5 148h-2q-40 -106 -95.5 -151t-140.5 -45q-118 0 -169 86t-51 295v721h228v-658q0 -149 18.5 -207t68.5 -58t80 80.5t30 241.5v601h228
z" />
    <glyph glyph-name="uni0271" unicode="&#x271;" 
d="M1154 -96q0 -329 -258 -329q-125 0 -204 17v191q58 -12 105 -12q129 0 129 125v762q0 147 -19 206t-69 59t-79.5 -80.5t-29.5 -241.5v-601h-228v658q0 147 -18.5 206t-68.5 59t-80 -94t-30 -247v-582h-229v851q0 189 -6 231h209l6 -127v-48h2q34 102 87 148.5t135 46.5
t125.5 -48t62.5 -148h2q40 106 95.5 151t140.5 45q118 0 169 -86t51 -295v-817z" />
    <glyph glyph-name="uni0272" unicode="&#x272;" 
d="M101 -425q-113 0 -192 17v211q58 -12 105 -12q129 0 129 125v924q0 138 -8 242h268q3 -19 8 -101.5t5 -113.5h4q57 124 143 180t205 56q336 0 336 -416v-687h-280v619q0 141 -38.5 207t-137.5 66t-161.5 -88.5t-62.5 -223.5v-665q0 -173 -80 -256.5t-243 -83.5z" />
    <glyph glyph-name="uni0273" unicode="&#x273;" 
d="M824 -77v696q0 141 -38.5 207t-137.5 66t-161.5 -88.5t-62.5 -223.5v-580h-281v840q0 138 -8 242h268q3 -19 8 -101.5t5 -113.5h4q57 124 143 180t205 56q336 0 336 -416v-771q0 -125 129 -125q47 0 105 12v-211q-92 -17 -192 -17q-166 0 -244 86t-78 262z" />
    <glyph glyph-name="uni0274" unicode="&#x274;" 
d="M1094 0h-270l-448 759q10 -104 10 -206v-553h-250v1082h296l422 -747q-10 135 -10 217v530h250v-1082z" />
    <glyph glyph-name="uni0275" unicode="&#x275;" 
d="M392 434q27 -262 215 -262q106 0 161.5 62t69.5 200h-446zM618 909q-107 0 -162 -66.5t-66 -210.5h450q-11 145 -63 211t-159 66zM1137 542q0 -269 -136.5 -415.5t-386.5 -146.5t-386 147t-136 415t135 414t389 146q521 0 521 -560z" />
    <glyph glyph-name="uni0276" unicode="&#x276;" 
d="M441 172q174 0 174 368t-166 369q-78 0 -112 -84t-34 -278t33 -284.5t105 -90.5zM415 -20q-175 0 -270 147t-95 415t94.5 414t274.5 146q111 0 195 -67v47h575v-203h-343v-223h303v-203h-303v-248h343v-205h-575v53q-86 -73 -199 -73z" />
    <glyph glyph-name="uni0277" unicode="&#x277;" 
d="M612 1102q268 0 411.5 -156t143.5 -465t-112.5 -405t-209.5 -96t-151.5 61.5t-77.5 176.5h-3q-23 -115 -78 -176.5t-151 -61.5t-169 64t-113 184t-40 276q0 290 141 444t409 154zM618 906q-130 0 -210.5 -111t-80.5 -279t22 -256t60 -88t65 83t27 215v157h228v-157
q0 -130 25.5 -214t67.5 -84q36 0 58.5 94t22.5 260t-77.5 273t-207.5 107z" />
    <glyph glyph-name="uni0278" unicode="&#x278;" 
d="M357 541q0 -294 150 -367v732q-150 -71 -150 -365zM873 544q0 301 -153 366v-736q153 69 153 370zM1137 542q0 -238 -107.5 -381t-309.5 -173v-413h-213v412q-198 28 -306.5 172.5t-108.5 382.5t106.5 380t308.5 172v390h213v-389q417 -54 417 -553z" />
    <glyph glyph-name="uni0279" unicode="&#x279;" 
d="M979 381q0 -175 52 -381h-271q-36 130 -46 228h-4q-50 -136 -135 -192t-205 -56t-222 17v237q112 -19 212 -19q156 0 247.5 118t91.5 311v438h280v-701z" />
    <glyph glyph-name="uni027A" unicode="&#x27a;" 
d="M979 381q0 -175 52 -381h-271q-36 130 -46 228h-4q-50 -136 -135 -192t-205 -56t-222 17v237q112 -19 212 -19q156 0 247.5 118t91.5 311v840h280v-1103z" />
    <glyph glyph-name="uni027B" unicode="&#x27b;" 
d="M714 -79v307h-4q-50 -136 -135 -192t-205 -56t-222 17v237q112 -19 212 -19q156 0 247.5 118t91.5 311v438h280v-1169q0 -122 129 -122q47 0 105 12v-211q-92 -17 -192 -17q-161 0 -234 83t-73 263z" />
    <glyph glyph-name="uni027C" unicode="&#x27c;" 
d="M250 701q0 175 -52 381h271q36 -130 46 -228h4q50 136 135 192t205 56t222 -17v-237q-112 19 -212 19q-156 0 -247.5 -118t-91.5 -311v-863h-280v1126z" />
    <glyph glyph-name="uni027D" unicode="&#x27d;" 
d="M250 701q0 175 -52 381h271q36 -130 46 -228h4q50 136 135 192t205 56t222 -17v-237q-112 19 -212 19q-156 0 -247.5 -118t-91.5 -311v-522q0 -125 129 -125q47 0 105 12v-211q-92 -17 -192 -17q-166 0 -244 86t-78 262v778z" />
    <glyph glyph-name="uni027E" unicode="&#x27e;" 
d="M855 868q-326 0 -326 -313v-555h-281v554q0 274 142 411t443 137q154 0 249 -25l-1 -232q-85 23 -226 23z" />
    <glyph glyph-name="uni027F" unicode="&#x27f;" 
d="M396 1102q301 0 443 -137t142 -411v-979h-281v980q0 313 -326 313q-141 0 -226 -23l-1 232q95 25 249 25z" />
    <glyph glyph-name="uni0280" unicode="&#x280;" 
d="M418 607h208q189 0 189 150t-205 150h-192v-300zM1099 768q0 -240 -230 -297l322 -471h-310l-272 435h-189v-435h-282v1082h487q474 0 474 -314z" />
    <glyph glyph-name="uni0281" unicode="&#x281;" 
d="M811 475h-208q-189 0 -189 -150t205 -150h192v300zM130 314q0 240 230 297l-322 471h310l272 -435h189v435h282v-1082h-487q-474 0 -474 314z" />
    <glyph glyph-name="uni0282" unicode="&#x282;" 
d="M624 916q-201 0 -201 -105q0 -54 38.5 -81.5t128.5 -45.5q258 -54 386.5 -118t128.5 -250q0 -157 -128.5 -246.5t-355.5 -89.5q-149 0 -246 46v-116q0 -125 129 -125q47 0 105 12v-205q-87 -17 -166 -17q-166 0 -243.5 86.5t-77.5 261.5v347l247 37q21 -77 73 -109
t174 -32q232 0 231 118q0 58 -43.5 88.5t-147.5 51.5q-228 45 -359.5 106t-131.5 245q0 155 119.5 241.5t325.5 86.5q410 0 470 -292l-249 -26q-12 66 -59 98.5t-148 32.5z" />
    <glyph glyph-name="uni0283" unicode="&#x283;" 
d="M375 -425q-95 0 -155 21v213q55 -21 124 -21t99.5 40t30.5 157v1126q0 200 94 290.5t288 90.5q89 0 155 -19v-215q-42 21 -116 21t-107 -44t-33 -151v-1128q0 -199 -93 -290t-287 -91z" />
    <glyph glyph-name="uni0284" unicode="&#x284;" 
d="M375 -425q-95 0 -155 21v213q55 -21 124 -21t99.5 40t30.5 157v15h-211v190h211v921q0 200 94 290.5t288 90.5q89 0 155 -19v-215q-42 21 -116 21t-107 -44t-33 -151v-894h155v-190h-155v-44q0 -199 -93 -290t-287 -91z" />
    <glyph glyph-name="uni0285" unicode="&#x285;" 
d="M858 -425q-193 0 -286.5 90.5t-93.5 290.5v737q0 107 -33.5 151t-104.5 44t-113 -21v215q67 19 150 19q193 0 287.5 -90t94.5 -291v-735q0 -87 19 -142t97 -55t133 21v-213q-65 -21 -150 -21z" />
    <glyph glyph-name="uni0286" unicode="&#x286;" 
d="M274 -121q0 -52 38 -80t105 -28t129 35t79 87q-36 45 -95.5 70t-120.5 25t-98 -28.5t-37 -80.5zM38 -116q0 142 94 225t250 83t271 -81v1000q0 200 94 290.5t288 90.5q89 0 155 -19v-215q-42 21 -116 21t-107 -44t-33 -151v-951q0 -120 -28 -201q124 -129 173 -200
l-168 -151l-112 134q-178 -140 -367 -140q-188 0 -291 83.5t-103 225.5z" />
    <glyph glyph-name="uni0287" unicode="&#x287;" 
d="M518 1377q127 0 213 -34.5t128 -109.5t42 -205v-556h167v-190h-181l-88 -282h-176v282h-385v190h385v530q0 88 -26 136t-149 48t-254 -27v186q197 32 324 32z" />
    <glyph glyph-name="uni0288" unicode="&#x288;" 
d="M705 -424q-133 0 -216.5 39t-123 110t-39.5 200l2 967h-167v190h181l88 282h176v-282h385v-190h-385v-941q0 -88 25 -136t149 -48t255 27v-186q-197 -32 -330 -32z" />
    <glyph glyph-name="uni0289" unicode="&#x289;" 
d="M591 190q86 0 144 86.5t60 219.5h-379v-21q0 -138 44.5 -211.5t130.5 -73.5zM471 -20q-164 0 -250 104.5t-86 310.5v101h-107v177h107v409h281v-409h379v409h281v-409h120v-177h-120v-254q0 -125 8 -242h-268q-8 53 -12 215h-5q-107 -235 -328 -235z" />
    <glyph glyph-name="uni028A" unicode="&#x28a;" 
d="M1156 879h-97q-66 0 -66 -47q0 -21 23 -59.5t74 -132.5t51 -219t-66.5 -228.5t-187.5 -158t-276 -54.5t-273.5 54t-183.5 156t-65 246q0 92 29.5 159t74.5 139t45 98q0 47 -66 47h-98v203h202q92 0 149.5 -53t57.5 -146q0 -47 -17.5 -95t-56 -142.5t-38.5 -205.5
q0 -112 66.5 -190t178.5 -78t177.5 76.5t65.5 186.5t-38 207t-55.5 146t-17.5 95q0 89 57 144t150 55h201v-203z" />
    <glyph glyph-name="uni028B" unicode="&#x28b;" 
d="M775 1102q163 0 247 -104t84 -335q0 -331 -132.5 -507t-375.5 -176t-353 109t-110 344v649h281v-622q0 -146 47 -209.5t146 -63.5q225 0 225 455q0 134 -34 190.5t-99 56.5t-119 -12v208q90 17 193 17z" />
    <glyph glyph-name="uni028C" unicode="&#x28c;" 
d="M1193 0h-294l-217 625q-49 147 -74 247l-71 -250l-209 -622h-297l407 1082h336z" />
    <glyph glyph-name="uni028D" unicode="&#x28d;" 
d="M614 509q2 19 170 573h244l190 -1082h-226l-91 607q-21 153 -21 226l-29 -113l-140 -455h-193l-157 495l-20 73q0 -60 -8 -131.5t-94 -701.5h-228l183 1082h243l148 -467q26 -81 29 -106z" />
    <glyph glyph-name="uni028E" unicode="&#x28e;" 
d="M884 1507q126 0 202 -13v-200q-80 8 -121 8t-80.5 -19t-70.5 -62.5t-71 -149.5l448 -1071h-297l-190 527q-40 109 -101 334l-90 -330l-180 -531h-294l448 1139q80 206 175.5 287t221.5 81z" />
    <glyph glyph-name="uni028F" unicode="&#x28f;" 
d="M475 0v440l-422 642h297l265 -428l266 428h294l-419 -642v-440h-281z" />
    <glyph glyph-name="uni0290" unicode="&#x290;" 
d="M1077 -90q0 -125 129 -125q47 0 105 12v-205q-87 -17 -166 -17q-166 0 -243.5 86.5t-77.5 261.5v77h-686v199l570 680h-529v203h849v-201l-567 -676h616v-295z" />
    <glyph glyph-name="uni0291" unicode="&#x291;" 
d="M998 286q0 38 -19 56t-46 18t-56 -27.5t-101 -127.5h112q51 0 80.5 21.5t29.5 59.5zM68 0v199l490 680h-449v203h729v-201l-487 -676h175q133 206 221.5 280t206.5 74t188 -70t70 -203t-90.5 -209.5t-264.5 -76.5h-221q-49 -86 -104 -203l-187 107q8 19 53 96h-330z" />
    <glyph glyph-name="uni0292" unicode="&#x292;" 
d="M595 -232q130 0 183.5 68.5t53.5 219.5t-82 219t-263 68h-102v189l339 347h-568v203h902v-195l-363 -365q197 -19 310 -136.5t113 -307.5q0 -237 -139.5 -370t-365.5 -133t-357.5 101t-155.5 280l277 13q11 -91 70.5 -146t147.5 -55z" />
    <glyph glyph-name="uni0293" unicode="&#x293;" 
d="M502 -18q-141 0 -141 -103q0 -48 55.5 -81t137.5 -33q150 0 227 84q-138 133 -279 133zM497 343h-112v189l339 347h-568v203h902v-195l-363 -365q197 -19 310 -136.5t113 -307.5q0 -105 -56 -211q56 -70 105 -144l-196 -136q-25 47 -62 104q-150 -116 -346 -116
q-278 0 -360.5 113t-82.5 204q0 144 99.5 220.5t276.5 76.5t357 -128q0 282 -356 282z" />
    <glyph glyph-name="uni0294" unicode="&#x294;" 
d="M848 867q0 271 -244 271q-87 0 -151 -56t-76 -140l-271 67q30 163 166 262t333 99q248 0 390 -139.5t142 -389.5q0 -199 -107.5 -338t-285.5 -169v-334h-283v563q69 -18 139 -18q118 0 183 82.5t65 239.5z" />
    <glyph glyph-name="uni0295" unicode="&#x295;" 
d="M649 545q73 0 139 18v-563h-283v334q-177 30 -285 169.5t-108 337.5q0 249 141.5 389t390.5 140q196 0 332.5 -99t166.5 -262l-271 -67q-12 83 -76.5 139.5t-150.5 56.5q-244 0 -244 -271q0 -157 65 -239.5t183 -82.5z" />
    <glyph glyph-name="uni0296" unicode="&#x296;" 
d="M586 805q-73 0 -139 -18v562h283v-333q177 -30 285 -169t108 -338q0 -249 -141.5 -389t-390.5 -140q-196 0 -332.5 99t-166.5 262l271 67q12 -83 76.5 -139.5t150.5 -56.5q244 0 244 271q0 157 -65 239.5t-183 82.5z" />
    <glyph glyph-name="uni0297" unicode="&#x297;" 
d="M818 727q-26 182 -208 182q-214 0 -214 -333v-465q0 -173 55.5 -258.5t174.5 -85.5q80 0 134 50.5t67 150.5l282 -13q-15 -111 -114 -245.5t-358 -134.5t-391 146.5t-132 408.5v405q0 272 135 419.5t379 147.5q191 0 316 -96t157 -265z" />
    <glyph glyph-name="uni0298" unicode="&#x298;" 
d="M614 211q244 0 244 463t-244 463t-243 -463q-1 -463 243 -463zM1157 678q0 -345 -140 -522t-402 -177q-263 0 -403 177t-140 522t140 518t403 173q262 0 402 -173t140 -518zM470 538v305h289v-305h-289z" />
    <glyph glyph-name="uni0299" unicode="&#x299;" 
d="M418 180h221q117 0 168.5 35t51.5 107t-47.5 105t-172.5 33h-221v-280zM418 641h210q88 0 148 19.5t60 106.5t-57 106t-151 19h-210v-251zM1149 299q0 -138 -106.5 -218.5t-280.5 -80.5h-619v1082h572q189 0 293 -69t104 -208q0 -95 -49 -156t-132 -87q218 -57 218 -263z
" />
    <glyph glyph-name="uni029A" unicode="&#x29a;" 
d="M589 1102q260 0 403 -149t143 -411t-144.5 -412t-395.5 -150q-291 0 -378 118t-87 220t68.5 168t192.5 79q-228 53 -228 256q0 123 120.5 202t305.5 79zM585 923q-154 -1 -154 -137q0 -70 47 -104t166 -34v-182q-133 0 -179 -36t-46 -110t46.5 -113t126.5 -39
q122 0 190 99t68 283t-70 278.5t-195 94.5z" />
    <glyph glyph-name="uni029B" unicode="&#x29b;" 
d="M80 536q0 263 148 414.5t400 151.5q125 0 229 -55q15 281 307 281q75 0 152 -17v-201q-58 12 -102 12t-71 -34.5t-27 -106.5v-215l-278 -39q-24 164 -206 164q-125 0 -191 -88.5t-66 -260.5t71.5 -265t199.5 -93t212 44v129h-202v209h471v-454q-224 -132 -485 -132
q-262 0 -412 146.5t-150 409.5z" />
    <glyph glyph-name="uni029C" unicode="&#x29c;" 
d="M416 1082v-428h399v428h280v-1082h-280v463h-399v-463h-282v1082h282z" />
    <glyph glyph-name="uni029D" unicode="&#x29d;" 
d="M456 -227q70 0 98.5 42.5t28.5 126.5v58h-114q-143 0 -143 -116q0 -48 30 -79.5t100 -31.5zM583 1277v207h281v-207h-281zM864 205h156v-205h-156v-18q0 -198 -103 -302.5t-283 -104.5t-277.5 87.5t-97.5 233.5t96 227.5t281 81.5h102v687h-354v190h636v-877z" />
    <glyph glyph-name="uni029E" unicode="&#x29e;" 
d="M775 1082h281v-1484h-281v850l-386 -448h-302l380 422l-409 660h307l289 -490l121 84v406z" />
    <glyph glyph-name="uni029F" unicode="&#x29f;" 
d="M1033 0h-817v1082h281v-877h536v-205z" />
    <glyph glyph-name="uni02A0" unicode="&#x2a0;" 
d="M390 543q0 -372 203 -372q98 0 154.5 96.5t56.5 242.5t-26.5 229t-75 127.5t-111.5 44.5q-96 0 -148.5 -92t-52.5 -276zM1081 -425h-281v418l2 178h-2q-41 -91 -123.5 -141t-193.5 -50q-186 0 -286 147t-100 409t106 414.5t289 152.5q208 0 306 -197h4v301
q0 135 85.5 210.5t241.5 75.5q75 0 152 -17v-201q-59 12 -99 12t-70 -29t-31 -107v-1576z" />
    <glyph glyph-name="uni02A1" unicode="&#x2a1;" 
d="M848 867q0 271 -244 271q-87 0 -151 -56t-76 -140l-271 67q30 163 166 262t333 99q248 0 390 -139.5t142 -389.5q0 -199 -107.5 -338t-285.5 -169v-44h334v-186h-334v-104h-283v104h-335v186h335v273q69 -18 139 -18q118 0 183 82.5t65 239.5z" />
    <glyph glyph-name="uni02A2" unicode="&#x2a2;" 
d="M649 545q73 0 139 18v-273h335v-186h-335v-104h-283v104h-334v186h334v44q-177 30 -285 169.5t-108 337.5q0 249 141.5 389t390.5 140q196 0 332.5 -99t166.5 -262l-271 -67q-12 83 -76.5 139.5t-150.5 56.5q-244 0 -244 -271q0 -157 65 -239.5t183 -82.5z" />
    <glyph glyph-name="uni02A3" unicode="&#x2a3;" 
d="M655 879v-601l294 601h-294zM462 547q0 364 -105 364q-105 1 -105 -369t102 -370q51 0 79.5 96t28.5 279zM290 -20q-116 0 -177.5 148t-61.5 416t66.5 413t174.5 145t167 -93v475h196v-402h502v-197l-336 -680h363v-205h-715l-6 84q-57 -104 -173 -104z" />
    <glyph glyph-name="uni02A4" unicode="&#x2a4;" 
d="M494 547q0 364 -118 364q-118 1 -117 -369q0 -370 115 -370q57 0 88.5 97t31.5 278zM831 -240q69 0 100 74t31 222t-41.5 217t-139.5 69h-36v185l172 352h-215v-643q0 -120 4 -192l1 -23v-21h-205l-7 89q-61 -109 -189 -109t-196 148t-68 414t71 413t194 147t186 -101
l-1 44v439h210v-402h436v-191l-181 -370h-13q110 -32 170.5 -148.5t60.5 -322.5t-95 -341t-253 -135q-116 0 -197 67.5t-113 195.5l191 70q49 -147 123 -147z" />
    <glyph glyph-name="uni02A5" unicode="&#x2a5;" 
d="M1052 304q0 56 -19 56t-37 -40.5t-44 -114.5h18q50 0 66 21.5t16 77.5zM572 879v-587l237 587h-237zM402 547q0 364 -86 364q-86 1 -86 -369t83 -370q43 0 66 101t23 274zM1192 292q0 -292 -237 -292h-63l-55 -215l-149 42l50 173h-329l-5 72q-52 -92 -148 -92t-150 146
t-54 412t55.5 415t159.5 149q84 0 134 -83v465h171v-402h422v-199l-277 -678h80q108 354 243 354q71 0 111.5 -74t40.5 -193z" />
    <glyph glyph-name="uni02A6" unicode="&#x2a6;" 
d="M846 205q76 0 103.5 23.5t27.5 67.5t-16 67.5t-47.5 41t-153.5 53.5t-199 95t-77 222q0 63 15 117h-131v-544q0 -79 19.5 -111t60.5 -32h398zM791.5 916q-100.5 0 -100.5 -98q0 -46 10.5 -66t31 -33t143.5 -49t215 -100.5t92 -253.5q0 -316 -343 -316h-496
q-94 0 -145 67.5t-51 204.5v620h-99v190h109l64 254h146v-254h316q68 21 141 21q146 0 232.5 -75.5t107.5 -215.5l-200 -28q-8 66 -40.5 99t-133 33z" />
    <glyph glyph-name="uni02A7" unicode="&#x2a7;" 
d="M500 350q0 -154 123 -154q36 0 70 8v688h-193v-542zM594 -425q-95 0 -155 21v213q55 -21 124 -21t99.5 40t30.5 157v23q-97 -26 -217 -26t-187 67.5t-67 204.5v638h-137v190h151l88 254h176v-254h193v29q0 200 94 290.5t288 90.5q88 0 155 -19v-215q-42 21 -116 21
t-107 -44t-33 -151v-1128q0 -199 -93 -290t-287 -91z" />
    <glyph glyph-name="uni02A8" unicode="&#x2a8;" 
d="M700 546v-44q106 89 224 89t187 -72t69 -215t-89 -233.5t-237 -90.5t-260 112q-50 -61 -104 -86.5t-144 -25.5t-151.5 75t-61.5 199v638h-93v190h103l60 254h161v-254h141v-190h-141v-552q0 -131 42 -131q34 0 82 91h-1q-30 94 -30 235q0 271 98.5 419t276.5 148
q142 0 233 -98.5t110 -261.5l-235 -16q-17 183 -113 183q-127 0 -127 -363zM864 172q106 0 106 106t-90 107q-55 0 -139 -118h1q45 -95 122 -95z" />
    <glyph glyph-name="uni02A9" unicode="&#x2a9;" 
d="M895 1103q258 0 258 -416v-764q0 -177 -56 -262.5t-173 -85.5q-78 0 -144 21v216q61 -21 88 -21q63 0 63 125v691q0 285 -105 285q-59 0 -93.5 -89t-34.5 -223v-580h-223v892h-88v-892h-222v892h-103v190h103v113q0 289 224 289q61 0 136 -20v-186q-52 18 -82 18
q-56 0 -56 -129v-85h297q4 -28 8 -123q72 144 203 144z" />
    <glyph glyph-name="uni02AA" unicode="&#x2aa;" 
d="M86 0v1484h249v-1189q75 -61 180 -95t215 -34t159 27.5t49 96.5t-56 98.5t-174 64.5t-207.5 97.5t-89.5 219.5t100.5 245t263.5 88q325 0 388 -292l-223 -26q-16 70 -49 100.5t-106 30.5q-136 0 -136 -111q0 -47 27 -73t109 -52t155.5 -52.5t156 -86.5t82.5 -223
t-114 -250.5t-336 -87.5t-394 99v-79h-249z" />
    <glyph glyph-name="uni02AB" unicode="&#x2ab;" 
d="M364 879v-682l483 682h-483zM135 0v1484h229v-402h736v-201l-488 -676h528v-205h-1005z" />
    <glyph glyph-name="uni02AC" unicode="&#x2ac;" 
d="M960 0h-199l-115 387q-11 38 -31 148l-11 -54l-24 -96l-116 -385h-199l-177 694h177l109 -503l17 91l122 412h202l111 -376l18 -80l9 -47l113 503h174zM960 790h-199l-115 387q-19 63 -31 148l-11 -54l-24 -96l-116 -385h-199l-177 694h177l109 -503l9 49q5 27 8.5 43
t121.5 411h202l111 -376l18 -80l9 -47l113 503h174z" />
    <glyph glyph-name="uni02AD" unicode="&#x2ad;" 
d="M1055 0h-238v265h-406v-265h-238v487h882v-487zM1055 997h-238v265h-406v-265h-238v487h882v-487z" />
    <glyph glyph-name="uni02AE" unicode="&#x2ae;" 
d="M583 477q0 -285 146 -285q82 0 129.5 85.5t47.5 226.5v578h262v-1507h-262v405q0 105 4 173q-45 -93 -110.5 -132.5t-169.5 -39.5q-307 0 -307 416v325q0 154 -140 154q-50 0 -114 -16l-32 -8v212q114 29 202 29q169 0 256.5 -108.5t87.5 -321.5v-186z" />
    <glyph glyph-name="uni02AF" unicode="&#x2af;" 
d="M1060 -425q-150 0 -231.5 109t-81.5 318v108q-41 -74 -99 -101.5t-136 -27.5q-135 0 -206 108t-71 308v325q0 154 -106 154q-38 0 -102 -19l-33 -10v215q108 31 181 31q149 0 225.5 -109t76.5 -321v-186q0 -285 119 -285q66 0 105.5 87.5t39.5 224.5v578h242v-1056
q0 -234 119 -234q50 0 126 31v-217q-91 -31 -168 -31z" />
    <glyph glyph-name="uni02B0" unicode="&#x2b0;" 
d="M706 1267q118 1 180 -75t62 -218v-484h-190v427q0 201 -132 201q-70 0 -112 -62t-42 -158v-408h-191v1046h191v-285l-5 -151h2q74 167 237 167z" />
    <glyph glyph-name="uni02B1" unicode="&#x2b1;" 
d="M706 1267q119 0 180.5 -75.5t61.5 -217.5v-484h-190v427q0 201 -132 201q-70 0 -112 -62.5t-42 -157.5v-408h-191v848q0 96 60.5 150.5t148.5 54.5t148 -12v-149q-38 9 -78 9q-88 0 -88 -89v-51l-2 -89l-3 -61h2q74 166 237 166z" />
    <glyph glyph-name="uni02B2" unicode="&#x2b2;" 
d="M586 190q-85 0 -127 6v140l35 -3q50 0 67.5 23.5t17.5 90.5v805h191v-853q0 -100 -49.5 -154.5t-134.5 -54.5zM579 1389v146h191v-146h-191z" />
    <glyph glyph-name="uni02B3" unicode="&#x2b3;" 
d="M405 490v583q0 135 -5 180h182q9 -72 9 -163h3q36 108 74 142t88 35q50 0 73 -10v-166q-40 11 -82 11q-71 0 -111 -60t-40 -178v-374h-191z" />
    <glyph glyph-name="uni02B4" unicode="&#x2b4;" 
d="M473 475q-50 0 -73 10v166q40 -11 82 -11q71 0 111 60t40 178v374h191v-583q0 -135 5 -180h-182q-4 13 -9 163h-3q-37 -108 -74.5 -142.5t-87.5 -34.5z" />
    <glyph glyph-name="uni02B5" unicode="&#x2b5;" 
d="M775 189q-107 0 -157.5 57.5t-50.5 188.5v213h-3q-33 -98 -73 -136t-94 -38t-74 11v165q48 -10 82 -10q71 0 111 60t40 177v375h191v-822q0 -88 87 -88q38 0 72 8v-149q-63 -12 -131 -12z" />
    <glyph glyph-name="uni02B6" unicode="&#x2b6;" 
d="M447 613h130q140 -1 140 105t-129 106h-141v-211zM910 711q0 -117 -84 -169t-238 -52h-332v762h192v-306h129l185 306h211l-219 -332q74 -17 115 -70.5t41 -138.5z" />
    <glyph glyph-name="uni02B7" unicode="&#x2b7;" 
d="M966 490h-202l-117 465q-31 132 -31 156l-25 -110l-129 -511h-202l-191 762h180l121 -583l27 135l115 448h205l113 -448l28 -134l125 582h177z" />
    <glyph glyph-name="uni02B8" unicode="&#x2b8;" 
d="M433 189q-86 0 -136 9v141l66 -5q62 0 96 33t68 130l-291 755h202l115 -358q41 -123 69 -235l61 232l109 361h200l-291 -803q-56 -144 -119 -202t-149 -58z" />
    <glyph glyph-name="uni02B9" unicode="&#x2b9;" 
d="M714 844h-199l-37 641h273z" />
    <glyph glyph-name="uni02BA" unicode="&#x2ba;" 
d="M486 844h-199l-37 641h273zM942 844h-199l-37 641h275z" />
    <glyph glyph-name="uni02BB" unicode="&#x2bb;" 
d="M469 1026q0 234 108 383h183q-131 -165 -131 -317h127v-261h-287v195z" />
    <glyph glyph-name="uni02BC" unicode="&#x2bc;" 
d="M760 1214q0 -234 -108 -383h-183q131 165 131 317h-127v261h287v-195z" />
    <glyph glyph-name="uni02BD" unicode="&#x2bd;" 
d="M469 1214v195h287v-261h-127q0 -154 131 -317h-183q-108 150 -108 383z" />
    <glyph glyph-name="uni02BE" unicode="&#x2be;" 
d="M500 1259q53 0 77.5 22.5t24.5 58.5q0 79 -102 79v118q105 0 167 -51.5t62 -145.5t-61.5 -145.5t-167.5 -51.5v116z" />
    <glyph glyph-name="uni02BF" unicode="&#x2bf;" 
d="M729 1143q-106 0 -167.5 51.5t-61.5 145.5t62.5 145.5t166.5 51.5v-118q-102 0 -102 -79q0 -36 24.5 -58.5t77.5 -22.5v-116z" />
    <glyph glyph-name="uni02C0" unicode="&#x2c0;" 
d="M750 1105q0 185 -137 185q-64 0 -101.5 -36.5t-46.5 -97.5l-178 46q20 114 105.5 179.5t229.5 65.5t231.5 -93t87.5 -249t-66 -249t-181 -113v-253h-186v409q41 -13 91 -13q151 0 151 219z" />
    <glyph glyph-name="uni02C1" unicode="&#x2c1;" 
d="M534 490v253q-114 19 -180.5 112.5t-66.5 249.5t87.5 249t231.5 93t229.5 -65.5t105.5 -179.5l-178 -46q-9 62 -46.5 98t-101.5 36q-137 0 -137 -185q0 -219 151 -219q50 0 91 13v-409h-186z" />
    <glyph glyph-name="uni02C2" unicode="&#x2c2;" 
d="M101 516v322l1027 391v-228l-833 -325l833 -324v-227z" />
    <glyph glyph-name="uni02C3" unicode="&#x2c3;" 
d="M101 125v227l832 324l-832 325v228l1027 -391v-322z" />
    <glyph glyph-name="uni02C4" unicode="&#x2c4;" 
d="M1166 206h-227l-324 832l-325 -832h-228l391 1027h322z" />
    <glyph glyph-name="uni02C5" unicode="&#x2c5;" 
d="M775 206h-322l-391 1027h228l325 -832l324 832h227z" />
    <glyph glyph-name="circumflex" unicode="&#x2c6;" 
d="M983 1183h-159l-203 134h-4l-211 -134h-160v28l258 250h229l250 -250v-28z" />
    <glyph glyph-name="caron" unicode="&#x2c7;" 
d="M246 1461h160l211 -134h4l203 134h159v-29l-250 -249h-229l-258 249v29z" />
    <glyph glyph-name="uni02C8" unicode="&#x2c8;" 
d="M688 1125h-148v359h148v-359z" />
    <glyph glyph-name="uni02C9" unicode="&#x2c9;" 
d="M308 1371h612v-168h-612v168z" />
    <glyph glyph-name="uni02CA" unicode="&#x2ca;" 
d="M399 1202v27l172 255h258v-38l-281 -244h-149z" />
    <glyph glyph-name="uni02CB" unicode="&#x2cb;" 
d="M399 1484h258l172 -255v-27h-149l-281 244v38z" />
    <glyph glyph-name="uni02CC" unicode="&#x2cc;" 
d="M688 -425h-148v359h148v-359z" />
    <glyph glyph-name="uni02CD" unicode="&#x2cd;" 
d="M308 -159h612v-168h-612v168z" />
    <glyph glyph-name="uni02CE" unicode="&#x2ce;" 
d="M399 -122h258l172 -255v-27h-149l-281 244v38z" />
    <glyph glyph-name="uni02CF" unicode="&#x2cf;" 
d="M399 -404v27l172 255h258v-38l-281 -244h-149z" />
    <glyph glyph-name="uni02D0" unicode="&#x2d0;" 
d="M769 0h-310l96 300h118zM769 1082l-96 -300h-118l-96 300h310z" />
    <glyph glyph-name="uni02D1" unicode="&#x2d1;" 
d="M769 1082l-96 -300h-118l-96 300h310z" />
    <glyph glyph-name="uni02D2" unicode="&#x2d2;" 
d="M500 215q53 0 77.5 22.5t24.5 58.5q0 79 -102 79v118q105 0 167 -51.5t62 -145.5t-61.5 -145.5t-167.5 -51.5v116z" />
    <glyph glyph-name="uni02D3" unicode="&#x2d3;" 
d="M729 99q-106 0 -167.5 51.5t-61.5 145.5t62.5 145.5t166.5 51.5v-118q-102 0 -102 -79q0 -36 24.5 -58.5t77.5 -22.5v-116z" />
    <glyph glyph-name="uni02D4" unicode="&#x2d4;" 
d="M797 174h-365v124h121v224h124v-224h120v-124z" />
    <glyph glyph-name="uni02D5" unicode="&#x2d5;" 
d="M797 398h-120v-224h-124v224h-121v124h365v-124z" />
    <glyph glyph-name="uni02D6" unicode="&#x2d6;" 
d="M797 278h-120v-104h-124v104h-121v124h121v120h124v-120h120v-124z" />
    <glyph glyph-name="uni02D7" unicode="&#x2d7;" 
d="M292 250v224h644v-224h-644z" />
    <glyph glyph-name="breve" unicode="&#x2d8;" 
d="M612 1183q-161 0 -251 72.5t-101 205.5h163q15 -121 191 -121q88 0 132 29t58 92h164q-34 -278 -356 -278z" />
    <glyph glyph-name="dotaccent" unicode="&#x2d9;" 
d="M474 1267v207h281v-207h-281z" />
    <glyph glyph-name="ring" unicode="&#x2da;" 
d="M717 1348q0 32 -28.5 51.5t-74.5 19.5t-75 -19t-29 -52t29 -52t75 -19t74.5 19.5t28.5 51.5zM856 1348q0 -88 -65 -144t-177 -56t-177 56.5t-65 144.5t66.5 143t176.5 55t175.5 -55.5t65.5 -143.5z" />
    <glyph glyph-name="ogonek" unicode="&#x2db;" 
d="M602 -184q0 -98 98 -98q50 0 108 27v-137q-62 -33 -162 -33t-163 53.5t-63 137.5t43.5 151t114.5 104h153q-63 -42 -96 -99.5t-33 -105.5z" />
    <glyph glyph-name="tilde" unicode="&#x2dc;" 
d="M793 1183q-56 0 -100.5 17.5t-86.5 39t-79 39t-75 17.5t-60 -23.5t-31 -89.5h-137q12 156 67.5 219.5t157.5 63.5q67 0 143 -39t112.5 -56.5t74.5 -17.5q75 0 90 113h135q-8 -111 -34 -168t-73.5 -86t-103.5 -29z" />
    <glyph glyph-name="hungarumlaut" unicode="&#x2dd;" 
d="M406 1182v34l225 245h235v-43l-318 -236h-142zM0 1182v34l225 245h235v-43l-318 -236h-142z" />
    <glyph glyph-name="uni02DE" unicode="&#x2de;" 
d="M728 553q64 0 146 43l69 -180q-124 -56 -250 -56t-191.5 49t-90.5 146l-9 35l-75 -16l-41 196l279 55l28 -137q16 -77 43.5 -106t91.5 -29z" />
    <glyph glyph-name="uni02DF" unicode="&#x2df;" 
d="M276 927l235 243l-233 239l105 107l232 -238l232 239l105 -108l-233 -240l233 -238l-105 -109l-232 241l-235 -244z" />
    <glyph glyph-name="uni02E0" unicode="&#x2e0;" 
d="M557 390q0 -70 59 -70t59 74t-60 183q-58 -117 -58 -187zM846 384q0 -88 -58 -144t-166 -56t-169 57t-61 148t100 280l-259 583h201l177 -434l185 434h199l-261 -572q112 -208 112 -296z" />
    <glyph glyph-name="uni02E1" unicode="&#x2e1;" 
d="M519 491v1046h191v-1046h-191z" />
    <glyph glyph-name="uni02E2" unicode="&#x2e2;" 
d="M587 1134.5q-102 -0.5 -102 -70.5q0 -34 14 -49.5t39.5 -25.5t60 -18t110.5 -25q240 -54 240 -226q0 -121 -88.5 -183t-240.5 -62t-233 49t-107 155l168 26q14 -54 50 -76.5t122 -22.5q153 0 153 87q0 37 -30.5 58.5t-142.5 44.5t-201 65.5t-89 162.5q0 242 311 242
q133 0 212 -53.5t99 -152.5l-170 -18q-9 48 -41 70.5t-134 22z" />
    <glyph glyph-name="uni02E3" unicode="&#x2e3;" 
d="M785 490l-171 276l-173 -276h-203l269 394l-256 368h206l157 -249l156 249h207l-256 -366l271 -396h-207z" />
    <glyph glyph-name="uni02E4" unicode="&#x2e4;" 
d="M534 490v253q-114 19 -180 113t-67 249q-1 156 87 249t232 93q144 1 230 -65q85 -66 105 -180l-178 -46q-9 62 -47 98t-101 36q-137 0 -137 -185q0 -219 151 -219q50 0 91 13v-409h-186z" />
    <glyph glyph-name="uni02E5" unicode="&#x2e5;" 
d="M856 0h-179v1313h-305v171h484v-1484z" />
    <glyph glyph-name="uni02E6" unicode="&#x2e6;" 
d="M856 0h-179v976h-305v171h305v337h179v-1484z" />
    <glyph glyph-name="uni02E7" unicode="&#x2e7;" 
d="M856 0h-179v646h-305v171h305v667h179v-1484z" />
    <glyph glyph-name="uni02E8" unicode="&#x2e8;" 
d="M856 0h-179v321h-305v171h305v992h179v-1484z" />
    <glyph glyph-name="uni02E9" unicode="&#x2e9;" 
d="M856 0h-484v171h305v1313h179v-1484z" />
    <glyph glyph-name="uni02EA" unicode="&#x2ea;" 
d="M858 0h-487v880h117v-766h370v-114z" />
    <glyph glyph-name="uni02EB" unicode="&#x2eb;" 
d="M858 383h-370v-383h-117v880h117v-383h370v-114z" />
    <glyph glyph-name="uni02EC" unicode="&#x2ec;" 
d="M246 -249h160l211 -134h4l203 134h159v-29l-250 -249h-229l-258 249v29z" />
    <glyph glyph-name="uni02ED" unicode="&#x2ed;" 
d="M920 1194h-612v138h612v-138zM920 1426h-612v138h612v-138z" />
    <glyph glyph-name="uni02EE" unicode="&#x2ee;" 
d="M524 1217q0 -125 -25 -214.5t-84 -171.5h-182q131 168 131 318h-127v260h287v-192zM995 1217q0 -118 -24.5 -209t-84.5 -177h-184q133 168 133 318h-127v260h287v-192z" />
    <glyph glyph-name="uni02EF" unicode="&#x2ef;" 
d="M312 -357l-177 289h127l79 -158l79 158h127l-177 -289h-58z" />
    <glyph glyph-name="uni02F0" unicode="&#x2f0;" 
d="M370 -68l177 -289h-127l-79 158l-79 -158h-127l177 289h58z" />
    <glyph glyph-name="uni02F1" unicode="&#x2f1;" 
d="M197 -190l289 177v-127l-158 -79l158 -79v-127l-289 177v58z" />
    <glyph glyph-name="uni02F2" unicode="&#x2f2;" 
d="M486 -248l-289 -177v127l158 79l-158 79v127l289 -177v-58z" />
    <glyph glyph-name="uni02F3" unicode="&#x2f3;" 
d="M434 -234q0 42 -25.5 68.5t-67.5 26.5t-66.5 -26.5t-24.5 -68.5t24.5 -69t66.5 -27t67.5 27t25.5 69zM532 -233q0 -82 -54.5 -137t-135.5 -55t-137 53.5t-56 137.5t56.5 138t136.5 54t135 -54.5t55 -136.5z" />
    <glyph glyph-name="uni02F4" unicode="&#x2f4;" 
d="M65 477h258l172 -255v-27h-149l-281 244v38z" />
    <glyph glyph-name="uni02F5" unicode="&#x2f5;" 
d="M305 477h258l172 -255v-27h-149l-281 244v38zM-65 477h258l172 -255v-27h-149l-281 244v38z" />
    <glyph glyph-name="uni02F6" unicode="&#x2f6;" 
d="M-65 195v27l172 255h258v-38l-281 -244h-149zM305 195v27l172 255h258v-38l-281 -244h-149z" />
    <glyph glyph-name="uni02F7" unicode="&#x2f7;" 
d="M506 -371q-54 0 -94.5 17.5t-78.5 38t-72 38t-66 17.5t-52.5 -23.5t-30.5 -87.5h-124q8 102 42 183t161 81q62 0 160.5 -55t136.5 -55t56 29t27 81h122q-5 -98 -27 -150.5t-64 -83t-96 -30.5z" />
    <glyph glyph-name="uni02F8" unicode="&#x2f8;" 
d="M197 450v281h288v-281h-288zM197 1202v282h288v-282h-288z" />
    <glyph glyph-name="uni02F9" unicode="&#x2f9;" 
d="M169 1484h349v-113h-233v-219h-116v332z" />
    <glyph glyph-name="uni02FA" unicode="&#x2fa;" 
d="M518 1152h-116v219h-233v113h349v-332z" />
    <glyph glyph-name="uni02FB" unicode="&#x2fb;" 
d="M169 -75h116v-219h233v-113h-349v332z" />
    <glyph glyph-name="uni02FC" unicode="&#x2fc;" 
d="M518 -407h-349v113h233v219h116v-332z" />
    <glyph glyph-name="uni02FD" unicode="&#x2fd;" 
d="M784 -425h-754v381h162v-222h429v222h163v-381z" />
    <glyph glyph-name="uni02FE" unicode="&#x2fe;" 
d="M784 -425h-754v381h162v-222h592v-159z" />
    <glyph glyph-name="uni02FF" unicode="&#x2ff;" 
d="M625 -186h-419l166 -239h-117l-197 283v14l197 283h117l-166 -239h419v-102z" />
    <glyph glyph-name="gravecomb" unicode="&#x300;" horiz-adv-x="0" 
d="M-555 1854h258l172 -255v-27h-149l-281 244v38z" />
    <glyph glyph-name="acutecomb" unicode="&#x301;" horiz-adv-x="0" 
d="M-415 1572v27l172 255h258v-38l-281 -244h-149z" />
    <glyph glyph-name="uni0302" unicode="&#x302;" horiz-adv-x="0" 
d="M616 1183h-159l-203 134h-4l-211 -134h-160v28l258 250h229l250 -250v-28z" />
    <glyph glyph-name="tildecomb" unicode="&#x303;" horiz-adv-x="0" 
d="M-412 1571q-54 0 -94.5 17.5t-78.5 38t-72 38t-66 17.5t-52.5 -23.5t-30.5 -87.5h-124q8 102 42 183t161 81q62 0 160.5 -55t136.5 -55t56 29t27 81h122q-5 -98 -27 -150.5t-64 -83t-96 -30.5z" />
    <glyph glyph-name="uni0304" unicode="&#x304;" horiz-adv-x="0" 
d="M-307 1484h612v-168h-612v168z" />
    <glyph glyph-name="uni0305" unicode="&#x305;" horiz-adv-x="0" 
d="M-600 1600v78h1177v-78h-1177z" />
    <glyph glyph-name="uni0306" unicode="&#x306;" horiz-adv-x="0" 
d="M-1 1193q-152 0 -247 91t-106 232h163q16 -77 68 -121.5t123 -44.5t123.5 43.5t66.5 122.5h164q-18 -148 -110.5 -235.5t-244.5 -87.5z" />
    <glyph glyph-name="uni0307" unicode="&#x307;" horiz-adv-x="0" 
d="M-141 1267v207h281v-207h-281z" />
    <glyph glyph-name="uni0308" unicode="&#x308;" horiz-adv-x="0" 
d="M-325 1265v219h214v-219h-214zM109 1265v219h217v-219h-217z" />
    <glyph glyph-name="hookabovecomb" unicode="&#x309;" horiz-adv-x="0" 
d="M-231 1618q0 62 -147 62q-52 0 -108 -8l-11 102q55 11 181 11t200.5 -39.5t74.5 -102.5q0 -128 -182 -142v-60h-150v120q142 0 142 57z" />
    <glyph glyph-name="uni030A" unicode="&#x30a;" horiz-adv-x="0" 
d="M93 1342q0 42 -25.5 68.5t-67.5 26.5t-66.5 -26.5t-24.5 -68.5t24.5 -69t66.5 -27t67.5 27t25.5 69zM191 1343q0 -82 -54.5 -137t-135.5 -55t-137 53.5t-56 137.5t56 138t136 54t135.5 -54.5t55.5 -136.5z" />
    <glyph glyph-name="uni030B" unicode="&#x30b;" horiz-adv-x="0" 
d="M-62 1184v34l225 266h235v-43l-318 -257h-142zM-468 1184v34l225 266h235v-43l-318 -257h-142z" />
    <glyph glyph-name="uni030C" unicode="&#x30c;" horiz-adv-x="0" 
d="M-121 1461h160l211 -134h4l203 134h159v-29l-250 -249h-229l-258 249v29z" />
    <glyph glyph-name="uni030D" unicode="&#x30d;" horiz-adv-x="0" 
d="M74 1125h-148v359h148v-359z" />
    <glyph glyph-name="uni030E" unicode="&#x30e;" horiz-adv-x="0" 
d="M200 1125h-144v359h144v-359zM-56 1125h-144v359h144v-359z" />
    <glyph glyph-name="uni030F" unicode="&#x30f;" horiz-adv-x="0" 
d="M-468 1484h235l225 -266v-34h-142l-318 257v43zM-62 1484h235l225 -266v-34h-142l-318 257v43z" />
    <glyph glyph-name="uni0310" unicode="&#x310;" horiz-adv-x="0" 
d="M0 1340q152 0 180 156h164q-18 -152 -107 -234t-237 -82t-240.5 86.5t-103.5 229.5h163q16 -78 64 -117t117 -39zM-136 1504v207h276v-207h-276z" />
    <glyph glyph-name="uni0311" unicode="&#x311;" horiz-adv-x="0" 
d="M0 1344q-68 0 -118.5 -40.5t-64.5 -115.5h-157q18 144 107 223.5t233 79.5t233 -79.5t107 -223.5h-157q-14 75 -64.5 115.5t-118.5 40.5z" />
    <glyph glyph-name="uni0312" unicode="&#x312;" horiz-adv-x="0" 
d="M-146 1026q0 234 108 383h183q-131 -165 -131 -317h127v-261h-287v195z" />
    <glyph glyph-name="uni0313" unicode="&#x313;" horiz-adv-x="0" 
d="M145 1214q0 -234 -108 -383h-183q131 165 131 317h-127v261h287v-195z" />
    <glyph glyph-name="uni0314" unicode="&#x314;" horiz-adv-x="0" 
d="M-146 1214v195h287v-261h-127q0 -154 131 -317h-183q-108 150 -108 383z" />
    <glyph glyph-name="uni0315" unicode="&#x315;" horiz-adv-x="0" 
d="M311 1214q0 -234 -108 -383h-183q131 165 131 317h-127v261h287v-195z" />
    <glyph glyph-name="uni0316" unicode="&#x316;" horiz-adv-x="0" 
d="M-215 -122h258l172 -255v-27h-149l-281 244v38z" />
    <glyph glyph-name="uni0317" unicode="&#x317;" horiz-adv-x="0" 
d="M-215 -404v27l172 255h258v-38l-281 -244h-149z" />
    <glyph glyph-name="uni0318" unicode="&#x318;" horiz-adv-x="0" 
d="M160 -60v-365h-124v121h-224v124h224v120h124z" />
    <glyph glyph-name="uni0319" unicode="&#x319;" horiz-adv-x="0" 
d="M-36 -60v-120h224v-124h-224v-121h-124v365h124z" />
    <glyph glyph-name="uni031A" unicode="&#x31a;" horiz-adv-x="0" 
d="M377 1210h-163v313h-591v159h754v-472z" />
    <glyph glyph-name="uni031B" unicode="&#x31b;" horiz-adv-x="0" 
d="M202 1149h-125v260h263v-210q0 -188 -86 -298.5t-274 -139.5v136q107 14 164.5 79.5t57.5 172.5z" />
    <glyph glyph-name="uni031C" unicode="&#x31c;" horiz-adv-x="0" 
d="M114 -434q-106 0 -167.5 51.5t-61.5 145.5t62.5 145.5t166.5 51.5v-118q-102 0 -102 -79q0 -36 24.5 -58.5t77.5 -22.5v-116z" />
    <glyph glyph-name="uni031D" unicode="&#x31d;" horiz-adv-x="0" 
d="M182 -425h-365v124h122v224h124v-224h119v-124z" />
    <glyph glyph-name="uni031E" unicode="&#x31e;" horiz-adv-x="0" 
d="M182 -201h-119v-224h-124v224h-122v124h365v-124z" />
    <glyph glyph-name="uni031F" unicode="&#x31f;" horiz-adv-x="0" 
d="M184 -311h-123v-114h-123v114h-123v113h123v121h123v-121h123v-113z" />
    <glyph glyph-name="uni0320" unicode="&#x320;" horiz-adv-x="0" 
d="M-429 -298v185h858v-185h-858z" />
    <glyph glyph-name="uni0321" unicode="&#x321;" horiz-adv-x="0" 
d="M-42 -425q-113 0 -192 17v211q58 -12 105 -12q129 0 129 125v184h280v-177q0 -177 -78.5 -262.5t-243.5 -85.5z" />
    <glyph glyph-name="uni0322" unicode="&#x322;" horiz-adv-x="0" 
d="M322 -425q-166 0 -244 86t-78 262v177h280v-184q0 -125 129 -125q47 0 105 12v-211q-92 -17 -192 -17z" />
    <glyph glyph-name="dotbelowcomb" unicode="&#x323;" horiz-adv-x="0" 
d="M-141 -366v207h281v-207h-281z" />
    <glyph glyph-name="uni0324" unicode="&#x324;" horiz-adv-x="0" 
d="M-326 -398v219h214v-219h-214zM108 -398v219h217v-219h-217z" />
    <glyph glyph-name="uni0325" unicode="&#x325;" horiz-adv-x="0" 
d="M93 -234q0 42 -25.5 68.5t-67.5 26.5t-66.5 -26.5t-24.5 -68.5t24.5 -69t66.5 -27t67.5 27t25.5 69zM191 -233q0 -82 -54.5 -137t-135.5 -55t-137 53.5t-56 137.5t56 138t136 54t135.5 -54.5t55.5 -136.5z" />
    <glyph glyph-name="uni0326" unicode="&#x326;" horiz-adv-x="0" 
d="M122 -204q0 -139 -94 -251h-137q94 100 94 170h-108v207h245v-126z" />
    <glyph glyph-name="uni0327" unicode="&#x327;" horiz-adv-x="0" 
d="M274 -210q0 -94 -95 -151.5t-267 -57.5q-92 0 -173 13v123q77 -11 159 -11t130 23t48 66q0 84 -123 84q-63 0 -131 -20l30 107q20 4 56 12t105 8q121 0 191 -51t70 -145z" />
    <glyph glyph-name="uni0328" unicode="&#x328;" horiz-adv-x="0" 
d="M-2 -189q0 -42 24 -67.5t74 -25.5t108 27v-137q-62 -33 -162 -33t-163 54t-63 133q0 153 125 238h158q-101 -83 -101 -189z" />
    <glyph glyph-name="uni0329" unicode="&#x329;" horiz-adv-x="0" 
d="M74 -425h-148v359h148v-359z" />
    <glyph glyph-name="uni032A" unicode="&#x32a;" horiz-adv-x="0" 
d="M377 -425h-163v222h-429v-222h-162v381h754v-381z" />
    <glyph glyph-name="uni032B" unicode="&#x32b;" horiz-adv-x="0" 
d="M145 -353q-89 0 -144 61q-55 -61 -145 -61t-140.5 62t-50.5 162h104q0 -113 91 -113t91 113h99q0 -113 91 -113t91 113h103q-2 -105 -51.5 -164.5t-138.5 -59.5z" />
    <glyph glyph-name="uni032C" unicode="&#x32c;" horiz-adv-x="0" 
d="M-367 -228h160l211 -134h4l203 134h159v-29l-250 -249h-229l-258 249v29z" />
    <glyph glyph-name="uni032D" unicode="&#x32d;" horiz-adv-x="0" 
d="M370 -504h-159l-203 134h-4l-211 -134h-160v28l258 250h229l250 -250v-28z" />
    <glyph glyph-name="uni032E" unicode="&#x32e;" horiz-adv-x="0" 
d="M-9 -495q-161 0 -251 72.5t-101 205.5h163q15 -121 191 -121q88 0 132 29t58 92h164q-34 -278 -356 -278z" />
    <glyph glyph-name="uni032F" unicode="&#x32f;" horiz-adv-x="0" 
d="M-3 -119q144 0 236 -76t111 -212h-164q-14 64 -61 100t-117 36t-118.5 -36t-64.5 -100h-163q11 127 104 207.5t237 80.5z" />
    <glyph glyph-name="uni0330" unicode="&#x330;" horiz-adv-x="0" 
d="M418 -378q-56 0 -100.5 17.5t-86.5 39t-79.5 39t-75.5 17.5t-59.5 -23.5t-30.5 -89.5h-137q12 156 67.5 219.5t157.5 63.5q67 0 143 -39t112.5 -56.5t74.5 -17.5q75 0 90 113h135q-8 -111 -34 -168t-73.5 -86t-103.5 -29z" />
    <glyph glyph-name="uni0331" unicode="&#x331;" horiz-adv-x="0" 
d="M-305 -158h612v-168h-612v168z" />
    <glyph glyph-name="uni0332" unicode="&#x332;" horiz-adv-x="0" 
d="M-572 -220v96h1238v-96h-1238z" />
    <glyph glyph-name="uni0333" unicode="&#x333;" horiz-adv-x="0" 
d="M-315 -771v201h627v-201h-627zM-315 -398v203h627v-203h-627z" />
    <glyph glyph-name="uni0334" unicode="&#x334;" horiz-adv-x="0" 
d="M418 205q-56 -1 -100 17t-87 40q-41 22 -79 38q-38 18 -76 18t-59 -24q-22 -24 -31 -89h-137q11 155 67 219t158 64q67 0 177 -56q43 -22 79 -40t74 -17q75 0 90 113h135q-8 -111 -34 -168q-25 -57 -73 -86t-104 -29z" />
    <glyph glyph-name="uni0335" unicode="&#x335;" horiz-adv-x="0" 
d="M325 255h-650v211h650v-211z" />
    <glyph glyph-name="uni0336" unicode="&#x336;" horiz-adv-x="0" 
d="M581 255h-1167v211h1167v-211z" />
    <glyph glyph-name="uni0337" unicode="&#x337;" horiz-adv-x="0" 
d="M-482 130l822 810l145 -149l-820 -813z" />
    <glyph glyph-name="uni0338" unicode="&#x338;" horiz-adv-x="0" 
d="M-250 -41l291 1525h209l-286 -1525h-214z" />
    <glyph glyph-name="uni0339" unicode="&#x339;" horiz-adv-x="0" 
d="M-116 -318q53 0 77.5 22.5t24.5 58.5q0 79 -102 79v118q105 0 167 -52t62 -146t-61.5 -145t-167.5 -51v116z" />
    <glyph glyph-name="uni033A" unicode="&#x33a;" horiz-adv-x="0" 
d="M377 -425h-754v381h162v-222h429v222h163v-381z" />
    <glyph glyph-name="uni033B" unicode="&#x33b;" horiz-adv-x="0" 
d="M90 -327v180h-180v-180h180zM188 -425h-376v376h376v-376z" />
    <glyph glyph-name="uni033C" unicode="&#x33c;" horiz-adv-x="0" 
d="M50 -350h-99q0 113 -90 113q-69 0 -85 -60h-112q14 80 64 125.5t134 45.5t139 -61q55 61 137 61t133.5 -45t64.5 -126h-111q-16 60 -83 60q-92 0 -92 -113z" />
    <glyph glyph-name="uni033D" unicode="&#x33d;" horiz-adv-x="0" 
d="M210 1239l-93 -93l-117 121l-116 -121l-93 93l120 117l-120 117l93 93l116 -119l117 119l93 -93l-118 -117z" />
    <glyph glyph-name="uni033E" unicode="&#x33e;" horiz-adv-x="0" 
d="M100 1560q-86 -16 -86 -58q0 -26 13.5 -50.5t43 -75t29.5 -105.5q0 -123 -200 -137v91q38 6 60.5 18t22.5 39t-13 51.5t-28.5 52.5t-28.5 57t-13 69t23 70t61.5 46t115.5 21v-89z" />
    <glyph glyph-name="uni033F" unicode="&#x33f;" horiz-adv-x="0" 
d="M-589 1744v78h1177v-78h-1177zM-589 1572v78h1177v-78h-1177z" />
    <glyph glyph-name="uni0340" unicode="&#x340;" horiz-adv-x="0" 
d="M-430 1484h258l172 -255v-27h-149l-281 244v38z" />
    <glyph glyph-name="uni0341" unicode="&#x341;" horiz-adv-x="0" 
d="M0 1202v27l172 255h258v-38l-281 -244h-149z" />
    <glyph glyph-name="uni0342" unicode="&#x342;" horiz-adv-x="0" 
d="M166 1196q-54 0 -94.5 17.5t-78.5 38t-72 38t-66 17.5t-52.5 -23.5t-30.5 -87.5h-124q8 102 42 183t161 81q62 0 160.5 -55t136.5 -55t56 29t27 81h122q-5 -98 -27 -150.5t-64 -83t-96 -30.5z" />
    <glyph glyph-name="uni0343" unicode="&#x343;" horiz-adv-x="0" 
d="M145 1289q0 -121 -24.5 -210t-84.5 -173h-182q131 168 131 318h-127v260h287v-195z" />
    <glyph glyph-name="uni0344" unicode="&#x344;" horiz-adv-x="0" 
d="M-465 1199v219h214v-219h-214zM248 1199v219h217v-219h-217zM-140 1183v33l69 292h257v-37l-221 -288h-105z" />
    <glyph glyph-name="uni0345" unicode="&#x345;" horiz-adv-x="0" 
d="M69 -232q0 -56 40 -56q19 0 52 6v-132q-45 -11 -107 -11t-104.5 40.5t-42.5 111.5v146h162v-105z" />
    <glyph glyph-name="uni0346" unicode="&#x346;" horiz-adv-x="0" 
d="M377 1194h-163v222h-429v-222h-162v381h754v-381z" />
    <glyph glyph-name="uni0347" unicode="&#x347;" horiz-adv-x="0" 
d="M-499 -425v106h995v-106h-995zM-499 -236v106h995v-106h-995z" />
    <glyph glyph-name="uni0348" unicode="&#x348;" horiz-adv-x="0" 
d="M195 -425h-138v359h138v-359zM-57 -425h-138v359h138v-359z" />
    <glyph glyph-name="uni0349" unicode="&#x349;" horiz-adv-x="0" 
d="M161 -407h-116v219h-233v113h349v-332z" />
    <glyph glyph-name="uni034A" unicode="&#x34a;" horiz-adv-x="0" 
d="M-146 1331q-63 0 -80 -111h-124q8 102 42 183t161 81q55 0 138 -43l59 104l95 -53l-58 -102q33 -16 67 -16q59 0 79 110h122q-5 -98 -40 -181t-162 -83q-50 0 -138 44l-69 -122l-94 54l68 119q-37 16 -66 16z" />
    <glyph glyph-name="uni034B" unicode="&#x34b;" horiz-adv-x="0" 
d="M-69 1259v154h138v-154h-138zM131 1441q-43 0 -75 14t-88.5 44.5t-84.5 30.5t-43.5 -19.5t-22.5 -69.5h-100q8 87 36 149.5t127 62.5q46 0 102.5 -30.5t83 -44t54.5 -13.5t42 23t22 65h97q-5 -83 -22.5 -123.5t-51 -64.5t-76.5 -24zM-69 1681v154h138v-154h-138z" />
    <glyph glyph-name="uni034C" unicode="&#x34c;" horiz-adv-x="0" 
d="M166 1183q-54 0 -94.5 17.5t-78.5 38t-72 38t-66 17.5t-52.5 -23.5t-30.5 -87.5h-124q8 102 42 183t161 81q62 0 160.5 -55t136.5 -55t56 29t27 81h122q-5 -98 -27 -150.5t-64 -83t-96 -30.5zM166 1492q-54 0 -94.5 17.5t-78.5 38t-72 38t-66 17.5t-52.5 -23.5
t-30.5 -87.5h-124q8 102 42 183t161 81q62 0 160.5 -55t136.5 -55t56 29t27 81h122q-5 -98 -27 -150.5t-64 -83t-96 -30.5z" />
    <glyph glyph-name="uni034D" unicode="&#x34d;" horiz-adv-x="0" 
d="M116 -290h-232v-124l-142 180l142 182v-124h232v124l142 -182l-142 -180v124z" />
    <glyph glyph-name="uni034E" unicode="&#x34e;" horiz-adv-x="0" 
d="M-56 -425v231h-124l180 142l182 -142h-124v-231h-114z" />
    <glyph glyph-name="uni034F" unicode="&#x34f;" horiz-adv-x="0" 
d="M-413 0h-333v329h109v-220h224v-109zM167 0h-334v109h334v-109zM-637 575h-109v334h109v-334zM-323 460q54 0 54 -54t-54 -54t-54 54t54 54zM-119 308q-1 -54 -55 -54t-54 54t54 55q54 -1 55 -55zM-368 558q0 -54 -54 -55q-54 1 -55 55q1 54 55 54t54 -54zM55 272
q-1 -54 -55 -54t-54 54t54 54t55 -54zM-457 786q54 0 54 -54t-54 -54t-54 54t54 54zM-368 906q0 -54 -54 -55q-54 1 -55 55q1 54 55 54t54 -54zM176 363q54 -1 55 -55q-1 -54 -55 -54t-54 54t54 55zM327 460q54 0 54 -54t-54 -54t-54 54t54 54zM-323 1110q54 0 54 -54
t-54 -54t-54 54t54 54zM746 0h-333v109h224v220h109v-329zM-413 1375h-224v-220h-109v329h333v-109zM479 558q-1 -54 -55 -55q-54 1 -54 55t54 54t55 -54zM-119 1156q-1 -54 -55 -55q-54 1 -54 55t54 54t55 -54zM55 1190q-1 -54 -55 -54t-54 54t54 55q54 -1 55 -55zM515 732
q0 -54 -54 -55q-54 1 -54 55t54 54t54 -54zM479 906q-1 -54 -55 -55q-54 1 -54 55t54 54t55 -54zM178 1210q52 0 52 -54t-52 -55q-57 1 -57 55t57 54zM379 1056q0 -54 -54 -54t-54 54t54 55q54 -1 54 -55zM746 575h-109v334h109v-334zM167 1375h-334v109h334v-109zM746 1155
h-109v220h-224v109h333v-329z" />
    <glyph glyph-name="uni0350" unicode="&#x350;" horiz-adv-x="0" 
d="M144 1308l-289 -177v127l158 79l-158 79v127l289 -177v-58z" />
    <glyph glyph-name="uni0351" unicode="&#x351;" horiz-adv-x="0" 
d="M114 1143q-106 0 -167.5 51.5t-61.5 145.5t62.5 145.5t166.5 51.5v-118q-102 0 -102 -79q0 -36 24.5 -58.5t77.5 -22.5v-116z" />
    <glyph glyph-name="uni0352" unicode="&#x352;" horiz-adv-x="0" 
d="M1 1756q142 0 227 -77.5t93 -213.5h-148q0 70 -48.5 110t-122.5 40t-123 -40.5t-49 -109.5h-147q2 130 89 210.5t229 80.5zM-138 1237v207h281v-207h-281z" />
    <glyph glyph-name="uni0353" unicode="&#x353;" horiz-adv-x="0" 
d="M210 -337l-93 -93l-117 121l-116 -121l-93 93l120 117l-120 117l93 93l116 -119l117 119l93 -93l-118 -117z" />
    <glyph glyph-name="uni0354" unicode="&#x354;" horiz-adv-x="0" 
d="M-145 -190l289 177v-127l-158 -79l158 -79v-127l-289 177v58z" />
    <glyph glyph-name="uni0355" unicode="&#x355;" horiz-adv-x="0" 
d="M144 -248l-289 -177v127l158 79l-158 79v127l289 -177v-58z" />
    <glyph glyph-name="uni0356" unicode="&#x356;" horiz-adv-x="0" 
d="M234 -72l177 -289h-126l-80 158l-78 -158h-128l177 289h58zM0 -248l-289 -177v127l158 79l-158 79v127l289 -177v-58z" />
    <glyph glyph-name="uni0357" unicode="&#x357;" horiz-adv-x="0" 
d="M-114 1259q53 0 77.5 22.5t24.5 58.5q0 79 -102 79v118q105 0 167 -51.5t62 -145.5t-61.5 -145.5t-167.5 -51.5v116z" />
    <glyph glyph-name="uni0358" unicode="&#x358;" horiz-adv-x="0" 
d="M431 1266q0 -38 -26 -64t-64 -26t-64 26t-26 64t26 64t64 26t64 -26t26 -64z" />
    <glyph glyph-name="uni0359" unicode="&#x359;" horiz-adv-x="0" 
d="M44 -191l113 50l33 -95l-120 -29l89 -102l-88 -58l-70 121l-72 -121l-89 59l91 101l-120 29l33 95l114 -50l-8 132h103z" />
    <glyph glyph-name="uni035A" unicode="&#x35a;" horiz-adv-x="0" 
d="M-55 -234q0 42 -25.5 68.5t-67.5 26.5t-66.5 -26.5t-24.5 -68.5t24.5 -69t66.5 -27t67.5 27t25.5 69zM239 -234q0 42 -25.5 68.5t-67.5 26.5t-66.5 -26.5t-24.5 -68.5t24.5 -69t66.5 -27t67.5 27t25.5 69zM337 -233q0 -82 -54.5 -137t-141.5 -55t-142 66
q-55 -66 -141 -66t-142 53.5t-56 137.5t56 138t142 54t141 -66q54 66 141 66t142 -54.5t55 -136.5z" />
    <glyph glyph-name="uni035B" unicode="&#x35b;" horiz-adv-x="0" 
d="M207 1449l-95 -297h-113l60 189h-266l95 297h113l-60 -189h266z" />
    <glyph glyph-name="uni035C" unicode="&#x35c;" horiz-adv-x="0" 
d="M620 -278q457 0 611 234h183q-195 -381 -793 -381t-794 381h183q100 -126 233 -180t377 -54z" />
    <glyph glyph-name="uni035D" unicode="&#x35d;" horiz-adv-x="0" 
d="M620 1367q457 0 611 234h183q-195 -381 -793 -381t-794 381h183q100 -126 233 -180t377 -54z" />
    <glyph glyph-name="uni035E" unicode="&#x35e;" horiz-adv-x="0" 
d="M-173 1368h1224v-162h-1224v162z" />
    <glyph glyph-name="uni035F" unicode="&#x35f;" horiz-adv-x="0" 
d="M-173 -162h1224v-162h-1224v162z" />
    <glyph glyph-name="uni0360" unicode="&#x360;" horiz-adv-x="0" 
d="M1057 1230q-135 0 -431 68t-402 68t-152 -35.5t-62 -110.5h-183q17 136 119.5 223.5t236.5 87.5q135 0 431 -68t402 -68t152 35.5t62 110.5h183q-17 -136 -119.5 -223.5t-236.5 -87.5z" />
    </font>
</defs>
</svg>
