<?xml version="1.0" standalone="no"?>
<!DOCTYPE svg PUBLIC "-//W3C//DTD SVG 1.1//EN" "http://www.w3.org/Graphics/SVG/1.1/DTD/svg11.dtd" >
<svg xmlns="http://www.w3.org/2000/svg">
<metadata>
Created by FontPrep 20130207 at Thu Dec 31 20:24:25 2015
 By James Campbell
Digitized data copyright A^(c) 2012-2013, The Mozilla Corporation and Telefonica S.A.
</metadata>
<defs>
<font id="85313f47588993e9ef886e0d8a7092e6" horiz-adv-x='1024' >
  <font-face 
    font-family="FiraMono-Bold"
    font-weight="700"
    font-stretch="normal"
    units-per-em="2048"
    panose-1="2 11 6 9 5 0 0 2 0 4"
    ascent="1608"
    descent="-440"
    x-height="1087"
    cap-height="1419"
    bbox="-563 -1024 2441 2150"
    underline-thickness="102"
    underline-position="-102"
    unicode-range="U+000D-1F310"
  />
<missing-glyph 
d="M506 173q0 32 20.5 52.5t51 20.5t51 -20.5t20.5 -52.5t-20.5 -53.5t-51 -21.5t-51 21.5t-20.5 53.5zM629 354q0 -23 -16.5 -36t-35.5 -13t-35 13.5t-16 35.5v172q111 6 149 41t38 105t-23.5 111.5t-91.5 41.5t-101 -14t-49 -14t-29 13t-13 43.5t64.5 50.5t128.5 20
q121 0 172.5 -66.5t51.5 -172.5t-45 -164t-149 -75v-92zM934 -918v2962h-637v-2962h637zM184 2150h860v-3174h-860v3174z" />
    <glyph glyph-name="f_i" unicode="fi" 
d="M689 1313q-115 0 -157 -35t-40 -115v-76h591v-864h129v-223h-567v223h123v637h-276v-860h-314v860h-158v227h158v89q0 166 113 273t328 106q214 -1 374 -70l-88 -213q-101 41 -216 41z" />
    <glyph glyph-name="f_l" unicode="fl" 
d="M1032 -35q-152 0 -234 82t-81 246v1014q-43 12 -109 12q-136 0 -137 -156v-76h168l-35 -227h-133v-860h-315v860h-144v227h144v89q0 166 115 273t321 105q113 0 217 -34l223 32v-1230q0 -58 20 -78q39 -41 128 -4l63 -234q-105 -41 -211 -41z" />
    <glyph glyph-name=".notdef" 
d="M506 173q0 32 20.5 52.5t51 20.5t51 -20.5t20.5 -52.5t-20.5 -53.5t-51 -21.5t-51 21.5t-20.5 53.5zM629 354q0 -23 -16.5 -36t-35.5 -13t-35 13.5t-16 35.5v172q111 6 149 41t38 105t-23.5 111.5t-91.5 41.5t-101 -14t-49 -14t-29 13t-13 43.5t64.5 50.5t128.5 20
q121 0 172.5 -66.5t51.5 -172.5t-45 -164t-149 -75v-92zM934 -918v2962h-637v-2962h637zM184 2150h860v-3174h-860v3174z" />
    <glyph glyph-name=".null" 
 />
    <glyph glyph-name="nonmarkingreturn" unicode="&#xd;" 
 />
    <glyph glyph-name="space" unicode=" " 
 />
    <glyph glyph-name="exclam" unicode="!" 
d="M428 151.5q0 77.5 54 132t132 54.5t132.5 -54.5t54.5 -132t-54.5 -132t-132.5 -54.5t-132 54.5t-54 132zM483 524l-43 895h348l-40 -895h-265z" />
    <glyph glyph-name="quotedbl" unicode="&#x22;" 
d="M694 946l-39 574h312l-39 -574h-234zM301 946l-39 574h309l-39 -574h-231z" />
    <glyph glyph-name="numbersign" unicode="#" 
d="M492 510h192l53 403h-192zM1083 510v-215h-155l-39 -295h-271l39 295h-192l-39 -295h-270l37 295h-121v215h149l53 403h-127v217h156l37 289h272l-39 -289h193l39 289h270l-39 -289h123v-217h-151l-52 -403h127z" />
    <glyph glyph-name="dollar" unicode="$" 
d="M451.5 997.5q23.5 -34.5 97.5 -67.5v289q-61 -10 -91 -48.5t-30 -88.5t23.5 -84.5zM840 379q0 59 -24.5 102t-100.5 82v-350q125 29 125 166zM1032.5 121q-112.5 -122 -317.5 -148v-305h-166v299q-154 10 -271.5 66.5t-193.5 128.5l158 182q150 -127 307 -137v422
q-223 74 -318.5 173t-95.5 256t111.5 263t302.5 127v305h166v-303q232 -18 403 -162l-157 -166q-110 90 -246 99v-355q224 -76 327 -175.5t103 -273.5t-112.5 -296z" />
    <glyph glyph-name="percent" unicode="%" 
d="M1221 327q0 -165 -77 -255t-215 -90t-215 90t-77 252t77 255t215 93t215 -90t77 -255zM1010 330q0 96 -14.5 139t-65.5 43t-65.5 -46t-14.5 -138t16.5 -139.5t65.5 -47.5t63.5 46.5t14.5 142.5zM590 1109q0 -165 -77 -255t-214 -90t-215 90t-78 252t78 256t215 94
t214 -91t77 -256zM377 1112q0 96 -13.5 139t-64.5 43t-66.5 -46t-15.5 -138t17.5 -139t66.5 -47t62.5 46t13.5 142zM336 -80l-172 72l702 1474l174 -71z" />
    <glyph glyph-name="ampersand" unicode="&#x26;" 
d="M594 203q98 0 154 55v420h-117q-171 0 -203.5 -100.5t-32.5 -147.5q0 -102 50.5 -164.5t148.5 -62.5zM76 406q0 316 311 391v8q-242 66 -242 307q0 148 121.5 245t304.5 97q127 0 221.5 -36t178.5 -126l-176 -151q-47 47 -86 68.5t-105 21.5t-104.5 -43t-38.5 -120
t51 -129t137 -52h535v-209h-133v-535q-168 -178 -476 -178q-233 0 -366 122.5t-133 318.5z" />
    <glyph glyph-name="quotesingle" unicode="'" 
d="M498 946l-39 574h309l-39 -574h-231z" />
    <glyph glyph-name="parenleft" unicode="(" 
d="M618 650q0 -208 81 -413.5t245 -418.5l-211 -142q-90 104 -171 211t-142.5 230t-97 269t-35.5 330.5t35.5 331t97 269.5t142.5 229.5t171 210.5l211 -141q-252 -327 -289 -542.5t-37 -423.5z" />
    <glyph glyph-name="parenright" unicode=")" 
d="M610 783.5q0 208.5 -80.5 413t-244.5 419.5l211 141q90 -104 171 -210.5t142 -229.5t97 -269.5t36 -331t-36 -330.5t-97 -269t-142 -229.5t-171 -211.5l-211 142q250 325 287.5 541t37.5 424.5z" />
    <glyph glyph-name="asterisk" unicode="*" 
d="M768 1053l207 -203l-225 -164l-138 254l-131 -256l-225 164l203 207l-281 47l82 258l258 -125l-45 287h281l-45 -289l258 127l84 -258z" />
    <glyph glyph-name="plus" unicode="+" 
d="M750 766h311v-252h-311v-319h-273v319h-309v252h309v319h273v-319z" />
    <glyph glyph-name="comma" unicode="," 
d="M391 203q0 94 63.5 157.5t160.5 63.5t161 -63.5t64 -159.5q0 -61 -22.5 -123t-67.5 -162l-148 -334h-217l104 436q-98 60 -98 185z" />
    <glyph glyph-name="hyphen" unicode="-" 
d="M221 514v254h787v-254h-787z" />
    <glyph glyph-name="period" unicode="." 
d="M385 194.5q0 47.5 18.5 89.5t49 72.5t72.5 49t89.5 18.5t89 -18.5t72.5 -49t49.5 -72.5t18.5 -89.5t-18.5 -89.5t-49.5 -72.5t-72.5 -49t-89 -18.5t-89.5 18.5t-72.5 49t-49 72.5t-18.5 89.5z" />
    <glyph glyph-name="slash" unicode="/" 
d="M313 -229l-256 116l861 1786l253 -117z" />
    <glyph glyph-name="zero" unicode="0" 
d="M614.5 201q49.5 0 86 26.5t61 87t36 158.5t11.5 239.5t-12.5 238t-37 156.5t-60 86t-110 26t-123 -117.5t-48.5 -388.5q0 -409 73.5 -460.5t123 -51.5zM479 706q0 56 38 95t96 39t96.5 -39t38.5 -95t-38 -95.5t-96 -39.5t-96.5 39.5t-38.5 95.5zM613 -35q-251 0 -382 195
t-131 549t129 550.5t384 196.5t385 -196.5t130 -546.5q0 -541 -193.5 -644.5t-321.5 -103.5z" />
    <glyph glyph-name="one" unicode="1" 
d="M205 248h342v850l-285 -172l-145 215l458 278h291v-1171h264v-248h-925v248z" />
    <glyph glyph-name="two" unicode="2" 
d="M590 1456q231 0 359 -115.5t128 -283.5t-127.5 -348t-443.5 -459h604l-35 -250h-946v231q362 349 457.5 469.5t126 188t30.5 142.5t-51 124t-137 49q-143 0 -254 -143l-201 151q186 244 490 244z" />
    <glyph glyph-name="three" unicode="3" 
d="M573 1456q224 0 355 -105.5t131 -249.5t-77 -226t-194 -117v-8q221 -35 268.5 -151t47.5 -203q0 -181 -150.5 -306t-400.5 -125q-314 0 -502 213l185 172q114 -135 294 -135q104 0 171 53.5t67 159.5q0 204 -240 205h-129l37 225h92q94 0 153.5 46t59.5 131t-56 131
t-148 46q-157 0 -283 -122l-168 174q200 192 487 192z" />
    <glyph glyph-name="four" unicode="4" 
d="M993 297v-297h-319v297h-584v217l393 942l279 -102l-334 -811h246l37 340h282v-340h142v-246h-142z" />
    <glyph glyph-name="five" unicode="5" 
d="M1116 462q0 -216 -155.5 -356.5t-403.5 -140.5q-156 0 -275.5 57.5t-197.5 155.5l188 172q104 -135 258 -135q113 0 180.5 67.5t67.5 188.5t-57 176t-145 55t-170 -47h-222v764h869l-37 -233h-518v-303q95 45 195 45q189 0 306 -125t117 -341z" />
    <glyph glyph-name="six" unicode="6" 
d="M653 727q-117 0 -211 -106q4 -213 44 -317.5t149 -104.5q85 0 129.5 73.5t44.5 204.5q0 250 -156 250zM442 825q127 127 297 127t284 -125t114 -347q0 -221 -140.5 -368t-365.5 -147q-266 0 -398.5 189.5t-132.5 486.5q0 366 167 590.5t452 224.5q177 0 309 -92
l-125 -199q-82 58 -188 58q-105 0 -182.5 -101.5t-90.5 -296.5z" />
    <glyph glyph-name="seven" unicode="7" 
d="M137 1174v245h955v-221l-549 -1231l-312 96l529 1111h-623z" />
    <glyph glyph-name="eight" unicode="8" 
d="M776 1071q0 72 -40 117t-119 45t-121.5 -42t-42.5 -121t49 -128t155 -90q119 87 119 219zM414 397q0 -88 50 -143t153 -55t150.5 55.5t47.5 119.5q0 111 -56.5 163t-211.5 106q-133 -89 -133 -246zM141 1075q0 172 135 276.5t345 104.5t338 -98t128 -226t-52 -211
t-167 -149q275 -138 275 -387q0 -173 -140.5 -296.5t-390.5 -123.5t-388 118t-138 294q0 123 69.5 212t190.5 142q-205 129 -205 344z" />
    <glyph glyph-name="nine" unicode="9" 
d="M418 975q0 -248 174 -248q114 0 201 125q0 196 -29 260t-65.5 87.5t-108.5 23.5t-122 -62.5t-50 -185.5zM776 627q-107 -129 -283 -129q-175 0 -290 129t-115 340t148 350t384 139q237 0 373.5 -153t136.5 -382t-51 -387.5t-209.5 -331t-607.5 -263.5l-67 229
q256 66 400 174.5t187 280.5z" />
    <glyph glyph-name="colon" unicode=":" 
d="M397 889q0 43 17.5 83t46 69.5t68.5 47t85 17.5t84 -17.5t69 -47t46 -69.5t16 -83t-16 -83t-46 -68.5t-69 -46t-84 -17.5t-85 17.5t-68.5 46t-46 68.5t-17.5 83zM397 181q0 86 62 150t153 64t154 -61.5t63 -152.5t-64 -153.5t-153 -62.5t-152 65t-63 151z" />
    <glyph glyph-name="semicolon" unicode=";" 
d="M397 889q0 43 17.5 83t46 69.5t68.5 47t85 17.5t84 -17.5t69 -47t46 -69.5t16 -83t-16 -83t-46 -68.5t-69 -46t-84 -17.5t-85 17.5t-68.5 46t-46 68.5t-17.5 83zM397 193q0 90 63 151.5t154 61.5q92 0 153.5 -61.5t61.5 -154.5q0 -57 -22.5 -117.5t-63.5 -156.5
l-141 -322h-211l101 420q-95 61 -95 179z" />
    <glyph glyph-name="less" unicode="&#x3c;" 
d="M141 526v232l803 497l143 -225l-663 -387l663 -379l-147 -233z" />
    <glyph glyph-name="equal" unicode="=" 
d="M147 295v254h934v-254h-934zM147 725v256h934v-256h-934z" />
    <glyph glyph-name="greater" unicode="&#x3e;" 
d="M1087 760v-234l-798 -495l-148 223l664 389l-664 377l146 235z" />
    <glyph glyph-name="question" unicode="?" 
d="M367 151.5q0 78.5 54 132.5t132 54t132 -54.5t54 -132t-54 -132t-132 -54.5t-132 54t-54 132.5zM606 1456q227 0 350 -99.5t123 -244.5q0 -184 -155 -285t-190.5 -151.5t-35.5 -110.5v-41h-299v51q0 208 141.5 304.5t169 129.5t27.5 81t-45 78t-117 30q-147 0 -256 -125
l-206 162q187 221 493 221z" />
    <glyph glyph-name="at" unicode="@" 
d="M461 713q-78 0 -107.5 -72t-29.5 -244q0 -171 20.5 -232t77.5 -61q86 0 98 59.5t17 84.5v446q-35 19 -76 19zM813 213q0 -203 74 -203q35 0 52 31t27.5 115.5t10.5 339.5q0 254 -17.5 377.5t-87.5 252.5t-301 129t-446 -188l-129 152q141 123 282.5 180t316.5 57
q341 0 486.5 -220.5t145.5 -633.5t-69.5 -604t-254.5 -191q-108 0 -169.5 76.5t-76.5 206.5h-8q-35 -78 -105 -134t-172 -56q-182 0 -261.5 125.5t-79.5 341.5q0 397 161.5 474t274.5 77q179 0 346 -91v-614z" />
    <glyph glyph-name="A" unicode="A" 
d="M459 551h303l-146 600h-10zM817 305h-411l-74 -305h-357l435 1419h411l434 -1419h-364z" />
    <glyph glyph-name="B" unicode="B" 
d="M1171 396q0 -104 -88 -250t-497 -146h-473v1419h452q382 0 463.5 -128.5t81.5 -212.5q0 -141 -74 -219.5t-170 -100.5v-8q206 -40 255.5 -145t49.5 -209zM768 1019q0 87 -52 124t-163 37h-100v-326h110q109 0 157 39t48 126zM588 627h-135v-379h120q116 0 182 38.5
t66 146.5t-63.5 151t-169.5 43z" />
    <glyph glyph-name="C" unicode="C" 
d="M756 1204q-239 0 -286.5 -181t-47.5 -309q0 -249 87 -368t239 -119q104 0 175.5 36t131.5 83l153 -196q-190 -185 -487 -185t-475 195t-178 548q0 352 184.5 550t478.5 198q154 0 261.5 -43t197.5 -115l-166 -196q-128 102 -268 102z" />
    <glyph glyph-name="D" unicode="D" 
d="M489 0h-385v1419h361q322 0 517.5 -151.5t195.5 -551.5q0 -716 -689 -716zM744 1076.5q-81 97.5 -230 97.5h-70v-928h70q151 0 231 103.5t80 366.5t-81 360.5z" />
    <glyph glyph-name="E" unicode="E" 
d="M518 1178v-338h492v-238h-492v-358h592v-244h-932v1419h932l-35 -241h-557z" />
    <glyph glyph-name="F" unicode="F" 
d="M541 1178v-373h495v-244h-495v-561h-342v1419h936l-35 -241h-559z" />
    <glyph glyph-name="G" unicode="G" 
d="M203 154.5q-158 189.5 -158 547.5t186.5 556t473.5 198q156 0 263 -49t191 -127l-178 -184q-66 57 -124 84.5t-132 27.5q-156 0 -243 -122.5t-87 -385.5t65.5 -375t209.5 -112q94 0 174 43v322h-176l-33 237h530v-706q-238 -144 -499 -144q-305 0 -463 189.5z" />
    <glyph glyph-name="H" unicode="H" 
d="M784 0v606h-340v-606h-340v1419h340v-549h340v549h340v-1419h-340z" />
    <glyph glyph-name="I" unicode="I" 
d="M152 1419h925v-248h-293v-921h293v-250h-925v250h292v921h-292v248z" />
    <glyph glyph-name="J" unicode="J" 
d="M176 1419h801v-1044q0 -290 -185.5 -458.5t-543.5 -266.5l-80 241q254 77 361.5 182.5t107.5 286.5v811h-461v248z" />
    <glyph glyph-name="K" unicode="K" 
d="M469 758l383 661h356l-397 -637l436 -782h-393zM459 0h-340v1419h340v-1419z" />
    <glyph glyph-name="L" unicode="L" 
d="M188 0v1419h340v-1151h615l-35 -268h-920z" />
    <glyph glyph-name="M" unicode="M" 
d="M336 684v-86l-10 -598h-291l80 1419h348l149 -891h9l145 891h348l80 -1419h-297l-16 604q-2 35 -2 66v59q0 150 8 236t12 135h-8l-150 -858h-256l-161 858h-9q21 -247 21 -416z" />
    <glyph glyph-name="N" unicode="N" 
d="M393 530v-530h-289v1419h424l351 -1104h8q-51 249 -51 566v538h288v-1419h-411l-363 1102h-8q51 -280 51 -572z" />
    <glyph glyph-name="O" unicode="O" 
d="M836 712q0 261 -51.5 378.5t-170 117.5t-170 -117.5t-51.5 -379.5t52.5 -380t172.5 -118t169 119t49 380zM191.5 163.5q-146.5 198.5 -146.5 544.5t147.5 547t423.5 201t422 -199t146 -545t-148 -546.5t-423 -200.5t-421.5 198.5z" />
    <glyph glyph-name="P" unicode="P" 
d="M465 471v-471h-340v1419h448q291 0 450 -115t159 -351t-150 -359t-414 -123h-153zM831 956q0 221 -253 222h-113v-461h125q117 0 179 57t62 182z" />
    <glyph glyph-name="Q" unicode="Q" 
d="M418 710q0 -259 43 -378t162 -119t159.5 120t40.5 384t-43.5 376.5t-160.5 112.5t-159 -118.5t-42 -377.5zM1178 711q0 -470 -279 -621l2 -8q156 -29 250 -103.5t149 -238.5l-276 -94q-77 175 -165 250t-243 75t-352.5 102t-197.5 637t207.5 640.5t415 105.5
t348.5 -197.5t141 -547.5z" />
    <glyph glyph-name="R" unicode="R" 
d="M580 774q221 0 221 208q0 108 -59.5 154t-176.5 46h-108v-408h123zM1151 987q0 -271 -283 -389l371 -598h-381l-305 541h-96v-541h-340v1419h448q293 0 439.5 -104.5t146.5 -327.5z" />
    <glyph glyph-name="S" unicode="S" 
d="M668 1206q-96 0 -153.5 -34.5t-57.5 -101.5t53 -103t190 -81t301 -124t164 -346q0 -201 -154.5 -326t-420.5 -125q-195 0 -337 59.5t-230 145.5l172 190q159 -143 383 -143q104 0 168.5 45t64.5 124t-55 123t-189 86q-253 79 -358 182t-105 265q0 191 154 302.5
t383 111.5q314 0 506 -184l-160 -185q-145 119 -319 119z" />
    <glyph glyph-name="T" unicode="T" 
d="M782 1159v-1159h-340v1159h-397v260h1151l-35 -260h-379z" />
    <glyph glyph-name="U" unicode="U" 
d="M218.5 103.5q-134.5 138.5 -134.5 371.5v944h342v-815q0 -208 26.5 -273t63.5 -89.5t126 -24.5t125 91.5t36 295.5v815h342v-944q0 -227 -137.5 -368.5t-396 -141.5t-393 138.5z" />
    <glyph glyph-name="V" unicode="V" 
d="M614 283h11l260 1136h348l-408 -1419h-422l-405 1419h360z" />
    <glyph glyph-name="W" unicode="W" 
d="M1067 0h-352l-97 995h-8l-106 -995h-359l-151 1419h317l39 -1110h8l115 946h291l102 -944h8l66 1108h295z" />
    <glyph glyph-name="X" unicode="X" 
d="M33 1419h370l203 -442h8l215 442h361l-381 -651l416 -768h-371l-244 526h-8l-237 -526h-363l401 754z" />
    <glyph glyph-name="Y" unicode="Y" 
d="M784 0h-340v530l-462 889h372l262 -598h9l264 598h358l-463 -887v-532z" />
    <glyph glyph-name="Z" unicode="Z" 
d="M84 0v254l661 903h-598v262h986v-256l-648 -893h660l-35 -270h-1026z" />
    <glyph glyph-name="bracketleft" unicode="[" 
d="M317 -252v1938h594v-244h-284v-1452h284v-242h-594z" />
    <glyph glyph-name="backslash" unicode="\" 
d="M57 1556l256 117l858 -1786l-256 -116z" />
    <glyph glyph-name="bracketright" unicode="]" 
d="M911 1686v-1938h-594v244h285v1450h-285v244h594z" />
    <glyph glyph-name="asciicircum" unicode="^" 
d="M764 1729l387 -650h-320l-219 406l-211 -406h-323l387 650h299z" />
    <glyph glyph-name="underscore" unicode="_" 
d="M57 -381v256h1114v-256h-1114z" />
    <glyph glyph-name="grave" unicode="`" 
d="M809 1309l-487 209l143 243l442 -286z" />
    <glyph glyph-name="a" unicode="a" 
d="M668 492q-260 0 -260 -162q0 -61 40 -96t98 -35t114.5 30.5t84.5 87.5v175h-77zM599 1124q462 0 462 -385v-424q0 -61 16.5 -88.5t55.5 -42.5l-68 -215q-98 10 -163.5 43t-104.5 101q-63 -76 -161 -112t-190 -36q-174 0 -276 95.5t-102 259.5q0 165 139 261.5t393 96.5
h145v39q0 166 -217 166q-131 0 -295 -58l-75 217q212 82 441 82z" />
    <glyph glyph-name="b" unicode="b" 
d="M811 543q0 273 -65.5 306.5t-104.5 33.5q-98 0 -172 -125v-457q65 -98 156 -98q186 0 186 340zM469 977q109 147 289 147q194 0 292.5 -151.5t98.5 -419.5q0 -267 -115.5 -427.5t-320.5 -160.5q-171 0 -269 133l-12 -98h-291v1520l328 34v-577z" />
    <glyph glyph-name="c" unicode="c" 
d="M719 872q-246 0 -246 -335q0 -247 97.5 -280.5t148.5 -33.5q122 0 231 82l148 -209q-168 -131 -418 -131t-400.5 158t-150.5 414.5t154.5 421.5t403.5 165t411 -137l-142 -196q-104 81 -237 81z" />
    <glyph glyph-name="d" unicode="d" 
d="M418 545q0 -274 65.5 -307t102.5 -33q101 0 174 125v467q-75 88 -159 88q-83 0 -133 -79t-50 -261zM780 119q-110 -154 -304 -154t-295 156t-101 420t118 423.5t316 159.5q145 0 246 -100v530l327 -34v-1520h-290z" />
    <glyph glyph-name="e" unicode="e" 
d="M632 905q-191 0 -210 -260h395q-2 117 -46 188.5t-139 71.5zM1096 115q-190 -150 -451 -150t-407 159.5t-146 413.5t142 420t383 166t380.5 -149t139.5 -410q0 -82 -7 -116h-704q30 -246 260 -246q144 0 272 98z" />
    <glyph glyph-name="f" unicode="f" 
d="M884 1313q-114 0 -155 -35t-41 -115v-143h334l-37 -227h-297v-793h-326v793h-227v227h227v156q0 168 118.5 273t334.5 105q215 0 375 -69l-90 -213q-102 41 -216 41z" />
    <glyph glyph-name="g" unicode="g" 
d="M424 727q0 -84 47 -130t124 -46t120 46t43 136q0 170 -162 170q-78 0 -125 -46t-47 -130zM342 -137q0 -99 223 -99t247 41t24 65q0 48 -52.5 73.5t-185.5 33.5q-246 14 -339 71.5t-93 167.5t119 187q-191 113 -191 308t130.5 304t357.5 109q293 0 528 142l80 -244
q-97 -41 -313 -41v-8q194 -82 194 -275q0 -159 -127.5 -260.5t-339.5 -101.5q-74 0 -135 14q-25 -25 -25 -46t8.5 -33.5t55.5 -26.5t246 -26q198 -13 304.5 -99t106.5 -228q0 -167 -152 -256.5t-429 -89.5q-278 0 -407.5 76.5t-129.5 200.5q0 99 57 168l252 -62
q-14 -37 -14 -65z" />
    <glyph glyph-name="h" unicode="h" 
d="M657 883q-87 0 -188 -131v-752h-328v1520l328 32v-575q139 147 319 147q145 0 222 -85t77 -240v-799h-327v760q0 123 -103 123z" />
    <glyph glyph-name="i" unicode="i" 
d="M645 1290q-84 0 -139 53.5t-55 131t55 131t139 53.5t139.5 -53.5t55.5 -131t-55.5 -131t-139.5 -53.5zM1085 0h-911v223h307v641h-297v223h625v-864h276v-223z" />
    <glyph glyph-name="j" unicode="j" 
d="M682 1290q-84 0 -139.5 53.5t-55.5 131t55.5 131t139.5 53.5t139.5 -53.5t55.5 -131t-55.5 -131t-139.5 -53.5zM539 176v688h-349v223h676v-823q0 -297 -150 -454t-466 -265l-109 242q198 72 298 156.5t100 232.5z" />
    <glyph glyph-name="k" unicode="k" 
d="M141 0v1520l328 34v-1554h-328zM481 596l355 491h342l-355 -481l383 -606h-372z" />
    <glyph glyph-name="l" unicode="l" 
d="M375 385v911h-320v224h647v-1178q0 -66 37 -92.5t106 -26.5t150 33l78 -219q-137 -72 -326 -72q-190 0 -281 114t-91 306z" />
    <glyph glyph-name="m" unicode="m" 
d="M453 870q-58 0 -115 -75v-795h-285v1087h240l22 -104q51 70 103.5 105.5t124.5 35.5q130 0 166 -129q111 129 233 129q123 0 178.5 -75.5t55.5 -243.5v-805h-281v768q0 55 -10.5 78.5t-40.5 23.5q-57 0 -113 -69v-801h-229v768q0 55 -9.5 78.5t-39.5 23.5z" />
    <glyph glyph-name="n" unicode="n" 
d="M657 883q-87 0 -188 -131v-752h-328v1087h287l23 -124q143 162 337 161q145 0 222 -85t77 -240v-799h-327v707q0 98 -21.5 137t-81.5 39z" />
    <glyph glyph-name="o" unicode="o" 
d="M614.5 883q-98.5 0 -145.5 -80t-47 -259t47 -259t145.5 -80t145.5 80t47 259t-47 259t-145.5 80zM1005 967q140 -157 140 -425q0 -269 -139.5 -423t-391.5 -154t-391 151.5t-139 422.5t142.5 428t390.5 157t388 -157z" />
    <glyph glyph-name="p" unicode="p" 
d="M641 883q-98 0 -172 -125v-457q35 -49 70 -72.5t86 -23.5q182 0 182 338q0 275 -63.5 307.5t-102.5 32.5zM748 1124q397 0 397 -577q0 -262 -113 -422t-305 -160q-160 0 -258 113v-498l-328 -35v1542h291l14 -120q120 157 302 157z" />
    <glyph glyph-name="q" unicode="q" 
d="M84 547q0 261 117 419t319 158q166 0 266 -123l15 86h286v-1542l-327 35v510q-107 -125 -279 -125q-397 0 -397 582zM604 885q-182 0 -182 -340q0 -274 63.5 -306t104.5 -32q98 0 170 123v467q-70 88 -156 88z" />
    <glyph glyph-name="r" unicode="r" 
d="M950 801q-185 0 -245 -254v-324h276v-223h-829v223h225v641h-225v223h516l26 -202q37 111 118 173t168 62t148 -18l-53 -318q-53 17 -125 17z" />
    <glyph glyph-name="s" unicode="s" 
d="M567 199q181 0 181 100q0 54 -46 80.5t-166 60.5q-121 33 -183 60.5t-106 67.5t-68.5 94.5t-24.5 165t125.5 203.5t351.5 93q139 0 249.5 -35.5t178.5 -87.5l-131 -192q-124 82 -285 82q-160 0 -160 -82q0 -39 50 -67.5t168 -61.5t181.5 -59.5t134 -86.5t70.5 -220
q0 -161 -148 -255t-368 -94q-299 0 -485 160l164 180q136 -106 317 -106z" />
    <glyph glyph-name="t" unicode="t" 
d="M354 373v489h-227v225h227v236l328 39v-275h350l-33 -225h-317v-489q0 -82 37 -116t129 -34t178 49l109 -209q-158 -98 -366 -98t-311.5 109.5t-103.5 298.5z" />
    <glyph glyph-name="u" unicode="u" 
d="M469 1087v-743q0 -78 28.5 -107.5t78.5 -29.5t99.5 31.5t84.5 85.5v763h327v-1087h-286l-15 127q-55 -80 -145 -121t-188 -41q-160 0 -236 91t-76 247v784h328z" />
    <glyph glyph-name="v" unicode="v" 
d="M57 1087h355l204 -823h9l215 823h331l-362 -1087h-385z" />
    <glyph glyph-name="w" unicode="w" 
d="M1069 0h-360l-88 692h-9l-92 -692h-354l-160 1087h299l64 -847h8l110 710h275l96 -706h8l68 843h289z" />
    <glyph glyph-name="x" unicode="x" 
d="M598 397l-201 -397h-354l373 571l-338 516h366l168 -337h9l161 337h348l-319 -503l375 -584h-371l-209 397h-8z" />
    <glyph glyph-name="y" unicode="y" 
d="M55 1087h346l205 -862h8l224 862h336l-363 -1087q-72 -219 -217 -330.5t-395 -126.5l-37 232q157 20 230 68t120 157h-113z" />
    <glyph glyph-name="z" unicode="z" 
d="M145 0v231l539 611h-494v245h875v-229l-533 -610h543l-31 -248h-899z" />
    <glyph glyph-name="braceleft" unicode="{" 
d="M772 369v-299q0 -78 46 -103.5t138 -25.5v-228q-280 0 -385.5 84t-105.5 295v291q0 117 -47 159t-146 42v266q98 0 145.5 42t47.5 159v288q0 213 105.5 297t385.5 84v-227q-94 0 -139 -25.5t-45 -103.5v-299q0 -245 -103.5 -289.5t-172.5 -54.5v-8q144 -21 210 -98.5
t66 -245.5z" />
    <glyph glyph-name="bar" unicode="|" 
d="M461 1659h305v-1874h-305v1874z" />
    <glyph glyph-name="braceright" unicode="}" 
d="M457 1065v299q0 78 -45 103.5t-140 25.5v227q281 0 386.5 -84t105.5 -297v-288q0 -117 47 -159t145 -42v-266q-98 0 -145 -42t-47 -159v-291q0 -211 -105.5 -295t-386.5 -84v228q92 0 138.5 25.5t46.5 103.5v299q0 244 103.5 288.5t172.5 55.5v8q-145 21 -210.5 99
t-65.5 245z" />
    <glyph glyph-name="asciitilde" unicode="~" 
d="M401 635q-52 0 -93.5 -43t-82.5 -117l-182 82q75 153 134 212.5t114 86.5t128 27t128 -32t101 -71t86 -70.5t93 -31.5t94.5 41t82.5 119l182 -82q-74 -161 -160 -243.5t-216 -82.5q-71 0 -126 32t-101 70.5t-88 70.5t-94 32z" />
    <glyph glyph-name="uni008E" 
d="M84 0v254l661 903h-598v262h986v-256l-648 -893h660l-35 -270h-1026zM645 1765l273 174l116 -133l-289 -268h-200l-291 268l119 133z" />
    <glyph glyph-name="uni009E" 
d="M145 0v231l539 611h-494v245h875v-229l-533 -610h543l-31 -248h-899zM909 1671l117 -133l-289 -287h-200l-291 287l119 133l272 -192z" />
    <glyph glyph-name="uni00A0" unicode="&#xa0;" 
 />
    <glyph glyph-name="exclamdown" unicode="&#xa1;" 
d="M746.5 731q-54.5 -55 -132.5 -55t-132 54t-54 131t55 132.5t131 55.5t131.5 -55.5t55.5 -131.5t-54.5 -131zM745 489l46 -909h-351l43 909h262z" />
    <glyph glyph-name="cent" unicode="&#xa2;" 
d="M502 537q0 -249 84 -281.5t135 -32.5q89 0 201 80l147 -209q-119 -94 -264 -119v-305h-236v312q-199 39 -304 186.5t-105 369.5t107.5 375.5t303.5 194.5v309h234v-305q147 -25 264 -123l-141 -196q-97 79 -204 79t-164.5 -76.5t-57.5 -258.5z" />
    <glyph glyph-name="sterling" unicode="&#xa3;" 
d="M578 1020v-197h372v-170h-372v-153q0 -78 -25 -141.5t-96 -102.5v-8h655l-39 -248h-989v236q112 35 141 93t29 181v143h-150v170h150v205q0 192 124 310t345 118q274 0 422 -209l-201 -145q-75 108 -194 108q-172 0 -172 -190z" />
    <glyph glyph-name="currency" unicode="&#xa4;" 
d="M416 700q0 -227 200 -227q98 0 147.5 59.5t49.5 166.5t-48.5 167t-148.5 60t-150 -59.5t-50 -166.5zM1071 700.5q0 -136.5 -67 -245.5l161 -162l-145 -143l-164 159q-100 -57 -238 -57q-137 0 -245 57l-164 -164l-146 146l164 166q-63 102 -63 243.5t61 243.5l-162 164
l146 145l166 -166q98 59 238 59t243 -59l164 164l145 -145l-159 -162q65 -107 65 -243.5z" />
    <glyph glyph-name="yen" unicode="&#xa5;" 
d="M1055 721v-168h-275v-139h275v-170h-275v-244h-327v244h-271v170h271v139h-271v168h197l-365 698h348l256 -581h9l250 581h337l-362 -698h203z" />
    <glyph glyph-name="brokenbar" unicode="&#xa6;" 
d="M461 530h305v-745h-305v745zM461 1659h305v-746h-305v746z" />
    <glyph glyph-name="section" unicode="&#xa7;" 
d="M496 805q-52 -59 -52 -127q0 -67 48.5 -98.5t238.5 -98.5q53 70 53 133t-50.5 94t-237.5 97zM158 629q0 157 168 260q-119 94 -119 237t124 236.5t336 93.5t382 -115l-115 -190q-125 78 -266 78q-72 0 -109 -26.5t-37 -59.5t8.5 -51.5t43 -43t147.5 -59.5t231.5 -92
t118.5 -229t-162 -275q115 -90 115 -236t-125.5 -237.5t-346.5 -91.5q-220 0 -382 115l111 200q142 -88 270 -88q76 0 118 27t42 60t-7.5 51t-45.5 45.5t-152 61.5q-113 34 -170 61.5t-117.5 83.5t-60.5 184z" />
    <glyph glyph-name="dieresis" unicode="&#xa8;" 
d="M852 1319q-72 0 -121 48t-49 119t49 118t121 47t120 -47.5t48 -117.5t-48 -118.5t-120 -48.5zM376 1319q-71 0 -120 48t-49 119t49 118t120 47t120 -47.5t49 -117.5t-49 -118.5t-120 -48.5z" />
    <glyph glyph-name="copyright" unicode="&#xa9;" 
d="M613 186q-144 0 -255.5 53.5t-187.5 145.5t-115 216t-39 267.5t41 268.5t118 218t188.5 146t253 53t253 -53t187.5 -146t115.5 -218t39.5 -268.5t-39.5 -267.5t-115.5 -216t-188 -145.5t-256 -53.5zM935 481.5q107 151.5 107 386.5q0 376 -157.5 459.5t-318.5 83.5
t-269.5 -153.5t-108.5 -387.5q0 -235 107.5 -387.5t320 -152.5t319.5 151.5zM522 820q0 -173 135 -173q66 0 134 55l92 -135q-107 -102 -257 -102q-151 0 -244 104.5t-93 295.5t95.5 300t244.5 109t243 -98l-100 -125q-57 45 -115 45q-59 0 -97 -51.5t-38 -224.5z" />
    <glyph glyph-name="ordfeminine" unicode="&#xaa;" 
d="M465 918q0 -103 98 -103t160 96v127h-64q-106 0 -150 -29.5t-44 -90.5zM1053 0h-848v223h848v-223zM618 1554q371 0 371 -313v-334q0 -45 14.5 -66.5t47.5 -31.5l-64 -182q-90 10 -144.5 36.5t-84.5 81.5q-105 -122 -261 -122q-155 0 -241 78.5t-86 212.5t114.5 214
t329.5 80h109v25q0 72 -37.5 95.5t-133.5 23.5t-237 -47l-67 186q179 63 370 63z" />
    <glyph glyph-name="guillemotleft" unicode="&#xab;" 
d="M1124 152l-188 -119l-350 450v207l350 451l188 -119l-235 -434zM641 152l-188 -119l-349 450v207l349 451l188 -119l-235 -434z" />
    <glyph glyph-name="logicalnot" unicode="&#xac;" 
d="M1061 211h-270v315h-623v252h893v-567z" />
    <glyph glyph-name="uni00AD" unicode="&#xad;" 
d="M276 514v254h676v-254h-676z" />
    <glyph glyph-name="registered" unicode="&#xae;" 
d="M696 1124q0 66 -108 66h-45v-141h47q106 -1 106 75zM848 1120q0 -114 -119 -159l158 -242h-170l-127 211h-47v-211h-148v581h178q275 0 275 -180zM616.5 571q88.5 0 162 32t126.5 88.5t83 133t30 166.5t-30 168t-83 135.5t-126.5 90t-162 32.5t-163 -32.5t-129 -90
t-85 -135.5t-30.5 -168t30.5 -166.5t85 -133t129 -88.5t163 -32zM615 432q-241 0 -403.5 160.5t-162.5 400t162.5 400.5t403.5 161q242 0 402.5 -162t160.5 -400t-161 -399t-402 -161z" />
    <glyph glyph-name="macron" unicode="&#xaf;" 
d="M928 1374h-629v228h629v-228z" />
    <glyph glyph-name="degree" unicode="&#xb0;" 
d="M512 858q-68 0 -133.5 23.5t-117.5 68.5t-84 110.5t-32 147.5t32 146.5t84 108.5t117.5 67.5t133.5 23.5t133.5 -23.5t117.5 -67.5t84 -108.5t32 -146.5t-32 -147.5t-84 -110.5t-117.5 -68.5t-133.5 -23.5zM512 1049q66 0 103.5 44t37.5 115.5t-37.5 114.5t-103.5 43
t-103.5 -43t-37.5 -114.5t37.5 -115.5t103.5 -44z" />
    <glyph glyph-name="plusminus" unicode="&#xb1;" 
d="M168 0v248h893v-248h-893zM752 803h309v-248h-309v-207h-275v207h-309v248h309v321h275v-321z" />
    <glyph glyph-name="twosuperior" unicode="&#xb2;" 
d="M580 1323q-78 0 -138 -72l-145 107q123 135 319 135q143 0 218 -63q73 -64 73 -152t-61 -150q-61 -61 -230 -135h316l-27 -170h-583v152q223 122 270 164q47 41 58 65q29 62 -10 99q-22 20 -60 20z" />
    <glyph glyph-name="threesuperior" unicode="&#xb3;" 
d="M676 1276q0 53 -82 53t-170 -57l-117 117q131 104 320 104q139 0 213 -51t73 -131q0 -113 -129 -140v-8q160 -21 160 -149q0 -94 -91 -148t-247 -55q-208 0 -321 113l133 112q82 -61 182 -61t100 63q0 31 -21 47q-22 16 -79 17h-108l26 121h82q76 0 76 53z" />
    <glyph glyph-name="acute" unicode="&#xb4;" 
d="M322 1475l442 284l143 -241l-487 -209z" />
    <glyph glyph-name="mu" unicode="&#xb5;" 
d="M571 211q102 0 177 115v761h327v-700q0 -162 25 -387l-295 -29q-20 71 -27 158q-100 -160 -233 -160q-96 0 -162 82l-8 -4q33 -59 51 -121.5t18 -165.5v-180l-309 -33v1540h326v-618q0 -143 13 -184t35.5 -57.5t61.5 -16.5z" />
    <glyph glyph-name="paragraph" unicode="&#xb6;" 
d="M918 1198h-168v-1628l-275 -23v994q-219 20 -328.5 133.5t-109.5 308.5t133 315.5t383 120.5h639v-1849l-274 -23v1651z" />
    <glyph glyph-name="periodcentered" unicode="&#xb7;" 
d="M385 700.5q0 47.5 18.5 89t49 72.5t72.5 49.5t89.5 18.5t89 -18.5t72.5 -49.5t49.5 -72.5t18.5 -89t-18.5 -89.5t-49.5 -72.5t-72.5 -49t-89 -18.5t-89.5 18.5t-72.5 49t-49 72.5t-18.5 89.5z" />
    <glyph glyph-name="cedilla" unicode="&#xb8;" 
d="M674 -98q215 -23 215 -213q0 -94 -83 -161t-223 -67t-245 64l78 149q66 -34 131 -34q104 0 104 63q0 41 -46 54.5t-140 13.5l29 262h180v-131z" />
    <glyph glyph-name="onesuperior" unicode="&#xb9;" 
d="M631 823v430l-160 -82l-109 148l304 162h198v-658h-233z" />
    <glyph glyph-name="ordmasculine" unicode="&#xba;" 
d="M1038 0h-848v223h848v-223zM782 1090q0 262 -168 262t-168 -262t168 -262t168 262zM946.5 1423.5q122.5 -130.5 122.5 -337.5t-122 -335t-333.5 -128t-332.5 127t-121 334t123 338.5t332 131.5t331.5 -130.5z" />
    <glyph glyph-name="guillemotright" unicode="&#xbb;" 
d="M340 588l-236 434l189 119l348 -451v-207l-348 -450l-189 119zM821 588l-235 434l188 119l350 -451v-207l-350 -450l-188 119z" />
    <glyph glyph-name="onequarter" unicode="&#xbc;" 
d="M96 358l-86 156l1096 524l84 -155zM227 774v430l-159 -82l-109 148l303 162h199v-658h-234zM1145 115v-115h-215v115h-371v135l246 426l196 -66l-200 -342h133l31 162h180v-162h88v-153h-88z" />
    <glyph glyph-name="onehalf" unicode="&#xbd;" 
d="M86 358l-86 156l1096 524l84 -155zM227 774v430l-159 -82l-109 148l303 162h199v-658h-234zM956 670q143 0 217 -64t74 -152t-61 -149t-230 -135h316l-27 -170h-583v152q223 122 270 164q47 40 58 64t11 52t-21 47q-22 20 -60 21q-77 0 -138 -72l-145 107
q123 135 319 135z" />
    <glyph glyph-name="threequarters" unicode="&#xbe;" 
d="M111 358l-86 156l1095 524l84 -155zM1184 115v-115h-215v115h-371v135l246 426l196 -66l-200 -342h133l31 162h180v-162h88v-153h-88zM348 1227q0 53 -82 53t-170 -57l-116 116q131 104 319 105q139 0 213 -51t74 -131q0 -115 -129 -140v-8q159 -21 159 -149
q0 -95 -91 -149t-246 -54q-210 0 -322 112l133 113q82 -61 182 -61t101 63q0 31 -22 47t-79 17h-108l26 121h82q76 0 76 53z" />
    <glyph glyph-name="questiondown" unicode="&#xbf;" 
d="M594 -455q-224 0 -347.5 100t-123.5 244q0 188 153 286.5t190.5 154t37.5 119.5v40h297v-65q0 -205 -140 -301t-168 -130t-28 -82t45 -78t117 -30q143 0 254 123l209 -159q-188 -222 -496 -222zM836 861q0 -77 -54 -131t-132 -54t-132.5 55t-54.5 131t55.5 131.5
t131.5 55.5t131 -55.5t55 -132.5z" />
    <glyph glyph-name="Agrave" unicode="&#xc0;" 
d="M459 551h303l-146 600h-10zM817 305h-411l-74 -305h-357l435 1419h411l434 -1419h-364zM801 1538l-490 207l144 244l442 -285z" />
    <glyph glyph-name="Aacute" unicode="&#xc1;" 
d="M459 551h303l-146 600h-10zM817 305h-411l-74 -305h-357l435 1419h411l434 -1419h-364zM322 1706l442 285l143 -244l-487 -207z" />
    <glyph glyph-name="Acircumflex" unicode="&#xc2;" 
d="M459 551h303l-146 600h-10zM817 305h-411l-74 -305h-357l435 1419h411l434 -1419h-364zM342 1532l-119 135l291 266h201l289 -266l-117 -135l-273 172z" />
    <glyph glyph-name="Atilde" unicode="&#xc3;" 
d="M459 551h303l-146 600h-10zM817 305h-411l-74 -305h-357l435 1419h411l434 -1419h-364zM493 1671q-52 0 -100 -86l-164 78q61 165 179 220q41 19 104 20t127 -43q25 -16 45 -30t51 -13q31 -1 53 21t48 65l163 -78q-37 -98 -105 -169t-154 -71q-87 0 -151 43
q-26 16 -46 30t-50 13z" />
    <glyph glyph-name="Adieresis" unicode="&#xc4;" 
d="M459 551h303l-146 600h-10zM817 305h-411l-74 -305h-357l435 1419h411l434 -1419h-364zM852 1548q-72 0 -121 48t-49 118t49 118t121 48t121 -48t49 -118t-49 -118t-121 -48zM377 1548q-72 0 -121 48t-49 118t49 118t121 48t121 -48t49 -118t-49 -118t-121 -48z" />
    <glyph glyph-name="Aring" unicode="&#xc5;" 
d="M459 551h303l-146 600h-10zM817 305h-411l-74 -305h-357l435 1419h411l434 -1419h-364zM403 1592q-75 77 -75 191t78 192t208 78q129 -1 207 -79t78 -192t-77 -192t-207 -79q-129 0 -212 81zM612 1681q41 0 67 26t26 77t-26 76q-26 24 -67 24q-40 0 -66 -24t-26 -76
q0 -51 26 -77t66 -26z" />
    <glyph glyph-name="AE" unicode="&#xc6;" 
d="M393 543h213l-98 620h-10zM1139 834v-230h-279l72 -375h303v-229h-545l-49 311h-285l-55 -311h-326l357 1419h825l-35 -229h-370l67 -356h320z" />
    <glyph glyph-name="Ccedilla" unicode="&#xc7;" 
d="M784 -98q213 -23 213 -213q0 -94 -83 -161t-223 -67t-242 64l75 149q66 -34 131 -34q105 0 105 63q0 41 -46 54.5t-141 13.5l23 204q-242 36 -385 228.5t-143 524.5t184.5 530t478.5 198q154 0 261.5 -43t197.5 -115l-166 -196q-128 102 -268 102q-239 0 -286.5 -181
t-47.5 -309q0 -249 87 -368t239 -119q104 0 175.5 36t131.5 83l153 -196q-176 -166 -424 -183v-65z" />
    <glyph glyph-name="Egrave" unicode="&#xc8;" 
d="M518 1178v-338h492v-238h-492v-358h592v-244h-932v1419h932l-35 -241h-557zM840 1538l-490 207l144 244l442 -285z" />
    <glyph glyph-name="Eacute" unicode="&#xc9;" 
d="M518 1178v-338h492v-238h-492v-358h592v-244h-932v1419h932l-35 -241h-557zM369 1704l442 285l143 -244l-487 -207z" />
    <glyph glyph-name="Ecircumflex" unicode="&#xca;" 
d="M518 1178v-338h492v-238h-492v-358h592v-244h-932v1419h932l-35 -241h-557zM377 1532l-119 135l291 266h201l288 -266l-116 -135l-273 172z" />
    <glyph glyph-name="Edieresis" unicode="&#xcb;" 
d="M518 1178v-338h492v-238h-492v-358h592v-244h-932v1419h932l-35 -241h-557zM883 1548q-72 0 -121 48t-49 118t49 118t121 48t121 -48t49 -118t-49 -118t-121 -48zM408 1548q-72 0 -121 48t-49 118t49 118t121 48t120 -48t50 -118q0 -70 -49 -118t-121 -48z" />
    <glyph glyph-name="Igrave" unicode="&#xcc;" 
d="M152 1419h925v-248h-293v-921h293v-250h-925v250h292v921h-292v248zM803 1538l-490 207l144 244l442 -285z" />
    <glyph glyph-name="Iacute" unicode="&#xcd;" 
d="M152 1419h925v-248h-293v-921h293v-250h-925v250h292v921h-292v248zM322 1704l442 285l143 -244l-487 -207z" />
    <glyph glyph-name="Icircumflex" unicode="&#xce;" 
d="M152 1419h925v-248h-293v-921h293v-250h-925v250h292v921h-292v248zM342 1532l-119 135l291 266h201l289 -266l-117 -135l-273 172z" />
    <glyph glyph-name="Idieresis" unicode="&#xcf;" 
d="M152 1419h925v-248h-293v-921h293v-250h-925v250h292v921h-292v248zM852 1548q-72 0 -121 48t-49 118t49 118t121 48t121 -48t49 -118t-49 -118t-121 -48zM377 1548q-72 0 -121 48t-49 118t49 118t121 48t121 -48t49 -118t-49 -118t-121 -48z" />
    <glyph glyph-name="Eth" unicode="&#xd0;" 
d="M664 267q174 70 174 448q0 379 -179 440q-55 18 -118 19h-70v-349h244v-204h-244v-375h70q68 0 123 21zM1190 718q0 -403 -207 -577q-166 -141 -467 -141h-385v621h-113v204h113v594h361q133 0 259 -27q267 -59 379 -319q60 -137 60 -355z" />
    <glyph glyph-name="Ntilde" unicode="&#xd1;" 
d="M393 530v-530h-289v1419h424l351 -1104h8q-51 249 -51 566v538h288v-1419h-411l-363 1102h-8q51 -280 51 -572zM493 1671q-52 0 -100 -86l-164 78q61 165 179 220q41 19 104 20t127 -43q25 -16 45 -30t51 -13q31 -1 53 21t48 65l163 -78q-37 -98 -105 -169t-154 -71
q-87 0 -151 43q-26 16 -46 30t-50 13z" />
    <glyph glyph-name="Ograve" unicode="&#xd2;" 
d="M617 213q119 0 169 119t50 380t-52 379q-52 117 -170 117q-119 0 -170 -118t-51 -379q0 -262 52 -380t172 -118zM1184 712q0 -347 -149 -547t-422 -200q-274 0 -421 198t-147 544q0 347 148 548t423 201t422 -198q146 -199 146 -546zM801 1538l-490 207l144 244l442 -285
z" />
    <glyph glyph-name="Oacute" unicode="&#xd3;" 
d="M617 213q119 0 169 119t50 380t-52 379q-52 117 -170 117q-119 0 -170 -118t-51 -379q0 -262 52 -380t172 -118zM1184 712q0 -347 -149 -547t-422 -200q-274 0 -421 198t-147 544q0 347 148 548t423 201t422 -198q146 -199 146 -546zM334 1704l442 285l144 -244
l-488 -207z" />
    <glyph glyph-name="Ocircumflex" unicode="&#xd4;" 
d="M617 213q119 0 169 119t50 380t-52 379q-52 117 -170 117q-119 0 -170 -118t-51 -379q0 -262 52 -380t172 -118zM1184 712q0 -347 -149 -547t-422 -200q-274 0 -421 198t-147 544q0 347 148 548t423 201t422 -198q146 -199 146 -546zM342 1532l-119 135l291 266h201
l289 -266l-117 -135l-273 172z" />
    <glyph glyph-name="Otilde" unicode="&#xd5;" 
d="M617 213q119 0 169 119t50 380t-52 379q-52 117 -170 117q-119 0 -170 -118t-51 -379q0 -262 52 -380t172 -118zM1184 712q0 -347 -149 -547t-422 -200q-274 0 -421 198t-147 544q0 347 148 548t423 201t422 -198q146 -199 146 -546zM493 1671q-52 0 -100 -86l-164 78
q61 165 179 220q41 19 104 20t127 -43q25 -16 45 -30t51 -13q31 -1 53 21t48 65l163 -78q-37 -98 -105 -169t-154 -71q-87 0 -151 43q-26 16 -46 30t-50 13z" />
    <glyph glyph-name="Odieresis" unicode="&#xd6;" 
d="M617 213q119 0 169 119t50 380t-52 379q-52 117 -170 117q-119 0 -170 -118t-51 -379q0 -262 52 -380t172 -118zM1184 712q0 -347 -149 -547t-422 -200q-274 0 -421 198t-147 544q0 347 148 548t423 201t422 -198q146 -199 146 -546zM852 1548q-72 0 -121 48t-49 118
t49 118t121 48t121 -48t49 -118t-49 -118t-121 -48zM377 1548q-72 0 -121 48t-49 118t49 118t121 48t121 -48t49 -118t-49 -118t-121 -48z" />
    <glyph glyph-name="multiply" unicode="&#xd7;" 
d="M614 444l-235 -239l-180 180l239 236l-239 235l180 180l235 -239l236 239l180 -180l-239 -235l239 -236l-180 -180z" />
    <glyph glyph-name="Oslash" unicode="&#xd8;" 
d="M582 207h32q121 0 177.5 118t56.5 376t-49 352l-246 -842q14 -4 29 -4zM614 1214q-119 0 -176 -117t-57 -379t49 -360l250 848q-27 8 -66 8zM1184 711q0 -345 -148 -545.5t-422 -200.5q-52 0 -102 8l-78 -252l-229 68l86 274q-246 180 -246 648q0 343 147.5 544
t421.5 201q42 0 105 -10l76 250l229 -68l-86 -270q246 -184 246 -647z" />
    <glyph glyph-name="Ugrave" unicode="&#xd9;" 
d="M84 475v944h342v-815q0 -208 34 -290q38 -97 154 -97t152 91q37 91 37 296v815h342v-944q0 -227 -137 -369t-396 -141q-258 0 -393 138t-135 372zM797 1538l-490 207l144 244l442 -285z" />
    <glyph glyph-name="Uacute" unicode="&#xda;" 
d="M84 475v944h342v-815q0 -208 34 -290q38 -97 154 -97t152 91q37 91 37 296v815h342v-944q0 -227 -137 -369t-396 -141q-258 0 -393 138t-135 372zM326 1704l442 285l143 -244l-487 -207z" />
    <glyph glyph-name="Ucircumflex" unicode="&#xdb;" 
d="M84 475v944h342v-815q0 -208 34 -290q38 -97 154 -97t152 91q37 91 37 296v815h342v-944q0 -227 -137 -369t-396 -141q-258 0 -393 138t-135 372zM342 1532l-119 135l291 266h201l289 -266l-117 -135l-273 172z" />
    <glyph glyph-name="Udieresis" unicode="&#xdc;" 
d="M84 475v944h342v-815q0 -208 34 -290q38 -97 154 -97t152 91q37 91 37 296v815h342v-944q0 -227 -137 -369t-396 -141q-258 0 -393 138t-135 372zM852 1548q-72 0 -121 48t-49 118t49 118t121 48t121 -48t49 -118t-49 -118t-121 -48zM377 1548q-72 0 -121 48t-49 118
t49 118t121 48t121 -48t49 -118t-49 -118t-121 -48z" />
    <glyph glyph-name="Yacute" unicode="&#xdd;" 
d="M784 0h-340v530l-462 889h372l262 -598h9l264 598h358l-463 -887v-532zM326 1704l442 285l143 -244l-487 -207z" />
    <glyph glyph-name="Thorn" unicode="&#xde;" 
d="M827 716q0 126 -62.5 179t-184.5 53h-119v-465h133q111 0 172 53.5t61 179.5zM1182 718q0 -243 -150.5 -361.5t-415.5 -118.5h-155v-238h-342v1419h342v-229h110q291 0 451 -114.5t160 -357.5z" />
    <glyph glyph-name="germandbls" unicode="&#xdf;" 
d="M694 1218q0 106 -120 107q-126 0 -125 -223v-1102h-328v1087q0 221 119.5 344t334.5 123t326 -90t111 -229q0 -70 -29 -116t-63.5 -83t-63.5 -70.5t-29 -76.5t27 -74t65.5 -60.5t151.5 -113t113 -297.5q0 -175 -116 -277t-278 -102q-163 0 -280 64l104 219
q61 -31 115 -31q117 0 117 125q0 91 -56.5 144t-151.5 122.5t-95 218.5q0 70 23.5 119t52 92t52 84.5t23.5 95.5z" />
    <glyph glyph-name="agrave" unicode="&#xe0;" 
d="M668 492q-260 0 -260 -162q0 -61 39 -97q41 -34 99 -34q58 1 114 31t85 87v175h-77zM599 1124q462 0 462 -385v-424q0 -61 16 -89t56 -42l-68 -215q-98 10 -164 43t-104 101q-63 -76 -161 -112t-190 -36q-172 0 -277 96q-103 97 -101 246q0 179 139 275t393 96h145v39
q0 166 -217 166q-131 0 -295 -58l-75 217q212 82 441 82zM807 1245l-488 217l144 244l442 -295z" />
    <glyph glyph-name="aacute" unicode="&#xe1;" 
d="M668 492q-260 0 -260 -162q0 -61 39 -97q41 -34 99 -34q58 1 114 31t85 87v175h-77zM599 1124q462 0 462 -385v-424q0 -61 16 -89t56 -42l-68 -215q-98 10 -164 43t-104 101q-63 -76 -161 -112t-190 -36q-172 0 -277 96q-103 97 -101 246q0 179 139 275t393 96h145v39
q0 166 -217 166q-131 0 -295 -58l-75 217q212 82 441 82zM330 1411l440 295l145 -244l-487 -217z" />
    <glyph glyph-name="acircumflex" unicode="&#xe2;" 
d="M668 492q-260 0 -260 -162q0 -61 39 -97q41 -34 99 -34q58 1 114 31t85 87v175h-77zM599 1124q462 0 462 -385v-424q0 -61 16 -89t56 -42l-68 -215q-98 10 -164 43t-104 101q-63 -76 -161 -112t-190 -36q-172 0 -277 96q-103 97 -101 246q0 179 139 275t393 96h145v39
q0 166 -217 166q-131 0 -295 -58l-75 217q212 82 441 82zM346 1251l-119 133l291 287h201l289 -287l-117 -133l-273 193z" />
    <glyph glyph-name="atilde" unicode="&#xe3;" 
d="M668 492q-260 0 -260 -162q0 -61 39 -97q41 -34 99 -34q58 1 114 31t85 87v175h-77zM599 1124q462 0 462 -385v-424q0 -61 16 -89t56 -42l-68 -215q-98 10 -164 43t-104 101q-63 -76 -161 -112t-190 -36q-172 0 -277 96q-103 97 -101 246q0 179 139 275t393 96h145v39
q0 166 -217 166q-131 0 -295 -58l-75 217q212 82 441 82zM733 1294q-82 0 -186 78q-20 14 -50 14q-51 0 -100 -88l-164 78q37 100 87 151q51 52 92 71t104 20t127 -45q25 -17 45 -31t51 -14t54 22t47 66l164 -78q-37 -99 -88 -152q-52 -52 -93 -72t-90 -20z" />
    <glyph glyph-name="adieresis" unicode="&#xe4;" 
d="M668 492q-260 0 -260 -162q0 -61 39 -97q41 -34 99 -34q58 1 114 31t85 87v175h-77zM599 1124q462 0 462 -385v-424q0 -61 16 -89t56 -42l-68 -215q-98 10 -164 43t-104 101q-63 -76 -161 -112t-190 -36q-172 0 -277 96q-103 97 -101 246q0 179 139 275t393 96h145v39
q0 166 -217 166q-131 0 -295 -58l-75 217q212 82 441 82zM1028 1469q0 -71 -49 -117t-120 -47q-71 0 -121 47q-50 48 -50 118t50 117t121 47t120 -47t49 -118zM383 1305q-72 0 -121 47q-49 48 -49 118t49 117t121 47t121 -47t49 -118t-49 -117t-121 -47z" />
    <glyph glyph-name="aring" unicode="&#xe5;" 
d="M668 492q-260 0 -260 -162q0 -61 39 -97q41 -34 99 -34q58 1 114 31t85 87v175h-77zM599 1124q462 0 462 -385v-424q0 -61 16 -89t56 -42l-68 -215q-98 10 -164 43t-104 101q-63 -76 -161 -112t-190 -36q-172 0 -277 96q-103 97 -101 246q0 179 139 275t393 96h145v39
q0 166 -217 166q-131 0 -295 -58l-75 217q212 82 441 82zM622 1231q-128 0 -207 79q-79 78 -79 194t78 193t206 77t208 -78q79 -78 79 -194t-79 -193q-78 -78 -206 -78zM530 1503q0 -102 91 -102q41 1 67 25t25 76q0 52 -26 77q-27 25 -67 25t-65 -25t-25 -76z" />
    <glyph glyph-name="ae" unicode="&#xe6;" 
d="M260 326q0 -148 92 -148q78 0 142 125q-9 106 -9 191h-43q-100 0 -141 -44t-41 -124zM868 920q-68 0 -99.5 -60.5t-37.5 -220.5h252q-2 145 -24.5 213t-90.5 68zM-12 311q0 359 413 359h84v47q0 207 -182 207q-81 0 -190 -52l-74 179q167 73 297 73q200 0 282 -143
q80 143 266 143t265.5 -143t79.5 -416q0 -53 -6 -102h-492q27 -283 197 -283q88 0 178 66l123 -164q-135 -117 -320 -117q-216 0 -327 172q-62 -91 -125.5 -131.5t-149.5 -40.5q-154 0 -236.5 96t-82.5 250z" />
    <glyph glyph-name="ccedilla" unicode="&#xe7;" 
d="M741 -98q213 -23 213 -213q0 -94 -83 -161t-223 -67t-242 64l77 149q62 -34 129 -34q107 0 107 63q0 41 -47 54.5t-142 13.5l23 209q-205 41 -314.5 188t-109.5 386t154.5 404.5t403.5 165.5t411 -137l-142 -196q-104 81 -237 81q-246 0 -246 -335q0 -247 97.5 -280.5
t148.5 -33.5q122 0 231 82l148 -209q-145 -117 -357 -129v-65z" />
    <glyph glyph-name="egrave" unicode="&#xe8;" 
d="M632 905q-191 0 -210 -260h395q-2 117 -46 189t-139 71zM1096 115q-190 -150 -451 -150q-261 1 -407 159t-146 413t142 421t382 166t381 -149q140 -149 140 -410q0 -82 -7 -116h-704q30 -246 260 -246q144 0 272 98zM811 1245l-487 217l143 244l442 -295z" />
    <glyph glyph-name="eacute" unicode="&#xe9;" 
d="M632 905q-191 0 -210 -260h395q-2 117 -46 189t-139 71zM1096 115q-190 -150 -451 -150q-261 1 -407 159t-146 413t142 421t382 166t381 -149q140 -149 140 -410q0 -82 -7 -116h-704q30 -246 260 -246q144 0 272 98zM336 1411l440 295l146 -244l-488 -217z" />
    <glyph glyph-name="ecircumflex" unicode="&#xea;" 
d="M632 905q-191 0 -210 -260h395q-2 117 -46 189t-139 71zM1096 115q-190 -150 -451 -150q-261 1 -407 159t-146 413t142 421t382 166t381 -149q140 -149 140 -410q0 -82 -7 -116h-704q30 -246 260 -246q144 0 272 98zM354 1251l-118 133l290 287h201l289 -287l-117 -133
l-272 193z" />
    <glyph glyph-name="edieresis" unicode="&#xeb;" 
d="M632 905q-191 0 -210 -260h395q-2 117 -46 189t-139 71zM1096 115q-190 -150 -451 -150q-261 1 -407 159t-146 413t142 421t382 166t381 -149q140 -149 140 -410q0 -82 -7 -116h-704q30 -246 260 -246q144 0 272 98zM1032 1469q0 -71 -49 -117t-120 -47q-71 0 -121 47
q-50 48 -50 118t50 117t121 47t120 -47t49 -118zM387 1305q-72 0 -121 47q-49 48 -49 118t49 117t121 47t121 -47t49 -118t-49 -117t-121 -47z" />
    <glyph glyph-name="igrave" unicode="&#xec;" 
d="M809 223h276v-223h-911v223h307v641h-297v223h625v-864zM799 1245l-488 217l144 244l442 -295z" />
    <glyph glyph-name="iacute" unicode="&#xed;" 
d="M809 223h276v-223h-911v223h307v641h-297v223h625v-864zM326 1411l440 295l145 -244l-487 -217z" />
    <glyph glyph-name="icircumflex" unicode="&#xee;" 
d="M344 1251l-119 133l291 287h201l289 -287l-117 -133l-273 193zM809 223h276v-223h-911v223h307v641h-297v223h625v-864z" />
    <glyph glyph-name="idieresis" unicode="&#xef;" 
d="M1022 1469q0 -71 -49 -117t-120 -47q-71 0 -121 47q-50 48 -50 118t50 117t121 47t120 -47t49 -118zM377 1305q-72 0 -121 47q-49 48 -49 118t49 117t121 47t121 -47t49 -118t-49 -117t-121 -47zM809 223h276v-223h-911v223h307v641h-297v223h625v-864z" />
    <glyph glyph-name="eth" unicode="&#xf0;" 
d="M414 483q0 -280 194 -280q104 0 152.5 78.5t48.5 242.5v76q0 37 -2 72q-80 86 -205 86q-86 0 -137 -66.5t-51 -208.5zM1051 1046.5q90 -202.5 90 -472.5t-143 -439.5t-383 -169.5q-239 0 -387 137.5t-148 367.5q0 229 128 373t295 144q168 0 277 -86l6 2
q-59 175 -211 287l-112 -115l-207 94l117 123q-77 26 -185 47l64 213q170 -25 299 -73l149 155l168 -145l-108 -111q201 -129 291 -331.5z" />
    <glyph glyph-name="ntilde" unicode="&#xf1;" 
d="M657 883q-87 0 -188 -131v-752h-328v1087h287l23 -124q143 162 337 161q144 0 222 -85t77 -240v-799h-327v707q0 98 -22 137t-81 39zM756 1294q-49 0 -90 18t-97 60q-20 14 -50 14q-31 0 -53 -22t-46 -66l-164 78q37 101 87 152t91 70q125 58 277 -56q20 -14 51 -14
q32 0 54 22t46 66l164 -78q-37 -101 -88 -153q-51 -51 -92 -71t-90 -20z" />
    <glyph glyph-name="ograve" unicode="&#xf2;" 
d="M614 883q-98 0 -145 -80t-47 -259t47 -259t145 -80t146 80q47 80 47 259t-47 259q-48 80 -146 80zM1145 542q0 -269 -139 -423q-140 -154 -392 -154t-391 152t-139 422t142 427q142 158 390 158t388 -156q141 -157 141 -426zM801 1245l-488 217l144 244l442 -295z" />
    <glyph glyph-name="oacute" unicode="&#xf3;" 
d="M614 883q-98 0 -145 -80t-47 -259t47 -259t145 -80t146 80q47 80 47 259t-47 259q-48 80 -146 80zM1145 542q0 -269 -139 -423q-140 -154 -392 -154t-391 152t-139 422t142 427q142 158 390 158t388 -156q141 -157 141 -426zM326 1411l440 295l145 -244l-487 -217z" />
    <glyph glyph-name="ocircumflex" unicode="&#xf4;" 
d="M614 883q-98 0 -145 -80t-47 -259t47 -259t145 -80t146 80q47 80 47 259t-47 259q-48 80 -146 80zM1145 542q0 -269 -139 -423q-140 -154 -392 -154t-391 152t-139 422t142 427q142 158 390 158t388 -156q141 -157 141 -426zM344 1251l-119 133l291 287h201l289 -287
l-117 -133l-273 193z" />
    <glyph glyph-name="otilde" unicode="&#xf5;" 
d="M614 883q-98 0 -145 -80t-47 -259t47 -259t145 -80t146 80q47 80 47 259t-47 259q-48 80 -146 80zM1145 542q0 -269 -139 -423q-140 -154 -392 -154t-391 152t-139 422t142 427q142 158 390 158t388 -156q141 -157 141 -426zM731 1294q-82 0 -186 78q-20 14 -50 14
q-51 0 -100 -88l-164 78q62 168 179 222q41 19 104 20t127 -45q25 -17 45 -31t51 -14t54 22t47 66l163 -78q-37 -101 -88 -153q-51 -51 -92 -71t-90 -20z" />
    <glyph glyph-name="odieresis" unicode="&#xf6;" 
d="M614 883q-98 0 -145 -80t-47 -259t47 -259t145 -80t146 80q47 80 47 259t-47 259q-48 80 -146 80zM1145 542q0 -269 -139 -423q-140 -154 -392 -154t-391 152t-139 422t142 427q142 158 390 158t388 -156q141 -157 141 -426zM1022 1469q0 -71 -49 -117t-120 -47
q-71 0 -121 47q-50 48 -50 118t50 117t121 47t120 -47t49 -118zM377 1305q-72 0 -121 47q-49 48 -49 118t49 117t121 47t121 -47t49 -118t-49 -117t-121 -47z" />
    <glyph glyph-name="divide" unicode="&#xf7;" 
d="M482.5 1223q54.5 55 132 55t132 -55t54.5 -131t-54.5 -130.5t-132 -54.5t-132 54.5t-54.5 130.5t54.5 131zM428 213q0 39 14.5 72.5t40 59.5t59 40t72.5 14t73 -14t59.5 -40t40 -59.5t14.5 -72.5t-14.5 -73t-40 -59.5t-59.5 -39.5t-73 -14t-72.5 14t-59 39.5t-40 59.5
t-14.5 73zM168 526v252h893v-252h-893z" />
    <glyph glyph-name="oslash" unicode="&#xf8;" 
d="M813 538q0 173 -39 244l-184 -575q10 -2 16 -2h17q100 0 145 80t45 253zM606 883q-98 0 -144 -80t-46 -260t41 -250l188 588q-10 2 -20 2h-19zM84 545q0 260 143 419.5t387 159.5q40 0 64 -4l78 238l237 -70l-80 -246q113 -72 172.5 -199t59.5 -279q0 -287 -140.5 -443
t-390.5 -156q-31 0 -63 4l-76 -250l-239 70l81 252q-233 138 -233 504z" />
    <glyph glyph-name="ugrave" unicode="&#xf9;" 
d="M469 1087v-743q0 -78 29 -108t79 -29q50 0 99 32t84 85v763h327v-1087h-286l-15 127q-55 -80 -145 -121t-188 -41q-160 0 -236 91t-76 247v784h328zM797 1245l-488 217l144 244l442 -295z" />
    <glyph glyph-name="uacute" unicode="&#xfa;" 
d="M469 1087v-743q0 -78 29 -108t79 -29q50 0 99 32t84 85v763h327v-1087h-286l-15 127q-55 -80 -145 -121t-188 -41q-160 0 -236 91t-76 247v784h328zM336 1411l440 295l146 -244l-488 -217z" />
    <glyph glyph-name="ucircumflex" unicode="&#xfb;" 
d="M469 1087v-743q0 -78 29 -108t79 -29q50 0 99 32t84 85v763h327v-1087h-286l-15 127q-55 -80 -145 -121t-188 -41q-160 0 -236 91t-76 247v784h328zM342 1251l-119 133l291 287h201l289 -287l-117 -133l-273 193z" />
    <glyph glyph-name="udieresis" unicode="&#xfc;" 
d="M469 1087v-743q0 -78 29 -108t79 -29q50 0 99 32t84 85v763h327v-1087h-286l-15 127q-55 -80 -145 -121t-188 -41q-160 0 -236 91t-76 247v784h328zM1022 1469q0 -71 -49 -117t-120 -47q-71 0 -121 47q-50 48 -50 118t50 117t121 47t120 -47t49 -118zM377 1305
q-72 0 -121 47q-49 48 -49 118t49 117t121 47t121 -47t49 -118t-49 -117t-121 -47z" />
    <glyph glyph-name="yacute" unicode="&#xfd;" 
d="M55 1087h346l205 -862h8l224 862h336l-363 -1087q-72 -219 -217 -331t-395 -126l-37 232q159 20 233 69q73 50 117 156h-113zM342 1411l440 295l146 -244l-488 -217z" />
    <glyph glyph-name="thorn" unicode="&#xfe;" 
d="M641 883q-98 0 -172 -125v-457q35 -49 70 -72.5t86 -23.5q182 0 182 338q0 275 -63.5 307.5t-102.5 32.5zM748 1124q397 0 397 -577q0 -262 -113 -422t-305 -160q-160 0 -258 113v-498l-328 -35v1975l328 34v-575q120 145 279 145z" />
    <glyph glyph-name="ydieresis" unicode="&#xff;" 
d="M55 1087h346l205 -862h8l224 862h336l-363 -1087q-72 -219 -217 -331t-395 -126l-37 232q159 20 233 69q73 50 117 156h-113zM1026 1469q0 -71 -49 -117t-120 -47q-71 0 -121 47q-50 48 -50 118t50 117t121 47t120 -47t49 -118zM381 1305q-72 0 -121 47q-49 48 -49 118
t49 117t121 47t121 -47t49 -118t-49 -117t-121 -47z" />
    <glyph glyph-name="Amacron" unicode="&#x100;" 
d="M459 551h303l-146 600h-10zM817 305h-411l-74 -305h-357l435 1419h411l434 -1419h-364zM928 1604h-627v227h627v-227z" />
    <glyph glyph-name="amacron" unicode="&#x101;" 
d="M668 492q-260 0 -260 -162q0 -61 39 -97q41 -34 99 -34q58 1 114 31t85 87v175h-77zM599 1124q462 0 462 -385v-424q0 -61 16 -89t56 -42l-68 -215q-98 10 -164 43t-104 101q-63 -76 -161 -112t-190 -36q-172 0 -277 96q-103 97 -101 246q0 179 139 275t393 96h145v39
q0 166 -217 166q-131 0 -295 -58l-75 217q212 82 441 82zM932 1346h-627v227h627v-227z" />
    <glyph glyph-name="Abreve" unicode="&#x102;" 
d="M459 551h303l-146 600h-10zM817 305h-411l-74 -305h-357l435 1419h411l434 -1419h-364zM614 1765q133 0 174 146l181 -33q-12 -141 -102 -241q-90 -99 -250 -99t-257 102q-83 90 -100 238l180 33q41 -146 174 -146z" />
    <glyph glyph-name="abreve" unicode="&#x103;" 
d="M668 492q-260 0 -260 -162q0 -61 39 -97q41 -34 99 -34q58 1 114 31t85 87v175h-77zM599 1124q462 0 462 -385v-424q0 -61 16 -89t56 -42l-68 -215q-98 10 -164 43t-104 101q-63 -76 -161 -112t-190 -36q-172 0 -277 96q-103 97 -101 246q0 179 139 275t393 96h145v39
q0 166 -217 166q-131 0 -295 -58l-75 217q212 82 441 82zM618 1477q132 0 175 165l180 -30q-13 -150 -106 -256q-93 -105 -249 -105q-157 0 -249 105t-105 256l180 30q18 -74 60 -120t114 -45z" />
    <glyph glyph-name="Aogonek" unicode="&#x104;" 
d="M461 551h301l-146 600h-10zM1067 -244q0 -43 26.5 -71.5t90.5 -28.5t125 29l65 -158q-104 -55 -236 -55t-213 66.5t-81 182.5q0 170 215 279h-168l-74 305h-411l-74 -305h-357l437 1419h409l434 -1419q-188 -109 -188 -244z" />
    <glyph glyph-name="aogonek" unicode="&#x105;" 
d="M668 492q-260 0 -260 -162q0 -61 40 -96t98 -35t114.5 30.5t84.5 87.5v175h-77zM599 1124q462 0 462 -385v-424q0 -61 16.5 -88.5t55.5 -42.5l-68 -215q-76 -42 -110.5 -99.5t-34.5 -107.5q0 -106 106 -106q80 0 133 29l66 -158q-104 -55 -235 -55q-132 0 -213 66.5
t-81 166.5q0 191 222 297q-78 33 -121 111q-63 -76 -161 -112t-190 -36q-174 0 -276 95.5t-102 259.5q0 165 139 261.5t393 96.5h145v39q0 166 -217 166q-131 0 -295 -58l-75 217q212 82 441 82z" />
    <glyph glyph-name="Cacute" unicode="&#x106;" 
d="M762 227q143 0 293 119l153 -196q-190 -185 -487 -185q-298 0 -476 195q-177 195 -177 547t185 551q185 198 478 198q153 0 261 -43t198 -115l-166 -196q-130 104 -268 102q-238 0 -310 -269q-24 -93 -24 -221q1 -368 192 -459q58 -28 148 -28zM422 1704l442 285
l144 -244l-488 -207z" />
    <glyph glyph-name="cacute" unicode="&#x107;" 
d="M719 872q-242 0 -246 -335q0 -248 150 -298q45 -16 96 -16q122 0 231 82l148 -209q-168 -131 -417 -131t-401 158q-151 158 -151 414q0 257 155 422t404 165q248 0 410 -137l-142 -196q-104 81 -237 81zM377 1411l440 295l146 -244l-488 -217z" />
    <glyph glyph-name="Ccircumflex" unicode="&#x108;" 
d="M762 227q143 0 293 119l153 -196q-190 -185 -487 -185q-298 0 -476 195q-177 195 -177 547t185 551q185 198 478 198q153 0 261 -43t198 -115l-166 -196q-130 104 -268 102q-238 0 -310 -269q-24 -93 -24 -221q1 -368 192 -459q58 -28 148 -28zM453 1532l-119 135
l291 266h200l289 -266l-117 -135l-272 172z" />
    <glyph glyph-name="ccircumflex" unicode="&#x109;" 
d="M719 872q-242 0 -246 -335q0 -248 150 -298q45 -16 96 -16q122 0 231 82l148 -209q-168 -131 -417 -131t-401 158q-151 158 -151 414q0 257 155 422t404 165q248 0 410 -137l-142 -196q-104 81 -237 81zM410 1251l-119 133l291 287h200l289 -287l-117 -133l-272 193z" />
    <glyph glyph-name="Cdotaccent" unicode="&#x10a;" 
d="M762 227q143 0 293 119l153 -196q-190 -185 -487 -185q-298 0 -476 195q-177 195 -177 547t185 551q185 198 478 198q153 0 261 -43t198 -115l-166 -196q-130 104 -268 102q-238 0 -310 -269q-24 -93 -24 -221q1 -368 192 -459q58 -28 148 -28zM723 1548q-86 0 -139 54
q-54 54 -54 132q0 79 54 132t139 53q86 0 139 -53t53 -132q0 -78 -53 -132t-139 -54z" />
    <glyph glyph-name="cdotaccent" unicode="&#x10b;" 
d="M719 872q-242 0 -246 -335q0 -248 150 -298q45 -16 96 -16q122 0 231 82l148 -209q-168 -131 -417 -131t-401 158q-151 158 -151 414q0 257 155 422t404 165q248 0 410 -137l-142 -196q-104 81 -237 81zM686 1290q-86 0 -140 53t-54 131t54 132q54 53 140 53t139 -53
t53 -131q0 -77 -52 -131q-54 -54 -140 -54z" />
    <glyph glyph-name="Ccaron" unicode="&#x10c;" 
d="M762 227q143 0 293 119l153 -196q-190 -185 -487 -185q-298 0 -476 195q-177 195 -177 547t185 551q185 198 478 198q153 0 261 -43t198 -115l-166 -196q-130 104 -268 102q-238 0 -310 -269q-24 -93 -24 -221q1 -368 192 -459q58 -28 148 -28zM725 1765l272 174
l117 -133l-289 -268h-200l-291 268l119 133z" />
    <glyph glyph-name="ccaron" unicode="&#x10d;" 
d="M719 872q-242 0 -246 -335q0 -248 150 -298q45 -16 96 -16q122 0 231 82l148 -209q-168 -131 -417 -131t-401 158q-151 158 -151 414q0 257 155 422t404 165q248 0 410 -137l-142 -196q-104 81 -237 81zM954 1671l117 -133l-289 -287h-200l-291 287l119 133l272 -192z
" />
    <glyph glyph-name="Dcaron" unicode="&#x10e;" 
d="M1178 718q0 -218 -58 -358q-110 -266 -374 -329q-124 -31 -257 -31h-385v1419h361q322 0 492 -132q221 -172 221 -569zM641 267q184 71 184 448t-187 440q-56 18 -124 19h-70v-928h70q70 0 127 21zM549 1765l272 174l117 -133l-289 -268h-200l-291 268l118 133z" />
    <glyph glyph-name="dcaron" unicode="&#x10f;" 
d="M450 885q-84 0 -134 -79t-50 -261q0 -276 101 -325q31 -15 67 -15q100 0 174 125v467q-75 88 -158 88zM629 119q-110 -154 -304 -154t-296 157q-101 157 -101 417q0 261 117 423t317 162q145 0 246 -100v530l328 -34v-1520h-291zM1014 1541q0 73 46 120t117 47t117 -45
t45 -115q0 -70 -49 -170l-100 -198h-164l55 235q-67 53 -67 126z" />
    <glyph glyph-name="Dcroat" unicode="&#x110;" 
d="M762 1076q-76 98 -221 98h-70v-349h244v-204h-244v-375h70q147 0 222 104.5t75 365.5q0 262 -76 360zM516 0h-385v621h-113v204h113v594h361q316 0 507 -151.5t191 -551.5q0 -716 -674 -716z" />
    <glyph glyph-name="dcroat" unicode="&#x111;" 
d="M375 545q0 -274 65.5 -307t102.5 -33q101 0 174 125v467q-75 88 -159 88q-83 0 -133 -79t-50 -261zM737 119q-110 -154 -303 -154t-295 155t-102 420t118 424.5t316 159.5q145 0 246 -100v190h-248v191h248v149l327 -34v-115h164v-191h-164v-1214h-290z" />
    <glyph glyph-name="Emacron" unicode="&#x112;" 
d="M518 1178v-338h492v-238h-492v-358h592v-244h-932v1419h932l-35 -241h-557zM961 1604h-627v227h627v-227z" />
    <glyph glyph-name="emacron" unicode="&#x113;" 
d="M632 905q-191 0 -210 -260h395q-2 117 -46 189t-139 71zM1096 115q-190 -150 -451 -150q-261 1 -407 159t-146 413t142 421t382 166t381 -149q140 -149 140 -410q0 -82 -7 -116h-704q30 -246 260 -246q144 0 272 98zM938 1346h-627v227h627v-227z" />
    <glyph glyph-name="Ebreve" unicode="&#x114;" 
d="M518 1178v-338h492v-238h-492v-358h592v-244h-932v1419h932l-35 -241h-557zM647 1765q133 0 174 146l180 -33q-13 -143 -102 -241q-89 -99 -249 -99t-257 102q-83 90 -100 238l180 33q41 -146 174 -146z" />
    <glyph glyph-name="ebreve" unicode="&#x115;" 
d="M632 905q-191 0 -210 -260h395q-2 117 -46 189t-139 71zM1096 115q-190 -150 -451 -150q-261 1 -407 159t-146 413t142 421t382 166t381 -149q140 -149 140 -410q0 -82 -7 -116h-704q30 -246 260 -246q144 0 272 98zM618 1477q132 0 175 165l180 -30q-13 -150 -106 -256
q-93 -105 -249 -105q-157 0 -249 105t-105 256l180 30q18 -74 60 -120t114 -45z" />
    <glyph glyph-name="Edotaccent" unicode="&#x116;" 
d="M518 1178v-338h492v-238h-492v-358h592v-244h-932v1419h932l-35 -241h-557zM643 1548q-86 0 -139 54t-53 132q0 79 53 132t139 53t139 -53q54 -53 54 -132q0 -78 -54 -132t-139 -54z" />
    <glyph glyph-name="edotaccent" unicode="&#x117;" 
d="M632 905q-191 0 -210 -260h395q-2 117 -46 189t-139 71zM1096 115q-190 -150 -451 -150q-261 1 -407 159t-146 413t142 421t382 166t381 -149q140 -149 140 -410q0 -82 -7 -116h-704q30 -246 260 -246q144 0 272 98zM629 1290q-86 0 -141 53q-54 53 -54 131t54 132
q54 53 140 53t140 -53q53 -53 53 -131q0 -77 -53 -131t-139 -54z" />
    <glyph glyph-name="Eogonek" unicode="&#x118;" 
d="M891 -238q0 -106 117 -106q64 0 125 29l65 -158q-104 -55 -236 -55t-213 66.5t-81 182.5q0 170 215 279h-733v1419h931l-37 -241h-555v-338h492v-238h-492v-358h590v-244q-117 -66 -152.5 -128t-35.5 -110z" />
    <glyph glyph-name="eogonek" unicode="&#x119;" 
d="M632 905q-191 0 -210 -260h395q-2 117 -46 188.5t-139 71.5zM735 -244q0 -43 26.5 -71.5t90.5 -28.5t125 29l65 -158q-94 -51 -227 -51q-201 0 -252 87t-51 159t47 137t133 114q-16 -2 -33 -2h-30q-247 0 -392 158.5t-145 410.5t142 418t383 166t380.5 -149t139.5 -410
q0 -82 -7 -116h-704q30 -246 260 -246q144 0 272 98l138 -186q-84 -67 -209 -140q-152 -100 -152 -219z" />
    <glyph glyph-name="Ecaron" unicode="&#x11a;" 
d="M518 1178v-338h492v-238h-492v-358h592v-244h-932v1419h932l-35 -241h-557zM649 1765l273 174l116 -133l-288 -268h-201l-291 268l119 133z" />
    <glyph glyph-name="ecaron" unicode="&#x11b;" 
d="M632 905q-191 0 -210 -260h395q-2 117 -46 189t-139 71zM1096 115q-190 -150 -451 -150q-261 1 -407 159t-146 413t142 421t382 166t381 -149q140 -149 140 -410q0 -82 -7 -116h-704q30 -246 260 -246q144 0 272 98zM899 1671l117 -133l-289 -287h-201l-290 287l118 133
l273 -192z" />
    <glyph glyph-name="Gcircumflex" unicode="&#x11c;" 
d="M211 154q-158 190 -158 549t187 556t473 197q155 0 263 -49t191 -127l-178 -184q-66 57 -124 85q-58 27 -132 27q-234 -2 -305 -270q-25 -94 -25 -230q0 -271 66 -383t209 -112q98 0 174 43v322h-176l-33 237h531v-706q-238 -144 -500 -144q-305 -1 -463 189zM416 1532
l-119 135l291 266h200l289 -266l-116 -135l-273 172z" />
    <glyph glyph-name="gcircumflex" unicode="&#x11d;" 
d="M424 727q0 -84 47 -130t124 -46t120 46t43 136q0 170 -162 170q-78 0 -125 -46t-47 -130zM342 -137q0 -99 225 -99t258 64q25 45 0 83q-32 55 -255 68q-222 13 -313 70t-91 166q0 108 119 188q-191 113 -191 308t131 305t357 108q293 0 528 142l80 -244q-97 -41 -313 -41
v-8q194 -82 194 -275q0 -158 -127 -260t-340 -102q-74 0 -135 14q-25 -25 -25 -46q0 -22 8 -34q24 -36 293 -51q207 -14 313 -100t107 -240q0 -154 -152 -244t-427 -90t-417 81q-122 71 -122 196q0 101 57 168l252 -62q-14 -37 -14 -65zM315 1264l-118 133l290 286h201
l289 -286l-117 -133l-272 192z" />
    <glyph glyph-name="Gbreve" unicode="&#x11e;" 
d="M211 154q-158 190 -158 549t187 556t473 197q155 0 263 -49t191 -127l-178 -184q-66 57 -124 85q-58 27 -132 27q-234 -2 -305 -270q-25 -94 -25 -230q0 -271 66 -383t209 -112q98 0 174 43v322h-176l-33 237h531v-706q-238 -144 -500 -144q-305 -1 -463 189zM686 1765
q133 0 174 146l180 -33q-13 -143 -102 -241q-89 -99 -249 -99t-257 102q-83 90 -100 238l180 33q41 -146 174 -146z" />
    <glyph glyph-name="gbreve" unicode="&#x11f;" 
d="M424 727q0 -84 47 -130t124 -46t120 46t43 136q0 170 -162 170q-78 0 -125 -46t-47 -130zM342 -137q0 -99 225 -99t258 64q25 45 0 83q-32 55 -255 68q-222 13 -313 70t-91 166q0 108 119 188q-191 113 -191 308t131 305t357 108q293 0 528 142l80 -244q-97 -41 -313 -41
v-8q194 -82 194 -275q0 -158 -127 -260t-340 -102q-74 0 -135 14q-25 -25 -25 -46q0 -22 8 -34q24 -36 293 -51q207 -14 313 -100t107 -240q0 -154 -152 -244t-427 -90t-417 81q-122 71 -122 196q0 101 57 168l252 -62q-14 -37 -14 -65zM599 1251q-156 0 -249 107t-104 254
l180 30q40 -165 174 -165t174 165l180 -30q-21 -239 -206 -330q-64 -31 -149 -31z" />
    <glyph glyph-name="Gdotaccent" unicode="&#x120;" 
d="M211 154q-158 190 -158 549t187 556t473 197q155 0 263 -49t191 -127l-178 -184q-66 57 -124 85q-58 27 -132 27q-234 -2 -305 -270q-25 -94 -25 -230q0 -271 66 -383t209 -112q98 0 174 43v322h-176l-33 237h531v-706q-238 -144 -500 -144q-305 -1 -463 189zM688 1548
q-86 0 -139 54t-53 132q0 79 53 132t139 53t139 -53t53 -132q0 -78 -52 -132q-54 -54 -140 -54z" />
    <glyph glyph-name="gdotaccent" unicode="&#x121;" 
d="M424 727q0 -84 47 -130t124 -46t120 46t43 136q0 170 -162 170q-78 0 -125 -46t-47 -130zM342 -137q0 -99 225 -99t258 64q25 45 0 83q-32 55 -255 68q-222 13 -313 70t-91 166q0 108 119 188q-191 113 -191 308t131 305t357 108q293 0 528 142l80 -244q-97 -41 -313 -41
v-8q194 -82 194 -275q0 -158 -127 -260t-340 -102q-74 0 -135 14q-25 -25 -25 -46q0 -22 8 -34q24 -36 293 -51q207 -14 313 -100t107 -240q0 -154 -152 -244t-427 -90t-417 81q-122 71 -122 196q0 101 57 168l252 -62q-14 -37 -14 -65zM600 1290q-86 0 -140 53t-54 131
t54 132q54 53 140 53t139 -53t53 -131q0 -77 -52 -131q-54 -54 -140 -54z" />
    <glyph glyph-name="uni0122" unicode="&#x122;" 
d="M211 154q-158 190 -158 549t187 556t473 197q155 0 263 -49t191 -127l-178 -184q-66 57 -124 85q-58 27 -132 27q-234 -2 -305 -270q-25 -94 -25 -230q0 -271 66 -383t209 -112q98 0 174 43v322h-176l-33 237h531v-706q-238 -144 -500 -144q-305 -1 -463 189zM677 -133
q71 0 117 -45t46 -113t-49 -172l-101 -199h-164l56 236q-66 53 -67 126t45 120t117 47z" />
    <glyph glyph-name="uni0123" unicode="&#x123;" 
d="M424 727q0 -84 47 -130t124 -46t120 46t43 136q0 170 -162 170q-78 0 -125 -46t-47 -130zM342 -137q0 -99 225 -99t258 64q25 45 0 83q-32 55 -255 68q-222 13 -313 70t-91 166q0 108 119 188q-191 113 -191 308t131 305t357 108q293 0 528 142l80 -244q-97 -41 -313 -41
v-8q194 -82 194 -275q0 -158 -127 -260t-340 -102q-74 0 -135 14q-25 -25 -25 -46q0 -22 8 -34q24 -36 293 -51q207 -14 313 -100t107 -240q0 -154 -152 -244t-427 -90t-417 81q-122 71 -122 196q0 101 57 168l252 -62q-14 -37 -14 -65zM597 1264q-71 0 -117 45t-46 114
t49 170l101 199h164l-56 -236q66 -53 67 -126q1 -74 -45 -120t-117 -46z" />
    <glyph glyph-name="Hcircumflex" unicode="&#x124;" 
d="M784 0v606h-340v-606h-340v1419h340v-549h340v549h340v-1419h-340zM342 1532l-119 135l291 266h201l289 -266l-117 -135l-273 172z" />
    <glyph glyph-name="hcircumflex" unicode="&#x125;" 
d="M657 883q-87 0 -188 -131v-752h-328v1520l328 32v-575q139 147 319 147q144 0 222 -85t77 -240v-799h-327v760q0 123 -103 123zM348 1614l-119 135l291 266h201l289 -266l-117 -135l-272 172z" />
    <glyph glyph-name="Hbar" unicode="&#x126;" 
d="M780 870v154h-327v-154h327zM780 0v606h-327v-606h-334v1024h-109v188h109v207h334v-207h327v207h334v-207h111v-188h-111v-1024h-334z" />
    <glyph glyph-name="hbar" unicode="&#x127;" 
d="M662 883q-88 0 -189 -131v-752h-328v1214h-125v191h125v115l328 32v-147h287v-191h-287v-237q139 147 320 147q145 0 222 -85t77 -240v-799h-328v760q0 123 -102 123z" />
    <glyph glyph-name="Itilde" unicode="&#x128;" 
d="M152 1419h925v-248h-293v-921h293v-250h-925v250h292v921h-292v248zM493 1671q-52 0 -100 -86l-164 78q61 165 179 220q41 19 104 20t127 -43q25 -16 45 -30t51 -13q31 -1 53 21t48 65l163 -78q-37 -98 -105 -169t-154 -71q-87 0 -151 43q-26 16 -46 30t-50 13z" />
    <glyph glyph-name="itilde" unicode="&#x129;" 
d="M809 223h276v-223h-911v223h307v641h-297v223h625v-864zM725 1294q-82 0 -186 78q-20 14 -50 14q-51 0 -100 -88l-164 78q61 167 178 222q41 19 105 20t127 -45q25 -17 45 -31t51 -14t53 22t47 66l164 -78q-37 -101 -88 -153q-51 -51 -92 -71t-90 -20z" />
    <glyph glyph-name="Imacron" unicode="&#x12a;" 
d="M152 1419h925v-248h-293v-921h293v-250h-925v250h292v921h-292v248zM928 1604h-627v227h627v-227z" />
    <glyph glyph-name="imacron" unicode="&#x12b;" 
d="M922 1346h-627v227h627v-227zM809 223h276v-223h-911v223h307v641h-297v223h625v-864z" />
    <glyph glyph-name="Ibreve" unicode="&#x12c;" 
d="M152 1419h925v-248h-293v-921h293v-250h-925v250h292v921h-292v248zM614 1765q133 0 174 146l181 -33q-12 -141 -102 -241q-90 -99 -250 -99t-257 102q-83 90 -100 238l180 33q41 -146 174 -146z" />
    <glyph glyph-name="ibreve" unicode="&#x12d;" 
d="M616 1477q132 0 175 165l180 -30q-13 -150 -106 -256q-93 -105 -249 -105q-157 0 -249 105t-105 256l180 30q18 -74 60 -120t114 -45zM809 223h276v-223h-911v223h307v641h-297v223h625v-864z" />
    <glyph glyph-name="Iogonek" unicode="&#x12e;" 
d="M373 -279q0 82 56 154t161 125h-438v250h292v921h-292v248h925v-248h-293v-921h293v-250h-293q-188 -109 -188 -244q0 -43 26.5 -71.5t90.5 -28.5t125 29l65 -158q-104 -55 -235 -55t-213 66.5t-82 182.5z" />
    <glyph glyph-name="iogonek" unicode="&#x12f;" 
d="M645 1290q-84 0 -139 53.5t-55 131t55 131t139 53.5t139.5 -53.5t55.5 -131t-55.5 -131t-139.5 -53.5zM397 -279q0 82 55.5 154t159.5 125h-438v223h307v641h-297v223h625v-864h276v-223h-276q-188 -109 -188 -244q0 -43 26.5 -71.5t91.5 -28.5t123 29l66 -158
q-104 -55 -236 -55q-133 0 -214 66.5t-81 182.5z" />
    <glyph glyph-name="Idotaccent" unicode="&#x130;" 
d="M152 1419h925v-248h-293v-921h293v-250h-925v250h292v921h-292v248zM614 1548q-86 0 -139 54t-53 132q0 79 53 132t139 53t140 -53t53 -132q1 -78 -53 -132t-140 -54z" />
    <glyph glyph-name="dotlessi" unicode="&#x131;" 
d="M809 223h276v-223h-911v223h307v641h-297v223h625v-864z" />
    <glyph glyph-name="IJ" unicode="&#x132;" 
d="M813 334v876h-336v-999h107v-211h-568v211h148v999h-148v209h1125v-1071q0 -413 -259 -544.5t-431 -180.5l-80 230q255 80 348.5 179.5t93.5 301.5z" />
    <glyph glyph-name="ij" unicode="&#x133;" 
d="M373 1290q-86 0 -139.5 53.5t-53.5 131t53.5 131t139.5 53.5t141 -53.5t55 -131t-55 -131t-141 -53.5zM934 1290q-84 0 -139.5 53.5t-55.5 131t55.5 131t139.5 53.5t139 -53.5t55 -131t-55 -131t-139 -53.5zM639 0h-567v223h139v643h-129v221h1036v-833
q0 -303 -119.5 -428t-234.5 -180.5t-262 -100.5l-109 242q100 31 175 64.5t150 108t75 265.5v641h-258v-643h104v-223z" />
    <glyph glyph-name="Jcircumflex" unicode="&#x134;" 
d="M176 1419h801v-1044q0 -290 -185 -459q-185 -168 -544 -266l-80 241q255 77 362 183t107 286v811h-461v248zM389 1532l-119 135l291 266h201l289 -266l-117 -135l-272 172z" />
    <glyph glyph-name="jcircumflex" unicode="&#x135;" 
d="M393 1251l-119 133l291 287h201l289 -287l-117 -133l-272 193zM866 197q0 -367 -374 -551q-113 -55 -242 -101l-109 242q195 70 267 130q71 59 101 119t30 140v688h-349v223h676v-890z" />
    <glyph glyph-name="uni0136" unicode="&#x136;" 
d="M469 758l383 661h356l-397 -637l436 -782h-393zM459 0h-340v1419h340v-1419zM416 -300q0 73 46 120t117 47t117 -45t45 -115q0 -70 -49 -170l-100 -199h-164l55 236q-67 53 -67 126z" />
    <glyph glyph-name="uni0137" unicode="&#x137;" 
d="M141 0v1520l328 34v-1554h-328zM481 596l355 491h342l-355 -481l383 -606h-372zM453 -300q0 73 46 120q47 47 117 47t116 -45t46 -115t-49 -170l-100 -199h-164l55 236q-67 53 -67 126z" />
    <glyph glyph-name="kgreenlandic" unicode="&#x138;" 
d="M141 0v1087h328v-1087h-328zM481 565l355 522h342l-357 -499l385 -588h-372z" />
    <glyph glyph-name="Lacute" unicode="&#x139;" 
d="M188 0v1419h340v-1151h615l-35 -268h-920zM96 1704l443 285l143 -244l-487 -207z" />
    <glyph glyph-name="lacute" unicode="&#x13a;" 
d="M375 385v911h-320v224h647v-1178q0 -66 37 -92t109 -27q72 0 147 33l78 -219q-137 -72 -326 -72q-190 0 -281 114t-91 306zM242 1778l442 284l143 -243l-487 -207z" />
    <glyph glyph-name="uni013B" unicode="&#x13b;" 
d="M188 0v1419h340v-1151h615l-35 -268h-920zM638 -133q71 0 117 -45t46 -113t-49 -172l-101 -199h-164l56 236q-66 53 -67 126t45 120t117 47z" />
    <glyph glyph-name="uni013C" unicode="&#x13c;" 
d="M375 385v911h-320v224h647v-1178q0 -66 37 -92t109 -27q72 0 147 33l78 -219q-137 -72 -326 -72q-190 0 -281 114t-91 306zM722 -133q71 0 117 -45t46 -113t-49 -172l-101 -199h-164l56 236q-66 53 -67 126t45 120t117 47z" />
    <glyph glyph-name="Lcaron" unicode="&#x13d;" 
d="M188 0v1419h340v-1151h615l-35 -268h-920zM680 1285q0 73 46 120t117 47t117 -45q92 -91 -4 -285l-100 -198h-164l56 235q-68 53 -68 126z" />
    <glyph glyph-name="lcaron" unicode="&#x13e;" 
d="M375 385v911h-320v224h647v-1178q0 -66 37 -92t109 -27q72 0 147 33l78 -219q-137 -72 -326 -72q-190 0 -281 114t-91 306zM978 1712q71 0 117 -45t46 -112t-49 -173l-101 -198h-164l56 235q-66 52 -67 126q-1 73 45 120t117 47z" />
    <glyph glyph-name="Ldot" unicode="&#x13f;" 
d="M188 0v1419h340v-1151h615l-35 -268h-920zM862 592q-86 0 -140 53t-54 131t54 131t140 53t139 -52q53 -54 53 -132t-52 -131q-54 -53 -140 -53z" />
    <glyph glyph-name="ldot" unicode="&#x140;" 
d="M338 385v911h-320v224h648v-1178q0 -66 36 -92t109 -27q72 0 147 33l78 -219q-137 -72 -326 -72q-190 0 -281 114t-91 306zM944 571q-86 -1 -140 53t-54 132t54 131t140 53t139 -53t53 -131t-52 -132q-54 -54 -140 -53z" />
    <glyph glyph-name="Lslash" unicode="&#x141;" 
d="M219 0v467l-92 -57l-111 180l203 125v704h340v-495l252 157l113 -176l-365 -227v-410h615l-35 -268h-920z" />
    <glyph glyph-name="lslash" unicode="&#x142;" 
d="M375 358v166l-90 -53l-115 182l205 125v518h-320v224h647v-541l132 82l116 -184l-248 -152v-383q0 -66 37 -92.5t106 -26.5t150 33l78 -219q-137 -72 -323 -72q-187 0 -281 106.5t-94 286.5z" />
    <glyph glyph-name="Nacute" unicode="&#x143;" 
d="M393 530v-530h-289v1419h424l351 -1104h8q-51 249 -51 566v538h288v-1419h-411l-363 1102h-8q51 -280 51 -572zM346 1704l442 285l144 -244l-488 -207z" />
    <glyph glyph-name="nacute" unicode="&#x144;" 
d="M657 883q-87 0 -188 -131v-752h-328v1087h287l23 -124q143 162 337 161q144 0 222 -85t77 -240v-799h-327v707q0 98 -22 137t-81 39zM356 1411l441 295l145 -244l-487 -217z" />
    <glyph glyph-name="uni0145" unicode="&#x145;" 
d="M393 530v-530h-289v1419h424l351 -1104h8q-51 249 -51 566v538h288v-1419h-411l-363 1102h-8q51 -280 51 -572zM469 -300q0 73 46 120t117 47t117 -45t46 -114t-50 -171l-100 -199h-164l56 236q-68 53 -68 126z" />
    <glyph glyph-name="uni0146" unicode="&#x146;" 
d="M657 883q-87 0 -188 -131v-752h-328v1087h287l23 -124q143 162 337 161q144 0 222 -85t77 -240v-799h-327v707q0 98 -22 137t-81 39zM610 -133q70 0 116 -45t46 -115t-49 -170l-100 -199h-164l55 236q-66 53 -67 126t45 120q48 47 118 47z" />
    <glyph glyph-name="Ncaron" unicode="&#x147;" 
d="M393 530v-530h-289v1419h424l351 -1104h8q-51 249 -51 566v538h288v-1419h-411l-363 1102h-8q51 -280 51 -572zM614 1765l273 174l117 -133l-289 -268h-201l-291 268l119 133z" />
    <glyph glyph-name="ncaron" unicode="&#x148;" 
d="M657 883q-87 0 -188 -131v-752h-328v1087h287l23 -124q143 162 337 161q144 0 222 -85t77 -240v-799h-327v707q0 98 -22 137t-81 39zM915 1671l117 -133l-289 -287h-200l-291 287l119 133l272 -192z" />
    <glyph glyph-name="napostrophe" unicode="&#x149;" 
d="M657 883q-87 0 -188 -131v-752h-328v1087h287l23 -124q143 162 337 161q144 0 222 -85t77 -240v-799h-327v707q0 98 -22 137t-81 39zM27 1633q0 73 46 120q47 47 117 47t116 -45t46 -114t-49 -171l-100 -198h-164l55 235q-67 53 -67 126z" />
    <glyph glyph-name="Eng" unicode="&#x14a;" 
d="M836 881v538h288v-1323q0 -230 -119.5 -353t-336.5 -198l-72 217q121 49 173 100.5t62 137.5h-118l-363 1102h-8q51 -280 51 -572v-530h-289v1419h424l351 -1104h8q-51 249 -51 566z" />
    <glyph glyph-name="eng" unicode="&#x14b;" 
d="M657 883q-87 0 -188 -131v-752h-328v1087h287l23 -124q143 162 337 161q145 0 222 -85t77 -240v-674q0 -248 -107 -370.5t-329 -209.5l-114 240q116 50 169.5 117t53.5 202v603q0 98 -21.5 137t-81.5 39z" />
    <glyph glyph-name="Omacron" unicode="&#x14c;" 
d="M617 213q119 0 169 119t50 380t-52 379q-52 117 -170 117q-119 0 -170 -118t-51 -379q0 -262 52 -380t172 -118zM1184 712q0 -347 -149 -547t-422 -200q-274 0 -421 198t-147 544q0 347 148 548t423 201t422 -198q146 -199 146 -546zM928 1604h-627v227h627v-227z" />
    <glyph glyph-name="omacron" unicode="&#x14d;" 
d="M614 883q-98 0 -145 -80t-47 -259t47 -259t145 -80t146 80q47 80 47 259t-47 259q-48 80 -146 80zM1145 542q0 -269 -139 -423q-140 -154 -392 -154t-391 152t-139 422t142 427q142 158 390 158t388 -156q141 -157 141 -426zM928 1346h-627v227h627v-227z" />
    <glyph glyph-name="Obreve" unicode="&#x14e;" 
d="M617 213q119 0 169 119t50 380t-52 379q-52 117 -170 117q-119 0 -170 -118t-51 -379q0 -262 52 -380t172 -118zM1184 712q0 -347 -149 -547t-422 -200q-274 0 -421 198t-147 544q0 347 148 548t423 201t422 -198q146 -199 146 -546zM614 1765q133 0 174 146l181 -33
q-12 -141 -102 -241q-90 -99 -250 -99t-257 102q-83 90 -100 238l180 33q41 -146 174 -146z" />
    <glyph glyph-name="obreve" unicode="&#x14f;" 
d="M614 883q-98 0 -145 -80t-47 -259t47 -259t145 -80t146 80q47 80 47 259t-47 259q-48 80 -146 80zM1145 542q0 -269 -139 -423q-140 -154 -392 -154t-391 152t-139 422t142 427q142 158 390 158t388 -156q141 -157 141 -426zM614 1477q133 0 174 165l181 -30
q-13 -150 -106 -256q-93 -105 -249 -105q-157 0 -249 105t-105 256l180 30q18 -74 60 -120t114 -45z" />
    <glyph glyph-name="Ohungarumlaut" unicode="&#x150;" 
d="M617 213q119 0 169 119t50 380t-52 379q-52 117 -170 117q-119 0 -170 -118t-51 -379q0 -262 52 -380t172 -118zM1184 712q0 -347 -149 -547t-422 -200q-274 0 -421 198t-147 544q0 347 148 548t423 201t422 -198q146 -199 146 -546zM653 1653l207 399l219 -106
l-258 -373zM319 1649l205 403l221 -102l-256 -375z" />
    <glyph glyph-name="ohungarumlaut" unicode="&#x151;" 
d="M614 883q-98 0 -145 -80t-47 -259t47 -259t145 -80t146 80q47 80 47 259t-47 259q-48 80 -146 80zM1145 542q0 -269 -139 -423q-140 -154 -392 -154t-391 152t-139 422t142 427q142 158 390 158t388 -156q141 -157 141 -426zM657 1358l207 399l219 -106l-258 -373z
M324 1354l204 403l222 -102l-256 -375z" />
    <glyph glyph-name="OE" unicode="&#x152;" 
d="M621 713q0 141 -7.5 239.5t-26 158.5t-49 87t-75.5 27t-75 -28t-47 -89t-24.5 -159.5t-7.5 -238t8.5 -237.5t26.5 -159.5t47 -90t72 -28.5t73.5 28.5t49 90t27 160t8.5 239.5zM461 1456q85 0 196 -37h564l-35 -229h-369q66 -131 78 -356h248v-230h-246q-11 -226 -90 -375
h414v-229h-572q-112 -35 -209 -35q-96 0 -258 94.5t-162 651.5q0 745 441 745z" />
    <glyph glyph-name="oe" unicode="&#x153;" 
d="M888 920q-62 0 -94 -60.5t-40 -220.5h241q-2 145 -23.5 213t-83.5 68zM372 883q-64 0 -91 -76t-27 -217t6 -206t20.5 -104.5t37 -57t72 -17.5t76 74.5t26.5 262.5q0 189 -28 265t-92 76zM1241 565q0 -53 -6 -102h-479q12 -147 58 -215t130 -68t174 66l123 -164
q-135 -117 -311 -117q-208 0 -312 162q-37 -76 -97 -119t-161 -43q-376 0 -376 580q0 416 139 497.5t240 81.5q183 0 262 -170q92 170 276 170t262 -144t78 -415z" />
    <glyph glyph-name="Racute" unicode="&#x154;" 
d="M580 774q221 0 221 208q1 108 -59 154t-177 46h-108v-408h123zM1151 987q0 -141 -82 -247q-74 -91 -201 -142l371 -598h-381l-305 541h-96v-541h-340v1419h448q293 0 440 -104q146 -105 146 -328zM305 1704l443 285l143 -244l-488 -207z" />
    <glyph glyph-name="racute" unicode="&#x155;" 
d="M935 801q-87 0 -145 -72t-85 -182v-324h276v-223h-829v223h225v641h-225v223h516l26 -202q37 111 118 173t168 62t148 -18l-53 -318q-53 17 -140 17zM371 1411l440 295l145 -244l-487 -217z" />
    <glyph glyph-name="uni0156" unicode="&#x156;" 
d="M580 774q221 0 221 208q1 108 -59 154t-177 46h-108v-408h123zM1151 987q0 -141 -82 -247q-74 -91 -201 -142l371 -598h-381l-305 541h-96v-541h-340v1419h448q293 0 440 -104q146 -105 146 -328zM459 -300q0 73 46 120t117 47q70 0 116 -45t46 -115t-49 -170l-100 -199
h-164l55 236q-67 53 -67 126z" />
    <glyph glyph-name="uni0157" unicode="&#x157;" 
d="M935 801q-87 0 -145 -72t-85 -182v-324h276v-223h-829v223h225v641h-225v223h516l26 -202q37 111 118 173t168 62t148 -18l-53 -318q-53 17 -140 17zM550 -133q71 0 117 -45t46 -113t-49 -172l-101 -199h-164l56 236q-66 53 -67 126t45 120t117 47z" />
    <glyph glyph-name="Rcaron" unicode="&#x158;" 
d="M580 774q221 0 221 208q1 108 -59 154t-177 46h-108v-408h123zM1151 987q0 -141 -82 -247q-74 -91 -201 -142l371 -598h-381l-305 541h-96v-541h-340v1419h448q293 0 440 -104q146 -105 146 -328zM590 1765l272 174l117 -133l-289 -268h-201l-290 268l118 133z" />
    <glyph glyph-name="rcaron" unicode="&#x159;" 
d="M935 801q-87 0 -145 -72t-85 -182v-324h276v-223h-829v223h225v641h-225v223h516l26 -202q37 111 118 173t168 62t148 -18l-53 -318q-53 17 -140 17zM915 1671l117 -133l-289 -287h-200l-291 287l119 133l272 -192z" />
    <glyph glyph-name="Sacute" unicode="&#x15a;" 
d="M457 1069q0 -67 58 -105q41 -28 182 -76t221 -86q162 -78 219 -217q28 -71 28 -170q0 -201 -155 -326q-155 -124 -420 -124q-195 -1 -337 59t-230 146l172 190q159 -143 383 -143q104 0 168 45t65 125q0 80 -56 124t-189 85q-251 77 -356 180q-106 104 -106 266
q0 193 154 303q154 111 383 111q314 0 506 -184l-160 -185q-148 121 -319 119q-96 0 -154 -35t-57 -102zM340 1704l442 285l144 -244l-488 -207z" />
    <glyph glyph-name="sacute" unicode="&#x15b;" 
d="M566 199q180 0 182 100q0 52 -48 81q-48 28 -166 60q-119 33 -181 61q-202 91 -199 287q0 149 126 244q126 94 351 92q139 0 250 -36t178 -87l-131 -192q-124 82 -285 82q-160 0 -160 -82q0 -39 38 -60q38 -22 88 -39t130 -40q178 -51 253 -115q97 -82 95 -229
q0 -173 -148 -267t-368 -94q-299 0 -485 160l164 180q136 -106 316 -106zM342 1411l440 295l146 -244l-488 -217z" />
    <glyph glyph-name="Scircumflex" unicode="&#x15c;" 
d="M457 1069q0 -67 58 -105q41 -28 182 -76t221 -86q162 -78 219 -217q28 -71 28 -170q0 -201 -155 -326q-155 -124 -420 -124q-195 -1 -337 59t-230 146l172 190q159 -143 383 -143q104 0 168 45t65 125q0 80 -56 124t-189 85q-251 77 -356 180q-106 104 -106 266
q0 193 154 303q154 111 383 111q314 0 506 -184l-160 -185q-148 121 -319 119q-96 0 -154 -35t-57 -102zM379 1532l-119 135l291 266h201l288 -266l-116 -135l-273 172z" />
    <glyph glyph-name="scircumflex" unicode="&#x15d;" 
d="M566 199q180 0 182 100q0 52 -48 81q-48 28 -166 60q-119 33 -181 61q-202 91 -199 287q0 149 126 244q126 94 351 92q139 0 250 -36t178 -87l-131 -192q-124 82 -285 82q-160 0 -160 -82q0 -39 38 -60q38 -22 88 -39t130 -40q178 -51 253 -115q97 -82 95 -229
q0 -173 -148 -267t-368 -94q-299 0 -485 160l164 180q136 -106 316 -106zM356 1251l-118 133l290 287h201l289 -287l-117 -133l-272 193z" />
    <glyph glyph-name="Scedilla" unicode="&#x15e;" 
d="M698 -98q213 -23 213 -213q0 -94 -83 -161t-222 -67t-244 64l76 149q66 -34 131 -34q107 0 107 63q0 41 -47 54.5t-142 13.5l21 198q-164 12 -286 67.5t-199 133.5l172 190q159 -143 383 -143q104 0 168.5 45t64.5 124t-55 123t-189 86q-253 79 -358 182t-105 265
q0 191 154 302.5t383 111.5q314 0 506 -184l-160 -185q-145 119 -319 119q-96 0 -153.5 -34.5t-57.5 -101.5t53 -103t190 -81t301 -124t164 -344q0 -182 -122.5 -302t-344.5 -145v-69z" />
    <glyph glyph-name="scedilla" unicode="&#x15f;" 
d="M672 -98q213 -23 213 -213q0 -94 -83 -161t-222 -67t-244 64l78 149q62 -34 129 -34q106 0 106 63q0 41 -47 54.5t-141 13.5l22 198q-243 19 -397 156l164 180q136 -106 317 -106t181 100q0 54 -46 80.5t-166 60.5q-121 33 -183 60.5t-106 67.5t-68.5 94.5t-24.5 165
t125.5 203.5t351.5 93q139 0 249.5 -35.5t178.5 -87.5l-131 -192q-124 82 -285 82q-160 0 -160 -82q0 -39 50 -67.5t168 -61.5t181.5 -59.5t109.5 -65.5t70.5 -94t24.5 -171.5t-115 -208t-300 -110.5v-69z" />
    <glyph glyph-name="Scaron" unicode="&#x160;" 
d="M457 1069q0 -67 58 -105q41 -28 182 -76t221 -86q162 -78 219 -217q28 -71 28 -170q0 -201 -155 -326q-155 -124 -420 -124q-195 -1 -337 59t-230 146l172 190q159 -143 383 -143q104 0 168 45t65 125q0 80 -56 124t-189 85q-251 77 -356 180q-106 104 -106 266
q0 193 154 303q154 111 383 111q314 0 506 -184l-160 -185q-148 121 -319 119q-96 0 -154 -35t-57 -102zM649 1765l273 174l116 -133l-288 -268h-201l-291 268l119 133z" />
    <glyph glyph-name="scaron" unicode="&#x161;" 
d="M566 199q180 0 182 100q0 52 -48 81q-48 28 -166 60q-119 33 -181 61q-202 91 -199 287q0 149 126 244q126 94 351 92q139 0 250 -36t178 -87l-131 -192q-124 82 -285 82q-160 0 -160 -82q0 -39 38 -60q38 -22 88 -39t130 -40q178 -51 253 -115q97 -82 95 -229
q0 -173 -148 -267t-368 -94q-299 0 -485 160l164 180q136 -106 316 -106zM899 1671l117 -133l-289 -287h-201l-290 287l118 133l273 -192z" />
    <glyph glyph-name="uni0162" unicode="&#x162;" 
d="M782 -98q215 -23 215 -213q0 -94 -83 -161t-223 -67t-242 64l75 149q66 -34 131 -34q105 0 105 63q0 41 -46 54.5t-141 13.5l25 229h-156v1159h-397v260h1151l-35 -260h-379v-1257z" />
    <glyph glyph-name="uni0163" unicode="&#x163;" 
d="M840 -98q215 -23 215 -213q0 -94 -83 -161t-222 -67t-244 64l76 149q66 -34 131 -34q104 0 104 63q0 41 -46 54.5t-140 13.5l22 206q-299 56 -299 396v489h-227v225h227v236l328 39v-275h350l-33 -225h-317v-489q0 -82 37 -116t129 -34t178 49l109 -209
q-115 -77 -295 -94v-67z" />
    <glyph glyph-name="Tcaron" unicode="&#x164;" 
d="M782 1159v-1159h-340v1159h-397v260h1151l-35 -260h-379zM606 1765l273 174l116 -133l-288 -268h-201l-291 268l119 133z" />
    <glyph glyph-name="tcaron" unicode="&#x165;" 
d="M354 862h-227v225h227v236l328 39v-275h350l-33 -225h-317v-489q0 -82 37 -116t129 -34t178 49l109 -209q-158 -98 -366 -98t-311 110t-104 298v489zM935 1747q71 0 117 -45t46 -113t-49 -172l-101 -198h-164l56 235q-66 53 -67 126t45 120t117 47z" />
    <glyph glyph-name="Tbar" unicode="&#x166;" 
d="M1022 641h-240v-641h-340v641h-237v190h237v328h-397v260h1151l-35 -260h-379v-328h240v-190z" />
    <glyph glyph-name="tbar" unicode="&#x167;" 
d="M354 373v162h-202v204h202v123h-227v225h227v236l328 39v-275h350l-33 -225h-317v-123h315v-204h-315v-162q0 -82 37 -116t129 -34t178 49l109 -209q-158 -98 -366 -98t-311.5 109.5t-103.5 298.5z" />
    <glyph glyph-name="Utilde" unicode="&#x168;" 
d="M84 475v944h342v-815q0 -208 34 -290q38 -97 154 -97t152 91q37 91 37 296v815h342v-944q0 -227 -137 -369t-396 -141q-258 0 -393 138t-135 372zM493 1671q-52 0 -100 -86l-164 78q61 165 179 220q41 19 104 20t127 -43q25 -16 45 -30t51 -13q31 -1 53 21t48 65l163 -78
q-37 -98 -105 -169t-154 -71q-87 0 -151 43q-26 16 -46 30t-50 13z" />
    <glyph glyph-name="utilde" unicode="&#x169;" 
d="M469 1087v-743q0 -78 29 -108t79 -29q50 0 99 32t84 85v763h327v-1087h-286l-15 127q-55 -80 -145 -121t-188 -41q-160 0 -236 91t-76 247v784h328zM729 1294q-82 0 -186 78q-20 14 -50 14q-51 0 -100 -88l-164 78q62 168 179 222q41 19 104 20t127 -45q25 -17 45 -31
t51 -14t53 22t48 66l163 -78q-37 -101 -88 -153q-51 -51 -92 -71t-90 -20z" />
    <glyph glyph-name="Umacron" unicode="&#x16a;" 
d="M84 475v944h342v-815q0 -208 34 -290q38 -97 154 -97t152 91q37 91 37 296v815h342v-944q0 -227 -137 -369t-396 -141q-258 0 -393 138t-135 372zM928 1604h-627v227h627v-227z" />
    <glyph glyph-name="umacron" unicode="&#x16b;" 
d="M469 1087v-743q0 -78 29 -108t79 -29q50 0 99 32t84 85v763h327v-1087h-286l-15 127q-55 -80 -145 -121t-188 -41q-160 0 -236 91t-76 247v784h328zM928 1346h-627v227h627v-227z" />
    <glyph glyph-name="Ubreve" unicode="&#x16c;" 
d="M84 475v944h342v-815q0 -208 34 -290q38 -97 154 -97t152 91q37 91 37 296v815h342v-944q0 -227 -137 -369t-396 -141q-258 0 -393 138t-135 372zM614 1765q133 0 174 146l181 -33q-12 -141 -102 -241q-90 -99 -250 -99t-257 102q-83 90 -100 238l180 33
q41 -146 174 -146z" />
    <glyph glyph-name="ubreve" unicode="&#x16d;" 
d="M469 1087v-743q0 -78 29 -108t79 -29q50 0 99 32t84 85v763h327v-1087h-286l-15 127q-55 -80 -145 -121t-188 -41q-160 0 -236 91t-76 247v784h328zM614 1477q133 0 174 165l181 -30q-13 -150 -106 -256q-93 -105 -249 -105q-157 0 -249 105t-105 256l180 30
q18 -74 60 -120t114 -45z" />
    <glyph glyph-name="Uring" unicode="&#x16e;" 
d="M84 475v944h342v-815q0 -208 34 -290q38 -97 154 -97t152 91q37 91 37 296v815h342v-944q0 -227 -137 -369t-396 -141q-258 0 -393 138t-135 372zM330 1784q0 114 79 192t207 77q129 -1 207 -79t78 -192t-77 -192t-207 -79q-131 0 -209 80q-78 79 -78 193zM614 1681
q41 0 67 26t26 77t-26 76q-26 24 -67 24q-40 0 -66 -24t-26 -76q0 -51 26 -77t66 -26z" />
    <glyph glyph-name="uring" unicode="&#x16f;" 
d="M469 1087v-743q0 -78 29 -108t79 -29q50 0 99 32t84 85v763h327v-1087h-286l-15 127q-55 -80 -145 -121t-188 -41q-160 0 -236 91t-76 247v784h328zM616 1231q-128 0 -207 79q-79 78 -79 194t78 193t206 77t208 -78q79 -78 79 -194t-79 -193q-78 -78 -206 -78zM524 1503
q0 -102 90 -102q41 1 67 25t26 76t-26 77t-67 25q-42 0 -66 -25t-24 -76z" />
    <glyph glyph-name="Uhungarumlaut" unicode="&#x170;" 
d="M84 475v944h342v-815q0 -208 34 -290q38 -97 154 -97t152 91q37 91 37 296v815h342v-944q0 -227 -137 -369t-396 -141q-258 0 -393 138t-135 372zM627 1653l207 399l219 -106l-258 -373zM293 1649l205 403l221 -102l-256 -375z" />
    <glyph glyph-name="uhungarumlaut" unicode="&#x171;" 
d="M469 1087v-743q0 -78 29 -108t79 -29q50 0 99 32t84 85v763h327v-1087h-286l-15 127q-55 -80 -145 -121t-188 -41q-160 0 -236 91t-76 247v784h328zM653 1358l207 399l219 -106l-258 -373zM319 1354l205 403l221 -102l-256 -375z" />
    <glyph glyph-name="Uogonek" unicode="&#x172;" 
d="M728 -528q-134 0 -215 66t-81 183q0 147 170 244q-257 4 -387.5 140.5t-130.5 369.5v944h342v-934q0 -135 44 -201.5t143 -66.5t144.5 66.5t45.5 201.5v934h342v-944q0 -160 -69.5 -282.5t-215.5 -182.5q-205 -112 -205 -254q0 -43 27 -71.5t92 -28.5t121 29l66 -158
q-99 -55 -233 -55z" />
    <glyph glyph-name="uogonek" unicode="&#x173;" 
d="M897 -238q0 -106 117 -106q64 0 125 29l65 -158q-104 -55 -235 -55t-213 66.5t-82 182.5q0 82 58.5 155t162.5 124h-94l-15 127q-55 -80 -145 -121t-188 -41q-160 0 -236 91t-76 247v784h328v-743q0 -78 28.5 -107.5t78.5 -29.5t99.5 31.5t84.5 85.5v763h327v-1087
q-190 -107 -190 -238z" />
    <glyph glyph-name="Wcircumflex" unicode="&#x174;" 
d="M1112 0h-352l-96 995h-9l-106 -995h-359l-151 1419h317l39 -1110h8l115 946h291l102 -944h9l65 1108h295zM387 1532l-119 135l291 266h201l289 -266l-117 -135l-273 172z" />
    <glyph glyph-name="wcircumflex" unicode="&#x175;" 
d="M1069 0h-360l-88 692h-9l-92 -692h-354l-160 1087h299l64 -847h8l110 710h275l96 -706h8l68 843h289zM346 1251l-119 133l291 287h201l289 -287l-117 -133l-273 193z" />
    <glyph glyph-name="Ycircumflex" unicode="&#x176;" 
d="M784 0h-340v530l-462 889h372l262 -598h9l264 598h358l-463 -887v-532zM346 1532l-119 135l291 266h201l289 -266l-117 -135l-273 172z" />
    <glyph glyph-name="ycircumflex" unicode="&#x177;" 
d="M55 1087h346l205 -862h8l224 862h336l-363 -1087q-72 -219 -217 -331t-395 -126l-37 232q159 20 233 69q73 50 117 156h-113zM348 1251l-119 133l291 287h201l289 -287l-117 -133l-272 193z" />
    <glyph glyph-name="Ydieresis" unicode="&#x178;" 
d="M784 0h-340v530l-462 889h372l262 -598h9l264 598h358l-463 -887v-532zM854 1548q-72 0 -121 48t-49 118t49 118t121 48t121 -48t49 -118t-49 -118t-121 -48zM379 1548q-72 0 -121 48t-49 118t49 118t121 48t121 -48t49 -118t-49 -118t-121 -48z" />
    <glyph glyph-name="Zacute" unicode="&#x179;" 
d="M84 0v254l661 903h-598v262h986v-256l-648 -893h660l-35 -270h-1026zM367 1704l442 285l143 -244l-487 -207z" />
    <glyph glyph-name="zacute" unicode="&#x17a;" 
d="M145 0v231l539 611h-494v245h875v-229l-533 -610h543l-31 -248h-899zM346 1411l440 295l146 -244l-488 -217z" />
    <glyph glyph-name="Zdotaccent" unicode="&#x17b;" 
d="M84 0v254l661 903h-598v262h986v-256l-648 -893h660l-35 -270h-1026zM649 1548q-86 0 -139 54t-53 132q0 79 53 132t139 53t139 -53q54 -53 54 -132q0 -78 -54 -132t-139 -54z" />
    <glyph glyph-name="zdotaccent" unicode="&#x17c;" 
d="M145 0v231l539 611h-494v245h875v-229l-533 -610h543l-31 -248h-899zM637 1290q-86 0 -140 53q-55 53 -55 131t54 132q54 53 141 53q86 0 139 -53t53 -131q0 -77 -53 -131t-139 -54z" />
    <glyph glyph-name="Zcaron" unicode="&#x17d;" 
d="M84 0v254l661 903h-598v262h986v-256l-648 -893h660l-35 -270h-1026zM645 1765l273 174l116 -133l-289 -268h-200l-291 268l119 133z" />
    <glyph glyph-name="zcaron" unicode="&#x17e;" 
d="M145 0v231l539 611h-494v245h875v-229l-533 -610h543l-31 -248h-899zM909 1671l117 -133l-289 -287h-200l-291 287l119 133l272 -192z" />
    <glyph glyph-name="florin" unicode="&#x192;" 
d="M825 1313q-84 0 -113.5 -33t-29.5 -111v-82h258l-37 -227h-221v-729q0 -255 -109.5 -380.5t-324.5 -205.5l-115 238q122 60 172.5 122t50.5 199v756h-168v227h168v95q0 165 107.5 268.5t295.5 103.5t335 -69l-90 -213q-95 41 -179 41z" />
    <glyph glyph-name="AEacute" unicode="&#x1fc;" 
d="M393 543h213l-98 620h-10zM1139 834v-230h-279l72 -375h303v-229h-545l-49 311h-285l-55 -311h-326l357 1419h825l-35 -229h-370l67 -356h320zM403 1704l443 285l143 -244l-487 -207z" />
    <glyph glyph-name="aeacute" unicode="&#x1fd;" 
d="M442 494q-182 0 -182 -163q0 -153 92 -153q78 0 142 125q-9 106 -9 191h-43zM868 920q-68 0 -99 -60q-32 -60 -38 -221h252q-3 145 -25 213t-90 68zM282 -35q-127 0 -210 95q-84 95 -84 251q0 359 413 359h84v47q0 205 -182 207q-81 0 -190 -52l-74 179q167 73 297 73
q198 0 282 -143q80 143 266 143t266 -143t79 -416q0 -53 -6 -102h-492q27 -283 197 -283q88 0 178 66l123 -164q-135 -117 -320 -117q-216 0 -327 172q-92 -136 -197 -162q-41 -10 -103 -10zM346 1411l440 295l146 -244l-488 -217z" />
    <glyph glyph-name="Oslashacute" unicode="&#x1fe;" 
d="M582 207h32q121 0 178 118q56 118 56 377t-49 351l-246 -842q14 -4 29 -4zM614 1214q-119 0 -176 -116t-57 -380q0 -262 49 -360l250 848q-27 8 -66 8zM1184 711q0 -345 -149 -546q-149 -200 -421 -200q-54 0 -102 8l-78 -252l-229 68l86 274q-246 180 -246 648
q0 343 148 544t421 201q45 0 105 -10l76 250l229 -68l-86 -270q246 -184 246 -647zM287 1751l442 285l143 -244l-487 -207z" />
    <glyph glyph-name="oslashacute" unicode="&#x1ff;" 
d="M813 538q0 173 -39 244l-184 -575q10 -2 16 -2h17q100 0 145 80t45 253zM606 883q-98 0 -144 -80t-46 -260t41 -250l188 588q-10 2 -20 2h-19zM84 545q0 256 143 418q143 161 387 161q38 0 64 -4l78 238l237 -70l-80 -246q230 -147 232 -495q0 -272 -141 -427t-390 -155
q-29 0 -63 4l-76 -250l-239 70l81 252q-233 138 -233 504zM293 1425l440 295l146 -243l-488 -217z" />
    <glyph glyph-name="uni0218" unicode="&#x218;" 
d="M457 1069q0 -67 58 -105q41 -28 182 -76t221 -86q162 -78 219 -217q28 -71 28 -170q0 -201 -155 -326q-155 -124 -420 -124q-195 -1 -337 59t-230 146l172 190q159 -143 383 -143q104 0 168 45t65 125q0 80 -56 124t-189 85q-251 77 -356 180q-106 104 -106 266
q0 193 154 303q154 111 383 111q314 0 506 -184l-160 -185q-148 121 -319 119q-96 0 -154 -35t-57 -102zM467 -300q0 73 46 120t117 47q70 0 116 -45q92 -91 -3 -285l-100 -199h-164l56 236q-68 53 -68 126z" />
    <glyph glyph-name="uni0219" unicode="&#x219;" 
d="M566 199q180 0 182 100q0 52 -48 81q-48 28 -166 60q-119 33 -181 61q-202 91 -199 287q0 149 126 244q126 94 351 92q139 0 250 -36t178 -87l-131 -192q-124 82 -285 82q-160 0 -160 -82q0 -39 38 -60q38 -22 88 -39t130 -40q178 -51 253 -115q97 -82 95 -229
q0 -173 -148 -267t-368 -94q-299 0 -485 160l164 180q136 -106 316 -106zM451 -300q0 73 46 120q47 47 117 47t116 -45t46 -115t-49 -170l-100 -199h-164l55 236q-67 53 -67 126z" />
    <glyph glyph-name="uni021A" unicode="&#x21a;" 
d="M782 1159v-1159h-340v1159h-397v260h1151l-35 -260h-379zM451 -300q0 73 46 120q47 47 117 47t116 -45t46 -115t-49 -170l-100 -199h-164l55 236q-67 53 -67 126z" />
    <glyph glyph-name="uni021B" unicode="&#x21b;" 
d="M354 862h-227v225h227v236l328 39v-275h350l-33 -225h-317v-489q0 -82 37 -116t129 -34t178 49l109 -209q-158 -98 -366 -98t-311 110t-104 298v489zM582 -300q0 73 46 120t116 47t117 -45q46 -45 46 -115t-49 -170l-100 -199h-164l55 236q-67 53 -67 126z" />
    <glyph glyph-name="dotlessj" unicode="&#x237;" 
d="M866 197q0 -367 -243.5 -487t-372.5 -165l-109 242q198 72 298 156.5t100 232.5v688h-349v223h676v-890z" />
    <glyph glyph-name="circumflex" unicode="&#x2c6;" 
d="M342 1303l-117 133l289 268h201l289 -268l-117 -133l-273 174z" />
    <glyph glyph-name="caron" unicode="&#x2c7;" 
d="M614 1536l273 174l117 -133l-289 -268h-201l-289 268l117 133z" />
    <glyph glyph-name="uni02C9" unicode="&#x2c9;" 
d="M928 1374h-629v228h629v-228z" />
    <glyph glyph-name="breve" unicode="&#x2d8;" 
d="M614 1534q133 0 174 147l181 -32q-28 -235 -149.5 -287.5t-206.5 -52.5q-162 0 -251 97.5t-102 242.5l180 32q41 -147 174 -147z" />
    <glyph glyph-name="dotaccent" unicode="&#x2d9;" 
d="M614 1321q-86 0 -139 53t-53 131t53 131.5t139 53.5t139.5 -53.5t53.5 -131.5t-53.5 -131t-139.5 -53z" />
    <glyph glyph-name="ring" unicode="&#x2da;" 
d="M614.5 1282q-65.5 0 -119 22.5t-90 59.5t-57 86t-20.5 104.5t20.5 104.5t57 86t90 58.5t119 21.5t118.5 -21.5t90 -58.5t57.5 -86t20.5 -104.5t-20.5 -104.5t-57.5 -86t-90 -59.5t-118.5 -22.5zM614 1452q41 0 67 25.5t26 77t-26 76t-67 24.5t-66.5 -24.5t-25.5 -76
t25.5 -77t66.5 -25.5z" />
    <glyph glyph-name="ogonek" unicode="&#x2db;" 
d="M573 -244q0 -43 26 -71.5t91 -28.5t123 29l66 -158q-100 -55 -233 -55q-134 0 -215 67t-81 179t96.5 202t266.5 137l88 -39q-228 -111 -228 -262z" />
    <glyph glyph-name="tilde" unicode="&#x2dc;" 
d="M729 1356q-49 0 -82 13t-57.5 29.5t-45 30t-50.5 13.5t-53 -21.5t-48 -64.5l-164 78q37 98 104.5 169.5t154.5 71.5t132.5 -30.5t65.5 -44t50 -13.5t52.5 21.5t47.5 64.5l163 -78q-60 -162 -140.5 -200.5t-129.5 -38.5z" />
    <glyph glyph-name="hungarumlaut" unicode="&#x2dd;" 
d="M578 1421l213 398l219 -111l-265 -367zM219 1417l195 402l223 -103l-246 -368z" />
    <glyph glyph-name="gravecomb" unicode="&#x300;" 
d="M809 1245l-487 217l143 244l442 -295z" />
    <glyph glyph-name="acutecomb" unicode="&#x301;" 
d="M322 1411l440 295l145 -244l-487 -217z" />
    <glyph glyph-name="uni0302" unicode="&#x302;" 
d="M342 1251l-119 133l291 287h201l289 -287l-117 -133l-273 193z" />
    <glyph glyph-name="tildecomb" unicode="&#x303;" 
d="M729 1294q-49 0 -82 14.5t-58.5 32t-46 31.5t-50.5 14t-52 -22.5t-47 -65.5l-164 78q61 166 140.5 204t128.5 38t82.5 -14.5t58.5 -31t46 -30.5t51 -14t52.5 22.5t47.5 65.5l163 -78q-62 -168 -141.5 -206t-128.5 -38z" />
    <glyph glyph-name="uni0304" unicode="&#x304;" 
d="M928 1346h-627v227h627v-227z" />
    <glyph glyph-name="uni0306" unicode="&#x306;" 
d="M583 1477q103 0 145 46t60 119l181 -30q-13 -150 -106 -255.5t-251 -105.5t-248.5 105.5t-103.5 255.5l180 30q40 -165 143 -165z" />
    <glyph glyph-name="uni0307" unicode="&#x307;" 
d="M614 1290q-86 0 -140 53.5t-54 131t54 131t140 53.5t139.5 -53.5t53.5 -131t-53.5 -131t-139.5 -53.5z" />
    <glyph glyph-name="uni0308" unicode="&#x308;" 
d="M853 1305q-71 0 -121 47.5t-50 117.5t50 117t121 47t120 -47t49 -118t-49 -117.5t-120 -46.5zM377 1305q-72 0 -121 47.5t-49 117.5t49 117t121 47t121 -47t49 -118t-49 -117.5t-121 -46.5z" />
    <glyph glyph-name="uni030A" unicode="&#x30a;" 
d="M328 1503.5q0 113.5 77 192t208 78.5q130 0 208 -78t78 -192.5t-79 -193.5t-207 -79t-206.5 79.5t-78.5 193zM522 1503q0 -102 65.5 -102t91.5 24.5t26 76.5t-26 77t-67 25t-65.5 -25t-24.5 -76z" />
    <glyph glyph-name="uni030B" unicode="&#x30b;" 
d="M567 1358l207 399l219 -106l-258 -373zM233 1354l205 403l221 -102l-256 -375z" />
    <glyph glyph-name="uni030C" unicode="&#x30c;" 
d="M887 1671l117 -133l-289 -287h-201l-291 287l119 133l272 -192z" />
    <glyph glyph-name="uni0312" unicode="&#x312;" 
d="M776 1430q0 -73 -46 -119.5t-117 -46.5t-116.5 45t-45.5 114t49 170l100 199h164l-55 -236q67 -53 67 -126z" />
    <glyph glyph-name="uni0313" unicode="&#x313;" 
d="M451 1633q0 73 46.5 120t116.5 47t116 -45t46 -114t-49 -171l-100 -198h-164l55 235q-67 53 -67 126z" />
    <glyph glyph-name="uni0326" unicode="&#x326;" 
d="M451 -300q0 73 46.5 120t116.5 47t116 -45t46 -115t-49 -170l-100 -199h-164l55 236q-67 53 -67 126z" />
    <glyph glyph-name="uni0327" unicode="&#x327;" 
d="M676 -98q213 -23 213 -213q0 -94 -83 -161t-222 -67t-244 64l76 149q66 -34 131 -34q106 0 106 63q0 41 -47 54.5t-141 13.5l29 262h182v-131z" />
    <glyph glyph-name="uni0328" unicode="&#x328;" 
d="M571 -244q0 -43 27 -71.5t92 -28.5t123 29l66 -158q-104 -55 -235 -55q-132 0 -214 67t-82 179t97.5 202t267.5 137l47 -57q-189 -109 -189 -244z" />
    <glyph glyph-name="uni0335" unicode="&#x335;" 
d="M1020 578h-813v192h813v-192z" />
    <glyph glyph-name="uni0336" unicode="&#x336;" 
d="M1298 578h-1366v192h1366v-192z" />
    <glyph glyph-name="tonos" unicode="&#x384;" 
d="M406 1233l77 516l340 -63l-182 -488z" />
    <glyph glyph-name="dieresistonos" unicode="&#x385;" 
d="M852 1898l-150 -391l-184 29l60 410zM891 1245q-70 0 -117 46t-47 113t47 113t117 46t116 -46.5t46 -112.5t-46 -112.5t-116 -46.5zM341 1245q-69 0 -117 46t-48 113t48 113t117 46t116 -46.5t47 -112.5t-47 -112.5t-116 -46.5z" />
    <glyph glyph-name="Alphatonos" unicode="&#x386;" 
d="M459 551h303l-146 600h-10zM817 305h-411l-74 -305h-357l435 1419h411l434 -1419h-364zM-96 1012l104 463l344 -58l-211 -452z" />
    <glyph glyph-name="Epsilontonos" unicode="&#x388;" 
d="M518 1178v-338h492v-238h-492v-358h592v-244h-932v1419h932l-35 -241h-557zM-303 1012l104 463l344 -58l-211 -452z" />
    <glyph glyph-name="Etatonos" unicode="&#x389;" 
d="M784 0v606h-340v-606h-340v1419h340v-549h340v549h340v-1419h-340zM-377 1012l105 463l344 -58l-211 -452z" />
    <glyph glyph-name="Iotatonos" unicode="&#x38a;" 
d="M152 1419h925v-248h-293v-921h293v-250h-925v250h292v921h-292v248zM-315 1012l104 463l344 -58l-211 -452z" />
    <glyph glyph-name="Omicrontonos" unicode="&#x38c;" 
d="M617 213q119 0 169 119t50 380t-52 379q-52 117 -170 117q-119 0 -170 -118t-51 -379q0 -262 52 -380t172 -118zM1184 712q0 -347 -149 -547t-422 -200q-274 0 -421 198t-147 544q0 347 148 548t423 201t422 -198q146 -199 146 -546zM-274 1012l104 463l344 -58
l-211 -452z" />
    <glyph glyph-name="Upsilontonos" unicode="&#x38e;" 
d="M784 0h-340v530l-462 889h372l262 -598h9l264 598h358l-463 -887v-532zM-471 1012l104 463l344 -58l-210 -452z" />
    <glyph glyph-name="Omegatonos" unicode="&#x38f;" 
d="M1184 774q0 -393 -248 -524v-8h225v-242h-491v238q90 51 128 178t38 352q0 226 -52 332t-170 106q-117 0 -169 -106t-52 -332t38 -351q38 -126 128 -179v-238h-491v242h223v8q-246 130 -246 524q0 302 150 492q149 190 419 190q269 0 420 -190q150 -190 150 -492z
M-276 1012l104 463l344 -58l-211 -452z" />
    <glyph glyph-name="iotadieresistonos" unicode="&#x390;" 
d="M410 330v540q-66 -6 -150 -6t-184 17l26 225q150 -12 304 -12t331 12v-764q0 -66 37 -92t108 -27q71 0 148 33l78 -219q-137 -72 -316 -72t-281 98q-101 98 -101 267zM809 1898l-150 -391l-184 29l60 410zM848 1245q-70 0 -117 46t-47 113t47 113t117 46t116 -46t46 -113
t-46 -113t-116 -46zM298 1245q-69 0 -117 46t-48 113t48 113t117 46t116 -46t47 -113t-47 -113t-116 -46z" />
    <glyph glyph-name="Alpha" unicode="&#x391;" 
d="M459 551h303l-146 600h-10zM817 305h-411l-74 -305h-357l435 1419h411l434 -1419h-364z" />
    <glyph glyph-name="Beta" unicode="&#x392;" 
d="M1171 396q0 -104 -48 -183q-93 -155 -315 -195q-105 -18 -222 -18h-473v1419h452q381 0 501 -188q44 -69 44 -153q0 -201 -158 -286q-43 -24 -86 -34v-8q206 -40 278 -192q28 -58 27 -162zM768 1019q0 87 -52 124t-163 37h-100v-326h110q109 0 157 39t48 126zM588 627
h-135v-379h120q117 0 173 34q75 42 75 150q0 109 -63 152t-170 43z" />
    <glyph glyph-name="Gamma" unicode="&#x393;" 
d="M522 1153v-1153h-340v1419h963l-33 -266h-590z" />
    <glyph glyph-name="uni0394" unicode="&#x394;" 
d="M383 250h455l-222 901h-10zM410 1419h411l434 -1419h-1280z" />
    <glyph glyph-name="Epsilon" unicode="&#x395;" 
d="M516 1178v-338h453v-242h-453v-354h551v-244h-891v1419h893l-37 -241h-516z" />
    <glyph glyph-name="Zeta" unicode="&#x396;" 
d="M84 0v254l661 903h-598v262h986v-256l-648 -893h660l-35 -270h-1026z" />
    <glyph glyph-name="Eta" unicode="&#x397;" 
d="M784 0v606h-340v-606h-340v1419h340v-549h340v549h340v-1419h-340z" />
    <glyph glyph-name="Theta" unicode="&#x398;" 
d="M848 712q0 265 -57.5 380.5t-176 115.5t-176 -115.5t-57.5 -382t58.5 -382t176.5 -115.5t175 117t57 382zM191.5 163.5q-146.5 198.5 -146.5 544.5t147.5 547t423.5 201t422 -199t146 -545t-148 -546.5t-423 -200.5t-421.5 198.5zM766 629h-305v182h305v-182z" />
    <glyph glyph-name="Iota" unicode="&#x399;" 
d="M152 1419h925v-248h-293v-921h293v-250h-925v250h292v921h-292v248z" />
    <glyph glyph-name="Kappa" unicode="&#x39a;" 
d="M469 758l383 661h356l-397 -637l436 -782h-393zM459 0h-340v1419h340v-1419z" />
    <glyph glyph-name="Lambda" unicode="&#x39b;" 
d="M616 1147h-10l-264 -1147h-358l426 1419h411l424 -1419h-364z" />
    <glyph glyph-name="Mu" unicode="&#x39c;" 
d="M336 684v-86l-10 -598h-291l80 1419h348l149 -891h9l145 891h348l80 -1419h-297l-16 604q-2 35 -2 66v59q0 150 8 236t12 135h-8l-150 -858h-256l-161 858h-9q21 -247 21 -416z" />
    <glyph glyph-name="Nu" unicode="&#x39d;" 
d="M393 530v-530h-289v1419h424l351 -1104h8q-51 249 -51 566v538h288v-1419h-411l-363 1102h-8q51 -280 51 -572z" />
    <glyph glyph-name="Xi" unicode="&#x39e;" 
d="M993 848v-254h-764v254h764zM106 1151v268h1016l-39 -268h-977zM106 0v279h1016v-279h-1016z" />
    <glyph glyph-name="Omicron" unicode="&#x39f;" 
d="M617 213q119 0 169 119t50 380t-52 379q-52 117 -170 117q-119 0 -170 -118t-51 -379q0 -262 52 -380t172 -118zM1184 712q0 -347 -149 -547t-422 -200q-274 0 -421 198t-147 544q0 347 148 548t423 201t422 -198q146 -199 146 -546z" />
    <glyph glyph-name="Pi" unicode="&#x3a0;" 
d="M784 0v1159h-340v-1159h-340v1419h1020v-1419h-340z" />
    <glyph glyph-name="Rho" unicode="&#x3a1;" 
d="M618 471h-153v-471h-340v1419h448q291 0 450 -115t159 -352t-151 -359t-413 -122zM831 956q0 221 -253 222h-113v-461h125q117 0 179 57t62 182z" />
    <glyph glyph-name="Sigma" unicode="&#x3a3;" 
d="M1118 252v-252h-1007v246l432 452l-432 476v245h1007v-245h-631l379 -404v-133l-383 -385h635z" />
    <glyph glyph-name="Tau" unicode="&#x3a4;" 
d="M782 1159v-1159h-340v1159h-397v260h1151l-35 -260h-379z" />
    <glyph glyph-name="Upsilon" unicode="&#x3a5;" 
d="M784 0h-340v530l-462 889h372l262 -598h9l264 598h358l-463 -887v-532z" />
    <glyph glyph-name="Phi" unicode="&#x3a6;" 
d="M920 715q0 178 -45.5 268t-163.5 92v-723q120 4 164.5 94.5t44.5 268.5zM309 713q0 -180 45 -268.5t164 -92.5v723q-121 -2 -165 -92t-44 -270zM8 718q0 278 120 403.5t370 135.5v162h233v-162q242 -10 366 -136t124 -403t-124 -411.5t-366 -142.5v-164h-233v164
q-252 8 -371 142t-119 412z" />
    <glyph glyph-name="Chi" unicode="&#x3a7;" 
d="M33 1419h370l203 -442h8l215 442h361l-381 -651l416 -768h-371l-244 526h-8l-237 -526h-363l401 754z" />
    <glyph glyph-name="Psi" unicode="&#x3a8;" 
d="M465 0v381q-229 33 -335.5 167t-106.5 341v530h286v-538q0 -128 26.5 -177t61.5 -72.5t90 -33.5v821h256v-819q106 23 141.5 92.5t35.5 188.5v538h286v-530q0 -317 -164.5 -403.5t-277.5 -102.5v-383h-299z" />
    <glyph glyph-name="uni03A9" unicode="&#x3a9;" 
d="M1184 774q0 -393 -248 -524v-8h225v-242h-491v238q90 51 128 178t38 352q0 226 -52 332t-170 106q-117 0 -169 -106t-52 -332t38 -351q38 -126 128 -179v-238h-491v242h223v8q-246 130 -246 524q0 302 150 492q149 190 419 190q269 0 420 -190q150 -190 150 -492z" />
    <glyph glyph-name="Iotadieresis" unicode="&#x3aa;" 
d="M152 1419h925v-248h-293v-921h293v-250h-925v250h292v921h-292v248zM852 1548q-72 0 -121 48t-49 118t49 118t121 48t121 -48t49 -118t-49 -118t-121 -48zM377 1548q-72 0 -121 48t-49 118t49 118t121 48t121 -48t49 -118t-49 -118t-121 -48z" />
    <glyph glyph-name="Upsilondieresis" unicode="&#x3ab;" 
d="M784 0h-340v530l-462 889h372l262 -598h9l264 598h358l-463 -887v-532zM854 1548q-72 0 -121 48t-49 118t49 118t121 48t121 -48t49 -118t-49 -118t-121 -48zM379 1548q-72 0 -121 48t-49 118t49 118t121 48t121 -48t49 -118t-49 -118t-121 -48z" />
    <glyph glyph-name="alphatonos" unicode="&#x3ac;" 
d="M549 885q-148 0 -148 -346q-1 -182 39 -259t101 -77q95 0 147 173q20 67 39 169q-29 186 -71 263t-107 77zM481 -35q-193 0 -303 150t-108 417q0 267 120 429q120 163 314 163q156 0 236 -72t118 -200h8l52 256l264 -74l-185 -479l78 -236q18 -53 44 -75t71 -33
l-107 -246q-110 16 -161 75t-80 204h-8q-47 -135 -128 -207t-225 -72zM408 1233l77 516l340 -63l-182 -488z" />
    <glyph glyph-name="epsilontonos" unicode="&#x3ad;" 
d="M522 1233l78 516l340 -63l-182 -488zM502 784q0 -53 41 -87t129 -33h219l-31 -209h-203q-104 0 -146 -32t-42 -93q0 -60 55 -96t168 -35q193 0 338 82l148 -183q-207 -133 -512 -133q-241 0 -389 89t-148 251q0 119 76 185t198 85v9q-104 27 -169 90q-64 63 -64 144
q1 147 133 227q133 79 342 79q278 0 467 -114l-143 -176q-113 63 -290 63t-177 -113z" />
    <glyph glyph-name="etatonos" unicode="&#x3ae;" 
d="M670 883q-88 0 -189 -131v-752h-327v784q0 149 -43 291l303 41q26 -43 47 -155q145 164 340 163q145 0 222 -85t77 -240v-1219l-328 -35v1162q0 98 -21 137q-22 39 -81 39zM459 1233l78 516l340 -63l-183 -488z" />
    <glyph glyph-name="iotatonos" unicode="&#x3af;" 
d="M410 330v540q-66 -6 -150 -6t-184 17l26 225q150 -12 304 -12t331 12v-764q0 -66 37 -92t108 -27q71 0 148 33l78 -219q-137 -72 -316 -72t-281 98q-101 98 -101 267zM408 1233l77 516l340 -63l-182 -488z" />
    <glyph glyph-name="upsilondieresistonos" unicode="&#x3b0;" 
d="M1071 1087q59 -295 59 -569t-159 -414q-159 -139 -393 -139q-315 0 -414 228q-33 76 -33 176v718h328v-698q0 -100 36 -142q37 -42 115 -42t135 78t58 249q0 252 -55 555h323zM846 1898l-150 -391l-184 29l59 410zM885 1563q69 0 115 -46t46 -113t-45 -113
q-46 -46 -116 -46t-117 46t-47 113t47 113t117 46zM335 1245q-69 0 -117 46t-48 113t48 113t117 46t116 -46t47 -113t-47 -113t-116 -46z" />
    <glyph glyph-name="alpha" unicode="&#x3b1;" 
d="M549 885q-148 0 -148 -346q0 -182 39.5 -259t100.5 -77q94 0 131 119.5t55 222.5q-29 186 -71 263t-107 77zM481 -35q-193 0 -302 149.5t-109 416.5t120.5 430t313.5 163q156 0 236.5 -71.5t117.5 -200.5h8l52 256l264 -74l-185 -479l78 -236q18 -53 44 -75.5t71 -32.5
l-107 -246q-110 16 -162 77t-79 202h-8q-47 -135 -128 -207t-225 -72z" />
    <glyph glyph-name="beta" unicode="&#x3b2;" 
d="M669 1325q-98 0 -160.5 -101t-70.5 -331l74 33q137 61 195.5 125.5t58.5 162.5q0 53 -25.5 82t-71.5 29zM616 739q-59 0 -180 -59q0 -377 67.5 -427t117.5 -50q84 0 132 62.5t48 199.5t-43.5 205.5t-141.5 68.5zM102 713q0 394 164 617.5t426 223.5q183 0 277 -90
t94 -221q0 -238 -281 -340v-8q162 -14 260.5 -123.5t98.5 -320.5t-140 -348.5t-376 -137.5q-523 0 -523 748z" />
    <glyph glyph-name="gamma" unicode="&#x3b3;" 
d="M715 -230q0 -84 20 -194l-258 -27q-57 121 -57 237t41 241q-163 634 -432 977l323 116q86 -135 158 -343t106 -472h9l247 811l328 -76l-430 -987q-55 -125 -55 -283z" />
    <glyph glyph-name="delta" unicode="&#x3b4;" 
d="M422 510q0 -305 194 -305t193 305q0 150 -46.5 225t-180.5 135q-132 -98 -146 -200.5t-14 -159.5zM666 1321q-72 0 -105 -24.5t-33 -56.5q0 -57 35 -86t151 -76q233 -96 333 -223t100 -360t-144.5 -381.5t-388.5 -148.5t-386 144t-142 387q0 158 81 273.5t234 182.5
q-117 61 -158.5 126t-41.5 161q0 137 112.5 226t342.5 89t391 -129l-156 -178q-101 74 -225 74z" />
    <glyph glyph-name="epsilon" unicode="&#x3b5;" 
d="M502 784q0 -53 41 -86.5t129 -33.5h219l-31 -209h-203q-104 0 -146 -32t-42 -93t55.5 -96t167.5 -35q193 0 338 82l148 -183q-207 -133 -512 -133q-376 0 -456.5 128t-80.5 212q0 119 76 185.5t198 84.5v9q-104 27 -168.5 90t-64.5 144q0 150 134 228t341 78
q278 0 467 -114l-143 -176q-113 63 -290 63t-177 -113z" />
    <glyph glyph-name="zeta" unicode="&#x3b6;" 
d="M532 530q0 -113 55.5 -170.5t182.5 -104.5q224 -82 298.5 -144t74.5 -181q0 -118 -91 -214.5t-284 -178.5l-119 197q72 41 115 77.5t43 80.5t-28.5 63.5t-128.5 56.5q-241 89 -349 193t-108 313q0 366 557 715l-5 6q-74 -18 -182 -18t-213.5 48t-159.5 158l205 127
q82 -147 273 -147t340 117l151 -176q-342 -291 -484.5 -472t-142.5 -346z" />
    <glyph glyph-name="eta" unicode="&#x3b7;" 
d="M670 883q-88 0 -189 -131v-752h-327v784q0 149 -43 291l303 41q29 -49 47 -155q145 164 340 163q145 0 222 -85t77 -240v-1219l-328 -35v1162q0 98 -21.5 137t-80.5 39z" />
    <glyph glyph-name="theta" unicode="&#x3b8;" 
d="M587.5 1319q-76.5 0 -129.5 -103.5t-57 -359.5h426q-11 378 -87 420.5t-152.5 42.5zM641 201q76 0 127 100t59 365h-428q11 -377 88.5 -421t153.5 -44zM615 1554q253 0 391.5 -198.5t138.5 -591.5t-139.5 -596t-391.5 -203t-391 201t-139 593t139 593.5t392 201.5z" />
    <glyph glyph-name="iota" unicode="&#x3b9;" 
d="M410 330v540q-66 -6 -150 -6t-184 17l26 225q150 -12 304 -12t331 12v-764q0 -66 37 -92.5t105 -26.5t151 33l78 -219q-137 -72 -316 -72t-280.5 98.5t-101.5 266.5z" />
    <glyph glyph-name="kappa" unicode="&#x3ba;" 
d="M150 1081q0 241 -52 439l320 34q35 -86 47 -204.5t12 -290.5v-1059h-327v1081zM485 569l396 551l268 -119l-330 -413l223 -271q39 -47 74 -66.5t78 -29.5l-111 -258q-110 12 -164.5 50t-89 79t-73.5 101z" />
    <glyph glyph-name="lambda" unicode="&#x3bb;" 
d="M414 1098h106q-46 109 -114 158t-234 73l39 223q154 -20 260.5 -58t180 -108.5t121.5 -179t88 -274.5q77 -319 157 -521.5t192 -342.5l-323 -103q-150 220 -203 469.5t-78 413.5h-8l-221 -883l-324 76z" />
    <glyph glyph-name="uni03BC" unicode="&#x3bc;" 
d="M582 211q100 0 176 115v761h327v-700q0 -162 25 -387l-295 -29q-17 60 -27 158q-100 -160 -233 -160q-96 0 -162 82l-8 -4q33 -59 51 -121t19 -166v-180l-310 -33v1540h326v-618q0 -143 13 -184q13 -42 36 -58t62 -16z" />
    <glyph glyph-name="nu" unicode="&#x3bd;" 
d="M416 0q-114 565 -219 763t-166 257l299 102q139 -164 200.5 -436t79.5 -422h8l246 860l316 -71l-394 -1053h-370z" />
    <glyph glyph-name="xi" unicode="&#x3be;" 
d="M487 915q-256 77 -256 303q0 70 41 133.5t147.5 133t337.5 69.5t417 -127l-142 -174q-109 72 -256 72q-94 0 -154.5 -40t-60.5 -126t60.5 -123t175.5 -37h198l-30 -215h-177q-143 0 -221 -56t-78 -170t67 -166.5t218 -110.5q152 -58 207 -85.5t111.5 -81t56.5 -177.5
q0 -125 -92 -221.5t-283 -178.5l-119 197q96 46 125 97.5t29 87.5t-26.5 56.5t-128.5 61.5t-202 86t-166.5 100.5t-100 129t-33.5 171.5q0 168 98 262t237 121v8z" />
    <glyph glyph-name="omicron" unicode="&#x3bf;" 
d="M614 883q-98 0 -145 -80t-47 -259t47 -259t145 -80t146 80q47 80 47 259t-47 259q-48 80 -146 80zM1145 542q0 -269 -139 -423q-140 -154 -392 -154t-391 152t-139 422t142 427q142 158 390 158t388 -156q141 -157 141 -426z" />
    <glyph glyph-name="pi" unicode="&#x3c0;" 
d="M889 1087q152 0 274 33l37 -237q-72 -23 -170 -29v-485q0 -68 21.5 -105t68.5 -59l-96 -240q-143 25 -227 109t-84 252v526h-215v-852h-318v852h-137v235h846z" />
    <glyph glyph-name="rho" unicode="&#x3c1;" 
d="M621 205q92 0 139 78.5t47 259.5q0 274 -66.5 308t-107.5 34q-94 0 -131 -87t-37 -290v-207q64 -96 156 -96zM137 563q0 268 123 414.5t377 146.5q508 0 508 -577q0 -252 -114 -417t-308 -165q-164 0 -258 115v-500l-328 -35v1018z" />
    <glyph glyph-name="sigma1" unicode="&#x3c2;" 
d="M713 -187.5q45 37.5 45 87.5t-38.5 76t-140.5 67t-261.5 131t-159.5 397q0 239 159 396t406 157t410 -135l-142 -194q-104 77 -225 77t-193.5 -69.5t-72.5 -214.5t59.5 -207.5t181.5 -112.5q121 -49 177.5 -76.5t117 -79t60.5 -175.5q0 -125 -93.5 -221.5t-281.5 -178.5
l-121 197q68 41 113 78.5z" />
    <glyph glyph-name="sigma" unicode="&#x3c3;" 
d="M805 539q0 268 -98 352q-152 0 -218.5 -75.5t-66.5 -264.5q0 -190 47 -268t145.5 -78t144.5 77.5t46 256.5zM967 899q178 -125 178 -381t-142 -404.5t-390 -148.5q-249 0 -389 149.5t-140 418.5t141.5 421t403.5 152q357 0 555 39l37 -217q-80 -21 -254 -29z" />
    <glyph glyph-name="tau" unicode="&#x3c4;" 
d="M406 330v518h-330v239h729q163 0 287 33l36 -241q-96 -31 -260 -31h-135v-506q0 -66 37 -92.5t105 -26.5t151 33l78 -219q-137 -72 -316 -72q-180 0 -281 98.5t-101 266.5z" />
    <glyph glyph-name="upsilon" unicode="&#x3c5;" 
d="M1071 1087q59 -295 59 -570t-159.5 -413.5t-392.5 -138.5q-315 0 -381 151.5t-66 252.5v718h328v-698q0 -100 35.5 -142t114.5 -42t136.5 77.5t57.5 249.5q0 252 -55 555h323z" />
    <glyph glyph-name="phi" unicode="&#x3c6;" 
d="M909 513q0 246 -18.5 325.5t-76.5 79.5t-71.5 -62.5t-13.5 -191.5v-490q98 23 139 112t41 227zM311 568q0 -197 36 -283t132 -111v490q0 225 80.5 342.5t270.5 117.5t276 -146.5t86 -424.5q0 -525 -463 -580v-403l-250 -25v428q-236 27 -339 161t-103 358q0 295 106 595
h269q-101 -322 -101 -519z" />
    <glyph glyph-name="chi" unicode="&#x3c7;" 
d="M356 1122q185 -228 265 -557h8l207 555l309 -67l-342 -680l381 -738l-322 -90l-239 625h-9l-231 -625l-311 66l370 766q-149 408 -401 635z" />
    <glyph glyph-name="psi" unicode="&#x3c8;" 
d="M1188 522q0 -258 -103.5 -391t-343.5 -158v-393l-252 -35v428q-233 22 -332.5 137t-99.5 306v671h273v-667q0 -115 38 -171t121 -71v903q0 253 -53 439l246 34q35 -86 47 -204.5t12 -290.5v-881q143 27 157.5 143.5t14.5 184.5q0 291 -45 581h271q49 -307 49 -565z" />
    <glyph glyph-name="omega" unicode="&#x3c9;" 
d="M315 567q0 -210 19.5 -286t77.5 -76q53 0 69.5 60.5t16.5 213.5v221l235 41v-252q0 -171 13.5 -213.5t31 -56.5t45.5 -14q57 0 73.5 76.5t16.5 281.5t-77 524h282q82 -320 82 -588q0 -534 -313 -534q-109 0 -175.5 50.5t-95.5 160.5h-8q-59 -211 -258 -211
q-156 0 -238.5 131t-82.5 400q0 182 27.5 329.5t56.5 261.5h282q-80 -310 -80 -520z" />
    <glyph glyph-name="iotadieresis" unicode="&#x3ca;" 
d="M817 -35q-180 0 -281 98t-102 267v540q-66 -6 -149 -6t-185 17l27 225q151 -12 305 -12t330 12v-764q0 -66 37 -92t108 -27q71 0 148 33l78 -219q-136 -72 -316 -72zM835 1634q71 0 119 -47t50 -118q0 -71 -49 -117t-120 -47q-71 0 -121 47q-50 48 -50 118t50 117t121 47
zM358 1305q-72 0 -120 47q-48 48 -50 118q0 70 50 117t120 47q72 0 121 -47t49 -118t-49 -117t-121 -47z" />
    <glyph glyph-name="upsilondieresis" unicode="&#x3cb;" 
d="M1016 1469q0 -71 -49 -117t-120 -47q-71 0 -121 47q-50 48 -50 118t50 117t121 47t120 -47t49 -118zM371 1305q-72 0 -121 47q-49 48 -49 118t49 117t121 47t121 -47t49 -118t-49 -117t-121 -47zM1071 1087q59 -295 59 -569t-159 -414q-159 -139 -393 -139
q-315 0 -414 228q-33 76 -33 176v718h328v-698q0 -100 36 -142q37 -42 115 -42t135 78t58 249q0 252 -55 555h323z" />
    <glyph glyph-name="omicrontonos" unicode="&#x3cc;" 
d="M614 883q-98 0 -145 -80t-47 -259t47 -259t145 -80t146 80q47 80 47 259t-47 259q-48 80 -146 80zM1145 542q0 -269 -139 -423q-140 -154 -392 -154t-391 152t-139 422t142 427q142 158 390 158t388 -156q141 -157 141 -426zM494 1233l77 516l340 -63l-182 -488z" />
    <glyph glyph-name="upsilontonos" unicode="&#x3cd;" 
d="M446 1233l78 516l340 -63l-182 -488zM1071 1087q59 -295 59 -569t-159 -414q-159 -139 -393 -139q-315 0 -414 228q-33 76 -33 176v718h328v-698q0 -100 36 -142q37 -42 115 -42t135 78t58 249q0 252 -55 555h323z" />
    <glyph glyph-name="omegatonos" unicode="&#x3ce;" 
d="M315 567q-1 -210 19 -286t78 -76q53 0 69 60t17 214v221l235 41v-252q-1 -172 13 -214t31 -56t46 -14q57 0 74 77q16 77 16 281t-77 524h282q83 -325 82 -591q0 -531 -313 -531q-109 0 -175 50t-96 161h-8q-59 -211 -258 -211q-156 0 -238 131t-83 400q0 182 27 329
q28 147 57 262h282q-80 -310 -80 -520zM471 1233l78 516l340 -63l-182 -488z" />
    <glyph glyph-name="uni0401" unicode="&#x401;" 
d="M518 1178v-338h492v-238h-492v-358h592v-244h-932v1419h932l-35 -241h-557zM883 1548q-72 0 -121 48t-49 118t49 118t121 48t121 -48t49 -118t-49 -118t-121 -48zM408 1548q-72 0 -121 48t-49 118t49 118t121 48t120 -48t50 -118q0 -70 -49 -118t-121 -48z" />
    <glyph glyph-name="uni0402" unicode="&#x402;" 
d="M728 721q-83 0 -146 -66v-655h-312v1180h-286v239h899l-35 -239h-266v-306q109 91 243 91q180 0 273.5 -112t93.5 -337v-313q0 -341 -170 -431.5t-260 -121.5l-88 231q123 53 161.5 123t38.5 205v338q0 96 -31.5 135t-114.5 39z" />
    <glyph glyph-name="uni0403" unicode="&#x403;" 
d="M522 1153v-1153h-340v1419h963l-33 -266h-590zM393 1704l443 285l143 -244l-487 -207z" />
    <glyph glyph-name="uni0404" unicode="&#x404;" 
d="M756 1210q-140 0 -233 -89t-109 -275h522v-240h-522q12 -201 104 -293t213 -92t192.5 36t131.5 83l153 -190q-190 -185 -487 -185t-475 195t-178 548q0 352 184.5 550t478.5 198q154 0 261.5 -43t197.5 -115l-166 -190q-128 102 -268 102z" />
    <glyph glyph-name="uni0405" unicode="&#x405;" 
d="M457 1069q0 -67 58 -105q41 -28 182 -76t221 -86q162 -78 219 -217q28 -71 28 -170q0 -201 -155 -326q-155 -124 -420 -124q-195 -1 -337 59t-230 146l172 190q159 -143 383 -143q104 0 168 45t65 125q0 80 -56 124t-189 85q-251 77 -356 180q-106 104 -106 266
q0 193 154 303q154 111 383 111q314 0 506 -184l-160 -185q-148 121 -319 119q-96 0 -154 -35t-57 -102z" />
    <glyph glyph-name="uni0406" unicode="&#x406;" 
d="M152 1419h925v-248h-293v-921h293v-250h-925v250h292v921h-292v248z" />
    <glyph glyph-name="uni0407" unicode="&#x407;" 
d="M152 1419h925v-248h-293v-921h293v-250h-925v250h292v921h-292v248zM852 1548q-72 0 -121 48t-49 118t49 118t121 48t121 -48t49 -118t-49 -118t-121 -48zM377 1548q-72 0 -121 48t-49 118t49 118t121 48t121 -48t49 -118t-49 -118t-121 -48z" />
    <glyph glyph-name="uni0408" unicode="&#x408;" 
d="M176 1419h801v-1044q0 -290 -185 -459q-185 -168 -544 -266l-80 241q255 77 362 183t107 286v811h-461v248z" />
    <glyph glyph-name="uni0409" unicode="&#x409;" 
d="M745 729v-510h31q94 0 134 69.5t40 190.5t-42 185.5t-142 64.5h-21zM745 1419v-477q231 0 357.5 -111.5t126.5 -351.5t-128 -359.5t-353 -119.5h-261v1204h-114l-27 -581q-15 -333 -60.5 -437t-90.5 -146t-105 -81l-121 195q48 44 73 140t40 365l41 760h622z" />
    <glyph glyph-name="uni040A" unicode="&#x40a;" 
d="M758 213q111 0 154.5 58.5t43.5 194.5t-48 183t-150 47v-483zM494 0v696h-170v-696h-267v1419h267v-516h170v516h264v-516q217 -4 344 -106.5t127 -325.5q0 -471 -492 -471h-243z" />
    <glyph glyph-name="uni040B" unicode="&#x40b;" 
d="M825 965q180 0 273.5 -112t93.5 -337v-516h-318v547q0 96 -31.5 135t-114.5 39t-146 -66v-655h-312v1180h-286v239h899l-35 -239h-266v-306q109 91 243 91z" />
    <glyph glyph-name="uni040C" unicode="&#x40c;" 
d="M459 616v-616h-340v1419h340v-557h108l312 557h329l-358 -643l397 -776h-370l-306 616h-112zM354 1704l443 285l143 -244l-487 -207z" />
    <glyph glyph-name="uni040E" unicode="&#x40e;" 
d="M-12 1419h352l293 -837h8l260 837h344l-358 -934q-107 -276 -241 -386t-408 -134l-45 232q219 23 291 106q28 31 53 72h-109zM628 1743q143 0 187 125l180 -31q-12 -133 -107 -220t-261 -87q-241 0 -332 186q-27 55 -33 121l180 31q43 -125 186 -125z" />
    <glyph glyph-name="uni040F" unicode="&#x40f;" 
d="M754 0v-340h-236l-37 340h-377v1419h340v-1155h340v1155h340v-1419h-370z" />
    <glyph glyph-name="uni0410" unicode="&#x410;" 
d="M459 551h303l-146 600h-10zM817 305h-411l-74 -305h-357l435 1419h411l434 -1419h-364z" />
    <glyph glyph-name="uni0411" unicode="&#x411;" 
d="M455 666v-412h123q111 0 171 48t60 163q0 201 -236 201h-118zM455 909h141q270 0 419.5 -108.5t149.5 -333.5t-151.5 -346t-399.5 -121h-499v1419h895l-33 -258h-522v-252z" />
    <glyph glyph-name="uni0412" unicode="&#x412;" 
d="M1171 396q0 -104 -48 -183q-93 -155 -315 -195q-105 -18 -222 -18h-473v1419h452q381 0 501 -188q44 -69 44 -153q0 -201 -158 -286q-43 -24 -86 -34v-8q206 -40 278 -192q28 -58 27 -162zM768 1019q0 87 -52 124t-163 37h-100v-326h110q109 0 157 39t48 126zM588 627
h-135v-379h120q117 0 173 34q75 42 75 150q0 109 -63 152t-170 43z" />
    <glyph glyph-name="uni0413" unicode="&#x413;" 
d="M522 1153v-1153h-340v1419h963l-33 -266h-590z" />
    <glyph glyph-name="uni0414" unicode="&#x414;" 
d="M762 252v928h-197l-14 -179q-28 -349 -77.5 -507t-149.5 -242h438zM1073 1419v-1167h107v-592h-222l-36 340h-686l-37 -340h-222v592h80q71 80 111 229.5t72 491.5l41 446h792z" />
    <glyph glyph-name="uni0415" unicode="&#x415;" 
d="M518 1178v-338h492v-238h-492v-358h592v-244h-932v1419h932l-35 -241h-557z" />
    <glyph glyph-name="uni0416" unicode="&#x416;" 
d="M516 655h-57l-160 -655h-291l219 776l-198 643h278l156 -596h53v596h197v-596h51l156 596h280l-199 -643l220 -776h-293l-160 655h-55v-655h-197v655z" />
    <glyph glyph-name="uni0417" unicode="&#x417;" 
d="M545 1210q-195 0 -332 -110l-164 172q98 90 239.5 137t279.5 47q255 0 398.5 -106t143.5 -269q0 -129 -84 -211t-238 -108v-8q164 -16 264.5 -105.5t100.5 -242.5q0 -201 -159 -321t-431 -120q-365 0 -551 203l185 174q139 -129 350 -129q123 0 194.5 54.5t71.5 152.5
q0 211 -270 211h-236l39 241h197q106 0 169.5 43t63.5 125t-60.5 126t-170.5 44z" />
    <glyph glyph-name="uni0418" unicode="&#x418;" 
d="M813 465q0 333 49 616h-8l-369 -1081h-381v1419h312v-475q0 -302 -49 -608h8l375 1083h374v-1419h-311v465z" />
    <glyph glyph-name="uni0419" unicode="&#x419;" 
d="M813 465q0 348 49 616h-8l-369 -1081h-381v1419h312v-475q0 -299 -49 -608h8l375 1083h374v-1419h-311v465zM612 1530q-243 0 -331 186q-27 55 -33 121l180 31q44 -125 186 -125q143 0 187 125l180 -31q-12 -131 -107 -219t-262 -88z" />
    <glyph glyph-name="uni041A" unicode="&#x41a;" 
d="M459 616v-616h-340v1419h340v-557h108l312 557h329l-358 -643l397 -776h-370l-306 616h-112z" />
    <glyph glyph-name="uni041B" unicode="&#x41b;" 
d="M1124 1419v-1419h-340v1161h-219l-18 -225q-39 -494 -112 -646.5t-147.5 -216t-181.5 -114.5l-133 223q51 37 90 81t83 168.5t81 541.5l41 446h856z" />
    <glyph glyph-name="uni041C" unicode="&#x41c;" 
d="M336 684v-86l-10 -598h-291l80 1419h348l149 -891h9l145 891h348l80 -1419h-297l-16 604q-2 35 -2 66v59q0 150 8 236t12 135h-8l-150 -858h-256l-161 858h-9q21 -247 21 -416z" />
    <glyph glyph-name="uni041D" unicode="&#x41d;" 
d="M784 0v606h-340v-606h-340v1419h340v-549h340v549h340v-1419h-340z" />
    <glyph glyph-name="uni041E" unicode="&#x41e;" 
d="M617 213q119 0 169 119t50 380t-52 379q-52 117 -170 117q-119 0 -170 -118t-51 -379q0 -262 52 -380t172 -118zM1184 712q0 -347 -149 -547t-422 -200q-274 0 -421 198t-147 544q0 347 148 548t423 201t422 -198q146 -199 146 -546z" />
    <glyph glyph-name="uni041F" unicode="&#x41f;" 
d="M784 0v1159h-340v-1159h-340v1419h1020v-1419h-340z" />
    <glyph glyph-name="uni0420" unicode="&#x420;" 
d="M618 471h-153v-471h-340v1419h448q291 0 450 -115t159 -352t-151 -359t-413 -122zM831 956q0 221 -253 222h-113v-461h125q117 0 179 57t62 182z" />
    <glyph glyph-name="uni0421" unicode="&#x421;" 
d="M762 227q143 0 293 119l153 -196q-190 -185 -487 -185q-298 0 -476 195q-177 195 -177 547t185 551q185 198 478 198q153 0 261 -43t198 -115l-166 -196q-130 104 -268 102q-238 0 -310 -269q-24 -93 -24 -221q1 -368 192 -459q58 -28 148 -28z" />
    <glyph glyph-name="uni0422" unicode="&#x422;" 
d="M782 1159v-1159h-340v1159h-397v260h1151l-35 -260h-379z" />
    <glyph glyph-name="uni0423" unicode="&#x423;" 
d="M-12 1419h352l293 -837h8l260 837h344l-358 -934q-107 -277 -241 -386.5t-408 -133.5l-45 232q148 16 206 45.5t85.5 60.5t52.5 72h-109z" />
    <glyph glyph-name="uni0424" unicode="&#x424;" 
d="M366.5 380q40.5 -104 151.5 -116v897q-107 -12 -149.5 -113t-42.5 -332.5t40.5 -335.5zM861.5 1050.5q-41.5 98.5 -150.5 110.5v-897q111 12 151.5 116t40.5 338t-41.5 332.5zM8 717q0 301 119 455.5t371 170.5v152h233v-152q250 -16 370 -170.5t120 -455.5
q0 -607 -490 -639v-158h-233v158q-490 31 -490 639z" />
    <glyph glyph-name="uni0425" unicode="&#x425;" 
d="M33 1419h370l203 -442h8l215 442h361l-381 -651l416 -768h-371l-244 526h-8l-237 -526h-363l401 754z" />
    <glyph glyph-name="uni0426" unicode="&#x426;" 
d="M1096 264h123v-604h-236l-37 340h-856v1419h340v-1155h326v1155h340v-1155z" />
    <glyph glyph-name="uni0427" unicode="&#x427;" 
d="M593 682q112 0 191 72v665h340v-1419h-340v524q-123 -94 -292 -94q-211 0 -327 122t-116 363v504h340v-493q0 -135 46 -189.5t158 -54.5z" />
    <glyph glyph-name="uni0428" unicode="&#x428;" 
d="M330 1419v-1188h170v1188h229v-1188h170v1188h258v-1419h-1085v1419h258z" />
    <glyph glyph-name="uni0429" unicode="&#x429;" 
d="M322 1419v-1188h170v1188h229v-1188h172v1188h258v-1188h94v-571h-209l-37 340h-936v1419h259z" />
    <glyph glyph-name="uni042A" unicode="&#x42a;" 
d="M504 707v-465h65q144 0 215.5 53t71.5 177t-62.5 179.5t-197.5 55.5h-92zM184 1171h-190v248h510v-477h104q279 0 436.5 -111.5t157.5 -349.5t-153.5 -359.5t-415.5 -121.5h-449v1171z" />
    <glyph glyph-name="uni042B" unicode="&#x42b;" 
d="M588 483q0 252 -223 252h-56v-520h35q123 0 183.5 57.5t60.5 210.5zM920 0v1419h266v-1419h-266zM43 1419h266v-471q276 -4 416.5 -110.5t140.5 -352.5q0 -366 -202.5 -425.5t-323.5 -59.5h-297v1419z" />
    <glyph glyph-name="uni042C" unicode="&#x42c;" 
d="M588 248q239 0 239 229q0 119 -61 171t-191 52h-124v-452h137zM111 1419h340v-477h137q279 0 436.5 -111.5t157.5 -349.5t-153 -359.5t-419 -121.5h-499v1419z" />
    <glyph glyph-name="uni042D" unicode="&#x42d;" 
d="M489 1210q-150 0 -286 -116l-160 184q98 82 215 130t274 48q291 0 454 -187.5t163 -553.5t-176 -558t-469 -192t-477 180l161 189q66 -53 136.5 -83t169.5 -30q135 0 217 88t90 297h-520v240h520q-10 199 -86 281.5t-226 82.5z" />
    <glyph glyph-name="uni042E" unicode="&#x42e;" 
d="M924 712q0 157 -5.5 258t-18.5 160.5t-35.5 83t-57.5 23.5t-56.5 -23.5t-36 -82t-19.5 -161t-5 -258t5 -258t18.5 -162t36 -84t57.5 -24.5t57.5 23.5t35.5 84t18.5 162t5.5 258.5zM1114.5 148.5q-89.5 -183.5 -302.5 -183.5t-301.5 161.5t-96.5 504.5h-92v-631h-259v1419
h259v-571h94q12 291 101 449.5t300 158.5t299 -178.5t88 -561.5q0 -384 -89.5 -567.5z" />
    <glyph glyph-name="uni042F" unicode="&#x42f;" 
d="M664 1182q-234 0 -234 -221q0 -121 64.5 -169.5t177.5 -48.5h112v439h-120zM74 969q0 450 583 450h467v-1419h-340v512h-166l-243 -512h-373l313 575q-241 107 -241 394z" />
    <glyph glyph-name="uni0430" unicode="&#x430;" 
d="M668 492q-260 0 -260 -162q0 -61 39 -97q41 -34 99 -34q58 1 114 31t85 87v175h-77zM599 1124q462 0 462 -385v-424q0 -61 16 -89t56 -42l-68 -215q-98 10 -164 43t-104 101q-63 -76 -161 -112t-190 -36q-172 0 -277 96q-103 97 -101 246q0 179 139 275t393 96h145v39
q0 166 -217 166q-131 0 -295 -58l-75 217q212 82 441 82z" />
    <glyph glyph-name="uni0431" unicode="&#x431;" 
d="M623 795q-209 0 -209 -299q0 -147 52 -222t148 -75q201 0 201 299q0 164 -49 230.5t-143 66.5zM88 614q0 351 91.5 527t346.5 252q163 47 249.5 90t137.5 71l119 -206q-123 -85 -346 -152q-90 -28 -136 -55t-89.5 -80t-57.5 -207h7q88 172 311 172q184 0 301 -141
t117 -392t-145 -389.5t-380 -138.5q-526 0 -526 649z" />
    <glyph glyph-name="uni0432" unicode="&#x432;" 
d="M557 1124q157 0 246.5 -16t191 -72.5t101.5 -201.5q0 -90 -61.5 -149.5t-160.5 -80.5v-8q121 -16 196 -88t75 -171q0 -180 -138 -258.5t-364 -78.5h-483v1077q240 47 397 47zM606 915q-69 0 -119 -8v-243h136q157 -1 157 125t-174 126zM635 215q180 0 180 139
q0 66 -43 103t-131 37h-154v-279h148z" />
    <glyph glyph-name="uni0433" unicode="&#x433;" 
d="M575 0h-327v1087h856l-37 -251h-492v-836z" />
    <glyph glyph-name="uni0434" unicode="&#x434;" 
d="M766 231v629h-203l-8 -108q-19 -238 -48.5 -327t-58 -126t-67.5 -68h385zM27 -307v538h86q55 55 84.5 163.5t48.5 344.5l28 348h797v-856h105v-538h-218l-34 307h-645l-35 -307h-217z" />
    <glyph glyph-name="uni0435" unicode="&#x435;" 
d="M632 905q-191 0 -210 -260h395q-2 117 -46 189t-139 71zM1096 115q-190 -150 -451 -150q-261 1 -407 159t-146 413t142 421t382 166t381 -149q140 -149 140 -410q0 -82 -7 -116h-704q30 -246 260 -246q144 0 272 98z" />
    <glyph glyph-name="uni0436" unicode="&#x436;" 
d="M510 0v475h-51l-178 -475h-293l256 584l-250 503h285l176 -432h55v432h209v-432h55l178 432h283l-248 -503l256 -584h-293l-180 475h-51v-475h-209z" />
    <glyph glyph-name="uni0437" unicode="&#x437;" 
d="M760 332q0 123 -197 123h-237l18 209h197q86 0 130 32.5t44 87.5q0 113 -181 113t-296 -80l-152 174q92 66 222 99.5t248 33.5q227 0 357.5 -80.5t130.5 -222.5q0 -92 -65.5 -151.5t-177.5 -85.5v-9q215 -26 257 -114t42 -162t-40 -138.5t-148.5 -130t-350.5 -65.5
q-322 0 -510 144l160 188q138 -98 344 -98q205 0 205 133z" />
    <glyph glyph-name="uni0438" unicode="&#x438;" 
d="M451 741q0 -242 -45 -419h8l340 765h333v-1087h-309v342q0 256 45 422h-8l-340 -764h-334v1087h310v-346z" />
    <glyph glyph-name="uni0439" unicode="&#x439;" 
d="M451 741q0 -242 -45 -419h8l340 765h333v-1087h-309v342q0 256 45 422h-8l-340 -764h-334v1087h310v-346zM882 1333q-101 -90 -262 -90t-256 86t-112 223l180 33q45 -129 186 -129t189 129l180 -33q-12 -132 -105 -219z" />
    <glyph glyph-name="uni043A" unicode="&#x43a;" 
d="M141 0v1087h328v-423h131l244 423h317l-299 -503l328 -584h-346l-252 467h-123v-467h-328z" />
    <glyph glyph-name="uni043B" unicode="&#x43b;" 
d="M1087 1087v-1087h-327v848h-228l-10 -129q-33 -379 -85 -491.5t-113.5 -167t-157.5 -101.5l-137 207q39 27 67.5 59.5t60 117t54.5 364.5l33 380h843z" />
    <glyph glyph-name="uni043C" unicode="&#x43c;" 
d="M879 569q0 116 10 226h-8l-148 -623h-235l-158 623h-8q12 -115 12 -198t-2 -135t-4 -108l-12 -354h-285l72 1087h352l149 -649h9l129 649h362l74 -1087h-291l-14 367q-4 86 -4 202z" />
    <glyph glyph-name="uni043D" unicode="&#x43d;" 
d="M758 0v432h-287v-432h-326v1087h326v-415h287v415h325v-1087h-325z" />
    <glyph glyph-name="uni043E" unicode="&#x43e;" 
d="M614 883q-98 0 -145 -80t-47 -259t47 -259t145 -80t146 80q47 80 47 259t-47 259q-48 80 -146 80zM1145 542q0 -269 -139 -423q-140 -154 -392 -154t-391 152t-139 422t142 427q142 158 390 158t388 -156q141 -157 141 -426z" />
    <glyph glyph-name="uni043F" unicode="&#x43f;" 
d="M758 0v852h-287v-852h-326v1087h938v-1087h-325z" />
    <glyph glyph-name="uni0440" unicode="&#x440;" 
d="M625 205q182 0 182 338q0 276 -96 324q-31 15 -70 16q-98 0 -172 -125v-457q35 -49 70 -73t86 -23zM1145 547q0 -260 -113 -421t-305 -161q-160 0 -258 113v-498l-328 -35v1542h291l14 -120q122 159 302 157q397 0 397 -577z" />
    <glyph glyph-name="uni0441" unicode="&#x441;" 
d="M719 872q-242 0 -246 -335q0 -248 150 -298q45 -16 96 -16q122 0 231 82l148 -209q-168 -131 -417 -131t-401 158q-151 158 -151 414q0 257 155 422t404 165q248 0 410 -137l-142 -196q-104 81 -237 81z" />
    <glyph glyph-name="uni0442" unicode="&#x442;" 
d="M770 846v-846h-328v846h-354v241h1049l-39 -241h-328z" />
    <glyph glyph-name="uni0443" unicode="&#x443;" 
d="M55 1087h346l205 -862h8l224 862h336l-363 -1087q-72 -219 -217 -331t-395 -126l-37 232q159 20 233 69q73 50 117 156h-113z" />
    <glyph glyph-name="uni0444" unicode="&#x444;" 
d="M336 268q19 -82 76 -82q27 0 45 16.5t41 45.5v594q-38 59 -90.5 59t-71.5 -81.5t-19 -275.5t19 -276zM819 186q53 0 72.5 75t19.5 227q0 261 -16 337t-65 76q-50 0 -99 -59v-594q23 -33 42 -47.5t46 -14.5zM930 1124q161 0 215.5 -141.5t54.5 -439.5q0 -578 -293 -578
q-106 0 -176 94v-487l-233 -27v512q-70 -92 -179 -92q-290 0 -290 578q0 291 63.5 436t222.5 145q112 0 183 -98v528l233 -26v-504q77 100 199 100z" />
    <glyph glyph-name="uni0445" unicode="&#x445;" 
d="M598 397l-201 -397h-354l373 571l-338 516h366l168 -337h9l161 337h348l-319 -503l375 -584h-371l-209 397h-8z" />
    <glyph glyph-name="uni0446" unicode="&#x446;" 
d="M147 0v1087h326v-845h268v845h328v-847h123v-559h-215l-37 319h-793z" />
    <glyph glyph-name="uni0447" unicode="&#x447;" 
d="M96 641v446h328v-405q0 -137 137 -137q106 0 191 69v473h327v-1087h-327v403q-121 -100 -301 -100q-179 0 -267 91t-88 247z" />
    <glyph glyph-name="uni0448" unicode="&#x448;" 
d="M1171 1087v-1087h-1114v1087h279v-862h166v862h225v-862h164v862h280z" />
    <glyph glyph-name="uni0449" unicode="&#x449;" 
d="M51 0v1087h281v-862h166v862h225v-862h162v862h282v-847h90v-559h-215l-36 319h-955z" />
    <glyph glyph-name="uni044A" unicode="&#x44a;" 
d="M543 545v-320h114q84 0 128 36t44 123t-43 124t-139 37h-104zM543 1087v-327h102q522 0 522 -377q0 -197 -129 -290t-356 -93h-467v854h-172v233h500z" />
    <glyph glyph-name="uni044B" unicode="&#x44b;" 
d="M377 203q166 0 166 180q0 96 -41 138t-135 42h-37v-360h47zM897 0v1087h272v-1087h-272zM59 1087h271v-331q252 -4 375.5 -89t123.5 -281t-117.5 -291t-328.5 -95h-324v1087z" />
    <glyph glyph-name="uni044C" unicode="&#x44c;" 
d="M500 545v-320h114q84 0 128 36t44 123t-43 124t-139 37h-104zM1124 383q0 -383 -518 -383h-434v1087h328v-327h100q524 0 524 -377z" />
    <glyph glyph-name="uni044D" unicode="&#x44d;" 
d="M509 203q115 0 181 58t82 200h-399v188h395q-31 238 -231 238q-127 0 -248 -76l-139 180q157 133 412 133q254 0 398 -161t144 -421q0 -261 -150.5 -419t-401.5 -158t-417 127l146 189q113 -78 228 -78z" />
    <glyph glyph-name="uni044E" unicode="&#x44e;" 
d="M815.5 913q-65.5 0 -85 -85.5t-19.5 -281.5t19.5 -283t85.5 -87t86 88t20 280t-20.5 280.5t-86 88.5zM815 1124q387 0 387 -577q0 -430 -140 -506t-247 -76q-355 0 -381 477h-96v-442h-275v1087h275v-425h98q36 462 379 462z" />
    <glyph glyph-name="uni044F" unicode="&#x44f;" 
d="M457 741q0 -88 43 -129t147 -41h103v332q-34 6 -109 6q-184 0 -184 -168zM121 735q0 186 127 287.5t384 101.5t445 -47v-1077h-327v379h-162l-199 -379h-350l266 449q-184 100 -184 286z" />
    <glyph glyph-name="uni0451" unicode="&#x451;" 
d="M632 905q-191 0 -210 -260h395q-2 117 -46 189t-139 71zM1096 115q-190 -150 -451 -150q-261 1 -407 159t-146 413t142 421t382 166t381 -149q140 -149 140 -410q0 -82 -7 -116h-704q30 -246 260 -246q144 0 272 98zM1038 1469q0 -71 -49 -117t-120 -47q-71 0 -121 47
q-50 48 -50 118t50 117t122 47q70 0 119 -47t49 -118zM393 1305q-72 0 -121 47q-49 48 -49 118t49 117t121 47t121 -47t49 -118t-49 -117t-121 -47z" />
    <glyph glyph-name="uni0452" unicode="&#x452;" 
d="M662 883q-88 0 -189 -131v-752h-328v1214h-125v191h125v115l328 32v-147h287v-191h-287v-237q139 147 320 147q145 0 222 -85t77 -240v-631q0 -276 -85 -381.5t-166 -153t-186 -88.5l-114 240q116 52 169.5 115t53.5 190v670q0 123 -102 123z" />
    <glyph glyph-name="uni0453" unicode="&#x453;" 
d="M575 0h-327v1087h856l-37 -251h-492v-836zM399 1411l441 295l145 -244l-487 -217z" />
    <glyph glyph-name="uni0454" unicode="&#x454;" 
d="M885 649v-188h-428q14 -141 84.5 -199.5t184.5 -58.5t228 82l140 -189q-168 -131 -420 -131q-253 0 -401 157.5t-148 414.5t154.5 422t404.5 165q249 0 410 -137l-140 -182q-118 82 -234 82q-115 0 -181 -56.5t-82 -181.5h428z" />
    <glyph glyph-name="uni0455" unicode="&#x455;" 
d="M566 199q180 0 182 100q0 52 -48 81q-48 28 -166 60q-119 33 -181 61q-202 91 -199 287q0 149 126 244q126 94 351 92q139 0 250 -36t178 -87l-131 -192q-124 82 -285 82q-160 0 -160 -82q0 -39 38 -60q38 -22 88 -39t130 -40q178 -51 253 -115q97 -82 95 -229
q0 -173 -148 -267t-368 -94q-299 0 -485 160l164 180q136 -106 316 -106z" />
    <glyph glyph-name="uni0456" unicode="&#x456;" 
d="M645 1290q-84 0 -139 53t-55 131t55 132q55 53 139 53t139 -53q56 -53 56 -131q0 -77 -56 -131t-139 -54zM1085 0h-911v223h307v641h-297v223h625v-864h276v-223z" />
    <glyph glyph-name="uni0457" unicode="&#x457;" 
d="M1030 1469q0 -71 -49 -117t-120 -47q-71 0 -121 47q-50 48 -50 118t50 117t121 47t120 -47t49 -118zM385 1305q-72 0 -121 47q-49 48 -49 118t49 117t121 47t121 -47t49 -118t-49 -117t-121 -47zM809 223h276v-223h-911v223h307v641h-297v223h625v-864z" />
    <glyph glyph-name="uni0458" unicode="&#x458;" 
d="M682 1290q-84 0 -139 53t-55 131t54 132q56 53 140 53t139 -53t55 -131q0 -77 -54 -131q-56 -54 -140 -54zM539 176v688h-349v223h676v-823q0 -298 -164 -468q-80 -83 -194 -142t-258 -109l-109 242q195 70 267 130q71 59 101 119t30 140z" />
    <glyph glyph-name="uni0459" unicode="&#x459;" 
d="M788 557v-358h21q76 0 111.5 38.5t35.5 138.5t-31.5 140.5t-117.5 40.5h-19zM788 1087v-337h19q227 0 329.5 -91.5t102.5 -280.5t-111.5 -283.5t-296.5 -94.5h-307v881h-118l-9 -215q-12 -344 -61 -455t-104.5 -160t-139.5 -92l-104 193q31 23 79 80t64 448l16 407h641z
" />
    <glyph glyph-name="uni045A" unicode="&#x45a;" 
d="M963 355q0 83 -40 118t-135 39v-305q86 0 130.5 32.5t44.5 115.5zM1239 356q0 -356 -440 -356h-275v512h-172v-512h-266v1087h266v-380h172v380h264v-380q236 -4 343.5 -88t107.5 -263z" />
    <glyph glyph-name="uni045B" unicode="&#x45b;" 
d="M662 883q-88 0 -189 -131v-752h-328v1214h-125v191h125v115l328 32v-147h287v-191h-287v-237q139 147 320 147q145 0 222 -85t77 -240v-799h-328v760q0 123 -102 123z" />
    <glyph glyph-name="uni045C" unicode="&#x45c;" 
d="M141 0v1087h328v-423h131l244 423h317l-299 -503l328 -584h-346l-252 467h-123v-467h-328zM326 1411l440 295l145 -244l-487 -217z" />
    <glyph glyph-name="uni045E" unicode="&#x45e;" 
d="M55 1087h346l205 -862h8l224 862h336l-363 -1087q-72 -219 -217 -331t-395 -126l-37 232q159 20 233 69q73 50 117 156h-113zM878 1333q-101 -90 -262 -90t-256 86t-112 223l180 33q45 -129 186 -129t189 129l180 -33q-12 -132 -105 -219z" />
    <glyph glyph-name="uni045F" unicode="&#x45f;" 
d="M147 0v1087h326v-845h283v845h325v-1087h-344v-319h-215l-35 319h-340z" />
    <glyph glyph-name="uni0462" unicode="&#x462;" 
d="M586 682v-442h65q111 0 169.5 51t58.5 170t-58.5 170t-175.5 51h-59zM586 1180v-271h76q260 0 401 -109.5t141 -336.5t-148 -345t-413 -118h-371v1180h-284v239h899l-35 -239h-266z" />
    <glyph glyph-name="uni0463" unicode="&#x463;" 
d="M528 541v-316h113q84 0 128 35t44 121t-43 123t-139 37h-103zM201 932h-129v190h129v226l327 32v-258h273l-29 -190h-244v-176h101q522 0 522 -375q0 -186 -119 -283.5t-348 -97.5h-483v932z" />
    <glyph glyph-name="uni0472" unicode="&#x472;" 
d="M614 1208q-112 0 -166 -92t-65 -295h461q-10 203 -64 295t-166 92zM615 213q116 0 169 100t62 318h-463q6 -219 61 -319t171 -99zM1184 712q0 -347 -149 -547t-422 -200q-274 0 -421 198t-147 544q0 347 148 548t423 201t422 -198q146 -199 146 -546z" />
    <glyph glyph-name="uni0473" unicode="&#x473;" 
d="M815 639q-23 250 -201 250q-177 0 -200 -250h401zM613 201q87 0 140 57q52 57 64 197h-405q12 -139 63 -197t138 -57zM1145 542q0 -269 -139 -423q-140 -154 -392 -154t-391 152t-139 422t142 427q142 158 390 158t388 -156q141 -157 141 -426z" />
    <glyph glyph-name="uni0474" unicode="&#x474;" 
d="M614 281h11l194 874q39 185 103 287l329 -62q-72 -121 -118 -295l-306 -1085h-424l-405 1419h360z" />
    <glyph glyph-name="uni0475" unicode="&#x475;" 
d="M57 1087h355l204 -823h9l149 598q43 175 98 248l316 -39q-54 -82 -81.5 -157.5t-45.5 -133.5l-252 -780h-385z" />
    <glyph glyph-name="uni0490" unicode="&#x490;" 
d="M831 1419v318h314v-318l-33 -266h-590v-1153h-340v1419h649z" />
    <glyph glyph-name="uni0491" unicode="&#x491;" 
d="M575 0h-327v1087h559v314h297v-314l-37 -251h-492v-836z" />
    <glyph glyph-name="uni0492" unicode="&#x492;" 
d="M573 1153v-266h291v-203h-291v-684h-340v684h-157v203h157v532h965l-33 -266h-592z" />
    <glyph glyph-name="uni0493" unicode="&#x493;" 
d="M610 639h230v-184h-230v-455h-327v455h-121v184h121v448h856l-37 -251h-492v-197z" />
    <glyph glyph-name="uni0496" unicode="&#x496;" 
d="M508 655h-55l-160 -655h-291l219 776l-198 643h278l156 -596h51v596h199v-596h51l155 596h281l-201 -643l152 -512h94v-604h-205l-37 340h-75l-160 655h-55v-655h-199v655z" />
    <glyph glyph-name="uni0497" unicode="&#x497;" 
d="M508 0v475h-53l-179 -475h-292l256 584l-250 503h284l177 -432h57v432h207v-432h55l180 432h283l-250 -503l152 -344h114v-559h-215l-35 319h-53l-180 475h-51v-475h-207z" />
    <glyph glyph-name="uni0498" unicode="&#x498;" 
d="M653 -98q213 -23 213 -213q0 -94 -83 -161t-222 -67t-244 64l76 149q66 -34 131 -34q107 0 107 63q0 41 -47 54.5t-142 13.5l23 198q-299 29 -453 199l185 174q139 -129 350 -129q123 0 194.5 54.5t71.5 152.5q0 211 -270 211h-236l39 241h197q106 0 169.5 43t63.5 125
t-60.5 126t-170.5 44q-195 0 -332 -110l-164 172q98 90 239.5 137t279.5 47q255 0 398.5 -106t143.5 -269q0 -129 -84 -211t-238 -108v-8q164 -16 264.5 -105t100.5 -257t-132 -285t-368 -138v-67z" />
    <glyph glyph-name="uni0499" unicode="&#x499;" 
d="M653 -98q213 -23 213 -213q0 -94 -83 -161t-222 -67t-244 64l76 149q66 -34 131 -34q105 0 105 63q0 41 -46 54.5t-141 13.5l23 198q-265 20 -414 140l160 188q138 -98 344 -98q205 0 205 133q0 123 -197 123h-237l18 209h197q86 0 130 32.5t44 87.5q0 113 -181 113
t-296 -80l-152 174q92 66 222 99.5t248 33.5q227 0 357.5 -80.5t130.5 -222.5q0 -92 -65.5 -151.5t-177.5 -85.5v-9q215 -26 257 -114t42 -158q0 -142 -121 -229.5t-326 -104.5v-67z" />
    <glyph glyph-name="uni049A" unicode="&#x49a;" 
d="M453 616v-616h-340v1419h340v-557h108l309 557h332l-358 -643l268 -512h129v-604h-235l-37 340h-99l-305 616h-112z" />
    <glyph glyph-name="uni049B" unicode="&#x49b;" 
d="M141 0v1087h328v-423h131l244 423h317l-299 -503l201 -344h127v-559h-215l-35 319h-96l-252 467h-123v-467h-328z" />
    <glyph glyph-name="uni049C" unicode="&#x49c;" 
d="M494 301v332h-62v-633h-307v1419h307v-573h62v328h112v-328h23l243 573h326l-317 -643l356 -776h-356l-246 633h-29v-332h-112z" />
    <glyph glyph-name="uni049D" unicode="&#x49d;" 
d="M141 0v1087h310v-436h69v236h96v-236h37l193 436h315l-252 -503l281 -584h-342l-195 479h-37v-239h-96v239h-69v-479h-310z" />
    <glyph glyph-name="uni04A0" unicode="&#x4a0;" 
d="M506 623v-623h-316v1171h-190v248h506v-563h92l311 563h322l-367 -643l404 -776h-359l-307 623h-96z" />
    <glyph glyph-name="uni04A1" unicode="&#x4a1;" 
d="M184 0v854h-172v233h500v-423h117l243 423h318l-299 -503l328 -584h-347l-251 467h-109v-467h-328z" />
    <glyph glyph-name="uni04A2" unicode="&#x4a2;" 
d="M1100 264h123v-604h-236l-37 340h-190v606h-330v-606h-340v1419h340v-549h330v549h340v-1155z" />
    <glyph glyph-name="uni04A3" unicode="&#x4a3;" 
d="M743 0v432h-284v-432h-328v1087h328v-415h284v415h328v-847h121v-559h-215l-37 319h-197z" />
    <glyph glyph-name="uni04AA" unicode="&#x4aa;" 
d="M756 1204q-239 0 -286.5 -181t-47.5 -309q0 -249 87 -368t239 -119q104 0 175.5 36t131.5 83l153 -196q-106 -106 -256 -152q-153 -89 -168.5 -152t-15.5 -98t26.5 -63.5t89.5 -28.5t124 29l65 -158q-100 -55 -233 -55t-214 66.5t-81 182.5q0 145 168 244
q-291 0 -468 198t-177 547.5t184.5 547.5t478.5 198q154 0 261.5 -43t197.5 -115l-166 -196q-128 102 -268 102z" />
    <glyph glyph-name="uni04AB" unicode="&#x4ab;" 
d="M719 -240q0 -104 120 -104q67 0 119 29l66 -158q-100 -55 -233 -55t-214 66.5t-81 182.5q0 146 176 244q-254 8 -398.5 164t-144.5 410t154.5 419.5t403.5 165.5t411 -137l-142 -196q-104 81 -237 81q-246 0 -246 -335q0 -247 97.5 -280.5t148.5 -33.5q122 0 231 82
l148 -209q-80 -62 -207 -104q-172 -102 -172 -232z" />
    <glyph glyph-name="uni04AE" unicode="&#x4ae;" 
d="M784 0h-340v530l-462 889h372l262 -598h9l264 598h358l-463 -887v-532z" />
    <glyph glyph-name="uni04AF" unicode="&#x4af;" 
d="M455 -455v463l-408 1079h356l213 -784h9l223 784h334l-408 -1077v-430z" />
    <glyph glyph-name="uni04B0" unicode="&#x4b0;" 
d="M1022 600v-190h-238v-410h-340v410h-237v190h201l-426 819h372l262 -598h9l264 598h358l-428 -819h203z" />
    <glyph glyph-name="uni04B1" unicode="&#x4b1;" 
d="M455 4h-195v182h127l-340 901h356l213 -784h9l223 784h334l-342 -901h131v-182h-197v-424l-319 -35v459z" />
    <glyph glyph-name="uni04B2" unicode="&#x4b2;" 
d="M1231 264v-604h-236l-37 340h-104l-244 526h-8l-237 -526h-363l401 754l-370 665h370l203 -442h8l215 442h361l-381 -651l274 -504h148z" />
    <glyph glyph-name="uni04B3" unicode="&#x4b3;" 
d="M1186 240v-559h-215l-35 319h-129l-207 397h-8l-201 -397h-356l373 571l-338 516h366l168 -337h8l164 337h348l-321 -503l223 -344h160z" />
    <glyph glyph-name="uni04B8" unicode="&#x4b8;" 
d="M784 1419h340v-1419h-340v524q-57 -45 -133 -65v-185h-129v158q-473 0 -473 483v504h340v-493q0 -111 31 -166t102 -72v459h129v-459q88 19 133 66v665z" />
    <glyph glyph-name="uni04B9" unicode="&#x4b9;" 
d="M424 1087v-405q0 -123 106 -135v268h103v-262q68 16 119 61v473h327v-1087h-327v403q-55 -45 -119 -65v-172h-103v145q-39 -8 -90 -8q-168 0 -256 91t-88 247v446h328z" />
    <glyph glyph-name="uni04BA" unicode="&#x4ba;" 
d="M643 713q-109 0 -199 -74v-639h-340v1419h340v-557q129 103 299 103q217 0 327 -126t110 -366v-473h-340v471q0 135 -44 188.5t-153 53.5z" />
    <glyph glyph-name="uni04BB" unicode="&#x4bb;" 
d="M636 743q-71 0 -163 -127v-616h-328v1520l328 32v-714q139 147 315 147q145 0 220 -85t75 -238v-662h-327v621q0 70 -24.5 96t-95.5 26z" />
    <glyph glyph-name="uni04C0" unicode="&#x4c0;" 
d="M152 1419h925v-248h-293v-921h293v-250h-925v250h292v921h-292v248z" />
    <glyph glyph-name="uni04CB" unicode="&#x4cb;" 
d="M579 682q102 0 181 70v667h340v-1155h119v-604h-234l-39 340h-186v522q-126 -92 -281 -92q-199 0 -314.5 122t-115.5 363v504h340v-493q0 -135 44 -189.5t146 -54.5z" />
    <glyph glyph-name="uni04CC" unicode="&#x4cc;" 
d="M84 641v446h328v-339q0 -117 27.5 -160t120.5 -43t179 69v473h328v-847h123v-559h-215l-37 319h-199v403q-126 -100 -302 -100q-177 0 -265 91t-88 247z" />
    <glyph glyph-name="uni04CF" unicode="&#x4cf;" 
d="M375 385v911h-320v224h647v-1178q0 -66 37 -92t109 -27q72 0 147 33l78 -219q-137 -72 -326 -72q-190 0 -281 114t-91 306z" />
    <glyph glyph-name="uni04D8" unicode="&#x4d8;" 
d="M606 209q171 0 202.5 141.5t35.5 247.5h-484q2 -213 67.5 -301t178.5 -88zM598 1456q283 0 433.5 -185.5t150.5 -552t-151.5 -560t-428.5 -193.5t-420 189t-143 536q0 76 12 137h793q-11 385 -277 385q-100 0 -164.5 -35.5t-121.5 -82.5l-160 184q98 86 210.5 132
t266.5 46z" />
    <glyph glyph-name="uni04D9" unicode="&#x4d9;" 
d="M391 444q4 -247 219 -247q100 0 156.5 57t60.5 190h-436zM84 496q0 105 6 145h737q-4 131 -68.5 191.5t-172.5 60.5q-159 0 -299 -94l-135 182q191 143 453.5 143t401 -157t138.5 -414q0 -258 -141 -423t-389 -165t-352.5 109.5t-141.5 213t-37 208.5z" />
    <glyph glyph-name="uni04E2" unicode="&#x4e2;" 
d="M813 465q0 348 49 616h-8l-369 -1081h-381v1419h312v-475q0 -299 -49 -608h8l375 1083h374v-1419h-311v465zM928 1604h-627v227h627v-227z" />
    <glyph glyph-name="uni04E3" unicode="&#x4e3;" 
d="M932 1346h-627v227h627v-227zM451 741q0 -242 -45 -419h8l340 765h333v-1087h-309v342q0 256 45 422h-8l-340 -764h-334v1087h310v-346z" />
    <glyph glyph-name="uni04E8" unicode="&#x4e8;" 
d="M614.5 1208q-110.5 0 -166 -92t-65.5 -295h461q-10 203 -64.5 295t-165 92zM615 213q116 0 169.5 100.5t61.5 317.5h-463q6 -219 61 -318.5t171 -99.5zM191.5 163.5q-146.5 198.5 -146.5 544.5t147.5 547t423.5 201t422 -199t146 -545t-148 -546.5t-423 -200.5
t-421.5 198.5z" />
    <glyph glyph-name="uni04E9" unicode="&#x4e9;" 
d="M815 639q-23 250 -200.5 250t-200.5 -250h401zM613 201q87 0 139.5 57t64.5 197h-405q12 -139 63 -196.5t138 -57.5zM1005 967q140 -157 140 -425q0 -269 -139.5 -423t-391.5 -154t-391 151.5t-139 422.5t142.5 428t390.5 157t388 -157z" />
    <glyph glyph-name="uni04EE" unicode="&#x4ee;" 
d="M-12 1419h352l293 -837h8l260 837h344l-358 -934q-107 -276 -241 -386t-408 -134l-45 232q219 23 291 106q28 31 53 72h-109zM944 1604h-627v227h627v-227z" />
    <glyph glyph-name="uni04EF" unicode="&#x4ef;" 
d="M55 1087h346l205 -862h8l224 862h336l-363 -1087q-72 -219 -217 -331t-395 -126l-37 232q159 20 233 69q73 50 117 156h-113zM928 1346h-627v227h627v-227z" />
    <glyph glyph-name="uni2007" unicode="&#x2007;" 
 />
    <glyph glyph-name="uni2008" unicode="&#x2008;" 
 />
    <glyph glyph-name="uni200B" unicode="&#x200b;" 
 />
    <glyph glyph-name="figuredash" unicode="&#x2012;" 
d="M66 526v254h1097v-254h-1097z" />
    <glyph glyph-name="endash" unicode="&#x2013;" 
d="M55 514v254h1119v-254h-1119z" />
    <glyph glyph-name="emdash" unicode="&#x2014;" 
d="M0 514v254h1229v-254h-1229z" />
    <glyph glyph-name="afii00208" unicode="&#x2015;" 
d="M55 596v254h1119v-254h-1119z" />
    <glyph glyph-name="underscoredbl" unicode="&#x2017;" 
d="M57 -440v164h1114v-164h-1114zM1171 -164h-1114v164h1114v-164z" />
    <glyph glyph-name="quoteleft" unicode="&#x2018;" 
d="M723 1253q80 -58 80 -145q0 -86 -55.5 -141.5t-138.5 -55.5t-138 53.5t-55 136.5q0 82 65 212l146 303h184z" />
    <glyph glyph-name="quoteright" unicode="&#x2019;" 
d="M504 1274q-80 58 -80 146t56 142t139 54t137.5 -54.5t54.5 -115.5t-14.5 -109.5t-51.5 -122.5l-145 -303h-184z" />
    <glyph glyph-name="quotesinglbase" unicode="&#x201a;" 
d="M506 -10q-80 58 -80 146t56 142t139 54t137.5 -55t54.5 -117t-15.5 -109t-49.5 -121l-148 -303h-184z" />
    <glyph glyph-name="quotedblleft" unicode="&#x201c;" 
d="M961 1253q81 -59 81 -146q0 -86 -55 -141t-139 -55t-138.5 54.5t-54.5 134.5t66 213l145 303h185zM483 1253q80 -58 80 -145q0 -86 -55.5 -141.5t-139.5 -55.5t-137 54.5t-53 116.5t14.5 109.5t49.5 121.5l145 303h184z" />
    <glyph glyph-name="quotedblright" unicode="&#x201d;" 
d="M745 1292q-81 59 -81 146t55 140.5t139 53.5t138.5 -53t54.5 -115t-14.5 -109.5t-51.5 -123.5l-145 -301h-185zM266 1292q-80 58 -80 145t55.5 141t139.5 54t138 -53t54 -115t-15 -109.5t-50 -123.5l-146 -301h-184z" />
    <glyph glyph-name="quotedblbase" unicode="&#x201e;" 
d="M745 -10q-81 59 -81 146q0 86 55 141t139 55t138.5 -55t54.5 -117t-14.5 -109t-51.5 -121l-145 -303h-185zM268 -10q-82 60 -82 145q0 86 55.5 141.5t139.5 55.5t138 -54t54 -117t-14 -110t-51 -121l-146 -303h-184z" />
    <glyph glyph-name="dagger" unicode="&#x2020;" 
d="M768 834v-834h-307v834h-338v264h338v293h307v-293h338v-264h-338z" />
    <glyph glyph-name="daggerdbl" unicode="&#x2021;" 
d="M768 834v-273h338v-266h-338v-295h-307v295h-338v266h338v273h-338v264h338v293h307v-293h338v-264h-338z" />
    <glyph glyph-name="bullet" unicode="&#x2022;" 
d="M405.5 491.5q-83.5 83.5 -83.5 208.5t82 208t208.5 83t210.5 -84t84 -209.5t-83.5 -207.5t-209 -82t-209 83.5z" />
    <glyph glyph-name="ellipsis" unicode="&#x2026;" 
d="M848 135q0 37 14.5 69t38 55.5t55 37.5t68.5 14t68.5 -14t55 -37.5t38 -55.5t14.5 -69t-14.5 -68.5t-38 -55t-55 -38t-68.5 -14.5t-68.5 14.5t-55 38t-38 55t-14.5 68.5zM438 135q0 37 14.5 69t38 55.5t55.5 37.5t68.5 14t68.5 -14t55.5 -37.5t38 -55.5t14.5 -69
t-14.5 -68.5t-38 -55t-55.5 -38t-68.5 -14.5t-68.5 14.5t-55.5 38t-38 55t-14.5 68.5zM29 135q0 37 14 69t37.5 55.5t55.5 37.5t69 14t68.5 -14t55 -37.5t38 -55.5t14.5 -69t-14.5 -68.5t-38 -55t-55 -38t-68.5 -14.5t-69 14.5t-55.5 38t-37.5 55t-14 68.5z" />
    <glyph glyph-name="perthousand" unicode="&#x2030;" 
d="M596 1161q0 -135 -72.5 -212t-200.5 -77t-202 77t-74 210t74 215t202 82t200.5 -80t72.5 -215zM389 1163.5q0 61.5 -11 98t-55 36.5t-55.5 -37.5t-11.5 -97t12.5 -97.5t55.5 -38t54 37t11 98.5zM596 270q0 -135 -72.5 -211.5t-201.5 -76.5t-202 76.5t-73 208.5t73 214
t202 82t201.5 -79t72.5 -214zM389 272.5q0 61.5 -11 97.5t-55 36t-56.5 -37t-12.5 -96.5t13.5 -97.5t56.5 -38t54 37t11 98.5zM1180 270q0 -135 -72 -211.5t-201 -76.5t-201.5 76.5t-72.5 208.5t72.5 214t201.5 82t201 -79t72 -214zM973 272.5q0 61.5 -11.5 97.5t-55.5 36
t-55 -37t-11 -96.5t12 -97.5t55 -38t54.5 37t11.5 98.5zM45 557l-47 141l1135 371l47 -143z" />
    <glyph glyph-name="guilsinglleft" unicode="&#x2039;" 
d="M909 166l-202 -133l-388 450v207l388 451l202 -133l-262 -420z" />
    <glyph glyph-name="guilsinglright" unicode="&#x203a;" 
d="M580 588l-261 420l201 133l389 -451v-207l-389 -450l-201 133z" />
    <glyph glyph-name="fraction" unicode="&#x2044;" 
d="M111 358l-86 156l1095 524l84 -155z" />
    <glyph glyph-name="uni2070" unicode="&#x2070;" 
d="M938 1151q0 -166 -88 -253t-234 -87t-236 87q-89 87 -89 251t89 254t235 90q147 0 235 -88t88 -254zM698 1153q0 102 -18 139t-64 37t-66 -40t-20 -136t20 -137t66 -41q45 0 64 38q18 38 18 140z" />
    <glyph glyph-name="uni2074" unicode="&#x2074;" 
d="M862 938v-115h-215v115h-371v135l246 426l197 -65l-201 -342h133l31 161h180v-161h88v-154h-88z" />
    <glyph glyph-name="uni2075" unicode="&#x2075;" 
d="M938 1047q0 -111 -88 -173t-264 -63q-176 0 -295 109l129 112q78 -55 175 -55t97 68t-78 67q-51 0 -96 -20h-156v389h541l-24 -160h-301v-80q176 61 291 -29q69 -54 69 -165z" />
    <glyph glyph-name="uni2076" unicode="&#x2076;" 
d="M705 1044q1 40 -17 56t-62 16t-94 -43q6 -51 26 -78t67 -26q80 0 80 75zM679 1333q-132 0 -149 -135q70 63 172 64q163 0 225 -117q19 -39 19 -90q0 -111 -87 -177t-247 -67q-160 0 -245 88q-84 88 -84 241t104 253t285 100q122 0 209 -49l-93 -129q-45 18 -109 18z" />
    <glyph glyph-name="uni2077" unicode="&#x2077;" 
d="M315 1313v168h600v-138l-315 -540l-217 88l287 422h-355z" />
    <glyph glyph-name="uni2078" unicode="&#x2078;" 
d="M690 1307q0 39 -74 40t-75 -38q0 -32 88 -60q31 15 46 27t15 31zM717 1020q0 29 -33 45t-104 33q-70 -29 -70 -70q0 -57 104 -57t103 49zM614 1493q148 0 226 -51q78 -52 78 -114t-35 -92t-99 -50q82 -25 125 -64q43 -38 43 -116t-87 -136t-256 -59q-169 0 -251 55
t-82 146q0 63 38 100t118 59q-57 29 -90 61t-33 96t79 114q79 51 226 51z" />
    <glyph glyph-name="uni2079" unicode="&#x2079;" 
d="M526 1262q0 -66 78 -66q47 0 96 29q-2 57 -22 83t-68 25q-84 0 -84 -71zM508 1053q-94 0 -160 49t-66 155t95 171q94 65 250 65q157 0 238 -78t81 -198q0 -187 -142 -285t-405 -135l-51 161q129 16 211 48t129 92l-6 4q-80 -49 -174 -49z" />
    <glyph glyph-name="uni207A" unicode="&#x207a;" 
d="M719 1196h162v-170h-162v-160h-209v160h-162v170h162v164h209v-164z" />
    <glyph glyph-name="uni207B" unicode="&#x207b;" 
d="M328 1030v162h573v-162h-573z" />
    <glyph glyph-name="uni207C" unicode="&#x207c;" 
d="M328 891v168h573v-168h-573zM328 1155v170h573v-170h-573z" />
    <glyph glyph-name="uni207D" unicode="&#x207d;" 
d="M493 1409q50 103 166 250l146 -90q-85 -123 -119 -223q-33 -100 -33 -238t34 -241t118 -222l-146 -92q-123 158 -161 238q-76 163 -76 321q0 157 71 297z" />
    <glyph glyph-name="uni207E" unicode="&#x207e;" 
d="M575 1106q0 202 -83 351q-29 52 -68 112l145 90q119 -149 159 -232q77 -162 79 -321q0 -222 -145 -429q-43 -60 -93 -124l-145 92q83 121 117 223q34 103 34 238z" />
    <glyph glyph-name="uni207F" unicode="&#x207f;" 
d="M641 1356q-45 0 -94 -68v-463h-238v686h211l10 -51q76 72 180 72q210 0 210 -211v-496h-238v441q0 49 -9 69.5t-32 20.5z" />
    <glyph glyph-name="uni2080" unicode="&#x2080;" 
d="M938 -10q0 -166 -88 -253t-234 -87t-236 87q-89 87 -89 251t89 254t235 90q147 0 235 -88t88 -254zM698 -8q0 102 -18 139t-64 37t-66 -40t-20 -136t20 -137t66 -41q45 0 64 38q18 38 18 140z" />
    <glyph glyph-name="uni2081" unicode="&#x2081;" 
d="M631 -338v430l-160 -82l-109 148l304 161h198v-657h-233z" />
    <glyph glyph-name="uni2082" unicode="&#x2082;" 
d="M616 332q143 0 217 -64t74 -152t-61 -149t-230 -135h316l-27 -170h-583v152q223 122 270 164q47 40 58 64q12 24 12 52t-22 47q-22 20 -60 21q-77 0 -138 -72l-145 107q123 135 319 135z" />
    <glyph glyph-name="uni2083" unicode="&#x2083;" 
d="M944 -147q0 -95 -91 -149t-247 -54q-209 0 -321 112l133 113q82 -61 182 -61t100 63q0 31 -21 47q-22 16 -79 17h-108l26 120h82q76 -1 76 53t-82 54t-170 -57l-117 116q131 104 320 105q139 0 213 -51t73 -131q0 -115 -129 -140v-8q160 -21 160 -149z" />
    <glyph glyph-name="uni2084" unicode="&#x2084;" 
d="M862 -223v-115h-215v115h-371v135l246 426l197 -66l-201 -342h133l31 162h180v-162h88v-153h-88z" />
    <glyph glyph-name="uni2085" unicode="&#x2085;" 
d="M938 -115q0 -111 -88 -173t-264 -62t-295 108l129 113q78 -55 175 -55t97 68t-78 67q-51 0 -96 -21h-156v389h541l-24 -159h-301v-80q70 24 122 24q100 0 169 -54t69 -165z" />
    <glyph glyph-name="uni2086" unicode="&#x2086;" 
d="M705 -117q1 41 -17 57t-62 15q-44 0 -94 -43q6 -51 26 -78t67 -27q80 0 80 76zM702 100q164 0 225 -116q19 -39 19 -90q0 -111 -87 -178q-87 -66 -247 -66t-245 88q-84 88 -84 229q0 251 224 337q73 28 149 28q138 0 225 -49l-93 -129q-45 18 -109 18q-132 0 -149 -135
q70 63 172 63z" />
    <glyph glyph-name="uni2087" unicode="&#x2087;" 
d="M315 152v167h600v-137l-315 -540l-217 88l287 422h-355z" />
    <glyph glyph-name="uni2088" unicode="&#x2088;" 
d="M614 186q-73 0 -73 -39q0 -18 20 -31t68 -28q31 16 46 28t15 28q0 18 -18 30t-58 12zM717 -141q0 29 -33 45t-104 33q-70 -29 -70 -70q0 -57 104 -57t103 49zM614 332q148 0 226 -51t78 -113t-35 -93q-35 -30 -99 -50q82 -25 125 -64t43 -117t-87 -136t-256 -58t-251 55
t-82 145q0 62 38 100t118 60q-57 29 -90 61q-33 31 -33 95t79 115t226 51z" />
    <glyph glyph-name="uni2089" unicode="&#x2089;" 
d="M526 100q0 -65 78 -65q45 0 96 28q-2 57 -22 83t-68 26q-84 0 -84 -72zM946 55q0 -188 -142 -285t-405 -135l-51 162q129 16 211 47t129 93l-6 4q-79 -48 -173 -49q-95 -2 -161 48t-66 157t94 170q93 63 250 64q158 1 239 -77t81 -199z" />
    <glyph glyph-name="uni208A" unicode="&#x208a;" 
d="M719 86h162v-170h-162v-160h-209v160h-162v170h162v164h209v-164z" />
    <glyph glyph-name="uni208B" unicode="&#x208b;" 
d="M328 -55v161h573v-161h-573z" />
    <glyph glyph-name="uni208C" unicode="&#x208c;" 
d="M328 -188v168h573v-168h-573zM328 76v170h573v-170h-573z" />
    <glyph glyph-name="uni208D" unicode="&#x208d;" 
d="M653 18q0 -72 13 -158q20 -136 139 -302l-146 -93q-123 158 -161 238q-76 163 -76 315q0 220 145 431q43 61 92 122l146 -90q-86 -124 -111 -198q-24 -73 -32 -133t-9 -132z" />
    <glyph glyph-name="uni208E" unicode="&#x208e;" 
d="M575 18q0 72 -13 161t-56 166t-82 136l145 90q121 -150 160 -233q76 -161 78 -320q0 -222 -145 -429q-43 -60 -93 -124l-145 93q84 122 108 197q25 75 34 133t9 130z" />
    <glyph glyph-name="Euro" unicode="&#x20ac;" 
d="M233 641v143h-165l43 170h147q51 236 200.5 369t379.5 133q125 0 202.5 -29.5t147.5 -76.5l-121 -203q-57 39 -102 54.5t-129 15.5t-153 -60.5t-97 -202.5h420l-43 -170h-400v-143h369l-45 -172h-307q23 -139 86 -200.5t194 -61.5t270 94v-260q-160 -76 -311 -76
q-238 0 -379 130t-186 374h-188l43 172h124z" />
    <glyph glyph-name="litre" unicode="&#x2113;" 
d="M750 1352q-56 0 -75.5 -54t-19.5 -188v-102q92 53 128.5 116.5t36.5 145.5t-70 82zM342 369v317q-68 -17 -176 -35l-35 193q123 21 211 47v172q0 238 97.5 364.5t308.5 126.5q158 0 238.5 -80.5t80.5 -203.5q0 -162 -100.5 -283t-311.5 -207v-438q0 -66 38 -92.5
t113 -26.5t157 33l77 -219q-137 -72 -324 -72q-188 0 -281 109.5t-93 294.5z" />
    <glyph glyph-name="uni2116" unicode="&#x2116;" 
d="M240 489v-489h-240v1419h281l206 -1104h9q-62 279 -62 607v497h238v-1419h-269l-219 1102h-8q36 -184 50 -355.5t14 -257.5zM1219 0h-500v223h500v-223zM969 1233q-35 0 -45.5 -60.5t-10.5 -202.5t10.5 -201.5t45.5 -59.5t45 59.5t10 201.5t-10 202.5t-45 60.5zM969 1436
q148 0 204 -122.5t56 -342.5q0 -343 -93.5 -405t-169.5 -62q-145 0 -201 116t-56 343q0 228 56 350.5t204 122.5z" />
    <glyph glyph-name="trademark" unicode="&#x2122;" 
d="M686 944v-70l-4 -270h-203l23 643h-144v-643h-223v643h-164v178h789l84 -473h10l82 473h254l27 -821h-201l-4 270v68q0 125 18 244h-8l-88 -436h-168l-90 436h-8q18 -110 18 -242z" />
    <glyph glyph-name="Omega" unicode="&#x2126;" 
d="M1184 774q0 -395 -248 -524v-8h225v-242h-491v238q90 51 128 178t38 352t-52.5 331.5t-169 106.5t-169 -106.5t-52.5 -331.5t38 -351t128 -179v-238h-491v242h223v8q-246 130 -246 524q0 300 149.5 491t420 191t420 -191t149.5 -491z" />
    <glyph glyph-name="estimated" unicode="&#x212e;" 
d="M680.5 1436q201.5 0 340 -132.5t173.5 -345.5v-274h-885v-534q114 -97 316 -97q141 0 241.5 52.5t153.5 146.5h100q-146 -277 -497 -277q-248 0 -394.5 125t-185.5 338v520q56 336 246 407t391.5 71zM618 1356q-198 0 -309 -86v-506h613v504q-106 88 -304 88z" />
    <glyph glyph-name="onethird" unicode="&#x2153;" 
d="M86 358l-86 156l1096 524l84 -155zM227 774v430l-159 -82l-109 148l303 162h199v-658h-234zM946 399q76 -1 76 53t-82 54t-170 -57l-117 116q131 104 320 105q139 0 213 -52t74 -131q0 -114 -130 -139v-8q160 -21 160 -150q0 -94 -91 -148t-247 -54q-209 0 -321 112
l133 113q82 -61 182 -61t101 63q0 31 -22 47t-79 17h-108l26 120h82z" />
    <glyph glyph-name="twothirds" unicode="&#x2154;" 
d="M143 358l-86 156l1096 524l84 -155zM240 1444q142 0 216 -64t74 -152t-61 -149t-229 -135h315l-27 -170h-583v152q223 122 270 164q47 40 58 64t11 52t-21 47q-22 20 -60 21q-77 0 -137 -72l-146 107q123 135 320 135zM961 506q-81 0 -170 -57l-117 116q131 104 319 105
q139 0 213 -52t74 -131q0 -114 -129 -139v-8q160 -21 160 -150q0 -94 -91 -148t-247 -54q-208 0 -322 112l133 113q82 -61 182 -61q101 0 101 63q0 31 -21 47q-22 16 -79 17h-109l27 120h82q76 0 75 54q0 53 -81 53z" />
    <glyph glyph-name="uni2155" unicode="&#x2155;" 
d="M86 358l-86 156l1096 524l84 -155zM227 774v430l-159 -82l-109 148l303 162h199v-658h-234zM1327 223q0 -111 -88 -173q-89 -62 -265 -62t-294 108l129 113q78 -55 175 -55t97 68t-77 67q-51 0 -97 -21h-155v389h540l-24 -159h-301v-80q70 24 123 24q100 0 168 -54
t69 -165z" />
    <glyph glyph-name="uni2156" unicode="&#x2156;" 
d="M133 358l-86 156l1096 524l84 -155zM240 1444q142 0 216 -64t74 -152t-61 -149t-229 -135h315l-27 -170h-583v152q223 122 270 164q47 40 58 64t11 52t-21 47q-22 20 -60 21q-77 0 -137 -72l-146 107q123 135 320 135zM1368 223q0 -111 -88 -173t-264 -62t-295 108
l129 113q78 -55 175 -55t97 68t-78 67q-51 0 -96 -21h-155v389h540l-24 -159h-301v-80q70 24 122 24q100 0 169 -54t69 -165z" />
    <glyph glyph-name="uni2157" unicode="&#x2157;" 
d="M90 358l-86 156l1096 524l84 -155zM1343 223q0 -111 -88 -173t-264 -62t-295 108l129 113q78 -55 175 -55t98 69q0 66 -78 66q-51 0 -96 -21h-156v389h541l-25 -159h-301v-80q70 24 123 24q100 0 168 -54t69 -165zM348 1227q0 53 -82 53t-170 -57l-116 116
q131 104 319 105q139 0 213 -51t74 -131q0 -115 -129 -140v-8q159 -21 159 -149q0 -95 -91 -149t-246 -54q-210 0 -322 112l133 113q82 -61 182 -61t101 63q0 31 -22 47t-79 17h-108l26 121h82q76 0 76 53z" />
    <glyph glyph-name="uni2158" unicode="&#x2158;" 
d="M102 358l-86 156l1096 524l84 -155zM1335 223q0 -111 -88 -173q-89 -62 -265 -62t-294 108l129 113q78 -55 175 -55t98 69q0 66 -78 66q-51 0 -97 -21h-155v389h540l-24 -159h-301v-80q70 24 123 24q100 0 168 -54t69 -165zM492 889v-115h-216v115h-370v135l246 426
l196 -66l-201 -342h134l30 162h181v-162h88v-153h-88z" />
    <glyph glyph-name="uni2159" unicode="&#x2159;" 
d="M923 293q-44 0 -94 -43q7 -51 27 -78t66 -27q80 0 79 76q0 41 -17 57t-61 15zM976 510q-134 0 -149 -135q70 63 172 63q164 0 225 -116q19 -39 19 -91q0 -111 -87 -177q-88 -66 -248 -66t-244 88t-84 229q0 251 224 337q73 28 178 28t196 -49l-93 -129q-45 18 -109 18z
M86 358l-86 156l1096 524l84 -155zM227 774v430l-159 -82l-109 148l303 162h199v-658h-234z" />
    <glyph glyph-name="uni215A" unicode="&#x215a;" 
d="M82 358l-86 156l1096 524l84 -155zM1008 221q0 41 -18 57t-61 15q-44 0 -93 -43q6 -51 26 -78t66 -27q80 0 80 76zM1006 438q166 0 224 -116q19 -39 19 -91q0 -111 -87 -177q-88 -66 -248 -66t-244 88t-84 229q0 251 224 337q73 28 178 28t196 -49l-92 -129
q-45 18 -110 18q-133 0 -148 -135q70 63 172 63zM573 997q0 -111 -88 -173t-264 -62t-295 108l129 113q78 -55 175 -55t98 69q0 66 -78 66q-51 0 -96 -21h-156v390h541l-25 -160h-301v-80q177 60 291 -30q68 -54 69 -165z" />
    <glyph glyph-name="oneeighth" unicode="&#x215b;" 
d="M86 358l-86 156l1096 524l84 -155zM227 774v430l-159 -82l-109 148l303 162h199v-658h-234zM956 524q-73 0 -73 -39q0 -18 20 -31t68 -28q31 16 46 28t15 28q0 18 -18 30t-58 12zM1059 197q0 29 -33 45t-104 32q-70 -29 -70 -69q0 -57 104 -57t103 49zM651 504
q0 64 79 114t226 52q148 0 226 -51t78 -113t-35 -93q-35 -30 -99 -51q82 -26 125 -64t43 -116t-87 -136t-256 -58t-251 55t-82 145q0 62 38 100t118 60q-57 29 -90 61q-33 31 -33 95z" />
    <glyph glyph-name="threeeighths" unicode="&#x215c;" 
d="M111 358l-86 156l1095 524l84 -155zM991 524q-73 0 -73 -39q0 -18 20 -31t68 -28q31 16 46 28t15 28q0 18 -18 30t-58 12zM1094 197q0 29 -33 45t-105 32q-70 -29 -69 -69q-1 -57 103 -57t104 49zM686 504q0 64 79 114t226 52q147 0 225 -51t78 -113t-34 -93
q-34 -30 -99 -51q82 -26 125 -64t43 -116t-87 -136t-256 -58t-251 55t-82 145q0 62 38 100t118 60q-57 29 -90 61q-33 31 -33 95zM348 1227q0 53 -82 53t-170 -57l-116 116q131 104 319 105q139 0 213 -51t74 -131q0 -115 -129 -140v-8q159 -21 159 -149q0 -95 -91 -149
t-246 -54q-210 0 -322 112l133 113q82 -61 182 -61t101 63q0 31 -22 47t-79 17h-108l26 121h82q76 0 76 53z" />
    <glyph glyph-name="fiveeighths" unicode="&#x215d;" 
d="M82 358l-86 156l1096 524l84 -155zM573 997q0 -111 -88 -173t-264 -62t-295 108l129 113q78 -55 175 -55t98 69q0 66 -78 66q-51 0 -96 -21h-156v390h541l-25 -160h-301v-80q177 60 291 -30q68 -54 69 -165zM967 524q-74 0 -74 -39q0 -18 20 -31t68 -28q31 16 46 28
t15 28q0 18 -18 30t-57 12zM1069 197q0 29 -33 45t-104 32q-70 -29 -70 -69q0 -57 104 -57t103 49zM1270 506q0 -62 -35 -93q-35 -30 -98 -51q82 -26 125 -64t43 -116t-87 -136t-256 -58t-251 55t-82 145q0 62 38 100t117 60q-57 29 -90 61q-32 31 -32 95t78 114t226 52
q148 0 226 -51t78 -113z" />
    <glyph glyph-name="seveneighths" unicode="&#x215e;" 
d="M47 358l-86 156l1096 524l84 -155zM934 524q-74 0 -74 -39q0 -18 20 -31t68 -28q31 16 46 28q16 12 16 28q0 18 -18 30t-58 12zM1036 197q0 29 -32 45q-33 16 -105 32q-70 -29 -70 -69q-1 -57 103 -57t104 49zM629 504q0 64 79 114t226 52q147 0 225 -51t78 -113t-35 -93
q-35 -30 -98 -51q82 -26 125 -64t43 -116t-87 -136t-256 -58t-251 55t-82 145q0 62 38 100t118 60q-57 29 -90 61q-33 31 -33 95zM47 1264v168h600v-138l-315 -540l-217 88l286 422h-354z" />
    <glyph glyph-name="uni215F" unicode="&#x215f;" 
d="M86 358l-86 156l1096 524l84 -155zM227 774v430l-159 -82l-109 148l303 162h199v-658h-234z" />
    <glyph glyph-name="arrowleft" unicode="&#x2190;" 
d="M1233 541h-776l-2 -6q111 -76 237 -216l139 -151l-215 -184l-620 690l620 690l215 -184l-139 -152q-149 -158 -237 -215l2 -6h776v-266z" />
    <glyph glyph-name="arrowup" unicode="&#x2191;" 
d="M463 0v1026l-6 2q-47 -93 -140 -184l-163 -158l-189 201l649 610l650 -610l-189 -201l-162 158q-89 85 -141 184l-6 -2v-1026h-303z" />
    <glyph glyph-name="arrowright" unicode="&#x2192;" 
d="M-4 807h776l2 6q-104 66 -221 197l-156 170l215 184l621 -690l-621 -690l-215 184l156 170q117 131 221 197l-2 6h-776v266z" />
    <glyph glyph-name="arrowdown" unicode="&#x2193;" 
d="M766 1444v-1026l6 -2q35 68 83 120t81 85l139 137l189 -201l-650 -610l-649 610l189 201l141 -140q63 -66 100 -109.5t62 -92.5l6 2v1026h303z" />
    <glyph glyph-name="arrowboth" unicode="&#x2194;" 
d="M186 807h856l2 6q-46 29 -126 111l-216 235l216 182l573 -667l-573 -668l-216 182l216 236q84 84 126 111l-2 6h-856l-2 -6q53 -35 125 -111l215 -236l-213 -182l-573 668l573 667l213 -182l-141 -155l-76 -80q-76 -76 -123 -111z" />
    <glyph glyph-name="arrowupdn" unicode="&#x2195;" 
d="M766 1151v-909l6 -2q51 98 164 204l139 140l189 -203l-650 -608l-649 608l189 203l145 -142q109 -105 158 -202l6 2v909l-6 2q-58 -106 -166 -209l-137 -133l-189 201l649 610l650 -610l-189 -201l-139 137q-118 115 -164 205z" />
    <glyph glyph-name="uni2196" unicode="&#x2196;" 
d="M299 760q31 -116 31 -205l-2 -53l-15 -271l-293 19l46 948l948 45l18 -264l-319 -16l-49 -2q-86 0 -160 18l-2 -6l706 -709l-204 -207l-699 705z" />
    <glyph glyph-name="uni2197" unicode="&#x2197;" 
d="M725 979q-74 -18 -160 -18l-368 18l18 264l948 -45l45 -948l-293 -19l-14 271l-2 53q0 89 31 205l-6 2l-699 -705l-205 207l707 709z" />
    <glyph glyph-name="uni2198" unicode="&#x2198;" 
d="M930 516q-31 116 -31 205l16 323l293 -18l-45 -948l-948 -45l-18 264l319 16l49 2q86 0 160 -18l2 6l-707 709l205 207l699 -705z" />
    <glyph glyph-name="uni2199" unicode="&#x2199;" 
d="M504 297q74 18 160 18l368 -18l-18 -264l-948 45l-46 948l293 18l15 -270l2 -53q0 -89 -31 -205l6 -2l699 680l204 -207l-706 -684z" />
    <glyph glyph-name="uni21E6" unicode="&#x21e6;" 
d="M1221 805h-785v227l-387 -391l387 -391v227h785v328zM1311 489q0 -47 -28 -74.5t-75 -27.5h-680v-360l-610 614l610 614v-360h680q47 0 75 -27.5t28 -74.5v-304z" />
    <glyph glyph-name="uni21E7" unicode="&#x21e7;" 
d="M786 66v1120h220l-392 387l-391 -387h219v-1120h344zM449 -25q-47 0 -75 28t-28 75v1016h-346l614 610l615 -610h-346v-1016q0 -47 -28 -75t-75 -28h-331z" />
    <glyph glyph-name="uni21E8" unicode="&#x21e8;" 
d="M8 477h785v-227l387 391l-387 391v-227h-785v-328zM-82 793q0 47 27.5 74.5t74.5 27.5h680v360l611 -614l-611 -614v360h-680q-47 0 -74.5 27.5t-27.5 74.5v304z" />
    <glyph glyph-name="uni21E9" unicode="&#x21e9;" 
d="M442 1446v-1120h-219l391 -387l392 387h-220v1120h-344zM780 1536q47 0 75 -27.5t28 -74.5v-1016h346l-615 -611l-614 611h346v1016q0 47 27.5 74.5t75.5 27.5h331z" />
    <glyph glyph-name="uni21EA" unicode="&#x21ea;" 
d="M442 231v-165h344v165h-344zM786 608v578h220l-392 387l-391 -387h219v-578h344zM883 317v-239q0 -47 -28 -75t-75 -28h-331q-47 0 -75 28t-28 75v239h537zM346 522v572h-346l614 610l615 -610h-346v-572h-537z" />
    <glyph glyph-name="partialdiff" unicode="&#x2202;" 
d="M594 698q-164 0 -164 -275q0 -93 44 -159.5t128 -66.5q176 0 176 315v74q-82 112 -184 112zM1114 596q0 -293 -137 -462t-370 -169t-369 134t-136 352t110.5 352.5t285.5 134.5t270 -127l6 4q-41 184 -176 302t-377 177l72 224q638 -129 729.5 -446.5t91.5 -475.5z" />
    <glyph glyph-name="Delta" unicode="&#x2206;" 
d="M383 250h455l-222 901h-10zM410 1419h411l434 -1419h-1280z" />
    <glyph glyph-name="product" unicode="&#x220f;" 
d="M750 1174h-265v-1594l-311 -35v1629h-121v245h1123v-245h-121v-1594l-305 -35v1629z" />
    <glyph glyph-name="summation" unicode="&#x2211;" 
d="M1085 246v-246h-933v236l403 473l-403 475v235h933v-245h-575l338 -394v-137l-338 -397h575z" />
    <glyph glyph-name="minus" unicode="&#x2212;" 
d="M168 512v256h893v-256h-893z" />
    <glyph glyph-name="uni2215" unicode="&#x2215;" 
d="M111 358l-86 156l1095 524l84 -155z" />
    <glyph glyph-name="uni2219" unicode="&#x2219;" 
d="M453 862q66 66 160 67q95 1 162 -66t68 -163t-67 -162q-68 -67 -164 -67t-159 68q-68 68 -68 164q0 95 68 159z" />
    <glyph glyph-name="radical" unicode="&#x221a;" 
d="M1485 1790v-248h-389l-434 -1542h-373l-344 944l303 92l213 -733h8l385 1487h631z" />
    <glyph glyph-name="infinity" unicode="&#x221e;" 
d="M993 647q0 201 -114 201q-82 0 -114 -92t-46 -140q29 -68 63.5 -119t94.5 -51q116 0 116 201zM236 647q0 -201 112 -201q85 0 116.5 91.5t43.5 140.5q-51 121 -89 145.5t-67 24.5q-116 0 -116 -201zM318 231q-104 0 -167 34t-102 90.5t-55.5 132t-16.5 211t79.5 249
t260.5 113.5q106 0 179 -52.5t127 -146.5q55 99 121.5 149t166.5 50q101 0 165.5 -34t103.5 -90t55 -132t16 -210t-80 -249t-266 -115t-299 197q-47 -84 -115.5 -140.5t-172.5 -56.5z" />
    <glyph glyph-name="intersection" unicode="&#x2229;" 
d="M918 711q0 126 -88.5 214.5t-215.5 88.5t-215 -88t-88 -215v-711h-254v711q0 229 164 393t394 164t393 -164.5t163 -392.5v-711h-253v711z" />
    <glyph glyph-name="integral" unicode="&#x222b;" 
d="M457 1368q0 397 387 397q151 0 309 -67l-88 -213q-95 41 -163 41t-95 -35t-27 -111v-1441q0 -192 -109.5 -293t-283.5 -101t-311 70l88 213q91 -41 165 -41q75 0 101.5 33t26.5 106v1442z" />
    <glyph glyph-name="approxequal" unicode="&#x2248;" 
d="M776 256q-66 0 -114 18.5t-86.5 41t-71.5 41t-79 18.5t-73.5 -31t-52.5 -78l-180 96q65 123 139.5 191t184.5 68t179.5 -42t102.5 -60.5t79 -18.5t73.5 30.5t52.5 77.5l180 -96q-65 -122 -114.5 -166.5t-101.5 -67t-118 -22.5zM776 651q-66 0 -114 18.5t-86.5 41
t-71.5 41t-79 18.5t-73.5 -30.5t-52.5 -77.5l-180 94q64 121 138.5 189.5t184.5 68.5t180 -42t103 -60.5t79 -18.5t73.5 31.5t52.5 79.5l180 -97q-65 -122 -114.5 -166.5t-101.5 -67t-118 -22.5z" />
    <glyph glyph-name="notequal" unicode="&#x2260;" 
d="M147 295v250h302l110 186h-412v250h562l165 274l164 -92l-108 -182h151v-250h-301l-110 -186h411v-250h-561l-166 -281l-166 97l109 184h-150z" />
    <glyph glyph-name="equivalence" unicode="&#x2261;" 
d="M147 84v254h934v-254h-934zM147 514v256h934v-256h-934zM147 944v256h934v-256h-934z" />
    <glyph glyph-name="lessequal" unicode="&#x2264;" 
d="M162 0v248h893v-248h-893zM154 698v289l815 344l104 -227l-641 -260l641 -242l-104 -240z" />
    <glyph glyph-name="greaterequal" unicode="&#x2265;" 
d="M174 0v248h893v-248h-893zM260 362l-106 238l641 244l-641 258l106 229l813 -344v-289z" />
    <glyph glyph-name="uni22C6" unicode="&#x22c6;" 
d="M870 768v256h256v-256h-256zM102 0v1024h512v-512h512v-512h-1024z" />
    <glyph glyph-name="house" unicode="&#x2302;" 
d="M225 133h779v434l-392 351l-387 -351v-434zM1147 0h-1065v631l530 473l535 -473v-631z" />
    <glyph glyph-name="revlogicalnot" unicode="&#x2310;" 
d="M168 778h893v-252h-623v-315h-270v567z" />
    <glyph glyph-name="integraltp" unicode="&#x2320;" 
d="M457 1368q0 397 387 397q151 0 309 -67l-88 -213q-95 41 -163 41t-95 -35t-27 -111v-2404h-323v2392z" />
    <glyph glyph-name="integralbt" unicode="&#x2321;" 
d="M329 -213q75 0 101.5 33t26.5 106v2122h323v-2109q0 -192 -109.5 -293t-283.5 -101t-311 70l88 213q90 -41 165 -41z" />
    <glyph glyph-name="uni2326" unicode="&#x2326;" 
d="M39 453l137 -138l275 275l274 -275l137 138l-274 274l274 272l-137 142l-274 -277l-275 277l-137 -142l274 -272zM-164 1276q0 22 14 55q10 16 21 25q8 4 18 11t41 11h889l697 -657l-697 -664h-889q-2 0 -32 6q-24 10 -48 39q-8 16 -10 27v2q-2 2 -2 3l-2 16v1126z" />
    <glyph glyph-name="uni2327" unicode="&#x2327;" 
d="M203 453l137 -138l274 275l275 -275l137 138l-274 274l274 272l-137 142l-275 -277l-274 277l-137 -142l274 -272zM-61 57q-47 0 -75 28t-28 75v1116q0 47 27.5 74.5t75.5 27.5h1351q47 0 75 -27.5t28 -74.5v-1116q0 -47 -28 -75t-75 -28h-1351z" />
    <glyph glyph-name="uni2328" unicode="&#x2328;" 
d="M203 457q-16 0 -28.5 -12.5t-12.5 -28.5v-152q0 -16 12 -28.5t29 -12.5h893q16 0 28.5 12.5t12.5 28.5v152q0 16 -12.5 28.5t-28.5 12.5h-893zM797 795q-16 0 -28.5 -12.5t-12.5 -28.5v-152q0 -16 12 -28.5t29 -12.5h151q16 0 28.5 12.5t12.5 28.5v152q0 16 -12 28.5
t-29 12.5h-151zM444 795q-16 0 -28.5 -12.5t-12.5 -28.5v-152q0 -16 12.5 -28.5t28.5 -12.5h152q16 0 28.5 12.5t12.5 28.5v152q0 16 -12.5 28.5t-28.5 12.5h-152zM92 795q-16 0 -28.5 -12.5t-12.5 -28.5v-152q0 -16 12.5 -28.5t28.5 -12.5h152q16 0 28.5 12.5t12.5 28.5
v152q0 16 -12.5 28.5t-28.5 12.5h-152zM715 1143q-16 0 -28.5 -12.5t-12.5 -28.5v-152q0 -16 12 -28.5t29 -12.5h151q16 0 28.5 12.5t12.5 28.5v152q0 16 -12 28.5t-29 12.5h-151zM362 1143q-16 0 -28 -12.5t-12 -28.5v-152q0 -16 12 -28.5t28 -12.5h152q16 0 28.5 12.5
t12.5 28.5v152q0 16 -12.5 28.5t-28.5 12.5h-152zM10 1143q-16 0 -28.5 -12.5t-12.5 -28.5v-152q0 -16 12.5 -28.5t28.5 -12.5h152q16 0 28.5 12.5t12.5 28.5v152q0 16 -12.5 28.5t-28.5 12.5h-152zM1126 602q0 -16 12.5 -28.5t28.5 -12.5h111q16 0 28.5 12.5t12.5 28.5v500
q0 16 -12.5 28.5t-28.5 12.5h-193q-16 0 -28.5 -12.5t-12.5 -28.5v-152q0 -16 12.5 -28.5t29 -12.5t28.5 -12t12 -29v-266zM-51 78q-47 0 -75 27.5t-28 74.5v1014q0 47 28 74.5t75 27.5h1392q47 0 75 -27.5t28 -74.5v-1014q0 -47 -27.5 -74.5t-75.5 -27.5h-1392z" />
    <glyph glyph-name="uni232B" unicode="&#x232b;" 
d="M1290 1378q47 0 75 -27.5t28 -74.5v-1116q0 -47 -28 -75t-75 -28h-880l-697 664l697 657h880zM915 727l275 272l-137 142l-275 -277l-274 277l-137 -142l274 -272l-274 -274l137 -138l274 275l275 -275l137 138z" />
    <glyph glyph-name="uni23CE" unicode="&#x23ce;" 
d="M1196 1446h-344v-641h-395v227l-387 -391l387 -391v227h739v969zM760 1434q0 47 27.5 74.5t74.5 27.5h326q47 0 74.5 -27.5t27.5 -74.5v-945q0 -47 -27.5 -74.5t-74.5 -27.5h-639v-356l-610 610l610 612v-356h211v537z" />
    <glyph glyph-name="SF100000" unicode="&#x2500;" 
d="M-10 799h1249v-164h-1249v164z" />
    <glyph glyph-name="uni2501" unicode="&#x2501;" 
d="M-10 963h1249v-492h-1249v492z" />
    <glyph glyph-name="SF110000" unicode="&#x2502;" 
d="M532 2048h164v-3072h-164v3072z" />
    <glyph glyph-name="uni2503" unicode="&#x2503;" 
d="M369 2048h491v-3072h-491v3072z" />
    <glyph glyph-name="SF010000" unicode="&#x250c;" 
d="M532 799h707v-164h-543v-1659h-164v1823z" />
    <glyph glyph-name="uni250D" unicode="&#x250d;" 
d="M532 963h707v-492h-543v-1495h-164v1987z" />
    <glyph glyph-name="uni250E" unicode="&#x250e;" 
d="M369 799h870v-164h-379v-1659h-491v1823z" />
    <glyph glyph-name="uni250F" unicode="&#x250f;" 
d="M369 963h870v-492h-379v-1495h-491v1987z" />
    <glyph glyph-name="SF030000" unicode="&#x2510;" 
d="M-10 799h706v-1823h-164v1659h-542v164z" />
    <glyph glyph-name="uni2511" unicode="&#x2511;" 
d="M-10 963h706v-1987h-164v1495h-542v492z" />
    <glyph glyph-name="uni2512" unicode="&#x2512;" 
d="M-10 799h870v-1823h-491v1659h-379v164z" />
    <glyph glyph-name="uni2513" unicode="&#x2513;" 
d="M-10 963h870v-1987h-491v1495h-379v492z" />
    <glyph glyph-name="SF020000" unicode="&#x2514;" 
d="M532 2048h164v-1249h543v-164h-707v1413z" />
    <glyph glyph-name="uni2515" unicode="&#x2515;" 
d="M532 2048h164v-1085h543v-492h-707v1577z" />
    <glyph glyph-name="uni2516" unicode="&#x2516;" 
d="M369 2048h491v-1249h379v-164h-870v1413z" />
    <glyph glyph-name="uni2517" unicode="&#x2517;" 
d="M369 2048h491v-1085h379v-492h-870v1577z" />
    <glyph glyph-name="SF040000" unicode="&#x2518;" 
d="M-10 799h542v1249h164v-1413h-706v164z" />
    <glyph glyph-name="uni2519" unicode="&#x2519;" 
d="M-10 963h542v1085h164v-1577h-706v492z" />
    <glyph glyph-name="uni251A" unicode="&#x251a;" 
d="M-10 799h379v1249h491v-1413h-870v164z" />
    <glyph glyph-name="uni251B" unicode="&#x251b;" 
d="M-10 963h379v1085h491v-1577h-870v492z" />
    <glyph glyph-name="SF080000" unicode="&#x251c;" 
d="M532 2048h164v-1249h543v-164h-543v-1659h-164v3072z" />
    <glyph glyph-name="uni251D" unicode="&#x251d;" 
d="M532 2048h164v-1085h543v-492h-543v-1495h-164v3072z" />
    <glyph glyph-name="uni251E" unicode="&#x251e;" 
d="M369 2048h491v-1249h379v-164h-543v-1659h-164v1659h-163v1413z" />
    <glyph glyph-name="uni251F" unicode="&#x251f;" 
d="M369 799h163v1249h164v-1249h543v-164h-379v-1659h-491v1823z" />
    <glyph glyph-name="uni2520" unicode="&#x2520;" 
d="M369 2048h491v-1249h379v-164h-379v-1659h-491v3072z" />
    <glyph glyph-name="uni2521" unicode="&#x2521;" 
d="M369 2048h491v-1085h379v-492h-543v-1495h-164v1495h-163v1577z" />
    <glyph glyph-name="uni2522" unicode="&#x2522;" 
d="M369 963h163v1085h164v-1085h543v-492h-379v-1495h-491v1987z" />
    <glyph glyph-name="uni2523" unicode="&#x2523;" 
d="M369 2048h491v-1085h379v-492h-379v-1495h-491v3072z" />
    <glyph glyph-name="SF090000" unicode="&#x2524;" 
d="M-10 799h542v1249h164v-3072h-164v1659h-542v164z" />
    <glyph glyph-name="uni2525" unicode="&#x2525;" 
d="M-10 963h542v1085h164v-3072h-164v1495h-542v492z" />
    <glyph glyph-name="uni2526" unicode="&#x2526;" 
d="M-10 799h379v1249h491v-1413h-164v-1659h-164v1659h-542v164z" />
    <glyph glyph-name="uni2527" unicode="&#x2527;" 
d="M-10 799h542v1249h164v-1249h164v-1823h-491v1659h-379v164z" />
    <glyph glyph-name="uni2528" unicode="&#x2528;" 
d="M-10 799h379v1249h491v-3072h-491v1659h-379v164z" />
    <glyph glyph-name="uni2529" unicode="&#x2529;" 
d="M-10 963h379v1085h491v-1577h-164v-1495h-164v1495h-542v492z" />
    <glyph glyph-name="uni252A" unicode="&#x252a;" 
d="M-10 963h542v1085h164v-1085h164v-1987h-491v1495h-379v492z" />
    <glyph glyph-name="uni252B" unicode="&#x252b;" 
d="M-10 963h379v1085h491v-3072h-491v1495h-379v492z" />
    <glyph glyph-name="SF060000" unicode="&#x252c;" 
d="M-10 799h1249v-164h-543v-1659h-164v1659h-542v164z" />
    <glyph glyph-name="uni252D" unicode="&#x252d;" 
d="M-10 963h706v-164h543v-164h-543v-1659h-164v1495h-542v492z" />
    <glyph glyph-name="uni252E" unicode="&#x252e;" 
d="M-10 799h542v164h707v-492h-543v-1495h-164v1659h-542v164z" />
    <glyph glyph-name="uni252F" unicode="&#x252f;" 
d="M-10 963h1249v-492h-543v-1495h-164v1495h-542v492z" />
    <glyph glyph-name="uni2530" unicode="&#x2530;" 
d="M-10 799h1249v-164h-379v-1659h-491v1659h-379v164z" />
    <glyph glyph-name="uni2531" unicode="&#x2531;" 
d="M-10 963h870v-164h379v-164h-379v-1659h-491v1495h-379v492z" />
    <glyph glyph-name="uni2532" unicode="&#x2532;" 
d="M-10 799h379v164h870v-492h-379v-1495h-491v1659h-379v164z" />
    <glyph glyph-name="uni2533" unicode="&#x2533;" 
d="M-10 963h1249v-492h-379v-1495h-491v1495h-379v492z" />
    <glyph glyph-name="SF070000" unicode="&#x2534;" 
d="M-10 799h542v1249h164v-1249h543v-164h-1249v164z" />
    <glyph glyph-name="uni2535" unicode="&#x2535;" 
d="M-10 963h542v1085h164v-1249h543v-164h-543v-164h-706v492z" />
    <glyph glyph-name="uni2536" unicode="&#x2536;" 
d="M-10 799h542v1249h164v-1085h543v-492h-707v164h-542v164z" />
    <glyph glyph-name="uni2537" unicode="&#x2537;" 
d="M-10 963h542v1085h164v-1085h543v-492h-1249v492z" />
    <glyph glyph-name="uni2538" unicode="&#x2538;" 
d="M-10 799h379v1249h491v-1249h379v-164h-1249v164z" />
    <glyph glyph-name="uni2539" unicode="&#x2539;" 
d="M-10 963h379v1085h491v-1249h379v-164h-379v-164h-870v492z" />
    <glyph glyph-name="uni253A" unicode="&#x253a;" 
d="M-10 799h379v1249h491v-1085h379v-492h-870v164h-379v164z" />
    <glyph glyph-name="uni253B" unicode="&#x253b;" 
d="M-10 963h379v1085h491v-1085h379v-492h-1249v492z" />
    <glyph glyph-name="SF050000" unicode="&#x253c;" 
d="M-10 799h542v1249h164v-1249h543v-164h-543v-1659h-164v1659h-542v164z" />
    <glyph glyph-name="uni253D" unicode="&#x253d;" 
d="M-10 963h542v1085h164v-1249h543v-164h-543v-1659h-164v1495h-542v492z" />
    <glyph glyph-name="uni253E" unicode="&#x253e;" 
d="M-10 799h542v1249h164v-1085h543v-492h-543v-1495h-164v1659h-542v164z" />
    <glyph glyph-name="uni253F" unicode="&#x253f;" 
d="M-10 963h542v1085h164v-1085h543v-492h-543v-1495h-164v1495h-542v492z" />
    <glyph glyph-name="uni2540" unicode="&#x2540;" 
d="M-10 799h379v1249h491v-1249h379v-164h-543v-1659h-164v1659h-542v164z" />
    <glyph glyph-name="uni2541" unicode="&#x2541;" 
d="M-10 799h542v1249h164v-1249h543v-164h-379v-1659h-491v1659h-379v164z" />
    <glyph glyph-name="uni2542" unicode="&#x2542;" 
d="M-10 799h379v1249h491v-1249h379v-164h-379v-1659h-491v1659h-379v164z" />
    <glyph glyph-name="uni2543" unicode="&#x2543;" 
d="M-10 963h379v1085h491v-1249h379v-164h-379v-164h-164v-1495h-164v1495h-542v492z" />
    <glyph glyph-name="uni2544" unicode="&#x2544;" 
d="M-10 799h379v1249h491v-1085h379v-492h-543v-1495h-164v1495h-163v164h-379v164z" />
    <glyph glyph-name="uni2545" unicode="&#x2545;" 
d="M-10 963h542v1085h164v-1085h164v-164h379v-164h-379v-1659h-491v1495h-379v492z" />
    <glyph glyph-name="uni2546" unicode="&#x2546;" 
d="M-10 799h379v164h163v1085h164v-1085h543v-492h-379v-1495h-491v1659h-379v164z" />
    <glyph glyph-name="uni2547" unicode="&#x2547;" 
d="M-10 963h379v1085h491v-1085h379v-492h-543v-1495h-164v1495h-542v492z" />
    <glyph glyph-name="uni2548" unicode="&#x2548;" 
d="M-10 963h542v1085h164v-1085h543v-492h-379v-1495h-491v1495h-379v492z" />
    <glyph glyph-name="uni2549" unicode="&#x2549;" 
d="M-10 963h379v1085h491v-1249h379v-164h-379v-1659h-491v1495h-379v492z" />
    <glyph glyph-name="uni254A" unicode="&#x254a;" 
d="M-10 799h379v1249h491v-1085h379v-492h-379v-1495h-491v1659h-379v164z" />
    <glyph glyph-name="uni254B" unicode="&#x254b;" 
d="M-10 963h379v1085h491v-1085h379v-492h-379v-1495h-491v1495h-379v492z" />
    <glyph glyph-name="uni254C" unicode="&#x254c;" 
d="M-10 799h542v-164h-542v164zM696 635v164h543v-164h-543z" />
    <glyph glyph-name="uni254D" unicode="&#x254d;" 
d="M-10 963h379v-492h-379v492zM860 471v492h379v-492h-379z" />
    <glyph glyph-name="uni254E" unicode="&#x254e;" 
d="M696 799h-164v1249h164v-1249zM532 635h164v-1659h-164v1659z" />
    <glyph glyph-name="uni254F" unicode="&#x254f;" 
d="M860 963h-491v1085h491v-1085zM369 471h491v-1495h-491v1495z" />
    <glyph glyph-name="SF430000" unicode="&#x2550;" 
d="M1239 799h-1249v164h1249v-164zM-10 635h1249v-164h-1249v164z" />
    <glyph glyph-name="SF240000" unicode="&#x2551;" 
d="M369 2048h163v-3072h-163v3072zM696 -1024v3072h164v-3072h-164z" />
    <glyph glyph-name="SF510000" unicode="&#x2552;" 
d="M1239 799h-543v-164h543v-164h-543v-1495h-164v1987h707v-164z" />
    <glyph glyph-name="SF520000" unicode="&#x2553;" 
d="M696 -1024v1659h-164v-1659h-163v1823h870v-164h-379v-1659h-164z" />
    <glyph glyph-name="SF390000" unicode="&#x2554;" 
d="M696 -1024v1659h543v-164h-379v-1495h-164zM369 963h870v-164h-707v-1823h-163v1987z" />
    <glyph glyph-name="SF220000" unicode="&#x2555;" 
d="M-10 635h542v164h-542v164h706v-1987h-164v1495h-542v164z" />
    <glyph glyph-name="SF210000" unicode="&#x2556;" 
d="M-10 799h870v-1823h-164v1659h-164v-1659h-163v1659h-379v164z" />
    <glyph glyph-name="SF250000" unicode="&#x2557;" 
d="M-10 635h542v-1659h-163v1495h-379v164zM696 -1024v1823h-706v164h870v-1987h-164z" />
    <glyph glyph-name="SF500000" unicode="&#x2558;" 
d="M1239 799h-543v-164h543v-164h-707v1577h164v-1085h543v-164z" />
    <glyph glyph-name="SF490000" unicode="&#x2559;" 
d="M369 2048h163v-1249h164v1249h164v-1249h379v-164h-870v1413z" />
    <glyph glyph-name="SF380000" unicode="&#x255a;" 
d="M1239 799h-543v1249h164v-1085h379v-164zM1239 635v-164h-870v1577h163v-1413h707z" />
    <glyph glyph-name="SF280000" unicode="&#x255b;" 
d="M-10 635h542v164h-542v164h542v1085h164v-1577h-706v164z" />
    <glyph glyph-name="SF270000" unicode="&#x255c;" 
d="M-10 799h379v1249h163v-1249h164v1249h164v-1413h-870v164z" />
    <glyph glyph-name="SF260000" unicode="&#x255d;" 
d="M369 2048h163v-1249h-542v164h379v1085zM-10 635h706v1413h164v-1577h-870v164z" />
    <glyph glyph-name="SF360000" unicode="&#x255e;" 
d="M1239 799h-543v-164h543v-164h-543v-1495h-164v3072h164v-1085h543v-164z" />
    <glyph glyph-name="SF370000" unicode="&#x255f;" 
d="M369 2048h163v-3072h-163v3072zM696 -1024v3072h164v-1249h379v-164h-379v-1659h-164z" />
    <glyph glyph-name="SF420000" unicode="&#x2560;" 
d="M1239 799h-543v1249h164v-1085h379v-164zM696 -1024v1659h543v-164h-379v-1495h-164zM369 2048h163v-3072h-163v3072z" />
    <glyph glyph-name="SF190000" unicode="&#x2561;" 
d="M-10 635h542v164h-542v164h542v1085h164v-3072h-164v1495h-542v164z" />
    <glyph glyph-name="SF200000" unicode="&#x2562;" 
d="M696 -1024v3072h164v-3072h-164zM369 -1024v1659h-379v164h379v1249h163v-3072h-163z" />
    <glyph glyph-name="SF230000" unicode="&#x2563;" 
d="M369 2048h163v-1249h-542v164h379v1085zM-10 635h542v-1659h-163v1495h-379v164zM696 -1024v3072h164v-3072h-164z" />
    <glyph glyph-name="SF470000" unicode="&#x2564;" 
d="M1239 799h-1249v164h1249v-164zM-10 635h1249v-164h-543v-1495h-164v1495h-542v164z" />
    <glyph glyph-name="SF480000" unicode="&#x2565;" 
d="M-10 799h1249v-164h-379v-1659h-164v1659h-164v-1659h-163v1659h-379v164z" />
    <glyph glyph-name="SF410000" unicode="&#x2566;" 
d="M1239 799h-1249v164h1249v-164zM696 -1024v1659h543v-164h-379v-1495h-164zM-10 635h542v-1659h-163v1495h-379v164z" />
    <glyph glyph-name="SF450000" unicode="&#x2567;" 
d="M-10 635h1249v-164h-1249v164zM1239 799h-1249v164h542v1085h164v-1085h543v-164z" />
    <glyph glyph-name="SF460000" unicode="&#x2568;" 
d="M-10 799h379v1249h163v-1249h164v1249h164v-1249h379v-164h-1249v164z" />
    <glyph glyph-name="SF400000" unicode="&#x2569;" 
d="M-10 635h1249v-164h-1249v164zM369 2048h163v-1249h-542v164h379v1085zM1239 799h-543v1249h164v-1085h379v-164z" />
    <glyph glyph-name="SF540000" unicode="&#x256a;" 
d="M1239 799h-543v-164h543v-164h-543v-1495h-164v1495h-542v164h542v164h-542v164h542v1085h164v-1085h543v-164z" />
    <glyph glyph-name="SF530000" unicode="&#x256b;" 
d="M-10 799h379v1249h163v-1249h164v1249h164v-1249h379v-164h-379v-1659h-164v1659h-164v-1659h-163v1659h-379v164z" />
    <glyph glyph-name="SF440000" unicode="&#x256c;" 
d="M369 2048h163v-1249h-542v164h379v1085zM1239 799h-543v1249h164v-1085h379v-164zM696 -1024v1659h543v-164h-379v-1495h-164zM-10 635h542v-1659h-163v1495h-379v164z" />
    <glyph glyph-name="uni2571" unicode="&#x2571;" 
d="M115 334l882 883l117 -117l-883 -883z" />
    <glyph glyph-name="uni2572" unicode="&#x2572;" 
d="M231 1217l883 -883l-117 -117l-882 883z" />
    <glyph glyph-name="uni2573" unicode="&#x2573;" 
d="M231 1217l383 -383l383 383l117 -117l-383 -383l383 -383l-117 -117l-383 383l-383 -383l-116 117l383 383l-383 383z" />
    <glyph glyph-name="uni2574" unicode="&#x2574;" 
d="M-10 799h706v-164h-706v164z" />
    <glyph glyph-name="uni2575" unicode="&#x2575;" 
d="M532 799h164v-1823h-164v1823z" />
    <glyph glyph-name="uni2576" unicode="&#x2576;" 
d="M532 799h707v-164h-707v164z" />
    <glyph glyph-name="uni2577" unicode="&#x2577;" 
d="M532 2048h164v-1413h-164v1413z" />
    <glyph glyph-name="uni2578" unicode="&#x2578;" 
d="M-10 963h706v-492h-706v492z" />
    <glyph glyph-name="uni2579" unicode="&#x2579;" 
d="M369 2048h491v-1413h-491v1413z" />
    <glyph glyph-name="uni257A" unicode="&#x257a;" 
d="M532 963h707v-492h-707v492z" />
    <glyph glyph-name="uni257B" unicode="&#x257b;" 
d="M369 799h491v-1823h-491v1823z" />
    <glyph glyph-name="uni257C" unicode="&#x257c;" 
d="M-10 799h542v164h707v-492h-707v164h-542v164z" />
    <glyph glyph-name="uni257D" unicode="&#x257d;" 
d="M369 799h163v1249h164v-1249h164v-1823h-491v1823z" />
    <glyph glyph-name="uni257E" unicode="&#x257e;" 
d="M-10 963h706v-164h543v-164h-543v-164h-706v492z" />
    <glyph glyph-name="uni257F" unicode="&#x257f;" 
d="M369 2048h491v-1413h-164v-1659h-164v1659h-163v1413z" />
    <glyph glyph-name="upblock" unicode="&#x2580;" 
d="M1229 512h-1229v1536h1229v-1536z" />
    <glyph glyph-name="uni2581" unicode="&#x2581;" 
d="M0 -639h1229v-385h-1229v385z" />
    <glyph glyph-name="uni2582" unicode="&#x2582;" 
d="M0 -256h1229v-768h-1229v768z" />
    <glyph glyph-name="uni2583" unicode="&#x2583;" 
d="M1229 127v-1151h-1229v1151h1229z" />
    <glyph glyph-name="dnblock" unicode="&#x2584;" 
d="M0 512h1229v-1536h-1229v1536z" />
    <glyph glyph-name="uni2585" unicode="&#x2585;" 
d="M1229 895v-1919h-1229v1919h1229z" />
    <glyph glyph-name="uni2586" unicode="&#x2586;" 
d="M0 1280h1229v-2304h-1229v2304z" />
    <glyph glyph-name="uni2587" unicode="&#x2587;" 
d="M0 1663h1229v-2687h-1229v2687z" />
    <glyph glyph-name="block" unicode="&#x2588;" 
d="M0 2048h1229v-3072h-1229v3072z" />
    <glyph glyph-name="uni2589" unicode="&#x2589;" 
d="M0 2048h1075v-3072h-1075v3072z" />
    <glyph glyph-name="uni258A" unicode="&#x258a;" 
d="M0 2048h922v-3072h-922v3072z" />
    <glyph glyph-name="uni258B" unicode="&#x258b;" 
d="M0 -1024v3072h768v-3072h-768z" />
    <glyph glyph-name="lfblock" unicode="&#x258c;" 
d="M0 2048h614v-3072h-614v3072z" />
    <glyph glyph-name="uni258D" unicode="&#x258d;" 
d="M0 -1024v3072h461v-3072h-461z" />
    <glyph glyph-name="uni258E" unicode="&#x258e;" 
d="M0 2048h307v-3072h-307v3072z" />
    <glyph glyph-name="uni258F" unicode="&#x258f;" 
d="M0 2048h154v-3072h-154v3072z" />
    <glyph glyph-name="rtblock" unicode="&#x2590;" 
d="M614 -1024v3072h615v-3072h-615z" />
    <glyph glyph-name="ltshade" unicode="&#x2591;" 
d="M922 -1024v154h102v-154h-102zM819 -1024h-102v154h102v-154zM512 -1024v154h102v-154h-102zM410 -1024h-103v154h103v-154zM205 -1024h-103v154h103v-154zM1229 1894v-153h-103v153h103zM1229 1587v-153h-103v153h103zM1229 1280v-154h-103v154h103zM1229 973v-154h-103
v154h103zM1229 666v-154h-103v154h103zM1229 358v-153h-103v153h103zM1229 51v-153h-103v153h103zM1229 -256v-154h-103v154h103zM1229 -563v-154h-103v154h103zM1024 -563v-154h-102v154h102zM1024 -256v-154h-102v154h102zM1024 51v-153h-102v153h102zM1024 358v-153h-102
v153h102zM1024 666v-154h-102v154h102zM1024 973v-154h-102v154h102zM1024 1280v-154h-102v154h102zM1024 1587v-153h-102v153h102zM1024 1894v-153h-102v153h102zM614 -563v-154h-102v154h102zM614 -256v-154h-102v154h102zM614 51v-153h-102v153h102zM614 358v-153h-102
v153h102zM614 666v-154h-102v154h102zM614 973v-154h-102v154h102zM614 1280v-154h-102v154h102zM614 1587v-153h-102v153h102zM614 1894v-153h-102v153h102zM205 -563v-154h-103v154h103zM205 -256v-154h-103v154h103zM205 51v-153h-103v153h103zM205 358v-153h-103v153
h103zM205 666v-154h-103v154h103zM205 973v-154h-103v154h103zM205 1280v-154h-103v154h103zM205 1587v-153h-103v153h103zM205 1894v-153h-103v153h103zM410 1894v-153h-103v153h103zM410 1587v-153h-103v153h103zM410 1280v-154h-103v154h103zM410 973v-154h-103v154h103z
M410 666v-154h-103v154h103zM410 358v-153h-103v153h103zM410 51v-153h-103v153h103zM410 -256v-154h-103v154h103zM410 -563v-154h-103v154h103zM819 1894v-153h-102v153h102zM819 1587v-153h-102v153h102zM819 1280v-154h-102v154h102zM819 973v-154h-102v154h102z
M819 666v-154h-102v154h102zM819 358v-153h-102v153h102zM819 51v-153h-102v153h102zM819 -256v-154h-102v154h102zM819 -563v-154h-102v154h102zM1126 -1024v154h103v-154h-103z" />
    <glyph glyph-name="shade" unicode="&#x2592;" 
d="M922 -561h100v151h-100v-151zM922 1282h100v152h-100v-152zM307 -868h101v153l-101 -2v-151zM1024 -715h100v152h-100v-152zM614 -715h103v152h-103v-152zM717 360h100v152h-100v-152zM717 975h100v151h-100v-151zM205 -100h100v151h-100v-151zM717 668h100v151h-100
v-151zM614 1743h103v151h-103v-151zM717 53h100v152h-100v-152zM512 53h100v152h-100v-152zM307 975h101v153l-101 -2v-151zM819 1128h101v152h-101v-152zM102 668h101v151h-101v-151zM102 1282h101v154l-101 -2v-152zM410 1436h100v151h-100v-151zM410 207h100v151h-100
v-151zM819 1436h101v151h-101v-151zM307 53h101v152h-101v-152zM922 975h100v151h-100v-151zM819 -100h101v151h-101v-151zM410 1743h100v151h-100v-151zM102 -561h101v151h-101v-151zM614 207h101v151h-101v-151zM819 -408h101v154l-101 -2v-152zM512 -254h100v152h-100
v-152zM512 -561h100v151h-100v-151zM410 -715h100v152h-100v-152zM614 -408h101v152h-101v-152zM410 -100h100v151h-100v-151zM819 514h101v152h-101v-152zM614 514h101v152h-101v-152zM512 360h100v152h-100v-152zM512 1282h102v152h-102v-152zM614 -100h101v151h-101v-151
zM205 1128h100v152h-100v-152zM102 975h101v151h-101v-151zM614 821h101v152h-101v-152zM614 1128h101v152h-101v-152zM512 975h100v151h-100v-151zM922 1589h100v152h-100v-152zM819 821h101v152h-101v-152zM1024 1128h100v152h-100v-152zM102 360h101v152h-101v-152z
M717 1282h100v152h-100v-152zM1024 207h100v151h-100v-151zM102 53h101v152h-101v-152zM205 207h100v151h-100v-151zM205 1436h102v151h-102v-151zM307 360h101v152h-101v-152zM922 360h100v152h-100v-152zM512 668h100v151h-100v-151zM205 514h100v152h-100v-152zM410 1128
h100v152h-100v-152zM410 821h100v152h-100v-152zM307 668h101v151h-101v-151zM1024 1436h100v151h-100v-151zM1024 821h100v152h-100v-152zM819 1743h101v151h-101v-151zM205 821h100v152h-100v-152zM717 -868h100v153l-100 -2v-151zM205 -715h100v152h-100v-152zM922 -254
h100v152h-100v-152zM102 -254h101v152h-101v-152zM307 -561h101v153l-101 -2v-151zM1024 -408h100v152h-100v-152zM717 -561h100v153l-100 -2v-151zM205 -408h100v152h-100v-152zM922 53h100v152h-100v-152zM410 514h100v152h-100v-152zM307 -254h103v152h-103v-152z
M410 -408h100v152h-100v-152zM922 668h100v151h-100v-151zM819 207h101v151h-101v-151zM1024 514h100v152h-100v-152zM307 1282h101v154l-101 -2v-152zM614 1436h101v153l-101 -2v-151zM102 1589h101v152h-101v-152zM307 1589h101v152h-101v-152zM1024 -100h100v151h-100
v-151zM205 1743h100v151h-100v-151zM717 -254h100v152h-100v-152zM717 1589h100v152h-100v-152zM512 1589h100v154l-100 -2v-152zM1024 1743h100v151h-100v-151zM819 -715h101v152h-101v-152zM102 -868h101v151h-101v-151zM512 -868h100v151h-100v-151zM922 -868h100v151
h-100v-151zM1124 -870h-100v-154h-104v154h-101v-154h-104v154h-101v-154h-104v154h-100v-154h-105v154h-100v-154h-105v154h-100v155h100v152h-100v155h100v152h-100v156h100v151h-100v156h100v151h-100v156h100v152h-100v155h100v152h-100v155h100v152h-100v156h100v151
h-100v156h100v151h-100v154h102v-152h101v152h104v-152h101v152h104v-152h100v152h105v-152h100v152h105v-152h100v152h104v-152h103v-155h-103v-152h103v-155h-103v-152h103v-156h-103v-151h103v-156h-103v-151h103v-156h-103v-152h103v-155h-103v-152h103v-155h-103v-152
h103v-156h-103v-151h103v-156h-103v-151h103v-156h-105v154z" />
    <glyph glyph-name="dkshade" unicode="&#x2593;" 
d="M922 -717h102v154h-102v-154zM922 -410h102v154h-102v-154zM922 -102h102v153h-102v-153zM922 205h102v153h-102v-153zM922 512h102v154h-102v-154zM922 819h102v154h-102v-154zM922 1126h102v154h-102v-154zM922 1434h102v153h-102v-153zM922 1741h102v153h-102v-153z
M512 -717h102v154h-102v-154zM512 -410h102v154h-102v-154zM512 -102h102v153h-102v-153zM512 205h102v153h-102v-153zM512 512h102v154h-102v-154zM512 819h102v154h-102v-154zM512 1126h102v154h-102v-154zM512 1434h102v153h-102v-153zM512 1741h102v153h-102v-153z
M102 -717h103v154h-103v-154zM102 -410h103v154h-103v-154zM102 -102h103v153h-103v-153zM102 205h103v153h-103v-153zM102 512h103v154h-103v-154zM102 819h103v154h-103v-154zM102 1126h103v154h-103v-154zM102 1434h103v153h-103v-153zM102 1741h103v153h-103v-153z
M307 1741h103v153h-103v-153zM307 1434h103v153h-103v-153zM307 1126h103v154h-103v-154zM307 819h103v154h-103v-154zM307 512h103v154h-103v-154zM307 205h103v153h-103v-153zM307 -102h103v153h-103v-153zM307 -410h103v154h-103v-154zM307 -717h103v154h-103v-154z
M717 1741h102v153h-102v-153zM717 1434h102v153h-102v-153zM717 1126h102v154h-102v-154zM717 819h102v154h-102v-154zM717 512h102v154h-102v-154zM717 205h102v153h-102v-153zM717 -102h102v153h-102v-153zM717 -410h102v154h-102v-154zM717 -717h102v154h-102v-154z
M1024 -870h-102v-154h-103v154h-102v-154h-103v154h-102v-154h-102v154h-103v-154h-102v154h-103v-154h-102v3072h1229v-154h-103v-153h103v-154h-103v-153h103v-154h-103v-154h103v-153h-103v-154h103v-153h-103v-154h103v-154h-103v-153h103v-154h-103v-153h103v-154h-103
v-154h103v-153h-103v-154h103v-153h-103v-154h-102v154z" />
    <glyph glyph-name="uni2594" unicode="&#x2594;" 
d="M1229 1663h-1229v385h1229v-385z" />
    <glyph glyph-name="uni2595" unicode="&#x2595;" 
d="M1075 -1024v3072h154v-3072h-154z" />
    <glyph glyph-name="uni2596" unicode="&#x2596;" 
d="M0 512h614v-1536h-614v1536z" />
    <glyph glyph-name="uni2597" unicode="&#x2597;" 
d="M614 -1024v1536h615v-1536h-615z" />
    <glyph glyph-name="uni2598" unicode="&#x2598;" 
d="M614 512h-614v1536h614v-1536z" />
    <glyph glyph-name="uni2599" unicode="&#x2599;" 
d="M0 2048h614v-1536h615v-1536h-1229v3072z" />
    <glyph glyph-name="uni259A" unicode="&#x259a;" 
d="M614 -1024v1536h-614v1536h614v-1534h615v-1538h-615z" />
    <glyph glyph-name="uni259B" unicode="&#x259b;" 
d="M0 2048h1229v-1536h-615v-1536h-614v3072z" />
    <glyph glyph-name="uni259C" unicode="&#x259c;" 
d="M614 -1024v1536h-614v1536h1229v-3072h-615z" />
    <glyph glyph-name="uni259D" unicode="&#x259d;" 
d="M1229 512h-615v1536h615v-1536z" />
    <glyph glyph-name="uni259E" unicode="&#x259e;" 
d="M0 512h614v-1536h-614v1536zM1229 514h-615v1534h615v-1534z" />
    <glyph glyph-name="uni259F" unicode="&#x259f;" 
d="M0 512h614v1536h615v-3072h-1229v1536z" />
    <glyph glyph-name="filledbox" unicode="&#x25a0;" 
d="M61 1106h1106v-1106h-1106v1106z" />
    <glyph glyph-name="H22073" unicode="&#x25a1;" 
d="M1004 164v778h-779v-778h779zM61 1106h1106v-1106h-1106v1106z" />
    <glyph glyph-name="uni25A2" unicode="&#x25a2;" 
d="M225 552q0 -124 14.5 -200t56.5 -117.5t117.5 -56t199.5 -14.5t201 14.5t119 56t56.5 117.5t14.5 200t-14.5 200.5t-56.5 118.5t-119 56.5t-201 14.5t-199.5 -14.5t-117.5 -56.5t-56.5 -118.5t-14.5 -200.5zM61 553q0 176 20.5 284.5t80 168t168 80t285 20.5t285 -20.5
t167.5 -80t79.5 -168t20.5 -284.5t-20.5 -284.5t-79.5 -168t-167.5 -80t-285 -20.5t-285 20.5t-168 80t-80 168t-20.5 284.5z" />
    <glyph glyph-name="uni25A3" unicode="&#x25a3;" 
d="M389 778h451v-450h-451v450zM1004 164v778h-779v-778h779zM61 1106h1106v-1106h-1106v1106z" />
    <glyph glyph-name="H18543" unicode="&#x25aa;" 
d="M291 553h583v-553h-583v553z" />
    <glyph glyph-name="H18551" unicode="&#x25ab;" 
d="M711 164v225h-256v-225h256zM291 553h583v-553h-583v553z" />
    <glyph glyph-name="filledrect" unicode="&#x25ac;" 
d="M61 553h1106v-553h-1106v553z" />
    <glyph glyph-name="uni25AD" unicode="&#x25ad;" 
d="M1004 164v225h-779v-225h779zM61 553h1106v-553h-1106v553z" />
    <glyph glyph-name="uni25AE" unicode="&#x25ae;" 
d="M291 1106h583v-1106h-583v1106z" />
    <glyph glyph-name="uni25AF" unicode="&#x25af;" 
d="M711 164v778h-256v-778h256zM291 1106h583v-1106h-583v1106z" />
    <glyph glyph-name="triagup" unicode="&#x25b2;" 
d="M614 1106l553 -1106h-1106z" />
    <glyph glyph-name="triagrt" unicode="&#x25ba;" 
d="M61 0v1106l1106 -553z" />
    <glyph glyph-name="triagdn" unicode="&#x25bc;" 
d="M61 1106h1106l-553 -1106z" />
    <glyph glyph-name="triaglf" unicode="&#x25c4;" 
d="M61 553l1106 553v-1106z" />
    <glyph glyph-name="uni25C6" unicode="&#x25c6;" 
d="M614 1106l553 -553l-553 -553l-553 553z" />
    <glyph glyph-name="uni25C7" unicode="&#x25c7;" 
d="M614 231l320 322l-320 319l-321 -319zM614 1106l553 -553l-553 -553l-553 553z" />
    <glyph glyph-name="uni25C9" unicode="&#x25c9;" 
d="M455.5 711.5q66.5 66.5 157.5 66.5t159 -67t68 -159q0 -91 -66.5 -157.5t-160.5 -66.5t-159 66t-65 158q0 93 66.5 159.5zM225 553q0 -80 31 -151.5t83 -124t124 -83t151.5 -30.5t150.5 30.5t124 83t84 124t31 151.5t-31 150.5t-84 124t-124 84t-150.5 30.5t-151.5 -30.5
t-124 -84t-83 -124t-31 -150.5zM61 553q0 115 43 215t118 176t176.5 119t216 43t215 -43t176 -119t118.5 -176t43 -215t-43 -216t-118.5 -176t-176 -118t-215 -43t-216 43t-176.5 118t-118 176t-43 216z" />
    <glyph glyph-name="lozenge" unicode="&#x25ca;" 
d="M80 709l369 710h346l354 -710l-354 -709h-346zM610 1169l-211 -458l211 -461h8l211 461l-211 458h-8z" />
    <glyph glyph-name="circle" unicode="&#x25cb;" 
d="M225 553q0 -80 31 -151.5t83 -124t124 -83t151.5 -30.5t150.5 30.5t124 83t84 124t31 151.5t-31 150.5t-84 124t-124 84t-150.5 30.5t-151.5 -30.5t-124 -84t-83 -124t-31 -150.5zM61 553q0 115 43 215t118 176t176.5 119t216 43t215 -43t176 -119t118.5 -176t43 -215
t-43 -216t-118.5 -176t-176 -118t-215 -43t-216 43t-176.5 118t-118 176t-43 216z" />
    <glyph glyph-name="uni25CE" unicode="&#x25ce;" 
d="M553 552q0 -26 17.5 -43t43.5 -17t44 17t18 43t-18.5 44t-44.5 18t-43 -18t-17 -44zM455.5 711.5q66.5 66.5 157.5 66.5t159 -67t68 -159q0 -91 -66.5 -157.5t-160.5 -66.5t-159 66t-65 158q0 93 66.5 159.5zM225 553q0 -80 31 -151.5t83 -124t124 -83t151.5 -30.5
t150.5 30.5t124 83t84 124t31 151.5t-31 150.5t-84 124t-124 84t-150.5 30.5t-151.5 -30.5t-124 -84t-83 -124t-31 -150.5zM61 553q0 115 43 215t118 176t176.5 119t216 43t215 -43t176 -119t118.5 -176t43 -215t-43 -216t-118.5 -176t-176 -118t-215 -43t-216 43
t-176.5 118t-118 176t-43 216z" />
    <glyph glyph-name="H18533" unicode="&#x25cf;" 
d="M61 553q0 115 43 215t118 176t176.5 119t216 43t215 -43t176 -119t118.5 -176t43 -215t-43 -216t-118.5 -176t-176 -118t-215 -43t-216 43t-176.5 118t-118 176t-43 216z" />
    <glyph glyph-name="uni25D0" unicode="&#x25d0;" 
d="M890 826.5q-114 115.5 -276 115.5v-778q160 0 275 113.5t115 273.5t-114 275.5zM1167 553q0 -115 -43 -216t-118.5 -176t-176 -118t-215 -43t-216 43t-176.5 118t-118 176t-43 216t43 215t118 176t176.5 119t216 43t215 -43t176 -119t118.5 -176t43 -215z" />
    <glyph glyph-name="uni25D1" unicode="&#x25d1;" 
d="M614 942q-164 0 -276.5 -116t-112.5 -274.5t113 -273t276 -114.5v778zM1011.5 167q-155.5 -159 -374.5 -167h-23q-231 0 -392 161t-161 390.5t160.5 392t392 162.5t392.5 -162.5t161 -389.5q0 -228 -155.5 -387z" />
    <glyph glyph-name="uni25D2" unicode="&#x25d2;" 
d="M1004 553q0 158 -114 273.5t-277 115.5t-275.5 -116t-112.5 -273h779zM61 553q0 115 43 215t118 176t176.5 119t216 43t215 -43t176 -119t118.5 -176t43 -215t-43 -216t-118.5 -176t-176 -118t-215 -43t-216 43t-176.5 118t-118 176t-43 216z" />
    <glyph glyph-name="uni25D3" unicode="&#x25d3;" 
d="M1004 553h-779q0 -160 113 -274.5t274.5 -114.5t276.5 113.5t115 275.5zM61 553q0 115 43 215t118 176t176.5 119t216 43t215 -43t176 -119t118.5 -176t43 -215t-43 -216t-118.5 -176t-176 -118t-215 -43t-216 43t-176.5 118t-118 176t-43 216z" />
    <glyph glyph-name="uni25D5" unicode="&#x25d5;" 
d="M614 553v389q-164 0 -276.5 -116t-112.5 -273h389zM61 553q0 115 43 215t118 176t176.5 119t216 43t215 -43t176 -119t118.5 -176t43 -215t-43 -216t-118.5 -176t-176 -118t-215 -43t-216 43t-176.5 118t-118 176t-43 216z" />
    <glyph glyph-name="uni25D6" unicode="&#x25d6;" 
d="M614 0q-231 0 -392 161t-161 390.5t160.5 392t392.5 162.5v-1106z" />
    <glyph glyph-name="uni25D7" unicode="&#x25d7;" 
d="M1005 160.5q-162 -160.5 -391 -160.5v1106q231 0 392 -162.5t161 -392.5t-162 -390.5z" />
    <glyph glyph-name="invcircle" unicode="&#x25d9;" 
d="M307 552.5q0 63.5 24.5 119t65.5 97.5t97.5 66.5t120 24.5t118.5 -24.5t97 -66.5t67 -97.5t25 -119t-25 -119.5t-67 -97t-97 -65.5t-118.5 -24.5t-120 24.5t-97.5 65.5t-65.5 97t-24.5 119.5zM281.5 220.5q138.5 -138.5 332.5 -138.5t332.5 138t138.5 333t-138.5 333
t-332.5 138t-332.5 -138.5t-138.5 -332.5t138.5 -332.5zM61 1106h1106v-1106h-1106v1106z" />
    <glyph glyph-name="uni25DA" unicode="&#x25da;" 
d="M307 553q0 124 89.5 215.5t216 91.5t218 -91.5t91.5 -215.5h-615zM61 553v553h1106v-553h-82q0 195 -138.5 333t-332.5 138t-332.5 -138.5t-138.5 -332.5h-82z" />
    <glyph glyph-name="uni25DB" unicode="&#x25db;" 
d="M922 553q0 -127 -92 -217t-217.5 -90t-215.5 90t-90 217h615zM61 553h82q0 -194 138.5 -332.5t332.5 -138.5t332.5 138t138.5 333h82v-553h-1106v553z" />
    <glyph glyph-name="uni25DC" unicode="&#x25dc;" 
d="M61 553q0 228 160.5 390.5t392.5 162.5v-164q-164 0 -276.5 -116t-112.5 -273h-164z" />
    <glyph glyph-name="uni25DD" unicode="&#x25dd;" 
d="M1004 553q0 158 -114 273.5t-276 115.5v164q231 0 392 -162.5t161 -390.5h-163z" />
    <glyph glyph-name="uni25DE" unicode="&#x25de;" 
d="M614 0q-231 0 -392 161t-161 392h164q0 -160 113 -274.5t276 -114.5v-164z" />
    <glyph glyph-name="uni25DF" unicode="&#x25df;" 
d="M1167 553q0 -232 -162 -392.5t-391 -160.5v164q160 0 275 113.5t115 275.5h163z" />
    <glyph glyph-name="uni25E0" unicode="&#x25e0;" 
d="M61 553q0 228 160.5 390.5t392 162.5t392.5 -162.5t161 -390.5h-163q0 158 -114 273.5t-277 115.5t-275.5 -116t-112.5 -273h-164z" />
    </font>
</defs>
</svg>
