<?xml version="1.0" standalone="no"?>
<!DOCTYPE svg PUBLIC "-//W3C//DTD SVG 1.1//EN" "http://www.w3.org/Graphics/SVG/1.1/DTD/svg11.dtd" >
<svg xmlns="http://www.w3.org/2000/svg">
<metadata>
Created by FontPrep 20130207 at Thu Dec 31 20:24:28 2015
 By James Campbell
Copyright (c) 2012, Carrois Type Design, Ralph du Carrois (post@carrois.com www.carrois.com), with Reserved Font Name 'Share'
</metadata>
<defs>
<font id="8d293640d0f61971a9c3b9bc3d3fbc32" horiz-adv-x='1024' >
  <font-face 
    font-family="ShareTechMono-Regular"
    font-weight="400"
    font-stretch="normal"
    units-per-em="2048"
    panose-1="2 11 5 9 5 0 0 2 0 4"
    ascent="1638"
    descent="-410"
    x-height="1024"
    cap-height="1434"
    bbox="-61 -481 2068 1751"
    underline-thickness="102"
    underline-position="-174"
    unicode-range="U+000D-FB02"
  />
<missing-glyph 
d="M326 1286v-1139h454v1139h-454zM934 0h-762v1434h762v-1434z" />
    <glyph glyph-name="fi" unicode="fi" horiz-adv-x="2211" 
d="M551 1219v-195h330v-154h-330v-716h248v-154h-596v154h174v716h-174v154h174v184q0 104 59 164t154 62h311v-154h-278q-34 0 -53 -17t-19 -44zM1270 870v154h475v-870h303v-154h-477v870h-301zM1755 1434v-185h-194v185h194z" />
    <glyph glyph-name="fl" unicode="fl" horiz-adv-x="2211" 
d="M551 1219v-195h330v-154h-330v-716h248v-154h-596v154h174v716h-174v154h174v184q0 104 59 164t154 62h311v-154h-278q-34 0 -53 -17t-19 -44zM1550 1280h-301v154h475v-1219q0 -33 16 -47t56 -14h272v-154h-344q-69 0 -121 49t-53 156v1075z" />
    <glyph glyph-name=".notdef" 
d="M326 1286v-1139h454v1139h-454zM934 0h-762v1434h762v-1434z" />
    <glyph glyph-name=".null" horiz-adv-x="0" 
 />
    <glyph glyph-name=".null" horiz-adv-x="0" 
 />
    <glyph glyph-name="nonmarkingreturn" unicode="&#xd;" 
 />
    <glyph glyph-name="space" unicode=" " 
 />
    <glyph glyph-name="exclam" unicode="!" 
d="M655 205v-205h-204v205h204zM639 1434v-1008h-174v1008h174z" />
    <glyph glyph-name="quotedbl" unicode="&#x22;" 
d="M614 1434h195v-185l-41 -321h-113l-41 321v185zM297 1434h195v-185l-41 -321h-113l-41 321v185z" />
    <glyph glyph-name="numbersign" unicode="#" 
d="M471 522h164v410h-164v-410zM635 0v369h-164v-369h-164v369h-143v153h143v410h-143v153h143v349h164v-349h164v349h164v-349h143v-153h-143v-410h143v-153h-143v-369h-164z" />
    <glyph glyph-name="dollar" unicode="$" 
d="M889 348q0 -282 -250 -338v-235h-174v225h-215v156h291q76 0 123 45t47 108v172q0 61 -32 99t-95 38h-41q-152 0 -240 89.5t-88 259.5v57q0 283 250 336v237h174v-225h217v-155h-293q-76 0 -123 -45.5t-47 -108.5v-135q0 -63 41 -105.5t107 -42.5h41q145 0 226 -84
t81 -254v-94z" />
    <glyph glyph-name="percent" unicode="%" 
d="M772 483h-16q-53 0 -80 -32.5t-27 -83.5v-127q0 -51 26.5 -84t80.5 -33h16q53 0 80 32.5t27 84.5v127q0 51 -27 83.5t-80 32.5zM772 0h-16q-119 0 -184.5 66.5t-65.5 195.5v82q0 129 65.5 195.5t184.5 66.5h16q119 0 184.5 -66.5t65.5 -195.5v-82q0 -129 -65.5 -195.5
t-184.5 -66.5zM1079 852v-127l-1054 -150v127zM342 1311h-16q-53 0 -80 -33t-27 -84v-127q0 -51 26.5 -84t80.5 -33h16q53 0 80 33t27 84v127q0 51 -27 84t-80 33zM342 827h-16q-119 0 -184.5 67t-65.5 196v81q0 129 65.5 196t184.5 67h16q119 0 184.5 -67t65.5 -196v-81
q0 -129 -65.5 -196t-184.5 -67z" />
    <glyph glyph-name="ampersand" unicode="&#x26;" 
d="M348 600v-297q0 -78 37 -113.5t115 -35.5h188v594h-190q-68 0 -109 -40t-41 -108zM170 324v258q0 178 133 252q-113 80 -113 237v43q0 166 89.5 243t263.5 77h217v-154h-242q-78 0 -113.5 -35t-35.5 -112v-82q0 -68 43 -109t106 -41h498v-153h-162v-748h-336
q-184 0 -266 77t-82 247z" />
    <glyph glyph-name="quotesingle" unicode="'" 
d="M455 1434h194v-185l-41 -321h-112l-41 321v185z" />
    <glyph glyph-name="parenleft" unicode="(" 
d="M522 1038v-643q0 -160 21.5 -260t68.5 -181t146 -200h-180q-109 113 -169.5 260.5t-60.5 384.5v635q0 238 60.5 385.5t169.5 259.5h180q-98 -119 -145.5 -199.5t-69 -181t-21.5 -260.5z" />
    <glyph glyph-name="parenright" unicode=")" 
d="M584 395v643q0 160 -21.5 260.5t-69 181.5t-145.5 199h180q109 -113 169.5 -260t60.5 -385v-635q0 -237 -60.5 -384.5t-169.5 -260.5h-180q98 119 145.5 200t69 181.5t21.5 259.5z" />
    <glyph glyph-name="asterisk" unicode="*" 
d="M731 696l-180 291l-186 -291l-144 109l219 250l-297 65l56 164l288 -117l-26 312h184l-27 -312l293 113l52 -162l-301 -63l217 -252z" />
    <glyph glyph-name="plus" unicode="+" 
d="M471 242v321h-309v154h309v323h164v-323h307v-154h-307v-321h-164z" />
    <glyph glyph-name="comma" unicode="," 
d="M492 205h204v-205l-127 -287h-159l82 287v205z" />
    <glyph glyph-name="hyphen" unicode="-" 
d="M885 717v-154h-666v154h666z" />
    <glyph glyph-name="period" unicode="." 
d="M655 205v-205h-204v205h204z" />
    <glyph glyph-name="slash" unicode="/" 
d="M831 1659h173l-730 -1884h-172z" />
    <glyph glyph-name="zero" unicode="0" 
d="M532 154h41q74 0 122 46t48 109v553l-381 -553q0 -63 48.5 -109t121.5 -46zM573 1280h-41q-74 0 -122 -46t-48 -110v-555l381 555q0 64 -48 110t-122 46zM573 0h-41q-158 0 -251 89t-93 259v737q0 172 92.5 260.5t251.5 88.5h41q160 0 252.5 -88.5t92.5 -260.5v-737
q0 -170 -93.5 -259t-251.5 -89z" />
    <glyph glyph-name="one" unicode="1" 
d="M498 154v1118l-289 -107v166l268 103h195v-1280h223v-154h-666v154h269z" />
    <glyph glyph-name="two" unicode="2" 
d="M672 981v143q0 63 -47 108.5t-123 45.5h-246v156h225q178 0 273.5 -87t95.5 -262v-86q0 -175 -41 -251t-102 -164l-304 -428h488v-156h-676v180l328 467q66 94 89 134t31.5 81t8.5 119z" />
    <glyph glyph-name="three" unicode="3" 
d="M510 0h-262v154h280q78 0 115 35.5t37 113.5v211q0 68 -41 108t-109 40h-219v153h199q63 0 106 41t43 109v168q0 78 -35.5 112.5t-113.5 34.5h-262v154h237q174 0 263.5 -77t89.5 -243v-129q0 -158 -113 -237q133 -74 133 -252v-172q0 -170 -82 -247t-266 -77z" />
    <glyph glyph-name="four" unicode="4" 
d="M600 0v319h-422v177l219 938h166l-209 -965h246v467h174v-467h154v-150h-154v-319h-174z" />
    <glyph glyph-name="five" unicode="5" 
d="M512 0h-268v154h286q78 0 115 35.5t37 113.5v260q0 68 -41 108t-109 40h-268v723h565v-154h-391v-416h84q158 0 248 -77.5t90 -241.5v-221q0 -170 -82 -247t-266 -77z" />
    <glyph glyph-name="six" unicode="6" 
d="M532 154h52q74 0 116.5 45t42.5 110v303q0 63 -37.5 99.5t-111.5 36.5h-221v-439q0 -65 43 -110t116 -45zM594 0h-72q-139 0 -231 90t-92 258v737q0 174 93 261.5t271 87.5h256v-156h-276q-76 0 -123 -45t-47 -109v-223h200q176 0 260.5 -78t84.5 -250v-225
q0 -168 -92.5 -258t-231.5 -90z" />
    <glyph glyph-name="seven" unicode="7" 
d="M213 1280v154h666v-199l-361 -1235h-182l373 1280h-496z" />
    <glyph glyph-name="eight" unicode="8" 
d="M354 303q0 -149 135 -149h111q78 0 115 35.5t37 113.5v211q0 68 -41 108t-109 40h-98q-68 0 -109 -40t-41 -108v-211zM379 1133v-168q0 -66 38 -106t95 -44h70q63 0 104 41t41 109v168q0 78 -34 112.5t-111 34.5h-74q-70 -2 -99.5 -38t-29.5 -109zM573 1434
q332 0 332 -320v-129q0 -162 -108 -237q133 -74 133 -252v-172q0 -170 -82 -247t-266 -77h-58q-184 0 -266 77t-82 247v172q0 178 133 252q-109 76 -108 237v129q0 320 331 320h41z" />
    <glyph glyph-name="nine" unicode="9" 
d="M582 1280h-52q-74 0 -116.5 -45t-42.5 -111v-303q0 -63 37.5 -99t111.5 -36h221v438q0 66 -43 111t-116 45zM915 348q0 -348 -364 -348h-236v156h256q76 0 123 45t47 108v223h-200q-176 0 -260 78t-84 250v225q0 168 92 258.5t231 90.5h72q139 0 231 -90.5t92 -258.5
v-737z" />
    <glyph glyph-name="colon" unicode=":" 
d="M655 205v-205h-204v205h204zM655 1024v-205h-204v205h204z" />
    <glyph glyph-name="semicolon" unicode=";" 
d="M492 205h204v-205l-127 -287h-159l82 287v205zM696 1024v-205h-204v205h204z" />
    <glyph glyph-name="less" unicode="&#x3c;" 
d="M942 1155v-188l-635 -279l635 -280v-193l-778 358v215z" />
    <glyph glyph-name="equal" unicode="=" 
d="M942 512v-154h-778v154h778zM942 922v-154h-778v154h778z" />
    <glyph glyph-name="greater" unicode="&#x3e;" 
d="M811 688l-647 279v188l778 -367v-215l-778 -358v193z" />
    <glyph glyph-name="question" unicode="?" 
d="M600 205v-205h-205v205h205zM664 1145q0 133 -150 133h-256v156h236q344 0 344 -308v-65q0 -86 -8.5 -128t-37 -84t-100.5 -116l-108 -110v-197h-174v248l118 125q113 120 124.5 157t11.5 86v103z" />
    <glyph glyph-name="at" unicode="@" 
d="M639 520v467h-31q-88 0 -120.5 -29.5t-32.5 -119.5v-320q0 -49 15.5 -76.5t65.5 -27.5t76.5 31.5t26.5 74.5zM315 530v295q0 111 31 171.5t97.5 84t187.5 23.5h147v-672q0 -43 13.5 -63.5t50.5 -20.5t49 18.5t12 75.5v705q0 78 -37 118t-121 40h-378q-88 0 -126 -39
t-38 -119v-881q0 -137 137 -137h379v-129h-379q-145 0 -213 66.5t-68 220.5v839q0 162 77 235t251 73h338q172 0 247 -71t75 -237v-669q0 -123 -50.5 -172t-136.5 -49q-168 0 -180 122q-59 -63 -165 -63q-105 0 -152.5 52t-47.5 183z" />
    <glyph glyph-name="A" unicode="A" 
d="M721 516l-168 782l-166 -782h334zM354 362l-80 -362h-182l346 1434h236l340 -1434h-183l-77 362h-400z" />
    <glyph glyph-name="B" unicode="B" 
d="M604 674h-252v-520h250q78 0 115 35.5t37 113.5v223q0 68 -41 108t-109 40zM584 1280h-232v-453h232q63 0 106 41t43 109v156q0 77 -35.5 112t-113.5 35zM584 0h-410v1434h385q182 0 267 -74t85 -246v-117q0 -158 -112 -237q133 -74 133 -252v-184q0 -177 -81 -250.5
t-267 -73.5z" />
    <glyph glyph-name="C" unicode="C" 
d="M223 348v737q0 174 95.5 261.5t273.5 87.5h291v-156h-312q-76 0 -123 -45t-47 -109v-815q0 -63 47.5 -108t122.5 -45h312v-156h-291q-178 0 -273.5 87t-95.5 261z" />
    <glyph glyph-name="D" unicode="D" 
d="M610 1280h-264v-1126h262q78 0 115 35.5t37 113.5v830q0 67 -41 107t-109 40zM590 0h-422v1434h397q184 0 278.5 -75t94.5 -245v-790q0 -177 -81 -250.5t-267 -73.5z" />
    <glyph glyph-name="E" unicode="E" 
d="M895 1434v-150h-506v-469h455v-149h-455v-516h506v-150h-684v1434h684z" />
    <glyph glyph-name="F" unicode="F" 
d="M850 795v-150h-455v-645h-178v1434h684v-150h-506v-489h455z" />
    <glyph glyph-name="G" unicode="G" 
d="M193 348v737q0 174 95 261.5t273 87.5h289v-156h-309q-76 0 -123 -45t-47 -109v-815q0 -63 47 -108t123 -45h200v444h-178v154h348v-754h-350q-178 0 -273 87t-95 261z" />
    <glyph glyph-name="H" unicode="H" 
d="M342 659v-659h-178v1434h178v-623h422v623h178v-1434h-178v659h-422z" />
    <glyph glyph-name="I" unicode="I" 
d="M463 150v1134h-184v150h546v-150h-184v-1134h184v-150h-546v150h184z" />
    <glyph glyph-name="J" unicode="J" 
d="M471 0h-215v156h236q76 0 123 45t47 108v971h-330v154h508v-1086q0 -174 -95.5 -261t-273.5 -87z" />
    <glyph glyph-name="K" unicode="K" 
d="M344 0h-178v1434h178v-619l389 619h195l-396 -633l420 -801h-204l-326 645l-78 -117v-528z" />
    <glyph glyph-name="L" unicode="L" 
d="M414 1434v-1278h456v-156h-634v1434h178z" />
    <glyph glyph-name="M" unicode="M" 
d="M264 0h-155v1434h284l164 -734l166 734h276v-1434h-159v1286l-205 -805h-170l-201 805v-1286z" />
    <glyph glyph-name="N" unicode="N" 
d="M328 0h-166v1434h291l323 -1282v1282h166v-1434h-293l-321 1282v-1282z" />
    <glyph glyph-name="O" unicode="O" 
d="M614 1278h-122q-76 0 -123 -45t-47 -109v-815q0 -63 47 -108t123 -45h122q76 0 123 45t47 108v815q0 64 -47 109t-123 45zM594 0h-82q-178 0 -273.5 87t-95.5 261v737q0 174 95.5 261.5t273.5 87.5h82q178 0 273.5 -87t95.5 -262v-737q0 -174 -95.5 -261t-273.5 -87z" />
    <glyph glyph-name="P" unicode="P" 
d="M596 1280h-234v-569h234q78 0 113.5 35.5t35.5 113.5v273q0 77 -35.5 112t-113.5 35zM575 557h-213v-557h-178v1434h387q174 0 263.5 -77t89.5 -243v-233q0 -166 -88 -245t-261 -79z" />
    <glyph glyph-name="Q" unicode="Q" 
d="M614 1278h-122q-76 0 -123 -45t-47 -109v-815q0 -63 47 -108t123 -45h122q76 0 123 45t47 108v815q0 64 -47 109t-123 45zM594 0h-82q-178 0 -273.5 87t-95.5 261v737q0 174 95.5 261.5t273.5 87.5h82q178 0 273.5 -87t95.5 -262v-737q0 -121 -48 -203l150 -149
l-117 -117l-157 158q-80 -37 -197 -37z" />
    <glyph glyph-name="R" unicode="R" 
d="M553 1280h-231v-532h231q78 0 113.5 35.5t35.5 113.5v236q0 77 -35.5 112t-113.5 35zM322 594v-594h-179v1434h385q174 0 263.5 -77t89.5 -243v-196q0 -231 -185 -289l285 -629h-195l-264 594h-200z" />
    <glyph glyph-name="S" unicode="S" 
d="M530 0h-290v156h311q76 0 123 45t47 108v213q0 61 -32 99t-95 38h-62q-152 0 -239.5 89.5t-87.5 259.5v77q0 174 95 261.5t273 87.5h293v-156h-313q-76 0 -123 -45t-47 -109v-155q0 -63 41 -105.5t106 -42.5h62q145 0 226 -84t81 -254v-135q0 -174 -95 -261t-274 -87z
" />
    <glyph glyph-name="T" unicode="T" 
d="M463 0v1278h-326v156h830v-156h-326v-1278h-178z" />
    <glyph glyph-name="U" unicode="U" 
d="M578 0h-52q-178 0 -273 87t-95 261v1086h178v-1125q0 -63 47 -108t123 -45h92q76 0 123 45t47 108v1125h178v-1086q0 -174 -95 -261t-273 -87z" />
    <glyph glyph-name="V" unicode="V" 
d="M115 1434h180l246 -1254l264 1254h176l-322 -1434h-243z" />
    <glyph glyph-name="W" unicode="W" 
d="M549 582l-129 -582h-246l-70 1434h152l61 -1280l170 675h127l174 -675l64 1280h141l-69 -1434h-258z" />
    <glyph glyph-name="X" unicode="X" 
d="M297 0h-193l357 741l-324 693h195l225 -486l234 486h190l-332 -691l352 -743h-200l-246 539z" />
    <glyph glyph-name="Y" unicode="Y" 
d="M457 0v666l-367 768h197l270 -596l270 596h187l-373 -768v-666h-184z" />
    <glyph glyph-name="Z" unicode="Z" 
d="M903 0h-725v180l561 1102h-514v152h699v-181l-559 -1101h538v-152z" />
    <glyph glyph-name="bracketleft" unicode="[" 
d="M768 1679v-153h-266v-1618h266v-154h-430v1925h430z" />
    <glyph glyph-name="backslash" unicode="\" 
d="M1004 -225h-173l-729 1884h172z" />
    <glyph glyph-name="bracketright" unicode="]" 
d="M604 -92v1618h-266v153h430v-1925h-430v154h266z" />
    <glyph glyph-name="asciicircum" unicode="^" 
d="M326 860h-181l295 696h234l284 -696h-186l-213 574z" />
    <glyph glyph-name="underscore" unicode="_" 
d="M1069 -195v-153h-1032v153h1032z" />
    <glyph glyph-name="grave" unicode="`" 
d="M547 1464l213 -276h-176l-250 276h213z" />
    <glyph glyph-name="a" unicode="a" 
d="M690 256v225h-256q-53 0 -88 -34.5t-35 -88.5v-102q0 -53 24.5 -77.5t78.5 -24.5h182q61 0 77.5 28.5t16.5 73.5zM854 0q-63 0 -113 61q-47 -61 -125 -61h-182q-156 0 -226.5 62.5t-70.5 213.5v41q0 317 299 318h254v102q0 63 -39 98t-114 35h-318v154h297q178 0 263 -78
t85 -250v-491q0 -62 103 -62v-143h-113z" />
    <glyph glyph-name="b" unicode="b" 
d="M352 758v-604h248q76 0 115 34.5t39 98.5v450q0 63 -39 98t-115 35h-115q-67 0 -100 -35.5t-33 -76.5zM580 0h-402v1434h174v-451q61 41 154 41h74q180 0 264 -77t84 -251v-368q0 -172 -85 -250t-263 -78z" />
    <glyph glyph-name="c" unicode="c" 
d="M573 870q-153 0 -153 -133v-450q0 -63 39 -98t114 -35h285v-154h-264q-180 0 -264 77t-84 251v368q0 172 85 250t263 78h264v-154h-285z" />
    <glyph glyph-name="d" unicode="d" 
d="M758 266v604h-258q-76 0 -115 -34.5t-39 -98.5v-450q0 -63 39 -98t115 -35h125q67 0 100 35.5t33 76.5zM604 0h-84q-180 0 -264 77t-84 251v368q0 172 85 250t263 78h238v410h174v-1434h-164v47q-68 -47 -164 -47z" />
    <glyph glyph-name="e" unicode="e" 
d="M741 748q0 53 -34.5 87.5t-88.5 34.5h-118q-74 0 -103.5 -33.5t-29.5 -99.5v-143h374v154zM193 328v368q0 176 75.5 252t251.5 76h96q145 0 220 -81t75 -236v-267h-544v-153q0 -63 38.5 -98t114.5 -35h326v-154h-305q-181 0 -264.5 77t-83.5 251z" />
    <glyph glyph-name="f" unicode="f" 
d="M551 1219v-195h330v-154h-330v-716h248v-154h-596v154h174v716h-174v154h174v184q0 104 59.5 165t153.5 61h311v-154h-278q-33 0 -52.5 -17.5t-19.5 -43.5z" />
    <glyph glyph-name="g" unicode="g" 
d="M475 870q-153 0 -153 -133v-133q0 -63 38.5 -98t114.5 -35h143q64 0 97 41t37 86v272h-277zM147 645v51q0 172 85 250t264 78h430v-379q0 -154 -84 -241t-224 -87h-163v-88h159q176 0 259 -68.5t83 -207.5v-25q0 -139 -82.5 -207.5t-259.5 -68.5h-426v153h447
q74 0 110.5 29t36.5 74v65q0 47 -36.5 75t-110.5 28h-354v282q-134 73 -134 287z" />
    <glyph glyph-name="h" unicode="h" 
d="M352 1434v-451q61 41 154 41h94q166 0 247 -78t81 -250v-696h-174v737q0 61 -36 97t-97 36h-136q-66 0 -98.5 -33.5t-34.5 -72.5v-764h-174v1434h174z" />
    <glyph glyph-name="i" unicode="i" 
d="M164 870v154h475v-870h303v-154h-477v870h-301zM649 1434v-185h-194v185h194z" />
    <glyph glyph-name="j" unicode="j" 
d="M641 -133v1003h-301v154h475v-1147q0 -104 -59.5 -164.5t-153.5 -60.5h-321v153h288q33 0 52.5 17.5t19.5 44.5zM823 1434v-185h-194v185h194z" />
    <glyph glyph-name="k" unicode="k" 
d="M371 0h-174v1434h174v-775l321 365h219l-356 -403l385 -621h-215l-301 500l-53 -62v-438z" />
    <glyph glyph-name="l" unicode="l" 
d="M444 205v1075h-301v154h475v-1219q0 -33 16.5 -47t55.5 -14h273v-154h-345q-69 0 -121.5 49t-52.5 156z" />
    <glyph glyph-name="m" unicode="m" 
d="M745 887q-105 0 -110 -135v-752h-164v737q0 86 -20.5 118t-73.5 32h-12q-61 0 -86 -36t-27 -81v-770h-164v1024h154v-47q53 47 127 47h12q143 0 203 -82q68 82 178 82h12q125 0 184.5 -63.5t59.5 -225.5v-735h-164v737q0 84 -17.5 117t-78.5 33h-13z" />
    <glyph glyph-name="n" unicode="n" 
d="M342 1024v-49q63 49 164 49h94q166 0 247 -78t81 -250v-696h-174v737q0 61 -36 97t-97 36h-136q-68 0 -100.5 -35.5t-32.5 -76.5v-758h-174v1024h164z" />
    <glyph glyph-name="o" unicode="o" 
d="M606 870h-108q-76 0 -115 -34.5t-39 -98.5v-450q0 -63 39 -98t115 -35h108q76 0 115 34.5t39 98.5v450q0 64 -39 98.5t-115 34.5zM586 0h-68q-178 0 -263 78t-85 250v368q0 172 85 250t263 78h68q178 0 263 -78t85 -250v-368q0 -172 -85 -250t-263 -78z" />
    <glyph glyph-name="p" unicode="p" 
d="M352 758v-604h248q76 0 115 34.5t39 98.5v450q0 63 -39 98t-115 35h-115q-67 0 -100 -35.5t-33 -76.5zM342 1024v-49q63 49 164 49h74q180 0 264 -77t84 -251v-368q0 -172 -85 -250t-263 -78h-228v-348h-174v1372h164z" />
    <glyph glyph-name="q" unicode="q" 
d="M758 266v604h-258q-76 0 -115 -34.5t-39 -98.5v-450q0 -63 39 -98t115 -35h125q67 0 100 35.5t33 76.5zM604 0h-84q-180 0 -264 77t-84 251v368q0 172 85 250t263 78h412v-1372h-174v389q-64 -41 -154 -41z" />
    <glyph glyph-name="r" unicode="r" 
d="M354 154v716h-149v154h313v-55q68 55 164 55h211v-164h-231q-66 0 -99 -42t-35 -85v-579h224v-154h-547v154h149z" />
    <glyph glyph-name="s" unicode="s" 
d="M864 256q0 -256 -307 -256h-305v154h326q112 0 112 92v108q0 92 -88 92h-76q-143 0 -213.5 62.5t-70.5 198.5v59q0 137 77.5 197.5t229.5 60.5h274v-154h-295q-51 0 -81.5 -23.5t-30.5 -68.5v-73q0 -47 27.5 -70t70.5 -23h70q280 0 280 -264v-92z" />
    <glyph glyph-name="t" unicode="t" 
d="M414 246v624h-195v154h195v246h174v-246h299v-154h-299v-634q0 -45 22.5 -63.5t69.5 -18.5h207v-154h-258q-105 0 -160 67.5t-55 178.5z" />
    <glyph glyph-name="u" unicode="u" 
d="M588 0h-70q-166 0 -247 78t-81 250v696h175v-737q0 -61 35.5 -97t97.5 -36h110q66 0 97.5 32.5t35.5 73.5v764h174v-1024h-163v47q-68 -47 -164 -47z" />
    <glyph glyph-name="v" unicode="v" 
d="M131 1024h188l240 -883l234 883h182l-295 -1024h-252z" />
    <glyph glyph-name="w" unicode="w" 
d="M557 514l-111 -514h-190l-184 1024h174l116 -813l136 629h133l123 -629l116 813h164l-182 -1024h-197z" />
    <glyph glyph-name="x" unicode="x" 
d="M326 0h-193l320 528l-295 496h202l195 -344l199 344h190l-299 -487l326 -537h-205l-215 387z" />
    <glyph glyph-name="y" unicode="y" 
d="M381 -348h-98v153h86q49 0 73.5 18.5t36.5 63.5l29 113h-41l-338 1024h188l256 -858l224 858h178l-318 -1135q-49 -188 -124.5 -212.5t-151.5 -24.5z" />
    <glyph glyph-name="z" unicode="z" 
d="M868 0h-651v164l479 708h-438v152h631v-182l-475 -690h454v-152z" />
    <glyph glyph-name="braceleft" unicode="{" 
d="M446 961v469q0 137 51.5 193t172.5 56h133v-143h-105q-49 0 -70.5 -15.5t-21.5 -60.5v-499q0 -102 -50 -168t-124 -78q74 -8 124 -74t50 -168v-500q0 -45 21.5 -60t70.5 -15h105v-144h-133q-121 0 -172.5 56.5t-51.5 193.5v469q0 80 -31.5 105.5t-113.5 25.5v225
q82 0 113.5 26t31.5 106z" />
    <glyph glyph-name="bar" unicode="|" 
d="M635 1659v-1884h-164v1884h164z" />
    <glyph glyph-name="braceright" unicode="}" 
d="M657 473v-469q0 -137 -51 -193.5t-172 -56.5h-133v144h105q49 0 70.5 15t21.5 60v500q0 102 50 168t124 74q-74 12 -124 77.5t-50 168.5v499q0 45 -21.5 60.5t-70.5 15.5h-105v143h133q121 0 172 -56t51 -193v-469q0 -80 32 -106t114 -26v-225q-82 0 -114 -25.5
t-32 -105.5z" />
    <glyph glyph-name="asciitilde" unicode="~" 
d="M723 698q30 0 178 74v-164q-23 -12 -90.5 -41.5t-89.5 -29.5h-31q-12 1 -126 41t-140 40h-21q-18 0 -95 -30.5t-103 -42.5v164q24 12 99 41.5t99 29.5h31q27 0 135 -41t133 -41h21z" />
    <glyph glyph-name="uni00A0" unicode="&#xa0;" 
 />
    <glyph glyph-name="exclamdown" unicode="&#xa1;" 
d="M467 -410v1008h174v-1008h-174zM451 819v205h204v-205h-204z" />
    <glyph glyph-name="cent" unicode="&#xa2;" 
d="M573 868q-153 0 -153 -133v-450q0 -63 39 -98t114 -35h285v-154h-162v-223h-164v225q-147 12 -216.5 89t-69.5 237v368q0 158 69.5 235t216.5 89v211h164v-207h162v-154h-285z" />
    <glyph glyph-name="sterling" unicode="&#xa3;" 
d="M332 1085q0 174 95 261.5t273 87.5h199v-156h-219q-76 0 -123 -45t-47 -109v-278h262v-150h-262v-546h405v-150h-727v150h144v546h-144v150h144v239z" />
    <glyph glyph-name="currency" unicode="&#xa4;" 
d="M627 891h-150q-76 0 -114.5 -35t-38.5 -98v-283q0 -63 38.5 -98t114.5 -35h150q76 0 114.5 35t38.5 98v283q0 63 -39 98t-114 35zM150 516v201q0 98 24 162l-145 147l116 117l140 -139q76 41 213 40h108q133 0 213 -43l142 142l116 -117l-149 -149q27 -61 26 -160v-201
q0 -92 -24 -158l147 -147l-116 -117l-138 137q-82 -43 -217 -43h-108q-141 0 -215 43l-138 -137l-116 117l145 145q-24 66 -24 160z" />
    <glyph glyph-name="yen" unicode="&#xa5;" 
d="M459 0v236h-266v153h266v154h-266v153h260l-340 738h196l250 -560l248 560h186l-346 -738h262v-153h-266v-154h266v-153h-266v-236h-184z" />
    <glyph glyph-name="brokenbar" unicode="&#xa6;" 
d="M635 512v-737h-164v737h164zM635 1659v-737h-164v737h164z" />
    <glyph glyph-name="section" unicode="&#xa7;" 
d="M477 860q-71 0 -71 -92v-92q0 -47 26.5 -75t81.5 -28h113q33 0 52 24t19 69v92q0 49 -22.5 75.5t-83.5 26.5h-115zM260 1126v21q0 150 78 218.5t229 68.5h254v-154h-274q-49 0 -81 -23.5t-32 -68.5v-82q0 -92 98 -92h60q281 0 280 -297v-10q0 -139 -90 -220
q29 -20 45.5 -70t16.5 -110v-20q0 -150 -78 -218.5t-229 -68.5h-254v154h274q49 0 81 23.5t32 68.5v82q0 92 -90 92h-68q-281 0 -281 297v10q0 74 26 132.5t65 86.5q-62 66 -62 180z" />
    <glyph glyph-name="dieresis" unicode="&#xa8;" 
d="M844 1382v-163h-174v163h174zM434 1382v-163h-174v163h174z" />
    <glyph glyph-name="copyright" unicode="&#xa9;" 
d="M580 322q-222 0 -222 192v406q0 192 222 192h153v-104h-164q-43 0 -68.5 -25t-25.5 -61v-410q0 -35 25.5 -60.5t68.5 -25.5h162v-104h-151zM721 1303h-336q-88 0 -137 -52.5t-49 -120.5v-829q0 -68 49 -120t137 -52h336q88 0 137 52t49 120v829q0 68 -50 120.5t-136 52.5
zM721 0h-336q-158 0 -246 88t-88 260v737q0 172 88 260.5t246 88.5h336q158 0 246 -88.5t88 -260.5v-737q0 -172 -88 -260t-246 -88z" />
    <glyph glyph-name="ordfeminine" unicode="&#xaa;" 
d="M815 154v-154h-514v154h514zM633 860v162h-146q-39 0 -65.5 -25.5t-26.5 -66.5v-66q0 -80 76 -80h90q47 0 59.5 20.5t12.5 55.5zM756 664q-47 0 -82 41q-35 -41 -88 -41h-107q-117 0 -170 48t-53 160v31q0 238 225 238h152v78q0 47 -25.5 68.5t-83.5 21.5h-207v125h193
q133 0 197.5 -58.5t64.5 -187.5v-371q0 -25 17.5 -35t58.5 -10v-108h-92z" />
    <glyph glyph-name="guillemotleft" unicode="&#xab;" 
d="M739 1036h135l-129 -424l129 -424h-135l-182 424zM412 1036h135l-129 -424l129 -424h-135l-183 424z" />
    <glyph glyph-name="logicalnot" unicode="&#xac;" 
d="M127 563v154h850v-500h-174v346h-676z" />
    <glyph glyph-name="uni00AD" unicode="&#xad;" 
d="M885 717v-154h-666v154h666z" />
    <glyph glyph-name="registered" unicode="&#xae;" 
d="M565 1016h-104v-273h104q47 0 67.5 19.5t20.5 62.5v111q0 43 -20.5 61.5t-67.5 18.5zM461 649v-323h-115v786h219q213 0 213 -176v-109q0 -127 -110 -159l170 -342h-125l-160 323h-92zM721 1303h-336q-88 0 -137 -52.5t-49 -120.5v-829q0 -68 49 -120t137 -52h336
q88 0 137 52t49 120v829q0 68 -50 120.5t-136 52.5zM721 0h-336q-158 0 -246 88t-88 260v737q0 172 88 260.5t246 88.5h336q158 0 246 -88.5t88 -260.5v-737q0 -172 -88 -260t-246 -88z" />
    <glyph glyph-name="macron" unicode="&#xaf;" 
d="M813 1382v-143h-522v143h522z" />
    <glyph glyph-name="degree" unicode="&#xb0;" 
d="M582 1309h-58q-51 0 -84.5 -33t-33.5 -78v-147q0 -45 33.5 -78t84.5 -33h58q51 0 84.5 33t33.5 78v147q0 45 -33.5 78t-84.5 33zM582 813h-58q-113 0 -186.5 62.5t-73.5 181.5v135q0 119 73 181.5t187 62.5h58q115 0 187.5 -62.5t72.5 -181.5v-135q0 -119 -74 -181.5
t-186 -62.5z" />
    <glyph glyph-name="plusminus" unicode="&#xb1;" 
d="M942 154v-154h-778v154h778zM471 293v270h-307v154h307v323h164v-323h307v-154h-307v-270h-164z" />
    <glyph glyph-name="twosuperior" unicode="&#xb2;" 
d="M639 1128v74q0 100 -125 101h-176v131h162q152 0 220 -58.5t68 -185.5v-47q0 -140 -28.5 -188t-81.5 -119l-211 -285h332v-131h-492v149l230 314q68 92 85 131t17 114z" />
    <glyph glyph-name="threesuperior" unicode="&#xb3;" 
d="M766 1122q0 -114 -90 -178q104 -55 104 -188v-92q0 -129 -60.5 -186.5t-199.5 -57.5h-196v131h190q57 0 86 23.5t29 78.5v113q0 49 -31 77.5t-82 28.5h-145v132h129q49 0 80.5 27.5t31.5 78.5v86q0 59 -26.5 83t-85.5 24h-176v131h178q264 0 264 -240v-72z" />
    <glyph glyph-name="acute" unicode="&#xb4;" 
d="M770 1464l-250 -276h-176l213 276h213z" />
    <glyph glyph-name="mu" unicode="&#xb5;" 
d="M385 1024v-737q0 -61 36 -97t97 -36h70q68 0 100.5 35.5t32.5 76.5v758h174v-1024h-164v47q-68 -47 -164 -47h-28q-92 0 -154 20v-368h-174v1372h174z" />
    <glyph glyph-name="paragraph" unicode="&#xb6;" 
d="M928 1434v-1434h-164v1434h164zM469 766q-180 0 -261 70.5t-81 242.5v27q0 174 82 251t260 77h182v-144h-205q-74 0 -113.5 -40t-39.5 -103v-109q0 -63 39 -98t114 -35h205v-905h-170v766h-12z" />
    <glyph glyph-name="periodcentered" unicode="&#xb7;" 
d="M655 737v-205h-204v205h204z" />
    <glyph glyph-name="cedilla" unicode="&#xb8;" 
d="M512 -279q68 0 68 64q0 35 -17.5 47t-54.5 12h-100v258h143v-145q94 0 136 -35.5t42 -145.5t-52 -148t-128 -38h-174v131h137z" />
    <glyph glyph-name="onesuperior" unicode="&#xb9;" 
d="M502 551v745l-203 -79v139l186 78h168v-883h152v-131h-490v131h187z" />
    <glyph glyph-name="ordmasculine" unicode="&#xba;" 
d="M836 154v-154h-566v154h566zM680 1214q0 99 -115 99h-35q-114 0 -114 -99v-323q0 -47 29.5 -72.5t84.5 -25.5h35q115 0 115 98v323zM559 668h-20q-135 0 -199 58t-64 187v279q0 129 63.5 187.5t199.5 58.5h20q133 0 196.5 -58.5t63.5 -187.5v-279q0 -129 -63.5 -187
t-196.5 -58z" />
    <glyph glyph-name="guillemotright" unicode="&#xbb;" 
d="M557 1036h135l182 -424l-182 -424h-135l129 424zM229 1036h136l182 -424l-182 -424h-136l129 424z" />
    <glyph glyph-name="onequarter" unicode="&#xbc;" 
d="M877 0v240h-207v151l110 623h142l-127 -643h73l56 293h96v-293h61v-131h-61v-240h-143zM158 551v739l-135 -80v146l139 78h147v-883h70v-131h-320v131h99zM768 1659h152l-525 -1884h-151z" />
    <glyph glyph-name="onehalf" unicode="&#xbd;" 
d="M936 709v94q0 80 -84 80h-74v131h60q100 0 153 -21.5t73.5 -70t20.5 -131.5v-68q0 -137 -6 -186.5t-30 -94.5l-146 -311h193v-131h-348v150l159 354q18 41 23.5 76.5t5.5 128.5zM158 551v739l-135 -80v146l139 78h147v-883h70v-131h-320v131h99zM748 1659h180l-525 -1884
h-151z" />
    <glyph glyph-name="threequarters" unicode="&#xbe;" 
d="M877 0v240h-207v151l110 623h142l-127 -643h73l56 293h96v-293h61v-131h-61v-240h-143zM391 1122q0 -114 -90 -178q104 -55 105 -188v-92q0 -132 -55.5 -188t-192.5 -56h-115v127h109q55 0 82.5 23.5t27.5 78.5v121q0 49 -29.5 78t-78.5 29h-64v122h47q49 0 79 28t30 79
v94q0 59 -24.5 83t-84.5 24h-94v127h96q129 0 190.5 -57.5t61.5 -182.5v-72zM756 1659h151l-524 -1884h-152z" />
    <glyph glyph-name="questiondown" unicode="&#xbf;" 
d="M442 -121q0 -133 150 -133h256v-156h-236q-344 0 -344 308v65q0 86 8.5 128t37 84t100.5 116l108 110v197h174v-248l-118 -125q-112 -115 -124 -154.5t-12 -88.5v-103zM506 819v205h205v-205h-205z" />
    <glyph glyph-name="Agrave" unicode="&#xc0;" 
d="M721 516l-168 782l-166 -782h334zM354 362l-80 -362h-182l346 1434h236l340 -1434h-183l-77 362h-400zM518 1722l213 -235h-170l-270 235h227z" />
    <glyph glyph-name="Aacute" unicode="&#xc1;" 
d="M721 516l-168 782l-182 -782h350zM354 362l-80 -362h-182l346 1434h236l340 -1434h-183l-77 362h-400zM811 1722l-270 -235h-170l213 235h227z" />
    <glyph glyph-name="Acircumflex" unicode="&#xc2;" 
d="M721 516l-168 782l-166 -782h334zM354 362l-80 -362h-182l346 1434h236l340 -1434h-183l-77 362h-400zM428 1495h-197l226 236h188l227 -236h-198l-123 131z" />
    <glyph glyph-name="Atilde" unicode="&#xc3;" 
d="M721 516l-168 782l-166 -782h334zM354 362l-80 -362h-182l346 1434h236l340 -1434h-183l-77 362h-400zM434 1720h31q33 0 118 -41t109 -41h21q20 0 137 74v-147q-109 -68 -139 -68h-31q-10 0 -104 41t-121 41h-21q-18 0 -77.5 -30.5t-80.5 -43.5v148q127 67 158 67z" />
    <glyph glyph-name="Adieresis" unicode="&#xc4;" 
d="M721 516l-168 782l-166 -782h334zM354 362l-80 -362h-182l346 1434h236l340 -1434h-183l-77 362h-400zM680 1505v164h151l23 -164h-174zM444 1669v-164h-174v164h174z" />
    <glyph glyph-name="Aring" unicode="&#xc5;" 
d="M721 516l-168 782l-166 -782h334zM479 1516q0 -78 70 -78h12q66 0 66 78v63q0 78 -66 78h-12q-70 0 -70 -78v-63zM367 1518v59q0 86 50 130t132 44h12q82 0 132 -44t50 -130v-59q-4 -93 -57 -136l328 -1382h-183l-77 362h-400l-80 -362h-182l334 1380q-59 47 -59 138z
" />
    <glyph glyph-name="AE" unicode="&#xc6;" 
d="M506 1284l-180 -768h254zM1020 1434v-150h-354l47 -469h297v-149h-281l51 -516h281v-150h-432l-31 362h-309l-86 -362h-172l360 1434h629z" />
    <glyph glyph-name="Ccedilla" unicode="&#xc7;" 
d="M621 -279q68 0 67 64q0 35 -17.5 47t-54.5 12h-100v160q-143 16 -218 103.5t-75 240.5v737q0 174 95.5 261.5t273.5 87.5h291v-156h-312q-76 0 -123 -45t-47 -109v-815q0 -63 47.5 -108t122.5 -45h312v-156h-224v-43q94 0 136.5 -35.5t42.5 -145.5t-52.5 -148t-128.5 -38
h-174v131h138z" />
    <glyph glyph-name="Egrave" unicode="&#xc8;" 
d="M895 1434v-150h-506v-469h455v-149h-455v-516h506v-150h-684v1434h684zM508 1722l213 -235h-170l-270 235h227z" />
    <glyph glyph-name="Eacute" unicode="&#xc9;" 
d="M895 1434v-150h-506v-469h455v-149h-455v-516h506v-150h-684v1434h684zM813 1722l-270 -235h-170l213 235h227z" />
    <glyph glyph-name="Ecircumflex" unicode="&#xca;" 
d="M895 1434v-150h-506v-469h455v-149h-455v-516h506v-150h-684v1434h684zM430 1495h-197l226 236h188l227 -236h-198l-123 131z" />
    <glyph glyph-name="Edieresis" unicode="&#xcb;" 
d="M895 1434v-150h-506v-469h455v-149h-455v-516h506v-150h-684v1434h684zM844 1669v-164h-174v164h174zM434 1669v-164h-174v164h174z" />
    <glyph glyph-name="Igrave" unicode="&#xcc;" 
d="M469 150v1134h-184v150h546v-150h-184v-1134h184v-150h-546v150h184zM506 1722l213 -235h-170l-270 235h227z" />
    <glyph glyph-name="Iacute" unicode="&#xcd;" 
d="M463 150v1134h-184v150h546v-150h-184v-1134h184v-150h-546v150h184zM803 1722l-271 -235h-170l213 235h228z" />
    <glyph glyph-name="Icircumflex" unicode="&#xce;" 
d="M465 150v1134h-184v150h546v-150h-184v-1134h184v-150h-546v150h184zM430 1495h-197l226 236h188l227 -236h-198l-123 131z" />
    <glyph glyph-name="Idieresis" unicode="&#xcf;" 
d="M463 150v1134h-184v150h546v-150h-184v-1134h184v-150h-546v150h184zM846 1669v-164h-174v164h174zM436 1669v-164h-174v164h174z" />
    <glyph glyph-name="Eth" unicode="&#xd0;" 
d="M629 1280h-264v-461h237v-153h-237v-512h262q78 0 114.5 35.5t36.5 113.5v830q0 67 -41 107t-108 40zM608 0h-422v666h-116v153h116v615h398q184 0 278 -75t94 -245v-790q0 -177 -80.5 -250.5t-267.5 -73.5z" />
    <glyph glyph-name="Ntilde" unicode="&#xd1;" 
d="M328 0h-166v1434h291l323 -1282v1282h166v-1434h-293l-321 1282v-1282zM430 1720h31q33 0 118 -41t109 -41h21q20 0 137 74v-147q-109 -68 -139 -68h-31q-10 0 -104 41t-121 41h-21q-18 0 -77.5 -30.5t-80.5 -43.5v148q127 67 158 67z" />
    <glyph glyph-name="Ograve" unicode="&#xd2;" 
d="M614 1278h-122q-76 0 -123 -45t-47 -109v-815q0 -63 47 -108t123 -45h122q76 0 123 45t47 108v815q0 64 -47 109t-123 45zM594 0h-82q-178 0 -273.5 87t-95.5 261v737q0 174 95.5 261.5t273.5 87.5h82q178 0 273.5 -87t95.5 -262v-737q0 -174 -95.5 -261t-273.5 -87z
M506 1722l213 -235h-170l-270 235h227z" />
    <glyph glyph-name="Oacute" unicode="&#xd3;" 
d="M614 1278h-122q-76 0 -123 -45t-47 -109v-815q0 -63 47 -108t123 -45h122q76 0 123 45t47 108v815q0 64 -47 109t-123 45zM594 0h-82q-178 0 -273.5 87t-95.5 261v737q0 174 95.5 261.5t273.5 87.5h82q178 0 273.5 -87t95.5 -262v-737q0 -174 -95.5 -261t-273.5 -87z
M817 1722l-270 -235h-170l213 235h227z" />
    <glyph glyph-name="Ocircumflex" unicode="&#xd4;" 
d="M614 1278h-122q-76 0 -123 -45t-47 -109v-815q0 -63 47 -108t123 -45h122q76 0 123 45t47 108v815q0 64 -47 109t-123 45zM594 0h-82q-178 0 -273.5 87t-95.5 261v737q0 174 95.5 261.5t273.5 87.5h82q178 0 273.5 -87t95.5 -262v-737q0 -174 -95.5 -261t-273.5 -87z
M428 1495h-197l226 236h188l227 -236h-198l-123 131z" />
    <glyph glyph-name="Otilde" unicode="&#xd5;" 
d="M614 1278h-122q-76 0 -123 -45t-47 -109v-815q0 -63 47 -108t123 -45h122q76 0 123 45t47 108v815q0 64 -47 109t-123 45zM594 0h-82q-178 0 -273.5 87t-95.5 261v737q0 174 95.5 261.5t273.5 87.5h82q178 0 273.5 -87t95.5 -262v-737q0 -174 -95.5 -261t-273.5 -87z
M428 1720h31q34 0 118 -41t109 -41h21q20 0 137 74v-147q-109 -68 -139 -68h-31q-10 0 -104 41t-121 41h-21q-18 0 -77.5 -30.5t-80.5 -43.5v148q127 67 158 67z" />
    <glyph glyph-name="Odieresis" unicode="&#xd6;" 
d="M614 1278h-122q-76 0 -123 -45t-47 -109v-815q0 -63 47 -108t123 -45h122q76 0 123 45t47 108v815q0 64 -47 109t-123 45zM594 0h-82q-178 0 -273.5 87t-95.5 261v737q0 174 95.5 261.5t273.5 87.5h82q178 0 273.5 -87t95.5 -262v-737q0 -174 -95.5 -261t-273.5 -87z
M852 1669v-164h-174v164h174zM442 1669v-164h-174v164h174z" />
    <glyph glyph-name="multiply" unicode="&#xd7;" 
d="M199 395l237 240l-237 239l114 115l240 -237l240 237l114 -115l-237 -239l237 -240l-114 -114l-240 237l-240 -237z" />
    <glyph glyph-name="Oslash" unicode="&#xd8;" 
d="M614 156q76 0 123 45t47 108v815q1 41 -22 76l-289 -1044h141zM492 1278q-76 0 -123 -45t-47 -109v-815q0 -40 18 -71l287 1040h-135zM594 0h-82q-55 0 -80 4l-53 -190h-156l66 235q-145 86 -146 299v737q0 174 95.5 261.5t273.5 87.5h82q27 0 76 -4l53 190h156l-66 -236
q150 -82 150 -299v-737q0 -174 -95.5 -261t-273.5 -87z" />
    <glyph glyph-name="Ugrave" unicode="&#xd9;" 
d="M578 0h-52q-178 0 -273 87t-95 261v1086h178v-1125q0 -63 47 -108t123 -45h92q76 0 123 45t47 108v1125h178v-1086q0 -174 -95 -261t-273 -87zM465 1722l213 -235h-170l-270 235h227z" />
    <glyph glyph-name="Uacute" unicode="&#xda;" 
d="M578 0h-52q-178 0 -273 87t-95 261v1086h178v-1125q0 -63 47 -108t123 -45h92q76 0 123 45t47 108v1125h178v-1086q0 -174 -95 -261t-273 -87zM872 1722l-270 -235h-170l213 235h227z" />
    <glyph glyph-name="Ucircumflex" unicode="&#xdb;" 
d="M578 0h-52q-178 0 -273 87t-95 261v1086h178v-1125q0 -63 47 -108t123 -45h92q76 0 123 45t47 108v1125h178v-1086q0 -174 -95 -261t-273 -87zM438 1495h-196l225 236h188l228 -236h-199l-123 131z" />
    <glyph glyph-name="Udieresis" unicode="&#xdc;" 
d="M578 0h-52q-178 0 -273 87t-95 261v1086h178v-1125q0 -63 47 -108t123 -45h92q76 0 123 45t47 108v1125h178v-1086q0 -174 -95 -261t-273 -87zM848 1669v-164h-174v164h174zM438 1669v-164h-174v164h174z" />
    <glyph glyph-name="Yacute" unicode="&#xdd;" 
d="M457 0v666l-367 768h197l270 -596l270 596h187l-373 -768v-666h-184zM821 1722l-270 -235h-170l213 235h227z" />
    <glyph glyph-name="Thorn" unicode="&#xde;" 
d="M604 1014h-233v-570h233q78 0 114 36t36 114v272q0 78 -36 113t-114 35zM932 614q0 -323 -348 -323h-213v-291h-178v1434h178v-267h209q174 0 263 -76.5t89 -242.5v-234z" />
    <glyph glyph-name="germandbls" unicode="&#xdf;" 
d="M780 389q0 92 -99 92t-165.5 67.5t-66.5 180.5v21q0 131 69.5 185t202.5 60v152q0 63 -39 98t-115 35h-110q-68 0 -95.5 -35t-27.5 -78v-1167h-174v1147q0 143 88 215t219 72h80q180 0 264 -77t84 -251v-256h-160q-61 0 -86.5 -22.5t-25.5 -69.5v-31q0 -92 88 -92
q113 0 178 -65.5t65 -180.5v-133q0 -115 -71.5 -185.5t-210.5 -70.5h-230v154h242q96 0 96 92v143z" />
    <glyph glyph-name="agrave" unicode="&#xe0;" 
d="M690 256v225h-256q-53 0 -88 -34.5t-35 -88.5v-102q0 -53 24.5 -77.5t78.5 -24.5h182q61 0 77.5 28.5t16.5 73.5zM854 0q-63 0 -113 61q-47 -61 -125 -61h-182q-156 0 -226.5 62.5t-70.5 213.5v41q0 317 299 318h254v102q0 63 -39 98t-114 35h-318v154h297q178 0 263 -78
t85 -250v-491q0 -62 103 -62v-143h-113zM487 1464l213 -276h-176l-250 276h213z" />
    <glyph glyph-name="aacute" unicode="&#xe1;" 
d="M690 256v225h-256q-53 0 -88 -34.5t-35 -88.5v-102q0 -53 24.5 -77.5t78.5 -24.5h182q61 0 77.5 28.5t16.5 73.5zM854 0q-63 0 -113 61q-47 -61 -125 -61h-182q-156 0 -226.5 62.5t-70.5 213.5v41q0 317 299 318h254v102q0 63 -39 98t-114 35h-318v154h297q178 0 263 -78
t85 -250v-491q0 -62 103 -62v-143h-113zM840 1464l-250 -276h-176l213 276h213z" />
    <glyph glyph-name="acircumflex" unicode="&#xe2;" 
d="M690 256v225h-256q-53 0 -88 -34.5t-35 -88.5v-102q0 -53 24.5 -77.5t78.5 -24.5h182q61 0 77.5 28.5t16.5 73.5zM854 0q-63 0 -113 61q-47 -61 -125 -61h-182q-156 0 -226.5 62.5t-70.5 213.5v41q0 317 299 318h254v102q0 63 -39 98t-114 35h-318v154h297q178 0 263 -78
t85 -250v-491q0 -62 103 -62v-143h-113zM397 1188h-196l229 276h180l232 -276h-199l-123 153z" />
    <glyph glyph-name="atilde" unicode="&#xe3;" 
d="M690 256v225h-256q-53 0 -88 -34.5t-35 -88.5v-102q0 -53 24.5 -77.5t78.5 -24.5h182q61 0 77.5 28.5t16.5 73.5zM854 0q-63 0 -113 61q-47 -61 -125 -61h-182q-156 0 -226.5 62.5t-70.5 213.5v41q0 317 299 318h254v102q0 63 -39 98t-114 35h-318v154h297q178 0 263 -78
t85 -250v-491q0 -62 103 -62v-143h-113zM375 1434h31q26 0 114 -41t113 -41h20q22 0 138 73v-147q-109 -68 -140 -68h-30q-11 0 -105 41t-121 41h-20q-30 0 -158 -73v147q129 68 158 68z" />
    <glyph glyph-name="adieresis" unicode="&#xe4;" 
d="M690 256v225h-256q-53 0 -88 -34.5t-35 -88.5v-102q0 -53 24.5 -77.5t78.5 -24.5h182q61 0 77.5 28.5t16.5 73.5zM854 0q-63 0 -113 61q-47 -61 -125 -61h-182q-156 0 -226.5 62.5t-70.5 213.5v41q0 317 299 318h254v102q0 63 -39 98t-114 35h-318v154h297q178 0 263 -78
t85 -250v-491q0 -62 103 -62v-143h-113zM801 1382v-163h-174v163h174zM391 1382v-163h-174v163h174z" />
    <glyph glyph-name="aring" unicode="&#xe5;" 
d="M690 256v225h-256q-53 0 -88 -34.5t-35 -88.5v-102q0 -53 24.5 -77.5t78.5 -24.5h182q61 0 77.5 28.5t16.5 73.5zM854 0q-63 0 -113 61q-47 -61 -125 -61h-182q-156 0 -226.5 62.5t-70.5 213.5v41q0 317 299 318h254v102q0 63 -39 98t-114 35h-318v154h297q178 0 263 -78
t85 -250v-491q0 -62 103 -62v-143h-113zM440 1294q0 -77 70 -77h12q66 0 66 77v64q0 78 -66 78h-12q-70 0 -70 -78v-64zM522 1122h-12q-80 0 -131 45t-51 129v60q0 86 50 130t132 44h12q82 0 132.5 -44t50.5 -130v-60q0 -84 -51.5 -129t-131.5 -45z" />
    <glyph glyph-name="ae" unicode="&#xe6;" 
d="M221 342v-90q0 -53 24.5 -77.5t78.5 -24.5h53q61 0 79.5 28.5t18.5 73.5v217h-141q-53 0 -83 -36t-30 -91zM891 752q0 55 -27.5 88.5t-79.5 33.5h-16q-72 0 -97.5 -32.5t-25.5 -100.5v-123h246v134zM809 0q-195 0 -250 96q-23 -41 -74 -68.5t-129 -27.5h-28
q-137 0 -207 64.5t-70 211.5v25q0 158 69.5 237.5t219.5 79.5h135v119q0 66 -31.5 99.5t-105.5 33.5h-215v154h194q92 0 145.5 -18.5t100.5 -57.5q43 41 85 58.5t120 17.5h14q143 0 209 -80t66 -237v-238h-412v-199q6 -121 143 -120h203v-150h-182z" />
    <glyph glyph-name="ccedilla" unicode="&#xe7;" 
d="M573 870q-153 0 -153 -133v-450q0 -63 39 -98t114 -35h285v-154h-219v-43q94 0 136 -35.5t42 -145.5t-52 -148t-128 -38h-174v131h137q68 0 68 64q0 35 -17.5 47t-54.5 12h-100v162q-127 18 -188.5 95t-61.5 227v368q0 172 85 250t263 78h264v-154h-285z" />
    <glyph glyph-name="egrave" unicode="&#xe8;" 
d="M741 748q0 53 -34.5 87.5t-88.5 34.5h-118q-74 0 -103.5 -33.5t-29.5 -99.5v-143h374v154zM193 328v368q0 176 75.5 252t251.5 76h96q145 0 220 -81t75 -236v-267h-544v-153q0 -63 38.5 -98t114.5 -35h326v-154h-305q-181 0 -264.5 77t-83.5 251zM535 1464l213 -276h-177
l-249 276h213z" />
    <glyph glyph-name="eacute" unicode="&#xe9;" 
d="M741 748q0 53 -34.5 87.5t-88.5 34.5h-118q-74 0 -103.5 -33.5t-29.5 -99.5v-143h374v154zM193 328v368q0 176 75.5 252t251.5 76h96q145 0 220 -81t75 -236v-267h-544v-153q0 -63 38.5 -98t114.5 -35h326v-154h-305q-181 0 -264.5 77t-83.5 251zM872 1464l-249 -276
h-177l213 276h213z" />
    <glyph glyph-name="ecircumflex" unicode="&#xea;" 
d="M741 748q0 53 -34.5 87.5t-88.5 34.5h-118q-74 0 -103.5 -33.5t-29.5 -99.5v-143h374v154zM193 328v368q0 176 75.5 252t251.5 76h96q145 0 220 -81t75 -236v-267h-544v-153q0 -63 38.5 -98t114.5 -35h326v-154h-305q-181 0 -264.5 77t-83.5 251zM432 1188h-196l229 276
h180l232 -276h-199l-123 153z" />
    <glyph glyph-name="edieresis" unicode="&#xeb;" 
d="M741 748q0 53 -34.5 87.5t-88.5 34.5h-118q-74 0 -103.5 -33.5t-29.5 -99.5v-143h374v154zM193 328v368q0 176 75.5 252t251.5 76h96q145 0 220 -81t75 -236v-267h-544v-153q0 -63 38.5 -98t114.5 -35h326v-154h-305q-181 0 -264.5 77t-83.5 251zM856 1382v-163h-174v163
h174zM446 1382v-163h-174v163h174z" />
    <glyph glyph-name="igrave" unicode="&#xec;" 
d="M164 870v154h475v-870h303v-154h-477v870h-301zM518 1464l213 -276h-176l-250 276h213z" />
    <glyph glyph-name="iacute" unicode="&#xed;" 
d="M164 870v154h475v-870h303v-154h-477v870h-301zM846 1464l-250 -276h-176l213 276h213z" />
    <glyph glyph-name="icircumflex" unicode="&#xee;" 
d="M164 870v154h475v-870h303v-154h-477v870h-301zM436 1188h-196l229 276h180l232 -276h-199l-123 153z" />
    <glyph glyph-name="idieresis" unicode="&#xef;" 
d="M164 870v154h475v-870h303v-154h-477v870h-301zM846 1382v-163h-174v163h174zM436 1382v-163h-174v163h174z" />
    <glyph glyph-name="eth" unicode="&#xf0;" 
d="M367 653v-344q0 -66 43 -110.5t116 -44.5h52q74 0 116.5 45t42.5 110v479h-221q-74 0 -111.5 -35.5t-37.5 -99.5zM301 1282v152h244l61 102h168l-74 -123q211 -66 211 -328v-737q0 -168 -92 -258t-231 -90h-72q-139 0 -231 90t-92 258v266q0 172 83.5 250t260.5 78h200
v182q0 51 -31.5 93.5t-84.5 56.5l-68 -115h-168l72 123h-156z" />
    <glyph glyph-name="ntilde" unicode="&#xf1;" 
d="M342 1024v-49q63 49 164 49h94q166 0 247 -78t81 -250v-696h-174v737q0 61 -36 97t-97 36h-136q-68 0 -100.5 -35.5t-32.5 -76.5v-758h-174v1024h164zM438 1434h31q27 0 115 -41t112 -41h21q27 0 137 73v-147q-109 -68 -139 -68h-31q-10 0 -104 41t-121 41h-21
q-18 0 -77.5 -30.5t-79.5 -42.5v147q122 68 157 68z" />
    <glyph glyph-name="ograve" unicode="&#xf2;" 
d="M489 870q-153 0 -153 -133v-450q0 -63 39 -98t114 -35h109q76 0 115 34.5t39 98.5v450q0 64 -39 98.5t-115 34.5h-109zM578 0h-68q-178 0 -263 78t-85 250v368q0 172 85 250t263 78h68q178 0 263 -78t85 -250v-368q0 -172 -85 -250t-263 -78zM535 1464l213 -276h-177
l-249 276h213z" />
    <glyph glyph-name="oacute" unicode="&#xf3;" 
d="M606 870h-108q-76 0 -115 -34.5t-39 -98.5v-450q0 -63 39 -98t115 -35h108q76 0 115 34.5t39 98.5v450q0 64 -39 98.5t-115 34.5zM586 0h-68q-178 0 -263 78t-85 250v368q0 172 85 250t263 78h68q178 0 263 -78t85 -250v-368q0 -172 -85 -250t-263 -78zM772 1464
l-250 -276h-176l213 276h213z" />
    <glyph glyph-name="ocircumflex" unicode="&#xf4;" 
d="M606 870h-108q-76 0 -115 -34.5t-39 -98.5v-450q0 -63 39 -98t115 -35h108q76 0 115 34.5t39 98.5v450q0 64 -39 98.5t-115 34.5zM586 0h-68q-178 0 -263 78t-85 250v368q0 172 85 250t263 78h68q178 0 263 -78t85 -250v-368q0 -172 -85 -250t-263 -78zM430 1188h-197
l230 276h180l231 -276h-198l-123 153z" />
    <glyph glyph-name="otilde" unicode="&#xf5;" 
d="M606 870h-108q-76 0 -115 -34.5t-39 -98.5v-450q0 -63 39 -98t115 -35h108q76 0 115 34.5t39 98.5v450q0 64 -39 98.5t-115 34.5zM586 0h-68q-178 0 -263 78t-85 250v368q0 172 85 250t263 78h68q178 0 263 -78t85 -250v-368q0 -172 -85 -250t-263 -78zM424 1434h31
q29 0 115 -41q87 -41 112 -41h20q22 0 138 73v-147q-109 -68 -140 -68h-30q-10 0 -104 41t-122 41h-20q-30 0 -158 -73v147q129 68 158 68z" />
    <glyph glyph-name="odieresis" unicode="&#xf6;" 
d="M606 870h-108q-76 0 -115 -34.5t-39 -98.5v-450q0 -63 39 -98t115 -35h108q76 0 115 34.5t39 98.5v450q0 64 -39 98.5t-115 34.5zM586 0h-68q-178 0 -263 78t-85 250v368q0 172 85 250t263 78h68q178 0 263 -78t85 -250v-368q0 -172 -85 -250t-263 -78zM846 1382v-163
h-174v163h174zM436 1382v-163h-174v163h174z" />
    <glyph glyph-name="divide" unicode="&#xf7;" 
d="M655 338v-205h-204v205h204zM942 717v-154h-778v154h778zM655 1147v-205h-204v205h204z" />
    <glyph glyph-name="oslash" unicode="&#xf8;" 
d="M606 154q76 0 115 34.5t39 98.5v450q0 57 -33 90l-205 -673h84zM498 870q-76 0 -115 -34.5t-39 -98.5v-450q0 -57 31 -92l207 675h-84zM934 696v-368q0 -172 -85 -250t-263 -78h-109l-55 -182h-160l64 213q-156 70 -156 297v368q0 172 85 250t263 78h68q29 0 41 -2
l57 184h158l-66 -215q158 -69 158 -295z" />
    <glyph glyph-name="ugrave" unicode="&#xf9;" 
d="M588 0h-70q-166 0 -247 78t-81 250v696h175v-737q0 -61 35.5 -97t97.5 -36h110q66 0 97.5 32.5t35.5 73.5v764h174v-1024h-163v47q-68 -47 -164 -47zM489 1464l213 -276h-176l-250 276h213z" />
    <glyph glyph-name="uacute" unicode="&#xfa;" 
d="M588 0h-70q-166 0 -247 78t-81 250v696h175v-737q0 -61 35.5 -97t97.5 -36h110q66 0 97.5 32.5t35.5 73.5v764h174v-1024h-163v47q-68 -47 -164 -47zM870 1464l-249 -276h-177l213 276h213z" />
    <glyph glyph-name="ucircumflex" unicode="&#xfb;" 
d="M588 0h-70q-166 0 -247 78t-81 250v696h175v-737q0 -61 35.5 -97t97.5 -36h110q66 0 97.5 32.5t35.5 73.5v764h174v-1024h-163v47q-68 -47 -164 -47zM428 1188h-197l230 276h180l231 -276h-198l-123 153z" />
    <glyph glyph-name="udieresis" unicode="&#xfc;" 
d="M588 0h-70q-166 0 -247 78t-81 250v696h175v-737q0 -61 35.5 -97t97.5 -36h110q66 0 97.5 32.5t35.5 73.5v764h174v-1024h-163v47q-68 -47 -164 -47zM840 1382v-163h-174v163h174zM430 1382v-163h-174v163h174z" />
    <glyph glyph-name="yacute" unicode="&#xfd;" 
d="M381 -348h-98v153h86q49 0 73.5 18.5t36.5 63.5l29 113h-41l-338 1024h188l256 -858l224 858h178l-318 -1135q-49 -188 -124.5 -212.5t-151.5 -24.5zM825 1464l-250 -276h-176l213 276h213z" />
    <glyph glyph-name="thorn" unicode="&#xfe;" 
d="M600 870h-94q-68 0 -100.5 -35.5t-32.5 -76.5v-604h227q76 0 115 34.5t39 98.5v450q0 64 -39 98.5t-115 34.5zM928 696v-368q0 -172 -85 -250t-263 -78h-207v-348h-174v1782h174v-451q63 41 153 41h54q180 0 264 -77t84 -251z" />
    <glyph glyph-name="ydieresis" unicode="&#xff;" 
d="M381 -348h-98v153h86q49 0 73.5 18.5t36.5 63.5l29 113h-41l-338 1024h188l256 -858l224 858h178l-318 -1135q-49 -188 -124.5 -212.5t-151.5 -24.5zM844 1382v-163h-174v163h174zM434 1382v-163h-174v163h174z" />
    <glyph glyph-name="dotlessi" unicode="&#x131;" 
d="M164 870v154h475v-870h303v-154h-477v870h-301z" />
    <glyph glyph-name="Lslash" unicode="&#x141;" 
d="M338 1434h178v-482l232 113v-164l-232 -113v-632h457v-156h-635v702l-184 -88v164l184 88v568z" />
    <glyph glyph-name="lslash" unicode="&#x142;" 
d="M444 205v457l-168 -48v160l168 49v457h-301v154h475v-562l213 64v-162l-213 -61v-498q0 -33 16.5 -47t55.5 -14h273v-154h-345q-69 0 -121.5 49t-52.5 156z" />
    <glyph glyph-name="OE" unicode="&#x152;" 
d="M412 1278h-11q-76 0 -123 -45t-47 -109v-815q0 -63 47.5 -108t122.5 -45h11q76 0 123 45t47 108v815q0 64 -47.5 109t-122.5 45zM53 348v737q0 174 95.5 261.5t273.5 87.5h649v-150h-360q49 -92 49 -199v-270h280v-149h-280v-318q0 -111 -49 -198h360v-150h-649
q-178 0 -273.5 87t-95.5 261z" />
    <glyph glyph-name="oe" unicode="&#x153;" 
d="M891 752q0 59 -23.5 90.5t-83.5 31.5h-6q-70 0 -93 -32.5t-23 -100.5v-151h229v162zM381 874h-47q-111 0 -111 -133v-458q0 -66 25.5 -99.5t85.5 -33.5h47q59 0 85 33.5t26 99.5v458q0 133 -111 133zM784 1024h2q139 0 205 -71.5t66 -225.5v-287h-395v-157
q0 -63 36.5 -98t110.5 -35h192v-150h-188q-98 0 -152.5 19.5t-87.5 60.5q-37 -41 -82 -60.5t-131 -19.5h-6q-160 0 -230.5 76t-70.5 241v390q0 172 71 244.5t230 72.5h6q80 0 124 -20.5t85 -59.5q68 80 215 80z" />
    <glyph glyph-name="Scaron" unicode="&#x160;" 
d="M530 0h-290v156h311q76 0 123 45t47 108v213q0 61 -32 99t-95 38h-62q-152 0 -239.5 89.5t-87.5 259.5v77q0 174 95 261.5t273 87.5h293v-156h-313q-76 0 -123 -45t-47 -109v-155q0 -63 41 -105.5t106 -42.5h62q145 0 226 -84t81 -254v-135q0 -174 -95 -261t-274 -87z
M702 1731h197l-229 -236h-181l-231 236h199l123 -138z" />
    <glyph glyph-name="scaron" unicode="&#x161;" 
d="M850 256q0 -256 -307 -256h-305v154h325q113 0 113 92v108q0 92 -88 92h-76q-143 0 -214 62.5t-71 198.5v59q0 137 78 197.5t230 60.5h274v-154h-295q-51 0 -82 -23.5t-31 -68.5v-73q0 -47 28 -70t71 -23h69q137 0 209 -66.5t72 -197.5v-92zM688 1462h197l-230 -276h-180
l-231 276h198l123 -153z" />
    <glyph glyph-name="Ydieresis" unicode="&#x178;" 
d="M457 0v666l-367 768h197l270 -596l270 596h187l-373 -768v-666h-184zM846 1669v-164h-174v164h174zM436 1669v-164h-174v164h174z" />
    <glyph glyph-name="Zcaron" unicode="&#x17d;" 
d="M903 0h-725v180l561 1102h-514v152h699v-181l-559 -1101h538v-152zM709 1731h196l-229 -236h-180l-232 236h199l123 -138z" />
    <glyph glyph-name="zcaron" unicode="&#x17e;" 
d="M993 0h-651v164l479 708h-438v152h631v-182l-475 -690h454v-152zM831 1462h197l-229 -276h-181l-231 276h199l123 -153z" />
    <glyph glyph-name="florin" unicode="&#x192;" 
d="M635 1219v-195h330v-154h-330v-993q0 -104 -59.5 -164.5t-153.5 -60.5h-260v153h227q33 0 52.5 17.5t19.5 44.5v1003h-174v154h174v184q0 104 59.5 165t153.5 61h311v-154h-278q-33 0 -52.5 -17.5t-19.5 -43.5z" />
    <glyph glyph-name="circumflex" unicode="&#x2c6;" 
d="M428 1188h-197l230 276h180l231 -276h-198l-123 153z" />
    <glyph glyph-name="caron" unicode="&#x2c7;" 
d="M676 1462h196l-229 -276h-180l-232 276h199l123 -153z" />
    <glyph glyph-name="uni02C9" unicode="&#x2c9;" 
d="M813 1382v-143h-522v143h522z" />
    <glyph glyph-name="breve" unicode="&#x2d8;" 
d="M676 1464h168q0 -104 -62.5 -185t-208.5 -81h-41q-145 0 -207.5 81t-62.5 185h168q0 -66 20.5 -100.5t81.5 -34.5h41q62 0 82.5 35t20.5 100z" />
    <glyph glyph-name="dotaccent" unicode="&#x2d9;" 
d="M639 1434v-174h-174v174h174z" />
    <glyph glyph-name="ring" unicode="&#x2da;" 
d="M477 1294q0 -77 70 -77h12q66 0 66 77v64q0 78 -66 78h-12q-70 0 -70 -78v-64zM559 1122h-12q-80 0 -131 45t-51 129v60q0 86 50 130t132 44h12q82 0 132 -44t50 -130v-60q0 -84 -51 -129t-131 -45z" />
    <glyph glyph-name="ogonek" unicode="&#x2db;" 
d="M371 -174v297h151v-297q0 -33 15.5 -45t50.5 -12h145v-138h-182q-76 0 -128 38t-52 157z" />
    <glyph glyph-name="tilde" unicode="&#x2dc;" 
d="M424 1434h31q29 0 115 -41q87 -41 112 -41h20q22 0 138 73v-147q-109 -68 -140 -68h-30q-10 0 -104 41t-122 41h-20q-30 0 -158 -73v147q129 68 158 68z" />
    <glyph glyph-name="hungarumlaut" unicode="&#x2dd;" 
d="M717 1526h235l-260 -301h-186zM369 1526h235l-260 -301h-186z" />
    <glyph glyph-name="uni03BC" unicode="&#x3bc;" 
d="M385 1024v-737q0 -61 36 -97t97 -36h70q68 0 100.5 35.5t32.5 76.5v758h174v-1024h-164v47q-68 -47 -164 -47h-28q-92 0 -154 20v-368h-174v1372h174z" />
    <glyph glyph-name="pi" unicode="&#x3c0;" 
d="M98 874v150h910v-150h-185v-659q0 -33 16.5 -47t55.5 -14h31v-154h-103q-70 0 -122 49t-52 156v669h-215v-874h-174v874h-162z" />
    <glyph glyph-name="endash" unicode="&#x2013;" 
d="M942 717v-154h-778v154h778z" />
    <glyph glyph-name="emdash" unicode="&#x2014;" 
d="M1038 717v-154h-972v154h972z" />
    <glyph glyph-name="quoteleft" unicode="&#x2018;" 
d="M618 926h-194v184l113 322h143l-62 -322v-184z" />
    <glyph glyph-name="quoteright" unicode="&#x2019;" 
d="M485 1434h195v-185l-113 -321h-143l61 321v185z" />
    <glyph glyph-name="quotesinglbase" unicode="&#x201a;" 
d="M485 184h195v-184l-113 -322h-143l61 322v184z" />
    <glyph glyph-name="quotedblleft" unicode="&#x201c;" 
d="M778 926h-194v184l112 322h144l-62 -322v-184zM461 926h-195v184l113 322h143l-61 -322v-184z" />
    <glyph glyph-name="quotedblright" unicode="&#x201d;" 
d="M645 1434h195v-185l-113 -321h-143l61 321v185zM328 1434h194v-185l-112 -321h-144l62 321v185z" />
    <glyph glyph-name="quotedblbase" unicode="&#x201e;" 
d="M645 184h195v-184l-113 -322h-143l61 322v184zM328 184h194v-184l-112 -322h-144l62 322v184z" />
    <glyph glyph-name="dagger" unicode="&#x2020;" 
d="M182 870v154h289v410h164v-410h287v-154h-287v-870h-164v870h-289z" />
    <glyph glyph-name="daggerdbl" unicode="&#x2021;" 
d="M182 430v154h289v286h-289v154h289v410h164v-410h287v-154h-287v-286h287v-154h-287v-430h-164v430h-289z" />
    <glyph glyph-name="bullet" unicode="&#x2022;" 
d="M707 799v-318h-308v318h308z" />
    <glyph glyph-name="ellipsis" unicode="&#x2026;" 
d="M1024 205v-205h-205v205h205zM655 205v-205h-204v205h204zM287 205v-205h-205v205h205z" />
    <glyph glyph-name="perthousand" unicode="&#x2030;" 
d="M838 483h-17q-53 0 -79.5 -32.5t-26.5 -83.5v-127q0 -51 26.5 -84t79.5 -33h17q53 0 79.5 32.5t26.5 84.5v127q0 51 -26.5 83.5t-79.5 32.5zM285 483h-17q-53 0 -79.5 -32.5t-26.5 -83.5v-127q0 -51 26.5 -84t79.5 -33h17q53 0 79.5 32.5t26.5 84.5v127q0 51 -26.5 83.5
t-79.5 32.5zM838 0h-17q-119 0 -184.5 66.5t-65.5 195.5v82q0 129 65.5 195.5t184.5 66.5h17q119 0 184 -66.5t65 -195.5v-82q0 -129 -65.5 -195.5t-183.5 -66.5zM285 0h-17q-119 0 -184.5 66.5t-65.5 195.5v82q0 129 66 195.5t184 66.5h17q119 0 184.5 -66.5t65.5 -195.5
v-82q0 -129 -66 -195.5t-184 -66.5zM1083 893v-127l-1054 -150v127zM285 1311h-17q-53 0 -79.5 -33t-26.5 -84v-127q0 -51 26.5 -84t79.5 -33h17q53 0 79.5 33t26.5 84v127q0 51 -26.5 84t-79.5 33zM285 827h-17q-119 0 -184.5 67t-65.5 196v81q0 129 66 196t184 67h17
q119 0 184.5 -67t65.5 -196v-81q0 -129 -66 -196t-184 -67z" />
    <glyph glyph-name="guilsinglleft" unicode="&#x2039;" 
d="M575 1036h136l-129 -424l129 -424h-136l-182 424z" />
    <glyph glyph-name="guilsinglright" unicode="&#x203a;" 
d="M393 1036h135l183 -424l-183 -424h-135l129 424z" />
    <glyph glyph-name="fraction" unicode="&#x2044;" 
d="M739 1659h152l-524 -1884h-152z" />
    <glyph glyph-name="Euro" unicode="&#x20ac;" 
d="M504 635h346v-150h-346v-176q0 -63 47 -108t123 -45h250v-156h-230q-178 0 -273 87t-95 261v137h-144v150h144v199h-144v149h144v102q0 174 95 261.5t273 87.5h230v-156h-250q-76 0 -123 -45t-47 -109v-141h346v-149h-346v-199z" />
    <glyph glyph-name="trademark" unicode="&#x2122;" 
d="M610 397h-133v916h-133v-916h-139v916h-176v121h665l86 -424l82 424h211v-1037h-135v860l-109 -518h-108l-111 518v-860z" />
    <glyph glyph-name="Omega" unicode="&#x2126;" 
d="M772 309v815q0 63 -47 108.5t-123 45.5h-110q-76 0 -123 -45t-47 -109v-815q0 -61 42 -107t103 -46v-156h-375v156h101q-49 88 -50 192v737q0 174 95.5 261.5t273.5 87.5h70q178 0 273 -87t95 -262v-737q0 -109 -47 -192h111v-156h-375v156q55 0 94 46t39 107z" />
    <glyph glyph-name="partialdiff" unicode="&#x2202;" 
d="M371 612v-303q0 -66 43 -110.5t116 -44.5h52q74 0 116.5 45t42.5 110v439h-221q-74 0 -111.5 -36t-37.5 -100zM551 1434q364 0 364 -349v-737q0 -168 -92 -258t-231 -90h-72q-139 0 -231 90t-92 258v225q0 172 84 250t260 78h200v223q0 63 -47 108.5t-123 45.5h-276v156
h256z" />
    <glyph glyph-name="Delta" unicode="&#x2206;" 
d="M782 154l-223 1126l-235 -1126h458zM674 1434l330 -1434h-902l344 1434h228z" />
    <glyph glyph-name="product" unicode="&#x220f;" 
d="M88 1280v154h930v-154h-187v-1065q0 -33 14.5 -47t53.5 -14h31v-154h-103q-70 0 -122 49t-52 156v1075h-225v-1280h-178v1280h-162z" />
    <glyph glyph-name="summation" unicode="&#x2211;" 
d="M184 1434h740v-154h-559l331 -733l-362 -744h612v-151h-788v192l344 703l-318 692v195z" />
    <glyph glyph-name="minus" unicode="&#x2212;" 
d="M942 717v-154h-778v154h778z" />
    <glyph glyph-name="uni2215" unicode="&#x2215;" 
d="M799 1659h164l-656 -1864h-164z" />
    <glyph glyph-name="uni2219" unicode="&#x2219;" 
d="M655 737v-205h-204v205h204z" />
    <glyph glyph-name="radical" unicode="&#x221a;" 
d="M1059 1679v-153h-217l-338 -1526h-256l-203 803h182l148 -637l321 1513h363z" />
    <glyph glyph-name="infinity" unicode="&#x221e;" 
d="M766 829q-120 0 -129 -133v-118q0 -66 31.5 -106t97.5 -40h14q78 0 108 34t30 112v122q-5 70 -34.5 99.5t-103.5 29.5h-14zM469 684q0 145 -129 145h-14q-78 0 -108 -33.5t-30 -111.5v-123q5 -69 34.5 -99t103.5 -30h14q120 0 129 133v119zM336 973q145 0 221 -109
q39 55 87 82t126 27h21q162 0 225 -79t63 -243v-30q0 -164 -64.5 -248t-223.5 -84h-21q-78 0 -128 26.5t-89 81.5q-39 -55 -89 -81.5t-128 -26.5h-21q-162 0 -225 78.5t-63 242.5v41q0 164 63.5 243t224.5 79h21z" />
    <glyph glyph-name="uni2224" unicode="&#x2224;" 
d="M655 737v-205h-204v205h204z" />
    <glyph glyph-name="logicaland" unicode="&#x2227;" 
d="M655 737v-205h-204v205h204z" />
    <glyph glyph-name="integral" unicode="&#x222b;" 
d="M461 -266v1720q0 104 59.5 164.5t153.5 60.5h291v-153h-258q-33 0 -52.5 -17.5t-19.5 -44.5v-1720q0 -104 -59.5 -164.5t-153.5 -60.5h-281v153h248q33 0 52.5 17.5t19.5 44.5z" />
    <glyph glyph-name="approxequal" unicode="&#x2248;" 
d="M403 592h31q27 0 135 -41t133 -41h21q14 0 84 30.5t94 43.5v-164q-23 -12 -90.5 -42t-89.5 -30h-31q-12 0 -126 41t-140 41h-21q-18 0 -95 -30.5t-103 -43.5v164q24 12 99 42t99 30zM723 856q30 0 178 74v-164q-23 -12 -90.5 -42t-89.5 -30h-31q-12 0 -126 41t-140 41
h-21q-18 0 -95 -30.5t-103 -43.5v164q24 13 99 42.5t99 29.5h31q27 0 135 -41t133 -41h21z" />
    <glyph glyph-name="notequal" unicode="&#x2260;" 
d="M942 512v-154h-481l-133 -215h-164l133 215h-133v154h227l160 256h-387v154h481l133 215h164l-133 -215h133v-154h-227l-160 -256h387z" />
    <glyph glyph-name="lessequal" unicode="&#x2264;" 
d="M942 154v-154h-778v154h778zM942 1155v-188l-631 -279l631 -239v-193l-778 317v215z" />
    <glyph glyph-name="greaterequal" unicode="&#x2265;" 
d="M942 154v-154h-778v154h778zM795 688l-631 279v188l778 -367v-215l-778 -317v193z" />
    <glyph glyph-name="dotmath" unicode="&#x22c5;" 
d="M655 737v-205h-204v205h204z" />
    <glyph glyph-name="uni25AF" unicode="&#x25af;" 
d="M326 1286v-1139h454v1139h-454zM934 0h-762v1434h762v-1434z" />
    <glyph glyph-name="lozenge" unicode="&#x25ca;" 
d="M553 143l221 574l-221 573l-221 -573zM154 717l286 717h226l286 -717l-286 -717h-230z" />
    <glyph glyph-name="uni2620" unicode="&#x2620;" 
d="M1073 305q27 0 42 -14.5t15 -38.5t-20 -40.5t-49 -16.5l-29 -50q12 -25 12 -45t-15 -36.5t-43 -16.5q-53 0 -66 131l-142 88l53 86l146 -80q69 33 96 33zM-23 253q0 52 58 52q27 0 96 -33l148 80l53 -86l-144 -88q-13 -131 -69 -131q-25 0 -39 16.5t-14 35.5t10 46
l-27 50q-29 0 -50.5 17t-21.5 41zM555 573q-16 0 -37.5 -29.5t-34.5 -62.5v-59l72 14l70 -14v59q-12 33 -33 62.5t-37 29.5zM623 659.5q0 -34.5 23.5 -59.5t57.5 -25t58 25.5t24 59.5t-24 57.5t-58 23.5t-57.5 -23.5t-23.5 -58zM324 659.5q0 -34.5 23 -59.5t57 -25t57.5 25
t23.5 59.5t-23.5 58t-57.5 23.5t-57 -23.5t-23 -58zM1167 539q0 -47 -62 -47q-30 0 -93 38l-105 -34v104l58 33q22 119 75 119q52 0 52 -55q0 -24 -17 -42l27 -55q29 -4 47 -21.5t18 -39.5zM-61 537q0 25 18 42t49 21l27 55q-17 17 -17 41q-1 56 51 56t74 -119l58 -33v-113
l-105 43q-58 -38 -106.5 -38t-48.5 45zM885 776q0 -102 -58 -194v-107l-53 -37l-88 -153h-264l-88 153l-51 37v107q-59 90 -59 194t42.5 175t118.5 112t169 41t169 -41t119 -113t43 -174z" />
    <glyph glyph-name="smileface" unicode="&#x263a;" 
d="M553 217q-119 0 -199 79t-94 196h90q45 -182 203 -182.5t203 182.5h90q-15 -117 -94.5 -196t-198.5 -79zM811 708q0 -40 -27.5 -68t-70.5 -28t-71 28t-28 68t28 66.5t71 26.5t70.5 -26.5t27.5 -66.5zM483 708q0 -40 -27.5 -68t-70.5 -28t-70.5 28t-27.5 68t27.5 66.5
t70.5 26.5t70.5 -26.5t27.5 -66.5zM121 552q0 -120 57.5 -222.5t155.5 -163t218 -60.5t219 60.5t156.5 163t57.5 222.5t-57.5 222.5t-156.5 162.5t-219 60t-218 -60t-155.5 -162.5t-57.5 -222.5zM1106 552q0 -150 -75 -277.5t-202 -201t-277 -73.5t-277.5 73.5t-201 200.5
t-73.5 278t73.5 277.5t201 200.5t277.5 74t277 -74t202 -201t75 -277z" />
    <glyph glyph-name="invsmileface" unicode="&#x263b;" 
d="M553 299q-84 0 -138.5 49t-74.5 133h-88q14 -115 98 -193.5t203 -78.5t203 79t98 193h-88q-21 -84 -75 -133t-138 -49zM625 718q0 -40 27.5 -67.5t70.5 -27.5t70.5 27.5t27.5 67.5t-27.5 66.5t-70.5 26.5t-70.5 -26.5t-27.5 -66.5zM276 718q0 -40 28 -67.5t71 -27.5
t70.5 27.5t27.5 67.5t-27.5 66.5t-70.5 26.5t-71 -26.5t-28 -66.5zM1106 552q0 -150 -75 -277.5t-202 -201t-277 -73.5t-277.5 73.5t-201 200.5t-73.5 278t73.5 277.5t201 200.5t277.5 74t277 -74t202 -201t75 -277z" />
    <glyph glyph-name="sun" unicode="&#x263c;" 
d="M330 540.5q0 -98.5 62.5 -163t160.5 -64.5t161.5 64.5t63.5 163t-63.5 164t-161.5 65.5t-160.5 -65.5t-62.5 -164zM1106 588v-96h-227q-12 -82 -60 -142l162 -160l-74 -73l-162 164q-66 -43 -143 -56v-225h-98v225q-82 12 -144 56l-161 -164l-74 73l162 160
q-49 70 -60 142h-227v96h227q12 82 62 147l-164 164l74 74l163 -168q68 47 142 55v219h98v-219q73 -8 139 -55l166 168l74 -74l-166 -164q51 -63 64 -147h227z" />
    <glyph glyph-name="female" unicode="&#x2640;" 
d="M328 780.5q0 -98.5 62.5 -163t160.5 -64.5t161.5 64.5t63.5 163t-63.5 164t-161.5 65.5t-160.5 -65.5t-62.5 -164zM881 764q0 -106 -79 -193.5t-200 -103.5v-170h197v-82h-197v-215h-98v215h-197v82h197v168q-121 16 -201 104.5t-80 194.5t44 180t119 117t165 43t166 -43
t120 -117t44 -180z" />
    <glyph glyph-name="male" unicode="&#x2642;" 
d="M166 317.5q0 -98.5 62.5 -163t160.5 -64.5t161.5 64.5t63.5 163t-63.5 164t-161.5 65.5t-160.5 -65.5t-62.5 -164zM719 330q0 -104 -44 -176t-120 -113t-166 -41t-164.5 41t-119 113.5t-44.5 163t44.5 164t119 116.5t165.5 43t177 -51l312 309l-2 4l-48 -2l-254 10l9 86
l438 -22l22 -438l-90 -5l-10 203q-2 49 6 99l-4 2l-303 -310q76 -92 76 -196z" />
    <glyph glyph-name="spade" unicode="&#x2660;" 
d="M283 274q-92 0 -146.5 58.5t-54.5 151.5t54 181.5t142.5 177.5t274.5 261q186 -172 328.5 -316t142.5 -299q0 -98 -54.5 -156.5t-139.5 -58.5t-141 33t-99 103l33 -277h319l82 -133h-942l82 133h319l33 277q-84 -136 -233 -136z" />
    <glyph glyph-name="club" unicode="&#x2663;" 
d="M295 274q-92 0 -152.5 61t-60.5 165t51 166.5t148 62.5q45 0 70.5 -5t66.5 -24q-53 43 -82 89.5t-29 130.5t65.5 134t180.5 50t180.5 -49t65.5 -135t-29 -131.5t-82 -88.5q66 29 150 29q83 0 134.5 -62.5t51.5 -166.5t-60.5 -165t-143.5 -61t-136 33t-94 103l33 -277h319
l82 -133h-942l82 133h319l33 277q-84 -136 -221 -136z" />
    <glyph glyph-name="heart" unicode="&#x2665;" 
d="M1065 846q0 -110 -64.5 -238.5t-165 -260.5t-282.5 -347q-182 217 -347 432t-165 418q0 106 64.5 180t168.5 74t167 -51.5t112 -157.5q49 106 112 157.5t167 51.5t168.5 -74t64.5 -184z" />
    <glyph glyph-name="diamond" unicode="&#x2666;" 
d="M553 -25l-401 570l401 559l401 -559z" />
    <glyph glyph-name="musicalnote" unicode="&#x266a;" 
d="M918 763q0 -81 -37 -159l-60 25q0 121 -24.5 179t-94.5 103l-47 31v-782q0 -41 -32.5 -84t-91 -72t-144.5 -29t-143.5 37t-57.5 111t75 127t161 53t135 -27v803h98l97 -63q92 -62 129 -117t37 -136z" />
    <glyph glyph-name="musicalnotedbl" unicode="&#x266b;" 
d="M809 78q-86 0 -143.5 37t-57.5 111t75 127t161 53t135 -27v637l-481 -121v-735q0 -41 -33 -84t-91 -72t-144 -29t-143.5 37t-57.5 111t74.5 127t160.5 53t135 -27v730l678 176v-920q0 -41 -32.5 -84t-91 -71.5t-144.5 -28.5z" />
  </font>
</defs>
</svg>
