<?xml version="1.0" standalone="no"?>
<!DOCTYPE svg PUBLIC "-//W3C//DTD SVG 1.1//EN" "http://www.w3.org/Graphics/SVG/1.1/DTD/svg11.dtd" >
<svg xmlns="http://www.w3.org/2000/svg">
<metadata>
Created by FontPrep 20130207 at Thu Dec 31 20:24:38 2015
 By James Campbell
Copyright 2010, 2012 Adobe Systems Incorporated. All Rights Reserved.
</metadata>
<defs>
<font id="60c2bdc080090f10b5e6c9a2c269df3e" horiz-adv-x='1024' >
  <font-face 
    font-family="SourceCodePro-Light"
    font-weight="300"
    font-stretch="normal"
    units-per-em="2048"
    panose-1="2 11 4 9 3 4 3 2 2 4"
    ascent="1536"
    descent="-512"
    x-height="983"
    cap-height="1350"
    bbox="-47 -819 1446 2048"
    underline-thickness="102"
    underline-position="-102"
    unicode-range="U+000D-FB02"
  />
<missing-glyph 
d="M618 762l109 188l176 318h-581l178 -318l110 -188h8zM930 80l-312 551h-8l-319 -551h639zM973 172v1057l-297 -533zM553 696l-301 533v-1057zM160 1352h909v-1352h-909v1352z" />
    <glyph glyph-name=".notdef" 
d="M618 762l109 188l176 318h-581l178 -318l110 -188h8zM930 80l-312 551h-8l-319 -551h639zM973 172v1057l-297 -533zM553 696l-301 533v-1057zM160 1352h909v-1352h-909v1352z" />
    <glyph glyph-name=".null" horiz-adv-x="0" 
 />
    <glyph glyph-name="nonmarkingreturn" horiz-adv-x="681" 
 />
    <glyph glyph-name="NULL" horiz-adv-x="0" 
 />
    <glyph glyph-name="NULL" horiz-adv-x="0" 
 />
    <glyph glyph-name="CR" unicode="&#xd;" 
 />
    <glyph glyph-name="space" unicode=" " 
 />
    <glyph glyph-name="exclam" unicode="!" 
d="M496 105q0 62 35.5 95t83 33t83 -32.5t35.5 -94.5t-35.5 -96.5t-83 -34.5t-83 34t-35.5 96zM571 1372h86v-145l-10 -778h-65l-11 778v145z" />
    <glyph glyph-name="quotedbl" unicode="&#x22;" 
d="M326 1409h155v-182l-41 -447h-73l-41 447v182zM750 1409h155v-182l-41 -447h-73l-41 447v182z" />
    <glyph glyph-name="numbersign" unicode="#" 
d="M756 512l43 348h-307l-43 -348h307zM197 438v74h180l43 348h-182v74h188l53 397h70l-51 -397h307l51 397h72l-51 -397h165v-74h-172l-43 -348h174v-74h-184l-53 -438h-72l53 438h-307l-51 -438h-72l52 438h-170z" />
    <glyph glyph-name="dollar" unicode="$" 
d="M637 150q147 0 225 63t78 151t-50 137.5t-126 86.5t-164 68.5t-164 72.5t-126 98t-50 131q0 138 90.5 215t239.5 91v270h80v-268q115 -8 188.5 -49t132.5 -99l-53 -57q-84 70 -146 97.5t-176 27.5t-189 -57.5t-75 -155.5q0 -68 50.5 -112t126 -78.5t164.5 -65.5t165 -74
t126 -104.5t50 -142.5q0 -146 -103.5 -231t-260.5 -93v-297h-80v297q-123 8 -224.5 55t-166.5 102l49 66q181 -145 389 -145z" />
    <glyph glyph-name="percent" unicode="%" 
d="M332 733q84 0 139 71t55 203q0 133 -55 197t-139 64t-139 -65t-55 -197t54 -202q56 -71 140 -71zM332 668q-123 0 -199 88t-76 249t76 245t199 83q122 0 198 -84q76 -85 76 -245t-76 -248t-198 -88zM1157 1221l-371 -404l-45 41l351 420zM72 129l370 403l45 -40
l-350 -420zM899 41q84 0 139 71q56 70 56 202t-56 197t-139 65q-84 0 -139 -66q-55 -64 -55 -196t55 -202t139 -71zM899 -25q-123 0 -199 88t-76 249t76 245t199 84t199 -84t76 -245t-76 -249t-199 -88z" />
    <glyph glyph-name="ampersand" unicode="&#x26;" 
d="M496 -25q-166 0 -276.5 102t-110.5 269q0 166 109.5 259t162.5 134q-92 184 -92 324t76 225.5t192 85.5q117 0 175.5 -70t58.5 -156t-27 -141t-83 -116t-200 -168q146 -262 371 -461q135 173 209 445h88q-88 -299 -236 -496q128 -104 256 -156l-30 -80q-136 50 -281 170
q-166 -170 -362 -170zM707 1114q0 186 -154 186q-82 0 -131 -65.5t-49 -145.5q0 -136 76 -301q121 88 189.5 166t68.5 160zM201 364q0 -147 88.5 -229t214.5 -82q156 0 293 146q-239 215 -381 473q-88 -70 -151.5 -147t-63.5 -161z" />
    <glyph glyph-name="quotesingle" unicode="'" 
d="M537 1409h155v-182l-41 -447h-73l-41 447v182z" />
    <glyph glyph-name="parenleft" unicode="(" 
d="M459 569q0 303 126 534.5t349 391.5l51 -57q-223 -172 -328.5 -386t-105.5 -482.5t105.5 -482.5t328.5 -386l-51 -57q-223 160 -349 391t-126 534z" />
    <glyph glyph-name="parenright" unicode=")" 
d="M678 569.5q0 268.5 -105.5 482.5t-328.5 386l51 57q223 -160 349 -391.5t126 -534.5t-126 -534.5t-349 -390.5l-51 57q223 172 328.5 386t105.5 482.5z" />
    <glyph glyph-name="asterisk" unicode="*" 
d="M303 295l238 350l-344 146l22 61l350 -125l13 399h65l12 -399l351 125l22 -61l-344 -146l238 -350l-60 -43l-252 346l-252 -346z" />
    <glyph glyph-name="plus" unicode="+" 
d="M571 637h-376v78h376v411h86v-411h377v-78h-377v-412h-86v412z" />
    <glyph glyph-name="comma" unicode="," 
d="M612 0q-38 0 -73 30t-35 92t38 92t98 30t95 -56.5t35 -152.5q0 -172 -87 -289t-230 -178l-33 67q123 59 186.5 147.5t67.5 223.5q-24 -6 -62 -6z" />
    <glyph glyph-name="hyphen" unicode="-" 
d="M195 715h839v-78h-839v78z" />
    <glyph glyph-name="period" unicode="." 
d="M492 110q0 64 37.5 98t85 34t85 -34t37.5 -98t-37.5 -99.5t-85 -35.5t-85 35.5t-37.5 99.5z" />
    <glyph glyph-name="slash" unicode="/" 
d="M326 -328h-93l670 1782h92z" />
    <glyph glyph-name="zero" unicode="0" 
d="M614 555q-43 0 -77.5 31.5t-34.5 91t34.5 91.5t77.5 32t78 -32t35 -91.5t-35 -91t-78 -31.5zM614.5 1255q-159.5 0 -259 -148.5t-99.5 -447.5t99.5 -452.5t259 -153.5t259 153.5t99.5 452.5t-99.5 447.5t-259 148.5zM614 -25q-215 0 -331.5 179.5t-116.5 505.5
t116.5 499.5t331.5 173.5t332 -173t117 -500t-117 -506t-332 -179z" />
    <glyph glyph-name="one" unicode="1" 
d="M702 1309v-1229h367v-80h-848v80h391v1085h-284v62q192 27 307 82h67z" />
    <glyph glyph-name="two" unicode="2" 
d="M551 82h502v-82h-885v57q180 164 316.5 293t270.5 291t134 324q0 202 -120 246t-204 44q-186 0 -344 -172l-59 58q82 82 180 137t231 55q193 0 299.5 -100t106.5 -271t-157.5 -365.5t-516.5 -524.5q152 10 246 10z" />
    <glyph glyph-name="three" unicode="3" 
d="M598 55q154 0 254 80.5t100 212.5q0 131 -125 215t-397 84v80q239 0 356 77.5t117 197.5q0 121 -86.5 187t-206.5 66q-217 0 -364 -143l-56 62q178 159 404 159q172 0 287.5 -84.5t115.5 -230.5q0 -236 -297 -324v-8q144 -25 245.5 -118t101.5 -222q0 -167 -128.5 -269
t-320.5 -102q-276 0 -461 185l51 63q168 -168 410 -168z" />
    <glyph glyph-name="four" unicode="4" 
d="M1102 391h-228v-391h-88v391h-700v55l717 865h71v-840h228v-80zM786 471v514l11 199h-13q-31 -43 -62.5 -87t-64.5 -87l-448 -539h577z" />
    <glyph glyph-name="five" unicode="5" 
d="M583 825q224 0 349 -103.5t125 -305.5t-139.5 -321.5t-348.5 -119.5t-307 73t-135 104l51 63q77 -72 172.5 -116t244.5 -44q150 0 259 99.5t109 256.5t-98.5 245.5t-272.5 88.5q-90 0 -155.5 -24.5t-137.5 -63.5l-63 39l49 613h704v-80h-622l-43 -473q140 69 259 69z" />
    <glyph glyph-name="six" unicode="6" 
d="M656 791q202 0 312.5 -103.5t110.5 -291.5t-124 -304.5t-293 -116.5q-226 0 -356 164t-130 455q0 381 152.5 560t388.5 179q194 0 334 -127l-56 -61q-112 108 -278 108q-308 0 -377.5 -233.5t-71.5 -413.5q186 185 388 185zM654 53q150 0 241.5 97t91.5 244t-82 233
t-248 86q-84 0 -186 -45t-201 -154q26 -333 164 -397t220 -64z" />
    <glyph glyph-name="seven" unicode="7" 
d="M152 1229v80h929v-54q-262 -303 -364.5 -582t-114.5 -673h-100q16 398 118 664t345 565h-813z" />
    <glyph glyph-name="eight" unicode="8" 
d="M235.5 557q88.5 90 215.5 145v9q-82 47 -143.5 122t-61.5 163q0 158 106.5 247.5t281.5 89.5t280.5 -94.5t105.5 -247.5q0 -94 -60.5 -180t-148.5 -147v-9q55 -29 104.5 -57.5t85 -67t56 -90t20.5 -123t-30.5 -134t-89 -108.5t-142.5 -73t-192.5 -27t-196.5 28
t-183.5 102.5t-95.5 217.5q0 144 88.5 234zM932 989q0 116 -81.5 192t-218.5 76q-138 0 -218 -68.5t-80 -174.5q0 -177 157.5 -240t239.5 -88q201 135 201 303zM238 308q0 -93 105.5 -175t281.5 -82q258 0 309 106.5t51 174.5t-37 122t-101.5 92t-149.5 65.5t-179 58.5
q-133 -66 -185 -119t-73.5 -101.5t-21.5 -141.5z" />
    <glyph glyph-name="nine" unicode="9" 
d="M263.5 623.5q-109.5 103.5 -109.5 291.5t124 303t291 115q225 0 355.5 -162t130.5 -454q0 -386 -153.5 -564t-385.5 -178q-189 0 -336 127l56 62q115 -109 280 -109q307 0 377 232.5t72 414.5q-186 -182 -389 -182t-312.5 103.5zM573 596q88 0 189.5 46t200.5 155
q-25 331 -163 394.5t-220 63.5q-151 0 -243.5 -94.5t-92.5 -242.5t81.5 -235t247.5 -87z" />
    <glyph glyph-name="colon" unicode=":" 
d="M492 884q0 64 38 98t84 34q47 0 85 -34t38 -98t-38 -100t-85 -34q-47 0 -85 34q-37 36 -37 100zM492 110q0 64 38 98t84 34q47 0 85 -34t38 -98t-38 -100t-85 -35q-47 0 -85 35q-37 36 -37 100z" />
    <glyph glyph-name="semicolon" unicode=";" 
d="M492 884q0 64 38 98t84 34q47 0 85 -34t38 -98t-38 -100t-85 -34q-47 0 -85 34q-37 36 -37 100zM612 0q-38 0 -73 30t-35 92t38 92t98 30t94 -56q36 -56 36 -153q0 -172 -87 -289t-230 -178l-33 67q123 59 186 147t68 224q-24 -6 -62 -6z" />
    <glyph glyph-name="less" unicode="&#x3c;" 
d="M252 721l747 520v-98l-659 -459v-8l659 -459v-98l-747 520v82z" />
    <glyph glyph-name="equal" unicode="=" 
d="M195 924h839v-78h-839v78zM195 508h839v-78h-839v78z" />
    <glyph glyph-name="greater" unicode="&#x3e;" 
d="M977 639l-748 -520v98l660 459v8l-660 459v98l748 -520v-82z" />
    <glyph glyph-name="question" unicode="?" 
d="M467 105q0 62 36 95t83 33t83 -32.5t36 -94.5t-36 -96.5t-83 -34.5t-83 34t-36 96zM602 1397q164 0 260 -88t96 -212t-71.5 -202t-119.5 -123t-112 -124t-47 -199h-82q-24 129 39.5 210.5t111.5 125.5t90 89.5t70.5 93.5t28.5 103q0 109 -68.5 177.5t-201.5 68.5
q-176 0 -299 -131l-59 55q156 156 364 156z" />
    <glyph glyph-name="at" unicode="@" 
d="M561 450q0 -100 53.5 -148t129.5 -48q150 0 288 164v301q-252 -35 -361.5 -102t-109.5 -167zM700 -293q-246 0 -411.5 213.5t-165.5 582.5t164 578t428 209q195 0 296 -134t101 -345v-606h-65l-11 127h-8q-85 -98 -166.5 -125t-127.5 -27q-106 0 -181.5 69t-75.5 189
q0 150 139.5 233t419.5 115v29q0 280 -119.5 342t-215.5 62t-188.5 -48.5t-200 -191.5t-107.5 -474t137.5 -527.5t357.5 -196.5q176 0 299 98l41 -57q-153 -115 -340 -115z" />
    <glyph glyph-name="A" unicode="A" 
d="M881 463h-535l-160 -463h-94l475 1350h95l475 -1350h-101zM854 543l-86 252q-111 327 -150 467h-8q-48 -171 -149 -467l-86 -252h479z" />
    <glyph glyph-name="B" unicode="B" 
d="M575 78q433 0 433 315q0 145 -113 216t-320 71h-245v-602h245zM537 756q207 0 297 67.5t90 199.5t-95.5 190.5t-281.5 58.5h-217v-516h207zM236 1350h337q205 0 325 -79t120 -249q0 -106 -59.5 -185t-180.5 -110v-8q150 -23 237 -103.5t87 -222.5q0 -192 -134 -293
q-134 -100 -368 -100h-364v1350z" />
    <glyph glyph-name="C" unicode="C" 
d="M1114 168q-167 -193 -396 -193q-255 0 -413 191.5t-158 510t158 508t422 189.5q117 0 206 -49t144 -113l-57 -61q-119 137 -293 137q-221 0 -351 -164.5t-130 -446t129.5 -449t345.5 -167.5q104 0 184 41t154 125z" />
    <glyph glyph-name="D" unicode="D" 
d="M498 80q261 0 391 163q129 163 129 437q0 421 -287 547q-98 43 -233 43h-207v-1190h207zM197 1350h309q303 0 457 -179q153 -179 153 -491q0 -490 -340 -632q-114 -48 -268 -48h-311v1350z" />
    <glyph glyph-name="E" unicode="E" 
d="M260 1350h799v-82h-705v-510h594v-82h-594v-594h725v-82h-819v1350z" />
    <glyph glyph-name="F" unicode="F" 
d="M307 1350h789v-82h-697v-537h586v-82h-586v-649h-92v1350z" />
    <glyph glyph-name="G" unicode="G" 
d="M349.5 1123q-130.5 -165 -130.5 -448t128 -448.5t343 -165.5q90 0 168 27t125 76v420h-311v80h403v-535q-61 -68 -160.5 -111t-228.5 -43q-256 0 -410.5 191.5t-154.5 510.5t159 508t422 189q176 0 298 -104q34 -28 61 -58l-55 -61q-123 137 -304 137q-222 0 -352.5 -165
z" />
    <glyph glyph-name="H" unicode="H" 
d="M182 1350h94v-592h676v592h95v-1350h-95v676h-676v-676h-94v1350z" />
    <glyph glyph-name="I" unicode="I" 
d="M219 82h348v1186h-348v82h791v-82h-348v-1186h348v-82h-791v82z" />
    <glyph glyph-name="J" unicode="J" 
d="M889 426v846h-588v80h682v-934q0 -312 -219 -408q-80 -35 -196 -35t-217 55.5t-161 170.5l76 53q115 -195 293 -195t254 90.5t76 276.5z" />
    <glyph glyph-name="K" unicode="K" 
d="M236 1350h96v-750h4l665 750h111l-436 -500l493 -850h-108l-451 778l-278 -313v-465h-96v1350z" />
    <glyph glyph-name="L" unicode="L" 
d="M307 1350h90v-1268h707v-82h-797v1350z" />
    <glyph glyph-name="M" unicode="M" 
d="M272 944v-944h-86v1350h121l225 -629l80 -240h9l77 240l224 629h120v-1350h-88v944q0 113 11 303h-7l-77 -241l-234 -637h-65l-236 637l-82 241h-4q12 -210 12 -303z" />
    <glyph glyph-name="N" unicode="N" 
d="M279 836v-836h-91v1350h99l671 -1221h5q-13 318 -13 391v830h90v-1350h-98l-672 1221h-4q13 -319 13 -385z" />
    <glyph glyph-name="O" unicode="O" 
d="M1020 678.5q0 278.5 -112 444t-293.5 165.5t-293.5 -165.5t-112 -444t112.5 -448t293 -169.5t293 169.5t112.5 448zM614.5 -25q-110.5 0 -203 50.5t-160 142.5t-104 222t-36.5 290t36.5 288t104 219t160 139t203 48t202.5 -48t159.5 -139t104.5 -219t37 -288t-37 -290
t-104.5 -222t-159.5 -142.5t-202.5 -50.5z" />
    <glyph glyph-name="P" unicode="P" 
d="M586 659q209 0 308 74t99 240q0 241 -228 283q-77 14 -179 14h-250v-611h250zM242 1350h368q357 0 449 -201q33 -72 33 -176q0 -199 -127 -296t-355 -97h-274v-580h-94v1350z" />
    <glyph glyph-name="Q" unicode="Q" 
d="M561 -23q-201 24 -322.5 214.5t-121.5 499.5t136.5 497t359.5 188t360 -188.5t137 -498t-120 -498t-324 -214.5q72 -202 321 -202q57 0 96 16l19 -86q-59 -18 -135 -18q-149 0 -252 78t-154 212zM213 680q0 -139 27.5 -254t80 -197t127 -127t167 -45t166 45t125.5 127
t81 197t29 254t-29 253t-81 193.5t-125.5 123.5t-166 44t-167 -44t-127 -123.5t-80 -193.5t-27.5 -253z" />
    <glyph glyph-name="R" unicode="R" 
d="M625 1350q444 0 444 -357q0 -162 -93 -253t-253 -113l373 -627h-111l-364 621h-287v-621h-94v1350h385zM600 698q373 0 373 295q0 152 -96.5 214.5t-276.5 62.5h-266v-572h266z" />
    <glyph glyph-name="S" unicode="S" 
d="M989 332q0 156 -163 236q-48 24 -101 46l-205 93q-124 47 -179.5 99t-84.5 106q-29 56 -29 130q0 146 116.5 239t295.5 93q129 0 230.5 -48t166.5 -114l-55 -63q-139 139 -342 139q-143 0 -230 -65.5t-87 -175.5q0 -141 168 -223q44 -22 85 -38l203 -90
q145 -59 200.5 -113.5t80 -110.5t24.5 -134q0 -160 -125.5 -261.5t-303 -101.5t-296 56.5t-202.5 146.5l61 66q170 -183 416 -183q166 0 261 75t95 196z" />
    <glyph glyph-name="T" unicode="T" 
d="M567 1268h-469v82h1032v-82h-468v-1268h-95v1268z" />
    <glyph glyph-name="U" unicode="U" 
d="M182 1350h94v-834q0 -241 94 -348t244 -107q242 0 316 237q28 87 28 218v834h89v-844q1 -286 -131 -419q-111 -112 -302 -112q-300 1 -396 275q-36 102 -36 256v844z" />
    <glyph glyph-name="V" unicode="V" 
d="M121 1350h100l250 -789q18 -61 35.5 -116.5t43.5 -140.5t62 -195h9q41 123 72.5 226t70.5 226l250 789h94l-440 -1350h-103z" />
    <glyph glyph-name="W" unicode="W" 
d="M29 1352h88l145 -924q10 -82 21.5 -162t21.5 -164h4q25 84 49.5 164t47.5 162l167 571h86l172 -571q23 -82 46.5 -163t46.5 -163h8q10 82 21.5 163t21.5 163l139 924h86l-217 -1352h-115l-192 647q-16 59 -28.5 117.5t-29.5 118.5h-6q-16 -59 -30.5 -117.5t-30.5 -118.5
l-186 -647h-113z" />
    <glyph glyph-name="X" unicode="X" 
d="M561 698l-379 652h103l223 -398q29 -47 52.5 -88t57.5 -96h9q64 121 100 184l223 398h97l-379 -656l407 -694h-102l-238 414q-67 117 -125 215h-8q-33 -61 -59.5 -112.5t-55.5 -102.5l-237 -414h-96z" />
    <glyph glyph-name="Y" unicode="Y" 
d="M662 0h-95v496l-463 854h97l239 -447q47 -78 87 -156.5t87 -160.5h9q47 82 90 161.5t86 157.5l233 445h92l-462 -854v-496z" />
    <glyph glyph-name="Z" unicode="Z" 
d="M213 1272v80h868v-58l-825 -1212h840v-82h-953v57l826 1215h-756z" />
    <glyph glyph-name="bracketleft" unicode="[" 
d="M492 1450h542v-61h-463v-1639h463v-61h-542v1761z" />
    <glyph glyph-name="backslash" unicode="\" 
d="M233 1454h93l669 -1782h-92z" />
    <glyph glyph-name="bracketright" unicode="]" 
d="M657 -250v1639h-462v61h542v-1761h-542v61h462z" />
    <glyph glyph-name="asciicircum" unicode="^" 
d="M567 1372h95l309 -778h-88l-265 688h-8l-264 -688h-88z" />
    <glyph glyph-name="underscore" unicode="_" 
d="M1106 -162v-94h-983v94h983z" />
    <glyph glyph-name="grave" unicode="`" 
d="M432 1454h109l188 -283h-78z" />
    <glyph glyph-name="a" unicode="a" 
d="M281 253q0 -102 78.5 -151t187.5 -49q182 0 395 178v316q-526 -45 -628 -191q-32 -47 -33 -103zM236 862q212 146 440 146q82 0 152 -30q204 -86 204 -349v-629h-76l-10 147h-4q-218 -172 -412 -172q-143 0 -242.5 70t-99.5 201q0 163 173.5 248.5t580.5 121.5
q0 218 -152 286q-56 26 -141 26q-167 0 -373 -133z" />
    <glyph glyph-name="b" unicode="b" 
d="M659 928q-172 0 -352 -180v-547q86 -78 174 -112t159 -34q72 0 138 33q66 32 114 92q103 128 103 326q-1 300 -181 390q-64 32 -155 32zM215 1473h92v-426l-6 -211q80 78 178.5 125t194.5 47q209 0 313.5 -136.5t104.5 -370.5t-133 -380t-324 -146q-76 0 -166 37t-164 99
h-4l-10 -111h-76v1473z" />
    <glyph glyph-name="c" unicode="c" 
d="M1094 133q-167 -158 -392 -158t-374 137q-150 137 -150 379t156 379q156 138 369 138q214 0 366 -150l-53 -61q-140 131 -299 131q-197 0 -320 -122t-123 -316t122 -314q122 -121 311 -121t340 142z" />
    <glyph glyph-name="d" unicode="d" 
d="M233 489q-1 -303 203 -402q66 -32 148 -32q165 0 338 181v546q-157 146 -313.5 146t-266 -126t-109.5 -313zM274 864.5q137 143.5 326 143.5q96 0 173 -37t155 -103l-6 199v406h92v-1473h-78l-10 145h-4q-66 -68 -156 -119t-190.5 -51t-180.5 34q-80 33 -137 99
q-121 139 -121 376t137 380.5z" />
    <glyph glyph-name="e" unicode="e" 
d="M1001 553q0 186 -95 281.5t-255 95.5q-235 0 -352 -220q-37 -70 -47 -157h749zM687.5 -25q-117.5 0 -212 35t-165 101.5t-111.5 162.5t-41 216q0 232 147.5 375t346 143t318.5 -122t120 -333v-37q0 -18 -5 -37h-833q4 -190 123.5 -308t298.5 -118t338 107l37 -70
q-68 -43 -156 -79t-205.5 -36z" />
    <glyph glyph-name="f" unicode="f" 
d="M901 1419q-144 0 -213.5 -81.5t-69.5 -227.5v-127h457v-78h-457v-905h-86v905h-296v70l296 8v119q0 186 90.5 290.5t258 104.5t295.5 -59l-29 -70q-70 31 -121 41t-125 10z" />
    <glyph glyph-name="g" unicode="g" 
d="M799 461q80 76 80 196t-80.5 198.5t-196.5 78.5t-194 -79.5t-78 -198t78 -195t194.5 -76.5t196.5 76zM322 221q0 -137 227 -137h244q188 0 273 -51t85 -170q0 -63 -37 -124q-36 -61 -104 -108q-149 -104 -379.5 -104t-344.5 78t-114 207q0 59 43 120.5t123 110.5v8
q-37 18 -69.5 57t-32.5 101q0 104 118 186v8q-116 96 -116 251.5t108 254.5t258 99q76 0 135 -25h410v-76h-299q117 -112 117 -255.5t-106.5 -241t-256.5 -97.5q-94 0 -186 45q-96 -60 -96 -137zM258 -190q0 -90 90 -149.5t278.5 -59.5t309.5 76t121 168t-63.5 122.5
t-192.5 30.5h-234q-86 0 -149 18q-160 -84 -160 -206z" />
    <glyph glyph-name="h" unicode="h" 
d="M215 1473h92v-426l-6 -259q92 96 185.5 158t211.5 62q354 0 355 -396v-612h-92v600q0 166 -65 246t-209 80q-145 0 -281 -124q-46 -42 -99 -97v-705h-92v1473z" />
    <glyph glyph-name="i" unicode="i" 
d="M715 1221q-41 0 -69 26.5t-28 71.5t28 71.5t69 26.5t68.5 -26.5t27.5 -71.5t-27.5 -71.5t-68.5 -26.5zM199 983h583v-983h-90v905h-493v78z" />
    <glyph glyph-name="j" unicode="j" 
d="M715 1221q-41 0 -69 26.5t-28 71.5t28 71.5t69 26.5t68.5 -26.5t27.5 -71.5t-27.5 -71.5t-68.5 -26.5zM385 -391q182 0 244.5 77.5t62.5 225.5v993h-493v78h583v-1059q0 -290 -200 -366q-74 -28 -164 -27q-163 0 -289 66l37 71q115 -59 219 -59z" />
    <glyph glyph-name="k" unicode="k" 
d="M252 1473h92v-1082h8l631 592h113l-404 -381l469 -602h-104l-428 547l-285 -268v-279h-92v1473z" />
    <glyph glyph-name="l" unicode="l" 
d="M846 -25q-291 0 -291 322v1098h-365v78h455v-1188q0 -229 213 -230q90 0 205 54l29 -72q-59 -25 -116.5 -43.5t-129.5 -18.5z" />
    <glyph glyph-name="m" unicode="m" 
d="M154 983h73l11 -133h4q43 72 93 115t132 43q158 0 197 -174q53 84 106 129t145 45t147.5 -74t55.5 -221v-713h-88v702q0 223 -143 224q-66 0 -114 -46t-97 -139v-741h-82v702q0 223 -141 224q-68 0 -116 -46t-95 -139v-741h-88v983z" />
    <glyph glyph-name="n" unicode="n" 
d="M215 983h78l10 -188h8q86 92 177.5 152.5t209.5 60.5q354 0 355 -396v-612h-92v600q0 166 -65 246t-209 80q-145 0 -281 -124q-46 -42 -99 -97v-705h-92v983z" />
    <glyph glyph-name="o" unicode="o" 
d="M233 490q0 -191 107 -313t274.5 -122t274 121.5t106.5 313.5t-106 315t-274.5 123t-275 -123.5t-106.5 -314.5zM137 489.5q0 122.5 38 220t103.5 163t152.5 100.5t183.5 35t183.5 -35t152.5 -100.5t103.5 -163t38 -220t-38 -218t-103.5 -161t-152.5 -100.5t-183.5 -35
t-183.5 35t-152.5 100.5t-103.5 161t-38 218z" />
    <glyph glyph-name="p" unicode="p" 
d="M659 928q-172 0 -352 -180v-547q86 -78 173 -112t157 -34q69 0 137 33q68 32 117 92q104 126 104 326q-1 300 -181 390q-64 32 -155 32zM307 -444h-92v1427h78l10 -141h4q74 72 172.5 119t194.5 47q209 0 313.5 -136.5t104.5 -370.5t-133 -380t-328 -146q-72 0 -161 37
t-165 103l2 -201v-358z" />
    <glyph glyph-name="q" unicode="q" 
d="M233 489q-1 -303 203 -402q66 -32 148 -32q165 0 338 181v546q-157 146 -313.5 146t-266 -126t-109.5 -313zM928 147q-172 -172 -363 -172t-309.5 136.5t-118.5 373t137 380t316 143.5t334 -138h4l10 113h76v-1427h-92v397z" />
    <glyph glyph-name="r" unicode="r" 
d="M426 0h-92v983h78l10 -242h4q80 117 197.5 192t249.5 75t212 -41l-24 -80q-103 35 -206.5 35t-215 -70t-213.5 -238v-614z" />
    <glyph glyph-name="s" unicode="s" 
d="M938 821q-147 109 -313 109t-236 -50.5t-70 -125t89.5 -122.5t223.5 -81q247 -61 337 -126.5t90 -178t-110 -192t-280 -79.5q-281 0 -499 156l51 66q80 -66 182.5 -105t255 -39t229.5 58.5t77 133.5t-72 125.5t-281 102.5q-271 65 -357 182q-30 41 -30 92t22.5 99.5
t71 84.5t121 56.5t171 20.5t201.5 -35t175 -86z" />
    <glyph glyph-name="t" unicode="t" 
d="M461 369v536h-297v70l299 8l12 285h76v-285h524v-78h-524v-545q0 -153 59 -229t205.5 -76t271.5 51l25 -69q-141 -62 -271 -62t-198 29q-67 29 -107 80q-74 96 -75 285z" />
    <glyph glyph-name="u" unicode="u" 
d="M1012 0h-76l-10 190h-8q-80 -94 -174.5 -154.5t-213.5 -60.5q-180 0 -266 97.5t-86 298.5v612h90v-600q0 -166 64.5 -246t212.5 -80t280 124q45 42 97 100v702h90v-983z" />
    <glyph glyph-name="v" unicode="v" 
d="M127 983h94l271 -616q68 -147 122 -283h9q29 68 57.5 138.5t60.5 144.5l273 616h88l-436 -983h-97z" />
    <glyph glyph-name="w" unicode="w" 
d="M23 983h96l157 -637q16 -68 32 -132t28 -130h8q16 66 32.5 130.5t33.5 131.5l157 621h101l157 -621q16 -68 32.5 -132t33.5 -130h8q16 66 30.5 130.5t31.5 131.5l155 637h90l-250 -983h-116l-156 602q-43 196 -66 281h-8q-16 -68 -30.5 -138.5t-34.5 -146.5l-152 -598
h-117z" />
    <glyph glyph-name="x" unicode="x" 
d="M557 510l-362 473h104l190 -250q63 -90 123 -166h9q72 90 129 170l184 246h100l-366 -477l397 -506h-104l-209 266q-33 41 -69 90.5t-71 92.5h-8q-35 -47 -68.5 -91.5t-68.5 -93.5l-203 -264h-100z" />
    <glyph glyph-name="y" unicode="y" 
d="M258 -365q203 0 307 261l35 86l-477 1001h94l287 -618q29 -61 64.5 -136t70.5 -141h8q29 66 58.5 139.5t56.5 137.5l256 618h88l-463 -1106q-85 -226 -247 -298q-62 -28 -136.5 -28t-122.5 21l25 80q51 -17 96 -17z" />
    <glyph glyph-name="z" unicode="z" 
d="M229 905v78h826v-47l-770 -856h792v-80h-930v49l771 856h-689z" />
    <glyph glyph-name="braceleft" unicode="{" 
d="M915 -250h119v-61h-106q-188 0 -282.5 54t-94.5 208q0 115 9 214t9 169t-27 136.5t-278 66.5v65q251 0 278 67t27 131t-9 173.5t-9 214.5q0 154 94 208t283 54h106v-61h-119q-166 0 -223 -47t-57 -162l14 -394q0 -90 -35.5 -142t-138.5 -71v-8q102 -18 138 -70.5
t36 -142.5l-14 -393q0 -115 57 -162t223 -47z" />
    <glyph glyph-name="bar" unicode="|" 
d="M573 1536h82v-2048h-82v2048z" />
    <glyph glyph-name="braceright" unicode="}" 
d="M963 537q-304 0 -304 -164q0 -109 8.5 -208t8.5 -214q0 -154 -92 -208t-283 -54h-106v61h118q166 0 225.5 48t59.5 156q0 107 -8 197.5t-8 189.5t34.5 152.5t137.5 71.5v8q-102 18 -137 70.5t-35 142.5l16 394q0 113 -59.5 161t-225.5 48h-118v61h106q190 0 282.5 -54.5
t92.5 -207.5q0 -104 -8.5 -214t-8.5 -208q0 -164 304 -164v-65z" />
    <glyph glyph-name="asciitilde" unicode="~" 
d="M327 692.5q-40 -36.5 -77 -145.5l-64 24q45 137 110.5 186.5t129.5 49.5t113 -28.5t92 -63.5t85 -63.5t77 -28.5q67 0 107 34t79 148l63 -29q-78 -231 -245 -231q-59 0 -107.5 28.5t-91.5 63.5t-85 63.5t-94 28.5t-92 -36.5z" />
    <glyph glyph-name="uni00A0" unicode="&#xa0;" 
 />
    <glyph glyph-name="exclamdown" unicode="&#xa1;" 
d="M733 878q0 -62 -35.5 -95t-83 -33t-83 33t-35.5 95t35.5 96t83 34t83 -34t35.5 -96zM657 -389h-86v145l11 779h65l10 -779v-145z" />
    <glyph glyph-name="cent" unicode="&#xa2;" 
d="M717 -57h-72v223q-178 17 -286.5 142t-108.5 330t112 327t283 143v227h72v-223q158 -7 274 -123l-49 -57q-107 93 -225 100v-788q140 7 252 110l47 -59q-138 -124 -299 -131v-221zM344 635q0 -158 81 -262.5t220 -124.5v780q-132 -20 -216.5 -127.5t-84.5 -265.5z" />
    <glyph glyph-name="sterling" unicode="&#xa3;" 
d="M516 423q0 -193 -176 -333v-8h725v-82h-891v55q139 66 199.5 172.5t60.5 225.5q0 70 -22 147h-246v68l221 6q-27 78 -53.5 154.5t-26.5 156.5q0 162 108.5 255t311.5 93t334 -145l-60 -55q-120 120 -281 120t-244 -75.5t-83 -192.5q0 -82 26.5 -156.5t55.5 -154.5h412
v-74h-389q18 -78 18 -177z" />
    <glyph glyph-name="currency" unicode="&#xa4;" 
d="M334 671.5q0 -69.5 22.5 -128t60.5 -99.5t89 -64.5t108.5 -23.5t107.5 23.5t89 64.5t61.5 99.5t22.5 128t-22.5 129t-61.5 101.5t-89 65.5t-107.5 23.5t-108.5 -23.5t-89 -65.5t-60.5 -101.5t-22.5 -129zM244 672q0 139 75 250l-174 180l56 57l176 -182q98 90 235 90
t240 -90l176 182l55 -57l-176 -180q78 -109 78 -247t-78 -247l176 -178l-55 -57l-176 180q-96 -92 -236 -92q-139 0 -241 92l-174 -180l-56 57l174 178q-75 105 -75 244z" />
    <glyph glyph-name="yen" unicode="&#xa5;" 
d="M1049 621v-68h-392v-145h392v-70h-392v-338h-90v338h-387v70h387v145h-387v68h359l-406 688h96l226 -396q66 -116 155 -280h8q84 157 160 280l226 396h92l-410 -688h363z" />
    <glyph glyph-name="brokenbar" unicode="&#xa6;" 
d="M655 451v-963h-82v963h82zM573 1536h82v-965h-82v965z" />
    <glyph glyph-name="section" unicode="&#xa7;" 
d="M635 1317q-118 0 -162.5 -48t-44.5 -112t44 -105.5t109.5 -75.5t252 -105.5t186.5 -288.5q0 -102 -55.5 -162t-139.5 -103q68 -72 68 -176q0 -103 -84.5 -175t-202.5 -72q-212 0 -352 129l61 57q55 -49 120 -80t163 -31t153.5 51.5t55.5 121.5t-44 114.5t-110.5 77.5
t-144.5 62.5t-144.5 70.5t-110.5 100.5t-44 156.5q0 169 201 265q-70 70 -70 166t73 168t220 72t291 -109l-50 -63q-121 94 -239 94zM936 573q0 84 -48 136.5t-119 90.5t-151.5 68.5t-146.5 73.5q-80 -41 -129 -88t-49 -127t48 -130t119.5 -87t152.5 -67.5t149 -73.5
q84 35 129 77.5t45 126.5z" />
    <glyph glyph-name="dieresis" unicode="&#xa8;" 
d="M797 1225q-35 1 -59 25t-23 59q-1 35 23 61t59 25q35 0 57 -26q22 -27 23 -61q-1 -34 -23 -58t-57 -25zM432 1225q-36 1 -58 25t-22 59t23 61t57 25q34 0 58 -26q24 -27 24 -61t-24 -58t-58 -25z" />
    <glyph glyph-name="copyright" unicode="&#xa9;" 
d="M624 330q100 0 197 82l39 -58q-47 -41 -99 -70.5t-127 -29.5q-145 0 -236 111t-91 290t96.5 283t231.5 104q70 0 117 -25.5t88 -66.5l-47 -53q-74 70 -167 70t-162 -83.5t-69 -231.5q0 -147 64.5 -234.5t164.5 -87.5zM147 659.5q0 -139.5 34 -254t95.5 -195.5t147.5 -126
t190.5 -45t190.5 45t147.5 126t95 195.5t33.5 254t-33.5 253t-95 193.5t-147.5 124t-190.5 44t-190.5 -44t-147.5 -124t-95.5 -193.5t-34 -253zM76 659.5q0 155.5 40 280.5t111.5 213t170 135t217 47t217 -47t170 -135t111.5 -213t40 -280.5t-40 -281.5t-111.5 -215
t-170 -138.5t-217 -49.5t-217 49.5t-170 138.5t-111.5 215t-40 281.5z" />
    <glyph glyph-name="ordfeminine" unicode="&#xaa;" 
d="M440 706q0 -68 44 -95q44 -28 104 -27q100 0 223 96v205q-201 -23 -286 -67t-85 -112zM567 516q-85 0 -147 46t-62 146t111 155q111 56 342 81q0 186 -164 189q-97 0 -223 -74l-35 57q41 28 113 56t155 28q127 0 181 -73t55 -185v-410h-70l-6 82h-2q-127 -98 -248 -98z
" />
    <glyph glyph-name="guillemotleft" unicode="&#xab;" 
d="M219 473v86l291 334l51 -47l-258 -330l258 -334l-51 -43zM643 473v86l291 334l51 -47l-258 -330l258 -334l-51 -43z" />
    <glyph glyph-name="logicalnot" unicode="&#xac;" 
d="M195 715h839v-490h-84v412h-755v78z" />
    <glyph glyph-name="uni00AD" unicode="&#xad;" 
d="M195 715h839v-78h-839v78z" />
    <glyph glyph-name="registered" unicode="&#xae;" 
d="M600 1067q105 0 105 77t-99 77h-65v-154h59zM616 1278q158 0 158 -85t-23.5 -118t-58.5 -43l101 -176h-76l-80 156h-96v-156h-66v422h141zM836.5 1300.5q-87.5 100.5 -221.5 100.5t-222 -100t-88 -243t89.5 -239t220.5 -96t220 96.5t89 238.5t-87.5 242.5zM348.5 1346
q106.5 112 263.5 112t266 -111t109 -288.5t-110 -286t-265 -108.5t-262.5 109.5t-107.5 285t106.5 287.5z" />
    <glyph glyph-name="macron" unicode="&#xaf;" 
d="M383 1315h463v-74h-463v74z" />
    <glyph glyph-name="degree" unicode="&#xb0;" 
d="M614.5 981q71.5 0 117.5 50t46 127t-46 128t-117.5 51t-117.5 -51t-46 -128t46 -127t117.5 -50zM614 915q-45 0 -87 16.5t-74.5 47.5t-52 76t-19.5 102t19.5 102.5t52 77t74.5 48t87 16.5t87 -16.5t75 -48t52.5 -77t19.5 -102.5t-19.5 -102t-52.5 -76t-75 -47.5
t-87 -16.5z" />
    <glyph glyph-name="plusminus" unicode="&#xb1;" 
d="M195 76h839v-76h-839v76zM571 635h-376v76h376v415h86v-415h377v-76h-377v-412h-86v412z" />
    <glyph glyph-name="two.sups" unicode="&#xb2;" 
d="M587 1542q230 0 230 -205q0 -110 -179 -266q-54 -47 -116 -102h330v-68h-463v49q90 74 188 154t129 136t31 108t-38 90q-38 37 -105 37q-94 0 -166 -95l-55 43q99 119 214 119z" />
    <glyph glyph-name="three.sups" unicode="&#xb3;" 
d="M612 942q150 0 150 119q0 125 -223 125v57q100 0 146 37t46 87t-32 80t-86 30q-110 0 -175 -78l-47 47q76 96 230 96q79 0 135 -42t55 -124q0 -115 -119 -157q62 -13 106 -53t44 -120t-66 -124q-66 -45 -154 -45q-88 1 -156 37t-106 87l56 50q31 -47 82 -78t114 -31z" />
    <glyph glyph-name="acute" unicode="&#xb4;" 
d="M578 1171h-78l188 283h109z" />
    <glyph glyph-name="uni00B5" unicode="&#xb5;" 
d="M258 -178q0 -30 10 -195h-90v1356h90v-600q0 -154 63.5 -240t209.5 -86q106 0 167.5 36t110.5 89.5t103 141.5v659h90q-6 -651 -6 -864q0 -64 49 -64h10q10 0 27 4l14 -73q-38 -11 -64 -11q-66 0 -89 57.5t-27 188.5h-4q-150 -244 -375 -244q-92 0 -166 27t-123 115v-297
z" />
    <glyph glyph-name="paragraph" unicode="&#xb6;" 
d="M743 500h-57q-367 0 -437.5 154.5t-70.5 321t126 270.5t349 104h90v-850zM858 1350h86v-1514h-86v1514z" />
    <glyph glyph-name="periodcentered" unicode="&#xb7;" 
d="M492 704q0 64 37 98q38 34 85 34t85 -34t38 -98t-38 -100q-38 -35 -85 -35t-85 35q-37 36 -37 100z" />
    <glyph glyph-name="cedilla" unicode="&#xb8;" 
d="M752 -252q0 -106 -161 -155q-46 -13 -95 -19l-15 61q191 27 191 105q0 47 -39 70t-98 38l81 156h72l-59 -115q123 -40 123 -141z" />
    <glyph glyph-name="one.sups" unicode="&#xb9;" 
d="M686 1518v-617h-78v494h-168v59q103 17 183 64h63z" />
    <glyph glyph-name="ordmasculine" unicode="&#xba;" 
d="M614 1133q-100 0 -162 -77t-63 -199q1 -121 63 -195t162 -74t163 74t63 196t-62 198q-64 77 -164 77zM834 605q-87 -89 -217 -89t-222 89q-92 94 -92 252t90 251q90 94 221 93q132 -1 222 -93t90 -248t-92 -255z" />
    <glyph glyph-name="guillemotright" unicode="&#xbb;" 
d="M504 516l-258 330l51 47l291 -334v-86l-291 -334l-51 43zM928 516l-258 330l51 47l291 -334v-86l-291 -334l-51 43z" />
    <glyph glyph-name="onequarter" unicode="&#xbc;" 
d="M406 1309v-617h-78v494h-168v59q102 17 182 64h64zM1157 1221l-371 -404l-45 41l351 420zM72 129l370 403l45 -40l-350 -420zM1157 164h-102v-164h-74v164h-334v41l338 411h70v-393h102v-59zM981 223v156l8 147h-8l-102 -135l-138 -168h240z" />
    <glyph glyph-name="onehalf" unicode="&#xbd;" 
d="M406 1309v-617h-78v494h-168v59q102 17 182 64h64zM1157 1221l-371 -404l-45 41l351 420zM72 129l370 403l45 -40l-350 -420zM872 641q228 0 230 -205q0 -110 -179 -266q-54 -47 -116 -102h330v-68h-463v49q220 181 263 225q83 85 84 155q1 71 -37 108t-105 36
q-97 0 -166 -94l-56 43q100 119 215 119z" />
    <glyph glyph-name="threequarters" unicode="&#xbe;" 
d="M330 733q149 0 149 119q0 125 -223 125v57q100 0 146 37t46 87t-31 80q-33 30 -87 30q-111 0 -174 -78l-47 47q76 97 230 97q79 0 134 -43q55 -42 55 -124q0 -115 -118 -157q63 -12 106 -52t43 -120q1 -80 -65 -125t-154 -45t-156 37t-106 88l55 49q31 -47 82 -78
t115 -31zM1231 1221l-371 -404l-45 41l350 420zM145 129l371 403l45 -40l-350 -420zM1159 164h-102v-164h-74v164h-334v41l338 411h70v-393h102v-59zM983 223v156l8 147h-8l-102 -135l-138 -168h240z" />
    <glyph glyph-name="questiondown" unicode="&#xbf;" 
d="M766 878q0 -62 -36 -95t-83 -33t-83 33t-36 95t36 96t83 34t83 -34t36 -96zM631 -414q-164 0 -260.5 88.5t-96.5 212.5t72 202.5t120 122.5t112 122.5t47 200.5h82q24 -129 -39.5 -211t-111.5 -126t-118.5 -120.5t-70.5 -171.5q0 -164 100 -202t170 -38q172 0 299 131
l59 -55q-156 -156 -364 -156z" />
    <glyph glyph-name="Agrave" unicode="&#xc0;" 
d="M881 463h-535l-160 -463h-94l475 1350h95l475 -1350h-101zM854 543l-86 252q-111 327 -150 467h-8q-48 -171 -149 -467l-86 -252h479zM383 1669h119l188 -217h-82z" />
    <glyph glyph-name="Aacute" unicode="&#xc1;" 
d="M881 463h-535l-160 -463h-94l475 1350h95l475 -1350h-101zM854 543l-86 252q-111 327 -150 467h-8q-48 -171 -149 -467l-86 -252h479zM621 1452h-82l188 217h119z" />
    <glyph glyph-name="Acircumflex" unicode="&#xc2;" 
d="M881 463h-535l-160 -463h-94l475 1350h95l475 -1350h-101zM854 543l-86 252q-111 327 -150 467h-8q-48 -171 -149 -467l-86 -252h479zM375 1452l196 217h86l197 -217h-82l-154 147h-8l-153 -147h-82z" />
    <glyph glyph-name="Atilde" unicode="&#xc3;" 
d="M881 463h-535l-160 -463h-94l475 1350h95l475 -1350h-101zM854 543l-86 252q-111 327 -150 467h-8q-48 -171 -149 -467l-86 -252h479zM490 1583q-32 0 -54 -32q-23 -32 -28 -85h-60q5 79 41 129q39 58 92 59q55 0 85 -18t79 -56t87 -39t61 30t28 84h60q-4 -73 -42 -131
t-100 -58q-61 0 -136 59q-29 22 -55 40t-58 18z" />
    <glyph glyph-name="Adieresis" unicode="&#xc4;" 
d="M881 463h-535l-160 -463h-94l475 1350h95l475 -1350h-101zM854 543l-86 252q-111 327 -150 467h-8q-48 -171 -149 -467l-86 -252h479zM776 1485q-32 0 -54 19q-22 18 -22 54t22 56t54 20t53 -20t21 -55t-20 -55t-54 -19zM453 1485q-33 0 -54 19q-20 18 -20 54t20 56
q19 20 53 20t56 -20t20 -55q0 -35 -21 -55t-54 -19z" />
    <glyph glyph-name="Aring" unicode="&#xc5;" 
d="M881 463h-535l-160 -463h-94l475 1350h95l475 -1350h-101zM854 543l-86 252q-111 327 -150 467h-8q-48 -171 -149 -467l-86 -252h479zM508 1600q0 -55 30 -84t74 -29q43 0 75 29t32 84t-32 86q-32 30 -75 30q-44 0 -74 -30t-30 -86zM613 1434q-71 0 -119 45t-48 122
t48 123t120 45q70 0 119 -46q49 -47 49 -123t-49 -121t-120 -45z" />
    <glyph glyph-name="AE" unicode="&#xc6;" 
d="M1206 82v-82h-549v444h-364l-191 -444h-102l594 1350h592v-82h-438v-510h333v-82h-333v-594h458zM657 522v746h-8q-49 -117 -100 -232.5t-105 -238.5l-118 -275h331z" />
    <glyph glyph-name="Ccedilla" unicode="&#xc7;" 
d="M731 -260q0 47 -38 70t-97 38l68 130q-219 18 -358 187q-159 193 -159 512t158 508t422 189q117 0 206 -49t144 -113l-57 -61q-119 137 -293 137q-222 0 -351 -165q-130 -165 -130 -445t129 -448q129 -169 346 -169q104 0 184 41t154 125l55 -59q-160 -185 -379 -192
l-45 -87q123 -40 123 -141q0 -107 -162 -155q-47 -13 -96 -19l-12 61q188 26 188 105z" />
    <glyph glyph-name="Egrave" unicode="&#xc8;" 
d="M260 1350h799v-82h-705v-510h594v-82h-594v-594h725v-82h-819v1350zM457 1669h118l189 -217h-82z" />
    <glyph glyph-name="Eacute" unicode="&#xc9;" 
d="M260 1350h799v-82h-705v-510h594v-82h-594v-594h725v-82h-819v1350zM694 1452h-82l189 217h119z" />
    <glyph glyph-name="Ecircumflex" unicode="&#xca;" 
d="M260 1350h799v-82h-705v-510h594v-82h-594v-594h725v-82h-819v1350zM449 1452l196 217h86l197 -217h-82l-154 147h-8l-154 -147h-81z" />
    <glyph glyph-name="Edieresis" unicode="&#xcb;" 
d="M260 1350h799v-82h-705v-510h594v-82h-594v-594h725v-82h-819v1350zM850 1485q-32 0 -54 19q-22 18 -22 54t22 56t54 20t53 -20t21 -55t-20 -55t-54 -19zM526 1485q-33 0 -53 19q-20 18 -20 54t20 56t53 20t55 -20q21 -20 21 -55t-21 -55q-22 -19 -55 -19z" />
    <glyph glyph-name="Igrave" unicode="&#xcc;" 
d="M219 82h348v1186h-348v82h791v-82h-348v-1186h348v-82h-791v82zM383 1669h119l188 -217h-82z" />
    <glyph glyph-name="Iacute" unicode="&#xcd;" 
d="M219 82h348v1186h-348v82h791v-82h-348v-1186h348v-82h-791v82zM621 1452h-82l188 217h119z" />
    <glyph glyph-name="Icircumflex" unicode="&#xce;" 
d="M219 82h348v1186h-348v82h791v-82h-348v-1186h348v-82h-791v82zM375 1452l196 217h86l197 -217h-82l-154 147h-8l-153 -147h-82z" />
    <glyph glyph-name="Idieresis" unicode="&#xcf;" 
d="M219 82h348v1186h-348v82h791v-82h-348v-1186h348v-82h-791v82zM776 1485q-32 0 -54 19q-22 18 -22 54t22 56t54 20t53 -20t21 -55t-20 -55t-54 -19zM453 1485q-33 0 -54 19q-20 18 -20 54t20 56q19 20 53 20t56 -20t20 -55q0 -35 -21 -55t-54 -19z" />
    <glyph glyph-name="Eth" unicode="&#xd0;" 
d="M510 80q262 0 391 162.5t129 437.5q0 422 -192.5 506t-327.5 84h-207v-522h336v-68h-336v-600h207zM209 680h-158v59l158 9v602h309q303 0 456.5 -178t153.5 -580t-227 -497t-381 -95h-311v680z" />
    <glyph glyph-name="Ntilde" unicode="&#xd1;" 
d="M279 0h-91v1350h99l671 -1221h5q-13 318 -13 391v830h90v-1350h-98l-672 1221h-4q12 -296 13 -385v-836zM852 1527q-39 -61 -101 -61q-61 0 -136 59q-29 22 -55 40t-58 18t-54 -32t-28 -85h-60q4 76 32 116q49 71 102 72q53 0 84 -18t79 -56t87 -39q77 -1 90 114h59
q-4 -76 -41 -128z" />
    <glyph glyph-name="Ograve" unicode="&#xd2;" 
d="M1020 680q0 277 -112 442q-112 166 -294 166t-293 -167q-112 -167 -112 -442q0 -276 112 -447t293 -171q182 0 294 171t112 448zM110 680q1 318 141 506q139 188 363 188q223 0 364 -188q140 -188 140 -506t-141 -512q-143 -193 -363 -193q-219 0 -362 193
q-143 194 -142 512zM383 1669h119l188 -217h-82z" />
    <glyph glyph-name="Oacute" unicode="&#xd3;" 
d="M1020 680q0 277 -112 442q-112 166 -294 166t-293 -167q-112 -167 -112 -442q0 -276 112 -447t293 -171q182 0 294 171t112 448zM110 680q1 318 141 506q139 188 363 188q223 0 364 -188q140 -188 140 -506t-141 -512q-143 -193 -363 -193q-219 0 -362 193
q-143 194 -142 512zM621 1452h-82l188 217h119z" />
    <glyph glyph-name="Ocircumflex" unicode="&#xd4;" 
d="M1020 680q0 277 -112 442q-112 166 -294 166t-293 -167q-112 -167 -112 -442q0 -276 112 -447t293 -171q182 0 294 171t112 448zM110 680q1 318 141 506q139 188 363 188q223 0 364 -188q140 -188 140 -506t-141 -512q-143 -193 -363 -193q-219 0 -362 193
q-143 194 -142 512zM375 1452l196 217h86l197 -217h-82l-154 147h-8l-153 -147h-82z" />
    <glyph glyph-name="Otilde" unicode="&#xd5;" 
d="M1020 680q0 277 -112 442q-112 166 -294 166t-293 -167q-112 -167 -112 -442q0 -276 112 -447t293 -171q182 0 294 171t112 448zM110 680q1 318 141 506q139 188 363 188q223 0 364 -188q140 -188 140 -506t-141 -512q-143 -193 -363 -193q-219 0 -362 193
q-143 194 -142 512zM490 1583q-32 0 -54 -32q-23 -32 -28 -85h-60q5 79 41 129q39 58 92 59q55 0 85 -18t79 -56t87 -39t61 30t28 84h60q-4 -73 -42 -131t-100 -58q-61 0 -136 59q-29 22 -55 40t-58 18z" />
    <glyph glyph-name="Odieresis" unicode="&#xd6;" 
d="M1020 680q0 277 -112 442q-112 166 -294 166t-293 -167q-112 -167 -112 -442q0 -276 112 -447t293 -171q182 0 294 171t112 448zM110 680q1 318 141 506q139 188 363 188q223 0 364 -188q140 -188 140 -506t-141 -512q-143 -193 -363 -193q-219 0 -362 193
q-143 194 -142 512zM776 1485q-32 0 -54 19q-22 18 -22 54t22 56t54 20t53 -20t21 -55t-20 -55t-54 -19zM453 1485q-33 0 -54 19q-20 18 -20 54t20 56q19 20 53 20t56 -20t20 -55q0 -35 -21 -55t-54 -19z" />
    <glyph glyph-name="multiply" unicode="&#xd7;" 
d="M229 334l330 342l-330 342l56 57l329 -346l330 346l55 -57l-329 -342l329 -342l-55 -58l-330 345l-329 -345z" />
    <glyph glyph-name="Oslash" unicode="&#xd8;" 
d="M989 1169q129 -190 129 -499t-141.5 -502t-362.5 -193q-192 0 -327 150l-117 -172l-57 43l127 188q-129 195 -129 504q0 310 140 498t363 188q195 0 326 -143l113 166l59 -43zM889 1151q-110 137 -283 137t-285 -166t-112 -425q0 -260 88 -427zM340 205
q109 -144 282 -144t285 169q113 169 113 430q0 260 -88 425z" />
    <glyph glyph-name="Ugrave" unicode="&#xd9;" 
d="M182 1350h94v-834q0 -242 94 -348q94 -107 244 -107q241 0 317 237q28 87 27 218v834h89v-844q0 -285 -132 -419q-110 -112 -301 -112q-300 0 -396 275q-36 102 -36 256v844zM383 1669h119l188 -217h-82z" />
    <glyph glyph-name="Uacute" unicode="&#xda;" 
d="M182 1350h94v-834q0 -242 94 -348q94 -107 244 -107q241 0 317 237q28 87 27 218v834h89v-844q0 -285 -132 -419q-110 -112 -301 -112q-300 0 -396 275q-36 102 -36 256v844zM621 1452h-82l188 217h119z" />
    <glyph glyph-name="Ucircumflex" unicode="&#xdb;" 
d="M182 1350h94v-834q0 -242 94 -348q94 -107 244 -107q241 0 317 237q28 87 27 218v834h89v-844q0 -285 -132 -419q-110 -112 -301 -112q-300 0 -396 275q-36 102 -36 256v844zM375 1452l196 217h86l197 -217h-82l-154 147h-8l-153 -147h-82z" />
    <glyph glyph-name="Udieresis" unicode="&#xdc;" 
d="M182 1350h94v-834q0 -242 94 -348q94 -107 244 -107q241 0 317 237q28 87 27 218v834h89v-844q0 -285 -132 -419q-110 -112 -301 -112q-300 0 -396 275q-36 102 -36 256v844zM776 1485q-32 0 -54 19q-22 18 -22 54t22 56t54 20t53 -20t21 -55t-20 -55t-54 -19zM453 1485
q-33 0 -54 19q-20 18 -20 54t20 56q19 20 53 20t56 -20t20 -55q0 -35 -21 -55t-54 -19z" />
    <glyph glyph-name="Yacute" unicode="&#xdd;" 
d="M662 0h-95v496l-463 854h97l239 -447q47 -78 87 -157t87 -160h9q47 82 90 162t86 157l233 445h92l-462 -854v-496zM621 1452h-82l188 217h119z" />
    <glyph glyph-name="Thorn" unicode="&#xde;" 
d="M586 420q209 0 308 73.5t99 240.5t-101 231.5t-306 64.5h-250v-610h250zM242 1350h94v-240h274q356 0 419 -136t63 -241q0 -199 -127 -296t-355 -97h-274v-340h-94v1350z" />
    <glyph glyph-name="germandbls" unicode="&#xdf;" 
d="M1055 248q0 78 -35 123t-86 76.5t-112.5 57t-113 58.5t-86 80t-34.5 121t33.5 128t75.5 102t76 99t34 129t-55.5 137.5t-173.5 59.5t-196.5 -87t-78.5 -269v-1063h-90v1092q0 187 107 296t260 109t236 -80.5t83 -197.5q0 -80 -34 -136.5t-75.5 -104.5t-75.5 -96t-34 -108
t35 -97.5t86 -66t198.5 -91t147.5 -259.5q0 -120 -91 -202.5t-243 -82.5q-151 0 -287 103l47 67q119 -92 240 -92q120 0 181 58.5t61 136.5z" />
    <glyph glyph-name="agrave" unicode="&#xe0;" 
d="M281 253q1 -56 23 -93q63 -103 244 -105t394 176v316q-526 -45 -628 -191q-32 -47 -33 -103zM188 246q0 242 411 323q142 29 343 47q0 218 -152 286q-56 26 -141 26q-167 0 -373 -133l-40 67q86 59 196 102q111 43 218 43q195 2 290 -105q94 -107 92 -273v-629h-76
l-10 147h-4q-215 -170 -412 -172q-142 0 -242 70t-100 201zM467 1454h108l189 -283h-78z" />
    <glyph glyph-name="aacute" unicode="&#xe1;" 
d="M281 253q1 -56 23 -93q63 -103 244 -105t394 176v316q-526 -45 -628 -191q-32 -47 -33 -103zM188 246q0 242 411 323q142 29 343 47q0 218 -152 286q-56 26 -141 26q-167 0 -373 -133l-40 67q86 59 196 102q111 43 218 43q195 2 290 -105q94 -107 92 -273v-629h-76
l-10 147h-4q-215 -170 -412 -172q-142 0 -242 70t-100 201zM612 1171h-77l188 283h108z" />
    <glyph glyph-name="acircumflex" unicode="&#xe2;" 
d="M281 253q1 -56 23 -93q63 -103 244 -105t394 176v316q-526 -45 -628 -191q-32 -47 -33 -103zM188 246q0 242 411 323q142 29 343 47q0 218 -152 286q-56 26 -141 26q-167 0 -373 -133l-40 67q86 59 196 102q111 43 218 43q195 2 290 -105q94 -107 92 -273v-629h-76
l-10 147h-4q-215 -170 -412 -172q-142 0 -242 70t-100 201zM608 1454h82l195 -283h-78l-154 207h-8l-153 -207h-78z" />
    <glyph glyph-name="atilde" unicode="&#xe3;" 
d="M281 253q1 -56 23 -93q63 -103 244 -105t394 176v316q-526 -45 -628 -191q-32 -47 -33 -103zM188 246q0 242 411 323q142 29 343 47q0 218 -152 286q-56 26 -141 26q-167 0 -373 -133l-40 67q86 59 196 102q111 43 218 43q195 2 290 -105q94 -107 92 -273v-629h-76
l-10 147h-4q-215 -170 -412 -172q-142 0 -242 70t-100 201zM764 1260q63 0 78 114h61q-8 -125 -80 -168q-27 -16 -74 -16t-113 57t-101 58q-66 0 -78 -115h-62q8 125 80 168q27 16 64 16t67 -18t56 -40q28 -22 52 -39t50 -17z" />
    <glyph glyph-name="adieresis" unicode="&#xe4;" 
d="M281 253q1 -56 23 -93q63 -103 244 -105t394 176v316q-526 -45 -628 -191q-32 -47 -33 -103zM188 246q0 242 411 323q142 29 343 47q0 218 -152 286q-56 26 -141 26q-167 0 -373 -133l-40 67q86 59 196 102q111 43 218 43q195 2 290 -105q94 -107 92 -273v-629h-76
l-10 147h-4q-215 -170 -412 -172q-142 0 -242 70t-100 201zM831 1225q-35 1 -59 25t-22 59q0 35 24 61t58 25q34 0 57 -26q23 -27 23 -61t-23 -59q-23 -24 -58 -24zM467 1225q-35 1 -57 25t-23 59q0 35 23 61q24 26 58 25q34 0 58 -26q24 -27 23 -61q1 -34 -23 -58t-59 -25z
" />
    <glyph glyph-name="aring" unicode="&#xe5;" 
d="M281 253q1 -56 23 -93q63 -103 244 -105t394 176v316q-526 -45 -628 -191q-32 -47 -33 -103zM188 246q0 242 411 323q142 29 343 47q0 218 -152 286q-56 26 -141 26q-167 0 -373 -133l-40 67q86 59 196 102q111 43 218 43q195 2 290 -105q94 -107 92 -273v-629h-76
l-10 147h-4q-215 -170 -412 -172q-142 0 -242 70t-100 201zM649 1157q45 0 76 34t31 90t-31 90t-76 34t-76 -34t-31 -90t32 -90q30 -34 75 -34zM649 1104q-72 0 -120 49t-48 128t48 128t120 49t120 -49t48 -128t-48 -128t-120 -49z" />
    <glyph glyph-name="ae" unicode="&#xe6;" 
d="M571 492v55q-240 -37 -343 -107t-103 -178t50 -158.5t125 -50.5t157 48.5t149 140.5q-35 116 -35 250zM1145 549q0 265 -77 323t-138 58q-123 0 -194.5 -102.5t-78.5 -278.5h488zM35 256q0 141 135 233.5t401 126.5q0 314 -213 314q-123 0 -247 -90l-39 65
q153 103 305 103q104 0 167.5 -65.5t86.5 -164.5q47 106 123 168t166 62q158 0 232.5 -125t74.5 -310v-33q0 -32 -4 -61h-568q0 -188 73 -307t216 -119q111 0 217 70l37 -64q-127 -84 -258 -84q-202 0 -301 203q-182 -203 -346 -203q-113 0 -185.5 70t-72.5 211z" />
    <glyph glyph-name="ccedilla" unicode="&#xe7;" 
d="M741 -260q0 47 -39 70t-98 38l68 128q-206 11 -350 143t-144 373t155 379q155 137 369 137t367 -150l-53 -61q-140 131 -299 131q-197 0 -320 -122t-123 -316t121 -314q121 -121 311 -121t341 142l47 -64q-155 -147 -351 -157l-45 -87q123 -40 123 -141q0 -106 -161 -155
q-46 -13 -95 -19l-14 61q190 27 190 105z" />
    <glyph glyph-name="egrave" unicode="&#xe8;" 
d="M1001 553q0 185 -95 281t-251 96t-270 -105t-133 -272h749zM688 -25q-118 0 -212 35q-195 72 -277 263q-41 95 -41 216q0 232 148 376q148 143 345 143q199 0 319 -122t120 -333v-37q0 -18 -5 -37h-833q4 -188 123 -307t298 -119t339 107l37 -70q-68 -43 -156 -79
q-87 -36 -205 -36zM465 1454h108l189 -283h-78z" />
    <glyph glyph-name="eacute" unicode="&#xe9;" 
d="M1001 553q0 185 -95 281t-251 96t-270 -105t-133 -272h749zM688 -25q-118 0 -212 35q-195 72 -277 263q-41 95 -41 216q0 232 148 376q148 143 345 143q199 0 319 -122t120 -333v-37q0 -18 -5 -37h-833q4 -188 123 -307t298 -119t339 107l37 -70q-68 -43 -156 -79
q-87 -36 -205 -36zM610 1171h-78l189 283h108z" />
    <glyph glyph-name="ecircumflex" unicode="&#xea;" 
d="M1001 553q0 185 -95 281t-251 96t-270 -105t-133 -272h749zM688 -25q-118 0 -212 35q-195 72 -277 263q-41 95 -41 216q0 232 148 376q148 143 345 143q199 0 319 -122t120 -333v-37q0 -18 -5 -37h-833q4 -188 123 -307t298 -119t339 107l37 -70q-68 -43 -156 -79
q-87 -36 -205 -36zM606 1454h82l195 -283h-78l-154 207h-8l-154 -207h-77z" />
    <glyph glyph-name="edieresis" unicode="&#xeb;" 
d="M1001 553q0 185 -95 281t-251 96t-270 -105t-133 -272h749zM688 -25q-118 0 -212 35q-195 72 -277 263q-41 95 -41 216q0 232 148 376q148 143 345 143q199 0 319 -122t120 -333v-37q0 -18 -5 -37h-833q4 -188 123 -307t298 -119t339 107l37 -70q-68 -43 -156 -79
q-87 -36 -205 -36zM829 1225q-35 1 -59 25t-22 59q0 35 24 61t58 25q34 0 57 -26q23 -27 23 -61t-23 -59q-23 -24 -58 -24zM465 1225q-35 1 -57 25t-23 59q0 35 23 61q24 26 58 25q34 0 58 -26q24 -27 23 -61q1 -34 -23 -58t-59 -25z" />
    <glyph glyph-name="igrave" unicode="&#xec;" 
d="M199 983h583v-983h-90v905h-493v78zM532 1454h109l188 -283h-77z" />
    <glyph glyph-name="iacute" unicode="&#xed;" 
d="M199 983h583v-983h-90v905h-493v78zM678 1171h-78l188 283h109z" />
    <glyph glyph-name="icircumflex" unicode="&#xee;" 
d="M199 983h583v-983h-90v905h-493v78zM674 1454h82l194 -283h-78l-153 207h-8l-154 -207h-78z" />
    <glyph glyph-name="idieresis" unicode="&#xef;" 
d="M199 983h583v-983h-90v905h-493v78zM897 1225q-35 1 -59 25t-23 59q0 35 24 61q25 26 59 25q34 0 56 -26q22 -27 23 -61q-1 -34 -23 -58t-57 -25zM532 1225q-36 1 -58 25t-21 59t23 61t56 25q34 0 59 -26q23 -27 23 -61t-23 -59q-24 -24 -59 -24z" />
    <glyph glyph-name="eth" unicode="&#xf0;" 
d="M997 949q82 -177 82 -429t-127 -398.5t-329 -146.5t-344 129t-142 340t131.5 336t345.5 125q104 0 197.5 -51t159.5 -131q-49 302 -266 489l-308 -159l-32 57l284 147q-106 84 -274 164l45 62q168 -78 307 -185l274 142l31 -56l-252 -131q135 -127 217 -304zM894 182
q93 127 93 332q0 53 -4 107q-148 206 -367 206q-186 0 -286.5 -107.5t-100.5 -275.5q0 -167 111 -278t286 -111t268 127z" />
    <glyph glyph-name="ntilde" unicode="&#xf1;" 
d="M215 983h78l10 -188h8q86 92 177 152t210 61q354 0 355 -396v-612h-92v600q0 166 -65 246t-212 80q-101 0 -180 -50t-197 -171v-705h-92v983zM768 1260q63 0 78 114h61q-8 -125 -80 -168q-27 -16 -74 -16t-113 57t-101 58q-66 0 -78 -115h-62q8 125 80 168q27 16 64 16
t67 -18t56 -40q28 -22 52 -39t50 -17z" />
    <glyph glyph-name="ograve" unicode="&#xf2;" 
d="M233 490q0 -191 107 -313q106 -122 274 -122q167 0 275 123t107 313q-1 191 -107 314t-275 123q-84 0 -153 -32q-140 -64 -199 -228q-29 -80 -29 -178zM137 493q0 240 139 377q139 138 340 138t338 -139q138 -139 138 -379t-139 -377q-139 -138 -340 -138t-338 139
q-138 139 -138 379zM432 1454h109l188 -283h-78z" />
    <glyph glyph-name="oacute" unicode="&#xf3;" 
d="M233 490q0 -191 107 -313q106 -122 274 -122q167 0 275 123t107 313q-1 191 -107 314t-275 123q-84 0 -153 -32q-140 -64 -199 -228q-29 -80 -29 -178zM137 493q0 240 139 377q139 138 340 138t338 -139q138 -139 138 -379t-139 -377q-139 -138 -340 -138t-338 139
q-138 139 -138 379zM578 1171h-78l188 283h109z" />
    <glyph glyph-name="ocircumflex" unicode="&#xf4;" 
d="M233 490q0 -191 107 -313q106 -122 274 -122q167 0 275 123t107 313q-1 191 -107 314t-275 123q-84 0 -153 -32q-140 -64 -199 -228q-29 -80 -29 -178zM137 493q0 240 139 377q139 138 340 138t338 -139q138 -139 138 -379t-139 -377q-139 -138 -340 -138t-338 139
q-138 139 -138 379zM573 1454h82l195 -283h-78l-154 207h-8l-153 -207h-78z" />
    <glyph glyph-name="otilde" unicode="&#xf5;" 
d="M233 490q0 -191 107 -313q106 -122 274 -122q167 0 275 123t107 313q-1 191 -107 314t-275 123q-84 0 -153 -32q-140 -64 -199 -228q-29 -80 -29 -178zM137 493q0 240 139 377q139 138 340 138t338 -139q138 -139 138 -379t-139 -377q-139 -138 -340 -138t-338 139
q-138 139 -138 379zM729 1260q63 0 78 114h61q-8 -125 -80 -168q-27 -16 -74 -16t-113 57t-101 58q-66 0 -78 -115h-62q8 125 80 168q27 16 64 16q36 0 66 -18t57 -40t51 -39t51 -17z" />
    <glyph glyph-name="odieresis" unicode="&#xf6;" 
d="M233 490q0 -191 107 -313q106 -122 274 -122q167 0 275 123t107 313q-1 191 -107 314t-275 123q-84 0 -153 -32q-140 -64 -199 -228q-29 -80 -29 -178zM137 493q0 240 139 377q139 138 340 138t338 -139q138 -139 138 -379t-139 -377q-139 -138 -340 -138t-338 139
q-138 139 -138 379zM797 1225q-35 1 -59 25t-23 59q-1 35 23 61t59 25q35 0 57 -26q22 -27 23 -61q-1 -34 -23 -58t-57 -25zM432 1225q-36 1 -58 25t-22 59t23 61t57 25q34 0 58 -26q24 -27 24 -61t-24 -58t-58 -25z" />
    <glyph glyph-name="divide" unicode="&#xf7;" 
d="M195 715h839v-78h-839v78zM537 305q0 37 22.5 59.5t55 22.5t55 -22.5t22.5 -59.5t-22.5 -59.5t-55 -22.5t-55 22.5t-22.5 59.5zM614.5 961q-32.5 0 -55 22.5t-22.5 58.5t22.5 59t55 23t55 -22.5t22.5 -59.5t-22.5 -59t-55 -22z" />
    <glyph glyph-name="oslash" unicode="&#xf8;" 
d="M971 850q121 -140 121 -369t-138.5 -367.5t-326.5 -138.5t-320 109l-112 -129l-54 43l117 135q-121 145 -121 371.5t138.5 365t328.5 138.5t318 -111l112 129l53 -43zM233 500q0 -183 86 -297l545 628q-103 99 -260.5 99t-264 -123.5t-106.5 -306.5zM995 479.5
q0 183.5 -86 298.5l-544 -628q102 -96 259.5 -96.5t264 121t106.5 305z" />
    <glyph glyph-name="ugrave" unicode="&#xf9;" 
d="M178 371v612h90v-600q0 -166 65 -246t210 -80t282 124q45 42 97 100v702h90v-983h-76l-10 190h-8q-182 -213 -375 -214q-193 -2 -279 96t-86 299zM422 1454h108l189 -283h-78z" />
    <glyph glyph-name="uacute" unicode="&#xfa;" 
d="M178 371v612h90v-600q0 -166 65 -246t210 -80t282 124q45 42 97 100v702h90v-983h-76l-10 190h-8q-182 -213 -375 -214q-193 -2 -279 96t-86 299zM567 1171h-78l189 283h108z" />
    <glyph glyph-name="ucircumflex" unicode="&#xfb;" 
d="M178 371v612h90v-600q0 -166 65 -246t210 -80t282 124q45 42 97 100v702h90v-983h-76l-10 190h-8q-182 -213 -375 -214q-193 -2 -279 96t-86 299zM563 1454h82l195 -283h-78l-154 207h-8l-154 -207h-77z" />
    <glyph glyph-name="udieresis" unicode="&#xfc;" 
d="M178 371v612h90v-600q0 -166 65 -246t210 -80t282 124q45 42 97 100v702h90v-983h-76l-10 190h-8q-182 -213 -375 -214q-193 -2 -279 96t-86 299zM786 1225q-34 1 -58 25t-23 59q-1 35 23 61t58 25q34 0 58 -26q22 -27 22 -61t-22 -59q-23 -24 -58 -24zM422 1225
q-36 1 -58 25t-22 59t23 61t57 25q34 0 58 -26q24 -27 24 -61t-24 -58t-58 -25z" />
    <glyph glyph-name="yacute" unicode="&#xfd;" 
d="M396 -421q-62 -28 -136 -28t-123 21l25 80q45 -15 96 -17q203 0 307 261l35 86l-477 1001h94l287 -618q28 -61 64 -137t71 -140h8q33 74 115 277l256 618h88l-463 -1106q-85 -226 -247 -298zM584 1171h-78l188 283h109z" />
    <glyph glyph-name="thorn" unicode="&#xfe;" 
d="M657 928q-170 0 -350 -180v-547q86 -78 173 -112t157 -34q69 0 137 33q68 32 117 92q104 126 104 326q0 297 -184 390q-63 32 -154 32zM307 -444h-92v1917h92v-445l-6 -192q181 172 377 172t305 -135t109 -371t-135 -381.5t-311 -145.5t-341 140l2 -201v-358z" />
    <glyph glyph-name="ydieresis" unicode="&#xff;" 
d="M396 -421q-62 -28 -136 -28t-123 21l25 80q45 -15 96 -17q203 0 307 261l35 86l-477 1001h94l287 -618q28 -61 64 -137t71 -140h8q33 74 115 277l256 618h88l-463 -1106q-85 -226 -247 -298zM803 1225q-35 1 -59 25t-23 59q-1 35 23 61t59 25q35 0 57 -26q22 -27 23 -61
q-1 -34 -23 -58t-57 -25zM438 1225q-36 1 -58 25t-22 59t23 61t57 25q34 0 59 -26q23 -27 23 -61t-23 -59q-24 -24 -59 -24z" />
    <glyph glyph-name="Amacron" unicode="&#x100;" 
d="M881 463h-535l-160 -463h-94l475 1350h95l475 -1350h-101zM854 543l-86 252q-111 327 -150 467h-8q-48 -171 -149 -467l-86 -252h479zM381 1577h467v-74h-467v74z" />
    <glyph glyph-name="amacron" unicode="&#x101;" 
d="M281 253q1 -56 23 -93q63 -103 244 -105t394 176v316q-526 -45 -628 -191q-32 -47 -33 -103zM188 246q0 242 411 323q142 29 343 47q0 218 -152 286q-56 26 -141 26q-167 0 -373 -133l-40 67q86 59 196 102q111 43 218 43q195 2 290 -105q94 -107 92 -273v-629h-76
l-10 147h-4q-215 -170 -412 -172q-142 0 -242 70t-100 201zM418 1315h463v-74h-463v74z" />
    <glyph glyph-name="Abreve" unicode="&#x102;" 
d="M881 463h-535l-160 -463h-94l475 1350h95l475 -1350h-101zM854 543l-86 252q-111 327 -150 467h-8q-48 -171 -149 -467l-86 -252h479zM614 1522q107 0 152 94q12 27 16 53h68q-10 -85 -71 -149t-165 -64q-105 0 -165 65t-70 148h67q8 -53 48 -100t120 -47z" />
    <glyph glyph-name="abreve" unicode="&#x103;" 
d="M281 253q1 -56 23 -93q63 -103 244 -105t394 176v316q-526 -45 -628 -191q-32 -47 -33 -103zM188 246q0 242 411 323q142 29 343 47q0 218 -152 286q-56 26 -141 26q-167 0 -373 -133l-40 67q86 59 196 102q111 43 218 43q195 2 290 -105q94 -107 92 -273v-629h-76
l-10 147h-4q-215 -170 -412 -172q-142 0 -242 70t-100 201zM649 1180q-63 0 -107 24q-120 64 -139 223h68q8 -72 41 -112q57 -68 137 -70q112 0 161 116q13 32 17 66h68q-10 -99 -65 -163q-68 -84 -181 -84z" />
    <glyph glyph-name="Aogonek" unicode="&#x104;" 
d="M1210 -371q-56 -49 -152 -49q-52 0 -103.5 41t-51.5 123t46 149.5t102 106.5h-15l-155 463h-535l-160 -463h-94l475 1350h95l475 -1350q-66 -41 -109 -107.5t-43 -125t32 -85t77 -26.5t84 29zM854 543l-86 252q-111 327 -150 467h-8q-48 -171 -149 -467l-86 -252h479z
" />
    <glyph glyph-name="aogonek" unicode="&#x105;" 
d="M281 253q0 -102 78.5 -151t187.5 -49q182 0 395 178v316q-526 -45 -628 -191q-32 -47 -33 -103zM236 862q212 146 440 146q82 0 152 -30q204 -86 204 -349v-629q-78 -39 -127 -105.5t-49 -126t31 -86t75.5 -26.5t81.5 29l33 -54q-23 -20 -61.5 -33.5t-71.5 -13.5
q-72 0 -119 41t-47 122t53.5 151.5t124.5 115.5l-10 133h-4q-218 -172 -412 -172q-143 0 -242.5 70t-99.5 201q0 163 173.5 248.5t580.5 121.5q0 218 -152 286q-56 26 -141 26q-167 0 -373 -133z" />
    <glyph glyph-name="Cacute" unicode="&#x106;" 
d="M727 1288q-222 0 -351 -165q-130 -165 -130 -445t129 -448q129 -169 346 -169q104 0 184 41t154 125l55 -59q-166 -192 -396 -192q-255 -1 -413 190q-158 192 -158 511t158 508t422 189q117 0 206 -49t144 -113l-57 -61q-119 137 -293 137zM709 1452h-82l188 217h119z
" />
    <glyph glyph-name="cacute" unicode="&#x107;" 
d="M1094 133q-167 -158 -391 -158t-375 138q-150 138 -150 379t155 379q155 137 369 137t367 -150l-53 -61q-140 131 -299 131q-197 0 -320 -122t-123 -316t121 -314q121 -121 311 -121t341 142zM670 1171h-78l188 283h109z" />
    <glyph glyph-name="Ccircumflex" unicode="&#x108;" 
d="M727 1288q-222 0 -351 -165q-130 -165 -130 -445t129 -448q129 -169 346 -169q104 0 184 41t154 125l55 -59q-166 -192 -396 -192q-255 -1 -413 190q-158 192 -158 511t158 508t422 189q117 0 206 -49t144 -113l-57 -61q-119 137 -293 137zM463 1452l196 217h86l197 -217
h-82l-153 147h-9l-153 -147h-82z" />
    <glyph glyph-name="ccircumflex" unicode="&#x109;" 
d="M1094 133q-167 -158 -391 -158t-375 138q-150 138 -150 379t155 379q155 137 369 137t367 -150l-53 -61q-140 131 -299 131q-197 0 -320 -122t-123 -316t121 -314q121 -121 311 -121t341 142zM666 1454h82l194 -283h-78l-153 207h-9l-153 -207h-78z" />
    <glyph glyph-name="Cdotaccent" unicode="&#x10a;" 
d="M727 1288q-222 0 -351 -165q-130 -165 -130 -445t129 -448q129 -169 346 -169q104 0 184 41t154 125l55 -59q-166 -192 -396 -192q-255 -1 -413 190q-158 192 -158 511t158 508t422 189q117 0 206 -49t144 -113l-57 -61q-119 137 -293 137zM702 1477q-34 1 -58 23t-24 59
t24 59t58 22t59 -22q23 -22 23 -60q0 -36 -23 -59q-24 -22 -59 -22z" />
    <glyph glyph-name="cdotaccent" unicode="&#x10b;" 
d="M1094 133q-167 -158 -391 -158t-375 138q-150 138 -150 379t155 379q155 137 369 137t367 -150l-53 -61q-140 131 -299 131q-197 0 -320 -122t-123 -316t121 -314q121 -121 311 -121t341 142zM707 1221q-41 1 -69 27t-28 71t28 72t69 27t69 -28q28 -26 27 -71
q1 -45 -27 -71t-69 -27z" />
    <glyph glyph-name="Ccaron" unicode="&#x10c;" 
d="M727 1288q-222 0 -351 -165q-130 -165 -130 -445t129 -448q129 -169 346 -169q104 0 184 41t154 125l55 -59q-166 -192 -396 -192q-255 -1 -413 190q-158 192 -158 511t158 508t422 189q117 0 206 -49t144 -113l-57 -61q-119 137 -293 137zM942 1669l-197 -217h-86
l-196 217h82l153 -147h9l153 147h82z" />
    <glyph glyph-name="ccaron" unicode="&#x10d;" 
d="M1094 133q-167 -158 -391 -158t-375 138q-150 138 -150 379t155 379q155 137 369 137t367 -150l-53 -61q-140 131 -299 131q-197 0 -320 -122t-123 -316t121 -314q121 -121 311 -121t341 142zM471 1454h78l153 -207h9l153 207h78l-194 -283h-82z" />
    <glyph glyph-name="Dcaron" unicode="&#x10e;" 
d="M498 80q261 0 390 163q130 163 130 437q0 422 -287 547q-98 43 -233 43h-207v-1190h207zM197 1350h309q305 0 457 -178q153 -178 153 -492q0 -490 -340 -632q-115 -48 -268 -48h-311v1350zM854 1669l-197 -217h-86l-196 217h82l153 -147h8l154 147h82z" />
    <glyph glyph-name="dcaron" unicode="&#x10f;" 
d="M918 782q-157 146 -313 146t-266 -125t-110 -314q0 -302 203 -402q66 -32 148 -32q167 0 338 181v546zM270 865q137 143 326 143q96 0 173 -37t155 -103l-6 199v406h92v-1473h-78l-10 145h-4q-66 -69 -156 -119t-190 -50t-181 33q-80 34 -137 100q-121 140 -121 376
q0 237 137 380zM1178 1544v-102l-19 -320h-55l-4 422h78z" />
    <glyph glyph-name="Dcroat" unicode="&#x110;" 
d="M510 80q261 0 390 163q130 163 130 437q0 422 -287 547q-98 43 -233 43h-207v-522h336v-68h-336v-600h207zM209 680h-158v59l158 9v602h309q305 0 458 -179q154 -179 152 -491q0 -490 -340 -632q-115 -48 -268 -48h-311v680z" />
    <glyph glyph-name="dcroat" unicode="&#x111;" 
d="M1014 0h-78l-10 145h-4q-66 -68 -156 -119t-190 -51q-203 0 -321 131t-118 359q0 227 137.5 364.5t325.5 137.5q96 0 173 -37t155 -103l-6 199v164h-377v67h377v216h92v-216h151v-59l-151 -8v-1190zM233 464q0 -181 92.5 -295t258.5 -114t338 181v505q-157 146 -313 146
t-266 -121t-110 -302z" />
    <glyph glyph-name="Emacron" unicode="&#x112;" 
d="M260 1350h799v-82h-705v-510h594v-82h-594v-594h725v-82h-819v1350zM455 1577h467v-74h-467v74z" />
    <glyph glyph-name="emacron" unicode="&#x113;" 
d="M1001 553q0 185 -95 281t-251 96t-270 -105t-133 -272h749zM688 -25q-118 0 -212 35q-195 72 -277 263q-41 95 -41 216q0 232 148 376q148 143 345 143q199 0 319 -122t120 -333v-37q0 -18 -5 -37h-833q4 -188 123 -307t298 -119t339 107l37 -70q-68 -43 -156 -79
q-87 -36 -205 -36zM416 1315h463v-74h-463v74z" />
    <glyph glyph-name="Ebreve" unicode="&#x114;" 
d="M260 1350h799v-82h-705v-510h594v-82h-594v-594h725v-82h-819v1350zM688 1522q107 0 152 94q12 27 16 53h68q-10 -85 -71 -149t-165 -64q-105 0 -165 65t-70 148h67q8 -53 48 -100t120 -47z" />
    <glyph glyph-name="ebreve" unicode="&#x115;" 
d="M1001 553q0 185 -95 281t-251 96t-270 -105t-133 -272h749zM688 -25q-118 0 -212 35q-195 72 -277 263q-41 95 -41 216q0 232 148 376q148 143 345 143q199 0 319 -122t120 -333v-37q0 -18 -5 -37h-833q4 -188 123 -307t298 -119t339 107l37 -70q-68 -43 -156 -79
q-87 -36 -205 -36zM647 1180q-63 0 -107 24q-120 64 -139 223h68q8 -72 41 -112q57 -68 137 -70q112 0 161 116q13 32 17 66h68q-15 -155 -138 -224q-45 -23 -108 -23z" />
    <glyph glyph-name="Edotaccent" unicode="&#x116;" 
d="M260 1350h799v-82h-705v-510h594v-82h-594v-594h725v-82h-819v1350zM688 1477q-34 1 -58 23t-24 59t24 59t58 22t58 -22t24 -60q0 -36 -24 -58t-58 -23z" />
    <glyph glyph-name="edotaccent" unicode="&#x117;" 
d="M1001 553q0 185 -95 281t-251 96t-270 -105t-133 -272h749zM688 -25q-118 0 -212 35q-195 72 -277 263q-41 95 -41 216q0 232 148 376q148 143 345 143q199 0 319 -122t120 -333v-37q0 -18 -5 -37h-833q4 -188 123 -307t298 -119t339 107l37 -70q-68 -43 -156 -79
q-87 -36 -205 -36zM647 1221q-41 1 -69 27t-27 71q0 45 28 72q29 27 69 27t68 -28q28 -26 28 -71t-28 -72q-28 -26 -69 -26z" />
    <glyph glyph-name="Eogonek" unicode="&#x118;" 
d="M1106 -371q-56 -49 -152 -49q-52 0 -103.5 41t-51.5 124t45 149.5t104 105.5h-688v1350h799v-82h-705v-510h594v-82h-594v-594h725v-82h-4q-72 -12 -133 -82t-61 -139.5t31.5 -96t75.5 -26.5t85 29z" />
    <glyph glyph-name="eogonek" unicode="&#x119;" 
d="M1001 553q0 186 -95 281.5t-255 95.5q-235 0 -352 -220q-37 -70 -47 -157h749zM1049 90q-250 -178 -250 -320q0 -62 29.5 -88t73.5 -26t85 29l33 -54q-59 -47 -132 -47t-120 41t-47 138q1 97 97 199q26 28 50 46q-76 -33 -187 -33t-205.5 35t-165 101.5t-111.5 162.5
t-41 216q0 232 147.5 375t346 143t318.5 -122t120 -333v-37q0 -18 -5 -37h-833q4 -190 123.5 -308t298.5 -118t338 107z" />
    <glyph glyph-name="Ecaron" unicode="&#x11a;" 
d="M260 1350h799v-82h-705v-510h594v-82h-594v-594h725v-82h-819v1350zM928 1669l-197 -217h-86l-196 217h81l154 -147h8l154 147h82z" />
    <glyph glyph-name="ecaron" unicode="&#x11b;" 
d="M1001 553q0 185 -95 281t-251 96t-270 -105t-133 -272h749zM688 -25q-118 0 -212 35q-195 72 -277 263q-41 95 -41 216q0 232 148 376q148 143 345 143q199 0 319 -122t120 -333v-37q0 -18 -5 -37h-833q4 -188 123 -307t298 -119t339 107l37 -70q-68 -43 -156 -79
q-87 -36 -205 -36zM412 1454h77l154 -207h8l154 207h78l-195 -283h-82z" />
    <glyph glyph-name="Gcircumflex" unicode="&#x11c;" 
d="M349 1123q-130 -166 -130 -448t127 -448t344 -166q90 0 168 27t125 76v420h-311v80h403v-535q-61 -68 -161 -111t-228 -43q-253 0 -410 190q-155 191 -155 511q0 321 160 509q160 189 421 189q175 0 298 -104q34 -29 61 -58l-55 -61q-123 137 -304 137q-221 0 -353 -165z
M440 1452l197 217h86l197 -217h-82l-154 147h-8l-154 -147h-82z" />
    <glyph glyph-name="gcircumflex" unicode="&#x11d;" 
d="M603 385q118 0 197 76t79 195t-79 197t-196 80q-116 1 -196 -79t-78 -197q0 -61 21 -111q45 -102 146 -142q50 -20 106 -19zM549 84h244q188 0 273 -51t85 -176t-141 -226q-150 -104 -380 -104t-344 78t-114 207q0 59 43 120t123 111v8q-37 17 -70 57t-32 101
q0 104 118 186v8q-118 98 -117 253q1 156 109 254t258 98q76 0 135 -25h410v-76h-299q117 -112 117 -255t-106 -241t-257 -98q-94 0 -186 45q-98 -61 -96 -137q0 -137 227 -137zM258 -190q0 -90 90 -150t279 -59q189 0 310 77q120 77 120 168q1 92 -63 122t-193 30h-234
q-86 0 -149 18q-160 -84 -160 -206zM592 1454h82l194 -283h-77l-154 207h-8l-154 -207h-78z" />
    <glyph glyph-name="Gbreve" unicode="&#x11e;" 
d="M349 1123q-130 -166 -130 -448t127 -448t344 -166q90 0 168 27t125 76v420h-311v80h403v-535q-61 -68 -161 -111t-228 -43q-253 0 -410 190q-155 191 -155 511q0 321 160 509q160 189 421 189q175 0 298 -104q34 -29 61 -58l-55 -61q-123 137 -304 137q-221 0 -353 -165z
M680 1522q109 0 151 94q12 27 17 53h67q-10 -86 -70 -149q-60 -64 -165 -64t-164 64q-60 64 -72 149h68q8 -53 48 -100t120 -47z" />
    <glyph glyph-name="gbreve" unicode="&#x11f;" 
d="M603 385q118 0 197 76t79 195t-79 197t-196 80q-116 1 -196 -79t-78 -197q0 -61 21 -111q45 -102 146 -142q50 -20 106 -19zM549 84h244q188 0 273 -51t85 -176t-141 -226q-150 -104 -380 -104t-344 78t-114 207q0 59 43 120t123 111v8q-37 17 -70 57t-32 101
q0 104 118 186v8q-118 98 -117 253q1 156 109 254t258 98q76 0 135 -25h410v-76h-299q117 -112 117 -255t-106 -241t-257 -98q-94 0 -186 45q-98 -61 -96 -137q0 -137 227 -137zM258 -190q0 -90 90 -150t279 -59q189 0 310 77q120 77 120 168q1 92 -63 122t-193 30h-234
q-86 0 -149 18q-160 -84 -160 -206zM633 1180q-115 0 -181 84q-53 66 -65 163h68q8 -72 41 -112q57 -68 137 -70q112 0 161 116q13 32 17 66h68q-15 -157 -139 -224q-44 -23 -107 -23z" />
    <glyph glyph-name="Gdotaccent" unicode="&#x120;" 
d="M349 1123q-130 -166 -130 -448t127 -448t344 -166q90 0 168 27t125 76v420h-311v80h403v-535q-61 -68 -161 -111t-228 -43q-253 0 -410 190q-155 191 -155 511q0 321 160 509q160 189 421 189q175 0 298 -104q34 -29 61 -58l-55 -61q-123 137 -304 137q-221 0 -353 -165z
M680 1477q-34 1 -58 23t-24 59t24 59t58 22t58 -22t24 -60q0 -36 -24 -58t-58 -23z" />
    <glyph glyph-name="gdotaccent" unicode="&#x121;" 
d="M603 385q118 0 197 76t79 195t-79 197t-196 80q-116 1 -196 -79t-78 -197q0 -61 21 -111q45 -102 146 -142q50 -20 106 -19zM549 84h244q188 0 273 -51t85 -176t-141 -226q-150 -104 -380 -104t-344 78t-114 207q0 59 43 120t123 111v8q-37 17 -70 57t-32 101
q0 104 118 186v8q-118 98 -117 253q1 156 109 254t258 98q76 0 135 -25h410v-76h-299q117 -112 117 -255t-106 -241t-257 -98q-94 0 -186 45q-98 -61 -96 -137q0 -137 227 -137zM258 -190q0 -90 90 -150t279 -59q189 0 310 77q120 77 120 168q1 92 -63 122t-193 30h-234
q-86 0 -149 18q-160 -84 -160 -206zM633 1221q-41 1 -69 27t-27 71q0 45 27 72q28 27 69 27t69 -28q28 -26 27 -71q1 -45 -27 -71t-69 -27z" />
    <glyph glyph-name="uni0122" unicode="&#x122;" 
d="M349 1123q-130 -166 -130 -448t127 -448t344 -166q90 0 168 27t125 76v420h-311v80h403v-535q-61 -68 -161 -111t-228 -43q-253 0 -410 190q-155 191 -155 511q0 321 160 509q160 189 421 189q175 0 298 -104q34 -29 61 -58l-55 -61q-123 137 -304 137q-221 0 -353 -165z
M637 -104q170 -32 170 -139q0 -87 -76 -130t-180 -55l-14 61q190 27 190 103q0 46 -36 68t-81 32z" />
    <glyph glyph-name="uni0123" unicode="&#x123;" 
d="M603 385q118 0 197 76t79 195t-79 197t-196 80q-116 1 -196 -79t-78 -197q0 -61 21 -111q45 -102 146 -142q50 -20 106 -19zM549 84h244q188 0 273 -51t85 -176t-141 -226q-150 -104 -380 -104t-344 78t-114 207q0 59 43 120t123 111v8q-37 17 -70 57t-32 101
q0 104 118 186v8q-118 98 -117 253q1 156 109 254t258 98q76 0 135 -25h410v-76h-299q117 -112 117 -255t-106 -241t-257 -98q-94 0 -186 45q-98 -61 -96 -137q0 -137 227 -137zM258 -190q0 -90 90 -150t279 -59q189 0 310 77q120 77 120 168q1 92 -63 122t-193 30h-234
q-86 0 -149 18q-160 -84 -160 -206zM682 1104q-172 32 -172 137q0 89 75 131t183 55l12 -61q-188 -26 -188 -102q0 -47 36 -69t79 -32z" />
    <glyph glyph-name="Hcircumflex" unicode="&#x124;" 
d="M182 1350h94v-592h676v592h95v-1350h-95v676h-676v-676h-94v1350zM375 1452l196 217h86l197 -217h-82l-154 147h-8l-153 -147h-82z" />
    <glyph glyph-name="hcircumflex" unicode="&#x125;" 
d="M215 1473h92v-426l-6 -259q92 96 185 158t212 62q354 0 355 -396v-612h-92v600q0 166 -65 246t-212 80q-101 0 -180 -50t-197 -171v-705h-92v1473zM55 1532l197 217h86l197 -217h-82l-154 147h-8l-154 -147h-82z" />
    <glyph glyph-name="Hbar" unicode="&#x126;" 
d="M1200 1014h-153v-1014h-95v676h-676v-676h-94v1014h-153v59l153 8v269h94v-269h676v269h95v-269h153v-67zM952 1014h-676v-256h676v256z" />
    <glyph glyph-name="hbar" unicode="&#x127;" 
d="M698 967q354 0 355 -396v-571h-92v559q0 166 -65 246t-209 80t-235.5 -83t-144.5 -138v-664h-92v1190h-156v59l156 8v216h92v-216h469v-67h-469v-184l-6 -258q92 96 185.5 157.5t211.5 61.5z" />
    <glyph glyph-name="Itilde" unicode="&#x128;" 
d="M219 82h348v1186h-348v82h791v-82h-348v-1186h348v-82h-791v82zM490 1583q-32 0 -54 -32q-23 -32 -28 -85h-60q5 79 41 129q39 58 92 59q55 0 85 -18t79 -56t87 -39t61 30t28 84h60q-4 -73 -42 -131t-100 -58q-61 0 -136 59q-29 22 -55 40t-58 18z" />
    <glyph glyph-name="itilde" unicode="&#x129;" 
d="M199 983h583v-983h-90v905h-493v78zM829 1260q65 0 78 114h62q-4 -70 -29 -111q-24 -41 -51 -57t-64 -16q-56 0 -123 57t-102 58q-66 0 -78 -115h-61q8 125 80 168q27 16 72 16t114 -58q27 -22 51 -39t51 -17z" />
    <glyph glyph-name="Imacron" unicode="&#x12a;" 
d="M219 82h348v1186h-348v82h791v-82h-348v-1186h348v-82h-791v82zM381 1577h467v-74h-467v74z" />
    <glyph glyph-name="imacron" unicode="&#x12b;" 
d="M199 983h583v-983h-90v905h-493v78zM483 1315h463v-74h-463v74z" />
    <glyph glyph-name="uni012C" unicode="&#x12c;" 
d="M219 82h348v1186h-348v82h791v-82h-348v-1186h348v-82h-791v82zM614 1522q107 0 152 94q12 27 16 53h68q-10 -85 -71 -149t-165 -64q-105 0 -165 65t-70 148h67q8 -53 48 -100t120 -47z" />
    <glyph glyph-name="uni012D" unicode="&#x12d;" 
d="M199 983h583v-983h-90v905h-493v78zM715 1180q-115 0 -176 76t-70 171h68q8 -72 41 -112q57 -68 137 -70q112 0 161 116q13 32 17 66h68q-15 -157 -139 -224q-44 -23 -107 -23z" />
    <glyph glyph-name="Iogonek" unicode="&#x12e;" 
d="M633.5 -420q-74.5 0 -124.5 41t-50 126t36.5 142.5t88.5 110.5h-365v82h348v1186h-348v82h791v-82h-348v-1186h348v-82h-348q-53 -59 -88 -114.5t-35 -116t31.5 -87t75.5 -26.5t85 29l33 -56q-56 -49 -130.5 -49z" />
    <glyph glyph-name="iogonek" unicode="&#x12f;" 
d="M715 1221q-41 0 -69 26.5t-28 71.5t28 71.5t69 26.5t68.5 -26.5t27.5 -71.5t-27.5 -71.5t-68.5 -26.5zM747 -416q-74 0 -121.5 41t-47.5 122t40.5 142.5t88.5 110.5h-15v905h-493v78h583v-983q-125 -130 -125 -238q0 -53 30 -79.5t74 -26.5t85 29l33 -54
q-58 -47 -132 -47z" />
    <glyph glyph-name="Idotaccent" unicode="&#x130;" 
d="M219 82h348v1186h-348v82h791v-82h-348v-1186h348v-82h-791v82zM614 1477q-34 1 -58 23t-24 59t24 59t58 22t59 -22q23 -22 23 -60q0 -36 -23 -59q-24 -22 -59 -22z" />
    <glyph glyph-name="dotlessi" unicode="&#x131;" 
d="M199 983h583v-983h-90v905h-493v78z" />
    <glyph glyph-name="Jcircumflex" unicode="&#x134;" 
d="M889 426v846h-588v80h682v-934q0 -206 -90 -314q-107 -129 -326 -129q-115 -1 -216 55t-161 171l76 53q115 -195 293 -195q178 1 254 91t76 276zM416 1452l196 217h86l197 -217h-82l-154 147h-8l-153 -147h-82z" />
    <glyph glyph-name="jcircumflex" unicode="&#x135;" 
d="M385 -391q182 0 245 78q62 78 62 225v993h-493v78h583v-1059q0 -194 -83 -286q-92 -107 -302 -107q-147 0 -268 66l37 71q115 -59 219 -59zM674 1454h82l194 -283h-78l-153 207h-8l-154 -207h-78z" />
    <glyph glyph-name="uni0136" unicode="&#x136;" 
d="M236 1350h96v-750h4l665 750h111l-436 -500l493 -850h-108l-451 778l-278 -313v-465h-96v1350zM657 -104q170 -32 170 -139q0 -87 -75 -130q-75 -42 -181 -55l-14 61q189 26 191 103q0 46 -36 68t-81 32z" />
    <glyph glyph-name="uni0137" unicode="&#x137;" 
d="M252 1473h92v-1082h8l631 592h113l-404 -381l469 -602h-104l-428 547l-285 -268v-279h-92v1473zM649 -104q170 -32 170 -139q1 -52 -21 -82q-58 -81 -235 -103l-14 61q190 27 190 103q0 46 -36 68t-80 32z" />
    <glyph glyph-name="kgreenlandic" unicode="&#x138;" 
d="M252 983h92v-596l639 596h113l-404 -381l469 -602h-104l-428 545l-285 -271v-274h-92v983z" />
    <glyph glyph-name="Lacute" unicode="&#x139;" 
d="M307 1350h90v-1268h707v-82h-797v1350zM391 1452h-82l189 217h118z" />
    <glyph glyph-name="lacute" unicode="&#x13a;" 
d="M555 297v1098h-365v78h455v-1188q0 -229 213 -230q90 0 205 54l29 -72q-143 -61 -246 -62q-291 0 -291 322zM588 1556h-82l188 218h119z" />
    <glyph glyph-name="uni013B" unicode="&#x13b;" 
d="M307 1350h90v-1268h707v-82h-797v1350zM676 -104q170 -32 170 -139q0 -87 -76 -130t-180 -55l-15 61q191 27 191 103q0 46 -36 68t-81 32z" />
    <glyph glyph-name="uni013C" unicode="&#x13c;" 
d="M555 297v1098h-365v78h455v-1188q0 -229 213 -230q90 0 205 54l29 -72q-143 -61 -246 -62q-291 0 -291 322zM719 -104q170 -32 170 -139q0 -87 -76 -130t-180 -55l-15 61q191 27 191 103q0 46 -36 68t-81 32z" />
    <glyph glyph-name="Lcaron" unicode="&#x13d;" 
d="M307 1350h90v-1268h707v-82h-797v1350zM874 1483v-103l-18 -319h-55l-4 422h77z" />
    <glyph glyph-name="lcaron" unicode="&#x13e;" 
d="M555 297v1098h-365v78h455v-1188q0 -229 213 -230q90 0 205 54l29 -72q-143 -61 -246 -62q-291 0 -291 322zM881 1544v-102l-19 -320h-55l-4 422h78z" />
    <glyph glyph-name="Ldot" unicode="&#x13f;" 
d="M307 1350h90v-1268h707v-82h-797v1350zM854 606q-41 0 -69 27t-27 72q0 45 28 71t68 27q41 0 69 -27q27 -28 27 -72t-28 -71t-68 -27z" />
    <glyph glyph-name="ldot" unicode="&#x140;" 
d="M492 1395h-365v78h455v-1188q0 -229 213 -230q90 0 204 54l29 -72q-143 -61 -246 -62q-292 0 -290 322v1098zM854 606q-41 0 -69 27t-27 72q0 45 28 71t68 27q41 0 69 -27q27 -28 27 -72t-28 -71t-68 -27z" />
    <glyph glyph-name="Lslash" unicode="&#x141;" 
d="M1104 82v-82h-797v502l-174 -92v82l174 92v766h90v-723l486 252v-82l-486 -252v-463h707z" />
    <glyph glyph-name="lslash" unicode="&#x142;" 
d="M846 -25q-291 0 -291 322v451l-266 -156v88l266 154v561h-365v78h455v-588l350 198v-88l-350 -198v-512q0 -229 213 -230q90 0 205 54l29 -72q-59 -25 -116.5 -43.5t-129.5 -18.5z" />
    <glyph glyph-name="Nacute" unicode="&#x143;" 
d="M279 0h-91v1350h99l671 -1221h5q-13 318 -13 391v830h90v-1350h-98l-672 1221h-4q12 -296 13 -385v-836zM633 1452h-82l188 217h119z" />
    <glyph glyph-name="nacute" unicode="&#x144;" 
d="M215 983h78l10 -188h8q86 92 177 152t210 61q354 0 355 -396v-612h-92v600q0 166 -65 246t-212 80q-101 0 -180 -50t-197 -171v-705h-92v983zM616 1171h-77l188 283h109z" />
    <glyph glyph-name="uni0145" unicode="&#x145;" 
d="M279 0h-91v1350h99l671 -1221h5q-13 318 -13 391v830h90v-1350h-98l-672 1221h-4q12 -296 13 -385v-836zM563 -104q170 -32 170 -139q1 -52 -21 -82q-58 -81 -235 -103l-14 61q190 27 190 103q0 46 -36 68t-80 32z" />
    <glyph glyph-name="uni0146" unicode="&#x146;" 
d="M215 983h78l10 -188h8q86 92 177 152t210 61q354 0 355 -396v-612h-92v600q0 166 -65 246t-212 80q-101 0 -180 -50t-197 -171v-705h-92v983zM598 -104q170 -32 170 -139q0 -87 -76 -130t-180 -55l-14 61q190 27 190 103q0 46 -36 68t-81 32z" />
    <glyph glyph-name="Ncaron" unicode="&#x147;" 
d="M279 0h-91v1350h99l671 -1221h5q-13 318 -13 391v830h90v-1350h-98l-672 1221h-4q12 -296 13 -385v-836zM866 1669l-196 -217h-86l-197 217h82l154 -147h8l153 147h82z" />
    <glyph glyph-name="ncaron" unicode="&#x148;" 
d="M215 983h78l10 -188h8q86 92 177 152t210 61q354 0 355 -396v-612h-92v600q0 166 -65 246t-212 80q-101 0 -180 -50t-197 -171v-705h-92v983zM418 1454h78l153 -207h8l154 207h78l-195 -283h-82z" />
    <glyph glyph-name="napostrophe" unicode="&#x149;" 
d="M838 1008q330 0 329 -377v-631h-90v618q0 156 -59.5 232t-194.5 76q-95 0 -174.5 -49.5t-179.5 -153.5v-723h-92v983h78l10 -170h8q80 84 166 139.5t199 55.5zM114 1180q-40 0 -74 34t-34 90t35 93t93 37t103.5 -53.5t45.5 -147.5q0 -147 -71 -264t-185 -181l-41 62
q186 125 202 350q-34 -20 -74 -20z" />
    <glyph glyph-name="Omacron" unicode="&#x14c;" 
d="M1020 680q0 277 -112 442q-112 166 -294 166t-293 -167q-112 -167 -112 -442q0 -276 112 -447t293 -171q182 0 294 171t112 448zM110 680q1 318 141 506q139 188 363 188q223 0 364 -188q140 -188 140 -506t-141 -512q-143 -193 -363 -193q-219 0 -362 193
q-143 194 -142 512zM381 1577h467v-74h-467v74z" />
    <glyph glyph-name="omacron" unicode="&#x14d;" 
d="M233 490q0 -191 107 -313q106 -122 274 -122q167 0 275 123t107 313q-1 191 -107 314t-275 123q-84 0 -153 -32q-140 -64 -199 -228q-29 -80 -29 -178zM137 493q0 240 139 377q139 138 340 138t338 -139q138 -139 138 -379t-139 -377q-139 -138 -340 -138t-338 139
q-138 139 -138 379zM383 1315h463v-74h-463v74z" />
    <glyph glyph-name="uni014E" unicode="&#x14e;" 
d="M1020 680q0 277 -112 442q-112 166 -294 166t-293 -167q-112 -167 -112 -442q0 -276 112 -447t293 -171q182 0 294 171t112 448zM110 680q1 318 141 506q139 188 363 188q223 0 364 -188q140 -188 140 -506t-141 -512q-143 -193 -363 -193q-219 0 -362 193
q-143 194 -142 512zM614 1522q107 0 152 94q12 27 16 53h68q-10 -85 -71 -149t-165 -64q-105 0 -165 65t-70 148h67q8 -53 48 -100t120 -47z" />
    <glyph glyph-name="uni014F" unicode="&#x14f;" 
d="M233 490q0 -191 107 -313q106 -122 274 -122q167 0 275 123t107 313q-1 191 -107 314t-275 123q-84 0 -153 -32q-140 -64 -199 -228q-29 -80 -29 -178zM137 493q0 240 139 377q139 138 340 138t338 -139q138 -139 138 -379t-139 -377q-139 -138 -340 -138t-338 139
q-138 139 -138 379zM614 1180q-63 0 -107 24q-123 65 -138 223h67q8 -69 41 -110q57 -70 137 -72q112 0 161 116q13 32 18 66h67q-15 -157 -138 -224q-45 -23 -108 -23z" />
    <glyph glyph-name="Ohungarumlaut" unicode="&#x150;" 
d="M1020 680q0 277 -112 442q-112 166 -294 166t-293 -167q-112 -167 -112 -442q0 -276 112 -447t293 -171q182 0 294 171t112 448zM110 680q1 318 141 506q139 188 363 188q223 0 364 -188q140 -188 140 -506t-141 -512q-143 -193 -363 -193q-219 0 -362 193
q-143 194 -142 512zM860 1669h101l-164 -217h-74zM426 1452l137 217h101l-164 -217h-74z" />
    <glyph glyph-name="ohungarumlaut" unicode="&#x151;" 
d="M233 490q0 -191 107 -313q106 -122 274 -122q167 0 275 123t107 313q-1 191 -107 314t-275 123q-84 0 -153 -32q-140 -64 -199 -228q-29 -80 -29 -178zM137 493q0 240 139 377q139 138 340 138t338 -139q138 -139 138 -379t-139 -377q-139 -138 -340 -138t-338 139
q-138 139 -138 379zM866 1450h95l-173 -283h-69zM594 1450h92l-170 -283h-70z" />
    <glyph glyph-name="OE" unicode="&#x152;" 
d="M286 241.5q106 -161.5 320 -161.5h47v1192h-47q-214 0 -320 -157.5t-106 -434.5t106 -438.5zM222 1172q138 180 394 180h570v-80h-441v-514h336v-82h-336v-594h461v-82h-590q-256 0 -394 182t-138 496t138 494z" />
    <glyph glyph-name="oe" unicode="&#x153;" 
d="M1145 549q1 261 -103 349q-38 32 -94 32q-108 0 -168.5 -102.5t-72.5 -278.5h438zM958 -25q-91 0 -170 69t-122 202q-43 -133 -119 -202t-163 -69t-151.5 35t-111.5 100.5t-74 161.5q-27 98 -27 220q0 240 99 378t252 138q100 0 177 -72t118 -205q43 129 110.5 203
t187.5 74t191.5 -125t71.5 -310v-41q0 -22 -4 -53h-514q0 -189 68.5 -307.5t209.5 -118.5q78 0 176 70l35 -64q-43 -31 -96 -57.5t-144 -26.5zM111 491.5q0 -198.5 69 -319.5t186 -121t189 122.5t72 318t-71.5 317t-190 121.5t-186.5 -120t-68 -318.5z" />
    <glyph glyph-name="Racute" unicode="&#x154;" 
d="M334 621v-621h-94v1350h385q321 0 412 -193q32 -68 32 -164q0 -162 -93 -253t-253 -113l373 -627h-111l-364 621h-287zM600 698q373 0 373 295q0 152 -96 214t-277 63h-266v-572h266zM633 1452h-82l188 217h119z" />
    <glyph glyph-name="racute" unicode="&#x155;" 
d="M426 0h-92v983h78l10 -242h4q80 117 198 192t249 75t212 -41l-24 -80q-99 33 -204 34t-217 -69t-214 -238v-614zM666 1171h-78l188 283h109z" />
    <glyph glyph-name="uni0156" unicode="&#x156;" 
d="M334 621v-621h-94v1350h385q321 0 412 -193q32 -68 32 -164q0 -162 -93 -253t-253 -113l373 -627h-111l-364 621h-287zM600 698q373 0 373 295q0 152 -96 214t-277 63h-266v-572h266zM604 -104q170 -32 170 -139q0 -52 -22 -82q-58 -81 -234 -103l-14 61q190 27 190 103
q0 46 -36 68t-80 32z" />
    <glyph glyph-name="uni0157" unicode="&#x157;" 
d="M426 0h-92v983h78l10 -242h4q80 117 198 192t249 75t212 -41l-24 -80q-99 33 -204 34t-217 -69t-214 -238v-614zM358 -104q170 -32 170 -139q0 -87 -75 -130q-75 -42 -181 -55l-14 61q189 26 191 103q0 46 -36 68t-81 32z" />
    <glyph glyph-name="Rcaron" unicode="&#x158;" 
d="M334 621v-621h-94v1350h385q321 0 412 -193q32 -68 32 -164q0 -162 -93 -253t-253 -113l373 -627h-111l-364 621h-287zM600 698q373 0 373 295q0 152 -96 214t-277 63h-266v-572h266zM866 1669l-196 -217h-86l-197 217h82l154 -147h8l153 147h82z" />
    <glyph glyph-name="rcaron" unicode="&#x159;" 
d="M426 0h-92v983h78l10 -242h4q80 117 198 192t249 75t212 -41l-24 -80q-99 33 -204 34t-217 -69t-214 -238v-614zM467 1454h78l153 -207h9l153 207h78l-195 -283h-81z" />
    <glyph glyph-name="Sacute" unicode="&#x15a;" 
d="M989 332q0 158 -163 236q-48 24 -101 46l-205 93q-120 46 -178 99q-57 52 -86 106t-29 129q0 146 118 241q118 94 294 92q129 0 230 -48t167 -114l-55 -63q-139 139 -342 139q-143 0 -230 -66t-87 -175q0 -137 168 -223q44 -22 85 -38l203 -90q145 -59 200 -114
q56 -54 81 -110t25 -134t-32 -144q-63 -134 -234 -191q-83 -28 -212 -28q-129 1 -248 57t-202 146l61 66q168 -181 416 -183q166 0 261 75t95 196zM647 1452h-82l189 217h118z" />
    <glyph glyph-name="sacute" unicode="&#x15b;" 
d="M938 821q-147 109 -313 109q-167 0 -235 -50t-70 -125t88 -123t224 -81q243 -60 334 -125t92 -178t-109 -193t-280 -80q-281 0 -499 156l51 66q80 -66 182 -105t255 -39q153 1 230 59t77 133t-73 126q-73 52 -280 102q-268 64 -357 182q-30 41 -30 92q0 113 97 186
t288 75q98 0 202 -35t175 -86zM575 1171h-77l188 283h109z" />
    <glyph glyph-name="Scircumflex" unicode="&#x15c;" 
d="M989 332q0 158 -163 236q-48 24 -101 46l-205 93q-120 46 -178 99q-57 52 -86 106t-29 129q0 146 118 241q118 94 294 92q129 0 230 -48t167 -114l-55 -63q-139 139 -342 139q-143 0 -230 -66t-87 -175q0 -137 168 -223q44 -22 85 -38l203 -90q145 -59 200 -114
q56 -54 81 -110t25 -134t-32 -144q-63 -134 -234 -191q-83 -28 -212 -28q-129 1 -248 57t-202 146l61 66q168 -181 416 -183q166 0 261 75t95 196zM401 1452l197 217h86l197 -217h-82l-154 147h-8l-154 -147h-82z" />
    <glyph glyph-name="scircumflex" unicode="&#x15d;" 
d="M938 821q-147 109 -313 109q-167 0 -235 -50t-70 -125t88 -123t224 -81q243 -60 334 -125t92 -178t-109 -193t-280 -80q-281 0 -499 156l51 66q80 -66 182 -105t255 -39q153 1 230 59t77 133t-73 126q-73 52 -280 102q-268 64 -357 182q-30 41 -30 92q0 113 97 186
t288 75q98 0 202 -35t175 -86zM571 1454h82l195 -283h-78l-154 207h-8l-153 -207h-78z" />
    <glyph glyph-name="uni015E" unicode="&#x15e;" 
d="M989 332q0 158 -163 236q-48 24 -101 46l-205 93q-120 46 -178 99q-57 52 -86 106t-29 129q0 146 118 241q118 94 294 92q129 0 230 -48t167 -114l-55 -63q-139 139 -342 139q-143 0 -230 -66t-87 -175q0 -137 168 -223q44 -22 85 -38l203 -90q145 -59 200 -114
q56 -54 81 -110t25 -134t-32 -144q-63 -134 -234 -191q-64 -21 -140 -26l-45 -88q123 -40 123 -141q0 -107 -162 -155q-47 -13 -96 -19l-13 61q189 26 189 105q0 47 -38 70t-97 38l67 128q-273 10 -450 202l61 66q168 -181 416 -183q166 0 261 75t95 196z" />
    <glyph glyph-name="uni015F" unicode="&#x15f;" 
d="M684 -260q0 47 -39 70t-98 38l67 128q-240 9 -444 155l51 66q80 -66 182 -105t255 -39q153 1 230 59t77 133t-73 126q-73 52 -280 102q-268 64 -357 182q-30 41 -30 92q0 113 97 186t288 75q98 0 202 -35t175 -86l-49 -66q-147 109 -313 109q-167 0 -235 -50t-70 -125
t88 -123t224 -81q243 -60 334 -125t92 -178t-104 -189q-105 -77 -268 -83l-45 -87q123 -40 123 -141q0 -106 -161 -155q-46 -13 -95 -19l-14 61q190 27 190 105z" />
    <glyph glyph-name="Scaron" unicode="&#x160;" 
d="M989 332q0 158 -163 236q-48 24 -101 46l-205 93q-120 46 -178 99q-57 52 -86 106t-29 129q0 146 118 241q118 94 294 92q129 0 230 -48t167 -114l-55 -63q-139 139 -342 139q-143 0 -230 -66t-87 -175q0 -137 168 -223q44 -22 85 -38l203 -90q145 -59 200 -114
q56 -54 81 -110t25 -134t-32 -144q-63 -134 -234 -191q-83 -28 -212 -28q-129 1 -248 57t-202 146l61 66q168 -181 416 -183q166 0 261 75t95 196zM881 1669l-197 -217h-86l-197 217h82l154 -147h8l154 147h82z" />
    <glyph glyph-name="scaron" unicode="&#x161;" 
d="M938 821q-147 109 -313 109q-167 0 -235 -50t-70 -125t88 -123t224 -81q243 -60 334 -125t92 -178t-109 -193t-280 -80q-281 0 -499 156l51 66q80 -66 182 -105t255 -39q153 1 230 59t77 133t-73 126q-73 52 -280 102q-268 64 -357 182q-30 41 -30 92q0 113 97 186
t288 75q98 0 202 -35t175 -86zM377 1454h78l153 -207h8l154 207h78l-195 -283h-82z" />
    <glyph glyph-name="uni0162" unicode="&#x162;" 
d="M637 -260q0 47 -38 70t-97 38l80 152h-15v1268h-469v82h1032v-82h-468v-1268h-9l-57 -111q123 -40 123 -141q0 -107 -162 -155q-47 -13 -96 -19l-12 61q188 26 188 105z" />
    <glyph glyph-name="uni0163" unicode="&#x163;" 
d="M811 -260q0 47 -39 70t-98 38l69 131q-215 27 -265 229q-17 73 -17 161v536h-297v70l299 8l12 285h76v-285h524v-78h-524v-545q0 -153 58 -228t205 -76t273 50l25 -69q-136 -60 -299 -62l-45 -86q123 -40 123 -141q0 -106 -161 -155q-46 -13 -95 -19l-14 61
q190 27 190 105z" />
    <glyph glyph-name="Tcaron" unicode="&#x164;" 
d="M567 1268h-469v82h1032v-82h-468v-1268h-95v1268zM854 1669l-197 -217h-86l-196 217h82l153 -147h8l154 147h82z" />
    <glyph glyph-name="tcaron" unicode="&#x165;" 
d="M461 369v536h-297v70l299 8l12 285h76v-285h524v-78h-524v-545q0 -153 58 -228t205 -76t273 50l25 -69q-136 -60 -268 -61q-133 -1 -201 28q-182 78 -182 365zM891 1544v-102l-19 -320h-55l-4 422h78z" />
    <glyph glyph-name="Utilde" unicode="&#x168;" 
d="M182 1350h94v-834q0 -242 94 -348q94 -107 244 -107q241 0 317 237q28 87 27 218v834h89v-844q0 -285 -132 -419q-110 -112 -301 -112q-300 0 -396 275q-36 102 -36 256v844zM490 1583q-32 0 -54 -32q-23 -32 -28 -85h-60q5 79 41 129q39 58 92 59q55 0 85 -18t79 -56
t87 -39t61 30t28 84h60q-4 -73 -42 -131t-100 -58q-61 0 -136 59q-29 22 -55 40t-58 18z" />
    <glyph glyph-name="utilde" unicode="&#x169;" 
d="M178 371v612h90v-600q0 -166 65 -246t210 -80t282 124q45 42 97 100v702h90v-983h-76l-10 190h-8q-182 -213 -375 -214q-193 -2 -279 96t-86 299zM719 1260q63 0 78 114h61q-8 -125 -80 -168q-27 -16 -74 -16t-113 57t-102 58q-66 0 -77 -115h-62q8 125 80 168
q27 16 72 16t114 -58q27 -22 52 -39t51 -17z" />
    <glyph glyph-name="Umacron" unicode="&#x16a;" 
d="M182 1350h94v-834q0 -242 94 -348q94 -107 244 -107q241 0 317 237q28 87 27 218v834h89v-844q0 -285 -132 -419q-110 -112 -301 -112q-300 0 -396 275q-36 102 -36 256v844zM381 1577h467v-74h-467v74z" />
    <glyph glyph-name="umacron" unicode="&#x16b;" 
d="M178 371v612h90v-600q0 -166 65 -246t210 -80t282 124q45 42 97 100v702h90v-983h-76l-10 190h-8q-182 -213 -375 -214q-193 -2 -279 96t-86 299zM373 1315h463v-74h-463v74z" />
    <glyph glyph-name="Ubreve" unicode="&#x16c;" 
d="M182 1350h94v-834q0 -242 94 -348q94 -107 244 -107q241 0 317 237q28 87 27 218v834h89v-844q0 -285 -132 -419q-110 -112 -301 -112q-300 0 -396 275q-36 102 -36 256v844zM614 1522q107 0 152 94q12 27 16 53h68q-10 -85 -71 -149t-165 -64q-105 0 -165 65t-70 148h67
q8 -53 48 -100t120 -47z" />
    <glyph glyph-name="ubreve" unicode="&#x16d;" 
d="M178 371v612h90v-600q0 -166 65 -246t210 -80t282 124q45 42 97 100v702h90v-983h-76l-10 190h-8q-182 -213 -375 -214q-193 -2 -279 96t-86 299zM604 1180q-63 0 -107 24q-120 64 -139 223h68q8 -72 41 -112q57 -68 137 -70q112 0 161 116q13 32 17 66h68
q-15 -155 -138 -224q-45 -23 -108 -23z" />
    <glyph glyph-name="Uring" unicode="&#x16e;" 
d="M182 1350h94v-834q0 -242 94 -348q94 -107 244 -107q241 0 317 237q28 87 27 218v834h89v-844q0 -285 -132 -419q-110 -112 -301 -112q-300 0 -396 275q-36 102 -36 256v844zM508 1600q0 -55 30 -84t74 -29q43 0 75 29t32 84t-32 86q-32 30 -75 30q-44 0 -74 -30t-30 -86
zM613 1434q-71 0 -119 45t-48 122t48 123t120 45q70 0 119 -46q49 -47 49 -123t-49 -121t-120 -45z" />
    <glyph glyph-name="uring" unicode="&#x16f;" 
d="M178 371v612h90v-600q0 -166 65 -246t210 -80t282 124q45 42 97 100v702h90v-983h-76l-10 190h-8q-182 -213 -375 -214q-193 -2 -279 96t-86 299zM604 1157q45 0 76 34t31 90t-31 90t-76 34t-76 -34q-30 -34 -30 -90t30 -90t76 -34zM604 1104q-72 0 -120 49t-48 128
t48 128t120 49t120 -49t48 -128t-48 -128t-120 -49z" />
    <glyph glyph-name="Uhungarumlaut" unicode="&#x170;" 
d="M182 1350h94v-834q0 -242 94 -348q94 -107 244 -107q241 0 317 237q28 87 27 218v834h89v-844q0 -285 -132 -419q-110 -112 -301 -112q-300 0 -396 275q-36 102 -36 256v844zM860 1669h101l-164 -217h-74zM426 1452l137 217h101l-164 -217h-74z" />
    <glyph glyph-name="uhungarumlaut" unicode="&#x171;" 
d="M178 371v612h90v-600q0 -166 65 -246t210 -80t282 124q45 42 97 100v702h90v-983h-76l-10 190h-8q-182 -213 -375 -214q-193 -2 -279 96t-86 299zM856 1450h94l-172 -283h-69zM584 1450h92l-170 -283h-70z" />
    <glyph glyph-name="Uogonek" unicode="&#x172;" 
d="M805 -371q-57 -49 -153 -49q-52 0 -103 41t-51 134t88 177q24 24 47 45q-451 -8 -451 529v844h94v-834q0 -356 208 -432q62 -22 128 -23q154 0 250 107t96 348v834h89v-844q0 -308 -154 -436q-47 -39 -100 -64q-100 -45 -156.5 -113.5t-56.5 -126t31.5 -84t75.5 -26.5
t85 29z" />
    <glyph glyph-name="uogonek" unicode="&#x173;" 
d="M836 -238q0 -53 30.5 -79.5t75.5 -26.5t82 29l33 -54q-23 -20 -62 -33.5t-71 -13.5q-72 0 -119 41t-47 122t49 144.5t129 122.5l-10 176h-8q-80 -94 -174.5 -154.5t-213.5 -60.5q-180 0 -266 97.5t-86 298.5v612h90v-600q0 -166 64.5 -246t212 -80t280.5 124
q45 42 97 100v702h90v-983q-176 -108 -176 -238z" />
    <glyph glyph-name="Wcircumflex" unicode="&#x174;" 
d="M29 1352h88l145 -924q10 -82 22 -162t21 -164h4q25 84 49 164q25 80 48 162l167 571h86l172 -571q23 -82 47 -163t46 -163h8q10 82 21 163t22 163l139 924h86l-217 -1352h-115l-192 647q-16 59 -28 117t-30 119h-6q-16 -59 -30 -117t-31 -119l-186 -647h-113zM375 1452
l196 217h86l197 -217h-82l-154 147h-8l-153 -147h-82z" />
    <glyph glyph-name="wcircumflex" unicode="&#x175;" 
d="M23 983h96l157 -637q16 -68 32 -132t28 -130h8q16 66 32 130t34 132l157 621h101l157 -621q23 -96 66 -262h8q17 66 31 130t31 132l155 637h90l-250 -983h-116l-156 602q-43 196 -66 281h-8q-16 -68 -30 -139t-35 -146l-152 -598h-117zM573 1454h82l195 -283h-78
l-154 207h-8l-153 -207h-78z" />
    <glyph glyph-name="Ycircumflex" unicode="&#x176;" 
d="M662 0h-95v496l-463 854h97l239 -447q47 -78 87 -157t87 -160h9q47 82 90 162t86 157l233 445h92l-462 -854v-496zM375 1452l196 217h86l197 -217h-82l-154 147h-8l-153 -147h-82z" />
    <glyph glyph-name="ycircumflex" unicode="&#x177;" 
d="M396 -421q-62 -28 -136 -28t-123 21l25 80q45 -15 96 -17q203 0 307 261l35 86l-477 1001h94l287 -618q28 -61 64 -137t71 -140h8q33 74 115 277l256 618h88l-463 -1106q-85 -226 -247 -298zM580 1454h82l194 -283h-78l-153 207h-9l-153 -207h-78z" />
    <glyph glyph-name="Ydieresis" unicode="&#x178;" 
d="M662 0h-95v496l-463 854h97l239 -447q47 -78 87 -157t87 -160h9q47 82 90 162t86 157l233 445h92l-462 -854v-496zM776 1485q-32 0 -54 19q-22 18 -22 54t22 56t54 20t53 -20t21 -55t-20 -55t-54 -19zM453 1485q-33 0 -54 19q-20 18 -20 54t20 56q19 20 53 20t56 -20
t20 -55q0 -35 -21 -55t-54 -19z" />
    <glyph glyph-name="Zacute" unicode="&#x179;" 
d="M213 1272v80h868v-58l-825 -1212h840v-82h-953v57l826 1215h-756zM653 1452h-82l189 217h119z" />
    <glyph glyph-name="zacute" unicode="&#x17a;" 
d="M229 905v78h826v-47l-770 -856h792v-80h-930v49l771 856h-689zM616 1171h-77l188 283h109z" />
    <glyph glyph-name="Zdotaccent" unicode="&#x17b;" 
d="M213 1272v80h868v-58l-825 -1212h840v-82h-953v57l826 1215h-756zM647 1477q-35 1 -59 23t-23 59q0 37 24 59q25 22 59 22t58 -22t24 -60q0 -36 -24 -59q-24 -22 -59 -22z" />
    <glyph glyph-name="zdotaccent" unicode="&#x17c;" 
d="M229 905v78h826v-47l-770 -856h792v-80h-930v49l771 856h-689zM653 1221q-41 1 -69 27t-27 71q0 45 28 72q29 27 69 27t68 -28q28 -26 28 -71t-28 -71t-69 -27z" />
    <glyph glyph-name="Zcaron" unicode="&#x17d;" 
d="M213 1272v80h868v-58l-825 -1212h840v-82h-953v57l826 1215h-756zM887 1669l-197 -217h-86l-196 217h81l154 -147h8l154 147h82z" />
    <glyph glyph-name="zcaron" unicode="&#x17e;" 
d="M229 905v78h826v-47l-770 -856h792v-80h-930v49l771 856h-689zM418 1454h78l153 -207h8l154 207h78l-195 -283h-82z" />
    <glyph glyph-name="uni0180" unicode="&#x180;" 
d="M678 967q200 0 307 -130.5t107 -355.5t-134 -365.5t-323 -140.5q-76 0 -166 37t-164 99h-4l-10 -111h-76v1190h-156v59l156 8v216h92v-216h469v-67h-469v-184l-6 -211q80 78 178.5 125t198.5 47zM659 887q-172 0 -352 -180v-506q86 -78 174 -112t159 -34q149 0 252 120
t103 310q0 284 -122.5 343t-213.5 59z" />
    <glyph glyph-name="uni018F" unicode="&#x18f;" 
d="M276 1223q135 151 357 151t351.5 -185.5t129.5 -508.5t-139.5 -514t-361.5 -191t-351 193t-129 500v14h887q0 434 -228 567q-74 43 -171 43q-175 0 -297 -133zM227 606v-4q16 -254 117.5 -399.5t269.5 -145.5q174 0 283 151.5t121 397.5h-791z" />
    <glyph glyph-name="uni0192" unicode="&#x192;" 
d="M913 1294q-121 0 -174 -91.5t-67 -235.5l-15 -138h322v-75h-332l-59 -545q-26 -202 -101.5 -306t-228.5 -104q-69 0 -154 41l27 70q75 -31 131 -31q109 0 163.5 87.5t76.5 250.5l57 537h-233v67l137 8h104l15 129q42 416 310 416q111 0 187 -45l-30 -69q-65 34 -136 34z
" />
    <glyph glyph-name="Ohorn" unicode="&#x1a0;" 
d="M1112 1456q0 -153 -199 -199q205 -188 205 -577q0 -319 -141.5 -512t-362.5 -193t-362 192t-141 511.5t139.5 507.5t363.5 188q127 0 232 -63q184 25 184 139q0 35 -29 80l72 39q39 -63 39 -113zM1020 678.5q0 278.5 -112 444t-293.5 165.5t-293.5 -165.5t-112 -444
t112.5 -448t293 -169.5t293 169.5t112.5 448z" />
    <glyph glyph-name="ohorn" unicode="&#x1a1;" 
d="M825 961q195 27 195 135q0 52 -29 88l72 41q39 -63 39 -130t-55.5 -113t-143.5 -69q189 -145 189 -424q0 -237 -138.5 -375.5t-339 -138.5t-339 138.5t-138.5 378t138.5 378t338.5 138.5q113 0 211 -47zM995 490q0 192 -106 315t-274.5 123t-275 -123.5t-106.5 -314.5
t107 -313t273 -122q169 0 275.5 121.5t106.5 313.5z" />
    <glyph glyph-name="Uhorn" unicode="&#x1af;" 
d="M987 1350q184 26 184 128q0 52 -28 93l71 39q41 -59 41 -113q0 -154 -208 -201v-790q1 -286 -131 -419q-111 -112 -302 -112q-300 1 -396 275q-36 102 -36 256v844h94v-834q0 -241 93.5 -348t244.5 -107q242 0 316 237q28 87 28 218v834h29z" />
    <glyph glyph-name="uhorn" unicode="&#x1b0;" 
d="M1194 1130q0 -145 -182 -194v-936h-76l-10 190h-8q-80 -94 -174.5 -154.5t-213.5 -60.5q-180 0 -266 97.5t-86 298.5v612h90v-600q0 -166 64.5 -246t212 -80t280.5 124q45 42 97 100v702h16q174 22 174 141q0 43 -29 80l72 41q39 -63 39 -115z" />
    <glyph glyph-name="uni01CD" unicode="&#x1cd;" 
d="M881 463h-535l-160 -463h-94l475 1350h95l475 -1350h-101zM854 543l-86 252q-111 327 -150 467h-8q-48 -171 -149 -467l-86 -252h479zM854 1669l-197 -217h-86l-196 217h82l153 -147h8l154 147h82z" />
    <glyph glyph-name="uni01CE" unicode="&#x1ce;" 
d="M281 253q1 -56 23 -93q63 -103 244 -105t394 176v316q-526 -45 -628 -191q-32 -47 -33 -103zM188 246q0 242 411 323q142 29 343 47q0 218 -152 286q-56 26 -141 26q-167 0 -373 -133l-40 67q86 59 196 102q111 43 218 43q195 2 290 -105q94 -107 92 -273v-629h-76
l-10 147h-4q-215 -170 -412 -172q-142 0 -242 70t-100 201zM414 1454h78l153 -207h8l154 207h78l-195 -283h-82z" />
    <glyph glyph-name="uni01CF" unicode="&#x1cf;" 
d="M219 82h348v1186h-348v82h791v-82h-348v-1186h348v-82h-791v82zM854 1669l-197 -217h-86l-196 217h82l153 -147h8l154 147h82z" />
    <glyph glyph-name="uni01D0" unicode="&#x1d0;" 
d="M199 983h583v-983h-90v905h-493v78zM479 1454h78l154 -207h8l153 207h78l-194 -283h-82z" />
    <glyph glyph-name="uni01D1" unicode="&#x1d1;" 
d="M1020 680q0 277 -112 442q-112 166 -294 166t-293 -167q-112 -167 -112 -442q0 -276 112 -447t293 -171q182 0 294 171t112 448zM110 680q1 318 141 506q139 188 363 188q223 0 364 -188q140 -188 140 -506t-141 -512q-143 -193 -363 -193q-219 0 -362 193
q-143 194 -142 512zM854 1669l-197 -217h-86l-196 217h82l153 -147h8l154 147h82z" />
    <glyph glyph-name="uni01D2" unicode="&#x1d2;" 
d="M233 490q0 -191 107 -313q106 -122 274 -122q167 0 275 123t107 313q-1 191 -107 314t-275 123q-84 0 -153 -32q-140 -64 -199 -228q-29 -80 -29 -178zM137 493q0 240 139 377q139 138 340 138t338 -139q138 -139 138 -379t-139 -377q-139 -138 -340 -138t-338 139
q-138 139 -138 379zM379 1454h78l153 -207h8l154 207h78l-195 -283h-82z" />
    <glyph glyph-name="uni01D3" unicode="&#x1d3;" 
d="M182 1350h94v-834q0 -242 94 -348q94 -107 244 -107q241 0 317 237q28 87 27 218v834h89v-844q0 -285 -132 -419q-110 -112 -301 -112q-300 0 -396 275q-36 102 -36 256v844zM854 1669l-197 -217h-86l-196 217h82l153 -147h8l154 147h82z" />
    <glyph glyph-name="uni01D4" unicode="&#x1d4;" 
d="M178 371v612h90v-600q0 -166 65 -246t210 -80t282 124q45 42 97 100v702h90v-983h-76l-10 190h-8q-182 -213 -375 -214q-193 -2 -279 96t-86 299zM369 1454h77l154 -207h8l154 207h78l-195 -283h-82z" />
    <glyph glyph-name="uni01D5" unicode="&#x1d5;" 
d="M182 1350h94v-834q0 -242 94 -348q94 -107 244 -107q241 0 317 237q28 87 27 218v834h89v-844q0 -285 -132 -419q-110 -112 -301 -112q-300 0 -396 275q-36 102 -36 256v844zM776 1485q-30 0 -52 18t-22 53q0 34 22 54t52 20t51 -19t21 -55t-20 -53q-20 -18 -52 -18z
M453 1485q-31 0 -52 18q-20 18 -20 53q0 34 20 54q19 20 51 20t54 -19t20 -55q0 -36 -21 -53q-21 -18 -52 -18zM381 1817h467v-68h-467v68z" />
    <glyph glyph-name="uni01D6" unicode="&#x1d6;" 
d="M178 371v612h90v-600q0 -166 65 -246t210 -80t282 124q45 42 97 100v702h90v-983h-76l-10 190h-8q-182 -213 -375 -214q-193 -2 -279 96t-86 299zM369 1597h467v-67h-467v67zM766 1225q-30 -1 -52 21t-22 52t22 52q22 20 52 20t51 -20t21 -52t-20 -52q-20 -21 -52 -21z
M442 1225q-31 -1 -51 21t-20 52t20 52q20 20 51 20t53 -20q21 -20 21 -52t-22 -52q-22 -21 -52 -21z" />
    <glyph glyph-name="uni01D7" unicode="&#x1d7;" 
d="M182 1350h94v-834q0 -242 94 -348q94 -107 244 -107q241 0 317 237q28 87 27 218v834h89v-844q0 -285 -132 -419q-110 -112 -301 -112q-300 0 -396 275q-36 102 -36 256v844zM776 1485q-30 0 -52 18t-22 53q0 34 22 54t52 20t51 -19t21 -55t-20 -53q-20 -18 -52 -18z
M453 1485q-31 0 -52 18q-20 18 -20 53q0 34 20 54q19 20 51 20t54 -19t20 -55q0 -36 -21 -53q-21 -18 -52 -18zM731 1915h111l-224 -217h-79z" />
    <glyph glyph-name="uni01D8" unicode="&#x1d8;" 
d="M178 371v612h90v-600q0 -166 65 -246t210 -80t282 124q45 42 97 100v702h90v-983h-76l-10 190h-8q-182 -213 -375 -214q-193 -2 -279 96t-86 299zM766 1225q-30 -1 -52 21t-22 52t22 52q22 20 52 20t51 -20t21 -52t-20 -52q-20 -21 -52 -21zM442 1225q-31 -1 -51 21
t-20 52t20 52q20 20 51 20t53 -20q21 -20 21 -52t-22 -52q-22 -21 -52 -21zM680 1655h106l-196 -201h-74z" />
    <glyph glyph-name="uni01D9" unicode="&#x1d9;" 
d="M182 1350h94v-834q0 -242 94 -348q94 -107 244 -107q241 0 317 237q28 87 27 218v834h89v-844q0 -285 -132 -419q-110 -112 -301 -112q-300 0 -396 275q-36 102 -36 256v844zM854 1915l-197 -217h-86l-196 217h82l153 -148h8l154 148h82zM776 1485q-30 0 -52 18t-22 53
q0 34 22 54t52 20t51 -19t21 -55t-20 -53q-20 -18 -52 -18zM453 1485q-31 0 -52 18q-20 18 -20 53q0 34 20 54q19 20 51 20t54 -19t20 -55q0 -36 -21 -53q-21 -18 -52 -18z" />
    <glyph glyph-name="uni01DA" unicode="&#x1da;" 
d="M178 371v612h90v-600q0 -166 65 -246t210 -80t282 124q45 42 97 100v702h90v-983h-76l-10 190h-8q-182 -213 -375 -214q-193 -2 -279 96t-86 299zM766 1225q-30 -1 -52 21t-22 52t22 52q22 20 52 20t51 -20t21 -52t-20 -52q-20 -21 -52 -21zM442 1225q-31 -1 -51 21
t-20 52t20 52q20 20 51 20t53 -20q21 -20 21 -52t-22 -52q-22 -21 -52 -21zM373 1655h80l147 -137h8l148 137h80l-191 -201h-82z" />
    <glyph glyph-name="uni01DB" unicode="&#x1db;" 
d="M182 1350h94v-834q0 -242 94 -348q94 -107 244 -107q241 0 317 237q28 87 27 218v834h89v-844q0 -285 -132 -419q-110 -112 -301 -112q-300 0 -396 275q-36 102 -36 256v844zM453 1485q-31 0 -52 18q-20 18 -20 53q0 34 20 54q19 20 51 20t54 -19t20 -55q0 -36 -21 -53
q-21 -18 -52 -18zM776 1485q-30 0 -52 18t-22 53q0 34 22 54t52 20t51 -19t21 -55t-20 -53q-20 -18 -52 -18zM690 1698h-80l-223 217h111z" />
    <glyph glyph-name="uni01DC" unicode="&#x1dc;" 
d="M178 371v612h90v-600q0 -166 65 -246t210 -80t282 124q45 42 97 100v702h90v-983h-76l-10 190h-8q-182 -213 -375 -214q-193 -2 -279 96t-86 299zM442 1225q-31 -1 -51 21t-20 52t20 52q20 20 51 20t53 -20q21 -20 21 -52t-22 -52q-22 -21 -52 -21zM766 1225
q-30 -1 -52 21t-22 52t22 52q22 20 52 20t51 -20t21 -52t-20 -52q-20 -21 -52 -21zM692 1454h-74l-196 201h106z" />
    <glyph glyph-name="Gcaron" unicode="&#x1e6;" 
d="M349 1123q-130 -166 -130 -448t127 -448t344 -166q90 0 168 27t125 76v420h-311v80h403v-535q-61 -68 -161 -111t-228 -43q-253 0 -410 190q-155 191 -155 511q0 321 160 509q160 189 421 189q175 0 298 -104q34 -29 61 -58l-55 -61q-123 137 -304 137q-221 0 -353 -165z
M920 1669l-197 -217h-86l-197 217h82l154 -147h8l154 147h82z" />
    <glyph glyph-name="gcaron" unicode="&#x1e7;" 
d="M603 385q118 0 197 76t79 195t-79 197t-196 80q-116 1 -196 -79t-78 -197q0 -61 21 -111q45 -102 146 -142q50 -20 106 -19zM549 84h244q188 0 273 -51t85 -176t-141 -226q-150 -104 -380 -104t-344 78t-114 207q0 59 43 120t123 111v8q-37 17 -70 57t-32 101
q0 104 118 186v8q-118 98 -117 253q1 156 109 254t258 98q76 0 135 -25h410v-76h-299q117 -112 117 -255t-106 -241t-257 -98q-94 0 -186 45q-98 -61 -96 -137q0 -137 227 -137zM258 -190q0 -90 90 -150t279 -59q189 0 310 77q120 77 120 168q1 92 -63 122t-193 30h-234
q-86 0 -149 18q-160 -84 -160 -206zM397 1454h78l154 -207h8l154 207h77l-194 -283h-82z" />
    <glyph glyph-name="uni01EA" unicode="&#x1ea;" 
d="M1020 678.5q0 278.5 -112 444t-293.5 165.5t-293.5 -165.5t-112 -444t112.5 -448t293 -169.5t293 169.5t112.5 448zM681 -420q-73 0 -123 41t-50 127q0 131 123 227q-255 1 -395 219q-124 195 -124.5 499.5t139 492.5t363.5 188t364 -189t140 -484q0 -547 -360 -703
q-80 -34 -125 -101.5t-45 -127.5t32.5 -86.5t77.5 -26.5t82 29l35 -56q-61 -49 -134 -49z" />
    <glyph glyph-name="uni01EB" unicode="&#x1eb;" 
d="M233 490q0 -191 107 -313t274.5 -122t274 121.5t106.5 313.5t-106 315t-274.5 123t-275 -123.5t-106.5 -314.5zM504 -250q0 127 112 225q-206 0 -342.5 140.5t-136.5 378t138.5 376t339 138.5t339 -138.5t138.5 -380.5q0 -290 -210 -428q-66 -43 -147 -75
q-70 -31 -111.5 -94.5t-41.5 -123t30.5 -86t75.5 -26.5t82 29l33 -54q-23 -20 -62 -33.5t-71 -13.5q-72 0 -119 41t-47 125z" />
    <glyph glyph-name="uni0218" unicode="&#x218;" 
d="M989 332q0 158 -163 236q-48 24 -101 46l-205 93q-120 46 -178 99q-57 52 -86 106t-29 129q0 146 118 241q118 94 294 92q129 0 230 -48t167 -114l-55 -63q-139 139 -342 139q-143 0 -230 -66t-87 -175q0 -137 168 -223q44 -22 85 -38l203 -90q145 -59 200 -114
q56 -54 81 -110t25 -134t-32 -144q-63 -134 -234 -191q-83 -28 -212 -28q-129 1 -248 57t-202 146l61 66q168 -181 416 -183q166 0 261 75t95 196zM584 -104q170 -32 170 -139q0 -87 -76 -130t-180 -55l-15 61q191 27 191 103q0 46 -36 68t-81 32z" />
    <glyph glyph-name="uni0219" unicode="&#x219;" 
d="M938 821q-147 109 -313 109q-167 0 -235 -50t-70 -125t88 -123t224 -81q243 -60 334 -125t92 -178t-109 -193t-280 -80q-281 0 -499 156l51 66q80 -66 182 -105t255 -39q153 1 230 59t77 133t-73 126q-73 52 -280 102q-268 64 -357 182q-30 41 -30 92q0 113 97 186
t288 75q98 0 202 -35t175 -86zM586 -104q170 -32 170 -139q0 -87 -76 -130t-180 -55l-15 61q191 27 191 103q0 46 -36 68t-81 32z" />
    <glyph glyph-name="uni021A" unicode="&#x21a;" 
d="M567 1268h-469v82h1032v-82h-468v-1268h-95v1268zM565 -104q170 -32 170 -139q1 -52 -21 -82q-58 -81 -235 -103l-14 61q190 27 190 103q1 46 -35 68t-81 32z" />
    <glyph glyph-name="uni021B" unicode="&#x21b;" 
d="M461 369v536h-297v70l299 8l12 285h76v-285h524v-78h-524v-545q0 -153 58 -228t205 -76t273 50l25 -69q-136 -60 -268 -61q-133 -1 -201 28q-182 78 -182 365zM739 -104q170 -32 170 -139q1 -52 -21 -82q-38 -53 -139 -84q-46 -13 -96 -19l-14 61q190 27 190 103
q1 46 -35 68t-81 32z" />
    <glyph glyph-name="uni0237" unicode="&#x237;" 
d="M385 -391q182 0 244.5 77.5t62.5 225.5v993h-493v78h583v-1059q0 -290 -200 -366q-74 -28 -164 -27q-163 0 -289 66l37 71q115 -59 219 -59z" />
    <glyph glyph-name="uni0243" unicode="&#x243;" 
d="M1124 395q0 -197 -135 -296t-364 -99h-387v365h-160v59l160 8v918h360q203 0 323.5 -80t120.5 -248q0 -104 -60 -182t-179 -109v-8q150 -23 235.5 -104.5t85.5 -223.5zM332 758h227q209 0 299 66.5t90 199.5t-95 191.5t-282 58.5h-239v-516zM600 76q201 0 316.5 77
t115.5 233q0 300 -432 300h-268v-254h336v-67h-336v-289h268z" />
    <glyph glyph-name="uni0250" unicode="&#x250;" 
d="M971 730q0 101 -77.5 150.5t-186.5 49.5q-186 0 -398 -178v-316q526 45 629 191q33 47 33 103zM1016 121q-212 -146 -440 -146q-82 0 -153 30q-204 86 -204 349v629h78l8 -147h6q211 172 410 172q142 0 243 -69t101 -200q0 -164 -175 -251t-581 -119q0 -219 153 -289
q56 -26 126 -25q200 0 387 133z" />
    <glyph glyph-name="uni0251" unicode="&#x251;" 
d="M1014 983v-983h-78l-10 145h-4q-66 -68 -156 -119t-190 -51q-201 0 -320 136.5t-119 373t137 380t316 143.5t334 -138h4l10 113h76zM233 489q-1 -303 203 -402q66 -32 148 -32q165 0 338 181v546q-157 146 -313.5 146t-266 -126t-109.5 -313z" />
    <glyph glyph-name="uni0252" unicode="&#x252;" 
d="M215 0v983h78l10 -145h4q79 79 145 110q128 60 222 60q209 0 313.5 -136.5t104.5 -372t-134 -380t-323 -144.5q-78 0 -166 37t-164 99h-4l-10 -111h-76zM307 201q161 -146 331 -146q71 0 138.5 33t115.5 92.5t75.5 142.5t27.5 178q0 197 -81.5 312t-254.5 115
q-86 0 -178 -46t-174 -134v-547z" />
    <glyph glyph-name="uni0254" unicode="&#x254;" 
d="M160 858q150 150 373 150t371 -138q147 -138 147 -378q0 -241 -147 -379t-375 -138q-227 0 -394 158l47 64q154 -142 344 -142t309 120t119 315q0 196 -116 317t-301.5 121t-325.5 -131z" />
    <glyph glyph-name="uni0258" unicode="&#x258;" 
d="M227 553h750q-23 176 -120 276.5t-257 100.5t-266.5 -101.5t-106.5 -275.5zM139 516v37q0 205 133.5 330t332 125t332.5 -140t134 -376.5t-148.5 -376.5t-369.5 -140q-129 0 -217 36t-156 79l37 70q159 -107 338.5 -107t298.5 119t123 307h-834q-4 18 -4 37z" />
    <glyph glyph-name="uni0259" unicode="&#x259;" 
d="M246 453q0 -197 98 -299q98 -101 270 -101t270.5 106.5t110.5 293.5h-749zM219 905q171 103 387 103t350 -136t134 -377t-131 -380q-131 -140 -341 -140q-209 0 -334 123q-126 123 -126 351v39q0 20 4 38h833q-7 282 -232 373q-77 31 -179 31q-168 0 -328 -94z" />
    <glyph glyph-name="uni0261" unicode="&#x261;" 
d="M922 782q-157 146 -314.5 146t-267 -122.5t-109.5 -307t94.5 -301.5t261.5 -117t335 180v522zM575 -393q171 0 259 86t90 235v242q-63 -68 -155.5 -119t-192.5 -51q-202 0 -320.5 133.5t-118.5 364.5t135.5 370.5t315.5 139.5t336 -138h4l10 113h76v-1065
q0 -176 -115 -281.5t-320 -105.5t-366 107l41 71q150 -102 321 -102z" />
    <glyph glyph-name="uni0265" unicode="&#x265;" 
d="M1014 -444h-92v383l6 256q-92 -96 -185.5 -158t-212.5 -62q-354 0 -354 396v612h92v-600q0 -166 64.5 -246t209.5 -80t280 124q46 42 100 98v704h92v-1427z" />
    <glyph glyph-name="uni026F" unicode="&#x26f;" 
d="M326 -25q-213 0 -213 295v713h88v-702q0 -223 141 -224q68 0 116 46.5t95 138.5v741h82v-702q0 -223 143 -224q66 0 114 46.5t97 138.5v741h88v-983h-73l-11 133h-4q-43 -72 -93 -115t-134 -43q-158 0 -197 175q-53 -84 -105 -129.5t-134 -45.5z" />
    <glyph glyph-name="uni0279" unicode="&#x279;" 
d="M803 983h92v-983h-78l-10 244h-4q-80 -119 -198 -194t-250 -75t-212 41l25 82q100 -37 204.5 -37t216 70t214.5 238v614z" />
    <glyph glyph-name="uni0287" unicode="&#x287;" 
d="M391 1008q127 0 194.5 -29t107.5 -80q75 -96 75 -283v-536h297v-80h-299l-12 -285h-76v285h-524v80h524v543q0 151 -59.5 229t-199 78t-278.5 -51l-24 69q147 60 274 60z" />
    <glyph glyph-name="uni028C" unicode="&#x28c;" 
d="M1102 0h-94l-271 616q-35 74 -64.5 146t-58.5 137h-8q-29 -66 -57.5 -137.5t-61.5 -145.5l-272 -616h-88l436 983h96z" />
    <glyph glyph-name="uni028D" unicode="&#x28d;" 
d="M1206 0h-96l-158 637q-16 68 -31.5 132.5t-27.5 129.5h-8q-16 -66 -32.5 -130t-33.5 -132l-157 -621h-101l-158 621q-16 68 -32.5 132.5t-32.5 129.5h-8q-16 -66 -30.5 -130t-31.5 -132l-155 -637h-90l249 983h117l156 -602q42 -189 65 -281h8q16 70 31 139.5t35 145.5
l152 598h116z" />
    <glyph glyph-name="uni028E" unicode="&#x28e;" 
d="M983 1415q-106 0 -177 -74.5t-112 -187.5l-65 -152l477 -1001h-94l-287 618q-73 158 -135 279h-8q-29 -66 -58.5 -140.5t-56.5 -138.5l-256 -618h-88l493 1174q72 220 236 296q59 28 131.5 27.5t118.5 -20.5l-25 -78q-53 16 -94 16z" />
    <glyph glyph-name="uni029E" unicode="&#x29e;" 
d="M977 -444h-92v1036h-8l-631 -592h-113l404 381l-469 602h104l428 -545l285 271v274h92v-1427z" />
    <glyph glyph-name="h.sups" unicode="&#x2b0;" 
d="M848 938q0 190 -150 190q-74 0 -123 -30.5t-110 -91.5v-474h-84v967h84v-272l-6 -152q57 53 114.5 89t133.5 36q225 0 225 -252v-416h-84v406z" />
    <glyph glyph-name="j.sups" unicode="&#x2b2;" 
d="M690 1333q-33 0 -54.5 18.5t-21.5 53.5t21.5 55.5t54.5 20.5t54.5 -20.5t21.5 -55.5t-21.5 -53.5t-54.5 -18.5zM467 299q109 0 146.5 51t37.5 139v627h-307v68h389v-686q0 -196 -95 -232.5t-175 -36.5t-168 45l31 64q76 -39 141 -39z" />
    <glyph glyph-name="r.sups" unicode="&#x2b3;" 
d="M874 1124q-157 0 -258 -198v-394h-81v652h69l6 -158h4q102 174 271 174q81 0 131 -26l-19 -72q-64 22 -123 22z" />
    <glyph glyph-name="w.sups" unicode="&#x2b7;" 
d="M166 1184h88l96 -402q10 -45 18.5 -89t18.5 -87h4q10 43 21.5 87t21.5 89l94 379h78l99 -379q20 -90 40 -176h7q10 43 19 87t20 89l94 402h82l-160 -652h-102l-95 369q-10 47 -20 92t-21 97h-6q-10 -45 -19 -91.5t-24 -99.5l-92 -367h-98z" />
    <glyph glyph-name="y.sups" unicode="&#x2b8;" 
d="M395 313q118 0 178 158l21 55l-295 658h84l168 -387q18 -41 37.5 -89.5t40.5 -95.5h6q16 45 32.5 93.5t32.5 91.5l148 387h82l-283 -719q-37 -103 -98 -163t-152 -60q-41 0 -80 14l19 68q33 -11 59 -11z" />
    <glyph glyph-name="uni02BB" unicode="&#x2bb;" 
d="M628 1040q40 0 74 -34q33 -34 33 -89q0 -53 -35 -91t-92 -38t-103 52t-46 147q0 147 70 264q71 117 186 183l43 -64q-189 -124 -205 -350q35 20 75 20z" />
    <glyph glyph-name="uni02BC" unicode="&#x2bc;" 
d="M593 1180q-40 0 -74 34t-34 90t35 93t93 37q57 0 103 -54t46 -147q0 -147 -71 -264t-185 -181l-41 62q185 124 203 350q-35 -20 -75 -20z" />
    <glyph glyph-name="uni02BE" unicode="&#x2be;" 
d="M516 1071q106 0 154.5 47t48.5 122t-48 121t-155 46v51q123 4 194.5 -55.5t71.5 -163.5t-71.5 -162.5t-194.5 -54.5v49z" />
    <glyph glyph-name="uni02BF" unicode="&#x2bf;" 
d="M727 1407q-106 0 -154.5 -46t-48.5 -121t48.5 -122t154.5 -47v-49q-123 -4 -194.5 54.5t-71.5 162.5t71.5 163.5t194.5 55.5v-51z" />
    <glyph glyph-name="circumflex" unicode="&#x2c6;" 
d="M573 1454h82l195 -283h-78l-154 207h-8l-153 -207h-78z" />
    <glyph glyph-name="caron" unicode="&#x2c7;" 
d="M379 1454h78l153 -207h8l154 207h78l-195 -283h-82z" />
    <glyph glyph-name="uni02C8" unicode="&#x2c8;" 
d="M539 1436h151l-39 -600h-73z" />
    <glyph glyph-name="uni02C9" unicode="&#x2c9;" 
d="M383 1315h463v-74h-463v74z" />
    <glyph glyph-name="uni02CA" unicode="&#x2ca;" 
d="M575 1171h-77l188 283h109z" />
    <glyph glyph-name="uni02CB" unicode="&#x2cb;" 
d="M430 1454h109l188 -283h-78z" />
    <glyph glyph-name="uni02CC" unicode="&#x2cc;" 
d="M690 -506h-151l39 602h73z" />
    <glyph glyph-name="breve" unicode="&#x2d8;" 
d="M614 1180q-113 0 -174.5 75t-70.5 172h67q8 -70 41 -110.5t64.5 -56t72.5 -15.5q80 0 124 54.5t55 127.5h67q-15 -157 -138 -223q-44 -24 -108 -24z" />
    <glyph glyph-name="dotaccent" unicode="&#x2d9;" 
d="M614 1221q-40 1 -68 27t-28 71t28 72t68 27t69 -28q28 -26 28 -71t-28 -71t-69 -27z" />
    <glyph glyph-name="ring" unicode="&#x2da;" 
d="M614 1157q45 0 76 34t31 90t-31 90t-76 34q-46 0 -76 -34t-30 -90t30 -90t76 -34zM614 1104q-72 0 -120 49t-48 128t48 128t120 49t120 -49t48 -128t-48 -128t-120 -49z" />
    <glyph glyph-name="ogonek" unicode="&#x2db;" 
d="M504 -253q0 81 45 149t100 112h90q-157 -116 -157 -246q0 -54 30 -80t76 -26q45 0 82 29l33 -54q-52 -47 -153 -47q-52 0 -99 41t-47 122z" />
    <glyph glyph-name="tilde" unicode="&#x2dc;" 
d="M729 1260q63 0 78 114h61q-8 -125 -80 -168q-27 -16 -74 -16t-113 57t-101 58q-66 0 -78 -115h-62q8 125 80 168q27 16 64 16q36 0 66 -18t57 -40t51 -39t51 -17z" />
    <glyph glyph-name="hungarumlaut" unicode="&#x2dd;" 
d="M866 1450h95l-173 -283h-69zM594 1450h92l-170 -283h-70z" />
    <glyph glyph-name="l.sups" unicode="&#x2e1;" 
d="M782 516q-182 0 -182 213v703h-182v67h266v-778q0 -133 115 -133q46 0 110 22l19 -67q-95 -27 -146 -27z" />
    <glyph glyph-name="s.sups" unicode="&#x2e2;" 
d="M645 584q92 0 139 34.5t47 71.5q0 61 -47 87t-118 49q-152 48 -215.5 85.5t-63.5 110.5q0 74 66.5 126t190.5 52t233 -70l-43 -55q-91 60 -187 60t-137 -33t-41 -67t15.5 -52t48 -36.5t98.5 -37.5q67 -20 114.5 -34.5t107.5 -51.5t60 -115q0 -79 -69.5 -135.5
t-181.5 -56.5q-184 0 -312 90l43 58q110 -80 252 -80z" />
    <glyph glyph-name="x.sups" unicode="&#x2e3;" 
d="M594 874l-207 310h90l103 -154q16 -29 33.5 -54.5t33.5 -53.5h6q16 29 34 54t34 54l96 154h88l-209 -320l226 -332h-91l-110 166q-39 68 -80 119h-4q-20 -29 -37.5 -58.5t-38.5 -60.5l-106 -166h-86z" />
    <glyph glyph-name="uni0300" unicode="&#x300;" 
d="M432 1454h109l188 -283h-78z" />
    <glyph glyph-name="uni0301" unicode="&#x301;" 
d="M578 1171h-78l188 283h109z" />
    <glyph glyph-name="uni0302" unicode="&#x302;" 
d="M573 1454h82l195 -283h-78l-154 207h-8l-153 -207h-78z" />
    <glyph glyph-name="uni0303" unicode="&#x303;" 
d="M729 1260q65 0 78 114h61q-8 -124 -80 -168q-26 -16 -63 -16q-54 0 -122.5 57.5t-102.5 57.5q-66 0 -78 -115h-62q6 122 80 168q26 16 63.5 16t67 -18.5t56 -40t51 -38.5t51.5 -17z" />
    <glyph glyph-name="uni0304" unicode="&#x304;" 
d="M383 1315h463v-74h-463v74z" />
    <glyph glyph-name="uni0306" unicode="&#x306;" 
d="M614 1180q-113 0 -174.5 75t-70.5 172h67q8 -70 41 -110.5t64.5 -56t72.5 -15.5q80 0 124 54.5t55 127.5h67q-15 -157 -138 -223q-44 -24 -108 -24z" />
    <glyph glyph-name="uni0307" unicode="&#x307;" 
d="M614 1221q-41 0 -68.5 26.5t-27.5 71.5t27.5 71.5t68.5 26.5t69 -26.5t28 -71.5t-28 -71.5t-69 -26.5z" />
    <glyph glyph-name="uni0308" unicode="&#x308;" 
d="M796.5 1225q-34.5 0 -58 24.5t-23.5 59t23.5 60.5t58 26t57.5 -26t23 -60.5t-23 -59t-57.5 -24.5zM432 1225q-35 0 -57.5 24.5t-22.5 59t22.5 60.5t57.5 26t58.5 -26t23.5 -60.5t-23.5 -59t-58.5 -24.5z" />
    <glyph glyph-name="uni0309" unicode="&#x309;" 
d="M678 1294q0 92 -174 99l8 65q172 -7 228 -87q20 -27 20 -67q0 -72 -60 -118q-39 -29 -135 -58l-16 54q55 16 92 41.5t37 70.5z" />
    <glyph glyph-name="uni030A" unicode="&#x30a;" 
d="M614 1157q45 0 76 34t31 90t-31 90t-76 34t-75.5 -34t-30.5 -90t30.5 -90t75.5 -34zM614.5 1104q-71.5 0 -120 49t-48.5 128t48.5 128t120 49t119.5 -49t48 -128t-48 -128t-119.5 -49z" />
    <glyph glyph-name="uni030B" unicode="&#x30b;" 
d="M866 1450h95l-173 -283h-69zM594 1450h92l-170 -283h-70z" />
    <glyph glyph-name="uni030C" unicode="&#x30c;" 
d="M379 1454h78l153 -207h8l154 207h78l-195 -283h-82z" />
    <glyph glyph-name="uni030F" unicode="&#x30f;" 
d="M510 1167h-70l-172 283h94zM782 1167h-69l-170 283h92z" />
    <glyph glyph-name="uni0312" unicode="&#x312;" 
d="M678 1191q0 -38 -19.5 -55.5t-48.5 -17.5q-84 0 -84 125q0 149 144 225l30 -49q-106 -59 -110 -162q30 10 59 -9t29 -57z" />
    <glyph glyph-name="uni0313" unicode="&#x313;" 
d="M615.5 1327q-17.5 0 -41 15.5t-23.5 53.5t19.5 55t47.5 17q84 0 84 -125q0 -152 -143 -227l-31 51q105 57 109 162q-4 -2 -21.5 -2z" />
    <glyph glyph-name="uni031B" unicode="&#x31b;" 
d="M598 963q193 23 193 129q0 50 -29 92l72 41q38 -61 38 -115q0 -177 -262 -209z" />
    <glyph glyph-name="uni0323" unicode="&#x323;" 
d="M614 -430q-41 0 -68.5 25.5t-27.5 71.5t27.5 73t68.5 27t69 -27t28 -73t-28 -71.5t-69 -25.5z" />
    <glyph glyph-name="uni0324" unicode="&#x324;" 
d="M776 -391q-33 0 -54.5 21.5t-21.5 53.5t21.5 53t54.5 21q34 0 54 -22q20 -20 20 -52t-20.5 -53.5t-53.5 -21.5zM452.5 -391q-32.5 0 -53 21.5t-20.5 53.5t20.5 53t52.5 21t54 -22q22 -20 22 -52t-21.5 -53.5t-54 -21.5z" />
    <glyph glyph-name="uni0326" unicode="&#x326;" 
d="M563 -104q170 -32 170 -138q0 -154 -256 -186l-14 61q190 27 190 103q0 47 -35.5 68.5t-80.5 31.5z" />
    <glyph glyph-name="uni0327" unicode="&#x327;" 
d="M653 -260q0 47 -39 69.5t-98 38.5l82 156h72l-60 -115q49 -16 86 -47.5t37 -83.5q0 -86 -75 -128.5t-181 -55.5l-14 61q190 27 190 105z" />
    <glyph glyph-name="uni0328" unicode="&#x328;" 
d="M582 -238q0 -53 30.5 -79.5t75.5 -26.5t82 29l33 -54q-23 -20 -62 -33.5t-71 -13.5q-72 0 -119 41t-47 122t45 148.5t100 112.5h90q-157 -116 -157 -246z" />
    <glyph glyph-name="uni032E" unicode="&#x32e;" 
d="M614 -416q-114 0 -173.5 75.5t-69.5 168.5h67q9 -70 41.5 -107.5t63 -53t71.5 -15.5q76 0 121 51.5t56 124.5h67q-16 -156 -136 -220q-44 -24 -108 -24z" />
    <glyph glyph-name="uni0331" unicode="&#x331;" 
d="M846 -328h-467v74h467v-74z" />
    <glyph glyph-name="pi" unicode="&#x3c0;" 
d="M1001 -25q-88 0 -126.5 46.5t-38.5 146.5l10 733h-457q0 -516 -29 -907l-90 6q35 348 35 901h-194v74l137 8h870v-82h-182q-16 -384 -16 -745q0 -100 94 -101q18 0 59 13l14 -74q-43 -19 -86 -19z" />
    <glyph glyph-name="a.sups" unicode="&#x1d43;" 
d="M588 584q102 0 223 96v205q-201 -23 -286 -67t-85 -112t44 -95t104 -27zM567 516q-84 0 -146.5 46t-62.5 146t111 156t342 80q0 189 -164 189q-97 0 -223 -74l-35 57q128 84 261 84q134 0 188.5 -72.5t54.5 -185.5v-410h-70l-6 82h-2q-127 -98 -248 -98z" />
    <glyph glyph-name="b.sups" unicode="&#x1d47;" 
d="M872 868q0 262 -206 262q-96 0 -209 -100v-366q98 -76 194 -76t158.5 75.5t62.5 204.5zM373 532v967h84v-272l-4 -123q119 96 245 96q125 0 194 -89t69 -245t-88.5 -253t-203.5 -97t-216 80h-4l-9 -64h-67z" />
    <glyph glyph-name="d.sups" unicode="&#x1d48;" 
d="M377 855q0 -122 55 -194.5t159.5 -72.5t203.5 98v367q-96 77 -192 77t-161 -76.5t-65 -198.5zM571 516q-125 0 -202.5 88t-77.5 247t88.5 254t214.5 95q63 0 109.5 -20.5t97.5 -57.5l-6 117v260h84v-967h-70l-8 82h-2q-103 -98 -228 -98z" />
    <glyph glyph-name="e.sups" unicode="&#x1d49;" 
d="M852 903q0 113 -53.5 171.5t-142.5 58.5t-153.5 -62.5t-76.5 -167.5h426zM899 582q-114 -66 -241 -66t-221.5 92.5t-94.5 247.5t92.5 249.5t218.5 94.5q127 0 201 -81t74 -222q0 -29 -6 -53h-496q4 -117 73.5 -188.5t172.5 -71.5t194 55z" />
    <glyph glyph-name="g.sups" unicode="&#x1d4d;" 
d="M615 801q71 0 119 46t48 121t-48 123t-119 48t-118.5 -48.5t-47.5 -122.5t47.5 -120.5t118.5 -46.5zM582 600h157q129 0 187.5 -35t58.5 -121t-98 -152.5t-254 -66.5t-232.5 49.5t-76.5 137.5q0 37 28.5 76.5t81.5 70.5v6q-67 32 -67 104t79 124v6q-79 65 -79 168t71 168
t178 65q57 0 93 -16h274v-66h-188q65 -65 65 -160t-69.5 -157t-174.5 -62q-50 0 -118 27q-57 -33 -58 -82q0 -84 142 -84zM399 422q0 -63 56.5 -100t179.5 -37t195.5 48t72.5 102t-41 72.5t-123 18.5h-145q-66 0 -98 13q-97 -54 -97 -117z" />
    <glyph glyph-name="k.sups" unicode="&#x1d4f;" 
d="M422 1499h82v-684h4l381 369h96l-254 -254l293 -398h-94l-252 342l-174 -163v-179h-82v967z" />
    <glyph glyph-name="m.sups" unicode="&#x1d50;" 
d="M805 1200q141 0 141 -196v-472h-80v463q0 133 -84 133q-41 0 -70.5 -28.5t-58.5 -83.5v-484h-73v463q0 133 -84 133q-41 0 -71 -28.5t-58 -83.5v-484h-80v652h65l8 -86h5q27 47 60.5 74.5t88.5 27.5q104 0 129 -113q33 53 70 83t92 30z" />
    <glyph glyph-name="o.sups" unicode="&#x1d52;" 
d="M389 857q0 -122 62.5 -195.5t163 -73.5t163 73.5t62.5 195.5t-62.5 199t-163 77t-163 -77t-62.5 -199zM303 858q0 82 24.5 145.5t67.5 107.5t99.5 66.5t120 22.5t120 -22.5t99.5 -66.5t67.5 -107.5t24.5 -145.5t-24.5 -145.5t-67.5 -107.5t-99.5 -66.5t-120 -22.5
t-120 22.5t-99.5 66.5t-67.5 107.5t-24.5 145.5z" />
    <glyph glyph-name="p.sups" unicode="&#x1d56;" 
d="M872 868q0 262 -206 262q-90 0 -209 -100v-366q98 -76 194 -76t158.5 75.5t62.5 204.5zM643 516q-76 0 -188 78l2 -117v-231h-84v938h69l9 -78h4q118 94 243 94t194 -89t69 -245t-88.5 -253t-229.5 -97z" />
    <glyph glyph-name="t.sups" unicode="&#x1d57;" 
d="M773 516q-141 0 -198 70t-57 194v336h-166v64l170 4l10 188h70v-188h316v-68h-316v-338q0 -92 37 -142t126 -50t159 32l18 -61q-88 -41 -169 -41z" />
    <glyph glyph-name="u.sups" unicode="&#x1d58;" 
d="M426 778q0 -188 148 -188q74 0 125 29.5t110 93.5v471h82v-652h-68l-10 111h-4q-113 -127 -244 -127q-223 0 -223 252v416h84v-406z" />
    <glyph glyph-name="v.sups" unicode="&#x1d5b;" 
d="M338 1184h86l143 -391q18 -47 33.5 -95.5t32.5 -93.5h4q16 45 31.5 93t33.5 96l144 391h82l-244 -652h-98z" />
    <glyph glyph-name="c.sups" unicode="&#x1d9c;" 
d="M938 602q-104 -86 -238 -86q-135 0 -226 91t-91 249.5t94.5 251t222.5 92.5t222 -78l-45 -57q-82 68 -176 68q-93 0 -163.5 -77t-70.5 -199t67.5 -195.5t172.5 -73.5t192 69z" />
    <glyph glyph-name="f.sups" unicode="&#x1da0;" 
d="M854 1448q-182 0 -182 -188v-76h284v-68h-284v-584h-80v584h-168v64l168 4v69q0 123 62.5 193t172.5 70t197 -33l-20 -64q-74 29 -150 29z" />
    <glyph glyph-name="z.sups" unicode="&#x1dbb;" 
d="M346 1116v68h559v-43l-489 -539h506v-70h-629v46l489 538h-436z" />
    <glyph glyph-name="uni1E0C" unicode="&#x1e0c;" 
d="M498 80q261 0 390 163q130 163 130 437q0 422 -287 547q-98 43 -233 43h-207v-1190h207zM197 1350h309q305 0 457 -178q153 -178 153 -492q0 -490 -340 -632q-115 -48 -268 -48h-311v1350zM596 -430q-41 0 -69 26q-27 26 -27 72t27 72q28 27 69 27t69 -27q27 -27 27 -73
q0 -45 -28 -71t-68 -26z" />
    <glyph glyph-name="uni1E0D" unicode="&#x1e0d;" 
d="M233 489q0 -302 203 -402q66 -32 148 -32q167 0 338 181v546q-157 146 -313 146t-266 -125t-110 -314zM274 865q137 143 326 143q96 0 173 -37t155 -103l-6 199v406h92v-1473h-78l-10 145h-4q-66 -69 -156 -119t-190 -50t-181 33q-80 34 -137 100q-121 140 -121 377
q0 236 137 379zM625 -430q-41 0 -69 26t-28 72t28 72q28 27 69 27t69 -27t27 -73q1 -45 -27 -71t-69 -26z" />
    <glyph glyph-name="uni1E0E" unicode="&#x1e0e;" 
d="M498 80q261 0 390 163q130 163 130 437q0 422 -287 547q-98 43 -233 43h-207v-1190h207zM197 1350h309q305 0 457 -178q153 -178 153 -492q0 -490 -340 -632q-115 -48 -268 -48h-311v1350zM827 -328h-467v74h467v-74z" />
    <glyph glyph-name="uni1E0F" unicode="&#x1e0f;" 
d="M233 489q0 -302 203 -402q66 -32 148 -32q167 0 338 181v546q-157 146 -313 146t-266 -125t-110 -314zM274 865q137 143 326 143q96 0 173 -37t155 -103l-6 199v406h92v-1473h-78l-10 145h-4q-66 -69 -156 -119t-190 -50t-181 33q-80 34 -137 100q-121 140 -121 377
q0 236 137 379zM856 -328h-467v74h467v-74z" />
    <glyph glyph-name="uni1E20" unicode="&#x1e20;" 
d="M349 1123q-130 -166 -130 -448t127 -448t344 -166q90 0 168 27t125 76v420h-311v80h403v-535q-61 -68 -161 -111t-228 -43q-253 0 -410 190q-155 191 -155 511q0 321 160 509q160 189 421 189q175 0 298 -104q34 -29 61 -58l-55 -61q-123 137 -304 137q-221 0 -353 -165z
M446 1577h467v-74h-467v74z" />
    <glyph glyph-name="uni1E21" unicode="&#x1e21;" 
d="M603 385q118 0 197 76t79 195t-79 197t-196 80q-116 1 -196 -79t-78 -197q0 -61 21 -111q45 -102 146 -142q50 -20 106 -19zM549 84h244q188 0 273 -51t85 -176t-141 -226q-150 -104 -380 -104t-344 78t-114 207q0 59 43 120t123 111v8q-37 17 -70 57t-32 101
q0 104 118 186v8q-118 98 -117 253q1 156 109 254t258 98q76 0 135 -25h410v-76h-299q117 -112 117 -255t-106 -241t-257 -98q-94 0 -186 45q-98 -61 -96 -137q0 -137 227 -137zM258 -190q0 -90 90 -150t279 -59q189 0 310 77q120 77 120 168q1 92 -63 122t-193 30h-234
q-86 0 -149 18q-160 -84 -160 -206zM401 1315h463v-74h-463v74z" />
    <glyph glyph-name="uni1E24" unicode="&#x1e24;" 
d="M182 1350h94v-592h676v592h95v-1350h-95v676h-676v-676h-94v1350zM614 -430q-40 0 -68 26t-28 72t28 72q28 27 68 27t69 -27q28 -27 28 -73q0 -45 -28 -71t-69 -26z" />
    <glyph glyph-name="uni1E25" unicode="&#x1e25;" 
d="M215 1473h92v-426l-6 -259q92 96 185 158t212 62q354 0 355 -396v-612h-92v600q0 166 -65 246t-212 80q-101 0 -180 -50t-197 -171v-705h-92v1473zM651 -430q-41 0 -69 26t-27 72q0 46 28 72q29 27 69 27t68 -27t28 -73q0 -45 -28 -71t-69 -26z" />
    <glyph glyph-name="uni1E2A" unicode="&#x1e2a;" 
d="M182 1350h94v-592h676v592h95v-1350h-95v676h-676v-676h-94v1350zM614 -416q-111 0 -172 75t-71 169h67q9 -71 41 -109q59 -67 135 -67q112 0 159 111q13 32 18 65h67q-16 -157 -136 -220q-45 -24 -108 -24z" />
    <glyph glyph-name="uni1E2B" unicode="&#x1e2b;" 
d="M215 1473h92v-426l-6 -259q92 96 185 158t212 62q354 0 355 -396v-612h-92v600q0 166 -65 246t-212 80q-101 0 -180 -50t-197 -171v-705h-92v1473zM649 -416q-111 0 -172 75t-71 169h67q14 -117 105 -161q32 -15 72 -15q112 0 158 111q13 32 17 65h68q-16 -156 -136 -220
q-45 -24 -108 -24z" />
    <glyph glyph-name="uni1E36" unicode="&#x1e36;" 
d="M307 1350h90v-1268h707v-82h-797v1350zM727 -430q-41 0 -69 26t-28 72t28 72q28 27 69 27t69 -27t28 -73q0 -45 -28 -71t-69 -26z" />
    <glyph glyph-name="uni1E37" unicode="&#x1e37;" 
d="M555 297v1098h-365v78h455v-1188q0 -229 213 -230q90 0 205 54l29 -72q-143 -61 -246 -62q-291 0 -291 322zM770 -430q-41 0 -69 26q-27 26 -27 72t27 72q28 27 69 27t69 -27q27 -27 27 -73q0 -45 -28 -71t-68 -26z" />
    <glyph glyph-name="uni1E38" unicode="&#x1e38;" 
d="M307 1350h90v-1268h707v-82h-797v1350zM152 1577h466v-74h-466v74zM727 -430q-41 0 -69 26t-28 72t28 72q28 27 69 27t69 -27t28 -73q0 -45 -28 -71t-69 -26z" />
    <glyph glyph-name="uni1E39" unicode="&#x1e39;" 
d="M555 297v1098h-365v78h455v-1188q0 -229 213 -230q90 0 205 54l29 -72q-143 -61 -246 -62q-291 0 -291 322zM367 1782h462v-74h-462v74zM770 -430q-41 0 -69 26q-27 26 -27 72t27 72q28 27 69 27t69 -27q27 -27 27 -73q0 -45 -28 -71t-68 -26z" />
    <glyph glyph-name="uni1E3A" unicode="&#x1e3a;" 
d="M307 1350h90v-1268h707v-82h-797v1350zM958 -328h-466v74h466v-74z" />
    <glyph glyph-name="uni1E3B" unicode="&#x1e3b;" 
d="M555 297v1098h-365v78h455v-1188q0 -229 213 -230q90 0 205 54l29 -72q-143 -61 -246 -62q-291 0 -291 322zM1001 -328h-466v74h466v-74z" />
    <glyph glyph-name="uni1E42" unicode="&#x1e42;" 
d="M272 944v-944h-86v1350h121l225 -629l80 -240h9l77 240l224 629h120v-1350h-88v944q0 151 11 303h-7l-77 -241l-234 -637h-65l-236 637l-82 241h-4q12 -210 12 -303zM614 -430q-40 0 -68 26t-28 72t28 72q28 27 68 27t69 -27q28 -27 28 -73q0 -45 -28 -71t-69 -26z" />
    <glyph glyph-name="uni1E43" unicode="&#x1e43;" 
d="M154 983h73l11 -133h4q43 72 93 115t132 43q158 0 197 -174q53 84 106 129t145 45q91 0 147 -74t56 -221v-713h-88v702q0 223 -143 224q-66 0 -114 -46t-97 -139v-741h-82v702q0 223 -141 224q-68 0 -116 -46t-95 -139v-741h-88v983zM629 -430q-41 0 -69 26t-28 72t28 72
q28 27 69 27t69 -27t27 -73q1 -45 -27 -71t-69 -26z" />
    <glyph glyph-name="uni1E44" unicode="&#x1e44;" 
d="M279 0h-91v1350h99l671 -1221h5q-13 318 -13 391v830h90v-1350h-98l-672 1221h-4q12 -296 13 -385v-836zM627 1477q-35 1 -59 23t-24 59t24 59t59 22t59 -22t23 -60q1 -36 -23 -58t-59 -23z" />
    <glyph glyph-name="uni1E45" unicode="&#x1e45;" 
d="M215 983h78l10 -188h8q86 92 177 152t210 61q354 0 355 -396v-612h-92v600q0 166 -65 246t-212 80q-101 0 -180 -50t-197 -171v-705h-92v983zM653 1221q-41 1 -69 27t-27 71q0 45 28 72q29 27 69 27t68 -28q28 -26 28 -71t-28 -71t-69 -27z" />
    <glyph glyph-name="uni1E46" unicode="&#x1e46;" 
d="M279 0h-91v1350h99l671 -1221h5q-13 318 -13 391v830h90v-1350h-98l-672 1221h-4q12 -296 13 -385v-836zM614 -430q-40 0 -68 26t-28 72t28 72q28 27 68 27t69 -27q28 -27 28 -73q0 -45 -28 -71t-69 -26z" />
    <glyph glyph-name="uni1E47" unicode="&#x1e47;" 
d="M215 983h78l10 -188h8q86 92 177 152t210 61q354 0 355 -396v-612h-92v600q0 166 -65 246t-212 80q-101 0 -180 -50t-197 -171v-705h-92v983zM649 -430q-41 0 -69 26t-27 72q0 46 28 72q29 27 69 27t68 -27t28 -73q0 -45 -28 -71t-69 -26z" />
    <glyph glyph-name="uni1E48" unicode="&#x1e48;" 
d="M279 0h-91v1350h99l671 -1221h5q-13 318 -13 391v830h90v-1350h-98l-672 1221h-4q12 -296 13 -385v-836zM846 -328h-467v74h467v-74z" />
    <glyph glyph-name="uni1E49" unicode="&#x1e49;" 
d="M215 983h78l10 -188h8q86 92 177 152t210 61q354 0 355 -396v-612h-92v600q0 166 -65 246t-212 80q-101 0 -180 -50t-197 -171v-705h-92v983zM881 -328h-467v74h467v-74z" />
    <glyph glyph-name="uni1E5A" unicode="&#x1e5a;" 
d="M334 621v-621h-94v1350h385q321 0 412 -193q32 -68 32 -164q0 -162 -93 -253t-253 -113l373 -627h-111l-364 621h-287zM600 698q373 0 373 295q0 152 -96 214t-277 63h-266v-572h266zM655 -430q-41 0 -69 26t-27 72q0 46 28 72q29 27 69 27t68 -27t28 -73q0 -45 -28 -71
t-69 -26z" />
    <glyph glyph-name="uni1E5B" unicode="&#x1e5b;" 
d="M426 0h-92v983h78l10 -242h4q80 117 198 192t249 75t212 -41l-24 -80q-99 33 -204 34t-217 -69t-214 -238v-614zM410 -430q-41 0 -69 26t-28 72t28 72q28 27 69 27q40 0 68 -27t28 -73q0 -45 -28 -71t-68 -26z" />
    <glyph glyph-name="uni1E5C" unicode="&#x1e5c;" 
d="M334 621v-621h-94v1350h385q321 0 412 -193q32 -68 32 -164q0 -162 -93 -253t-253 -113l373 -627h-111l-364 621h-287zM600 698q373 0 373 295q0 152 -96 214t-277 63h-266v-572h266zM393 1577h467v-74h-467v74zM655 -430q-41 0 -69 26t-27 72q0 46 28 72q29 27 69 27
t68 -27t28 -73q0 -45 -28 -71t-69 -26z" />
    <glyph glyph-name="uni1E5D" unicode="&#x1e5d;" 
d="M426 0h-92v983h78l10 -242h4q80 117 198 192t249 75t212 -41l-24 -80q-99 33 -204 34t-217 -69t-214 -238v-614zM471 1315h463v-74h-463v74zM410 -430q-41 0 -69 26t-28 72t28 72q28 27 69 27q40 0 68 -27t28 -73q0 -45 -28 -71t-68 -26z" />
    <glyph glyph-name="uni1E5E" unicode="&#x1e5e;" 
d="M334 621v-621h-94v1350h385q321 0 412 -193q32 -68 32 -164q0 -162 -93 -253t-253 -113l373 -627h-111l-364 621h-287zM600 698q373 0 373 295q0 152 -96 214t-277 63h-266v-572h266zM887 -328h-467v74h467v-74z" />
    <glyph glyph-name="uni1E5F" unicode="&#x1e5f;" 
d="M426 0h-92v983h78l10 -242h4q80 117 198 192t249 75t212 -41l-24 -80q-99 33 -204 34t-217 -69t-214 -238v-614zM641 -328h-467v74h467v-74z" />
    <glyph glyph-name="uni1E60" unicode="&#x1e60;" 
d="M989 332q0 158 -163 236q-48 24 -101 46l-205 93q-120 46 -178 99q-57 52 -86 106t-29 129q0 146 118 241q118 94 294 92q129 0 230 -48t167 -114l-55 -63q-139 139 -342 139q-143 0 -230 -66t-87 -175q0 -137 168 -223q44 -22 85 -38l203 -90q145 -59 200 -114
q56 -54 81 -110t25 -134t-32 -144q-63 -134 -234 -191q-83 -28 -212 -28q-129 1 -248 57t-202 146l61 66q168 -181 416 -183q166 0 261 75t95 196zM641 1477q-35 1 -59 23t-23 59q0 37 24 59q25 22 59 22t58 -22t23 -60q1 -36 -23 -58t-59 -23z" />
    <glyph glyph-name="uni1E61" unicode="&#x1e61;" 
d="M938 821q-147 109 -313 109q-167 0 -235 -50t-70 -125t88 -123t224 -81q243 -60 334 -125t92 -178t-109 -193t-280 -80q-281 0 -499 156l51 66q80 -66 182 -105t255 -39q153 1 230 59t77 133t-73 126q-73 52 -280 102q-268 64 -357 182q-30 41 -30 92q0 113 97 186
t288 75q98 0 202 -35t175 -86zM612 1221q-40 1 -68 27t-28 71t28 72t68 27t69 -28q28 -26 28 -71t-28 -71t-69 -27z" />
    <glyph glyph-name="uni1E62" unicode="&#x1e62;" 
d="M989 332q0 158 -163 236q-48 24 -101 46l-205 93q-120 46 -178 99q-57 52 -86 106t-29 129q0 146 118 241q118 94 294 92q129 0 230 -48t167 -114l-55 -63q-139 139 -342 139q-143 0 -230 -66t-87 -175q0 -137 168 -223q44 -22 85 -38l203 -90q145 -59 200 -114
q56 -54 81 -110t25 -134t-32 -144q-63 -134 -234 -191q-83 -28 -212 -28q-129 1 -248 57t-202 146l61 66q168 -181 416 -183q166 0 261 75t95 196zM635 -430q-41 0 -69 26t-28 72t28 72q28 27 69 27t69 -27t27 -73q1 -45 -27 -71t-69 -26z" />
    <glyph glyph-name="uni1E63" unicode="&#x1e63;" 
d="M938 821q-147 109 -313 109q-167 0 -235 -50t-70 -125t88 -123t224 -81q243 -60 334 -125t92 -178t-109 -193t-280 -80q-281 0 -499 156l51 66q80 -66 182 -105t255 -39q153 1 230 59t77 133t-73 126q-73 52 -280 102q-268 64 -357 182q-30 41 -30 92q0 113 97 186
t288 75q98 0 202 -35t175 -86zM637 -430q-41 0 -69 26t-28 72t28 72q28 27 69 27t69 -27t28 -73q0 -45 -28 -71t-69 -26z" />
    <glyph glyph-name="uni1E6C" unicode="&#x1e6c;" 
d="M567 1268h-469v82h1032v-82h-468v-1268h-95v1268zM616 -430q-40 0 -68 26t-28 72t28 72q28 27 68 27t69 -27q28 -27 28 -73q0 -45 -28 -71t-69 -26z" />
    <glyph glyph-name="uni1E6D" unicode="&#x1e6d;" 
d="M461 369v536h-297v70l299 8l12 285h76v-285h524v-78h-524v-545q0 -153 58 -228t205 -76t273 50l25 -69q-136 -60 -268 -61q-133 -1 -201 28q-182 78 -182 365zM791 -430q-41 0 -69 26t-28 72t28 72q28 27 69 27t69 -27t27 -73q1 -45 -27 -71t-69 -26z" />
    <glyph glyph-name="uni1E6E" unicode="&#x1e6e;" 
d="M567 1268h-469v82h1032v-82h-468v-1268h-95v1268zM848 -328h-467v74h467v-74z" />
    <glyph glyph-name="uni1E6F" unicode="&#x1e6f;" 
d="M461 369v536h-297v70l299 8l12 285h76v-285h524v-78h-524v-545q0 -153 58 -228t205 -76t273 50l25 -69q-136 -60 -268 -61q-133 -1 -201 28q-182 78 -182 365zM1022 -328h-467v74h467v-74z" />
    <glyph glyph-name="Wgrave" unicode="&#x1e80;" 
d="M29 1352h88l145 -924q10 -82 22 -162t21 -164h4q25 84 49 164q25 80 48 162l167 571h86l172 -571q23 -82 47 -163t46 -163h8q10 82 21 163t22 163l139 924h86l-217 -1352h-115l-192 647q-16 59 -28 117t-30 119h-6q-16 -59 -30 -117t-31 -119l-186 -647h-113zM383 1669
h119l188 -217h-82z" />
    <glyph glyph-name="wgrave" unicode="&#x1e81;" 
d="M23 983h96l157 -637q16 -68 32 -132t28 -130h8q16 66 32 130t34 132l157 621h101l157 -621q23 -96 66 -262h8q17 66 31 130t31 132l155 637h90l-250 -983h-116l-156 602q-43 196 -66 281h-8q-16 -68 -30 -139t-35 -146l-152 -598h-117zM432 1454h109l188 -283h-78z" />
    <glyph glyph-name="Wacute" unicode="&#x1e82;" 
d="M29 1352h88l145 -924q10 -82 22 -162t21 -164h4q25 84 49 164q25 80 48 162l167 571h86l172 -571q23 -82 47 -163t46 -163h8q10 82 21 163t22 163l139 924h86l-217 -1352h-115l-192 647q-16 59 -28 117t-30 119h-6q-16 -59 -30 -117t-31 -119l-186 -647h-113zM621 1452
h-82l188 217h119z" />
    <glyph glyph-name="wacute" unicode="&#x1e83;" 
d="M23 983h96l157 -637q16 -68 32 -132t28 -130h8q16 66 32 130t34 132l157 621h101l157 -621q23 -96 66 -262h8q17 66 31 130t31 132l155 637h90l-250 -983h-116l-156 602q-43 196 -66 281h-8q-16 -68 -30 -139t-35 -146l-152 -598h-117zM578 1171h-78l188 283h109z" />
    <glyph glyph-name="Wdieresis" unicode="&#x1e84;" 
d="M29 1352h88l145 -924q10 -82 22 -162t21 -164h4q25 84 49 164q25 80 48 162l167 571h86l172 -571q23 -82 47 -163t46 -163h8q10 82 21 163t22 163l139 924h86l-217 -1352h-115l-192 647q-16 59 -28 117t-30 119h-6q-16 -59 -30 -117t-31 -119l-186 -647h-113zM776 1485
q-32 0 -54 19q-22 18 -22 54t22 56t54 20t53 -20t21 -55t-20 -55t-54 -19zM453 1485q-33 0 -54 19q-20 18 -20 54t20 56q19 20 53 20t56 -20t20 -55q0 -35 -21 -55t-54 -19z" />
    <glyph glyph-name="wdieresis" unicode="&#x1e85;" 
d="M23 983h96l157 -637q16 -68 32 -132t28 -130h8q16 66 32 130t34 132l157 621h101l157 -621q23 -96 66 -262h8q17 66 31 130t31 132l155 637h90l-250 -983h-116l-156 602q-43 196 -66 281h-8q-16 -68 -30 -139t-35 -146l-152 -598h-117zM797 1225q-35 1 -59 25t-23 59
q-1 35 23 61t59 25q35 0 57 -26q22 -27 23 -61q-1 -34 -23 -58t-57 -25zM432 1225q-36 1 -58 25t-22 59t23 61t57 25q34 0 58 -26q24 -27 24 -61t-24 -58t-58 -25z" />
    <glyph glyph-name="uni1E8E" unicode="&#x1e8e;" 
d="M662 0h-95v496l-463 854h97l239 -447q47 -78 87 -157t87 -160h9q47 82 90 162t86 157l233 445h92l-462 -854v-496zM614 1477q-34 1 -58 23t-24 59t24 59t58 22t59 -22q23 -22 23 -60q0 -36 -23 -59q-24 -22 -59 -22z" />
    <glyph glyph-name="uni1E8F" unicode="&#x1e8f;" 
d="M396 -421q-62 -28 -136 -28t-123 21l25 80q45 -15 96 -17q203 0 307 261l35 86l-477 1001h94l287 -618q28 -61 64 -137t71 -140h8q33 74 115 277l256 618h88l-463 -1106q-85 -226 -247 -298zM621 1221q-41 1 -69 27t-28 71t28 72t69 27t69 -28q28 -26 27 -71
q1 -45 -27 -71t-69 -27z" />
    <glyph glyph-name="uni1E92" unicode="&#x1e92;" 
d="M213 1272v80h868v-58l-825 -1212h840v-82h-953v57l826 1215h-756zM639 -430q-41 0 -69 26t-28 72t28 72q28 27 69 27t69 -27t28 -73q0 -45 -28 -71t-69 -26z" />
    <glyph glyph-name="uni1E93" unicode="&#x1e93;" 
d="M229 905v78h826v-47l-770 -856h792v-80h-930v49l771 856h-689zM647 -430q-41 0 -69 26t-27 72q0 46 28 72q29 27 69 27t68 -27t28 -73q0 -45 -28 -71t-69 -26z" />
    <glyph glyph-name="uni1E97" unicode="&#x1e97;" 
d="M461 369v536h-297v70l299 8l12 285h76v-285h524v-78h-524v-545q0 -153 58 -228t205 -76t273 50l25 -69q-136 -60 -268 -61q-133 -1 -201 28q-182 78 -182 365zM721 1493q-35 0 -59 25q-24 26 -23 60q0 34 24 60q25 26 59 25q34 0 56 -26q22 -27 23 -61q-1 -34 -23 -58
t-57 -25zM356 1493q-36 0 -58 25q-22 26 -22 60t23 60t57 25q34 0 59 -26q23 -27 23 -61t-24 -58t-58 -25z" />
    <glyph glyph-name="uni1E9E" unicode="&#x1e9e;" 
d="M983.5 138q65.5 79 65.5 206t-86.5 208t-325.5 124l-6 72l293 348q-35 82 -104.5 138t-178.5 56q-168 0 -267.5 -106.5t-99.5 -337.5v-846h-96v872q0 221 120.5 361.5t346.5 140.5q267 0 387 -282l-295 -349q414 -72 414 -401q0 -158 -100.5 -262.5t-253.5 -104.5
q-102 0 -191.5 41t-148.5 119l61 66q116 -142 277 -142q123 0 188.5 79z" />
    <glyph glyph-name="uni1EA0" unicode="&#x1ea0;" 
d="M881 463h-535l-160 -463h-94l475 1350h95l475 -1350h-101zM854 543l-86 252q-111 327 -150 467h-8q-48 -171 -149 -467l-86 -252h479zM614 -430q-40 0 -68 26t-28 72t28 72q28 27 68 27t69 -27q28 -27 28 -73q0 -45 -28 -71t-69 -26z" />
    <glyph glyph-name="uni1EA1" unicode="&#x1ea1;" 
d="M281 253q1 -56 23 -93q63 -103 244 -105t394 176v316q-526 -45 -628 -191q-32 -47 -33 -103zM188 246q0 242 411 323q142 29 343 47q0 218 -152 286q-56 26 -141 26q-167 0 -373 -133l-40 67q86 59 196 102q111 43 218 43q195 2 290 -105q94 -107 92 -273v-629h-76
l-10 147h-4q-215 -170 -412 -172q-142 0 -242 70t-100 201zM614 -430q-40 0 -68 26t-28 72t28 72q28 27 68 27t69 -27q28 -27 28 -73q0 -45 -28 -71t-69 -26z" />
    <glyph glyph-name="uni1EA2" unicode="&#x1ea2;" 
d="M881 463h-535l-160 -463h-94l475 1350h95l475 -1350h-101zM854 543l-86 252q-111 327 -150 467h-8q-48 -171 -149 -467l-86 -252h479zM678 1604q0 92 -174 98l8 65q244 -10 248 -151q0 -75 -56 -116q-56 -40 -139 -62l-16 55q129 38 129 111z" />
    <glyph glyph-name="uni1EA3" unicode="&#x1ea3;" 
d="M281 253q1 -56 23 -93q63 -103 244 -105t394 176v316q-526 -45 -628 -191q-32 -47 -33 -103zM188 246q0 242 411 323q142 29 343 47q0 218 -152 286q-56 26 -141 26q-167 0 -373 -133l-40 67q86 59 196 102q111 43 218 43q195 2 290 -105q94 -107 92 -273v-629h-76
l-10 147h-4q-215 -170 -412 -172q-142 0 -242 70t-100 201zM713 1294q0 92 -174 99l8 65q174 -7 228 -87q19 -27 19 -67t-22 -80q-23 -40 -79 -63q-56 -22 -93 -33l-16 54q55 16 92 42t37 70z" />
    <glyph glyph-name="uni1EA4" unicode="&#x1ea4;" 
d="M881 463h-535l-160 -463h-94l475 1350h95l475 -1350h-101zM854 543l-86 252q-111 327 -150 467h-8q-48 -171 -149 -467l-86 -252h479zM573 1657h82l187 -205h-80l-144 135h-8l-143 -135h-80zM922 1794h98l-176 -217h-68z" />
    <glyph glyph-name="uni1EA5" unicode="&#x1ea5;" 
d="M281 253q1 -56 23 -93q63 -103 244 -105t394 176v316q-526 -45 -628 -191q-32 -47 -33 -103zM188 246q0 242 411 323q142 29 343 47q0 218 -152 286q-56 26 -141 26q-167 0 -373 -133l-40 67q86 59 196 102q111 43 218 43q195 2 290 -105q94 -107 92 -273v-629h-76
l-10 147h-4q-215 -170 -412 -172q-142 0 -242 70t-100 201zM967 1532h94l-184 -227h-68zM610 1405h78l172 -234h-74l-133 160h-8l-133 -160h-74z" />
    <glyph glyph-name="uni1EA6" unicode="&#x1ea6;" 
d="M881 463h-535l-160 -463h-94l475 1350h95l475 -1350h-101zM854 543l-86 252q-111 327 -150 467h-8q-48 -171 -149 -467l-86 -252h479zM573 1657h82l187 -205h-80l-144 135h-8l-143 -135h-80zM926 1577h-68l-176 217h96z" />
    <glyph glyph-name="uni1EA7" unicode="&#x1ea7;" 
d="M281 253q1 -56 23 -93q63 -103 244 -105t394 176v316q-526 -45 -628 -191q-32 -47 -33 -103zM188 246q0 242 411 323q142 29 343 47q0 218 -152 286q-56 26 -141 26q-167 0 -373 -133l-40 67q86 59 196 102q111 43 218 43q195 2 290 -105q94 -107 92 -273v-629h-76
l-10 147h-4q-215 -170 -412 -172q-142 0 -242 70t-100 201zM1004 1305h-68l-186 227h96zM610 1405h78l172 -234h-74l-133 160h-8l-133 -160h-74z" />
    <glyph glyph-name="uni1EA8" unicode="&#x1ea8;" 
d="M881 463h-535l-160 -463h-94l475 1350h95l475 -1350h-101zM854 543l-86 252q-111 327 -150 467h-8q-48 -171 -149 -467l-86 -252h479zM573 1657h82l187 -205h-80l-144 135h-8l-143 -135h-80zM985 1702q0 -113 -162 -152l-20 56q106 25 104 86q0 47 -38 64t-111 22l10 63
q217 -9 217 -139z" />
    <glyph glyph-name="uni1EA9" unicode="&#x1ea9;" 
d="M281 253q1 -56 23 -93q63 -103 244 -105t394 176v316q-526 -45 -628 -191q-32 -47 -33 -103zM188 246q0 242 411 323q142 29 343 47q0 218 -152 286q-56 26 -141 26q-167 0 -373 -133l-40 67q86 59 196 102q111 43 218 43q195 2 290 -105q94 -107 92 -273v-629h-76
l-10 147h-4q-215 -170 -412 -172q-142 0 -242 70t-100 201zM944 1432q0 88 -145 94l6 59q215 -9 217 -143q0 -90 -104 -135q-29 -12 -58 -21l-16 51q44 16 72 38t28 57zM610 1405h78l172 -234h-74l-133 160h-8l-133 -160h-74z" />
    <glyph glyph-name="uni1EAA" unicode="&#x1eaa;" 
d="M881 463h-535l-160 -463h-94l475 1350h95l475 -1350h-101zM854 543l-86 252q-111 327 -150 467h-8q-48 -171 -149 -467l-86 -252h479zM724 1796q30 0 52 23t29 69h59q-4 -59 -39 -108t-99 -49t-123 46q-25 17 -47 31t-52 14t-52 -22q-22 -23 -28 -69h-59q4 59 38 108
q35 49 98 49t125 -46q24 -18 46 -32t52 -14zM573 1657h82l187 -205h-80l-144 135h-8l-143 -135h-80z" />
    <glyph glyph-name="uni1EAB" unicode="&#x1eab;" 
d="M281 253q1 -56 23 -93q63 -103 244 -105t394 176v316q-526 -45 -628 -191q-32 -47 -33 -103zM188 246q0 242 411 323q142 29 343 47q0 218 -152 286q-56 26 -141 26q-167 0 -373 -133l-40 67q86 59 196 102q111 43 218 43q195 2 290 -105q94 -107 92 -273v-629h-76
l-10 147h-4q-215 -170 -412 -172q-142 0 -242 70t-100 201zM859 1495q-36 -49 -99 -49t-122 46q-24 18 -46 32t-47 14q-72 0 -86 -92h-58q7 108 82 144q83 40 176 -32q62 -46 95 -47q70 0 86 93h57q-5 -68 -38 -109zM608 1372h82l187 -205h-74l-150 142h-8l-149 -142h-74z
" />
    <glyph glyph-name="uni1EAC" unicode="&#x1eac;" 
d="M881 463h-535l-160 -463h-94l475 1350h95l475 -1350h-101zM854 543l-86 252q-111 327 -150 467h-8q-48 -171 -149 -467l-86 -252h479zM375 1452l196 217h86l197 -217h-82l-154 147h-8l-153 -147h-82zM614 -430q-40 0 -68 26t-28 72t28 72q28 27 68 27t69 -27
q28 -27 28 -73q0 -45 -28 -71t-69 -26z" />
    <glyph glyph-name="uni1EAD" unicode="&#x1ead;" 
d="M281 253q1 -56 23 -93q63 -103 244 -105t394 176v316q-526 -45 -628 -191q-32 -47 -33 -103zM188 246q0 242 411 323q142 29 343 47q0 218 -152 286q-56 26 -141 26q-167 0 -373 -133l-40 67q86 59 196 102q111 43 218 43q195 2 290 -105q94 -107 92 -273v-629h-76
l-10 147h-4q-215 -170 -412 -172q-142 0 -242 70t-100 201zM608 1454h82l195 -283h-78l-154 207h-8l-153 -207h-78zM614 -430q-40 0 -68 26t-28 72t28 72q28 27 68 27t69 -27q28 -27 28 -73q0 -45 -28 -71t-69 -26z" />
    <glyph glyph-name="uni1EAE" unicode="&#x1eae;" 
d="M881 463h-535l-160 -463h-94l475 1350h95l475 -1350h-101zM854 543l-86 252q-111 327 -150 467h-8q-48 -171 -149 -467l-86 -252h479zM614 1520q78 0 117 44t51 97h64q-9 -79 -71 -142t-162 -63t-160 64q-61 64 -70 141h63q12 -53 52 -97q38 -44 116 -44zM705 1835h100
l-195 -199h-67z" />
    <glyph glyph-name="uni1EAF" unicode="&#x1eaf;" 
d="M281 253q1 -56 23 -93q63 -103 244 -105t394 176v316q-526 -45 -628 -191q-32 -47 -33 -103zM188 246q0 242 411 323q142 29 343 47q0 218 -152 286q-56 26 -141 26q-167 0 -373 -133l-40 67q86 59 196 102q111 43 218 43q195 2 290 -105q94 -107 92 -273v-629h-76
l-10 147h-4q-215 -170 -412 -172q-142 0 -242 70t-100 201zM649 1180q-63 0 -107 24q-120 64 -136 219h63q8 -68 52 -124t128 -56q117 0 163 114q13 32 17 66h64q-16 -153 -136 -220q-45 -23 -108 -23zM735 1591h94l-176 -225h-69z" />
    <glyph glyph-name="uni1EB0" unicode="&#x1eb0;" 
d="M881 463h-535l-160 -463h-94l475 1350h95l475 -1350h-101zM854 543l-86 252q-111 327 -150 467h-8q-48 -171 -149 -467l-86 -252h479zM614 1520q78 0 117 44t51 97h64q-9 -79 -71 -142t-162 -63t-160 64q-61 64 -70 141h63q12 -53 52 -97q38 -44 116 -44zM686 1636h-68
l-194 199h100z" />
    <glyph glyph-name="uni1EB1" unicode="&#x1eb1;" 
d="M281 253q1 -56 23 -93q63 -103 244 -105t394 176v316q-526 -45 -628 -191q-32 -47 -33 -103zM188 246q0 242 411 323q142 29 343 47q0 218 -152 286q-56 26 -141 26q-167 0 -373 -133l-40 67q86 59 196 102q111 43 218 43q195 2 290 -105q94 -107 92 -273v-629h-76
l-10 147h-4q-215 -170 -412 -172q-142 0 -242 70t-100 201zM649 1180q-63 0 -107 24q-120 64 -136 219h63q8 -68 52 -124t128 -56q117 0 163 114q13 32 17 66h64q-16 -153 -136 -220q-45 -23 -108 -23zM715 1366h-70l-176 225h94z" />
    <glyph glyph-name="uni1EB2" unicode="&#x1eb2;" 
d="M881 463h-535l-160 -463h-94l475 1350h95l475 -1350h-101zM854 543l-86 252q-111 327 -150 467h-8q-48 -171 -149 -467l-86 -252h479zM614 1520q78 0 117 44t51 97h64q-9 -79 -71 -142t-162 -63t-160 64q-61 64 -70 141h63q12 -53 52 -97q38 -44 116 -44zM741 1784
q0 -91 -104 -132q-29 -11 -57 -20l-21 56q43 12 74 31t31 61t-38 59q-38 18 -112 23l10 61q217 -9 217 -139z" />
    <glyph glyph-name="uni1EB3" unicode="&#x1eb3;" 
d="M281 253q1 -56 23 -93q63 -103 244 -105t394 176v316q-526 -45 -628 -191q-32 -47 -33 -103zM188 246q0 242 411 323q142 29 343 47q0 218 -152 286q-56 26 -141 26q-167 0 -373 -133l-40 67q86 59 196 102q111 43 218 43q195 2 290 -105q94 -107 92 -273v-629h-76
l-10 147h-4q-215 -170 -412 -172q-142 0 -242 70t-100 201zM688 1528q0 46 -36 68t-109 26l8 59q215 -9 215 -141q0 -89 -104 -137q-29 -12 -58 -21l-16 54q100 31 100 92zM649 1180q-63 0 -107 24q-120 64 -136 219h63q8 -68 52 -124t128 -56q117 0 163 114q13 32 17 66h64
q-16 -153 -136 -220q-45 -23 -108 -23z" />
    <glyph glyph-name="uni1EB4" unicode="&#x1eb4;" 
d="M881 463h-535l-160 -463h-94l475 1350h95l475 -1350h-101zM854 543l-86 252q-111 327 -150 467h-8q-48 -171 -149 -467l-86 -252h479zM719 1792q69 0 86 100h59q-5 -66 -31 -100q-48 -64 -110 -65t-120 50q-62 49 -95 49q-34 1 -56 -26t-28 -74h-59q7 108 82 151
q25 15 71 15t106 -50q24 -18 46 -34t49 -16zM614 1520q78 0 117 44t51 97h64q-9 -79 -71 -142t-162 -63t-160 64q-61 64 -70 141h63q12 -53 52 -97q38 -44 116 -44z" />
    <glyph glyph-name="uni1EB5" unicode="&#x1eb5;" 
d="M281 253q1 -56 23 -93q63 -103 244 -105t394 176v316q-526 -45 -628 -191q-32 -47 -33 -103zM188 246q0 242 411 323q142 29 343 47q0 218 -152 286q-56 26 -141 26q-167 0 -373 -133l-40 67q86 59 196 102q111 43 218 43q195 2 290 -105q94 -107 92 -273v-629h-76
l-10 147h-4q-215 -170 -412 -172q-142 0 -242 70t-100 201zM859 1495q-36 -49 -99 -49t-122 46q-24 18 -46 32t-47 14q-72 0 -86 -92h-58q7 108 82 144q83 40 176 -32q62 -46 95 -47q70 0 86 93h57q-5 -68 -38 -109zM649 1180q-113 0 -171 58t-68 144h63q10 -53 52 -96
t124 -43t124 43t52 96h64q-14 -133 -133 -184q-44 -18 -107 -18z" />
    <glyph glyph-name="uni1EB6" unicode="&#x1eb6;" 
d="M881 463h-535l-160 -463h-94l475 1350h95l475 -1350h-101zM854 543l-86 252q-111 327 -150 467h-8q-48 -171 -149 -467l-86 -252h479zM614 1522q107 0 152 94q12 27 16 53h68q-10 -85 -71 -149t-165 -64q-105 0 -165 65t-70 148h67q8 -53 48 -100t120 -47zM614 -430
q-40 0 -68 26t-28 72t28 72q28 27 68 27t69 -27q28 -27 28 -73q0 -45 -28 -71t-69 -26z" />
    <glyph glyph-name="uni1EB7" unicode="&#x1eb7;" 
d="M281 253q1 -56 23 -93q63 -103 244 -105t394 176v316q-526 -45 -628 -191q-32 -47 -33 -103zM188 246q0 242 411 323q142 29 343 47q0 218 -152 286q-56 26 -141 26q-167 0 -373 -133l-40 67q86 59 196 102q111 43 218 43q195 2 290 -105q94 -107 92 -273v-629h-76
l-10 147h-4q-215 -170 -412 -172q-142 0 -242 70t-100 201zM649 1180q-63 0 -107 24q-120 64 -139 223h68q8 -72 41 -112q57 -68 137 -70q112 0 161 116q13 32 17 66h68q-10 -99 -65 -163q-68 -84 -181 -84zM614 -430q-40 0 -68 26t-28 72t28 72q28 27 68 27t69 -27
q28 -27 28 -73q0 -45 -28 -71t-69 -26z" />
    <glyph glyph-name="uni1EB8" unicode="&#x1eb8;" 
d="M260 1350h799v-82h-705v-510h594v-82h-594v-594h725v-82h-819v1350zM694 -430q-40 0 -68 26t-28 72t28 72q28 27 68 27t69 -27q28 -27 28 -73q0 -45 -28 -71t-69 -26z" />
    <glyph glyph-name="uni1EB9" unicode="&#x1eb9;" 
d="M1001 553q0 185 -95 281t-251 96t-270 -105t-133 -272h749zM688 -25q-118 0 -212 35q-195 72 -277 263q-41 95 -41 216q0 232 148 376q148 143 345 143q199 0 319 -122t120 -333v-37q0 -18 -5 -37h-833q4 -188 123 -307t298 -119t339 107l37 -70q-68 -43 -156 -79
q-87 -36 -205 -36zM647 -430q-41 0 -69 26t-27 72q0 46 28 72q29 27 69 27t68 -27t28 -73q0 -45 -28 -71t-69 -26z" />
    <glyph glyph-name="uni1EBA" unicode="&#x1eba;" 
d="M260 1350h799v-82h-705v-510h594v-82h-594v-594h725v-82h-819v1350zM752 1604q0 92 -174 98l8 65q244 -10 248 -151q0 -75 -56 -116q-56 -40 -139 -62l-16 55q129 38 129 111z" />
    <glyph glyph-name="uni1EBB" unicode="&#x1ebb;" 
d="M1001 553q0 185 -95 281t-251 96t-270 -105t-133 -272h749zM688 -25q-118 0 -212 35q-195 72 -277 263q-41 95 -41 216q0 232 148 376q148 143 345 143q199 0 319 -122t120 -333v-37q0 -18 -5 -37h-833q4 -188 123 -307t298 -119t339 107l37 -70q-68 -43 -156 -79
q-87 -36 -205 -36zM711 1294q0 92 -174 99l8 65q174 -7 228 -87q19 -27 19 -67t-22 -80q-23 -40 -79 -63q-56 -22 -93 -33l-16 54q55 16 92 42t37 70z" />
    <glyph glyph-name="uni1EBC" unicode="&#x1ebc;" 
d="M260 1350h799v-82h-705v-510h594v-82h-594v-594h725v-82h-819v1350zM913 1527q-39 -61 -101 -61t-135 59q-29 22 -55 40t-58 18t-54 -32t-29 -85h-59q5 79 41 129q39 58 92 59q53 0 84 -18t79 -56t87 -39q77 -1 90 114h59q-4 -76 -41 -128z" />
    <glyph glyph-name="uni1EBD" unicode="&#x1ebd;" 
d="M1001 553q0 185 -95 281t-251 96t-270 -105t-133 -272h749zM688 -25q-118 0 -212 35q-195 72 -277 263q-41 95 -41 216q0 232 148 376q148 143 345 143q199 0 319 -122t120 -333v-37q0 -18 -5 -37h-833q4 -188 123 -307t298 -119t339 107l37 -70q-68 -43 -156 -79
q-87 -36 -205 -36zM762 1260q63 0 78 114h61q-8 -125 -80 -168q-27 -16 -74 -16t-113 57t-102 58q-66 0 -77 -115h-62q8 125 80 168q27 16 72 16t114 -58q27 -22 52 -39t51 -17z" />
    <glyph glyph-name="uni1EBE" unicode="&#x1ebe;" 
d="M260 1350h799v-82h-705v-510h594v-82h-594v-594h725v-82h-819v1350zM647 1657h82l186 -205h-79l-144 135h-8l-143 -135h-80zM995 1794h99l-176 -217h-68z" />
    <glyph glyph-name="uni1EBF" unicode="&#x1ebf;" 
d="M1001 553q0 185 -95 281t-251 96t-270 -105t-133 -272h749zM688 -25q-118 0 -212 35q-195 72 -277 263q-41 95 -41 216q0 232 148 376q148 143 345 143q199 0 319 -122t120 -333v-37q0 -18 -5 -37h-833q4 -188 123 -307t298 -119t339 107l37 -70q-68 -43 -156 -79
q-87 -36 -205 -36zM965 1532h94l-185 -227h-67zM608 1405h78l172 -234h-74l-133 160h-8l-133 -160h-74z" />
    <glyph glyph-name="uni1EC0" unicode="&#x1ec0;" 
d="M260 1350h799v-82h-705v-510h594v-82h-594v-594h725v-82h-819v1350zM647 1657h82l186 -205h-79l-144 135h-8l-143 -135h-80zM999 1577h-67l-176 217h96z" />
    <glyph glyph-name="uni1EC1" unicode="&#x1ec1;" 
d="M1001 553q0 185 -95 281t-251 96t-270 -105t-133 -272h749zM688 -25q-118 0 -212 35q-195 72 -277 263q-41 95 -41 216q0 232 148 376q148 143 345 143q199 0 319 -122t120 -333v-37q0 -18 -5 -37h-833q4 -188 123 -307t298 -119t339 107l37 -70q-68 -43 -156 -79
q-87 -36 -205 -36zM1001 1305h-67l-186 227h96zM608 1405h78l172 -234h-74l-133 160h-8l-133 -160h-74z" />
    <glyph glyph-name="uni1EC2" unicode="&#x1ec2;" 
d="M260 1350h799v-82h-705v-510h594v-82h-594v-594h725v-82h-819v1350zM647 1657h82l186 -205h-79l-144 135h-8l-143 -135h-80zM981 1692q0 47 -38 64t-112 22l11 63q215 -9 217 -139q0 -94 -105 -134q-29 -11 -57 -18l-20 56q104 24 104 86z" />
    <glyph glyph-name="uni1EC3" unicode="&#x1ec3;" 
d="M1001 553q0 185 -95 281t-251 96t-270 -105t-133 -272h749zM688 -25q-118 0 -212 35q-195 72 -277 263q-41 95 -41 216q0 232 148 376q148 143 345 143q199 0 319 -122t120 -333v-37q0 -18 -5 -37h-833q4 -188 123 -307t298 -119t339 107l37 -70q-68 -43 -156 -79
q-87 -36 -205 -36zM942 1432q0 88 -145 94l6 59q215 -9 217 -143q0 -92 -105 -135q-29 -12 -57 -21l-16 51q44 16 72 38t28 57zM608 1405h78l172 -234h-74l-133 160h-8l-133 -160h-74z" />
    <glyph glyph-name="uni1EC4" unicode="&#x1ec4;" 
d="M260 1350h799v-82h-705v-510h594v-82h-594v-594h725v-82h-819v1350zM798 1796q30 0 52 23t29 69h59q-4 -59 -39 -108t-99 -49t-123 46q-25 17 -47 31t-52 14t-52 -22q-23 -23 -28 -69h-60q4 59 39 108t99 49t123 -46q25 -18 47 -32t52 -14zM647 1657h82l186 -205h-79
l-144 135h-8l-143 -135h-80z" />
    <glyph glyph-name="uni1EC5" unicode="&#x1ec5;" 
d="M1001 553q0 185 -95 281t-251 96t-270 -105t-133 -272h749zM688 -25q-118 0 -212 35q-195 72 -277 263q-41 95 -41 216q0 232 148 376q148 143 345 143q199 0 319 -122t120 -333v-37q0 -18 -5 -37h-833q4 -188 123 -307t298 -119t339 107l37 -70q-68 -43 -156 -79
q-87 -36 -205 -36zM857 1495q-36 -49 -99 -49t-122 46q-24 18 -46 32t-47 14q-72 0 -86 -92h-58q7 108 82 144q83 40 176 -32q23 -18 45 -32t50 -15q70 0 86 93h57q-5 -68 -38 -109zM606 1372h82l186 -205h-73l-150 142h-8l-149 -142h-74z" />
    <glyph glyph-name="uni1EC6" unicode="&#x1ec6;" 
d="M260 1350h799v-82h-705v-510h594v-82h-594v-594h725v-82h-819v1350zM449 1452l196 217h86l197 -217h-82l-154 147h-8l-154 -147h-81zM694 -430q-40 0 -68 26t-28 72t28 72q28 27 68 27t69 -27q28 -27 28 -73q0 -45 -28 -71t-69 -26z" />
    <glyph glyph-name="uni1EC7" unicode="&#x1ec7;" 
d="M1001 553q0 185 -95 281t-251 96t-270 -105t-133 -272h749zM688 -25q-118 0 -212 35q-195 72 -277 263q-41 95 -41 216q0 232 148 376q148 143 345 143q199 0 319 -122t120 -333v-37q0 -18 -5 -37h-833q4 -188 123 -307t298 -119t339 107l37 -70q-68 -43 -156 -79
q-87 -36 -205 -36zM606 1454h82l195 -283h-78l-154 207h-8l-154 -207h-77zM647 -430q-41 0 -69 26t-27 72q0 46 28 72q29 27 69 27t68 -27t28 -73q0 -45 -28 -71t-69 -26z" />
    <glyph glyph-name="uni1EC8" unicode="&#x1ec8;" 
d="M219 82h348v1186h-348v82h791v-82h-348v-1186h348v-82h-791v82zM678 1604q0 92 -174 98l8 65q244 -10 248 -151q0 -75 -56 -116q-56 -40 -139 -62l-16 55q129 38 129 111z" />
    <glyph glyph-name="uni1EC9" unicode="&#x1ec9;" 
d="M199 983h583v-983h-90v905h-493v78zM778 1294q0 92 -174 99l8 65q111 -4 175 -41q73 -39 73 -112q0 -104 -123 -153q-35 -13 -71 -24l-17 54q55 16 92 42t37 70z" />
    <glyph glyph-name="uni1ECA" unicode="&#x1eca;" 
d="M219 82h348v1186h-348v82h791v-82h-348v-1186h348v-82h-791v82zM616 -430q-40 0 -68 26t-28 72t28 72q28 27 68 27t69 -27q28 -27 28 -73q0 -45 -28 -71t-69 -26z" />
    <glyph glyph-name="uni1ECB" unicode="&#x1ecb;" 
d="M715 1221q-41 1 -69 27t-28 71t28 72t69 27t69 -28q28 -26 27 -71q1 -45 -27 -71t-69 -27zM199 983h583v-983h-90v905h-493v78zM715 -430q-41 0 -69 26t-28 72t28 72q28 27 69 27t69 -27t27 -73q1 -45 -27 -71t-69 -26z" />
    <glyph glyph-name="uni1ECC" unicode="&#x1ecc;" 
d="M1020 680q0 277 -112 442q-112 166 -294 166t-293 -167q-112 -167 -112 -442q0 -276 112 -447t293 -171q182 0 294 171t112 448zM110 680q1 318 141 506q139 188 363 188q223 0 364 -188q140 -188 140 -506t-141 -512q-143 -193 -363 -193q-219 0 -362 193
q-143 194 -142 512zM614 -430q-40 0 -68 26t-28 72t28 72q28 27 68 27t69 -27q28 -27 28 -73q0 -45 -28 -71t-69 -26z" />
    <glyph glyph-name="uni1ECD" unicode="&#x1ecd;" 
d="M233 490q0 -191 107 -313q106 -122 274 -122q167 0 275 123t107 313q-1 191 -107 314t-275 123q-84 0 -153 -32q-140 -64 -199 -228q-29 -80 -29 -178zM137 493q0 240 139 377q139 138 340 138t338 -139q138 -139 138 -379t-139 -377q-139 -138 -340 -138t-338 139
q-138 139 -138 379zM616 -430q-40 0 -68 26t-28 72t28 72q28 27 68 27t69 -27q28 -27 28 -73q0 -45 -28 -71t-69 -26z" />
    <glyph glyph-name="uni1ECE" unicode="&#x1ece;" 
d="M1020 680q0 277 -112 442q-112 166 -294 166t-293 -167q-112 -167 -112 -442q0 -276 112 -447t293 -171q182 0 294 171t112 448zM110 680q1 318 141 506q139 188 363 188q223 0 364 -188q140 -188 140 -506t-141 -512q-143 -193 -363 -193q-219 0 -362 193
q-143 194 -142 512zM678 1604q0 92 -174 98l8 65q244 -10 248 -151q0 -75 -56 -116q-56 -40 -139 -62l-16 55q129 38 129 111z" />
    <glyph glyph-name="uni1ECF" unicode="&#x1ecf;" 
d="M233 490q0 -191 107 -313q106 -122 274 -122q167 0 275 123t107 313q-1 191 -107 314t-275 123q-84 0 -153 -32q-140 -64 -199 -228q-29 -80 -29 -178zM137 493q0 240 139 377q139 138 340 138t338 -139q138 -139 138 -379t-139 -377q-139 -138 -340 -138t-338 139
q-138 139 -138 379zM678 1294q0 92 -174 99l8 65q174 -7 228 -87q20 -27 20 -67t-23 -80t-79 -63q-56 -22 -93 -33l-16 54q55 16 92 42t37 70z" />
    <glyph glyph-name="uni1ED0" unicode="&#x1ed0;" 
d="M1020 680q0 277 -112 442q-112 166 -294 166t-293 -167q-112 -167 -112 -442q0 -276 112 -447t293 -171q182 0 294 171t112 448zM110 680q1 318 141 506q139 188 363 188q223 0 364 -188q140 -188 140 -506t-141 -512q-143 -193 -363 -193q-219 0 -362 193
q-143 194 -142 512zM573 1657h82l187 -205h-80l-144 135h-8l-143 -135h-80zM922 1794h98l-176 -217h-68z" />
    <glyph glyph-name="uni1ED1" unicode="&#x1ed1;" 
d="M233 490q0 -191 107 -313q106 -122 274 -122q167 0 275 123t107 313q-1 191 -107 314t-275 123q-84 0 -153 -32q-140 -64 -199 -228q-29 -80 -29 -178zM137 493q0 240 139 377q139 138 340 138t338 -139q138 -139 138 -379t-139 -377q-139 -138 -340 -138t-338 139
q-138 139 -138 379zM932 1532h94l-184 -227h-68zM575 1405h78l172 -234h-73l-134 160h-8l-133 -160h-74z" />
    <glyph glyph-name="uni1ED2" unicode="&#x1ed2;" 
d="M1020 680q0 277 -112 442q-112 166 -294 166t-293 -167q-112 -167 -112 -442q0 -276 112 -447t293 -171q182 0 294 171t112 448zM110 680q1 318 141 506q139 188 363 188q223 0 364 -188q140 -188 140 -506t-141 -512q-143 -193 -363 -193q-219 0 -362 193
q-143 194 -142 512zM573 1657h82l187 -205h-80l-144 135h-8l-143 -135h-80zM926 1577h-68l-176 217h96z" />
    <glyph glyph-name="uni1ED3" unicode="&#x1ed3;" 
d="M233 490q0 -191 107 -313q106 -122 274 -122q167 0 275 123t107 313q-1 191 -107 314t-275 123q-84 0 -153 -32q-140 -64 -199 -228q-29 -80 -29 -178zM137 493q0 240 139 377q139 138 340 138t338 -139q138 -139 138 -379t-139 -377q-139 -138 -340 -138t-338 139
q-138 139 -138 379zM969 1305h-68l-186 227h96zM575 1405h78l172 -234h-73l-134 160h-8l-133 -160h-74z" />
    <glyph glyph-name="uni1ED4" unicode="&#x1ed4;" 
d="M1020 680q0 277 -112 442q-112 166 -294 166t-293 -167q-112 -167 -112 -442q0 -276 112 -447t293 -171q182 0 294 171t112 448zM110 680q1 318 141 506q139 188 363 188q223 0 364 -188q140 -188 140 -506t-141 -512q-143 -193 -363 -193q-219 0 -362 193
q-143 194 -142 512zM573 1657h82l187 -205h-80l-144 135h-8l-143 -135h-80zM985 1702q0 -113 -162 -152l-20 56q106 25 104 86q0 47 -38 64t-111 22l10 63q217 -9 217 -139z" />
    <glyph glyph-name="uni1ED5" unicode="&#x1ed5;" 
d="M233 490q0 -191 107 -313q106 -122 274 -122q167 0 275 123t107 313q-1 191 -107 314t-275 123q-84 0 -153 -32q-140 -64 -199 -228q-29 -80 -29 -178zM137 493q0 240 139 377q139 138 340 138t338 -139q138 -139 138 -379t-139 -377q-139 -138 -340 -138t-338 139
q-138 139 -138 379zM987 1442q0 -90 -104 -135q-29 -12 -58 -21l-16 51q43 16 72 38t28 57q0 88 -145 94l6 59q217 -9 217 -143zM575 1405h78l172 -234h-73l-134 160h-8l-133 -160h-74z" />
    <glyph glyph-name="uni1ED6" unicode="&#x1ed6;" 
d="M1020 680q0 277 -112 442q-112 166 -294 166t-293 -167q-112 -167 -112 -442q0 -276 112 -447t293 -171q182 0 294 171t112 448zM110 680q1 318 141 506q139 188 363 188q223 0 364 -188q140 -188 140 -506t-141 -512q-143 -193 -363 -193q-219 0 -362 193
q-143 194 -142 512zM724 1796q30 0 52 23t29 69h59q-4 -59 -39 -108t-99 -49t-123 46q-25 17 -47 31t-52 14t-52 -22q-22 -23 -28 -69h-59q4 59 38 108q35 49 98 49t125 -46q24 -18 46 -32t52 -14zM573 1657h82l187 -205h-80l-144 135h-8l-143 -135h-80z" />
    <glyph glyph-name="uni1ED7" unicode="&#x1ed7;" 
d="M233 490q0 -191 107 -313q106 -122 274 -122q167 0 275 123t107 313q-1 191 -107 314t-275 123q-84 0 -153 -32q-140 -64 -199 -228q-29 -80 -29 -178zM137 493q0 240 139 377q139 138 340 138t338 -139q138 -139 138 -379t-139 -377q-139 -138 -340 -138t-338 139
q-138 139 -138 379zM824 1495q-36 -49 -99 -49t-122 46q-23 18 -45 32t-48 14q-72 0 -86 -92h-57q8 109 82 144q65 32 125 0q28 -14 70 -46q42 -31 75 -33q70 0 86 93h57q-5 -68 -38 -109zM573 1372h82l187 -205h-74l-150 142h-8l-149 -142h-74z" />
    <glyph glyph-name="uni1ED8" unicode="&#x1ed8;" 
d="M1020 680q0 277 -112 442q-112 166 -294 166t-293 -167q-112 -167 -112 -442q0 -276 112 -447t293 -171q182 0 294 171t112 448zM110 680q1 318 141 506q139 188 363 188q223 0 364 -188q140 -188 140 -506t-141 -512q-143 -193 -363 -193q-219 0 -362 193
q-143 194 -142 512zM375 1452l196 217h86l197 -217h-82l-154 147h-8l-153 -147h-82zM614 -430q-40 0 -68 26t-28 72t28 72q28 27 68 27t69 -27q28 -27 28 -73q0 -45 -28 -71t-69 -26z" />
    <glyph glyph-name="uni1ED9" unicode="&#x1ed9;" 
d="M233 490q0 -191 107 -313q106 -122 274 -122q167 0 275 123t107 313q-1 191 -107 314t-275 123q-84 0 -153 -32q-140 -64 -199 -228q-29 -80 -29 -178zM137 493q0 240 139 377q139 138 340 138t338 -139q138 -139 138 -379t-139 -377q-139 -138 -340 -138t-338 139
q-138 139 -138 379zM573 1454h82l195 -283h-78l-154 207h-8l-153 -207h-78zM614 -430q-40 0 -68 26t-28 72t28 72q28 27 68 27t69 -27q28 -27 28 -73q0 -45 -28 -71t-69 -26z" />
    <glyph glyph-name="uni1EDA" unicode="&#x1eda;" 
d="M1112 1456q0 -153 -199 -199q205 -188 205 -577q0 -318 -141 -512q-141 -191 -362 -192t-363 192q-143 193 -142 512q1 318 141 506t363 188q127 0 232 -63q184 25 184 139q0 35 -29 80l72 39q39 -63 39 -113zM1020 680q0 277 -112 442q-112 166 -294 166t-293 -167
q-112 -167 -112 -442q0 -276 112 -447t293 -171q182 0 294 171t112 448zM621 1452h-82l188 217h119z" />
    <glyph glyph-name="uni1EDB" unicode="&#x1edb;" 
d="M825 961q195 26 195 135q0 51 -29 88l72 41q39 -63 39 -130t-55 -113t-144 -69q187 -144 189 -424q0 -238 -139 -376t-340 -138t-338 139q-138 139 -138 379t139 377q139 138 338 138q113 0 211 -47zM889 178q108 123 107 313q-1 191 -107 314q-107 123 -275 123
t-274 -124q-107 -124 -107 -314q0 -191 108 -314q105 -121 273 -121q166 0 275 123zM578 1171h-78l188 283h109z" />
    <glyph glyph-name="uni1EDC" unicode="&#x1edc;" 
d="M1112 1456q0 -153 -199 -199q205 -188 205 -577q0 -318 -141 -512q-141 -191 -362 -192t-363 192q-143 193 -142 512q1 318 141 506t363 188q127 0 232 -63q184 25 184 139q0 35 -29 80l72 39q39 -63 39 -113zM1020 680q0 277 -112 442q-112 166 -294 166t-293 -167
q-112 -167 -112 -442q0 -276 112 -447t293 -171q182 0 294 171t112 448zM383 1669h119l188 -217h-82z" />
    <glyph glyph-name="uni1EDD" unicode="&#x1edd;" 
d="M825 961q195 26 195 135q0 51 -29 88l72 41q39 -63 39 -130t-55 -113t-144 -69q187 -144 189 -424q0 -238 -139 -376t-340 -138t-338 139q-138 139 -138 379t139 377q139 138 338 138q113 0 211 -47zM889 178q108 123 107 313q-1 191 -107 314q-107 123 -275 123
t-274 -124q-107 -124 -107 -314q0 -191 108 -314q105 -121 273 -121q166 0 275 123zM432 1454h109l188 -283h-78z" />
    <glyph glyph-name="uni1EDE" unicode="&#x1ede;" 
d="M1112 1456q0 -153 -199 -199q205 -188 205 -577q0 -318 -141 -512q-141 -191 -362 -192t-363 192q-143 193 -142 512q1 318 141 506t363 188q127 0 232 -63q184 25 184 139q0 35 -29 80l72 39q39 -63 39 -113zM1020 680q0 277 -112 442q-112 166 -294 166t-293 -167
q-112 -167 -112 -442q0 -276 112 -447t293 -171q182 0 294 171t112 448zM678 1604q0 92 -174 98l8 65q244 -10 248 -151q0 -75 -56 -116q-56 -40 -139 -62l-16 55q129 38 129 111z" />
    <glyph glyph-name="uni1EDF" unicode="&#x1edf;" 
d="M825 961q195 26 195 135q0 51 -29 88l72 41q39 -63 39 -130t-55 -113t-144 -69q187 -144 189 -424q0 -238 -139 -376t-340 -138t-338 139q-138 139 -138 379t139 377q139 138 338 138q113 0 211 -47zM889 178q108 123 107 313q-1 191 -107 314q-107 123 -275 123
t-274 -124q-107 -124 -107 -314q0 -191 108 -314q105 -121 273 -121q166 0 275 123zM678 1294q0 92 -174 99l8 65q174 -7 228 -87q20 -27 20 -67t-23 -80t-79 -63q-56 -22 -93 -33l-16 54q55 16 92 42t37 70z" />
    <glyph glyph-name="uni1EE0" unicode="&#x1ee0;" 
d="M1112 1456q0 -153 -199 -199q205 -188 205 -577q0 -318 -141 -512q-141 -191 -362 -192t-363 192q-143 193 -142 512q1 318 141 506t363 188q127 0 232 -63q184 25 184 139q0 35 -29 80l72 39q39 -63 39 -113zM1020 680q0 277 -112 442q-112 166 -294 166t-293 -167
q-112 -167 -112 -442q0 -276 112 -447t293 -171q182 0 294 171t112 448zM490 1583q-32 0 -54 -32q-23 -32 -28 -85h-60q5 79 41 129q39 58 92 59q55 0 85 -18t79 -56t87 -39t61 30t28 84h60q-4 -73 -42 -131t-100 -58q-61 0 -136 59q-29 22 -55 40t-58 18z" />
    <glyph glyph-name="uni1EE1" unicode="&#x1ee1;" 
d="M825 961q195 26 195 135q0 51 -29 88l72 41q39 -63 39 -130t-55 -113t-144 -69q187 -144 189 -424q0 -238 -139 -376t-340 -138t-338 139q-138 139 -138 379t139 377q139 138 338 138q113 0 211 -47zM889 178q108 123 107 313q-1 191 -107 314q-107 123 -275 123
t-274 -124q-107 -124 -107 -314q0 -191 108 -314q105 -121 273 -121q166 0 275 123zM729 1260q63 0 78 114h61q-8 -125 -80 -168q-27 -16 -74 -16t-113 57t-101 58q-66 0 -78 -115h-62q8 125 80 168q27 16 64 16q36 0 66 -18t57 -40t51 -39t51 -17z" />
    <glyph glyph-name="uni1EE2" unicode="&#x1ee2;" 
d="M1112 1456q0 -153 -199 -199q205 -188 205 -577q0 -318 -141 -512q-141 -191 -362 -192t-363 192q-143 193 -142 512q1 318 141 506t363 188q127 0 232 -63q184 25 184 139q0 35 -29 80l72 39q39 -63 39 -113zM1020 680q0 277 -112 442q-112 166 -294 166t-293 -167
q-112 -167 -112 -442q0 -276 112 -447t293 -171q182 0 294 171t112 448zM614 -430q-40 0 -68 26t-28 72t28 72q28 27 68 27t69 -27q28 -27 28 -73q0 -45 -28 -71t-69 -26z" />
    <glyph glyph-name="uni1EE3" unicode="&#x1ee3;" 
d="M825 961q195 26 195 135q0 51 -29 88l72 41q39 -63 39 -130t-55 -113t-144 -69q187 -144 189 -424q0 -238 -139 -376t-340 -138t-338 139q-138 139 -138 379t139 377q139 138 338 138q113 0 211 -47zM889 178q108 123 107 313q-1 191 -107 314q-107 123 -275 123
t-274 -124q-107 -124 -107 -314q0 -191 108 -314q105 -121 273 -121q166 0 275 123zM616 -430q-40 0 -68 26t-28 72t28 72q28 27 68 27t69 -27q28 -27 28 -73q0 -45 -28 -71t-69 -26z" />
    <glyph glyph-name="uni1EE4" unicode="&#x1ee4;" 
d="M182 1350h94v-834q0 -242 94 -348q94 -107 244 -107q241 0 317 237q28 87 27 218v834h89v-844q0 -285 -132 -419q-110 -112 -301 -112q-300 0 -396 275q-36 102 -36 256v844zM614 -430q-40 0 -68 26t-28 72t28 72q28 27 68 27t69 -27q28 -27 28 -73q0 -45 -28 -71
t-69 -26z" />
    <glyph glyph-name="uni1EE5" unicode="&#x1ee5;" 
d="M178 371v612h90v-600q0 -166 65 -246t210 -80t282 124q45 42 97 100v702h90v-983h-76l-10 190h-8q-182 -213 -375 -214q-193 -2 -279 96t-86 299zM659 -430q-41 0 -69 26t-27 72q0 46 28 72q29 27 69 27t68 -27t28 -73q0 -45 -28 -71t-69 -26z" />
    <glyph glyph-name="uni1EE6" unicode="&#x1ee6;" 
d="M182 1350h94v-834q0 -242 94 -348q94 -107 244 -107q241 0 317 237q28 87 27 218v834h89v-844q0 -285 -132 -419q-110 -112 -301 -112q-300 0 -396 275q-36 102 -36 256v844zM678 1604q0 92 -174 98l8 65q244 -10 248 -151q0 -75 -56 -116q-56 -40 -139 -62l-16 55
q129 38 129 111z" />
    <glyph glyph-name="uni1EE7" unicode="&#x1ee7;" 
d="M178 371v612h90v-600q0 -166 65 -246t210 -80t282 124q45 42 97 100v702h90v-983h-76l-10 190h-8q-182 -213 -375 -214q-193 -2 -279 96t-86 299zM668 1294q0 92 -174 99l8 65q174 -7 228 -87q20 -27 20 -67t-23 -80t-79 -63q-56 -22 -93 -33l-16 54q55 16 92 42t37 70z
" />
    <glyph glyph-name="uni1EE8" unicode="&#x1ee8;" 
d="M987 1350q184 27 184 129q0 51 -28 92l71 39q41 -59 41 -113q0 -154 -208 -201v-790q0 -285 -132 -419q-110 -112 -301 -112q-300 0 -396 275q-36 102 -36 256v844h94v-834q0 -242 94 -348q94 -107 244 -107q241 0 317 237q28 87 27 218v834h29zM621 1452h-82l188 217
h119z" />
    <glyph glyph-name="uni1EE9" unicode="&#x1ee9;" 
d="M1194 1130q0 -145 -182 -194v-936h-76l-10 190h-8q-182 -213 -375 -214q-193 -2 -279 96t-86 299v612h90v-600q0 -166 65 -246t210 -80t282 124q45 42 97 100v702h16q174 22 174 141q0 43 -29 80l72 41q39 -63 39 -115zM567 1171h-78l189 283h108z" />
    <glyph glyph-name="uni1EEA" unicode="&#x1eea;" 
d="M987 1350q184 27 184 129q0 51 -28 92l71 39q41 -59 41 -113q0 -154 -208 -201v-790q0 -285 -132 -419q-110 -112 -301 -112q-300 0 -396 275q-36 102 -36 256v844h94v-834q0 -242 94 -348q94 -107 244 -107q241 0 317 237q28 87 27 218v834h29zM383 1669h119l188 -217
h-82z" />
    <glyph glyph-name="uni1EEB" unicode="&#x1eeb;" 
d="M1194 1130q0 -145 -182 -194v-936h-76l-10 190h-8q-182 -213 -375 -214q-193 -2 -279 96t-86 299v612h90v-600q0 -166 65 -246t210 -80t282 124q45 42 97 100v702h16q174 22 174 141q0 43 -29 80l72 41q39 -63 39 -115zM422 1454h108l189 -283h-78z" />
    <glyph glyph-name="uni1EEC" unicode="&#x1eec;" 
d="M987 1350q184 27 184 129q0 51 -28 92l71 39q41 -59 41 -113q0 -154 -208 -201v-790q0 -285 -132 -419q-110 -112 -301 -112q-300 0 -396 275q-36 102 -36 256v844h94v-834q0 -242 94 -348q94 -107 244 -107q241 0 317 237q28 87 27 218v834h29zM678 1604q0 92 -174 98
l8 65q244 -10 248 -151q0 -75 -56 -116q-56 -40 -139 -62l-16 55q129 38 129 111z" />
    <glyph glyph-name="uni1EED" unicode="&#x1eed;" 
d="M1194 1130q0 -145 -182 -194v-936h-76l-10 190h-8q-182 -213 -375 -214q-193 -2 -279 96t-86 299v612h90v-600q0 -166 65 -246t210 -80t282 124q45 42 97 100v702h16q174 22 174 141q0 43 -29 80l72 41q39 -63 39 -115zM668 1294q0 92 -174 99l8 65q174 -7 228 -87
q20 -27 20 -67t-23 -80t-79 -63q-56 -22 -93 -33l-16 54q55 16 92 42t37 70z" />
    <glyph glyph-name="uni1EEE" unicode="&#x1eee;" 
d="M987 1350q184 27 184 129q0 51 -28 92l71 39q41 -59 41 -113q0 -154 -208 -201v-790q0 -285 -132 -419q-110 -112 -301 -112q-300 0 -396 275q-36 102 -36 256v844h94v-834q0 -242 94 -348q94 -107 244 -107q241 0 317 237q28 87 27 218v834h29zM490 1583q-32 0 -54 -32
q-23 -32 -28 -85h-60q5 79 41 129q39 58 92 59q55 0 85 -18t79 -56t87 -39t61 30t28 84h60q-4 -73 -42 -131t-100 -58q-61 0 -136 59q-29 22 -55 40t-58 18z" />
    <glyph glyph-name="uni1EEF" unicode="&#x1eef;" 
d="M1194 1130q0 -145 -182 -194v-936h-76l-10 190h-8q-182 -213 -375 -214q-193 -2 -279 96t-86 299v612h90v-600q0 -166 65 -246t210 -80t282 124q45 42 97 100v702h16q174 22 174 141q0 43 -29 80l72 41q39 -63 39 -115zM719 1260q63 0 78 114h61q-8 -125 -80 -168
q-27 -16 -74 -16t-113 57t-102 58q-66 0 -77 -115h-62q8 125 80 168q27 16 72 16t114 -58q27 -22 52 -39t51 -17z" />
    <glyph glyph-name="uni1EF0" unicode="&#x1ef0;" 
d="M987 1350q184 27 184 129q0 51 -28 92l71 39q41 -59 41 -113q0 -154 -208 -201v-790q0 -285 -132 -419q-110 -112 -301 -112q-300 0 -396 275q-36 102 -36 256v844h94v-834q0 -242 94 -348q94 -107 244 -107q241 0 317 237q28 87 27 218v834h29zM614 -430q-40 0 -68 26
t-28 72t28 72q28 27 68 27t69 -27q28 -27 28 -73q0 -45 -28 -71t-69 -26z" />
    <glyph glyph-name="uni1EF1" unicode="&#x1ef1;" 
d="M1194 1130q0 -145 -182 -194v-936h-76l-10 190h-8q-182 -213 -375 -214q-193 -2 -279 96t-86 299v612h90v-600q0 -166 65 -246t210 -80t282 124q45 42 97 100v702h16q174 22 174 141q0 43 -29 80l72 41q39 -63 39 -115zM631 -430q-41 0 -69 26t-28 72t28 72q28 27 69 27
t69 -27t27 -73q1 -45 -27 -71t-69 -26z" />
    <glyph glyph-name="Ygrave" unicode="&#x1ef2;" 
d="M662 0h-95v496l-463 854h97l239 -447q47 -78 87 -157t87 -160h9q47 82 90 162t86 157l233 445h92l-462 -854v-496zM383 1669h119l188 -217h-82z" />
    <glyph glyph-name="ygrave" unicode="&#x1ef3;" 
d="M396 -421q-62 -28 -136 -28t-123 21l25 80q45 -15 96 -17q203 0 307 261l35 86l-477 1001h94l287 -618q28 -61 64 -137t71 -140h8q33 74 115 277l256 618h88l-463 -1106q-85 -226 -247 -298zM438 1454h109l188 -283h-78z" />
    <glyph glyph-name="uni1EF4" unicode="&#x1ef4;" 
d="M662 0h-95v496l-463 854h97l239 -447q47 -78 87 -157t87 -160h9q47 82 90 162t86 157l233 445h92l-462 -854v-496zM614 -430q-40 0 -68 26t-28 72t28 72q28 27 68 27t69 -27q28 -27 28 -73q0 -45 -28 -71t-69 -26z" />
    <glyph glyph-name="uni1EF5" unicode="&#x1ef5;" 
d="M396 -421q-62 -28 -136 -28t-123 21l25 80q45 -15 96 -17q203 0 307 261l35 86l-477 1001h94l287 -618q28 -61 64 -137t71 -140h8q33 74 115 277l256 618h88l-463 -1106q-85 -226 -247 -298zM905 -428q-41 0 -69 26t-27 72q0 46 28 72q29 27 69 27t68 -27t28 -73
q0 -45 -28 -71t-69 -26z" />
    <glyph glyph-name="uni1EF6" unicode="&#x1ef6;" 
d="M662 0h-95v496l-463 854h97l239 -447q47 -78 87 -157t87 -160h9q47 82 90 162t86 157l233 445h92l-462 -854v-496zM678 1604q0 92 -174 98l8 65q244 -10 248 -151q0 -75 -56 -116q-56 -40 -139 -62l-16 55q129 38 129 111z" />
    <glyph glyph-name="uni1EF7" unicode="&#x1ef7;" 
d="M396 -421q-62 -28 -136 -28t-123 21l25 80q45 -15 96 -17q203 0 307 261l35 86l-477 1001h94l287 -618q28 -61 64 -137t71 -140h8q33 74 115 277l256 618h88l-463 -1106q-85 -226 -247 -298zM782 1304q0 -102 -123 -152q-35 -13 -71 -24l-17 54q55 16 93 42q37 26 36 70
q0 92 -174 99l9 65q51 -2 96 -12q151 -33 151 -142z" />
    <glyph glyph-name="uni1EF8" unicode="&#x1ef8;" 
d="M662 0h-95v496l-463 854h97l239 -447q47 -78 87 -157t87 -160h9q47 82 90 162t86 157l233 445h92l-462 -854v-496zM490 1583q-32 0 -54 -32q-23 -32 -28 -85h-60q5 79 41 129q39 58 92 59q55 0 85 -18t79 -56t87 -39t61 30t28 84h60q-4 -73 -42 -131t-100 -58
q-61 0 -136 59q-29 22 -55 40t-58 18z" />
    <glyph glyph-name="uni1EF9" unicode="&#x1ef9;" 
d="M396 -421q-62 -28 -136 -28t-123 21l25 80q45 -15 96 -17q203 0 307 261l35 86l-477 1001h94l287 -618q28 -61 64 -137t71 -140h8q33 74 115 277l256 618h88l-463 -1106q-85 -226 -247 -298zM735 1260q63 0 78 114h61q-8 -126 -79 -168q-27 -16 -64 -16q-56 0 -123 57
t-102 58q-66 0 -78 -115h-61q8 126 79 168q27 16 73 16t114 -58q27 -22 51 -39t51 -17z" />
    <glyph glyph-name="uni2007" unicode="&#x2007;" 
 />
    <glyph glyph-name="figuredash" unicode="&#x2012;" 
d="M164 563h901v-100h-901v100z" />
    <glyph glyph-name="endash" unicode="&#x2013;" 
d="M164 563h901v-100h-901v100z" />
    <glyph glyph-name="emdash" unicode="&#x2014;" 
d="M41 563h1147v-100h-1147v100z" />
    <glyph glyph-name="uni2015" unicode="&#x2015;" 
d="M41 563h1147v-100h-1147v100z" />
    <glyph glyph-name="quoteleft" unicode="&#x2018;" 
d="M628 1040q40 0 73.5 -34.5t33.5 -88.5t-34.5 -91.5t-92.5 -37.5t-103.5 52.5t-45.5 146.5q0 147 70.5 264t185.5 183l43 -64q-189 -124 -205 -350q35 20 75 20z" />
    <glyph glyph-name="quoteright" unicode="&#x2019;" 
d="M593 1180q-40 0 -74 34t-34 90t35 93t93 37t103.5 -53.5t45.5 -147.5q0 -147 -70.5 -264t-185.5 -181l-41 62q185 124 203 350q-35 -20 -75 -20z" />
    <glyph glyph-name="quotesinglbase" unicode="&#x201a;" 
d="M593 -63q-40 1 -74 35t-34 89t35 93t93 36q57 0 103 -53t46 -147q0 -147 -71 -264t-185 -181l-41 62q185 124 203 350q-35 -20 -75 -20z" />
    <glyph glyph-name="quotedblleft" unicode="&#x201c;" 
d="M418 1040q41 0 74 -34q32 -34 32 -89q0 -53 -35 -91t-92 -38t-103 52t-46 147q0 147 70 264q71 117 186 183l43 -64q-189 -124 -205 -350q35 20 76 20zM842 1040q40 0 73 -34t33 -89q0 -53 -35 -91t-92 -38t-103 52t-46 147q0 147 70 264q71 117 186 183l43 -64
q-189 -124 -205 -350q36 20 76 20z" />
    <glyph glyph-name="quotedblright" unicode="&#x201d;" 
d="M382 1180q-40 0 -74 34t-34 90t35 93t93 37t104 -54t45 -147q0 -147 -71 -264t-185 -181l-41 62q185 124 203 350q-35 -20 -75 -20zM806 1180q-40 0 -74 34t-34 90t35 93t93 37t104 -54t45 -147q0 -147 -71 -264t-185 -181l-41 62q185 124 203 350q-35 -20 -75 -20z" />
    <glyph glyph-name="quotedblbase" unicode="&#x201e;" 
d="M382 -63q-40 1 -74 35t-34 89t35 93t93 36q58 0 104 -53t45 -147q0 -147 -71 -264t-185 -181l-41 62q185 124 203 350q-35 -20 -75 -20zM806 -63q-40 1 -74 35t-34 89t35 93t93 36q58 0 104 -53t45 -147q0 -147 -71 -264t-185 -181l-41 62q185 124 203 350
q-35 -20 -75 -20z" />
    <glyph glyph-name="dagger" unicode="&#x2020;" 
d="M578 1069l-271 -4v86l271 -6l-7 313h86l-6 -313l271 6v-86l-271 4l6 -1233h-86z" />
    <glyph glyph-name="daggerdbl" unicode="&#x2021;" 
d="M307 229l271 -6l-7 424l7 424l-271 -6v86l271 -6l-7 313h86l-6 -313l271 6v-86l-271 6l6 -424l-6 -424l271 6v-86l-271 7l6 -314h-86l7 314l-271 -7v86z" />
    <glyph glyph-name="bullet" unicode="&#x2022;" 
d="M614.5 252q-55.5 0 -106.5 20.5t-91 57.5t-63.5 89t-23.5 117.5t23.5 118t63.5 89t91 57t106.5 20.5t106.5 -20.5t91 -57t63.5 -89t23.5 -118t-23.5 -117.5t-63.5 -89t-91 -57.5t-106.5 -20.5z" />
    <glyph glyph-name="ellipsis" unicode="&#x2026;" 
d="M891 105q0 60 37 94t81 34t79.5 -33.5t35.5 -93.5t-35.5 -95.5t-79.5 -35.5t-81 35t-37 95zM498 105q0 60 35.5 94t80.5 34t81 -33.5t36 -93.5t-36 -95.5t-81 -35.5t-80.5 35t-35.5 95zM104 105q0 60 36 94t80 34t81 -33.5t37 -93.5t-37 -95.5t-81 -35.5t-80 35t-36 95z
" />
    <glyph glyph-name="perthousand" unicode="&#x2030;" 
d="M884 37q67 0 108.5 51.5t41.5 153.5t-42 154.5t-108 52.5t-108.5 -52.5t-42.5 -153.5t42 -153.5t109 -52.5zM884 -25q-103 0 -165 70t-62 199t61.5 198.5t165.5 69.5t165 -69.5t61 -198.5t-61.5 -199t-164.5 -70zM345 37q67 0 109 51.5t42 153.5t-42 154.5t-109 52.5
t-108.5 -52.5t-41.5 -153.5t41.5 -153.5t108.5 -52.5zM345 -25q-103 0 -164.5 70t-61.5 199t61.5 198.5t164.5 69.5t164.5 -69.5t61.5 -198.5t-61.5 -199t-164.5 -70zM1169 965l-917 -387l-23 47l908 417zM345 860q67 0 109 52.5t42 153.5t-42 153.5t-109 52.5t-108.5 -52.5
t-41.5 -153.5t41.5 -153.5t108.5 -52.5zM345 799q-103 0 -164.5 69.5t-61.5 197.5t61.5 197.5t164.5 69.5t164.5 -69.5t61.5 -197.5t-61.5 -197.5t-164.5 -69.5z" />
    <glyph glyph-name="uni2032" unicode="&#x2032;" 
d="M606 1419h86l-20 -151l-56 -283h-59z" />
    <glyph glyph-name="uni2033" unicode="&#x2033;" 
d="M463 1419h86l-21 -151l-55 -283h-59zM752 1419h86l-21 -151l-55 -283h-60z" />
    <glyph glyph-name="guilsinglleft" unicode="&#x2039;" 
d="M430 473v86l291 334l51 -47l-258 -330l258 -334l-51 -43z" />
    <glyph glyph-name="guilsinglright" unicode="&#x203a;" 
d="M715 516l-258 330l51 47l291 -334v-86l-291 -334l-51 43z" />
    <glyph glyph-name="fraction" unicode="&#x2044;" 
d="M1157 1221l-371 -404l-45 41l351 420zM72 129l370 403l45 -40l-350 -420z" />
    <glyph glyph-name="zero.sups" unicode="&#x2070;" 
d="M614 942q84 0 140 71q55 71 55 203t-55 196q-56 65 -140 65t-139 -65t-55 -197q0 -133 55 -203t139 -70zM614 877q-122 0 -198 88q-76 89 -76 249t76 244t198 84t199 -84q76 -84 76 -245t-76 -249t-199 -87z" />
    <glyph glyph-name="i.sups" unicode="&#x2071;" 
d="M712.5 1333q-32.5 0 -54 18.5t-21.5 53.5t21.5 55.5t54 20.5t54 -20.5t21.5 -55.5t-21.5 -53.5t-54 -18.5zM367 1184h389v-652h-82v584h-307v68z" />
    <glyph glyph-name="four.sups" unicode="&#x2074;" 
d="M874 1065h-102v-164h-74v164h-333v41l337 412h70v-394h102v-59zM698 1124v156l9 147h-9l-102 -135l-137 -168h239z" />
    <glyph glyph-name="five.sups" unicode="&#x2075;" 
d="M616 1235q-74 0 -151 -59l-47 32l37 310h358v-72h-291l-26 -184q57 32 144 32t152 -53q64 -53 64 -153t-69 -155q-69 -56 -168 -56q-99 1 -156 37t-103 87l56 50q35 -47 81 -78q45 -31 117 -31t117 40t45 108t-43 107q-43 38 -117 38z" />
    <glyph glyph-name="six.sups" unicode="&#x2076;" 
d="M658 1276q106 0 157 -56t51 -140t-62 -144q-62 -59 -168 -59t-183 80q-78 80 -76 212q0 278 184 352q55 22 131 21t160 -55l-37 -60q-112 77 -220 34q-82 -31 -122 -136q-20 -53 -22 -127q101 78 207 78zM643 942q70 0 108 39q37 39 37 98t-33 98q-33 37 -97 37t-108 -19
t-97 -69q12 -92 66 -138t124 -46z" />
    <glyph glyph-name="seven.sups" unicode="&#x2077;" 
d="M381 1450v68h471v-50q-186 -207 -218 -414q-11 -71 -16 -153h-77q13 184 49 272q62 150 168 277h-377z" />
    <glyph glyph-name="eight.sups" unicode="&#x2078;" 
d="M727 1214q133 -58 133 -148t-70 -140q-70 -49 -180 -49q-109 0 -175 53q-66 52 -66 120t42 108t95 67v8q-45 27 -78 59t-33 96q0 62 65 108q64 46 158 46t156 -47t62 -117q0 -93 -109 -155v-9zM760 1376q0 43 -37 73t-106 30t-107 -29t-37 -77q-1 -48 57 -78t134 -50
q96 53 96 131zM446 1057q0 -49 48 -83t116 -34q67 0 120 32q52 32 52 74t-24 74t-88 51t-103 31q-121 -55 -121 -145z" />
    <glyph glyph-name="nine.sups" unicode="&#x2079;" 
d="M564 942q77 0 141 65q63 65 71 214q-95 -78 -203 -78q-109 0 -159 57t-49 141q0 85 62 143t168 58t183 -81t76 -212q0 -277 -186 -351q-146 -58 -289 36l37 57q71 -49 148 -49zM442 1339q0 -59 34 -96t98 -37t107 18q44 18 93 66q-10 94 -63 140t-123 47t-108 -39
t-38 -99z" />
    <glyph glyph-name="parenleft.sups" unicode="&#x207d;" 
d="M510 1220q0 148 55 258t158 201l53 -49q-98 -90 -137 -188t-39 -222t39 -222t137 -189l-53 -49q-102 92 -158 202q-55 110 -55 258z" />
    <glyph glyph-name="parenright.sups" unicode="&#x207e;" 
d="M719 1220q0 -148 -55 -258t-158 -202l-53 49q98 90 137 188q39 99 39 223t-39 222t-137 188l53 49q102 -92 158 -201q56 -110 55 -258z" />
    <glyph glyph-name="n.sups" unicode="&#x207f;" 
d="M848 938q0 190 -150 190q-74 0 -123 -30.5t-110 -91.5v-474h-84v652h70l6 -107h6q53 53 110.5 88t133.5 35q225 0 225 -252v-416h-84v406z" />
    <glyph glyph-name="zero.subs" unicode="&#x2080;" 
d="M614 -305q84 0 140 71q55 70 55 202t-55 197q-56 65 -140 65t-139 -66q-55 -64 -55 -196t55 -202t139 -71zM614 -371q-122 0 -198 88t-76 249t76 245t198 84t199 -84q76 -84 76 -245t-76 -249t-199 -88z" />
    <glyph glyph-name="one.subs" unicode="&#x2081;" 
d="M686 270v-616h-78v493h-168v60q106 17 183 63h63z" />
    <glyph glyph-name="two.subs" unicode="&#x2082;" 
d="M587 295q230 0 230 -205q0 -110 -179 -266q-54 -47 -116 -103h330v-67h-463v49q90 74 156 128q132 108 172 180q20 39 20 91t-38 88t-105 37q-95 0 -166 -94l-55 43q99 119 214 119z" />
    <glyph glyph-name="three.subs" unicode="&#x2083;" 
d="M391 199q75 96 230 96q79 0 135 -42t55 -124q0 -115 -119 -158q62 -12 106 -52q44 -39 44 -119t-66 -126t-154 -45q-88 0 -156 37t-106 88l56 49q31 -47 82 -77t114 -31q150 0 150 119q0 125 -223 125v57q100 0 146 37t46 87t-32 80t-86 30q-111 -1 -175 -78z" />
    <glyph glyph-name="four.subs" unicode="&#x2084;" 
d="M874 -182h-102v-164h-74v164h-333v41l337 411h70v-393h102v-59zM698 -123v156l9 147h-9l-102 -135l-137 -168h239z" />
    <glyph glyph-name="five.subs" unicode="&#x2085;" 
d="M614 -305q72 0 117 40q45 41 45 109t-43 106t-117 38t-151 -60l-47 33l37 309h358v-71h-291l-26 -185q57 33 144 33t152 -53q64 -52 64 -152t-69 -156t-168 -56t-156 36q-57 37 -103 88l56 49q80 -108 198 -108z" />
    <glyph glyph-name="six.subs" unicode="&#x2086;" 
d="M866 -168q0 -84 -62 -143t-167 -59t-183 80q-78 81 -77 212q0 188 84 281q84 92 219 92q88 0 172 -55l-37 -60q-109 75 -220 34q-82 -31 -122 -136q-20 -53 -22 -127q100 78 207 78q106 -1 157 -57t51 -140zM643 -305q70 0 108 39q37 39 37 98t-33 97t-97 38t-108 -19
t-97 -69q12 -92 66 -138t124 -46z" />
    <glyph glyph-name="seven.subs" unicode="&#x2087;" 
d="M381 203v67h471v-49q-186 -208 -218 -415q-11 -71 -16 -152h-77q13 184 49 272q62 150 168 277h-377z" />
    <glyph glyph-name="eight.subs" unicode="&#x2088;" 
d="M727 -33q133 -57 133 -147t-69 -140q-69 -49 -179 -50q-111 -1 -177 52t-66 125q0 103 137 170v9q-45 28 -78 60t-33 94t65 109q64 46 158 46t156 -47t62 -127t-109 -146v-8zM760 129q0 43 -37 73t-106 30t-107 -30q-38 -28 -37 -76q-1 -48 57 -78t134 -50q96 53 96 131z
M446 -190q0 -49 48 -83t116 -34q67 0 120 32q52 31 52 73t-18 66t-49 40t-70 27t-78 24q-121 -55 -121 -145z" />
    <glyph glyph-name="nine.subs" unicode="&#x2089;" 
d="M564 -305q77 0 141 64q63 65 71 214q-94 -77 -203 -77t-159 57t-49 141q0 84 62 142t167 59q105 0 183 -81t77 -212q0 -187 -86 -280t-217 -93q-84 0 -172 58l37 57q71 -49 148 -49zM442 92q0 -59 34 -96t98 -37t107 18q44 18 93 66q-10 94 -63 140t-123 46t-108 -39
t-38 -98z" />
    <glyph glyph-name="parenleft.subs" unicode="&#x208d;" 
d="M510 -28q0 148 55 258t158 202l53 -49q-98 -90 -137 -188q-39 -99 -39 -223t39 -222t137 -188l-53 -49q-101 91 -157 201t-56 258z" />
    <glyph glyph-name="parenright.subs" unicode="&#x208e;" 
d="M719 -28q0 -148 -55 -258t-158 -201l-53 49q98 90 137 188t39 222t-39 222t-137 189l53 49q102 -92 158 -202t55 -258z" />
    <glyph glyph-name="uni0259.sups" unicode="&#x2094;" 
d="M401 825q0 -123 57.5 -182t152.5 -59t149.5 63.5t64.5 177.5h-424zM605 1200q134 0 218 -88t84 -248t-83.5 -254t-212.5 -94q-130 0 -208.5 81.5t-78.5 233.5q0 29 6 54h493q-4 111 -62.5 179.5t-166.5 68.5t-197 -60l-30 60q104 67 238 67z" />
    <glyph glyph-name="colonmonetary" unicode="&#x20a1;" 
d="M217 683q0 253 114.5 428t315.5 212l25 211h63l-24 -203q10 2 13 2h26q51 0 100 -12l24 213h64l-29 -236q101 -44 168 -124l-59 -56q-67 72 -117 96l-139 -1159q84 8 148.5 49t127.5 115l60 -51q-70 -84 -151 -134t-193 -57l-25 -202h-63l24 200q-81 9 -137 29l-27 -229
h-63l31 258q-129 76 -203 236.5t-74 413.5zM315 684q0 -405 189 -557l133 1114q-156 -41 -239 -193.5t-83 -363.5zM767 1255h-27q-27 0 -38 -2l-139 -1165q57 -29 135 -35l142 1188q-41 14 -73 14z" />
    <glyph glyph-name="lira" unicode="&#x20a4;" 
d="M887 573v-69h-373q2 -12 2 -15v-36q0 -129 -45 -212t-131 -151v-8h725v-82h-891v55q139 66 199.5 172.5t60.5 225.5l-2 51h-264v59l190 10h60q-10 42 -43 134h-207v63l182 6q-43 137 -43 209q0 162 108.5 255t311.5 93t334 -145l-60 -55q-120 120 -281 120t-244 -75.5
t-83 -192.5q0 -76 45 -209h449v-69h-424q28 -77 41 -134h383z" />
    <glyph glyph-name="uni20A6" unicode="&#x20a6;" 
d="M952 705v-140h152v-67h-152v-498h-108l-207 498h-277v-498h-84v498h-157v59l157 8v140h-157v55l157 8v541h109l227 -541h256v541h84v-541h152v-63h-152zM358 768h166l-174 432h-8zM360 705v-140h248l-57 140h-191zM872 498h-147l154 -387h8zM868 565v140h-229l57 -140
h172z" />
    <glyph glyph-name="peseta" unicode="&#x20a7;" 
d="M539 1309q418 0 440 -338h135v-74h-135q-12 -175 -129 -266.5t-311 -91.5h-172v-539h-88v897h-166v64l166 10v338h260zM367 1237v-266h520q-10 147 -104.5 206.5t-266.5 59.5h-149zM516 612q351 0 371 285h-520v-285h149z" />
    <glyph glyph-name="dong" unicode="&#x20ab;" 
d="M578 219q-150 0 -241 98.5t-91 273.5t103.5 277.5t248.5 102.5q86 0 142.5 -29t115.5 -76l-8 191v92h-320v70h320v159h84v-159h166v-60l-166 -10v-909h-68l-10 96h-8q-118 -117 -268 -117zM599 295q130 0 249 127v369q-68 55 -120 79.5t-116 24.5q-120 0 -199 -83
t-79 -216t67.5 -217t197.5 -84zM266 70h727v-70h-727v70z" />
    <glyph glyph-name="Euro" unicode="&#x20ac;" 
d="M1139 168q-159 -193 -365 -193q-212 0 -342 142.5t-164 386.5h-135v59l127 8q-2 23 -2 28v59q0 55 2 71h-127v59l133 9q31 252 168 394t354 142q104 0 190.5 -47t139.5 -112l-59 -56q-124 137 -273 137q-180 0 -287.5 -121.5t-133.5 -336.5h651v-68h-658q-2 -16 -2 -21
v-59q0 -55 2 -78h576v-67h-567q29 -209 130 -330t265 -121q98 0 172 41t145 125z" />
    <glyph glyph-name="uni20B1" unicode="&#x20b1;" 
d="M539 1309q346 0 422 -234h153v-63h-139q6 -36 6 -70t-4 -68h137v-65h-149q-37 -137 -151 -203.5t-275 -66.5h-172v-539h-88v809h-166v57l166 8v138h-166v55l166 8v234h260zM367 1237v-162h497q-35 88 -124 125t-224 37h-149zM516 612q287 0 354 197h-503v-197h149z
M889 940q0 38 -6 72h-516v-138h518q4 28 4 66z" />
    <glyph glyph-name="uni20B2" unicode="&#x20b2;" 
d="M721 1255q-202 0 -316 -159.5t-114 -436.5t108.5 -440.5t296.5 -163.5q88 0 164 32t115 73v401h-285v80h373v-518q-135 -133 -328 -146v-202h-80v202q-206 12 -334 195t-128 479t124 475t338 203v205h80v-201q100 -4 182 -51t134 -108l-60 -56q-119 137 -270 137z" />
    <glyph glyph-name="uni20B5" unicode="&#x20b5;" 
d="M760 -225h-76v202q-210 12 -338.5 195.5t-128.5 477.5t124.5 474.5t342.5 204.5v207h76v-203q100 -4 183 -50t134 -109l-59 -56q-117 130 -258 137v-1200q84 8 149.5 49t128.5 115l60 -51q-68 -82 -148 -132t-190 -59v-202zM315 659q0 -401 140.5 -498.5t228.5 -105.5
v1196q-176 -25 -272.5 -182.5t-96.5 -409.5z" />
    <glyph glyph-name="uni20B9" unicode="&#x20b9;" 
d="M1075 1241h-332q74 -29 122 -86t63 -133h147v-70h-143q-4 -170 -112.5 -263t-284.5 -109l454 -580h-108l-449 575h-188v80h168q420 0 428 297h-596v62l149 8h441q-23 113 -132.5 161t-289.5 48h-168v78h831v-68z" />
    <glyph glyph-name="uni20BA" unicode="&#x20ba;" 
d="M1081 446q0 -234 -205.5 -354.5t-500.5 -116.5v609l-236 -107v74l236 106v168l-236 -106v74l236 108v408h94v-363l401 189v-74l-401 -189v-167l401 188v-74l-401 -188v-568q190 0 359 101.5t169 275.5q0 65 -12 105l78 26q18 -74 18 -125z" />
    <glyph glyph-name="uni2113" unicode="&#x2113;" 
d="M967 88q-113 -113 -235 -113t-202.5 96t-80.5 267v20q-29 -25 -59 -46t-58 -42l-43 64q98 69 160 125v602q0 316 98 365t151 49q98 0 164 -75t66 -241t-104.5 -358t-284.5 -363v-78q0 -156 56.5 -230.5t131.5 -74.5t117.5 28t79.5 62zM842 1174q0 123 -41 173t-103 50
t-110.5 -77t-48.5 -237v-538q303 321 303 629z" />
    <glyph glyph-name="uni2117" unicode="&#x2117;" 
d="M147 659.5q0 -139.5 34 -254t95.5 -195.5t147.5 -126t190.5 -45t190.5 45t147.5 126t95 195.5t33.5 254t-33.5 253t-95 193.5t-147.5 124t-190.5 44t-190.5 -44t-147.5 -124t-95.5 -193.5t-34 -253zM76 659.5q0 155.5 40 280.5t111.5 213t170 135t217 47t217 -47
t170 -135t111.5 -213t40 -280.5t-40 -281.5t-111.5 -215t-170 -138.5t-217 -49.5t-217 49.5t-170 138.5t-111.5 215t-40 281.5zM799 795q0 153 -191 153h-108v-336h108q191 0 191 183zM416 1018h215q111 0 183.5 -56t72.5 -174t-74 -181.5t-182 -63.5h-131v-264h-84v739z
" />
    <glyph glyph-name="uni2120" unicode="&#x2120;" 
d="M618 1384h105l106 -258l64 -176h8l62 176l102 258h104v-628h-73v329l8 201h-8l-168 -428h-68l-168 428h-8l10 -201v-329h-76v628zM290 1329q-62 0 -92 -28.5t-30 -66.5t24.5 -62.5t65.5 -45.5l100 -51q59 -29 91 -67.5t32 -105.5t-54 -119t-135 -52q-148 0 -233 94l47 52
q41 -39 81 -59.5t97.5 -20.5t89.5 27.5t32 63.5q0 54 -17 72.5t-78 49.5l-100 53q-43 23 -81 59.5t-38 110.5t55 118t125 44q120 0 197 -76l-45 -53q-72 63 -134 63z" />
    <glyph glyph-name="trademark" unicode="&#x2122;" 
d="M217 1313h-217v71h514v-71h-219v-557h-78v557zM618 1384h105l106 -258l64 -176h8l62 176l102 258h104v-628h-73v329l8 201h-8l-168 -428h-68l-168 428h-8l10 -201v-329h-76v628z" />
    <glyph glyph-name="uni2126" unicode="&#x2126;" 
d="M203 711q0 -424 268 -641v-70h-393v80h272v8q-246 246 -246 623q0 291 139 477t372 186t371 -187t138 -476q0 -378 -245 -623v-8h272v-80h-393v70q268 217 268 641q0 251 -109.5 414t-302.5 163t-302 -163.5t-109 -413.5z" />
    <glyph glyph-name="estimated" unicode="&#x212e;" 
d="M901 684q12 0 12 12v459q0 25 -20 45q-111 111 -277 111t-280 -119q-17 -28 -17 -45v-451q0 -12 9 -12h573zM626 -25q-128 0 -229.5 54.5t-178.5 147.5t-121 218t-44 268.5t44 268.5t121 218t178.5 147.5t218 54.5t218 -54.5t222.5 -201.5t121 -432v-17h-848q-8 0 -9 -8
v-459q0 -13 17 -41q110 -123 295 -123q96 0 192.5 62.5t167.5 167.5h78q-84 -123 -199.5 -197t-243.5 -74z" />
    <glyph glyph-name="onethird" unicode="&#x2153;" 
d="M406 1309v-617h-78v494h-168v59q102 17 182 64h64zM1157 1221l-371 -404l-45 41l351 420zM72 129l370 403l45 -40l-350 -420zM676 545q75 96 230 96q79 0 134 -42t56 -124q0 -115 -119 -158q63 -12 106 -52q43 -39 43 -119t-65 -126q-66 -45 -154 -45q-87 0 -155 37
t-107 88l55 50q31 -47 82 -78t115 -31q150 0 150 119q0 125 -224 125v57q100 0 147 37q46 37 46 87t-32 80t-86 30q-111 -1 -175 -78z" />
    <glyph glyph-name="twothirds" unicode="&#x2154;" 
d="M306 1333q229 0 231 -205q0 -112 -180 -266q-54 -47 -115 -102h329v-68h-462v49q220 181 264 227q82 85 83 154q1 70 -37 107t-106 37q-94 0 -166 -95l-55 43q99 119 214 119zM1157 1221l-371 -404l-45 41l351 420zM72 129l370 403l45 -40l-350 -420zM676 545
q75 96 230 96q79 0 134 -42t56 -124q0 -115 -119 -158q63 -12 106 -52q43 -39 43 -119t-65 -126q-66 -45 -154 -45q-87 0 -155 37t-107 88l55 50q31 -47 82 -78t115 -31q150 0 150 119q0 125 -224 125v57q100 0 147 37q46 37 46 87t-32 80t-86 30q-111 -1 -175 -78z" />
    <glyph glyph-name="oneeighth" unicode="&#x215b;" 
d="M406 1309v-617h-78v494h-168v59q102 17 182 64h64zM1157 1221l-371 -404l-45 41l351 420zM72 129l370 403l45 -40l-350 -420zM1012 313q133 -58 133 -147q0 -90 -70 -139q-70 -50 -179 -51q-110 -2 -176 52t-67 122q0 68 42 107q42 40 96 67v8q-45 28 -78 60t-33 94
t64 109q65 46 159 46q93 0 155 -47t62 -117q0 -91 -108 -155v-9zM902 578q-68 0 -106 -29t-38 -77t57 -78t133 -50q98 54 96 131q0 43 -36 73q-37 30 -106 30zM731 156q0 -49 48 -83q47 -34 115 -34t121 32q52 32 52 74q0 71 -68 105q-31 16 -69 28t-78 23
q-121 -55 -121 -145z" />
    <glyph glyph-name="threeeighths" unicode="&#x215c;" 
d="M332 733q149 0 149 119q0 125 -223 125v57q100 0 146 37t46 87t-31 80q-33 30 -87 30q-111 0 -174 -78l-47 47q76 97 230 97q79 0 134 -43q55 -42 55 -124q0 -115 -118 -157q63 -12 106 -52t43 -120q1 -80 -65 -125t-154 -45t-156 37t-106 88l55 49q31 -47 82 -78
t115 -31zM1157 1221l-371 -404l-45 41l351 420zM72 129l370 403l45 -40l-350 -420zM1012 313q133 -58 133 -147q0 -90 -70 -139q-70 -50 -179 -51q-110 -2 -176 52t-67 122q0 68 42 107q42 40 96 67v8q-45 28 -78 60t-33 94t64 109q65 46 159 46q93 0 155 -47t62 -117
q0 -91 -108 -155v-9zM902 578q-68 0 -106 -29t-38 -77t57 -78t133 -50q98 54 96 131q0 43 -36 73q-37 30 -106 30zM731 156q0 -49 48 -83q47 -34 115 -34t121 32q52 32 52 74q0 71 -68 105q-31 16 -69 28t-78 23q-121 -55 -121 -145z" />
    <glyph glyph-name="fiveeighths" unicode="&#x215d;" 
d="M496 882q0 68 -43 106t-118 38t-151 -59l-47 32l37 310h358v-72h-290l-27 -184q57 33 144 33t152 -54q65 -53 65 -152t-69 -156q-69 -56 -168 -56t-157 37t-102 88l55 49q35 -47 81 -78t118 -31t117 40t45 109zM1157 1221l-371 -404l-45 41l351 420zM72 129l370 403
l45 -40l-350 -420zM1012 313q133 -58 133 -147q0 -90 -70 -139q-70 -50 -179 -51q-110 -2 -176 52t-67 122q0 68 42 107q42 40 96 67v8q-45 28 -78 60t-33 94t64 109q65 46 159 46q93 0 155 -47t62 -117q0 -91 -108 -155v-9zM902 578q-68 0 -106 -29t-38 -77t57 -78t133 -50
q98 54 96 131q0 43 -36 73q-37 30 -106 30zM731 156q0 -49 48 -83q47 -34 115 -34t121 32q52 32 52 74q0 71 -68 105q-31 16 -69 28t-78 23q-121 -55 -121 -145z" />
    <glyph glyph-name="seveneighths" unicode="&#x215e;" 
d="M100 1241v68h471v-49q-185 -207 -218 -415q-11 -71 -15 -153h-78q12 179 61 300t156 249h-377zM1157 1221l-371 -404l-45 41l351 420zM72 129l370 403l45 -40l-350 -420zM1012 313q133 -58 133 -147q0 -90 -70 -139q-70 -50 -179 -51q-110 -2 -176 52t-67 122
q0 68 42 107q42 40 96 67v8q-45 28 -78 60t-33 94t64 109q65 46 159 46q93 0 155 -47t62 -117q0 -91 -108 -155v-9zM902 578q-68 0 -106 -29t-38 -77t57 -78t133 -50q98 54 96 131q0 43 -36 73q-37 30 -106 30zM731 156q0 -49 48 -83q47 -34 115 -34t121 32q52 32 52 74
q0 71 -68 105q-31 16 -69 28t-78 23q-121 -55 -121 -145z" />
    <glyph glyph-name="uni2190" unicode="&#x2190;" 
d="M1167 555v-78h-995l471 -450l-53 -56l-551 541v8l551 541l53 -55l-471 -451h995z" />
    <glyph glyph-name="arrowup" unicode="&#x2191;" 
d="M653 -49h-78v995l-450 -473l-55 53l540 551h8l541 -551l-55 -53l-451 473v-995z" />
    <glyph glyph-name="uni2192" unicode="&#x2192;" 
d="M57 477v78h998l-473 451l53 55l551 -541v-8l-551 -541l-53 56l473 450h-998z" />
    <glyph glyph-name="arrowdown" unicode="&#x2193;" 
d="M575 1077h78v-995l451 473l55 -53l-541 -551h-8l-540 551l55 53l450 -473v995z" />
    <glyph glyph-name="partialdiff" unicode="&#x2202;" 
d="M699.5 1376q230.5 0 290 -232.5t59.5 -402.5q0 -341 -141.5 -553.5t-377.5 -212.5q-143 0 -248.5 107.5t-105.5 294.5t117 313.5t330 126.5q180 0 331 -158q2 23 2 28v56q0 290 -86 421.5t-230 131.5q-143 0 -247 -108l-49 59q125 129 355.5 129zM944 565
q-147 172 -322 172t-264.5 -105t-89.5 -252t78.5 -236t177.5 -89q179 0 285 140.5t135 369.5z" />
    <glyph glyph-name="uni2206" unicode="&#x2206;" 
d="M1026 82l-250 709l-155 452h-9l-407 -1161h821zM1133 0h-1033v55l467 1295h99l467 -1295v-55z" />
    <glyph glyph-name="product" unicode="&#x220f;" 
d="M139 1309h951v-1555h-99v1473h-758v-1473h-94v1555z" />
    <glyph glyph-name="summation" unicode="&#x2211;" 
d="M178 1309h873v-80h-752v-8l487 -686l-510 -691v-8h838v-82h-958v68l526 710l-504 709v68z" />
    <glyph glyph-name="minus" unicode="&#x2212;" 
d="M195 715h839v-78h-839v78z" />
    <glyph glyph-name="uni2215" unicode="&#x2215;" 
d="M1157 1221l-371 -404l-45 41l351 420zM72 129l370 403l45 -40l-350 -420z" />
    <glyph glyph-name="uni2219" unicode="&#x2219;" 
d="M483 704q0 64 38 98t85 34t85 -34t38 -98t-38 -100q-38 -35 -85 -35t-85 35q-38 36 -38 100z" />
    <glyph glyph-name="radical" unicode="&#x221a;" 
d="M645 14q10 -27 16.5 -53.5t14.5 -52.5h8q6 27 10 53.5t11 52.5l389 1665h77l-446 -1894h-82l-307 899l-141 -66l-31 64l223 104z" />
    <glyph glyph-name="infinity" unicode="&#x221e;" 
d="M270 887q-78 0 -132 -54.5t-54 -153.5t56 -162.5t139 -63.5q153 0 251 215q-61 115 -121.5 167t-138.5 52zM933 434q96 0 154 70t58 178t-63 180t-158 72t-163 -59.5t-138 -190.5q108 -199 186 -224.5t124 -25.5zM1140 917.5q85 -92.5 85 -237.5t-82.5 -240.5
t-206.5 -95.5q-123 0 -202 64.5t-156 189.5h-9q-61 -98 -131 -160.5t-174 -62.5t-182 86.5t-78 215.5t81 214.5t198 85.5q177 0 292 -225h9q141 258 338 258q133 0 218 -92.5z" />
    <glyph glyph-name="integral" unicode="&#x222b;" 
d="M607 649q-46 376 -46 494q0 236 48.5 353.5t178.5 117.5q62 0 82 -12l-14 -74q-24 8 -69 8q-83 0 -111.5 -87.5t-28.5 -235.5t14.5 -286.5t45 -403t30.5 -380.5q0 -234 -47.5 -350.5t-175.5 -116.5q-61 0 -88 13l14 73q28 -8 72 -8q82 0 111.5 87t29.5 260q0 172 -46 548
z" />
    <glyph glyph-name="approxequal" unicode="&#x2248;" 
d="M426 1016q62 0 112 -29t93 -63t85 -64q42 -29 93 -29q51 1 80 25q51 43 90 158l63 -29q-78 -231 -245 -231q-59 0 -107 28t-92 64q-43 36 -85 64t-94 28t-91 -35q-38 -35 -78 -147l-64 24q45 136 111 186t129 50zM426 600q62 0 112 -29t93 -63t94 -70q51 -35 114 -19
t99 82q20 36 41 97l63 -29q-78 -231 -245 -231q-59 0 -107 29t-92 63q-43 34 -94 70q-51 35 -124 17q-73 -19 -130 -177l-64 25q45 137 111 186t129 49z" />
    <glyph glyph-name="notequal" unicode="&#x2260;" 
d="M195 428v78h272l209 340h-481v78h528l162 264h84l-162 -264h227v-78h-272l-209 -340h481v-78h-528l-162 -264h-84l162 264h-227z" />
    <glyph glyph-name="lessequal" unicode="&#x2264;" 
d="M195 733l839 328v-88l-745 -283v-8l745 -283v-88l-839 328v94zM195 76h839v-76h-839v76z" />
    <glyph glyph-name="greaterequal" unicode="&#x2265;" 
d="M1034 639l-839 -328v88l745 283v8l-745 283v88l839 -328v-94zM195 76h839v-76h-839v76z" />
    <glyph glyph-name="uni2500" unicode="&#x2500;" 
d="M-45 659h1319v-90h-1319v90z" />
    <glyph glyph-name="uni2501" unicode="&#x2501;" 
d="M-45 702h1319v-176h-1319v176z" />
    <glyph glyph-name="uni2502" unicode="&#x2502;" 
d="M569 2048h90v-2867h-90v2867z" />
    <glyph glyph-name="uni2503" unicode="&#x2503;" 
d="M526 2048h176v-2867h-176v2867z" />
    <glyph glyph-name="uni2504" unicode="&#x2504;" 
d="M887 659h274v-90h-274v90zM477 659h275v-90h-275v90zM68 659h274v-90h-274v90z" />
    <glyph glyph-name="uni2505" unicode="&#x2505;" 
d="M887 702h274v-176h-274v176zM477 702h275v-176h-275v176zM68 702h274v-176h-274v176z" />
    <glyph glyph-name="uni2506" unicode="&#x2506;" 
d="M569 1522h90v-455h-90v455zM569 840h90v-455h-90v455zM569 158h90v-455h-90v455z" />
    <glyph glyph-name="uni2507" unicode="&#x2507;" 
d="M526 1522h176v-455h-176v455zM526 840h176v-455h-176v455zM526 158h176v-455h-176v455z" />
    <glyph glyph-name="uni2508" unicode="&#x2508;" 
d="M958 659h232v-90h-232v90zM651 659h232v-90h-232v90zM344 659h231v-90h-231v90zM37 659h231v-90h-231v90z" />
    <glyph glyph-name="uni2509" unicode="&#x2509;" 
d="M958 702h232v-176h-232v176zM651 702h232v-176h-232v176zM344 702h231v-176h-231v176zM37 702h231v-176h-231v176z" />
    <glyph glyph-name="uni250A" unicode="&#x250a;" 
d="M569 1575h90v-385h-90v385zM569 1063h90v-385h-90v385zM569 551h90v-385h-90v385zM569 39h90v-385h-90v385z" />
    <glyph glyph-name="uni250B" unicode="&#x250b;" 
d="M526 1575h176v-385h-176v385zM526 1063h176v-385h-176v385zM526 551h176v-385h-176v385zM526 39h176v-385h-176v385z" />
    <glyph glyph-name="uni250C" unicode="&#x250c;" 
d="M569 659h705v-90h-615v-1388h-90v1478z" />
    <glyph glyph-name="uni250D" unicode="&#x250d;" 
d="M569 702h705v-176h-615v-1345h-90v1521z" />
    <glyph glyph-name="uni250E" unicode="&#x250e;" 
d="M526 659h748v-90h-572v-1388h-176v1478z" />
    <glyph glyph-name="uni250F" unicode="&#x250f;" 
d="M526 702h748v-176h-572v-1345h-176v1521z" />
    <glyph glyph-name="uni2510" unicode="&#x2510;" 
d="M-45 659h704v-1478h-90v1388h-614v90z" />
    <glyph glyph-name="uni2511" unicode="&#x2511;" 
d="M-45 702h704v-1521h-90v1345h-614v176z" />
    <glyph glyph-name="uni2512" unicode="&#x2512;" 
d="M-45 659h747v-1478h-176v1388h-571v90z" />
    <glyph glyph-name="uni2513" unicode="&#x2513;" 
d="M-45 702h747v-1521h-176v1345h-571v176z" />
    <glyph glyph-name="uni2514" unicode="&#x2514;" 
d="M569 2048h90v-1389h615v-90h-705v1479z" />
    <glyph glyph-name="uni2515" unicode="&#x2515;" 
d="M569 2048h90v-1346h615v-176h-705v1522z" />
    <glyph glyph-name="uni2516" unicode="&#x2516;" 
d="M526 2048h176v-1389h572v-90h-748v1479z" />
    <glyph glyph-name="uni2517" unicode="&#x2517;" 
d="M526 2048h176v-1346h572v-176h-748v1522z" />
    <glyph glyph-name="uni2518" unicode="&#x2518;" 
d="M-45 659h614v1389h90v-1479h-704v90z" />
    <glyph glyph-name="uni2519" unicode="&#x2519;" 
d="M-45 702h614v1346h90v-1522h-704v176z" />
    <glyph glyph-name="uni251A" unicode="&#x251a;" 
d="M-45 659h571v1389h176v-1479h-747v90z" />
    <glyph glyph-name="uni251B" unicode="&#x251b;" 
d="M-45 702h571v1346h176v-1522h-747v176z" />
    <glyph glyph-name="uni251C" unicode="&#x251c;" 
d="M569 2048h90v-1389h615v-90h-615v-1388h-90v2867z" />
    <glyph glyph-name="uni251D" unicode="&#x251d;" 
d="M569 2048h90v-1346h615v-176h-615v-1345h-90v2867z" />
    <glyph glyph-name="uni251E" unicode="&#x251e;" 
d="M526 2048h176v-1389h572v-90h-615v-1388h-90v1388h-43v1479z" />
    <glyph glyph-name="uni251F" unicode="&#x251f;" 
d="M526 659h43v1389h90v-1389h615v-90h-572v-1388h-176v1478z" />
    <glyph glyph-name="uni2520" unicode="&#x2520;" 
d="M526 2048h176v-1389h572v-90h-572v-1388h-176v2867z" />
    <glyph glyph-name="uni2521" unicode="&#x2521;" 
d="M526 2048h176v-1346h572v-176h-615v-1345h-90v1345h-43v1522z" />
    <glyph glyph-name="uni2522" unicode="&#x2522;" 
d="M526 702h43v1346h90v-1346h615v-176h-572v-1345h-176v1521z" />
    <glyph glyph-name="uni2523" unicode="&#x2523;" 
d="M526 2048h176v-1346h572v-176h-572v-1345h-176v2867z" />
    <glyph glyph-name="uni2524" unicode="&#x2524;" 
d="M-45 659h614v1389h90v-2867h-90v1388h-614v90z" />
    <glyph glyph-name="uni2525" unicode="&#x2525;" 
d="M-45 702h614v1346h90v-2867h-90v1345h-614v176z" />
    <glyph glyph-name="uni2526" unicode="&#x2526;" 
d="M-45 659h571v1389h176v-1479h-43v-1388h-90v1388h-614v90z" />
    <glyph glyph-name="uni2527" unicode="&#x2527;" 
d="M-45 659h614v1389h90v-1389h43v-1478h-176v1388h-571v90z" />
    <glyph glyph-name="uni2528" unicode="&#x2528;" 
d="M-45 659h571v1389h176v-2867h-176v1388h-571v90z" />
    <glyph glyph-name="uni2529" unicode="&#x2529;" 
d="M-45 702h571v1346h176v-1522h-43v-1345h-90v1345h-614v176z" />
    <glyph glyph-name="uni252A" unicode="&#x252a;" 
d="M-45 702h614v1346h90v-1346h43v-1521h-176v1345h-571v176z" />
    <glyph glyph-name="uni252B" unicode="&#x252b;" 
d="M-45 702h571v1346h176v-2867h-176v1345h-571v176z" />
    <glyph glyph-name="uni252C" unicode="&#x252c;" 
d="M-45 659h1319v-90h-615v-1388h-90v1388h-614v90z" />
    <glyph glyph-name="uni252D" unicode="&#x252d;" 
d="M-45 702h704v-43h615v-90h-615v-1388h-90v1345h-614v176z" />
    <glyph glyph-name="uni252E" unicode="&#x252e;" 
d="M-45 659h614v43h705v-176h-615v-1345h-90v1388h-614v90z" />
    <glyph glyph-name="uni252F" unicode="&#x252f;" 
d="M-45 702h1319v-176h-615v-1345h-90v1345h-614v176z" />
    <glyph glyph-name="uni2530" unicode="&#x2530;" 
d="M-45 659h1319v-90h-572v-1388h-176v1388h-571v90z" />
    <glyph glyph-name="uni2531" unicode="&#x2531;" 
d="M-45 702h747v-43h572v-90h-572v-1388h-176v1345h-571v176z" />
    <glyph glyph-name="uni2532" unicode="&#x2532;" 
d="M-45 659h571v43h748v-176h-572v-1345h-176v1388h-571v90z" />
    <glyph glyph-name="uni2533" unicode="&#x2533;" 
d="M-45 702h1319v-176h-572v-1345h-176v1345h-571v176z" />
    <glyph glyph-name="uni2534" unicode="&#x2534;" 
d="M-45 659h614v1389h90v-1389h615v-90h-1319v90z" />
    <glyph glyph-name="uni2535" unicode="&#x2535;" 
d="M-45 702h614v1346h90v-1389h615v-90h-615v-43h-704v176z" />
    <glyph glyph-name="uni2536" unicode="&#x2536;" 
d="M-45 659h614v1389h90v-1346h615v-176h-705v43h-614v90z" />
    <glyph glyph-name="uni2537" unicode="&#x2537;" 
d="M-45 702h614v1346h90v-1346h615v-176h-1319v176z" />
    <glyph glyph-name="uni2538" unicode="&#x2538;" 
d="M-45 659h571v1389h176v-1389h572v-90h-1319v90z" />
    <glyph glyph-name="uni2539" unicode="&#x2539;" 
d="M-45 702h571v1346h176v-1389h572v-90h-572v-43h-747v176z" />
    <glyph glyph-name="uni253A" unicode="&#x253a;" 
d="M-45 659h571v1389h176v-1346h572v-176h-748v43h-571v90z" />
    <glyph glyph-name="uni253B" unicode="&#x253b;" 
d="M-45 702h571v1346h176v-1346h572v-176h-1319v176z" />
    <glyph glyph-name="uni253C" unicode="&#x253c;" 
d="M-45 659h614v1389h90v-1389h615v-90h-615v-1388h-90v1388h-614v90z" />
    <glyph glyph-name="uni253D" unicode="&#x253d;" 
d="M-45 702h614v1346h90v-1389h615v-90h-615v-1388h-90v1345h-614v176z" />
    <glyph glyph-name="uni253E" unicode="&#x253e;" 
d="M-45 659h614v1389h90v-1346h615v-176h-615v-1345h-90v1388h-614v90z" />
    <glyph glyph-name="uni253F" unicode="&#x253f;" 
d="M-45 702h614v1346h90v-1346h615v-176h-615v-1345h-90v1345h-614v176z" />
    <glyph glyph-name="uni2540" unicode="&#x2540;" 
d="M-45 659h571v1389h176v-1389h572v-90h-615v-1388h-90v1388h-614v90z" />
    <glyph glyph-name="uni2541" unicode="&#x2541;" 
d="M-45 659h614v1389h90v-1389h615v-90h-572v-1388h-176v1388h-571v90z" />
    <glyph glyph-name="uni2542" unicode="&#x2542;" 
d="M-45 659h571v1389h176v-1389h572v-90h-572v-1388h-176v1388h-571v90z" />
    <glyph glyph-name="uni2543" unicode="&#x2543;" 
d="M-45 702h571v1346h176v-1389h572v-90h-572v-43h-43v-1345h-90v1345h-614v176z" />
    <glyph glyph-name="uni2544" unicode="&#x2544;" 
d="M-45 659h571v1389h176v-1346h572v-176h-615v-1345h-90v1345h-43v43h-571v90z" />
    <glyph glyph-name="uni2545" unicode="&#x2545;" 
d="M-45 702h614v1346h90v-1346h43v-43h572v-90h-572v-1388h-176v1345h-571v176z" />
    <glyph glyph-name="uni2546" unicode="&#x2546;" 
d="M-45 659h571v43h43v1346h90v-1346h615v-176h-572v-1345h-176v1388h-571v90z" />
    <glyph glyph-name="uni2547" unicode="&#x2547;" 
d="M-45 702h571v1346h176v-1346h572v-176h-615v-1345h-90v1345h-614v176z" />
    <glyph glyph-name="uni2548" unicode="&#x2548;" 
d="M-45 702h614v1346h90v-1346h615v-176h-572v-1345h-176v1345h-571v176z" />
    <glyph glyph-name="uni2549" unicode="&#x2549;" 
d="M-45 702h571v1346h176v-1389h572v-90h-572v-1388h-176v1345h-571v176z" />
    <glyph glyph-name="uni254A" unicode="&#x254a;" 
d="M-45 659h571v1389h176v-1346h572v-176h-572v-1345h-176v1388h-571v90z" />
    <glyph glyph-name="uni254B" unicode="&#x254b;" 
d="M-45 702h571v1346h176v-1346h572v-176h-572v-1345h-176v1345h-571v176z" />
    <glyph glyph-name="uni254C" unicode="&#x254c;" 
d="M768 659h307v-90h-307v90zM154 659h307v-90h-307v90z" />
    <glyph glyph-name="uni254D" unicode="&#x254d;" 
d="M768 702h307v-176h-307v176zM154 702h307v-176h-307v176z" />
    <glyph glyph-name="uni254E" unicode="&#x254e;" 
d="M569 1382h90v-512h-90v512zM569 358h90v-512h-90v512z" />
    <glyph glyph-name="uni254F" unicode="&#x254f;" 
d="M526 1382h176v-512h-176v512zM526 358h176v-512h-176v512z" />
    <glyph glyph-name="uni2550" unicode="&#x2550;" 
d="M-45 569h1319v-88h-1319v88zM-45 748h1319v-89h-1319v89z" />
    <glyph glyph-name="uni2551" unicode="&#x2551;" 
d="M659 2048h89v-2867h-89v2867zM481 2048h88v-2867h-88v2867z" />
    <glyph glyph-name="uni2552" unicode="&#x2552;" 
d="M569 748h705v-89h-615v-90h615v-88h-615v-1300h-90v1567z" />
    <glyph glyph-name="uni2553" unicode="&#x2553;" 
d="M481 659h793v-90h-526v-1388h-89v1388h-90v-1388h-88v1478z" />
    <glyph glyph-name="uni2554" unicode="&#x2554;" 
d="M659 569h615v-88h-526v-1300h-89v1388zM481 748h793v-89h-705v-1478h-88v1567z" />
    <glyph glyph-name="uni2555" unicode="&#x2555;" 
d="M-45 748h704v-1567h-90v1300h-614v88h614v90h-614v89z" />
    <glyph glyph-name="uni2556" unicode="&#x2556;" 
d="M659 569h-90v-1388h-88v1388h-526v90h793v-1478h-89v1388z" />
    <glyph glyph-name="uni2557" unicode="&#x2557;" 
d="M-45 569h614v-1388h-88v1300h-526v88zM-45 748h793v-1567h-89v1478h-704v89z" />
    <glyph glyph-name="uni2558" unicode="&#x2558;" 
d="M569 2048h90v-1300h615v-89h-615v-90h615v-88h-705v1567z" />
    <glyph glyph-name="uni2559" unicode="&#x2559;" 
d="M481 2048h88v-1389h90v1389h89v-1389h526v-90h-793v1479z" />
    <glyph glyph-name="uni255A" unicode="&#x255a;" 
d="M659 2048h89v-1300h526v-89h-615v1389zM481 2048h88v-1479h705v-88h-793v1567z" />
    <glyph glyph-name="uni255B" unicode="&#x255b;" 
d="M-45 748h614v1300h90v-1567h-704v88h614v90h-614v89z" />
    <glyph glyph-name="uni255C" unicode="&#x255c;" 
d="M-45 659h526v1389h88v-1389h90v1389h89v-1479h-793v90z" />
    <glyph glyph-name="uni255D" unicode="&#x255d;" 
d="M-45 748h526v1300h88v-1389h-614v89zM-45 569h704v1479h89v-1567h-793v88z" />
    <glyph glyph-name="uni255E" unicode="&#x255e;" 
d="M569 2048h90v-1300h615v-89h-615v-90h615v-88h-615v-1300h-90v2867z" />
    </font>
</defs>
</svg>
